<svg width="24" height="24" viewBox="0 0 24 24" fill="none" xmlns="http://www.w3.org/2000/svg">
<path fill-rule="evenodd" clip-rule="evenodd" d="M6.75001 0.875C6.75001 0.667893 6.58212 0.5 6.37501 0.5C6.1679 0.5 6.00001 0.667893 6.00001 0.875V1.24998H4.125C2.47329 1.24998 1.125 2.59826 1.125 4.24998V20C1.125 21.6517 2.47329 23 4.125 23H19.875C21.5267 23 22.875 21.6517 22.875 20V4.24998C22.875 2.59826 21.5267 1.24998 19.875 1.24998H18V0.875C18 0.667893 17.8321 0.5 17.625 0.5C17.4179 0.5 17.25 0.667893 17.25 0.875V1.24998H12.375V0.875C12.375 0.667893 12.2071 0.5 12 0.5C11.7929 0.5 11.625 0.667893 11.625 0.875V1.24998H6.75001V0.875ZM10.875 8.37497C10.6679 8.37497 10.5 8.54286 10.5 8.74997V11.7595H7.49055C7.28344 11.7595 7.11555 11.9273 7.11555 12.1345V14.3845C7.11555 14.5916 7.28344 14.7595 7.49055 14.7595H10.5V17.75C10.5 17.9571 10.6679 18.125 10.875 18.125H13.125C13.3321 18.125 13.5 17.9571 13.5 17.75V14.7595H16.4905C16.6977 14.7595 16.8655 14.5916 16.8655 14.3845V12.1345C16.8655 11.9273 16.6977 11.7595 16.4905 11.7595H13.5V8.74997C13.5 8.54286 13.3321 8.37497 13.125 8.37497H10.875Z" fill="#181818"/>
</svg>
