<svg width="24" height="24" viewBox="0 0 24 24" fill="none" xmlns="http://www.w3.org/2000/svg">
<g clip-path="url(#clip0_2526_528)">
<path fill-rule="evenodd" clip-rule="evenodd" d="M0.75 14.625C0.75 12.761 2.26104 11.25 4.125 11.25C5.98896 11.25 7.5 12.761 7.5 14.625V19.875C7.5 21.739 5.98896 23.25 4.125 23.25C2.26104 23.25 0.75 21.739 0.75 19.875V14.625ZM4.125 12.75C3.08947 12.75 2.25 13.5895 2.25 14.625V19.875C2.25 20.9105 3.08947 21.75 4.125 21.75C5.16053 21.75 6 20.9105 6 19.875V14.625C6 13.5895 5.16053 12.75 4.125 12.75Z" fill="#181818"/>
<path fill-rule="evenodd" clip-rule="evenodd" d="M8.625 9.375C8.625 7.51104 10.136 6 12 6C13.864 6 15.375 7.51104 15.375 9.375V19.875C15.375 21.739 13.864 23.25 12 23.25C10.136 23.25 8.625 21.739 8.625 19.875V9.375ZM12 7.5C10.9645 7.5 10.125 8.33947 10.125 9.375V19.875C10.125 20.9105 10.9645 21.75 12 21.75C13.0355 21.75 13.875 20.9105 13.875 19.875V9.375C13.875 8.33947 13.0355 7.5 12 7.5Z" fill="#181818"/>
<path fill-rule="evenodd" clip-rule="evenodd" d="M16.5 4.125C16.5 2.26104 18.011 0.75 19.875 0.75C21.739 0.75 23.25 2.26104 23.25 4.125V19.875C23.25 21.739 21.739 23.25 19.875 23.25C18.011 23.25 16.5 21.739 16.5 19.875V4.125ZM19.875 2.25C18.8395 2.25 18 3.08947 18 4.125V19.875C18 20.9105 18.8395 21.75 19.875 21.75C20.9105 21.75 21.75 20.9105 21.75 19.875V4.125C21.75 3.08947 20.9105 2.25 19.875 2.25Z" fill="#181818"/>
</g>
<defs>
<clipPath id="clip0_2526_528">
<rect width="24" height="24" fill="white"/>
</clipPath>
</defs>
</svg>
