<svg width="24" height="24" viewBox="0 0 24 24" fill="none" xmlns="http://www.w3.org/2000/svg">
<path fill-rule="evenodd" clip-rule="evenodd" d="M11.4915 1.69869C11.7788 1.43377 12.2213 1.43377 12.5085 1.69869L21.78 10.2501C22.009 10.4624 22.1913 10.7201 22.3152 11.0068C22.4388 11.2926 22.5018 11.6009 22.5 11.9123V20.25C22.5 20.8467 22.263 21.419 21.841 21.841C21.4191 22.2629 20.8468 22.5 20.25 22.5H3.75003C3.1533 22.5 2.581 22.2629 2.15904 21.841C1.73709 21.419 1.50003 20.8467 1.50003 20.25V11.9123C1.49831 11.6009 1.56123 11.2926 1.68482 11.0068C1.80878 10.7201 1.99106 10.4624 2.22005 10.2501L2.22154 10.2487L11.4915 1.69869ZM3.23943 11.3505C3.16337 11.4212 3.10282 11.5069 3.06161 11.6022C3.02029 11.6977 2.99931 11.8008 3.00002 11.9049L3.00005 11.91L3.00003 20.25C3.00003 20.4489 3.07905 20.6397 3.2197 20.7803C3.36036 20.921 3.55112 21 3.75003 21H20.25C20.4489 21 20.6397 20.921 20.7804 20.7803C20.921 20.6397 21 20.4489 21 20.25V11.9049C21.0007 11.8008 20.9798 11.6977 20.9385 11.6022C20.8973 11.5069 20.8367 11.4212 20.7607 11.3505L12 3.2703L3.23943 11.3505Z" fill="#181818"/>
</svg>
