<svg width="24" height="24" viewBox="0 0 24 24" fill="none" xmlns="http://www.w3.org/2000/svg">
<path fill-rule="evenodd" clip-rule="evenodd" d="M10.2319 0.55247C18.1583 -0.711148 24.8399 6.07107 23.5727 13.7896L23.5724 13.7914C22.7654 18.6336 18.854 22.4256 14.1349 23.2313L14.132 23.2318C11.4903 23.6721 9.06211 23.1634 6.9607 22.1231L3.9316 23.198C2.09571 23.8628 0.366242 21.8969 1.16614 20.1371L1.16793 20.1332L2.29367 17.6941C0.948913 15.3503 0.349507 12.5023 0.896232 9.55003L0.898258 9.53951C1.82224 4.91959 5.62405 1.35876 10.2207 0.554344L10.2319 0.55247ZM8.95112 11.8953C8.95112 12.7868 8.22845 13.5095 7.33699 13.5095C6.44553 13.5095 5.72286 12.7868 5.72286 11.8953C5.72286 11.0039 6.44553 10.2812 7.33699 10.2812C8.22845 10.2812 8.95112 11.0039 8.95112 11.8953ZM12.1794 13.5095C13.0708 13.5095 13.7935 12.7868 13.7935 11.8953C13.7935 11.0039 13.0708 10.2812 12.1794 10.2812C11.2879 10.2812 10.5653 11.0039 10.5653 11.8953C10.5653 12.7868 11.2879 13.5095 12.1794 13.5095ZM18.6359 11.8953C18.6359 12.7868 17.9132 13.5095 17.0218 13.5095C16.1303 13.5095 15.4076 12.7868 15.4076 11.8953C15.4076 11.0039 16.1303 10.2812 17.0218 10.2812C17.9132 10.2812 18.6359 11.0039 18.6359 11.8953Z" fill="#181818"/>
</svg>
