<svg width="24" height="24" viewBox="0 0 24 24" fill="none" xmlns="http://www.w3.org/2000/svg">
<path fill-rule="evenodd" clip-rule="evenodd" d="M6.58567 1.53148C6.84443 1.85492 6.79199 2.32689 6.46854 2.58565L3.13521 5.25232C2.81176 5.51107 2.33979 5.45863 2.08103 5.13519C1.82228 4.81174 1.87472 4.33977 2.19816 4.08101L5.5315 1.41435C5.85494 1.15559 6.32691 1.20803 6.58567 1.53148ZM17.4144 1.53148C17.6731 1.20803 18.1451 1.15559 18.4685 1.41435L21.8019 4.08101C22.1253 4.33977 22.1778 4.81174 21.919 5.13519C21.6602 5.45863 21.1883 5.51107 20.8648 5.25232L17.5315 2.58565C17.2081 2.32689 17.1556 1.85492 17.4144 1.53148ZM8.65154 4.58272C9.71314 4.14299 10.851 3.91666 12 3.91666C13.1491 3.91666 14.2869 4.14299 15.3485 4.58272C16.4101 5.02245 17.3747 5.66697 18.1872 6.47948C18.9997 7.29199 19.6442 8.25658 20.084 9.31818C20.5237 10.3798 20.75 11.5176 20.75 12.6667C20.75 13.8157 20.5237 14.9535 20.084 16.0151C19.6442 17.0767 18.9997 18.0413 18.1872 18.8538C17.8412 19.1999 17.4676 19.5154 17.0707 19.7976L18.0042 21.6646C18.1894 22.0351 18.0392 22.4856 17.6688 22.6708C17.2983 22.8561 16.8478 22.7059 16.6625 22.3354L15.775 20.5604C15.6347 20.6275 15.4925 20.691 15.3485 20.7506C14.2869 21.1903 13.1491 21.4167 12 21.4167C10.851 21.4167 9.71314 21.1903 8.65154 20.7506C8.50761 20.691 8.36547 20.6276 8.22525 20.5606L7.33746 22.3355C7.15216 22.706 6.70163 22.8561 6.33118 22.6708C5.96072 22.4855 5.81062 22.0349 5.99591 21.6645L6.92959 19.7978C6.53258 19.5155 6.15891 19.1999 5.81283 18.8538C5.00032 18.0413 4.3558 17.0767 3.91607 16.0151C3.47634 14.9535 3.25002 13.8157 3.25002 12.6667C3.25002 11.5176 3.47634 10.3798 3.91607 9.31818C4.3558 8.25659 5.00032 7.29199 5.81283 6.47948C6.62535 5.66697 7.58994 5.02245 8.65154 4.58272ZM12 5.41666C11.0479 5.41666 10.1052 5.60419 9.22556 5.96854C8.34595 6.33288 7.54672 6.86691 6.87349 7.54014C6.20027 8.21336 5.66624 9.0126 5.30189 9.89221C4.93754 10.7718 4.75002 11.7146 4.75002 12.6667C4.75002 13.6187 4.93754 14.5615 5.30189 15.4411C5.66624 16.3207 6.20027 17.12 6.87349 17.7932C7.54672 18.4664 8.34595 19.0004 9.22556 19.3648C10.1052 19.7291 11.0479 19.9167 12 19.9167C12.9521 19.9167 13.8949 19.7291 14.7745 19.3648C15.6541 19.0004 16.4533 18.4664 17.1265 17.7932C17.7998 17.12 18.3338 16.3207 18.6981 15.4411C19.0625 14.5615 19.25 13.6187 19.25 12.6667C19.25 11.7146 19.0625 10.7718 18.6981 9.89221C18.3338 9.0126 17.7998 8.21337 17.1265 7.54014C16.4533 6.86691 15.6541 6.33288 14.7745 5.96854C13.8949 5.60419 12.9521 5.41666 12 5.41666ZM12 7.25C12.4142 7.25 12.75 7.58578 12.75 8L12.75 12.6667C12.75 13.0809 12.4142 13.4167 12 13.4167H8.9858C8.57158 13.4167 8.2358 13.0809 8.2358 12.6667C8.2358 12.2525 8.57158 11.9167 8.9858 11.9167H11.25L11.25 8C11.25 7.58578 11.5858 7.25 12 7.25Z" fill="currentColor"/>
</svg>
