<svg width="24" height="24" viewBox="0 0 24 24" fill="none" xmlns="http://www.w3.org/2000/svg">
<path fill-rule="evenodd" clip-rule="evenodd" d="M6.52451 3.77573C7.90522 2.06414 9.84828 1.45 12.011 1.45C14.1531 1.45 16.0933 2.06621 17.4782 3.77546C18.8338 5.44843 19.5529 8.04491 19.584 11.7677C19.5874 12.1819 19.2545 12.5205 18.8403 12.524C18.4261 12.5274 18.0875 12.1945 18.084 11.7803C18.0541 8.19809 17.3562 6.00757 16.3128 4.71979C15.2987 3.46829 13.8579 2.95 12.011 2.95C10.1387 2.95 8.69927 3.46886 7.69199 4.71752C6.65414 6.00408 5.96695 8.19414 5.93898 11.7808C5.93575 12.195 5.59735 12.5282 5.18315 12.525C4.76895 12.5217 4.43579 12.1834 4.43902 11.7692C4.46805 8.04686 5.17436 5.44942 6.52451 3.77573Z" fill="currentColor"/>
<path fill-rule="evenodd" clip-rule="evenodd" d="M6.561 9.354L6.20775 8.6924L5.00763 9.33346C4.64227 9.52862 4.5043 9.98301 4.69946 10.3484C4.89462 10.7137 5.34901 10.8517 5.71437 10.6565L6.913 10.0163L6.91398 10.0157L6.92255 10.0113C6.93116 10.0069 6.94556 9.99953 6.96553 9.98962C7.00547 9.96981 7.06767 9.93974 7.15054 9.90201C7.31637 9.82651 7.56433 9.72059 7.88177 9.60479C8.51782 9.37276 9.42593 9.10359 10.5064 8.95762C12.6633 8.66623 15.4824 8.86665 18.2273 10.8119C18.5653 11.0514 19.0334 10.9716 19.2729 10.6337C19.5124 10.2957 19.4326 9.82758 19.0946 9.58808C15.9596 7.36635 12.7287 7.14377 10.3056 7.47113C9.09607 7.63453 8.08168 7.93517 7.36772 8.19562C7.01016 8.32605 6.72625 8.44703 6.52895 8.53686C6.43026 8.5818 6.35308 8.61902 6.29905 8.64582C6.27203 8.65922 6.25077 8.67003 6.23549 8.6779L6.21707 8.68747L6.21127 8.69053L6.20922 8.69161C6.20922 8.69161 6.20775 8.6924 6.561 9.354Z" fill="currentColor"/>
<path fill-rule="evenodd" clip-rule="evenodd" d="M19.1022 12.5482C19.0364 12.5239 18.9661 12.5144 18.8962 12.5203C18.4834 12.5552 18.1206 12.2489 18.0857 11.8362C18.0508 11.4234 18.3571 11.0606 18.7698 11.0257C19.0585 11.0013 19.3491 11.0406 19.621 11.1408C19.8928 11.241 20.1394 11.3997 20.3432 11.6056C20.547 11.8116 20.7031 12.0598 20.8005 12.3327C20.8937 12.5941 20.9309 12.8721 20.9097 13.1486C20.8991 13.8918 20.547 14.5489 19.9916 14.92C19.4088 15.3096 18.628 15.3555 17.9675 14.8777C17.6318 14.6349 17.5565 14.1661 17.7993 13.8305C18.0421 13.4948 18.5109 13.4195 18.8465 13.6623C18.9187 13.7145 18.9728 13.7241 19.0087 13.7241C19.0484 13.7241 19.0999 13.7119 19.1581 13.673C19.2764 13.5939 19.41 13.4067 19.41 13.114C19.41 13.0903 19.4111 13.0666 19.4134 13.043C19.42 12.9732 19.4112 12.9027 19.3877 12.8367C19.3641 12.7706 19.3263 12.7106 19.277 12.6607C19.2277 12.6109 19.168 12.5725 19.1022 12.5482Z" fill="currentColor"/>
<path fill-rule="evenodd" clip-rule="evenodd" d="M4.41001 11.1117C4.68831 11.015 4.98471 10.9819 5.27749 11.0147C5.68913 11.0608 5.98545 11.4319 5.93934 11.8435C5.89323 12.2551 5.52215 12.5514 5.11051 12.5053C5.04021 12.4975 4.96903 12.5054 4.90221 12.5286C4.83538 12.5518 4.7746 12.5897 4.72432 12.6395C4.67404 12.6892 4.63553 12.7496 4.61163 12.8162C4.58772 12.8828 4.57902 12.9539 4.58616 13.0243C4.58872 13.0494 4.59 13.0747 4.59 13.1C4.59 13.3901 4.72297 13.5792 4.842 13.6594C4.90014 13.6986 4.95113 13.7108 4.9901 13.7108C5.02521 13.7109 5.0797 13.7016 5.15362 13.6482C5.48932 13.4055 5.95816 13.4809 6.20082 13.8166C6.44348 14.1523 6.36806 14.6212 6.03237 14.8638C5.36818 15.3439 4.58625 15.2959 4.00374 14.9033C3.45123 14.531 3.10159 13.8749 3.09028 13.1369C3.0674 12.8566 3.1047 12.5744 3.19987 12.3093C3.29943 12.032 3.45979 11.7806 3.66918 11.5733C3.87858 11.3661 4.13171 11.2084 4.41001 11.1117Z" fill="currentColor"/>
<path fill-rule="evenodd" clip-rule="evenodd" d="M9.74781 15.4584C9.30744 15.7251 9.011 16.1433 9.011 16.933C9.011 17.3472 8.67521 17.683 8.261 17.683C7.84678 17.683 7.511 17.3472 7.511 16.933C7.511 15.6517 8.05405 14.7304 8.97093 14.1753C9.8247 13.6584 10.9276 13.504 12.011 13.504C13.0944 13.504 14.1973 13.6584 15.0511 14.1753C15.9679 14.7304 16.511 15.6517 16.511 16.933C16.511 18.1473 16.0284 19.5026 15.2721 20.5572C14.5242 21.6002 13.3893 22.504 12.011 22.504L11.991 22.5037C11.5474 22.4919 11.1133 22.3973 10.7098 22.2279C10.3278 22.0676 10.1482 21.6281 10.3084 21.2461C10.4687 20.8642 10.9083 20.6845 11.2902 20.8448C11.5205 20.9414 11.7679 20.996 12.0208 21.004C12.7107 20.9996 13.4467 20.5288 14.0531 19.6831C14.6541 18.8449 15.011 17.7897 15.011 16.933C15.011 16.1433 14.7146 15.7251 14.2742 15.4584C13.7707 15.1536 12.9986 15.004 12.011 15.004C11.0234 15.004 10.2513 15.1536 9.74781 15.4584Z" fill="currentColor"/>
<path fill-rule="evenodd" clip-rule="evenodd" d="M12.2532 17.7067C12.6096 17.9177 12.7274 18.3778 12.5163 18.7342C12.1244 19.396 11.3816 19.8675 10.5666 20.1721C9.72919 20.485 8.71126 20.662 7.628 20.662H4.438C4.02378 20.662 3.688 20.3262 3.688 19.912C3.688 19.4978 4.02378 19.162 4.438 19.162H7.628C8.55673 19.162 9.3938 19.009 10.0416 18.7669C10.7119 18.5165 11.0846 18.208 11.2257 17.9698C11.4367 17.6134 11.8968 17.4956 12.2532 17.7067Z" fill="currentColor"/>
<path fill-rule="evenodd" clip-rule="evenodd" d="M11.1141 11.6444C11.3254 12.0007 11.2078 12.4608 10.8516 12.6721C10.3424 12.9741 9.76174 13.1345 9.16973 13.1368C8.57773 13.139 7.99587 12.9831 7.48437 12.685C7.1265 12.4764 7.00544 12.0173 7.214 11.6594C7.42256 11.3015 7.88174 11.1804 8.23962 11.389C8.52016 11.5525 8.83929 11.638 9.16398 11.6368C9.48868 11.6355 9.80714 11.5475 10.0864 11.3819C10.4427 11.1706 10.9028 11.2881 11.1141 11.6444Z" fill="currentColor"/>
<path fill-rule="evenodd" clip-rule="evenodd" d="M16.8057 11.6168C17.0173 11.9729 16.9003 12.4331 16.5442 12.6447C16.0353 12.9472 15.4549 13.1082 14.863 13.1111C14.2711 13.1141 13.6891 12.9588 13.1773 12.6615C12.8191 12.4535 12.6974 11.9944 12.9055 11.6363C13.1135 11.2781 13.5726 11.1564 13.9307 11.3645C14.2115 11.5276 14.5308 11.6128 14.8555 11.6111C15.1803 11.6095 15.4987 11.5212 15.7778 11.3553C16.1339 11.1436 16.5941 11.2607 16.8057 11.6168Z" fill="currentColor"/>
<path fill-rule="evenodd" clip-rule="evenodd" d="M5.59995 13.518C6.01416 13.518 6.34997 13.8537 6.35 14.2679C6.35001 14.3983 6.34951 14.528 6.34902 14.6568C6.34534 15.621 6.34186 16.536 6.551 17.3026C6.66002 17.7022 6.42446 18.1145 6.02485 18.2235C5.62524 18.3326 5.21291 18.097 5.10389 17.6974C4.83644 16.7171 4.84308 15.5757 4.84853 14.6403C4.84928 14.512 4.85001 14.3876 4.85 14.2681C4.84997 13.8538 5.18573 13.518 5.59995 13.518Z" fill="currentColor"/>
<path fill-rule="evenodd" clip-rule="evenodd" d="M18.425 13.518C18.8392 13.518 19.175 13.8538 19.175 14.268C19.175 14.3469 19.1752 14.4275 19.1753 14.5096C19.1764 15.0523 19.1776 15.6595 19.133 16.2509C19.0816 16.9318 18.9663 17.651 18.689 18.2962C18.5255 18.6767 18.0844 18.8526 17.7038 18.689C17.3233 18.5255 17.1474 18.0844 17.3109 17.7038C17.4939 17.2781 17.5912 16.7472 17.6372 16.1379C17.6772 15.6091 17.6762 15.0656 17.6753 14.5183C17.6751 14.435 17.675 14.3515 17.675 14.268C17.675 13.8538 18.0108 13.518 18.425 13.518Z" fill="currentColor"/>
</svg>
