<svg width="24" height="24" viewBox="0 0 24 24" fill="none" xmlns="http://www.w3.org/2000/svg">
<path fill-rule="evenodd" clip-rule="evenodd" d="M4.44031 10.1956C4.16499 10.9732 4.09182 11.9908 4.40261 13.3025C4.80261 14.9847 5.71629 16.6903 6.81408 17.8904C7.94477 19.1265 9.08503 19.6418 9.96088 19.4364C10.2421 19.367 10.5033 19.2327 10.7233 19.0442L10.7311 19.0376C11.0877 18.741 11.5371 18.5786 12.001 18.5786C12.4649 18.5786 12.9142 18.741 13.2709 19.0377L13.2781 19.0437C13.4986 19.2321 13.76 19.3666 14.0415 19.4365C14.9175 19.6417 16.0595 19.126 17.1909 17.8902C18.2896 16.6901 19.2029 14.9849 19.5991 13.3036C19.943 11.8493 19.8199 10.7166 19.4528 9.87531C19.0865 9.03595 18.4547 8.43238 17.6811 8.0656C16.1102 7.32077 13.9671 7.56429 12.4641 8.87451C12.1701 9.13081 11.724 9.10024 11.4677 8.80623C11.2114 8.51222 11.242 8.0661 11.536 7.8098C13.4539 6.13784 16.1975 5.79896 18.2863 6.78933C19.3426 7.29016 20.2338 8.1336 20.7474 9.31039C21.26 10.4852 21.3733 11.9384 20.9738 13.6281C20.5224 15.5429 19.4951 17.4651 18.2327 18.844C17.0043 20.1858 15.3661 21.2011 13.7133 20.8103L13.7069 20.8088C13.2122 20.687 12.7528 20.4516 12.365 20.1214C12.2624 20.0372 12.1338 19.9911 12.001 19.9911C11.8683 19.9911 11.7397 20.0371 11.6372 20.1213C11.2493 20.4521 10.7895 20.6876 10.2943 20.809L10.2887 20.8104C8.63563 21.2012 6.99927 20.1856 5.77188 18.8438C4.51044 17.4648 3.48343 15.5429 3.02839 13.629C2.6677 12.1069 2.72594 10.8056 3.10884 9.72417C3.49253 8.64048 4.18518 7.82542 5.01095 7.25183C6.6328 6.12528 8.79209 5.90986 10.3149 6.35489C10.6893 6.4643 10.9041 6.85649 10.7947 7.23088C10.6852 7.60526 10.2931 7.82006 9.91868 7.71064C8.77849 7.37743 7.06557 7.54445 5.81674 8.4119C5.20717 8.83531 4.71486 9.42014 4.44031 10.1956Z" fill="currentColor"/>
<path fill-rule="evenodd" clip-rule="evenodd" d="M17.1311 1.66888C17.3579 1.76459 17.6139 1.93297 17.7687 2.22221C18.0014 2.65632 17.8491 3.10215 17.7133 3.3615C17.5612 3.65198 17.3203 3.93166 17.0385 4.18223C16.4691 4.68859 15.625 5.17199 14.6071 5.45073C14.2309 5.55374 13.8424 5.33229 13.7394 4.95609C13.6364 4.5799 13.8578 4.19143 14.234 4.08842C15.0535 3.86401 15.7014 3.48116 16.0999 3.12674C16.1852 3.05089 16.2545 2.98047 16.3096 2.91755C16.3057 2.91726 16.3017 2.91698 16.2977 2.91672C16.0002 2.89693 15.5777 2.94456 15.1016 3.09317C14.1471 3.39103 13.121 4.04692 12.543 5.10753C12.3564 5.45001 11.9274 5.57634 11.5849 5.38969C11.2424 5.20305 11.1161 4.7741 11.3028 4.43162C12.0995 2.96957 13.4733 2.12166 14.6808 1.74483C15.2856 1.55609 15.8847 1.47366 16.3915 1.50737C16.644 1.52416 16.9006 1.57156 17.1311 1.66888ZM16.4801 2.66781C16.4819 2.65991 16.484 2.65547 16.484 2.65547C16.484 2.65547 16.4835 2.65926 16.4801 2.66781Z" fill="currentColor"/>
<path fill-rule="evenodd" clip-rule="evenodd" d="M9.97762 2.75165C10.1742 2.41477 10.6067 2.30103 10.9435 2.49761C11.5924 2.8762 12.1105 3.44347 12.4288 4.12387C12.6356 4.56575 12.7517 5.04172 12.7735 5.52399C12.7911 5.91364 12.4895 6.24376 12.0998 6.26135C11.7102 6.27893 11.38 5.97732 11.3625 5.58768C11.349 5.28963 11.2772 4.99553 11.1495 4.72249C10.9527 4.30205 10.6326 3.95151 10.2317 3.71757C9.89479 3.52099 9.78105 3.08854 9.97762 2.75165Z" fill="currentColor"/>
</svg>
