<svg width="24" height="24" viewBox="0 0 24 24" fill="none" xmlns="http://www.w3.org/2000/svg">
<path d="M10.4697 8.53033C10.7626 8.82322 11.2374 8.82322 11.5303 8.53033C11.8232 8.23744 11.8232 7.76256 11.5303 7.46967L7.53033 3.46967C7.38564 3.32498 7.19655 3.25177 7.00692 3.25003L7 3.25L6.99308 3.25003C6.89416 3.25093 6.79981 3.27097 6.71357 3.30664C6.62486 3.34324 6.54175 3.39758 6.46967 3.46967L2.46967 7.46967C2.17678 7.76256 2.17678 8.23744 2.46967 8.53033C2.76256 8.82322 3.23744 8.82322 3.53033 8.53033L6.25 5.81066L6.25 20C6.25 20.4142 6.58579 20.75 7 20.75C7.41421 20.75 7.75 20.4142 7.75 20L7.75 5.81066L10.4697 8.53033Z" fill="currentColor"/>
<path d="M17 3.25C17.4142 3.25 17.75 3.58579 17.75 4L17.75 18.1893L20.4697 15.4697C20.7626 15.1768 21.2374 15.1768 21.5303 15.4697C21.8232 15.7626 21.8232 16.2374 21.5303 16.5303L17.5303 20.5303C17.4584 20.6022 17.3755 20.6565 17.2871 20.6931C17.2099 20.7251 17.1262 20.7446 17.0386 20.749C17.0258 20.7497 17.0129 20.75 17 20.75C16.8983 20.75 16.8013 20.7298 16.7129 20.6931C16.6245 20.6565 16.5416 20.6022 16.4697 20.5303L12.4697 16.5303C12.1768 16.2374 12.1768 15.7626 12.4697 15.4697C12.7626 15.1768 13.2374 15.1768 13.5303 15.4697L16.25 18.1893L16.25 4C16.25 3.58579 16.5858 3.25 17 3.25Z" fill="currentColor"/>
</svg>
