<svg width="24" height="24" viewBox="0 0 24 24" fill="none" xmlns="http://www.w3.org/2000/svg">
<path d="M12 3.75C7.44365 3.75 3.75 7.44365 3.75 12C3.75 12.4142 3.41421 12.75 3 12.75C2.58579 12.75 2.25 12.4142 2.25 12C2.25 6.61522 6.61522 2.25 12 2.25C15.1605 2.25 17.9693 3.75424 19.75 6.08319V3C19.75 2.58579 20.0858 2.25 20.5 2.25C20.9142 2.25 21.25 2.58579 21.25 3V8C21.25 8.41421 20.9142 8.75 20.5 8.75L15.5 8.75C15.0858 8.75 14.75 8.41421 14.75 8C14.75 7.58579 15.0858 7.25 15.5 7.25L18.7463 7.25C17.2518 5.13148 14.787 3.75 12 3.75Z" fill="currentColor"/>
<path d="M21 11.25C21.4142 11.25 21.75 11.5858 21.75 12C21.75 17.3848 17.3848 21.75 12 21.75C8.83946 21.75 6.03073 20.2458 4.25 17.9168V21C4.25 21.4142 3.91421 21.75 3.5 21.75C3.08579 21.75 2.75 21.4142 2.75 21V16C2.75 15.5858 3.08579 15.25 3.5 15.25H8.5C8.91421 15.25 9.25 15.5858 9.25 16C9.25 16.4142 8.91421 16.75 8.5 16.75H5.2537C6.74819 18.8685 9.21302 20.25 12 20.25C16.5563 20.25 20.25 16.5563 20.25 12C20.25 11.5858 20.5858 11.25 21 11.25Z" fill="currentColor"/>
</svg>
