<svg width="24" height="24" viewBox="0 0 24 24" fill="none" xmlns="http://www.w3.org/2000/svg">
<path fill-rule="evenodd" clip-rule="evenodd" d="M10.5303 20.5303C10.2374 20.8232 9.76256 20.8232 9.46967 20.5303L4.46967 15.5303C4.17678 15.2374 4.17678 14.7626 4.46967 14.4697L9.46967 9.46967C9.76256 9.17678 10.2374 9.17678 10.5303 9.46967C10.8232 9.76256 10.8232 10.2374 10.5303 10.5303L6.81066 14.25H17.5C17.9142 14.25 18.25 13.9142 18.25 13.5V3C18.25 2.58579 18.5858 2.25 19 2.25C19.4142 2.25 19.75 2.58579 19.75 3V13.5C19.75 14.7426 18.7426 15.75 17.5 15.75H6.81066L10.5303 19.4697C10.8232 19.7626 10.8232 20.2374 10.5303 20.5303Z" fill="currentColor"/>
</svg>
