<svg width="24" height="24" viewBox="0 0 24 24" fill="none" xmlns="http://www.w3.org/2000/svg">
<path fill-rule="evenodd" clip-rule="evenodd" d="M22.5303 1.46789C22.8232 1.76079 22.8232 2.23566 22.5303 2.52855L15.8107 9.24822H20C20.4142 9.24822 20.75 9.58401 20.75 9.99822C20.75 10.4124 20.4142 10.7482 20 10.7482H14C13.5858 10.7482 13.25 10.4124 13.25 9.99822V3.99822C13.25 3.58401 13.5858 3.24822 14 3.24822C14.4142 3.24822 14.75 3.58401 14.75 3.99822V8.18756L21.4697 1.46789C21.7626 1.175 22.2374 1.175 22.5303 1.46789ZM4 14.7482C3.58579 14.7482 3.25 14.4124 3.25 13.9982C3.25 13.584 3.58579 13.2482 4 13.2482H10C10.4142 13.2482 10.75 13.584 10.75 13.9982V19.9982C10.75 20.4124 10.4142 20.7482 10 20.7482C9.58579 20.7482 9.25 20.4124 9.25 19.9982V15.8089L2.53033 22.5286C2.23744 22.8214 1.76256 22.8214 1.46967 22.5286C1.17678 22.2357 1.17678 21.7608 1.46967 21.4679L8.18934 14.7482H4Z" fill="currentColor"/>
</svg>
