<svg width="24" height="24" viewBox="0 0 24 24" fill="none" xmlns="http://www.w3.org/2000/svg">
<path fill-rule="evenodd" clip-rule="evenodd" d="M13.4697 17.5303C13.7626 17.8232 14.2374 17.8232 14.5303 17.5303L19.5303 12.5303C19.8232 12.2374 19.8232 11.7626 19.5303 11.4697L14.5303 6.46967C14.2374 6.17678 13.7626 6.17678 13.4697 6.46967C13.1768 6.76256 13.1768 7.23744 13.4697 7.53033L17.1893 11.25H6.5C6.08579 11.25 5.75 10.9142 5.75 10.5V5C5.75 4.58579 5.41421 4.25 5 4.25C4.58579 4.25 4.25 4.58579 4.25 5V10.5C4.25 11.7426 5.25736 12.75 6.5 12.75H17.1893L13.4697 16.4697C13.1768 16.7626 13.1768 17.2374 13.4697 17.5303Z" fill="currentColor"/>
</svg>
