<svg width="24" height="24" viewBox="0 0 24 24" fill="none" xmlns="http://www.w3.org/2000/svg">
<path fill-rule="evenodd" clip-rule="evenodd" d="M3.46967 10.5303C3.17678 10.2374 3.17678 9.76256 3.46967 9.46967L8.46967 4.46967C8.76256 4.17678 9.23744 4.17678 9.53033 4.46967L14.5303 9.46967C14.8232 9.76256 14.8232 10.2374 14.5303 10.5303C14.2374 10.8232 13.7626 10.8232 13.4697 10.5303L9.75 6.81066V17.5C9.75 17.9142 10.0858 18.25 10.5 18.25H21C21.4142 18.25 21.75 18.5858 21.75 19C21.75 19.4142 21.4142 19.75 21 19.75H10.5C9.25736 19.75 8.25 18.7426 8.25 17.5V6.81066L4.53033 10.5303C4.23744 10.8232 3.76256 10.8232 3.46967 10.5303Z" fill="currentColor"/>
</svg>
