<svg width="24" height="24" viewBox="0 0 24 24" fill="none" xmlns="http://www.w3.org/2000/svg">
<path fill-rule="evenodd" clip-rule="evenodd" d="M5.5 3.25C4.25736 3.25 3.25 4.25736 3.25 5.5V18.5C3.25 19.7426 4.25736 20.75 5.5 20.75H12C12.4142 20.75 12.75 20.4142 12.75 20C12.75 19.5858 12.4142 19.25 12 19.25H5.5C5.08579 19.25 4.75 18.9142 4.75 18.5V5.5C4.75 5.08579 5.08579 4.75 5.5 4.75H12C12.4142 4.75 12.75 4.41421 12.75 4C12.75 3.58579 12.4142 3.25 12 3.25H5.5ZM16.4697 15.4697C16.1768 15.7626 16.1768 16.2374 16.4697 16.5303C16.7626 16.8232 17.2374 16.8232 17.5303 16.5303L21.5303 12.5303C21.8232 12.2374 21.8232 11.7626 21.5303 11.4697L17.5303 7.46967C17.2374 7.17678 16.7626 7.17678 16.4697 7.46967C16.1768 7.76256 16.1768 8.23744 16.4697 8.53033L19.1893 11.25L10 11.25C9.58579 11.25 9.25 11.5858 9.25 12C9.25 12.4142 9.58579 12.75 10 12.75L19.1893 12.75L16.4697 15.4697Z" fill="currentColor"/>
</svg>
