<svg width="24" height="24" viewBox="0 0 24 24" fill="none" xmlns="http://www.w3.org/2000/svg">
<path fill-rule="evenodd" clip-rule="evenodd" d="M13.0825 11.2388C13.3754 10.9458 13.8502 10.9457 14.1432 11.2385L16.2162 13.3105C16.5092 13.6034 16.5093 14.0782 16.2164 14.3712C15.9236 14.6642 15.4488 14.6643 15.1558 14.3715L13.0828 12.2995C12.7898 12.0066 12.7897 11.5318 13.0825 11.2388Z" fill="currentColor"/>
<path fill-rule="evenodd" clip-rule="evenodd" d="M11.0097 13.3107C11.3026 13.0178 11.7774 13.0178 12.0703 13.3107L14.1433 15.3837C14.4362 15.6766 14.4362 16.1514 14.1433 16.4443C13.8504 16.7372 13.3756 16.7372 13.0827 16.4443L11.0097 14.3713C10.7168 14.0784 10.7168 13.6036 11.0097 13.3107Z" fill="currentColor"/>
<path fill-rule="evenodd" clip-rule="evenodd" d="M8.93779 15.3835C9.23075 15.0907 9.70563 15.0908 9.99845 15.3838L12.0704 17.4568C12.3633 17.7498 12.3632 18.2246 12.0702 18.5175C11.7772 18.8103 11.3024 18.8102 11.0095 18.5172L8.93753 16.4442C8.64471 16.1512 8.64482 15.6764 8.93779 15.3835Z" fill="currentColor"/>
<path fill-rule="evenodd" clip-rule="evenodd" d="M11.6647 3.49667C11.9576 3.20378 12.4324 3.20378 12.7253 3.49667L20.5033 11.2747C20.7962 11.5676 20.7962 12.0424 20.5033 12.3353C20.2104 12.6282 19.7356 12.6282 19.4427 12.3353L11.6647 4.55733C11.3718 4.26444 11.3718 3.78957 11.6647 3.49667Z" fill="currentColor"/>
<path fill-rule="evenodd" clip-rule="evenodd" d="M18.226 3.524C16.9833 3.524 15.976 4.53136 15.976 5.774C15.976 7.01664 16.9833 8.024 18.226 8.024C19.4686 8.024 20.476 7.01664 20.476 5.774C20.476 4.53136 19.4686 3.524 18.226 3.524ZM14.476 5.774C14.476 3.70293 16.1549 2.024 18.226 2.024C20.2971 2.024 21.976 3.70293 21.976 5.774C21.976 7.84507 20.2971 9.524 18.226 9.524C16.1549 9.524 14.476 7.84507 14.476 5.774Z" fill="currentColor"/>
<path fill-rule="evenodd" clip-rule="evenodd" d="M13.8503 4.62267C14.1432 4.91557 14.1432 5.39044 13.8503 5.68333L5.85124 13.6824C5.39896 14.1364 5.09563 14.7177 4.98221 15.3484C4.86878 15.9793 4.95047 16.6297 5.21639 17.2128C5.32764 17.4568 5.30018 17.7416 5.14436 17.9598L3.89336 19.7118C3.85441 19.7663 3.8359 19.8331 3.84142 19.8999C3.84694 19.9666 3.87595 20.0293 3.9233 20.0767C3.97068 20.124 4.03332 20.1531 4.10009 20.1586C4.16686 20.1641 4.23343 20.1457 4.28794 20.1068L6.04203 18.8537C6.26026 18.6978 6.54513 18.6703 6.78916 18.7816C7.37233 19.0475 8.02274 19.1292 8.65356 19.0158C9.28425 18.9024 9.86536 18.5993 10.3193 18.147L18.3187 10.1477C18.6116 9.85478 19.0864 9.85478 19.3793 10.1477C19.6722 10.4406 19.6722 10.9154 19.3793 11.2083L11.3784 19.2093C10.7082 19.8771 9.85024 20.3246 8.91903 20.4921C8.13479 20.6331 7.33004 20.5698 6.58134 20.3119L5.16004 21.3272C4.81662 21.5726 4.3972 21.6882 3.97655 21.6535C3.55587 21.6187 3.16117 21.4358 2.86268 21.1374C2.56421 20.8389 2.38128 20.4441 2.34651 20.0234C2.31176 19.6029 2.42731 19.1836 2.67262 18.8402L3.68614 17.4208C3.42815 16.672 3.36486 15.8672 3.50589 15.083C3.67334 14.1517 4.12088 13.2938 4.78874 12.6236L12.7897 4.62267C13.0826 4.32978 13.5574 4.32978 13.8503 4.62267Z" fill="currentColor"/>
</svg>
