<svg width="24" height="24" viewBox="0 0 24 24" fill="none" xmlns="http://www.w3.org/2000/svg">
<path fill-rule="evenodd" clip-rule="evenodd" d="M11.4948 6.25883C11.9041 6.32221 12.1846 6.70543 12.1212 7.11476C11.9037 8.51925 11.855 9.94471 11.9762 11.3608C12.0603 12.3055 12.2022 12.9688 12.3494 13.6565L12.3549 13.6824C12.5059 14.3879 12.6612 15.1216 12.7408 16.1523C12.7727 16.5653 12.4637 16.9259 12.0508 16.9578C11.6378 16.9897 11.2771 16.6807 11.2453 16.2677C11.1738 15.3424 11.0367 14.6905 10.8881 13.9963L10.8801 13.9589C10.7321 13.2673 10.5742 12.5295 10.482 11.4924L10.4818 11.49C10.3503 9.95429 10.403 8.40839 10.6389 6.88523C10.7022 6.4759 11.0855 6.19545 11.4948 6.25883Z" fill="currentColor"/>
<path fill-rule="evenodd" clip-rule="evenodd" d="M11.9757 17.9781C12.3899 17.9724 12.7303 18.3035 12.736 18.7177C12.7469 19.5133 12.6522 20.3067 12.4545 21.0774C12.3515 21.4786 11.9428 21.7204 11.5416 21.6175C11.1404 21.5145 10.8986 21.1058 11.0016 20.7046C11.1663 20.0624 11.2452 19.4012 11.2361 18.7383C11.2304 18.3241 11.5616 17.9838 11.9757 17.9781Z" fill="currentColor"/>
<path fill-rule="evenodd" clip-rule="evenodd" d="M6.31315 9.77692C6.68985 9.60467 7.13486 9.77042 7.30711 10.1471C8.10094 11.8832 8.5294 13.764 8.56589 15.6727L8.56598 15.6775C8.58334 17.0451 8.21984 18.1704 7.78836 19.2126C7.64753 19.5528 7.5046 19.8743 7.36412 20.1903C7.06038 20.8735 6.76806 21.531 6.53296 22.2963C6.41131 22.6922 5.99171 22.9146 5.59577 22.7929C5.19982 22.6713 4.97745 22.2517 5.0991 21.8557C5.36148 21.0017 5.71385 20.208 6.03354 19.488C6.16485 19.1922 6.29065 18.9089 6.40244 18.6389C6.79992 17.6788 7.07931 16.7722 7.06612 15.6989C7.03324 13.9966 6.65095 12.3193 5.94295 10.7709C5.7707 10.3942 5.93645 9.94916 6.31315 9.77692Z" fill="currentColor"/>
<path fill-rule="evenodd" clip-rule="evenodd" d="M17.4429 9.72712C17.8471 9.81764 18.1014 10.2187 18.0109 10.6229C17.6382 12.2871 17.4448 13.9864 17.434 15.6918C17.4265 16.8394 17.5767 17.7987 17.7786 18.7737C17.8374 19.0576 17.9021 19.3491 17.9689 19.6496C18.1273 20.3631 18.2971 21.1275 18.4253 21.9621C18.4882 22.3715 18.2073 22.7544 17.7979 22.8173C17.3885 22.8802 17.0056 22.5993 16.9427 22.1899C16.8223 21.4059 16.67 20.7209 16.5162 20.0289C16.4468 19.7166 16.377 19.4028 16.3097 19.0778C16.0969 18.0498 15.9256 16.9765 15.934 15.6822M17.4429 9.72712C17.0387 9.63661 16.6377 9.8909 16.5472 10.2951L17.4429 9.72712ZM16.5472 10.2951C16.1511 12.0637 15.9455 13.8698 15.934 15.6822L16.5472 10.2951Z" fill="currentColor"/>
<path d="M18.0109 10.6229C18.1014 10.2187 17.8471 9.81764 17.4429 9.72712L16.5472 10.2951L15.934 15.6822C15.9256 16.9765 16.0969 18.0498 16.3097 19.0778C16.377 19.4028 16.4468 19.7166 16.5162 20.0289C16.67 20.7209 16.8223 21.4059 16.9427 22.1899C17.0056 22.5993 17.3885 22.8802 17.7979 22.8173C18.2073 22.7544 18.4882 22.3715 18.4253 21.9621C18.2971 21.1275 18.1273 20.3631 17.9689 19.6496C17.9021 19.3491 17.8374 19.0576 17.7786 18.7737C17.5767 17.7987 17.4265 16.8394 17.434 15.6918C17.4448 13.9864 17.6382 12.2871 18.0109 10.6229Z" fill="currentColor"/>
<path fill-rule="evenodd" clip-rule="evenodd" d="M9.76808 1.116C10.1823 1.11602 10.5181 1.45183 10.518 1.86605C10.518 2.68885 10.2722 3.49289 9.81224 4.17512C9.3523 4.85731 8.69912 5.38662 7.93642 5.69521C7.93638 5.69522 7.93646 5.69519 7.93642 5.69521L4.86401 6.9388C4.6027 7.04178 4.3757 7.21629 4.20907 7.44239C4.04245 7.66849 3.94292 7.93698 3.92193 8.21706C3.92048 8.23639 3.91828 8.25565 3.91534 8.2748C3.77651 9.17915 3.80119 10.1011 3.98819 10.9967L3.99107 11.0112L4.16939 11.9579C4.27857 12.5449 4.54108 13.0927 4.93028 13.5456C4.93044 13.5458 4.93272 13.5484 4.93772 13.5533C4.94306 13.5586 4.95071 13.5658 4.9611 13.5748C4.98221 13.5931 5.01113 13.6161 5.04914 13.6434C5.12597 13.6987 5.22661 13.7622 5.35024 13.8325C5.59785 13.9732 5.90565 14.1226 6.23313 14.2684C6.88708 14.5594 7.57126 14.8143 7.90151 14.9293C8.29272 15.0654 8.4995 15.4929 8.36337 15.8841C8.22724 16.2753 7.79975 16.4821 7.40855 16.3459C7.04989 16.2211 6.32499 15.9511 5.62323 15.6388C5.27286 15.4828 4.91616 15.311 4.60929 15.1367C4.32538 14.9754 4.00276 14.7678 3.79264 14.5232C3.23122 13.8699 2.85249 13.0798 2.69483 12.233C2.69478 12.2327 2.69488 12.2333 2.69483 12.233L2.51833 11.2959C2.29789 10.2358 2.26752 9.14509 2.42856 8.07448C2.47546 7.5242 2.67368 6.99739 3.00157 6.55249C3.33477 6.10037 3.7884 5.75111 4.31063 5.54458L7.37363 4.30479C7.85942 4.10825 8.27557 3.77108 8.56852 3.33658C8.86147 2.90207 9.01799 2.38999 9.01803 1.86595C9.01805 1.45173 9.35386 1.11597 9.76808 1.116Z" fill="currentColor"/>
<path fill-rule="evenodd" clip-rule="evenodd" d="M14.032 1.116C14.4462 1.11597 14.782 1.45173 14.782 1.86595C14.7821 2.38998 14.9386 2.90207 15.2315 3.33658C15.5245 3.77108 15.9405 4.10821 16.4263 4.30474L19.4894 5.54457C20.0116 5.75111 20.4653 6.10037 20.7985 6.55249C21.1251 6.99573 21.3231 7.52027 21.371 8.06832C21.4058 8.27893 21.4317 8.48991 21.4486 8.70119L21.4498 8.71521C21.5302 10.0314 21.3041 11.3483 20.7893 12.5623L19.6989 15.2793C19.5446 15.6637 19.1079 15.8503 18.7235 15.696C18.3391 15.5417 18.1525 15.1051 18.3068 14.7206L19.4 11.9967L19.4058 11.9826C19.8308 10.9828 20.0181 9.89814 19.9529 8.81382C19.9386 8.63846 19.9166 8.46277 19.8866 8.28669C19.8827 8.26363 19.8799 8.24039 19.8781 8.21706C19.8571 7.93698 19.7576 7.66849 19.591 7.44239C19.4244 7.21629 19.1974 7.04175 18.9361 6.93877L18.9296 6.93624L15.8638 5.69525C15.8637 5.69524 15.8638 5.69527 15.8638 5.69525C15.1011 5.38667 14.4478 4.85731 13.9878 4.17512C13.5278 3.49289 13.2821 2.68885 13.282 1.86605C13.282 1.45183 13.6178 1.11602 14.032 1.116Z" fill="currentColor"/>
</svg>
