<svg width="24" height="24" viewBox="0 0 24 24" fill="none" xmlns="http://www.w3.org/2000/svg">
<path fill-rule="evenodd" clip-rule="evenodd" d="M15 2.25C15.9665 2.25 16.75 3.0335 16.75 4V6C16.75 6.6981 16.3412 7.30073 15.75 7.58159V11C15.75 11.4142 15.4142 11.75 15 11.75C14.5858 11.75 14.25 11.4142 14.25 11V7.75L7.75 7.75V9.25L11 9.25C11.9665 9.25 12.75 10.0335 12.75 11V13C12.75 13.4142 12.4142 13.75 12 13.75C11.5858 13.75 11.25 13.4142 11.25 13V11C11.25 10.8619 11.1381 10.75 11 10.75H7.75L7.75 15.25H9.5C9.91421 15.25 10.25 15.5858 10.25 16C10.25 16.4142 9.91421 16.75 9.5 16.75H7.75L7.75 20C7.75 20.1178 7.78881 20.1996 7.81997 20.2386C7.82378 20.2434 7.82708 20.2471 7.82983 20.25H9.5C9.91421 20.25 10.25 20.5858 10.25 21C10.25 21.4142 9.91421 21.75 9.5 21.75H7.8C6.79643 21.75 6.25 20.8017 6.25 20L6.25 7.58159C5.65876 7.30073 5.25 6.6981 5.25 6V4C5.25 3.0335 6.0335 2.25 7 2.25H15ZM15.25 6C15.25 6.13803 15.1381 6.24993 15.0001 6.25L7 6.25C6.86193 6.25 6.75 6.13807 6.75 6V4C6.75 3.86193 6.86193 3.75 7 3.75L15 3.75C15.1381 3.75 15.25 3.86193 15.25 4V6Z" fill="currentColor"/>
<path fill-rule="evenodd" clip-rule="evenodd" d="M20.0303 12.9697C18.909 11.8483 17.091 11.8483 15.9697 12.9697L11.9697 16.9697C10.8483 18.091 10.8483 19.909 11.9697 21.0303C13.091 22.1516 14.909 22.1516 16.0303 21.0303L20.0303 17.0303C21.1516 15.909 21.1516 14.091 20.0303 12.9697ZM17.0303 14.0303C17.5658 13.4948 18.4341 13.4948 18.9697 14.0303C19.5052 14.5658 19.5052 15.4341 18.9697 15.9697L17.5 17.4393L15.5606 15.5L17.0303 14.0303ZM14.5 16.5606L16.4393 18.5L14.9697 19.9697C14.4341 20.5052 13.5658 20.5052 13.0303 19.9697C12.4948 19.4341 12.4948 18.5658 13.0303 18.0303L14.5 16.5606Z" fill="currentColor"/>
</svg>
