<svg width="24" height="24" viewBox="0 0 24 24" fill="none" xmlns="http://www.w3.org/2000/svg">
<path fill-rule="evenodd" clip-rule="evenodd" d="M3.85592 12C3.85592 11.5858 4.1917 11.25 4.60592 11.25H5.85592C6.27013 11.25 6.60592 11.5858 6.60592 12C6.60592 12.4142 6.27013 12.75 5.85592 12.75H4.60592C4.1917 12.75 3.85592 12.4142 3.85592 12ZM7.60592 12C7.60592 11.5858 7.9417 11.25 8.35592 11.25H11.8559C12.2701 11.25 12.6059 11.5858 12.6059 12C12.6059 12.4142 12.2701 12.75 11.8559 12.75H8.35592C7.9417 12.75 7.60592 12.4142 7.60592 12ZM13.6059 12C13.6059 11.5858 13.9417 11.25 14.3559 11.25H15.8559C16.2701 11.25 16.6059 11.5858 16.6059 12C16.6059 12.4142 16.2701 12.75 15.8559 12.75H14.3559C13.9417 12.75 13.6059 12.4142 13.6059 12ZM17.6059 12C17.6059 11.5858 17.9417 11.25 18.3559 11.25H19.6059C20.0201 11.25 20.3559 11.5858 20.3559 12C20.3559 12.4142 20.0201 12.75 19.6059 12.75H18.3559C17.9417 12.75 17.6059 12.4142 17.6059 12Z" fill="currentColor"/>
<path fill-rule="evenodd" clip-rule="evenodd" d="M3.284 14.7766C3.40738 14.3812 3.82794 14.1607 4.22335 14.284L5.8953 14.8057C6.29071 14.9291 6.51124 15.3497 6.38786 15.7451C6.26449 16.1405 5.84392 16.361 5.44851 16.2376L3.77656 15.716C3.38115 15.5926 3.16062 15.172 3.284 14.7766ZM8.29984 16.3417C8.42322 15.9463 8.84379 15.7257 9.2392 15.8491L12.5831 16.8925C12.9785 17.0159 13.199 17.4364 13.0757 17.8318C12.9523 18.2272 12.5317 18.4478 12.1363 18.3244L8.79241 17.281C8.39699 17.1576 8.17647 16.7371 8.29984 16.3417ZM14.9876 18.4284C15.111 18.033 15.5316 17.8125 15.927 17.9359L17.5989 18.4575C17.9943 18.5809 18.2149 19.0015 18.0915 19.3969C17.9681 19.7923 17.5476 20.0128 17.1521 19.8895L15.4802 19.3678C15.0848 19.2444 14.8643 18.8238 14.9876 18.4284Z" fill="currentColor"/>
<path fill-rule="evenodd" clip-rule="evenodd" d="M18.0914 4.60334C18.2148 4.99876 17.9943 5.41932 17.5988 5.54269L15.9269 6.06435C15.5315 6.18772 15.1109 5.96719 14.9876 5.57177C14.8642 5.17636 15.0847 4.7558 15.4801 4.63243L17.1521 4.11077C17.5475 3.9874 17.968 4.20793 18.0914 4.60334ZM13.0756 6.16832C13.199 6.56373 12.9784 6.98429 12.583 7.10767L9.23916 8.15098C8.84374 8.27436 8.42318 8.05382 8.29981 7.65841C8.17644 7.263 8.39697 6.84244 8.79238 6.71906L12.1363 5.67575C12.5317 5.55237 12.9522 5.77291 13.0756 6.16832ZM6.38785 8.25496C6.51123 8.65037 6.29069 9.07093 5.89528 9.1943L4.22334 9.71596C3.82793 9.83933 3.40737 9.6188 3.284 9.22339C3.16062 8.82797 3.38116 8.40741 3.77657 8.28404L5.44851 7.76238C5.84392 7.63901 6.26448 7.85954 6.38785 8.25496Z" fill="currentColor"/>
</svg>
