<svg width="24" height="24" viewBox="0 0 24 24" fill="none" xmlns="http://www.w3.org/2000/svg">
<path fill-rule="evenodd" clip-rule="evenodd" d="M12 5.45801C12.4142 5.45801 12.75 5.79379 12.75 6.20801V7.20801C12.75 7.62222 12.4142 7.95801 12 7.95801C11.5858 7.95801 11.25 7.62222 11.25 7.20801V6.20801C11.25 5.79379 11.5858 5.45801 12 5.45801ZM7.40394 7.36157C7.69683 7.06868 8.17171 7.06868 8.4646 7.36157L9.17171 8.06868C9.4646 8.36157 9.4646 8.83645 9.17171 9.12934C8.87881 9.42223 8.40394 9.42223 8.11105 9.12934L7.40394 8.42223C7.11105 8.12934 7.11105 7.65447 7.40394 7.36157ZM16.5964 7.36195C16.8893 7.65484 16.8893 8.12972 16.5964 8.42261L15.8893 9.12972C15.5964 9.42261 15.1216 9.42261 14.8287 9.12972C14.5358 8.83682 14.5358 8.36195 14.8287 8.06906L15.5358 7.36195C15.8287 7.06906 16.3035 7.06906 16.5964 7.36195ZM5.5 11.958C5.5 11.5438 5.83579 11.208 6.25 11.208H7.25C7.66421 11.208 8 11.5438 8 11.958C8 12.3722 7.66421 12.708 7.25 12.708H6.25C5.83579 12.708 5.5 12.3722 5.5 11.958ZM16 11.958C16 11.5438 16.3358 11.208 16.75 11.208H17.75C18.1642 11.208 18.5 11.5438 18.5 11.958C18.5 12.3722 18.1642 12.708 17.75 12.708H16.75C16.3358 12.708 16 12.3722 16 11.958ZM14.8286 14.7862C15.1215 14.4933 15.5963 14.4933 15.8892 14.7862L16.5963 15.4933C16.8892 15.7862 16.8892 16.2611 16.5963 16.554C16.3034 16.8469 15.8286 16.8469 15.5357 16.554L14.8286 15.8469C14.5357 15.554 14.5357 15.0791 14.8286 14.7862ZM9.17181 14.7866C9.46471 15.0795 9.46471 15.5543 9.17181 15.8472L8.46471 16.5543C8.17181 16.8472 7.69694 16.8472 7.40405 16.5543C7.11115 16.2614 7.11115 15.7866 7.40405 15.4937L8.11115 14.7866C8.40405 14.4937 8.87892 14.4937 9.17181 14.7866ZM12 15.958C12.4142 15.958 12.75 16.2938 12.75 16.708V17.708C12.75 18.1222 12.4142 18.458 12 18.458C11.5858 18.458 11.25 18.1222 11.25 17.708V16.708C11.25 16.2938 11.5858 15.958 12 15.958Z" fill="currentColor"/>
</svg>
