<svg width="24" height="24" viewBox="0 0 24 24" fill="none" xmlns="http://www.w3.org/2000/svg">
<path fill-rule="evenodd" clip-rule="evenodd" d="M3.85592 12C3.85592 11.5858 4.1917 11.25 4.60592 11.25H19.6059C20.0201 11.25 20.3559 11.5858 20.3559 12C20.3559 12.4142 20.0201 12.75 19.6059 12.75H4.60592C4.1917 12.75 3.85592 12.4142 3.85592 12Z" fill="currentColor"/>
<path fill-rule="evenodd" clip-rule="evenodd" d="M3.284 14.7766C3.40738 14.3812 3.82794 14.1607 4.22335 14.284L17.5989 18.4575C17.9943 18.5809 18.2149 19.0015 18.0915 19.3969C17.9681 19.7923 17.5476 20.0128 17.1521 19.8894L3.77656 15.716C3.38115 15.5926 3.16062 15.172 3.284 14.7766Z" fill="currentColor"/>
<path fill-rule="evenodd" clip-rule="evenodd" d="M18.0914 4.60334C18.2148 4.99875 17.9943 5.41931 17.5988 5.54268L4.22334 9.71596C3.82793 9.83933 3.40737 9.61879 3.284 9.22338C3.16062 8.82797 3.38116 8.40741 3.77657 8.28404L17.1521 4.11076C17.5475 3.98739 17.968 4.20792 18.0914 4.60334Z" fill="currentColor"/>
</svg>
