<svg width="24" height="24" viewBox="0 0 24 24" fill="none" xmlns="http://www.w3.org/2000/svg">
<path fill-rule="evenodd" clip-rule="evenodd" d="M7.77926 12C7.77926 11.5858 8.11504 11.25 8.52926 11.25H11.2793C11.6935 11.25 12.0293 11.5858 12.0293 12C12.0293 12.4142 11.6935 12.75 11.2793 12.75H8.52926C8.11504 12.75 7.77926 12.4142 7.77926 12ZM13.0293 12C13.0293 11.5858 13.365 11.25 13.7793 11.25H15.5293C15.9435 11.25 16.2793 11.5858 16.2793 12C16.2793 12.4142 15.9435 12.75 15.5293 12.75H13.7793C13.365 12.75 13.0293 12.4142 13.0293 12Z" fill="currentColor"/>
<path fill-rule="evenodd" clip-rule="evenodd" d="M7.4503 14.736C7.5961 14.3483 8.02859 14.1522 8.4163 14.298L9.82706 14.8285C10.2148 14.9743 10.4109 15.4068 10.2651 15.7945C10.1193 16.1822 9.68678 16.3783 9.29907 16.2325L7.88831 15.702C7.50061 15.5562 7.3045 15.1237 7.4503 14.736ZM11.6826 16.3276C11.8284 15.9399 12.2609 15.7438 12.6486 15.8896L14.0593 16.4201C14.447 16.5659 14.6431 16.9984 14.4973 17.3861C14.3515 17.7738 13.9191 17.9699 13.5313 17.8241L12.1206 17.2936C11.7329 17.1478 11.5368 16.7153 11.6826 16.3276Z" fill="currentColor"/>
<path fill-rule="evenodd" clip-rule="evenodd" d="M14.4976 6.77694C14.6433 7.16467 14.4471 7.59713 14.0594 7.74288L12.6486 8.2732C12.2609 8.41894 11.8284 8.22278 11.6827 7.83505C11.5369 7.44733 11.7331 7.01486 12.1208 6.86912L13.5316 6.3388C13.9193 6.19305 14.3518 6.38922 14.4976 6.77694ZM10.2651 8.3679C10.4109 8.75562 10.2147 9.18809 9.827 9.33383L8.4162 9.86415C8.02847 10.0099 7.59601 9.81373 7.45026 9.42601C7.30452 9.03828 7.50068 8.60582 7.88841 8.46007L9.29921 7.92975C9.68694 7.78401 10.1194 7.98017 10.2651 8.3679Z" fill="currentColor"/>
</svg>
