<svg width="24" height="24" viewBox="0 0 24 24" fill="none" xmlns="http://www.w3.org/2000/svg">
<path fill-rule="evenodd" clip-rule="evenodd" d="M8 1.25C8.41421 1.25 8.75 1.58579 8.75 2V3.25H15.25V2C15.25 1.58579 15.5858 1.25 16 1.25C16.4142 1.25 16.75 1.58579 16.75 2V3.25H19C19.9665 3.25 20.75 4.0335 20.75 5V11C20.75 11.4142 20.4142 11.75 20 11.75C19.5858 11.75 19.25 11.4142 19.25 11V9.75H4.75V19C4.75 19.1381 4.86193 19.25 5 19.25H10C10.4142 19.25 10.75 19.5858 10.75 20C10.75 20.4142 10.4142 20.75 10 20.75H5C4.0335 20.75 3.25 19.9665 3.25 19V5C3.25 4.0335 4.0335 3.25 5 3.25H7.25V2C7.25 1.58579 7.58579 1.25 8 1.25ZM7.25 4.75H5C4.86193 4.75 4.75 4.86193 4.75 5V8.25H19.25V5C19.25 4.86193 19.1381 4.75 19 4.75H16.75V6C16.75 6.41421 16.4142 6.75 16 6.75C15.5858 6.75 15.25 6.41421 15.25 6V4.75H8.75V6C8.75 6.41421 8.41421 6.75 8 6.75C7.58579 6.75 7.25 6.41421 7.25 6V4.75ZM13.4697 14.4697C13.7626 14.1768 14.2374 14.1768 14.5303 14.4697L17.5 17.4393L20.4697 14.4697C20.7626 14.1768 21.2374 14.1768 21.5303 14.4697C21.8232 14.7626 21.8232 15.2374 21.5303 15.5303L18.5607 18.5L21.5303 21.4697C21.8232 21.7626 21.8232 22.2374 21.5303 22.5303C21.2374 22.8232 20.7626 22.8232 20.4697 22.5303L17.5 19.5607L14.5303 22.5303C14.2374 22.8232 13.7626 22.8232 13.4697 22.5303C13.1768 22.2374 13.1768 21.7626 13.4697 21.4697L16.4393 18.5L13.4697 15.5303C13.1768 15.2374 13.1768 14.7626 13.4697 14.4697Z" fill="currentColor"/>
</svg>
