<svg width="24" height="24" viewBox="0 0 24 24" fill="none" xmlns="http://www.w3.org/2000/svg">
<path fill-rule="evenodd" clip-rule="evenodd" d="M8 1.25C8.41421 1.25 8.75 1.58579 8.75 2V3.25H15.25V2C15.25 1.58579 15.5858 1.25 16 1.25C16.4142 1.25 16.75 1.58579 16.75 2V3.25H19C19.9665 3.25 20.75 4.0335 20.75 5V9C20.75 9.41421 20.4142 9.75 20 9.75H4.75V19C4.75 19.1381 4.86193 19.25 5 19.25H9C9.41421 19.25 9.75 19.5858 9.75 20C9.75 20.4142 9.41421 20.75 9 20.75H5C4.0335 20.75 3.25 19.9665 3.25 19V5C3.25 4.0335 4.0335 3.25 5 3.25H7.25V2C7.25 1.58579 7.58579 1.25 8 1.25ZM7.25 4.75H5C4.86193 4.75 4.75 4.86193 4.75 5V8.25H19.25V5C19.25 4.86193 19.1381 4.75 19 4.75H16.75V6C16.75 6.41421 16.4142 6.75 16 6.75C15.5858 6.75 15.25 6.41421 15.25 6V4.75H8.75V6C8.75 6.41421 8.41421 6.75 8 6.75C7.58579 6.75 7.25 6.41421 7.25 6V4.75ZM17 12.75C14.6528 12.75 12.75 14.6528 12.75 17C12.75 17.9027 13.0314 18.7397 13.5114 19.428L19.428 13.5114C18.7397 13.0314 17.9027 12.75 17 12.75ZM20.4886 14.572L14.572 20.4886C15.2603 20.9686 16.0973 21.25 17 21.25C19.3472 21.25 21.25 19.3472 21.25 17C21.25 16.0973 20.9686 15.2603 20.4886 14.572ZM11.25 17C11.25 13.8244 13.8244 11.25 17 11.25C20.1756 11.25 22.75 13.8244 22.75 17C22.75 20.1756 20.1756 22.75 17 22.75C13.8244 22.75 11.25 20.1756 11.25 17Z" fill="currentColor"/>
</svg>
