<svg width="24" height="24" viewBox="0 0 24 24" fill="none" xmlns="http://www.w3.org/2000/svg">
<path fill-rule="evenodd" clip-rule="evenodd" d="M8 1.25C8.41421 1.25 8.75 1.58579 8.75 2V3.25H15.25V2C15.25 1.58579 15.5858 1.25 16 1.25C16.4142 1.25 16.75 1.58579 16.75 2V3.25H19C19.9665 3.25 20.75 4.0335 20.75 5V9C20.75 9.41421 20.4142 9.75 20 9.75H4.75V19C4.75 19.1381 4.86193 19.25 5 19.25H9C9.41421 19.25 9.75 19.5858 9.75 20C9.75 20.4142 9.41421 20.75 9 20.75H5C4.0335 20.75 3.25 19.9665 3.25 19V5C3.25 4.0335 4.0335 3.25 5 3.25H7.25V2C7.25 1.58579 7.58579 1.25 8 1.25ZM7.25 4.75H5C4.86193 4.75 4.75 4.86193 4.75 5V8.25H19.25V5C19.25 4.86193 19.1381 4.75 19 4.75H16.75V6C16.75 6.41421 16.4142 6.75 16 6.75C15.5858 6.75 15.25 6.41421 15.25 6V4.75H8.75V6C8.75 6.41421 8.41421 6.75 8 6.75C7.58579 6.75 7.25 6.41421 7.25 6V4.75ZM19.2197 11.7197C20.2029 10.7364 21.7971 10.7364 22.7803 11.7197C23.7636 12.7029 23.7636 14.2971 22.7803 15.2803L16.0303 22.0303C15.9402 22.1205 15.8286 22.1861 15.706 22.2211L12.206 23.2211C11.9441 23.296 11.6623 23.2229 11.4697 23.0303C11.2771 22.8377 11.204 22.5559 11.2789 22.294L12.2789 18.794C12.3139 18.6714 12.3795 18.5598 12.4697 18.4697L19.2197 11.7197ZM21.7197 12.7803C21.3222 12.3829 20.6778 12.3829 20.2803 12.7803L13.6678 19.3929L13.092 21.408L15.1071 20.8322L21.7197 14.2197C22.1171 13.8222 22.1171 13.1778 21.7197 12.7803Z" fill="currentColor"/>
</svg>
