<svg width="24" height="24" viewBox="0 0 24 24" fill="none" xmlns="http://www.w3.org/2000/svg">
<path d="M11 8H13V11H16V13H13V16H11V13H8V11H11V8Z" fill="currentColor"/>
<path fill-rule="evenodd" clip-rule="evenodd" d="M8 1.25C8.41421 1.25 8.75 1.58579 8.75 2V3.25L15.25 3.25V2C15.25 1.58579 15.5858 1.25 16 1.25C16.4142 1.25 16.75 1.58579 16.75 2V3.25L19 3.25C19.9665 3.25 20.75 4.0335 20.75 5V19C20.75 19.9665 19.9665 20.75 19 20.75H5C4.0335 20.75 3.25 19.9665 3.25 19V5C3.25 4.0335 4.0335 3.25 5 3.25L7.25 3.25V2C7.25 1.58579 7.58579 1.25 8 1.25ZM7.25 4.75H5C4.86193 4.75 4.75 4.86193 4.75 5L4.75 19C4.75 19.1381 4.86193 19.25 5 19.25H19C19.1381 19.25 19.25 19.1381 19.25 19L19.25 5C19.25 4.86193 19.1381 4.75 19 4.75H16.75V6C16.75 6.41421 16.4142 6.75 16 6.75C15.5858 6.75 15.25 6.41421 15.25 6V4.75L8.75 4.75V6C8.75 6.41421 8.41421 6.75 8 6.75C7.58579 6.75 7.25 6.41421 7.25 6V4.75Z" fill="currentColor"/>
</svg>
