<svg width="24" height="24" viewBox="0 0 24 24" fill="none" xmlns="http://www.w3.org/2000/svg">
<path fill-rule="evenodd" clip-rule="evenodd" d="M8.37596 2.58397C8.51506 2.37533 8.74924 2.25 9 2.25H15C15.2508 2.25 15.4849 2.37533 15.624 2.58397L17.4014 5.25H19C21.0711 5.25 22.75 6.92893 22.75 9V17C22.75 19.0711 21.0711 20.75 19 20.75H5C2.92893 20.75 1.25 19.0711 1.25 17V9C1.25 6.92893 2.92893 5.25 5 5.25H6.59861L8.37596 2.58397ZM9.40139 3.75L7.62404 6.41603C7.48494 6.62467 7.25076 6.75 7 6.75H5C3.75736 6.75 2.75 7.75736 2.75 9V17C2.75 18.2426 3.75736 19.25 5 19.25H19C20.2426 19.25 21.25 18.2426 21.25 17V9C21.25 7.75736 20.2426 6.75 19 6.75H17C16.7492 6.75 16.5151 6.62467 16.376 6.41603L14.5986 3.75H9.40139Z" fill="currentColor"/>
<path fill-rule="evenodd" clip-rule="evenodd" d="M12 8.75C10.2051 8.75 8.75 10.2051 8.75 12C8.75 13.7949 10.2051 15.25 12 15.25C13.7949 15.25 15.25 13.7949 15.25 12C15.25 10.2051 13.7949 8.75 12 8.75ZM7.25 12C7.25 9.37665 9.37665 7.25 12 7.25C14.6234 7.25 16.75 9.37665 16.75 12C16.75 14.6234 14.6234 16.75 12 16.75C9.37665 16.75 7.25 14.6234 7.25 12Z" fill="currentColor"/>
</svg>
