<svg width="24" height="24" viewBox="0 0 24 24" fill="none" xmlns="http://www.w3.org/2000/svg">
<path d="M9.75 14C9.75 13.5858 10.0858 13.25 10.5 13.25H13.5C13.9142 13.25 14.25 13.5858 14.25 14C14.25 14.4142 13.9142 14.75 13.5 14.75H10.5C10.0858 14.75 9.75 14.4142 9.75 14Z" fill="currentColor"/>
<path d="M8 13.5C8 14.3284 7.32843 15 6.5 15C5.67157 15 5 14.3284 5 13.5C5 12.6716 5.67157 12 6.5 12C7.32843 12 8 12.6716 8 13.5Z" fill="currentColor"/>
<path d="M17.5 15C18.3284 15 19 14.3284 19 13.5C19 12.6716 18.3284 12 17.5 12C16.6716 12 16 12.6716 16 13.5C16 14.3284 16.6716 15 17.5 15Z" fill="currentColor"/>
<path fill-rule="evenodd" clip-rule="evenodd" d="M6.5086 4.25C5.28078 4.25 4.20172 5.06394 3.86441 6.24452L2.39429 11.39C2.29856 11.725 2.25 12.0717 2.25 12.4202V19.25C2.25 20.0784 2.92157 20.75 3.75 20.75H6.25C7.07843 20.75 7.75 20.0784 7.75 19.25V17.75H16.25V19.25C16.25 20.0784 16.9216 20.75 17.75 20.75H20.25C21.0784 20.75 21.75 20.0784 21.75 19.25V12.4202C21.75 12.0717 21.7014 11.725 21.6057 11.39L20.1356 6.24452C19.7983 5.06394 18.7192 4.25 17.4914 4.25H6.5086ZM20.25 17.75H17.75V19.25H20.25V17.75ZM20.25 16.25V13C20.25 11.7574 19.2426 10.75 18 10.75H6C4.75736 10.75 3.75 11.7574 3.75 13V16.25H20.25ZM3.75 19.25L3.75 17.75H6.25V19.25H3.75ZM19.5268 9.57387L18.6933 6.6566C18.54 6.11997 18.0495 5.75 17.4914 5.75H6.5086C5.9505 5.75 5.46002 6.11997 5.3067 6.6566L4.47319 9.57387C4.93958 9.36572 5.45627 9.25 6 9.25H18C18.5437 9.25 19.0604 9.36572 19.5268 9.57387Z" fill="currentColor"/>
</svg>
