<svg width="24" height="24" viewBox="0 0 24 24" fill="none" xmlns="http://www.w3.org/2000/svg">
<path d="M10 10C10 10.8284 9.32843 11.5 8.5 11.5C7.67157 11.5 7 10.8284 7 10C7 9.17157 7.67157 8.5 8.5 8.5C9.32843 8.5 10 9.17157 10 10Z" fill="currentColor"/>
<path d="M8.5 12.5C6.84315 12.5 5.5 13.8431 5.5 15.5C5.5 15.7761 5.72386 16 6 16H11C11.2761 16 11.5 15.7761 11.5 15.5C11.5 13.8431 10.1569 12.5 8.5 12.5Z" fill="currentColor"/>
<path d="M12.25 9C12.25 8.58579 12.5858 8.25 13 8.25H18C18.4142 8.25 18.75 8.58579 18.75 9C18.75 9.41421 18.4142 9.75 18 9.75H13C12.5858 9.75 12.25 9.41421 12.25 9Z" fill="currentColor"/>
<path d="M13 11.25C12.5858 11.25 12.25 11.5858 12.25 12C12.25 12.4142 12.5858 12.75 13 12.75H18C18.4142 12.75 18.75 12.4142 18.75 12C18.75 11.5858 18.4142 11.25 18 11.25H13Z" fill="currentColor"/>
<path fill-rule="evenodd" clip-rule="evenodd" d="M2.25 8C2.25 5.92893 3.92893 4.25 6 4.25H18C20.0711 4.25 21.75 5.92893 21.75 8V16C21.75 18.0711 20.0711 19.75 18 19.75H6C3.92893 19.75 2.25 18.0711 2.25 16V8ZM6 5.75C4.75736 5.75 3.75 6.75736 3.75 8V16C3.75 17.2426 4.75736 18.25 6 18.25H18C19.2426 18.25 20.25 17.2426 20.25 16V8C20.25 6.75736 19.2426 5.75 18 5.75H6Z" fill="currentColor"/>
</svg>
