<svg width="24" height="24" viewBox="0 0 24 24" fill="none" xmlns="http://www.w3.org/2000/svg">
<path d="M4.25 19C4.25 20.5188 5.48122 21.75 7 21.75H15C16.5188 21.75 17.75 20.5188 17.75 19V14.1176C17.75 13.7034 17.4142 13.3676 17 13.3676C16.5858 13.3676 16.25 13.7034 16.25 14.1176V19C16.25 19.6904 15.6904 20.25 15 20.25H7C6.30964 20.25 5.75 19.6904 5.75 19V5C5.75 4.30964 6.30964 3.75 7 3.75H7.18182C7.59603 3.75 7.93182 3.41421 7.93182 3C7.93182 2.58578 7.59603 2.25 7.18182 2.25H7C5.48122 2.25 4.25 3.48122 4.25 5V19Z" fill="currentColor"/>
<path fill-rule="evenodd" clip-rule="evenodd" d="M22.75 10C22.75 10.9665 21.9665 11.75 21 11.75H11C10.0335 11.75 9.25 10.9665 9.25 10V4C9.25 3.0335 10.0335 2.25 11 2.25H21C21.9665 2.25 22.75 3.0335 22.75 4V10ZM21 10.25C21.1381 10.25 21.25 10.1381 21.25 10V7H10.75V10C10.75 10.1381 10.8619 10.25 11 10.25H21ZM10.75 5V4C10.75 3.86193 10.8619 3.75 11 3.75L21 3.75C21.1381 3.75 21.25 3.86193 21.25 4V5H10.75Z" fill="currentColor"/>
<path d="M9 17.25C8.58579 17.25 8.25 17.5858 8.25 18C8.25 18.4142 8.58579 18.75 9 18.75H13C13.4142 18.75 13.75 18.4142 13.75 18C13.75 17.5858 13.4142 17.25 13 17.25H9Z" fill="currentColor"/>
</svg>
