<svg width="24" height="24" viewBox="0 0 24 24" fill="none" xmlns="http://www.w3.org/2000/svg">
<path fill-rule="evenodd" clip-rule="evenodd" d="M5.84211 5.64478C4.68667 5.64478 3.75 6.58144 3.75 7.73688V16.2632C3.75 17.4186 4.68667 18.3553 5.84211 18.3553H18.1579C19.3133 18.3553 20.25 17.4186 20.25 16.2632V7.73688C20.25 6.58144 19.3133 5.64478 18.1579 5.64478H5.84211ZM2.25 7.73688C2.25 5.75302 3.85824 4.14478 5.84211 4.14478H18.1579C20.1418 4.14478 21.75 5.75302 21.75 7.73688V16.2632C21.75 18.2471 20.1418 19.8553 18.1579 19.8553H5.84211C3.85824 19.8553 2.25 18.2471 2.25 16.2632V7.73688Z" fill="currentColor"/>
<path fill-rule="evenodd" clip-rule="evenodd" d="M9.8124 8.16797C9.8124 7.75376 10.1482 7.41797 10.5624 7.41797H13.4365C13.8507 7.41797 14.1865 7.75376 14.1865 8.16797V9.81361H15.8322C16.2464 9.81361 16.5822 10.1494 16.5822 10.5636V13.4377C16.5822 13.8519 16.2464 14.1877 15.8322 14.1877H14.1865V15.8323C14.1865 16.2465 13.8507 16.5823 13.4365 16.5823H10.5624C10.1482 16.5823 9.8124 16.2465 9.8124 15.8323V14.1877H8.16785C7.75363 14.1877 7.41785 13.8519 7.41785 13.4377V10.5636C7.41785 10.1494 7.75363 9.81361 8.16785 9.81361H9.8124V8.16797ZM11.3124 8.91797V10.5636C11.3124 10.9778 10.9766 11.3136 10.5624 11.3136H8.91785V12.6877H10.5624C10.9766 12.6877 11.3124 13.0235 11.3124 13.4377V15.0823H12.6865V13.4377C12.6865 13.0235 13.0223 12.6877 13.4365 12.6877H15.0822V11.3136H13.4365C13.0223 11.3136 12.6865 10.9778 12.6865 10.5636V8.91797H11.3124Z" fill="currentColor"/>
</svg>
