<svg width="24" height="24" viewBox="0 0 24 24" fill="none" xmlns="http://www.w3.org/2000/svg">
<path fill-rule="evenodd" clip-rule="evenodd" d="M12.6666 1.25001C14.2275 1.24751 15.7676 1.60741 17.1658 2.30138C18.5643 2.99553 19.7825 4.00495 20.7244 5.25011C21.6663 6.49527 22.3062 7.94215 22.5937 9.47675C22.8812 11.0114 22.8084 12.5917 22.381 14.0934C21.9536 15.5951 21.1834 16.977 20.1309 18.1303C19.0785 19.2835 17.7727 20.1766 16.3163 20.7393C14.8598 21.3019 13.2927 21.5186 11.7383 21.3723C10.3219 21.2391 8.95143 20.8078 7.71611 20.1086L2.32248 22.6772C2.03581 22.8137 1.69423 22.7549 1.46971 22.5304C1.24518 22.3058 1.18636 21.9643 1.32286 21.6776L3.89133 16.2832C3.07607 14.844 2.62681 13.2241 2.58626 11.5662C2.54232 9.76963 2.97997 7.994 3.8538 6.42361C4.72764 4.85322 6.00581 3.54529 7.55568 2.63556C9.1052 1.72602 10.8699 1.24763 12.6666 1.25001ZM16.4989 3.64498C15.3084 3.05409 13.997 2.74772 12.668 2.75001L12.6656 2.75001C11.1362 2.74781 9.634 3.15494 8.315 3.92917C6.99599 4.70339 5.90821 5.8165 5.16455 7.15297C4.42088 8.48944 4.04841 10.0006 4.08581 11.5296C4.12321 13.0585 4.56911 14.5497 5.37722 15.8482C5.51229 16.0652 5.52752 16.3361 5.41762 16.5669L3.58579 20.4142L7.43223 18.5824C7.66293 18.4726 7.93369 18.4877 8.15069 18.6226C9.27936 19.3244 10.5556 19.7544 11.8788 19.8789C13.202 20.0034 14.536 19.8189 15.7757 19.34C17.0155 18.8611 18.1271 18.1009 19.023 17.1191C19.9188 16.1374 20.5745 14.9611 20.9383 13.6828C21.3021 12.4045 21.3641 11.0592 21.1193 9.75294C20.8746 8.44662 20.3299 7.21498 19.5281 6.15505C18.7263 5.09512 17.6893 4.23586 16.4989 3.64498Z" fill="currentColor"/>
</svg>
