<svg width="24" height="24" viewBox="0 0 24 24" fill="none" xmlns="http://www.w3.org/2000/svg">
<path d="M17.5303 9.53033C17.8232 9.23744 17.8232 8.76256 17.5303 8.46967C17.2374 8.17678 16.7626 8.17678 16.4697 8.46967L10 14.9393L7.53033 12.4697C7.23744 12.1768 6.76256 12.1768 6.46967 12.4697C6.17678 12.7626 6.17678 13.2374 6.46967 13.5303L9.46967 16.5303C9.76256 16.8232 10.2374 16.8232 10.5303 16.5303L17.5303 9.53033Z" fill="currentColor"/>
<path fill-rule="evenodd" clip-rule="evenodd" d="M12 2.25C6.61522 2.25 2.25 6.61522 2.25 12C2.25 17.3848 6.61522 21.75 12 21.75C17.3848 21.75 21.75 17.3848 21.75 12C21.75 6.61522 17.3848 2.25 12 2.25ZM3.75 12C3.75 7.44365 7.44365 3.75 12 3.75C16.5563 3.75 20.25 7.44365 20.25 12C20.25 16.5563 16.5563 20.25 12 20.25C7.44365 20.25 3.75 16.5563 3.75 12Z" fill="currentColor"/>
</svg>
