<svg width="24" height="24" viewBox="0 0 24 24" fill="none" xmlns="http://www.w3.org/2000/svg">
<path d="M11.5303 5.03033C11.8232 4.73744 11.8232 4.26257 11.5303 3.96967C11.2374 3.67678 10.7626 3.67678 10.4697 3.96967L5.49998 8.9393L3.53033 6.96967C3.23743 6.67678 2.76256 6.67678 2.46967 6.96967C2.17678 7.26257 2.17678 7.73744 2.46967 8.03033L4.79287 10.3535C5.1834 10.744 5.81655 10.744 6.20708 10.3535L11.5303 5.03033Z" fill="currentColor"/>
<path d="M13.5 6.75C13.0858 6.75 12.75 7.08579 12.75 7.5C12.75 7.91421 13.0858 8.25 13.5 8.25H21C21.4142 8.25 21.75 7.91421 21.75 7.5C21.75 7.08579 21.4142 6.75 21 6.75H13.5Z" fill="currentColor"/>
<path d="M11.5303 12.9697C11.8232 13.2626 11.8232 13.7374 11.5303 14.0303L6.20708 19.3535C5.81655 19.744 5.1834 19.744 4.79287 19.3535L2.46967 17.0303C2.17678 16.7374 2.17678 16.2626 2.46967 15.9697C2.76256 15.6768 3.23743 15.6768 3.53033 15.9697L5.49998 17.9393L10.4697 12.9697C10.7626 12.6768 11.2374 12.6768 11.5303 12.9697Z" fill="currentColor"/>
<path d="M13.5 15.75C13.0858 15.75 12.75 16.0858 12.75 16.5C12.75 16.9142 13.0858 17.25 13.5 17.25H21C21.4142 17.25 21.75 16.9142 21.75 16.5C21.75 16.0858 21.4142 15.75 21 15.75H13.5Z" fill="currentColor"/>
</svg>
