<svg width="24" height="24" viewBox="0 0 24 24" fill="none" xmlns="http://www.w3.org/2000/svg">
<path d="M20.2886 13.8937L21.7513 14.2262C21.9141 13.5103 22 12.7652 22 12C22 11.2348 21.9141 10.4897 21.7513 9.77378L20.2886 10.1063C20.4267 10.7139 20.5 11.3475 20.5 12C20.5 12.6525 20.4267 13.2861 20.2886 13.8937Z" fill="currentColor"/>
<path d="M19.1991 7.4783L20.4684 6.67906C19.6687 5.40892 18.5911 4.33134 17.3209 3.5316L16.5217 4.80094C17.6019 5.48111 18.5189 6.39805 19.1991 7.4783Z" fill="currentColor"/>
<path d="M13.8937 3.71138L14.2262 2.2487C13.5103 2.08594 12.7652 2 12 2C11.2348 2 10.4897 2.08594 9.77378 2.2487L10.1063 3.71138C10.7139 3.57325 11.3475 3.5 12 3.5C12.6525 3.5 13.2861 3.57325 13.8937 3.71138Z" fill="currentColor"/>
<path d="M7.4783 4.80094L6.67906 3.5316C5.40892 4.33134 4.33134 5.40892 3.5316 6.67906L4.80094 7.4783C5.48111 6.39805 6.39805 5.48111 7.4783 4.80094Z" fill="currentColor"/>
<path d="M2 12C2 11.2348 2.08594 10.4897 2.2487 9.77378L3.71138 10.1063C3.57325 10.7139 3.5 11.3475 3.5 12C3.5 12.6525 3.57325 13.2861 3.71138 13.8937L2.2487 14.2262C2.08594 13.5103 2 12.7652 2 12Z" fill="currentColor"/>
<path d="M4.80094 16.5217L3.5316 17.3209C4.33134 18.5911 5.40893 19.6687 6.67906 20.4684L7.4783 19.1991C6.39805 18.5189 5.48111 17.6019 4.80094 16.5217Z" fill="currentColor"/>
<path d="M10.1063 20.2886L9.77378 21.7513C10.4897 21.9141 11.2348 22 12 22C12.7652 22 13.5103 21.9141 14.2262 21.7513L13.8937 20.2886C13.2861 20.4267 12.6525 20.5 12 20.5C11.3475 20.5 10.7139 20.4267 10.1063 20.2886Z" fill="currentColor"/>
<path d="M16.5217 19.1991L17.3209 20.4684C18.5911 19.6687 19.6687 18.5911 20.4684 17.3209L19.1991 16.5217C18.5189 17.6019 17.6019 18.5189 16.5217 19.1991Z" fill="currentColor"/>
<path d="M17.5303 9.53033C17.8232 9.23744 17.8232 8.76256 17.5303 8.46967C17.2374 8.17678 16.7626 8.17678 16.4697 8.46967L10 14.9393L7.53033 12.4697C7.23744 12.1768 6.76256 12.1768 6.46967 12.4697C6.17678 12.7626 6.17678 13.2374 6.46967 13.5303L9.46967 16.5303C9.76256 16.8232 10.2374 16.8232 10.5303 16.5303L17.5303 9.53033Z" fill="currentColor"/>
</svg>
