<svg width="24" height="24" viewBox="0 0 24 24" fill="none" xmlns="http://www.w3.org/2000/svg">
<path d="M8.53033 9.96967C8.23744 9.67678 7.76256 9.67678 7.46967 9.96967C7.17678 10.2626 7.17678 10.7374 7.46967 11.0303L11.4697 15.0303C11.7626 15.3232 12.2374 15.3232 12.5303 15.0303L16.5303 11.0303C16.8232 10.7374 16.8232 10.2626 16.5303 9.96967C16.2374 9.67678 15.7626 9.67678 15.4697 9.96967L12 13.4393L8.53033 9.96967Z" fill="currentColor"/>
<path fill-rule="evenodd" clip-rule="evenodd" d="M12 2.25C6.61522 2.25 2.25 6.61522 2.25 12C2.25 17.3848 6.61522 21.75 12 21.75C17.3848 21.75 21.75 17.3848 21.75 12C21.75 6.61522 17.3848 2.25 12 2.25ZM3.75 12C3.75 7.44365 7.44365 3.75 12 3.75C16.5563 3.75 20.25 7.44365 20.25 12C20.25 16.5563 16.5563 20.25 12 20.25C7.44365 20.25 3.75 16.5563 3.75 12Z" fill="currentColor"/>
</svg>
