<svg width="24" height="24" viewBox="0 0 24 24" fill="none" xmlns="http://www.w3.org/2000/svg">
<path d="M9.96967 15.4697C9.67678 15.7626 9.67678 16.2374 9.96967 16.5303C10.2626 16.8232 10.7374 16.8232 11.0303 16.5303L15.0303 12.5303C15.3232 12.2374 15.3232 11.7626 15.0303 11.4697L11.0303 7.46967C10.7374 7.17678 10.2626 7.17678 9.96967 7.46967C9.67678 7.76256 9.67678 8.23744 9.96967 8.53033L13.4393 12L9.96967 15.4697Z" fill="currentColor"/>
<path fill-rule="evenodd" clip-rule="evenodd" d="M2.25 12C2.25 17.3848 6.61522 21.75 12 21.75C17.3848 21.75 21.75 17.3848 21.75 12C21.75 6.61522 17.3848 2.25 12 2.25C6.61522 2.25 2.25 6.61522 2.25 12ZM12 20.25C7.44365 20.25 3.75 16.5563 3.75 12C3.75 7.44365 7.44365 3.75 12 3.75C16.5563 3.75 20.25 7.44365 20.25 12C20.25 16.5563 16.5563 20.25 12 20.25Z" fill="currentColor"/>
</svg>
