<svg width="24" height="24" viewBox="0 0 24 24" fill="none" xmlns="http://www.w3.org/2000/svg">
<path d="M15.4697 14.0303C15.7626 14.3232 16.2374 14.3232 16.5303 14.0303C16.8232 13.7374 16.8232 13.2626 16.5303 12.9697L12.5303 8.96967C12.2374 8.67678 11.7626 8.67678 11.4697 8.96967L7.46967 12.9697C7.17678 13.2626 7.17678 13.7374 7.46967 14.0303C7.76256 14.3232 8.23744 14.3232 8.53033 14.0303L12 10.5607L15.4697 14.0303Z" fill="currentColor"/>
<path fill-rule="evenodd" clip-rule="evenodd" d="M12 21.75C17.3848 21.75 21.75 17.3848 21.75 12C21.75 6.61522 17.3848 2.25 12 2.25C6.61522 2.25 2.25 6.61523 2.25 12C2.25 17.3848 6.61522 21.75 12 21.75ZM20.25 12C20.25 16.5563 16.5563 20.25 12 20.25C7.44365 20.25 3.75 16.5564 3.75 12C3.75 7.44365 7.44365 3.75 12 3.75C16.5563 3.75 20.25 7.44365 20.25 12Z" fill="currentColor"/>
</svg>
