<svg width="24" height="24" viewBox="0 0 24 24" fill="none" xmlns="http://www.w3.org/2000/svg">
<path fill-rule="evenodd" clip-rule="evenodd" d="M18.5333 4.60217C18.8221 4.30519 19.2969 4.29851 19.5939 4.58726C20.5931 5.55874 21.3868 6.71321 21.9288 7.98531C22.4708 9.25747 22.75 10.6217 22.75 12C22.75 13.3783 22.4708 14.7425 21.9288 16.0147C21.3868 17.2868 20.5931 18.4412 19.5939 19.4127C19.2969 19.7015 18.8221 19.6948 18.5333 19.3978C18.2446 19.1008 18.2513 18.626 18.5482 18.3373C19.4062 17.5031 20.0857 16.5139 20.5488 15.4268C21.0119 14.3397 21.25 13.1753 21.25 12C21.25 10.8247 21.0119 9.6603 20.5488 8.57322C20.0857 7.4861 19.4062 6.49692 18.5482 5.66273C18.2513 5.37398 18.2446 4.89915 18.5333 4.60217ZM5.46667 4.60217C5.75541 4.89915 5.74874 5.37398 5.45175 5.66273C4.59377 6.49692 3.91434 7.4861 3.4512 8.57323C2.98807 9.6603 2.75 10.8247 2.75 12C2.75 13.1753 2.98807 14.3397 3.4512 15.4268C3.91434 16.5139 4.59377 17.5031 5.45176 18.3373C5.74874 18.626 5.75541 19.1008 5.46667 19.3978C5.17792 19.6948 4.70309 19.7015 4.40611 19.4127C3.40692 18.4412 2.61316 17.2868 2.07121 16.0147C1.52924 14.7425 1.25 13.3783 1.25 12C1.25 10.6217 1.52924 9.25747 2.07121 7.98532C2.61316 6.71321 3.40692 5.55874 4.40611 4.58726C4.70309 4.29851 5.17792 4.30519 5.46667 4.60217ZM16.008 7.05753C16.2967 6.76055 16.7715 6.75387 17.0685 7.04262C17.7361 7.69166 18.2668 8.46333 18.6292 9.31414C18.9917 10.165 19.1786 11.0777 19.1786 12C19.1786 12.9223 18.9917 13.835 18.6292 14.6858C18.2668 15.5367 17.7361 16.3083 17.0685 16.9574C16.7715 17.2461 16.2967 17.2394 16.008 16.9425C15.7192 16.6455 15.7259 16.1706 16.0229 15.8819C16.5492 15.3702 16.9656 14.7638 17.2492 14.0979C17.5329 13.4321 17.6786 12.7193 17.6786 12C17.6786 11.2807 17.5329 10.5678 17.2492 9.90205C16.9656 9.23622 16.5492 8.62983 16.0229 8.11808C15.7259 7.82934 15.7192 7.35451 16.008 7.05753ZM7.99205 7.05753C8.28079 7.35451 8.27412 7.82934 7.97714 8.11808C7.45079 8.62983 7.03443 9.23622 6.75077 9.90206C6.46713 10.5678 6.32143 11.2807 6.32143 12C6.32143 12.7193 6.46713 13.4321 6.75077 14.0979C7.03443 14.7638 7.45079 15.3702 7.97714 15.8819C8.27412 16.1706 8.28079 16.6455 7.99205 16.9425C7.7033 17.2394 7.22847 17.2461 6.93149 16.9574C6.26394 16.3083 5.73325 15.5367 5.37078 14.6858C5.00829 13.835 4.82143 12.9223 4.82143 12C4.82143 11.0777 5.00829 10.165 5.37078 9.31414C5.73325 8.46333 6.26394 7.69166 6.93149 7.04262C7.22847 6.75387 7.7033 6.76055 7.99205 7.05753ZM12 10.6666C11.2107 10.6666 10.6071 11.2833 10.6071 12C10.6071 12.7167 11.2107 13.3334 12 13.3334C12.7893 13.3334 13.3929 12.7167 13.3929 12C13.3929 11.2833 12.7893 10.6666 12 10.6666ZM9.10714 12C9.10714 10.4154 10.4223 9.16655 12 9.16655C13.5777 9.16655 14.8929 10.4154 14.8929 12C14.8929 13.5846 13.5777 14.8334 12 14.8334C10.4223 14.8334 9.10714 13.5846 9.10714 12Z" fill="currentColor"/>
</svg>
