<svg width="24" height="24" viewBox="0 0 24 24" fill="none" xmlns="http://www.w3.org/2000/svg">
<path d="M6 15.25C6.41421 15.25 6.75 15.5858 6.75 16V17C6.75 17.4142 6.41421 17.75 6 17.75C5.58579 17.75 5.25 17.4142 5.25 17V16C5.25 15.5858 5.58579 15.25 6 15.25Z" fill="currentColor"/>
<path d="M6.75 12C6.75 11.5858 6.41421 11.25 6 11.25C5.58579 11.25 5.25 11.5858 5.25 12V13C5.25 13.4142 5.58579 13.75 6 13.75C6.41421 13.75 6.75 13.4142 6.75 13V12Z" fill="currentColor"/>
<path d="M15.75 8.25V6.75H14.25V8.25H12.75V9.75H14.25V11.25H15.75V9.75H17.25V8.25H15.75Z" fill="currentColor"/>
<path fill-rule="evenodd" clip-rule="evenodd" d="M8.25 6C8.25 5.0335 9.0335 4.25 10 4.25H20C20.9665 4.25 21.75 5.0335 21.75 6V19.25H22C22.4142 19.25 22.75 19.5858 22.75 20C22.75 20.4142 22.4142 20.75 22 20.75H2C1.58579 20.75 1.25 20.4142 1.25 20C1.25 19.5858 1.58579 19.25 2 19.25H2.25V10C2.25 9.0335 3.0335 8.25 4 8.25H8.25V6ZM20.25 13.75V19.25H17.75V13.75H20.25ZM16.25 13.75V19.25H13.75V13.75H16.25ZM12.25 13.75V19.25H9.75V13.7073C9.82819 13.735 9.91234 13.75 10 13.75H12.25ZM8.25 9.75V19.25H3.75V10C3.75 9.86193 3.86193 9.75 4 9.75H8.25ZM20.25 12.25V6C20.25 5.86193 20.1381 5.75 20 5.75H10C9.86193 5.75 9.75 5.86193 9.75 6V12.2927C9.82819 12.265 9.91234 12.25 10 12.25L20.25 12.25Z" fill="currentColor"/>
</svg>
