<svg width="24" height="24" viewBox="0 0 24 24" fill="none" xmlns="http://www.w3.org/2000/svg">
<path fill-rule="evenodd" clip-rule="evenodd" d="M10 7.75C9.30964 7.75 8.75 8.30964 8.75 9C8.75 9.69036 9.30964 10.25 10 10.25C10.6904 10.25 11.25 9.69036 11.25 9C11.25 8.30964 10.6904 7.75 10 7.75ZM7.25 9C7.25 7.48122 8.48122 6.25 10 6.25C11.5188 6.25 12.75 7.48122 12.75 9C12.75 10.5188 11.5188 11.75 10 11.75C8.48122 11.75 7.25 10.5188 7.25 9Z" fill="currentColor"/>
<path fill-rule="evenodd" clip-rule="evenodd" d="M15 11.75C14.3096 11.75 13.75 12.3096 13.75 13C13.75 13.6904 14.3096 14.25 15 14.25C15.6904 14.25 16.25 13.6904 16.25 13C16.25 12.3096 15.6904 11.75 15 11.75ZM12.25 13C12.25 11.4812 13.4812 10.25 15 10.25C16.5188 10.25 17.75 11.4812 17.75 13C17.75 14.5188 16.5188 15.75 15 15.75C13.4812 15.75 12.25 14.5188 12.25 13Z" fill="currentColor"/>
<path fill-rule="evenodd" clip-rule="evenodd" d="M9 13.75C8.30964 13.75 7.75 14.3096 7.75 15C7.75 15.6904 8.30964 16.25 9 16.25C9.69036 16.25 10.25 15.6904 10.25 15C10.25 14.3096 9.69036 13.75 9 13.75ZM6.25 15C6.25 13.4812 7.48122 12.25 9 12.25C10.5188 12.25 11.75 13.4812 11.75 15C11.75 16.5188 10.5188 17.75 9 17.75C7.48122 17.75 6.25 16.5188 6.25 15Z" fill="currentColor"/>
</svg>
