<svg width="24" height="24" viewBox="0 0 24 24" fill="none" xmlns="http://www.w3.org/2000/svg">
<path fill-rule="evenodd" clip-rule="evenodd" d="M9.3775 4.44608V5.95412C9.3775 6.36834 9.04171 6.70412 8.6275 6.70412C8.21328 6.70412 7.8775 6.36834 7.8775 5.95412V4.43421C7.8775 3.60707 8.55152 2.94608 9.37117 2.94608H19.7826C20.6022 2.94608 21.2762 3.60705 21.2762 4.43421V14.768C21.2762 15.5951 20.6022 16.2561 19.7826 16.2561H18.3C17.8858 16.2561 17.55 15.9203 17.55 15.5061C17.55 15.0919 17.8858 14.7561 18.3 14.7561H19.7762V4.44608H9.3775ZM3.04366 9.23202C3.04366 8.40488 3.71768 7.7439 4.53733 7.7439H14.9487C15.7683 7.7439 16.4424 8.40486 16.4424 9.23202V19.5658C16.4424 20.393 15.7684 21.0539 14.9487 21.0539H4.53733C3.71769 21.0539 3.04366 20.3929 3.04366 19.5658V9.23202ZM4.54366 9.2439V19.5539H14.9424V9.2439H4.54366Z" fill="currentColor"/>
</svg>
