<svg width="24" height="24" viewBox="0 0 24 24" fill="none" xmlns="http://www.w3.org/2000/svg">
<path fill-rule="evenodd" clip-rule="evenodd" d="M6 3.25C3.92893 3.25 2.25 4.92893 2.25 7V15C2.25 17.0711 3.92893 18.75 6 18.75H10C10.4142 18.75 10.75 18.4142 10.75 18C10.75 17.5858 10.4142 17.25 10 17.25H6C4.75736 17.25 3.75 16.2426 3.75 15V9H20.25V12C20.25 12.4142 20.5858 12.75 21 12.75C21.4142 12.75 21.75 12.4142 21.75 12V7C21.75 4.92893 20.0711 3.25 18 3.25H6ZM20.25 7C20.25 5.75736 19.2426 4.75 18 4.75H6C4.75736 4.75 3.75 5.75736 3.75 7L20.25 7Z" fill="currentColor"/>
<path d="M13 14.25C13.4142 14.25 13.75 14.5858 13.75 15V21C13.75 21.4142 13.4142 21.75 13 21.75C12.5858 21.75 12.25 21.4142 12.25 21V15C12.25 14.5858 12.5858 14.25 13 14.25Z" fill="currentColor"/>
<path d="M15.75 14.25C15.3358 14.25 15 14.5858 15 15C15 15.4142 15.3358 15.75 15.75 15.75H16.75C16.8881 15.75 17 15.8619 17 16V17C17 17.1381 16.8881 17.25 16.75 17.25C15.7835 17.25 15 18.0335 15 19V21C15 21.4142 15.3358 21.75 15.75 21.75H17.75C18.1642 21.75 18.5 21.4142 18.5 21C18.5 20.5858 18.1642 20.25 17.75 20.25H16.5V19C16.5 18.8619 16.6119 18.75 16.75 18.75C17.7165 18.75 18.5 17.9665 18.5 17V16C18.5 15.0335 17.7165 14.25 16.75 14.25H15.75Z" fill="currentColor"/>
<path d="M19.25 15C19.25 14.5858 19.5858 14.25 20 14.25H21C21.9665 14.25 22.75 15.0335 22.75 16V20C22.75 20.9665 21.9665 21.75 21 21.75H20C19.5858 21.75 19.25 21.4142 19.25 21C19.25 20.5858 19.5858 20.25 20 20.25H21C21.1381 20.25 21.25 20.1381 21.25 20V18.75H20.5C20.0858 18.75 19.75 18.4142 19.75 18C19.75 17.5858 20.0858 17.25 20.5 17.25H21.25V16C21.25 15.8619 21.1381 15.75 21 15.75H20C19.5858 15.75 19.25 15.4142 19.25 15Z" fill="currentColor"/>
<path d="M6 10.25C5.58579 10.25 5.25 10.5858 5.25 11C5.25 11.4142 5.58579 11.75 6 11.75H16C16.4142 11.75 16.75 11.4142 16.75 11C16.75 10.5858 16.4142 10.25 16 10.25H6Z" fill="currentColor"/>
</svg>
