<svg width="24" height="24" viewBox="0 0 24 24" fill="none" xmlns="http://www.w3.org/2000/svg">
<path fill-rule="evenodd" clip-rule="evenodd" d="M2.25 7C2.25 4.92893 3.92893 3.25 6 3.25H18C20.0711 3.25 21.75 4.92893 21.75 7V11C21.75 11.4142 21.4142 11.75 21 11.75C20.5858 11.75 20.25 11.4142 20.25 11V9H3.75V15C3.75 16.2426 4.75736 17.25 6 17.25H10C10.4142 17.25 10.75 17.5858 10.75 18C10.75 18.4142 10.4142 18.75 10 18.75H6C3.92893 18.75 2.25 17.0711 2.25 15V7ZM18 4.75C19.2426 4.75 20.25 5.75736 20.25 7L3.75 7C3.75 5.75736 4.75736 4.75 6 4.75H18Z" fill="currentColor"/>
<path d="M18.75 14C18.75 13.5858 18.4142 13.25 18 13.25C17.5858 13.25 17.25 13.5858 17.25 14V17.25H14C13.5858 17.25 13.25 17.5858 13.25 18C13.25 18.4142 13.5858 18.75 14 18.75H17.25V22C17.25 22.4142 17.5858 22.75 18 22.75C18.4142 22.75 18.75 22.4142 18.75 22V18.75H22C22.4142 18.75 22.75 18.4142 22.75 18C22.75 17.5858 22.4142 17.25 22 17.25H18.75V14Z" fill="currentColor"/>
</svg>
