<svg width="24" height="24" viewBox="0 0 24 24" fill="none" xmlns="http://www.w3.org/2000/svg">
<path fill-rule="evenodd" clip-rule="evenodd" d="M5.75 3.25C3.67893 3.25 2 4.92893 2 7V15C2 17.0711 3.67893 18.75 5.75 18.75H9.75C10.1642 18.75 10.5 18.4142 10.5 18C10.5 17.5858 10.1642 17.25 9.75 17.25H5.75C4.50736 17.25 3.5 16.2426 3.5 15V9H20V10C20 10.4142 20.3358 10.75 20.75 10.75C21.1642 10.75 21.5 10.4142 21.5 10V7C21.5 4.92893 19.8211 3.25 17.75 3.25H5.75ZM20 7C20 5.75736 18.9926 4.75 17.75 4.75H5.75C4.50736 4.75 3.5 5.75736 3.5 7L20 7Z" fill="currentColor"/>
<path d="M20.0303 16.0303C20.3232 15.7374 20.3232 15.2626 20.0303 14.9697C19.7374 14.6768 19.2626 14.6768 18.9697 14.9697L16.5 17.4393L15.5303 16.4697C15.2374 16.1768 14.7626 16.1768 14.4697 16.4697C14.1768 16.7626 14.1768 17.2374 14.4697 17.5303L15.9697 19.0303C16.2626 19.3232 16.7374 19.3232 17.0303 19.0303L20.0303 16.0303Z" fill="currentColor"/>
<path fill-rule="evenodd" clip-rule="evenodd" d="M17.25 11.25C14.0744 11.25 11.5 13.8244 11.5 17C11.5 20.1756 14.0744 22.75 17.25 22.75C20.4256 22.75 23 20.1756 23 17C23 13.8244 20.4256 11.25 17.25 11.25ZM13 17C13 14.6528 14.9028 12.75 17.25 12.75C19.5972 12.75 21.5 14.6528 21.5 17C21.5 19.3472 19.5972 21.25 17.25 21.25C14.9028 21.25 13 19.3472 13 17Z" fill="currentColor"/>
</svg>
