<svg width="24" height="24" viewBox="0 0 24 24" fill="none" xmlns="http://www.w3.org/2000/svg">
<path fill-rule="evenodd" clip-rule="evenodd" d="M6 3.25C3.92893 3.25 2.25 4.92893 2.25 7V15C2.25 17.0711 3.92893 18.75 6 18.75H10C10.4142 18.75 10.75 18.4142 10.75 18C10.75 17.5858 10.4142 17.25 10 17.25H6C4.75736 17.25 3.75 16.2426 3.75 15V9H20.25V11C20.25 11.4142 20.5858 11.75 21 11.75C21.4142 11.75 21.75 11.4142 21.75 11V7C21.75 4.92893 20.0711 3.25 18 3.25H6ZM20.25 7C20.25 5.75736 19.2426 4.75 18 4.75H6C4.75736 4.75 3.75 5.75736 3.75 7L20.25 7Z" fill="currentColor"/>
<path d="M13 13.25C13.4142 13.25 13.75 13.5858 13.75 14V19C13.75 19.4142 13.4142 19.75 13 19.75C12.5858 19.75 12.25 19.4142 12.25 19V14C12.25 13.5858 12.5858 13.25 13 13.25Z" fill="currentColor"/>
<path d="M15.5 13.25C15.0858 13.25 14.75 13.5858 14.75 14C14.75 14.4142 15.0858 14.75 15.5 14.75H16.75V15.75H15.5C15.0858 15.75 14.75 16.0858 14.75 16.5V19C14.75 19.4142 15.0858 19.75 15.5 19.75H17.5C17.9142 19.75 18.25 19.4142 18.25 19C18.25 18.5858 17.9142 18.25 17.5 18.25H16.25V17.25H17.5C17.9142 17.25 18.25 16.9142 18.25 16.5V14C18.25 13.5858 17.9142 13.25 17.5 13.25H15.5Z" fill="currentColor"/>
<path d="M19.25 14C19.25 13.5858 19.5858 13.25 20 13.25H22C22.4142 13.25 22.75 13.5858 22.75 14V19C22.75 19.4142 22.4142 19.75 22 19.75H20C19.5858 19.75 19.25 19.4142 19.25 19C19.25 18.5858 19.5858 18.25 20 18.25H21.25V17.25H20.5C20.0858 17.25 19.75 16.9142 19.75 16.5C19.75 16.0858 20.0858 15.75 20.5 15.75H21.25V14.75H20C19.5858 14.75 19.25 14.4142 19.25 14Z" fill="currentColor"/>
<path d="M6 10.25C5.58579 10.25 5.25 10.5858 5.25 11C5.25 11.4142 5.58579 11.75 6 11.75H16C16.4142 11.75 16.75 11.4142 16.75 11C16.75 10.5858 16.4142 10.25 16 10.25H6Z" fill="currentColor"/>
</svg>
