<svg width="24" height="24" viewBox="0 0 24 24" fill="none" xmlns="http://www.w3.org/2000/svg">
<path fill-rule="evenodd" clip-rule="evenodd" d="M2.25 8C2.25 5.92893 3.92893 4.25 6 4.25H18C20.0711 4.25 21.75 5.92893 21.75 8V16C21.75 18.0711 20.0711 19.75 18 19.75H6C3.92893 19.75 2.25 18.0711 2.25 16V8ZM6 5.75C4.75736 5.75 3.75 6.75736 3.75 8V16C3.75 17.2426 4.75736 18.25 6 18.25H18C19.2426 18.25 20.25 17.2426 20.25 16V8C20.25 6.75736 19.2426 5.75 18 5.75H6Z" fill="currentColor"/>
<path fill-rule="evenodd" clip-rule="evenodd" d="M5.25 14C5.25 13.5858 5.58579 13.25 6 13.25H7.5C7.91421 13.25 8.25 13.5858 8.25 14C8.25 14.4142 7.91421 14.75 7.5 14.75H6C5.58579 14.75 5.25 14.4142 5.25 14Z" fill="currentColor"/>
<path fill-rule="evenodd" clip-rule="evenodd" d="M5.25 16.5C5.25 16.2239 5.47386 16 5.75 16H12.75C13.0261 16 13.25 16.2239 13.25 16.5C13.25 16.7761 13.0261 17 12.75 17H5.75C5.47386 17 5.25 16.7761 5.25 16.5Z" fill="currentColor"/>
<path fill-rule="evenodd" clip-rule="evenodd" d="M8.75 14C8.75 13.5858 9.08579 13.25 9.5 13.25H11C11.4142 13.25 11.75 13.5858 11.75 14C11.75 14.4142 11.4142 14.75 11 14.75H9.5C9.08579 14.75 8.75 14.4142 8.75 14Z" fill="currentColor"/>
<path fill-rule="evenodd" clip-rule="evenodd" d="M12.25 14C12.25 13.5858 12.5858 13.25 13 13.25H14.5C14.9142 13.25 15.25 13.5858 15.25 14C15.25 14.4142 14.9142 14.75 14.5 14.75H13C12.5858 14.75 12.25 14.4142 12.25 14Z" fill="currentColor"/>
<path fill-rule="evenodd" clip-rule="evenodd" d="M15.75 14C15.75 13.5858 16.0858 13.25 16.5 13.25H18C18.4142 13.25 18.75 13.5858 18.75 14C18.75 14.4142 18.4142 14.75 18 14.75H16.5C16.0858 14.75 15.75 14.4142 15.75 14Z" fill="currentColor"/>
<path d="M5 10C5 9.44772 5.44772 9 6 9H8C8.55228 9 9 9.44772 9 10V11C9 11.5523 8.55228 12 8 12H6C5.44772 12 5 11.5523 5 11V10Z" fill="currentColor"/>
</svg>
