<svg width="24" height="24" viewBox="0 0 24 24" fill="none" xmlns="http://www.w3.org/2000/svg">
<path fill-rule="evenodd" clip-rule="evenodd" d="M16.5714 7.24772C16.9856 7.24772 17.3214 7.58351 17.3214 7.99772V9.71429C17.3214 10.8225 16.8812 11.8854 16.0976 12.669C15.3139 13.4526 14.2511 13.8929 13.1429 13.8929H7.42857C7.01436 13.8929 6.67857 13.5571 6.67857 13.1429C6.67857 12.7286 7.01436 12.3929 7.42857 12.3929H13.1429C13.8533 12.3929 14.5346 12.1107 15.0369 11.6083C15.5392 11.106 15.8214 10.4247 15.8214 9.71429V7.99772C15.8214 7.58351 16.1572 7.24772 16.5714 7.24772Z" fill="currentColor"/>
<path fill-rule="evenodd" clip-rule="evenodd" d="M10.816 9.7531C11.1089 10.046 11.1089 10.5209 10.816 10.8138L8.48923 13.1406L10.816 15.4674C11.1089 15.7603 11.1089 16.2352 10.816 16.528C10.5232 16.8209 10.0483 16.8209 9.75538 16.528L6.89824 13.6709C6.75759 13.5303 6.67857 13.3395 6.67857 13.1406C6.67857 12.9417 6.75759 12.7509 6.89824 12.6102L9.75538 9.7531C10.0483 9.46021 10.5232 9.46021 10.816 9.7531Z" fill="currentColor"/>
<path fill-rule="evenodd" clip-rule="evenodd" d="M6.28571 4.74772C5.43756 4.74772 4.75 5.43528 4.75 6.28343V17.712C4.75 18.5602 5.43756 19.2477 6.28571 19.2477H17.7143C18.5624 19.2477 19.25 18.5602 19.25 17.712V6.28343C19.25 5.43528 18.5624 4.74772 17.7143 4.74772H6.28571ZM3.25 6.28343C3.25 4.60685 4.60914 3.24772 6.28571 3.24772H17.7143C19.3909 3.24772 20.75 4.60685 20.75 6.28343V17.712C20.75 19.3886 19.3909 20.7477 17.7143 20.7477H6.28571C4.60914 20.7477 3.25 19.3886 3.25 17.712V6.28343Z" fill="currentColor"/>
</svg>
