<svg width="24" height="24" viewBox="0 0 24 24" fill="none" xmlns="http://www.w3.org/2000/svg">
<path fill-rule="evenodd" clip-rule="evenodd" d="M4.49999 4.25C3.25735 4.25 2.24999 5.25736 2.24999 6.5V6.98834C2.24988 6.99566 2.24988 7.00298 2.24999 7.01029V17.5C2.24999 18.7426 3.25735 19.75 4.49999 19.75H19.5C20.7426 19.75 21.75 18.7426 21.75 17.5V7.01023C21.7501 7.00296 21.7501 6.99568 21.75 6.9884V6.5C21.75 5.25736 20.7426 4.25 19.5 4.25H4.49999ZM20.25 6.59862V6.5C20.25 6.08579 19.9142 5.75 19.5 5.75H4.49999C4.08578 5.75 3.74999 6.08579 3.74999 6.5V6.59862L11.584 11.8213C11.8359 11.9892 12.1641 11.9892 12.416 11.8213L20.25 6.59862ZM3.74999 8.40139V17.5C3.74999 17.9142 4.08577 18.25 4.49999 18.25H19.5C19.9142 18.25 20.25 17.9142 20.25 17.5V8.40139L13.2481 13.0693C12.4923 13.5732 11.5077 13.5732 10.7519 13.0693L3.74999 8.40139Z" fill="currentColor"/>
</svg>
