<svg width="24" height="24" viewBox="0 0 24 24" fill="none" xmlns="http://www.w3.org/2000/svg">
<path d="M12 5.25C12.4142 5.25 12.75 5.58579 12.75 6V13C12.75 13.4142 12.4142 13.75 12 13.75C11.5858 13.75 11.25 13.4142 11.25 13V6C11.25 5.58579 11.5858 5.25 12 5.25Z" fill="currentColor"/>
<path d="M13.5 16.5C13.5 17.3284 12.8284 18 12 18C11.1715 18 10.5 17.3284 10.5 16.5C10.5 15.6716 11.1715 15 12 15C12.8284 15 13.5 15.6716 13.5 16.5Z" fill="currentColor"/>
<path fill-rule="evenodd" clip-rule="evenodd" d="M10.2679 0.999999C11.0377 -0.333334 12.9622 -0.333333 13.732 1L23.2583 17.5C24.0281 18.8333 23.0658 20.5 21.5262 20.5H2.47369C0.934085 20.5 -0.028164 18.8333 0.741636 17.5L10.2679 0.999999ZM12.433 1.75L21.9593 18.25C22.1517 18.5833 21.9111 19 21.5262 19H2.47369C2.08879 19 1.84822 18.5833 2.04067 18.25L11.567 1.75C11.7594 1.41667 12.2405 1.41667 12.433 1.75Z" fill="currentColor"/>
</svg>
