<svg width="24" height="24" viewBox="0 0 24 24" fill="none" xmlns="http://www.w3.org/2000/svg">
<path fill-rule="evenodd" clip-rule="evenodd" d="M12.8651 4.2C12.8651 3.78578 13.2009 3.45 13.6151 3.45H20.0151C20.214 3.45 20.4048 3.52901 20.5454 3.66967C20.6861 3.81032 20.7651 4.00108 20.7651 4.2L20.7651 10.4968C20.7651 10.911 20.4293 11.2468 20.0151 11.2468C19.6009 11.2468 19.2651 10.911 19.2651 10.4968L19.2651 5.98993L11.8247 13.3097C11.5294 13.6002 11.0546 13.5963 10.7641 13.301C10.4736 13.0058 10.4775 12.5309 10.7727 12.2404L18.1833 4.95H13.6151C13.2009 4.95 12.8651 4.61421 12.8651 4.2ZM4.06718 7.00041C4.32459 6.743 4.67371 6.59839 5.03774 6.59839H10.8C11.2142 6.59839 11.55 6.93417 11.55 7.34839C11.55 7.7626 11.2142 8.09839 10.8 8.09839H5.16516V19.05H16.1168V13.2C16.1168 12.7858 16.4526 12.45 16.8668 12.45C17.281 12.45 17.6168 12.7858 17.6168 13.2V19.1774C17.6168 19.5414 17.4722 19.8906 17.2147 20.148C16.9573 20.4054 16.6082 20.55 16.2442 20.55H5.03774C4.67371 20.55 4.32459 20.4054 4.06718 20.148C3.80977 19.8906 3.66516 19.5414 3.66516 19.1774V7.97097C3.66516 7.60694 3.80977 7.25781 4.06718 7.00041Z" fill="currentColor"/>
</svg>
