<svg width="24" height="24" viewBox="0 0 24 24" fill="none" xmlns="http://www.w3.org/2000/svg">
<path fill-rule="evenodd" clip-rule="evenodd" d="M21.014 19.8595C21.3008 19.5607 21.2912 19.086 20.9923 18.7991L4.33605 2.80906C4.03724 2.5222 3.56247 2.53189 3.27561 2.8307C2.98875 3.12951 2.99844 3.60428 3.29725 3.89114L19.9535 19.8812C20.2524 20.168 20.7271 20.1583 21.014 19.8595Z" fill="currentColor"/>
<path fill-rule="evenodd" clip-rule="evenodd" d="M18.2853 14.5589C18.529 14.8937 18.9981 14.9676 19.333 14.7239C20.3657 13.9722 21.3181 13.116 22.175 12.1689C22.5451 11.7612 22.7501 11.2303 22.7501 10.6796C22.7501 10.1288 22.5449 9.59764 22.1745 9.18988C19.8456 6.61553 15.9621 3.86962 12.0025 3.93333C11.0247 3.9295 10.052 4.07582 9.11858 4.36718C8.72318 4.49059 8.50269 4.91118 8.62611 5.30658C8.74952 5.70198 9.17011 5.92246 9.56551 5.79905C10.3546 5.55275 11.1769 5.42941 12.0035 5.43335L12.0199 5.43325C15.3414 5.37654 18.8449 7.74503 21.0626 10.1967L21.0639 10.1981C21.1837 10.3299 21.2501 10.5016 21.2501 10.6796C21.2501 10.8577 21.1837 11.0294 21.0639 11.1611L21.0627 11.1625C20.275 12.0331 19.3995 12.8202 18.4503 13.5111C18.1154 13.7549 18.0415 14.224 18.2853 14.5589Z" fill="currentColor"/>
<path fill-rule="evenodd" clip-rule="evenodd" d="M12.0172 17.4259C13.7086 17.4077 15.3722 16.9925 16.8737 16.2135C17.2414 16.0227 17.3848 15.57 17.1941 15.2024C17.0033 14.8347 16.5506 14.6912 16.183 14.882C14.8894 15.5531 13.4561 15.9107 11.9989 15.926L11.9936 15.926C10.3924 15.9541 8.70396 15.4017 7.10918 14.5034C5.5187 13.6076 4.06607 12.3924 2.95058 11.162L2.94985 11.1612C2.83005 11.0294 2.76367 10.8577 2.76367 10.6797C2.76367 10.5016 2.83005 10.3299 2.94985 10.1981L2.95394 10.1936C4.16202 8.8431 5.57805 7.69417 7.14854 6.79029C7.50754 6.58367 7.63107 6.12514 7.42445 5.76614C7.21783 5.40714 6.75931 5.28361 6.40031 5.49023C4.69217 6.47333 3.15194 7.72282 1.83776 9.19153C1.46833 9.59908 1.26367 10.1295 1.26367 10.6797C1.26367 11.2307 1.46903 11.762 1.83964 12.1698C3.05154 13.5066 4.628 14.8274 6.37304 15.8103C8.11317 16.7905 10.066 17.4594 12.0172 17.4259Z" fill="currentColor"/>
<path fill-rule="evenodd" clip-rule="evenodd" d="M13.7645 12.7183C13.2584 13.1155 12.6258 13.3166 11.9832 13.2846C11.3406 13.2525 10.7312 12.9895 10.267 12.544C9.80288 12.0984 9.51523 11.5002 9.45701 10.8594C9.39878 10.2187 9.57388 9.57843 9.95011 9.05649C10.1923 8.72047 10.1163 8.25172 9.78025 8.00952C9.44423 7.76731 8.97549 7.84336 8.73328 8.17938C8.1457 8.99453 7.87222 9.99445 7.96316 10.9952C8.0541 11.9959 8.50333 12.9302 9.22822 13.626C9.95311 14.3219 10.9049 14.7327 11.9085 14.7827C12.9121 14.8328 13.9 14.5187 14.6906 13.8984C15.0164 13.6426 15.0733 13.1712 14.8176 12.8453C14.5618 12.5195 14.0904 12.4626 13.7645 12.7183Z" fill="currentColor"/>
<path fill-rule="evenodd" clip-rule="evenodd" d="M15.3381 11.429C15.7523 11.429 16.0881 11.0932 16.0881 10.679C16.0881 10.143 15.9825 9.61234 15.7774 9.11718C15.5723 8.62202 15.2717 8.1721 14.8927 7.79312C14.5137 7.41414 14.0638 7.11352 13.5687 6.90842C13.0735 6.70331 12.5428 6.59775 12.0068 6.59775C11.5926 6.59775 11.2568 6.93353 11.2568 7.34775C11.2568 7.76196 11.5926 8.09775 12.0068 8.09775C12.3458 8.09775 12.6815 8.16452 12.9946 8.29424C13.3078 8.42396 13.5924 8.61409 13.8321 8.85378C14.0718 9.09347 14.2619 9.37803 14.3916 9.6912C14.5213 10.0044 14.5881 10.34 14.5881 10.679C14.5881 11.0932 14.9239 11.429 15.3381 11.429Z" fill="currentColor"/>
</svg>
