<svg width="24" height="24" viewBox="0 0 24 24" fill="none" xmlns="http://www.w3.org/2000/svg">
<path fill-rule="evenodd" clip-rule="evenodd" d="M12.0061 5.25488C15.9004 5.19514 19.7895 7.88103 22.1764 10.5053L22.1788 10.508C22.5473 10.917 22.7512 11.4481 22.7512 11.9986C22.7512 12.5492 22.5473 13.0803 22.1788 13.4893L22.1766 13.4917C19.8443 16.0585 15.9645 18.8057 12.0061 18.7451C8.04761 18.8057 4.16868 16.0585 1.83804 13.4915L1.83605 13.4893C1.46758 13.0803 1.26367 12.5492 1.26367 11.9986C1.26367 11.4481 1.46758 10.917 1.83605 10.508L1.83819 10.5056C4.22261 7.881 8.11184 5.19514 12.0061 5.25488ZM2.94971 11.5128C2.82994 11.6463 2.76367 11.8193 2.76367 11.9986C2.76367 12.178 2.82995 12.3511 2.94976 12.4845C5.17213 14.9317 8.67249 17.301 11.9935 17.2451C11.9988 17.245 12.0041 17.245 12.0094 17.245C12.0125 17.245 12.0156 17.245 12.0187 17.2451C15.3398 17.301 18.841 14.9317 21.0653 12.4843C21.185 12.3509 21.2512 12.1779 21.2512 11.9986C21.2512 11.8194 21.185 11.6465 21.0654 11.5131C18.7927 9.015 15.2815 6.69984 12.0188 6.75488C12.0103 6.75502 12.0019 6.75502 11.9935 6.75488C8.73071 6.69984 5.21945 9.01506 2.94971 11.5128Z" fill="currentColor"/>
<path fill-rule="evenodd" clip-rule="evenodd" d="M12.9941 9.61433C12.6808 9.48461 12.3451 9.41788 12.0061 9.41797C11.4956 9.41797 10.9963 9.56935 10.5718 9.85295C10.1474 10.1366 9.81651 10.5397 9.62112 11.0113C9.42572 11.4829 9.37457 12.0019 9.47411 12.5026C9.57366 13.0033 9.81943 13.4632 10.1804 13.8243C10.5413 14.1853 11.0012 14.4312 11.5018 14.5309C12.0025 14.6306 12.5215 14.5795 12.9932 14.3843C13.4649 14.189 13.8681 13.8583 14.1518 13.4339C14.4355 13.0095 14.587 12.5105 14.5872 12C14.5873 11.6609 14.5207 11.325 14.3911 11.0117C14.2614 10.6984 14.0713 10.4138 13.8316 10.174C13.5919 9.93423 13.3073 9.74405 12.9941 9.61433ZM12.0059 7.91797C12.5419 7.91786 13.0727 8.02337 13.568 8.22847C14.0633 8.4336 14.5134 8.73434 14.8924 9.11348C15.2715 9.49263 15.5721 9.94275 15.7771 10.4381C15.982 10.9335 16.0874 11.4643 16.0872 12.0004M12.0059 7.91797C11.1988 7.91801 10.4096 8.15735 9.73852 8.60572C9.06738 9.05413 8.54427 9.69148 8.23534 10.4372C7.9264 11.1829 7.84551 12.0034 8.0029 12.7951C8.16029 13.5868 8.54889 14.314 9.11956 14.8848C9.69023 15.4556 10.4173 15.8444 11.209 16.002C12.0006 16.1596 12.8212 16.0789 13.5669 15.7702C14.3127 15.4615 14.9502 14.9385 15.3988 14.2675C15.8474 13.5965 16.0869 12.8074 16.0872 12.0004" fill="currentColor"/>
</svg>
