<svg width="24" height="24" viewBox="0 0 24 24" fill="none" xmlns="http://www.w3.org/2000/svg">
<path fill-rule="evenodd" clip-rule="evenodd" d="M12.9135 1.25001C14.7383 1.2486 16.5211 1.79738 18.0292 2.8247C19.5375 3.85209 20.7009 5.31034 21.3676 7.00908C22.0343 8.70782 22.1734 10.5681 21.7666 12.3471C21.3847 14.0176 20.5381 15.5436 19.3278 16.7504V22C19.3278 22.4142 18.992 22.75 18.5778 22.75C18.1636 22.75 17.8278 22.4142 17.8278 22V16.4311C17.8278 16.2223 17.9149 16.0229 18.0681 15.8809C18.328 15.6402 18.5695 15.3825 18.7915 15.1102L11.6577 17.3635C11.5995 17.5152 11.4923 17.6479 11.346 17.7366C10.0653 18.5126 8.62888 18.996 7.13956 19.1521L7.11958 19.154C6.48599 19.2033 5.84895 19.1248 5.24633 18.923C4.64372 18.7212 4.08783 18.4003 3.61172 17.9793C3.13562 17.5584 2.74902 17.046 2.4749 16.4727C2.20099 15.8997 2.04499 15.2776 2.01617 14.6432C1.94534 13.1879 2.17597 11.7337 2.6936 10.3718C2.69756 10.3614 2.70174 10.3511 2.70616 10.3408C2.82992 10.0543 3.05836 9.82578 3.34485 9.7019C3.62923 9.57894 3.94954 9.56828 4.24134 9.6719C6.5644 10.4725 8.65852 11.0265 10.7109 10.3467L19.725 7.06851C19.7349 7.06493 19.7447 7.06157 19.7546 7.05842C19.179 5.85384 18.2935 4.81965 17.1848 4.06441C15.9259 3.20685 14.4376 2.74878 12.9144 2.75001L12.9138 2.75001C10.7813 2.75001 9.31972 3.37895 8.19812 4.39836C7.04849 5.44324 6.20248 6.9459 5.41024 8.79416C5.24705 9.17487 4.80613 9.35121 4.42542 9.18802C4.04471 9.02483 3.86837 8.58391 4.03156 8.2032C4.84643 6.30212 5.79509 4.55545 7.18923 3.28833C8.61135 1.99579 10.4425 1.25007 12.9135 1.25001ZM12.9135 1.25001C12.9136 1.25001 12.9137 1.25001 12.9138 1.25001V2.00001L12.9132 1.25001C12.9133 1.25001 12.9134 1.25001 12.9135 1.25001ZM20.2639 8.46807C20.2553 8.47159 20.2465 8.47496 20.2377 8.47818L16.8594 9.70677C16.9317 9.80132 16.9983 9.90072 17.0588 10.0045C17.3917 10.5763 17.5157 11.2459 17.4096 11.899C17.4084 11.9063 17.4072 11.9136 17.4057 11.9208C17.2907 12.5166 16.9932 13.0617 16.5545 13.4808C16.1157 13.8998 15.5575 14.172 14.9571 14.2595C14.5472 14.3192 14.1665 14.0354 14.1067 13.6255C14.047 13.2156 14.3308 12.8349 14.7407 12.7752C15.033 12.7326 15.3048 12.6001 15.5185 12.396C15.7294 12.1946 15.8733 11.9333 15.9308 11.6475C15.978 11.341 15.9187 11.0275 15.7625 10.7593C15.6467 10.5603 15.4827 10.3953 15.2874 10.2785L11.5849 11.625C11.2536 13.0141 11.208 14.4537 11.4481 15.8567L19.9381 13.1749C20.0905 12.7997 20.2133 12.4111 20.3044 12.0128C20.5725 10.8402 20.5565 9.62542 20.2639 8.46807ZM10.091 16.7229C9.74614 15.1902 9.70447 13.6069 9.96595 12.062C7.89701 12.3772 5.87463 11.8116 3.99819 11.1741C3.62266 12.2647 3.45815 13.4177 3.51445 14.5715L3.51458 14.5742C3.53417 15.0082 3.64082 15.4337 3.82819 15.8257C4.01557 16.2176 4.27983 16.5678 4.60528 16.8556C4.93073 17.1433 5.31071 17.3627 5.72263 17.5006C6.13149 17.6375 6.56353 17.6914 6.99343 17.6592C8.07718 17.5443 9.12786 17.226 10.091 16.7229ZM8.99201 8.58112C9.19513 8.58112 9.35979 8.41646 9.35979 8.21334C9.35979 8.01023 9.19513 7.84557 8.99201 7.84557C8.78889 7.84557 8.62423 8.01023 8.62423 8.21334C8.62423 8.41646 8.78889 8.58112 8.99201 8.58112ZM7.85979 8.21334C7.85979 7.58803 8.3667 7.08112 8.99201 7.08112C9.61732 7.08112 10.1242 7.58804 10.1242 8.21334C10.1242 8.83865 9.61732 9.34557 8.99201 9.34557C8.3667 9.34557 7.85979 8.83865 7.85979 8.21334ZM9.24445 19.0278C9.65867 19.0278 9.99445 19.3636 9.99445 19.7778V22C9.99445 22.4142 9.65867 22.75 9.24445 22.75C8.83024 22.75 8.49445 22.4142 8.49445 22V19.7778C8.49445 19.3636 8.83024 19.0278 9.24445 19.0278Z" fill="currentColor"/>
</svg>
