<svg width="24" height="24" viewBox="0 0 24 24" fill="none" xmlns="http://www.w3.org/2000/svg">
<path fill-rule="evenodd" clip-rule="evenodd" d="M4.56382 2.47888C5.14676 2.46894 5.72773 2.54898 6.28624 2.71618C7.57931 3.13359 8.70572 3.95234 9.50183 5.05362C10.2993 6.15683 10.7237 7.48589 10.713 8.84713V9.39199C10.713 9.54953 10.7626 9.70306 10.8548 9.83082L12.8548 12.6028C12.8601 12.6102 12.8655 12.6174 12.8711 12.6246C12.8893 12.648 12.9016 12.6754 12.9068 12.7046C12.912 12.7338 12.9101 12.7638 12.9012 12.7921C12.8922 12.8204 12.8766 12.846 12.8555 12.8669C12.8403 12.8819 12.8227 12.8942 12.8034 12.9031L11.3513 13.1825C10.9592 13.258 10.695 13.6273 10.7502 14.0227L10.8235 14.547C9.68028 14.419 8.66887 14.976 8.26931 15.8435C7.98017 16.4713 8.05364 17.2345 8.64888 17.7951C9.03752 18.1611 9.59425 18.3893 10.287 18.4895C10.2393 18.6909 10.1783 18.8875 10.0983 19.0576C10.0071 19.2514 9.92038 19.3455 9.8621 19.3851C9.83263 19.4051 9.78675 19.4313 9.6746 19.4144L8.20258 18.8974C8.176 18.888 8.14892 18.8802 8.12147 18.8739C7.82711 18.8065 7.52068 18.8127 7.22928 18.8918C6.93786 18.971 6.67044 19.1207 6.45066 19.3278C6.23088 19.5349 6.06551 19.7929 5.96917 20.0791C5.87283 20.3653 5.84842 20.6709 5.89823 20.9687L6.11013 22.1342C6.18422 22.5417 6.57466 22.812 6.98219 22.7379C7.38972 22.6638 7.66003 22.2734 7.58593 21.8658L7.37715 20.7175C7.36881 20.6639 7.37348 20.6091 7.39079 20.5577C7.4085 20.5051 7.43891 20.4576 7.47933 20.4195C7.51975 20.3814 7.56893 20.3539 7.62251 20.3394C7.66633 20.3274 7.71199 20.3245 7.75677 20.3306L9.23148 20.8486C9.26195 20.8593 9.29308 20.868 9.32467 20.8747C9.84004 20.9838 10.3134 20.8914 10.7039 20.6266C11.0689 20.3791 11.3024 20.0217 11.4555 19.6962C11.7572 19.0551 11.8592 18.2879 11.9083 17.8912C11.9347 17.6781 11.8685 17.4639 11.7264 17.3028C11.5844 17.1418 11.3801 17.0494 11.1653 17.049C10.2213 17.0474 9.81414 16.832 9.6773 16.7032C9.61812 16.6474 9.60907 16.6099 9.60653 16.5948C9.60316 16.5749 9.60264 16.5342 9.63174 16.471C9.75505 16.2033 10.4021 15.7278 11.3568 16.2794C11.6051 16.4228 11.9133 16.4122 12.1511 16.252C12.3888 16.0918 12.5145 15.8102 12.4748 15.5262L12.3344 14.5208L13.1418 14.3655C13.1681 14.3604 13.1941 14.3539 13.2198 14.3461C13.4805 14.2662 13.7179 14.1242 13.9115 13.9322C14.1052 13.7402 14.2493 13.5041 14.3314 13.2441C14.4136 12.9841 14.4314 12.708 14.3832 12.4397C14.336 12.1764 14.2267 11.9282 14.0645 11.7157L12.213 9.14967V8.85585C12.2255 7.17612 11.7016 5.53621 10.7175 4.17485C9.73275 2.81267 8.33876 1.80055 6.73863 1.286L6.72501 1.28176C6.01609 1.06858 5.27842 0.966477 4.53824 0.9791C4.12409 0.986163 3.79407 1.32763 3.80114 1.74178C3.8082 2.15593 4.14966 2.48594 4.56382 2.47888ZM18.2633 16.0704C18.6755 16.03 18.9769 15.663 18.9365 15.2508C18.896 14.8385 18.529 14.5371 18.1168 14.5776L15.1918 14.8646C14.7796 14.905 14.4782 15.272 14.5186 15.6842C14.5591 16.0965 14.926 16.3979 15.3383 16.3574L18.2633 16.0704ZM14.8964 17.7803C14.9923 17.3774 15.3967 17.1285 15.7997 17.2244L19.6227 18.1344C20.0257 18.2303 20.2746 18.6347 20.1786 19.0377C20.0827 19.4406 19.6783 19.6895 19.2754 19.5936L15.4524 18.6836C15.0494 18.5877 14.8005 18.1833 14.8964 17.7803ZM14.5465 19.2665C14.1966 19.0448 13.7333 19.1486 13.5115 19.4985C13.2898 19.8484 13.3937 20.3118 13.7435 20.5335L16.2255 22.1065C16.5754 22.3282 17.0388 22.2243 17.2605 21.8745C17.4822 21.5246 17.3784 21.0612 17.0285 20.8395L14.5465 19.2665ZM7.42693 8.79289C7.61446 8.60536 7.86882 8.5 8.13403 8.5C8.39925 8.5 8.6536 8.60536 8.84114 8.79289C9.02868 8.98043 9.13403 9.23479 9.13403 9.5C9.13403 9.76521 9.02868 10.0196 8.84114 10.2071C8.6536 10.3946 8.39925 10.5 8.13403 10.5C7.86882 10.5 7.61446 10.3946 7.42693 10.2071C7.23939 10.0196 7.13403 9.76522 7.13403 9.5C7.13403 9.23478 7.23939 8.98043 7.42693 8.79289Z" fill="currentColor"/>
</svg>
