<svg width="24" height="24" viewBox="0 0 24 24" fill="none" xmlns="http://www.w3.org/2000/svg">
<path fill-rule="evenodd" clip-rule="evenodd" d="M5.545 7.08123C4.54592 6.45681 3.25 7.17508 3.25 8.35323V15.6469C3.25 16.825 4.54593 17.5433 5.545 16.9189L11.3799 13.272C12.3199 12.6845 12.3199 11.3155 11.3799 10.728L5.545 7.08123ZM4.75 8.35323L10.5849 12L4.75 15.6469V8.35323Z" fill="currentColor"/>
<path fill-rule="evenodd" clip-rule="evenodd" d="M15.545 7.08123C14.5459 6.45681 13.25 7.17508 13.25 8.35323V15.6469C13.25 16.825 14.5459 17.5433 15.545 16.9189L21.3799 13.272C22.3199 12.6845 22.3199 11.3155 21.3799 10.728L15.545 7.08123ZM14.75 8.35323L20.5849 12L14.75 15.6469V8.35323Z" fill="currentColor"/>
</svg>
