<svg width="24" height="24" viewBox="0 0 24 24" fill="none" xmlns="http://www.w3.org/2000/svg">
<path fill-rule="evenodd" clip-rule="evenodd" d="M4.25 3.75C4.25 2.92157 4.92157 2.25 5.75 2.25H14.6893C15.0872 2.25 15.4687 2.40803 15.75 2.68934L19.3107 6.25C19.592 6.5313 19.75 6.91284 19.75 7.31066V20.25C19.75 21.0784 19.0784 21.75 18.25 21.75H5.75C4.92157 21.75 4.25 21.0784 4.25 20.25V3.75ZM14.6893 3.75L5.75 3.75V20.25H18.25V7.31066L14.6893 3.75Z" fill="currentColor"/>
<path fill-rule="evenodd" clip-rule="evenodd" d="M12.25 14.25C12.6642 14.25 13 14.5858 13 15V16C13 16.4142 12.6642 16.75 12.25 16.75C11.8358 16.75 11.5 16.4142 11.5 16V15C11.5 14.5858 11.8358 14.25 12.25 14.25Z" fill="currentColor"/>
<path fill-rule="evenodd" clip-rule="evenodd" d="M12.25 7.25C12.6642 7.25 13 7.58579 13 8V9C13 9.41421 12.6642 9.75 12.25 9.75C11.8358 9.75 11.5 9.41421 11.5 9V8C11.5 7.58579 11.8358 7.25 12.25 7.25Z" fill="currentColor"/>
<path fill-rule="evenodd" clip-rule="evenodd" d="M10.1676 8.98624C10.6443 8.52764 11.3431 8.25 12.25 8.25C13.3315 8.25 14.0903 8.68854 14.5335 9.13841C14.8242 9.43349 14.8207 9.90835 14.5256 10.199C14.2305 10.4897 13.7556 10.4862 13.4649 10.1911C13.281 10.0044 12.8986 9.75 12.25 9.75C11.6569 9.75 11.3557 9.92473 11.2074 10.0673C11.0475 10.2212 11 10.3985 11 10.5C11 10.6015 11.0475 10.7788 11.2074 10.9327C11.3557 11.0753 11.6569 11.25 12.25 11.25C13.1525 11.25 13.8516 11.5205 14.3304 11.9775C14.7995 12.4254 15 13.0003 15 13.5C15 13.9997 14.7995 14.5746 14.3304 15.0225C13.8516 15.4795 13.1525 15.75 12.25 15.75C10.7535 15.75 9.86722 14.9115 9.57918 14.3354C9.39394 13.9649 9.54411 13.5144 9.91459 13.3292C10.2851 13.1439 10.7356 13.2941 10.9208 13.6646C10.9661 13.7552 11.3465 14.25 12.25 14.25C12.8475 14.25 13.1484 14.0771 13.2946 13.9375C13.4505 13.7887 13.5 13.6136 13.5 13.5C13.5 13.3864 13.4505 13.2113 13.2946 13.0625C13.1484 12.9229 12.8475 12.75 12.25 12.75C11.3431 12.75 10.6443 12.4724 10.1676 12.0138C9.70252 11.5664 9.5 10.9938 9.5 10.5C9.5 10.0062 9.70252 9.43357 10.1676 8.98624Z" fill="currentColor"/>
</svg>
