<svg width="24" height="24" viewBox="0 0 24 24" fill="none" xmlns="http://www.w3.org/2000/svg">
<path fill-rule="evenodd" clip-rule="evenodd" d="M4.25 3.75C4.25 2.92157 4.92157 2.25 5.75 2.25H14.6893C15.0872 2.25 15.4687 2.40803 15.75 2.68934L19.3107 6.25C19.592 6.5313 19.75 6.91284 19.75 7.31066V20.25C19.75 21.0784 19.0784 21.75 18.25 21.75H5.75C4.92157 21.75 4.25 21.0784 4.25 20.25V3.75ZM14.6893 3.75L5.75 3.75V20.25H18.25V7.31066L14.6893 3.75Z" fill="currentColor"/>
<path d="M11 9H13V17H11V9Z" fill="currentColor"/>
<path d="M16 12V14H8V12H16Z" fill="currentColor"/>
</svg>
