<svg width="24" height="24" viewBox="0 0 24 24" fill="none" xmlns="http://www.w3.org/2000/svg">
<path fill-rule="evenodd" clip-rule="evenodd" d="M4.25 3.75C4.25 2.92157 4.92157 2.25 5.75 2.25H14.6893C15.0872 2.25 15.4687 2.40803 15.75 2.68934L19.3107 6.25C19.592 6.5313 19.75 6.91284 19.75 7.31066V8.5C19.75 8.91421 19.4142 9.25 19 9.25C18.5858 9.25 18.25 8.91421 18.25 8.5V7.31066L14.6893 3.75L5.75 3.75V20.25H8C8.41421 20.25 8.75 20.5858 8.75 21C8.75 21.4142 8.41421 21.75 8 21.75H5.75C4.92157 21.75 4.25 21.0784 4.25 20.25V3.75Z" fill="currentColor"/>
<path fill-rule="evenodd" clip-rule="evenodd" d="M18.2197 11.7197C19.2029 10.7364 20.7971 10.7364 21.7803 11.7197C22.7636 12.7029 22.7636 14.2971 21.7803 15.2803L15.0303 22.0303C14.9402 22.1205 14.8286 22.1861 14.706 22.2211L11.206 23.2211C10.9441 23.296 10.6623 23.2229 10.4697 23.0303C10.2771 22.8377 10.204 22.5559 10.2789 22.294L11.2789 18.794C11.3139 18.6714 11.3795 18.5598 11.4697 18.4697L18.2197 11.7197ZM20.7197 12.7803C20.3222 12.3829 19.6778 12.3829 19.2803 12.7803L12.6678 19.3929L12.092 21.408L14.1071 20.8322L20.7197 14.2197C21.1171 13.8222 21.1171 13.1778 20.7197 12.7803Z" fill="currentColor"/>
<path fill-rule="evenodd" clip-rule="evenodd" d="M7.25 10C7.25 9.58579 7.58579 9.25 8 9.25H16C16.4142 9.25 16.75 9.58579 16.75 10C16.75 10.4142 16.4142 10.75 16 10.75H8C7.58579 10.75 7.25 10.4142 7.25 10Z" fill="currentColor"/>
<path fill-rule="evenodd" clip-rule="evenodd" d="M7.25 13C7.25 12.5858 7.58579 12.25 8 12.25H13.5C13.9142 12.25 14.25 12.5858 14.25 13C14.25 13.4142 13.9142 13.75 13.5 13.75H8C7.58579 13.75 7.25 13.4142 7.25 13Z" fill="currentColor"/>
<path fill-rule="evenodd" clip-rule="evenodd" d="M7.25 16C7.25 15.5858 7.58579 15.25 8 15.25H11C11.4142 15.25 11.75 15.5858 11.75 16C11.75 16.4142 11.4142 16.75 11 16.75H8C7.58579 16.75 7.25 16.4142 7.25 16Z" fill="currentColor"/>
</svg>
