<svg width="24" height="24" viewBox="0 0 24 24" fill="none" xmlns="http://www.w3.org/2000/svg">
<path fill-rule="evenodd" clip-rule="evenodd" d="M4.25 3.75C4.25 2.92157 4.92157 2.25 5.75 2.25H14.6893C15.0872 2.25 15.4687 2.40803 15.75 2.68934L19.3107 6.25C19.592 6.5313 19.75 6.91284 19.75 7.31066V8.5C19.75 8.91421 19.4142 9.25 19 9.25C18.5858 9.25 18.25 8.91421 18.25 8.5V7.31066L14.6893 3.75L5.75 3.75V20.25H10C10.4142 20.25 10.75 20.5858 10.75 21C10.75 21.4142 10.4142 21.75 10 21.75H5.75C4.92157 21.75 4.25 21.0784 4.25 20.25V3.75Z" fill="currentColor"/>
<path fill-rule="evenodd" clip-rule="evenodd" d="M17.5 12.75C15.1528 12.75 13.25 14.6528 13.25 17C13.25 19.3472 15.1528 21.25 17.5 21.25C19.8472 21.25 21.75 19.3472 21.75 17C21.75 14.6528 19.8472 12.75 17.5 12.75ZM11.75 17C11.75 13.8244 14.3244 11.25 17.5 11.25C20.6756 11.25 23.25 13.8244 23.25 17C23.25 20.1756 20.6756 22.75 17.5 22.75C14.3244 22.75 11.75 20.1756 11.75 17Z" fill="currentColor"/>
<path fill-rule="evenodd" clip-rule="evenodd" d="M20.2803 14.9697C20.5732 15.2626 20.5732 15.7374 20.2803 16.0303L17.2803 19.0303C16.9874 19.3232 16.5126 19.3232 16.2197 19.0303L14.7197 17.5303C14.4268 17.2374 14.4268 16.7626 14.7197 16.4697C15.0126 16.1768 15.4874 16.1768 15.7803 16.4697L16.75 17.4393L19.2197 14.9697C19.5126 14.6768 19.9874 14.6768 20.2803 14.9697Z" fill="currentColor"/>
</svg>
