<svg width="24" height="24" viewBox="0 0 24 24" fill="none" xmlns="http://www.w3.org/2000/svg">
<path fill-rule="evenodd" clip-rule="evenodd" d="M4.25 3.75C4.25 2.92157 4.92157 2.25 5.75 2.25H14.6893C15.0872 2.25 15.4687 2.40803 15.75 2.68934L19.3107 6.25C19.592 6.5313 19.75 6.91284 19.75 7.31066V20.25C19.75 21.0784 19.0784 21.75 18.25 21.75H5.75C4.92157 21.75 4.25 21.0784 4.25 20.25V3.75ZM14.6893 3.75L5.75 3.75V20.25H18.25V7.31066L14.6893 3.75Z" fill="currentColor"/>
<path fill-rule="evenodd" clip-rule="evenodd" d="M7 12C7 11.7239 7.22386 11.5 7.5 11.5H8C9.10457 11.5 10 12.3954 10 13.5C10 14.6046 9.10457 15.5 8 15.5V17C8 17.2761 7.77614 17.5 7.5 17.5C7.22386 17.5 7 17.2761 7 17V12ZM8 14.5C8.55228 14.5 9 14.0523 9 13.5C9 12.9477 8.55228 12.5 8 12.5V14.5Z" fill="currentColor"/>
<path fill-rule="evenodd" clip-rule="evenodd" d="M14.5 13.75C14.5 12.5074 15.5074 11.5 16.75 11.5H17C17.2761 11.5 17.5 11.7239 17.5 12C17.5 12.2761 17.2761 12.5 17 12.5H16.75C16.0596 12.5 15.5 13.0596 15.5 13.75V14.5H17C17.2761 14.5 17.5 14.7239 17.5 15C17.5 15.2761 17.2761 15.5 17 15.5H15.5V17C15.5 17.2761 15.2761 17.5 15 17.5C14.7239 17.5 14.5 17.2761 14.5 17V13.75Z" fill="currentColor"/>
<path fill-rule="evenodd" clip-rule="evenodd" d="M10.75 12C10.75 11.7239 10.9739 11.5 11.25 11.5H11.5C12.7426 11.5 13.75 12.5074 13.75 13.75V15.25C13.75 16.4926 12.7426 17.5 11.5 17.5H11.25C10.9739 17.5 10.75 17.2761 10.75 17V12ZM11.75 12.525V16.475C12.3206 16.3592 12.75 15.8547 12.75 15.25V13.75C12.75 13.1453 12.3206 12.6409 11.75 12.525Z" fill="currentColor"/>
</svg>
