<svg width="24" height="24" viewBox="0 0 24 24" fill="none" xmlns="http://www.w3.org/2000/svg">
<path d="M4.25 3.75C4.25 2.92157 4.92157 2.25 5.75 2.25H14.6893C15.0872 2.25 15.4687 2.40803 15.75 2.68934L19.3107 6.25C19.592 6.5313 19.75 6.91284 19.75 7.31066V8.5C19.75 8.91421 19.4142 9.25 19 9.25C18.5858 9.25 18.25 8.91421 18.25 8.5V7.31066L14.6893 3.75L5.75 3.75V20.25H8C8.41421 20.25 8.75 20.5858 8.75 21C8.75 21.4142 8.41421 21.75 8 21.75H5.75C4.92157 21.75 4.25 21.0784 4.25 20.25V3.75Z" fill="currentColor"/>
<path fill-rule="evenodd" clip-rule="evenodd" d="M10.1024 9.05098C10.0934 9.05909 10.0847 9.06745 10.0761 9.07606C10.0676 9.0845 10.0594 9.09309 10.0515 9.10182L8.00592 11.1454C7.52208 11.6292 7.25 12.2857 7.25 12.97C7.25 13.6542 7.52182 14.3105 8.00566 14.7943C8.4895 15.2782 9.14574 15.55 9.82999 15.55C10.5141 15.55 11.1702 15.2783 11.6541 14.7946L15.7981 10.6546C16.0376 10.415 16.2279 10.1303 16.3576 9.81731C16.4873 9.50429 16.554 9.1688 16.554 8.82999C16.554 8.49118 16.4873 8.15569 16.3576 7.84267C16.2279 7.52965 16.0379 7.24524 15.7983 7.00566C15.5587 6.76609 15.2743 6.57605 14.9613 6.44639C14.6483 6.31673 14.3128 6.25 13.974 6.25C13.6352 6.25 13.2997 6.31673 12.9867 6.44639C12.6737 6.57605 12.3892 6.76609 12.1497 7.00566L10.1024 9.05098ZM13.974 7.75C13.8322 7.75 13.6917 7.77793 13.5607 7.83221C13.4297 7.88648 13.3106 7.96604 13.2103 8.06632L11.6679 9.60725L13.1952 11.1346L14.7377 9.59366C14.8378 9.49343 14.9175 9.37421 14.9718 9.24329C15.026 9.11226 15.054 8.97182 15.054 8.82999C15.054 8.68816 15.026 8.54773 14.9718 8.4167C14.9175 8.28567 14.8379 8.16661 14.7377 8.06632C14.6374 7.96604 14.5183 7.88648 14.3873 7.83221C14.2563 7.77794 14.1158 7.75 13.974 7.75ZM12.1341 12.1947L10.6067 10.6674L9.06632 12.2063C8.86378 12.4089 8.75 12.6836 8.75 12.97C8.75 13.2564 8.86378 13.5311 9.06632 13.7337C9.26886 13.9362 9.54356 14.05 9.82999 14.05C10.1164 14.05 10.3911 13.9362 10.5937 13.7337L12.1341 12.1947Z" fill="currentColor"/>
<path fill-rule="evenodd" clip-rule="evenodd" d="M21.7803 11.7196C20.7971 10.7364 19.2029 10.7364 18.2197 11.7196L11.4697 18.4696C11.3796 18.5597 11.3139 18.6714 11.2789 18.7939L10.2789 22.2939C10.204 22.5558 10.2771 22.8377 10.4697 23.0303C10.6623 23.2229 10.9442 23.2959 11.2061 23.2211L14.7061 22.2211C14.8286 22.1861 14.9402 22.1204 15.0303 22.0303L21.7803 15.2803C22.7636 14.297 22.7636 12.7029 21.7803 11.7196ZM19.2803 12.7803C19.6778 12.3828 20.3222 12.3828 20.7197 12.7803C21.1171 13.1777 21.1172 13.8222 20.7197 14.2196L14.1071 20.8322L12.092 21.4079L12.6678 19.3929L19.2803 12.7803Z" fill="currentColor"/>
</svg>
