<svg width="24" height="24" viewBox="0 0 24 24" fill="none" xmlns="http://www.w3.org/2000/svg">
<path fill-rule="evenodd" clip-rule="evenodd" d="M16.4702 1.64486C17.4464 1.18907 18.5631 1.13752 19.5771 1.50144C20.5911 1.86537 21.4202 2.61527 21.8838 3.58777C22.3474 4.56027 22.4078 5.67656 22.052 6.69343C21.6961 7.7103 20.9529 8.54535 19.9841 9.01664L19.9788 9.01922L14.3842 11.6867C14.3842 11.6867 14.3842 11.6867 14.3842 11.6867C14.1372 11.8045 13.8693 11.8725 13.596 11.8868C13.3227 11.9011 13.0492 11.8613 12.7913 11.7699C12.5333 11.6784 12.2959 11.5371 12.0926 11.3538C11.8893 11.1706 11.7241 10.9491 11.6064 10.702L11.0685 9.57331L9.16011 10.4832C8.78622 10.6615 8.33861 10.5029 8.16034 10.129C7.98207 9.7551 8.14065 9.30749 8.51454 9.12922L10.4231 8.21924L9.8857 7.09173C9.76789 6.8447 9.6999 6.57687 9.68563 6.30355C9.67135 6.03023 9.71108 5.75678 9.80253 5.49882C9.89397 5.24085 10.0354 5.00344 10.2186 4.80013C10.4018 4.5969 10.6232 4.43173 10.8702 4.31407C10.8701 4.31411 10.8703 4.31403 10.8702 4.31407L16.4702 1.64486ZM12.1102 8.27265C12.107 8.26526 12.1036 8.25788 12.1001 8.25054C12.0966 8.24326 12.093 8.23607 12.0894 8.22896L11.2397 6.44619C11.2067 6.37702 11.1876 6.30186 11.1836 6.22533C11.1796 6.1488 11.1907 6.07223 11.2163 6C11.2419 5.92778 11.2815 5.8613 11.3328 5.80437C11.3841 5.74745 11.4461 5.70119 11.5153 5.66824L17.1074 3.00282C17.7243 2.71556 18.4298 2.68335 19.0704 2.91327C19.712 3.14351 20.2365 3.61793 20.5298 4.23319C20.823 4.84845 20.8613 5.55467 20.6361 6.198C20.4113 6.84047 19.942 7.36821 19.3303 7.66659C19.3295 7.66699 19.3287 7.66738 19.3279 7.66778L13.7385 10.3328C13.6694 10.3658 13.5943 10.3848 13.5178 10.3888C13.4412 10.3928 13.3647 10.3817 13.2924 10.3561C13.2202 10.3305 13.1537 10.2909 13.0968 10.2396C13.0399 10.1883 12.9936 10.1263 12.9607 10.0571L12.1102 8.27265ZM16.3392 4.16648C16.4775 3.77604 16.9062 3.57162 17.2966 3.70991L19.0735 4.33924C19.261 4.40566 19.4145 4.54387 19.5001 4.72346C19.5857 4.90304 19.5965 5.10929 19.53 5.2968L18.8998 7.07458C18.7614 7.46499 18.3327 7.66928 17.9423 7.53088C17.5519 7.39248 17.3476 6.9638 17.486 6.57339L17.8655 5.50271L16.7958 5.12384C16.4054 4.98556 16.201 4.55693 16.3392 4.16648ZM14.8897 4.85665C15.2801 4.99505 15.4844 5.42373 15.346 5.81414L14.9663 6.88513L16.0365 7.26469C16.4269 7.40315 16.6311 7.83186 16.4926 8.22225C16.3542 8.61264 15.9254 8.81686 15.5351 8.6784L13.7582 8.04818C13.3678 7.90973 13.1636 7.48109 13.302 7.09073L13.9322 5.31295C14.0706 4.92254 14.4993 4.71825 14.8897 4.85665ZM6.88799 12.75C6.73328 12.75 6.58491 12.8114 6.47551 12.9208C6.36611 13.0302 6.30466 13.1786 6.30466 13.3333V18C6.30466 18.2599 6.17007 18.5013 5.94895 18.638C5.72784 18.7746 5.45174 18.7871 5.21925 18.6708L4.17569 18.149C4.08124 18.1017 3.97703 18.0761 3.87142 18.0744C3.76582 18.0726 3.66116 18.0946 3.56518 18.1387C3.46921 18.1828 3.38438 18.248 3.31695 18.3293C3.24952 18.4106 3.20122 18.506 3.17562 18.6085C3.14289 18.7396 3.14848 18.8773 3.19172 19.0053C3.23496 19.1334 3.31405 19.2463 3.41959 19.3308L6.02327 21.4144C6.34668 21.6732 6.39904 22.1452 6.14023 22.4686C5.88142 22.792 5.40944 22.8444 5.08604 22.5856L2.48261 20.5021C2.15282 20.2383 1.90569 19.8854 1.77057 19.4853C1.63544 19.0852 1.61801 18.6547 1.72034 18.2449C1.80041 17.9245 1.95148 17.626 2.16235 17.3717C2.37321 17.1175 2.63851 16.9138 2.93865 16.7758C3.23877 16.6379 3.56607 16.5691 3.89636 16.5746C4.21099 16.5798 4.52067 16.6523 4.80466 16.787V13.3333C4.80466 12.7808 5.02415 12.2509 5.41485 11.8602C5.80555 11.4695 6.33545 11.25 6.88799 11.25C7.44052 11.25 7.97043 11.4695 8.36113 11.8602C8.75183 12.2509 8.97132 12.7808 8.97132 13.3333V15.3646L10.1161 15.5553C10.9139 15.6882 11.6387 16.0998 12.1615 16.7169C12.6843 17.334 12.9713 18.1165 12.9713 18.9253V22C12.9713 22.4142 12.6355 22.75 12.2213 22.75C11.8071 22.75 11.4713 22.4142 11.4713 22V18.9254C11.4713 18.9254 11.4713 18.9254 11.4713 18.9254C11.4713 18.4717 11.3103 18.0327 11.017 17.6865C10.7237 17.3404 10.3172 17.1095 9.86964 17.0349C9.86963 17.0349 9.86964 17.0349 9.86964 17.0349L8.09808 16.7398C7.73641 16.6795 7.47132 16.3666 7.47132 16V13.3333C7.47132 13.1786 7.40986 13.0302 7.30047 12.9208C7.19107 12.8114 7.0427 12.75 6.88799 12.75Z" fill="currentColor"/>
</svg>
