<svg width="24" height="24" viewBox="0 0 24 24" fill="none" xmlns="http://www.w3.org/2000/svg">
<path fill-rule="evenodd" clip-rule="evenodd" d="M15.8049 2.82939C15.6158 2.75105 15.4071 2.73314 15.2075 2.77812C15.0078 2.82309 14.827 2.92875 14.6898 3.0806L14.6877 3.08297L13.8497 4.00244L13.848 4.00428C13.6149 4.26255 13.3302 4.46909 13.0123 4.61058C12.6937 4.7524 12.3488 4.82568 12 4.82568C11.6512 4.82568 11.3063 4.7524 10.9877 4.61058C10.6694 4.46892 10.3844 4.26206 10.1512 4.00335L10.1503 4.00244L9.31719 3.08245C9.17997 2.9318 8.99917 2.82658 8.80029 2.78209C8.60119 2.73755 8.39319 2.75552 8.20468 2.83356C8.01617 2.9116 7.85633 3.0459 7.74697 3.21814C7.63762 3.39036 7.58407 3.59212 7.59362 3.7959L7.65305 5.03859C7.67137 5.38662 7.61644 5.73464 7.4918 6.06012C7.36689 6.3863 7.17477 6.68257 6.92791 6.92967C6.68105 7.17677 6.38497 7.36918 6.05891 7.4944C5.73303 7.61956 5.38448 7.6748 5.03587 7.65655L3.79441 7.59359C3.59094 7.58406 3.38851 7.63746 3.2165 7.7466C3.04422 7.85591 2.9099 8.01576 2.8319 8.20429C2.75391 8.39283 2.73604 8.60086 2.78075 8.79993C2.82546 8.99901 2.93056 9.17941 3.08168 9.3165L4.00583 10.1554C4.2642 10.389 4.47145 10.6747 4.61286 10.993C4.75439 11.3116 4.82752 11.6563 4.82752 12.0049C4.82752 12.3535 4.75439 12.6982 4.61286 13.0168C4.47132 13.3353 4.26453 13.6207 4.00583 13.8543L3.08107 14.6894C2.9295 14.8266 2.82404 15.0074 2.77929 15.2069C2.73454 15.4065 2.75264 15.615 2.83113 15.8038C2.90961 15.9927 3.04462 16.1526 3.21762 16.2616C3.39062 16.3706 3.59313 16.4235 3.79735 16.4128L5.04236 16.3497C5.39032 16.3318 5.7387 16.3872 6.06392 16.5122C6.3893 16.6373 6.68481 16.8293 6.93131 17.0758C7.17781 17.3223 7.36981 17.6178 7.4949 17.9432C7.61998 18.2686 7.67536 18.6166 7.65745 18.9648L7.59366 20.205L7.59357 20.2068C7.58464 20.4099 7.63836 20.6109 7.74748 20.7824C7.85692 20.9545 8.01677 21.0886 8.20523 21.1665C8.39369 21.2444 8.60159 21.2623 8.80059 21.2178C8.99932 21.1733 9.17952 21.0686 9.31668 20.9181M9.31668 20.9181L10.1553 19.9943L10.1562 19.9933C10.3896 19.7351 10.6746 19.5286 10.9927 19.3872C11.3112 19.2457 11.6559 19.1725 12.0044 19.1725C12.353 19.1725 12.6977 19.2457 13.0162 19.3872C13.3346 19.5287 13.6197 19.7354 13.8533 19.994L14.6865 20.9158L14.6879 20.9173C14.8252 21.0666 15.005 21.1703 15.203 21.2142C15.4018 21.2583 15.6092 21.2401 15.7973 21.1622C15.9853 21.0842 16.1448 20.9503 16.2541 20.7786C16.363 20.6074 16.4168 20.4069 16.4082 20.2043L16.4081 20.2023L16.3452 18.963C16.3274 18.615 16.3827 18.2666 16.5078 17.9414C16.6329 17.616 16.8249 17.3205 17.0714 17.074C17.3179 16.8275 17.6134 16.6355 17.9387 16.5104C18.264 16.3854 18.6118 16.33 18.9598 16.3479L20.2042 16.411C20.4086 16.4214 20.6113 16.3683 20.7843 16.259C20.9573 16.1496 21.0923 15.9895 21.1706 15.8004C21.249 15.6114 21.2669 15.4027 21.2219 15.203C21.1769 15.0035 21.0714 14.8228 20.9197 14.6857L19.9936 13.8502C19.7349 13.6166 19.5278 13.3309 19.3863 13.0123C19.2447 12.6938 19.1716 12.349 19.1716 12.0004C19.1716 11.6519 19.2447 11.3071 19.3863 10.9886C19.5278 10.67 19.7346 10.3847 19.9933 10.151L20.9193 9.31558C21.071 9.17847 21.1767 8.99774 21.2217 8.79829C21.2667 8.59881 21.2489 8.39029 21.1707 8.20131C21.0926 8.01233 20.9579 7.85214 20.7852 7.7427C20.6125 7.63333 20.4103 7.57998 20.2062 7.58996L18.961 7.65311C18.6136 7.67007 18.2665 7.61407 17.9421 7.48873C17.6176 7.36338 17.323 7.17147 17.0773 6.92535C16.8315 6.67923 16.64 6.38436 16.5152 6.05974C16.3903 5.73511 16.3348 5.38793 16.3523 5.04056L16.4154 3.79579C16.4258 3.59141 16.3727 3.38866 16.2634 3.21566C16.1541 3.04266 15.9939 2.90773 15.8049 2.82939M14.8778 1.31479C15.3795 1.20176 15.9039 1.24677 16.3791 1.44365C16.8542 1.64052 17.2567 1.97961 17.5315 2.41438C17.8062 2.84911 17.9396 3.35819 17.9135 3.87177M17.9135 3.87177L17.8504 5.11589C17.8435 5.25393 17.8655 5.39221 17.9152 5.52121C17.9648 5.65031 18.041 5.76758 18.1387 5.86547C18.2365 5.96335 18.3536 6.03967 18.4826 6.08952C18.6115 6.1393 18.7493 6.16157 18.8873 6.15492L20.132 6.0918C20.6453 6.06649 21.1538 6.20055 21.588 6.4756C22.0221 6.75064 22.3605 7.15322 22.5569 7.62814C22.7533 8.10307 22.798 8.6271 22.6849 9.12843C22.5718 9.62976 22.3064 10.0838 21.9251 10.4284L20.9987 11.2641C20.8957 11.3572 20.8134 11.4708 20.757 11.5976C20.7007 11.7244 20.6716 11.8617 20.6716 12.0004C20.6716 12.1392 20.7007 12.2765 20.757 12.4033C20.8134 12.5301 20.8957 12.6437 20.9987 12.7367L21.9246 13.572C22.3062 13.9168 22.5722 14.3716 22.6852 14.8734C22.7982 15.3751 22.7532 15.8995 22.5564 16.3746C22.3595 16.8497 22.0204 17.2523 21.5856 17.527C21.1509 17.8017 20.6418 17.9352 20.1282 17.909L18.8838 17.8459C18.7453 17.8388 18.6064 17.8608 18.477 17.9105C18.3476 17.9603 18.23 18.0367 18.132 18.1347C18.034 18.2327 17.9576 18.3502 17.9079 18.4796C17.8581 18.609 17.8361 18.7475 17.8432 18.8859L17.9066 20.1355C17.9294 20.6466 17.7943 21.1522 17.5196 21.5838C17.245 22.0154 16.8442 22.352 16.3716 22.5479C15.899 22.7437 15.3776 22.7894 14.8782 22.6786C14.3788 22.5678 13.9256 22.306 13.5801 21.9287L13.5769 21.9252L12.7405 20.9998C12.6476 20.8969 12.5338 20.8143 12.407 20.758C12.2803 20.7016 12.1431 20.6725 12.0044 20.6725C11.8658 20.6725 11.7286 20.7016 11.6019 20.758C11.4751 20.8143 11.3616 20.8966 11.2687 20.9995L11.2673 21.001L10.4273 21.9263C10.0824 22.3054 9.62849 22.5695 9.12838 22.6815C8.62828 22.7935 8.1058 22.7486 7.63218 22.5528C7.15856 22.357 6.75685 22.0199 6.4818 21.5875C6.20676 21.155 6.07176 20.6483 6.09523 20.1363L6.09543 20.1321L6.15943 18.8877C6.16656 18.7492 6.14453 18.6108 6.09479 18.4814C6.04504 18.352 5.96868 18.2345 5.87065 18.1365C5.77261 18.0384 5.65509 17.9621 5.52569 17.9123C5.39628 17.8626 5.25787 17.8406 5.11942 17.8477L3.87554 17.9108C3.36232 17.9374 2.85259 17.8046 2.41782 17.5306C1.98282 17.2564 1.64334 16.8543 1.446 16.3795C1.24865 15.9047 1.20312 15.3804 1.31565 14.8787C1.42818 14.3769 1.69325 13.9223 2.07448 13.5773L3.00039 12.7412C3.10338 12.6482 3.18571 12.5346 3.24206 12.4078C3.29841 12.2809 3.32752 12.1437 3.32752 12.0049C3.32752 11.8661 3.29841 11.7289 3.24206 11.602C3.18571 11.4752 3.10338 11.3616 3.00039 11.2686L2.999 11.2673L2.07388 10.4275C1.694 10.0828 1.4296 9.62909 1.3172 9.12861C1.20479 8.62804 1.24971 8.10497 1.44582 7.6309C1.64194 7.15683 1.97968 6.75489 2.41287 6.48003C2.84607 6.20517 3.35358 6.07081 3.86603 6.0953L3.86821 6.09541L5.11404 6.15859C5.25276 6.16588 5.39146 6.14392 5.52114 6.09412C5.65081 6.04431 5.76856 5.96779 5.86673 5.86952C5.96491 5.77125 6.04132 5.65343 6.09099 5.52371C6.14067 5.39398 6.1625 5.25526 6.15507 5.11655L6.15484 5.11227L6.0953 3.86694C6.07127 3.35476 6.20583 2.84697 6.48066 2.41411C6.7555 1.98126 7.15719 1.64374 7.63094 1.44762C8.10469 1.2515 8.62741 1.20633 9.12778 1.31827C9.62814 1.43022 10.0818 1.69382 10.4268 2.07311L10.4279 2.07434L11.2648 2.99845C11.3576 3.10146 11.471 3.18381 11.5976 3.24018C11.7243 3.29655 11.8614 3.32568 12 3.32568C12.1386 3.32568 12.2757 3.29655 12.4024 3.24018C12.529 3.18381 12.6424 3.10146 12.7352 2.99846L12.7381 2.99524L13.5768 2.07496L13.578 2.07366C13.9227 1.69276 14.3767 1.4277 14.8778 1.31479M8.64124 8.64213C9.53204 7.75134 10.7402 7.25089 12 7.25089C13.2598 7.25089 14.468 7.75134 15.3588 8.64213C16.2496 9.53293 16.75 10.7411 16.75 12.0009C16.75 13.2607 16.2496 14.4688 15.3588 15.3596C14.468 16.2504 13.2598 16.7509 12 16.7509C10.7402 16.7509 9.53204 16.2504 8.64124 15.3596C7.75044 14.4688 7.25 13.2607 7.25 12.0009C7.25 10.7411 7.75044 9.53293 8.64124 8.64213ZM12 8.75089C11.138 8.75089 10.3114 9.0933 9.7019 9.70279C9.09241 10.3123 8.75 11.1389 8.75 12.0009C8.75 12.8628 9.09241 13.6895 9.7019 14.299C10.3114 14.9085 11.138 15.2509 12 15.2509C12.862 15.2509 13.6886 14.9085 14.2981 14.299C14.9076 13.6895 15.25 12.8628 15.25 12.0009C15.25 11.1389 14.9076 10.3123 14.2981 9.70279C13.6886 9.0933 12.862 8.75089 12 8.75089Z" fill="currentColor"/>
</svg>
