<svg width="24" height="24" viewBox="0 0 24 24" fill="none" xmlns="http://www.w3.org/2000/svg">
<path fill-rule="evenodd" clip-rule="evenodd" d="M22 12C22 6.47715 17.5228 2 12 2C6.47715 2 2 6.47715 2 12C2 17.5228 6.47715 22 12 22C17.5228 22 22 17.5228 22 12ZM14.1939 18.4002C13.3688 20.0504 12.5065 20.5 12 20.5C11.4935 20.5 10.6312 20.0504 9.80611 18.4002C9.56311 17.9142 9.34478 17.3603 9.15932 16.75H14.8407C14.6552 17.3603 14.4369 17.9142 14.1939 18.4002ZM15.2059 15.25H8.79406C8.64726 14.4716 8.5503 13.6328 8.51495 12.75H15.4851C15.4497 13.6328 15.3527 14.4716 15.2059 15.25ZM16.401 16.75C16.064 17.9965 15.5984 19.0836 15.0398 19.9403C16.6824 19.3111 18.08 18.1868 19.05 16.75H16.401ZM19.8565 15.25H16.73C16.8662 14.457 16.9539 13.619 16.9861 12.75H20.4674C20.3906 13.6285 20.1801 14.4686 19.8565 15.25ZM7.26999 15.25C7.1338 14.457 7.04607 13.619 7.01385 12.75H3.53263C3.60943 13.6285 3.81985 14.4686 4.14345 15.25H7.26999ZM4.95002 16.75C5.91997 18.1868 7.31756 19.3111 8.9602 19.9403C8.40161 19.0836 7.93603 17.9965 7.59898 16.75H4.95002ZM15.4851 11.25H8.51495C8.5503 10.3672 8.64726 9.52838 8.79406 8.75H15.2059C15.3527 9.52838 15.4497 10.3672 15.4851 11.25ZM9.80611 5.59975C9.56311 6.08576 9.34478 6.63968 9.15932 7.25H14.8407C14.6552 6.63968 14.4369 6.08576 14.1939 5.59975C13.3688 3.94957 12.5065 3.5 12 3.5C11.4935 3.5 10.6312 3.94957 9.80611 5.59975ZM16.9861 11.25C16.9539 10.381 16.8662 9.543 16.73 8.75H19.8565C20.1801 9.5314 20.3906 10.3715 20.4674 11.25H16.9861ZM16.401 7.25H19.05C18.08 5.81323 16.6824 4.68892 15.0398 4.05969C15.5984 4.91635 16.064 6.00348 16.401 7.25ZM4.95003 7.25H7.59898C7.93603 6.00348 8.40161 4.91635 8.9602 4.05969C7.31756 4.68893 5.91997 5.81323 4.95003 7.25ZM7.26999 8.75H4.14345C3.81985 9.5314 3.60943 10.3715 3.53263 11.25H7.01385C7.04607 10.381 7.1338 9.543 7.26999 8.75Z" fill="currentColor"/>
</svg>
