<svg width="24" height="24" viewBox="0 0 24 24" fill="none" xmlns="http://www.w3.org/2000/svg">
<path fill-rule="evenodd" clip-rule="evenodd" d="M11.7215 4.30364C11.9003 4.23212 12.0997 4.23212 12.2785 4.30364L22.2785 8.30364C22.5633 8.41754 22.75 8.69332 22.75 9C22.75 9.30668 22.5633 9.58246 22.2785 9.69636L17.75 11.5078V17C17.75 17.5133 17.4927 17.9429 17.171 18.2647C16.8483 18.5873 16.4139 18.8529 15.9204 19.0644C14.9302 19.4888 13.5747 19.75 12 19.75C10.4253 19.75 9.06982 19.4888 8.07956 19.0644C7.58614 18.8529 7.15165 18.5873 6.82904 18.2647C6.50726 17.9429 6.25 17.5133 6.25 17V11.5078L3.75 10.5078V16C3.75 16.4142 3.41421 16.75 3 16.75C2.58579 16.75 2.25 16.4142 2.25 16V10C2.25 9.96951 2.25182 9.93945 2.25535 9.90992L1.72146 9.69636C1.43671 9.58246 1.25 9.30668 1.25 9C1.25 8.69332 1.43671 8.41754 1.72146 8.30364L11.7215 4.30364ZM7.75 12.1078L7.75001 17.0003L7.75012 17.0013C7.75012 17.0013 7.75055 17.0043 7.7513 17.0074C7.75279 17.0134 7.75635 17.0249 7.76474 17.0419C7.78205 17.0771 7.81839 17.1327 7.88971 17.204C8.03585 17.3502 8.28886 17.5221 8.67044 17.6856C9.43018 18.0112 10.5747 18.25 12 18.25C13.4253 18.25 14.5698 18.0112 15.3296 17.6856C15.7111 17.5221 15.9642 17.3502 16.1103 17.204C16.1816 17.1327 16.2179 17.0771 16.2353 17.0419C16.2437 17.0249 16.2472 17.0134 16.2487 17.0074L16.2496 17.0034L16.2499 17.0013L16.25 17V12.1078L12.2785 13.6964C12.0997 13.7679 11.9003 13.7679 11.7215 13.6964L7.75 12.1078ZM4.01944 9L12 12.1922L19.9806 9L12 5.80777L4.01944 9Z" fill="currentColor"/>
</svg>
