<svg width="24" height="24" viewBox="0 0 24 24" fill="none" xmlns="http://www.w3.org/2000/svg">
<path fill-rule="evenodd" clip-rule="evenodd" d="M3.25 5C3.25 4.0335 4.0335 3.25 5 3.25H19C19.9665 3.25 20.75 4.0335 20.75 5V19C20.75 19.9665 19.9665 20.75 19 20.75H5C4.0335 20.75 3.25 19.9665 3.25 19V5ZM10.6964 6.72146C10.5779 6.42537 10.2852 6.23655 9.96662 6.25074C9.64804 6.26494 9.37327 6.47904 9.28163 6.78449L7.94198 11.25H7C6.58579 11.25 6.25 11.5858 6.25 12C6.25 12.4142 6.58579 12.75 7 12.75H8.5C8.83121 12.75 9.1232 12.5327 9.21837 12.2155L10.1013 9.27257L13.3036 17.2785C13.4221 17.5746 13.7148 17.7635 14.0334 17.7493C14.352 17.7351 14.6267 17.521 14.7184 17.2155L16.058 12.75H17C17.4142 12.75 17.75 12.4142 17.75 12C17.75 11.5858 17.4142 11.25 17 11.25H15.5C15.1688 11.25 14.8768 11.4673 14.7816 11.7845L13.8987 14.7274L10.6964 6.72146Z" fill="currentColor"/>
</svg>
