<svg width="24" height="24" viewBox="0 0 24 24" fill="none" xmlns="http://www.w3.org/2000/svg">
<path fill-rule="evenodd" clip-rule="evenodd" d="M3.25 5C3.25 4.0335 4.0335 3.25 5 3.25H19C19.9665 3.25 20.75 4.0335 20.75 5V19C20.75 19.9665 19.9665 20.75 19 20.75H5C4.0335 20.75 3.25 19.9665 3.25 19V5ZM5 4.75C4.86193 4.75 4.75 4.86193 4.75 5V19C4.75 19.1381 4.86193 19.25 5 19.25H19C19.1381 19.25 19.25 19.1381 19.25 19V5C19.25 4.86193 19.1381 4.75 19 4.75H5Z" fill="currentColor"/>
<path fill-rule="evenodd" clip-rule="evenodd" d="M9.96662 6.25074C10.2852 6.23655 10.5779 6.42537 10.6964 6.72146L13.8987 14.7274L14.7816 11.7845C14.8768 11.4673 15.1688 11.25 15.5 11.25H17C17.4142 11.25 17.75 11.5858 17.75 12C17.75 12.4142 17.4142 12.75 17 12.75H16.058L14.7184 17.2155C14.6267 17.521 14.352 17.7351 14.0334 17.7493C13.7148 17.7634 13.4221 17.5746 13.3036 17.2785L10.1013 9.27257L9.21837 12.2155C9.1232 12.5327 8.83121 12.75 8.5 12.75H7C6.58579 12.75 6.25 12.4142 6.25 12C6.25 11.5858 6.58579 11.25 7 11.25H7.94198L9.28163 6.78449C9.37327 6.47904 9.64804 6.26494 9.96662 6.25074Z" fill="currentColor"/>
</svg>
