<svg width="24" height="24" viewBox="0 0 24 24" fill="none" xmlns="http://www.w3.org/2000/svg">
<path fill-rule="evenodd" clip-rule="evenodd" d="M9.36125 2.83887C9.36125 2.42465 9.69704 2.08887 10.1113 2.08887H13.8888C14.303 2.08887 14.6388 2.42465 14.6388 2.83887V4.60623H16.4061C16.8203 4.60623 17.1561 4.94201 17.1561 5.35623V9.13374C17.1561 9.54795 16.8203 9.88374 16.4061 9.88374H14.6388V11.6511C14.6388 12.0653 14.303 12.4011 13.8888 12.4011H10.1113C9.69704 12.4011 9.36125 12.0653 9.36125 11.6511V9.88374H7.59389C7.17968 9.88374 6.84389 9.54795 6.84389 9.13374V5.35623C6.84389 4.94201 7.17968 4.60623 7.59389 4.60623H9.36125V2.83887ZM10.8613 3.58887V5.35623C10.8613 5.77044 10.5255 6.10623 10.1113 6.10623H8.34389V8.38374H10.1113C10.5255 8.38374 10.8613 8.71952 10.8613 9.13374V10.9011H13.1388V9.13374C13.1388 8.71952 13.4745 8.38374 13.8888 8.38374H15.6561V6.10623H13.8888C13.4745 6.10623 13.1388 5.77044 13.1388 5.35623V3.58887H10.8613ZM4.24381 9.44836C4.17581 9.40629 4.09465 9.39086 4.01596 9.40504C3.93694 9.41926 3.86587 9.46243 3.81694 9.52608C3.768 9.58973 3.74453 9.66932 3.7511 9.74933L4.29891 16.4816C4.32121 16.7523 4.40254 17.0154 4.53712 17.2513C4.67167 17.4872 4.85621 17.6907 5.07778 17.8477L6.42852 18.8016C7.1611 19.2582 7.68533 19.9845 7.88757 20.8244C7.98453 21.2271 7.73668 21.6322 7.33398 21.7292C6.93128 21.8261 6.52621 21.5783 6.42925 21.1756C6.31806 20.7138 6.02806 20.3151 5.62299 20.0671C5.60903 20.0585 5.59536 20.0495 5.58199 20.0401L4.21249 19.0729C3.81178 18.7893 3.47745 18.421 3.23421 17.9945C2.99097 17.5681 2.8441 17.0936 2.80393 16.6043L2.25613 9.87207C2.2192 9.42059 2.35164 8.97098 2.62774 8.61185C2.90391 8.25262 3.30397 8.00912 3.74991 7.92882M3.74991 7.92882C4.19301 7.84902 4.65016 7.93589 5.03303 8.17277C5.41596 8.4097 5.69771 8.7799 5.82403 9.21211C5.8284 9.22705 5.8323 9.24211 5.83573 9.25729L6.32732 11.4339C6.41858 11.8379 6.16502 12.2394 5.76098 12.3307C5.35695 12.4219 4.95543 12.1684 4.86418 11.7643L4.37922 9.61715C4.35483 9.54719 4.3071 9.48752 4.24381 9.44836M18.967 8.17277C19.3499 7.93585 19.807 7.84896 20.2501 7.92882C20.6961 8.00912 21.0961 8.25262 21.3723 8.61185C21.6484 8.97098 21.7809 9.42005 21.7439 9.87153C21.7439 9.87171 21.744 9.87135 21.7439 9.87153L21.1961 16.6038C21.156 17.0931 21.0091 17.5681 20.7658 17.9945C20.5226 18.421 20.1889 18.7889 19.7882 19.0725L18.418 20.0401C18.4047 20.0495 18.391 20.0585 18.377 20.0671C17.972 20.3151 17.682 20.7138 17.5708 21.1756C17.4738 21.5783 17.0688 21.8261 16.6661 21.7292C16.2634 21.6322 16.0155 21.2271 16.1125 20.8244C16.3147 19.9845 16.8389 19.2581 17.5715 18.8016L18.9216 17.8481C19.1435 17.6911 19.3282 17.4874 19.4629 17.2513C19.5975 17.0154 19.6788 16.7529 19.7011 16.4822L20.2489 9.74988C20.2555 9.66986 20.232 9.58973 20.1831 9.52608C20.1342 9.46243 20.0633 9.41929 19.9843 9.40507C19.9056 9.39089 19.8242 9.40629 19.7562 9.44836C19.6929 9.48752 19.6452 9.54718 19.6208 9.61715L19.1359 11.7643C19.0446 12.1684 18.6431 12.4219 18.2391 12.3307C17.835 12.2394 17.5815 11.8379 17.6727 11.4339L18.1643 9.25729C18.1677 9.24211 18.1716 9.22705 18.176 9.21211C18.3023 8.7799 18.5841 8.4097 18.967 8.17277ZM7.47309 13.0343C9.90239 14.2198 10.9957 15.4028 11.3403 16.8105C11.5042 17.4801 11.4806 18.1386 11.4316 18.7437C11.4174 18.92 11.4013 19.0897 11.3856 19.2564C11.3445 19.6905 11.3054 20.1036 11.3054 20.5559C11.3054 20.9701 10.9696 21.3059 10.5554 21.3059C10.1412 21.3059 9.80542 20.9701 9.80542 20.5559C9.80542 20.0267 9.85443 19.5094 9.89742 19.0555C9.91182 18.9035 9.92554 18.7586 9.93653 18.6228C9.98276 18.0511 9.98736 17.5923 9.88328 17.1671C9.69336 16.3912 9.07397 15.4795 6.78658 14.3684C6.76297 14.3569 6.73997 14.3442 6.71769 14.3303C6.65977 14.2942 6.59202 14.2771 6.52391 14.2814C6.46586 14.285 6.41001 14.3041 6.362 14.3362C6.3478 14.3532 6.3361 14.3721 6.32728 14.3924C6.31494 14.4209 6.30851 14.4516 6.30837 14.4826C6.30822 14.5136 6.31437 14.5443 6.32644 14.5729C6.3385 14.6015 6.35624 14.6273 6.37858 14.6489L8.29364 16.4921C8.59207 16.7794 8.60113 17.2542 8.31389 17.5526C8.02664 17.851 7.55185 17.8601 7.25342 17.5729L5.338 15.7292C5.16964 15.567 5.03557 15.3719 4.9446 15.1565C4.85363 14.9411 4.80729 14.7094 4.80838 14.4756C4.80947 14.2418 4.85797 14.0106 4.95095 13.796C5.04393 13.5815 5.17945 13.388 5.34932 13.2273C5.36297 13.2144 5.3771 13.202 5.39168 13.1901C5.68708 12.95 6.05007 12.8082 6.42999 12.7844C6.79519 12.7614 7.15851 12.8487 7.47309 13.0343ZM17.4761 14.2814C17.408 14.2771 17.3403 14.2942 17.2824 14.3303C17.2601 14.3442 17.2371 14.3569 17.2135 14.3684C14.9261 15.4795 14.3067 16.3912 14.1168 17.1671C14.0127 17.5923 14.0173 18.0511 14.0635 18.6228C14.0745 18.7586 14.0882 18.9035 14.1026 19.0555C14.1456 19.5094 14.1946 20.0267 14.1946 20.5559C14.1946 20.9701 13.8588 21.3059 13.4446 21.3059C13.0304 21.3059 12.6946 20.9701 12.6946 20.5559C12.6946 20.1036 12.6555 19.6905 12.6145 19.2564C12.5987 19.0897 12.5826 18.92 12.5684 18.7437C12.5195 18.1386 12.4959 17.4801 12.6598 16.8105C13.0043 15.4028 14.0976 14.2198 16.5269 13.0343C16.8415 12.8487 17.2048 12.7614 17.5701 12.7844C17.95 12.8082 18.313 12.95 18.6084 13.1901C18.6229 13.202 18.6371 13.2144 18.6507 13.2273C18.8206 13.388 18.9561 13.5815 19.0491 13.796C19.1421 14.0106 19.1906 14.2418 19.1917 14.4756C19.1927 14.7094 19.1464 14.9411 19.0554 15.1565C18.9645 15.3719 18.8308 15.5666 18.6624 15.7289L16.7466 17.5729C16.4482 17.8601 15.9734 17.851 15.6862 17.5526C15.3989 17.2542 15.408 16.7794 15.7064 16.4921L17.6215 14.6489C17.6214 14.6489 17.6215 14.6488 17.6215 14.6489C17.6438 14.6273 17.6615 14.6015 17.6736 14.5729C17.6857 14.5443 17.6918 14.5136 17.6917 14.4826C17.6915 14.4516 17.6851 14.4209 17.6728 14.3924C17.6639 14.3721 17.6522 14.3532 17.638 14.3362C17.59 14.3041 17.5342 14.285 17.4761 14.2814Z" fill="currentColor"/>
</svg>
