<svg width="24" height="24" viewBox="0 0 24 24" fill="none" xmlns="http://www.w3.org/2000/svg">
<path fill-rule="evenodd" clip-rule="evenodd" d="M9.33329 4.08334C9.17858 4.08334 9.03021 4.14479 8.92081 4.25419C8.81142 4.36359 8.74996 4.51196 8.74996 4.66667V6.58334H15.25V4.66667C15.25 4.51196 15.1885 4.36359 15.0791 4.25419C14.9697 4.14479 14.8213 4.08334 14.6666 4.08334H9.33329ZM16.75 6.58334V4.66667C16.75 4.11413 16.5305 3.58423 16.1398 3.19353C15.7491 2.80283 15.2192 2.58334 14.6666 2.58334H9.33329C8.78076 2.58334 8.25085 2.80283 7.86015 3.19353C7.46945 3.58423 7.24996 4.11414 7.24996 4.66667V6.58334H5.33329C3.44632 6.58334 1.91663 8.11303 1.91663 10V18C1.91663 19.887 3.44632 21.4167 5.33329 21.4167H18.6666C20.5536 21.4167 22.0833 19.887 22.0833 18V10C22.0833 8.11303 20.5536 6.58334 18.6666 6.58334H16.75ZM5.33329 8.08334C4.27475 8.08334 3.41663 8.94146 3.41663 10V18C3.41663 19.0585 4.27475 19.9167 5.33329 19.9167H18.6666C19.7252 19.9167 20.5833 19.0585 20.5833 18V10C20.5833 8.94146 19.7252 8.08334 18.6666 8.08334H5.33329ZM12 10.5664C12.4142 10.5664 12.75 10.9022 12.75 11.3164V13.2331H14.6666C15.0808 13.2331 15.4166 13.5689 15.4166 13.9831C15.4166 14.3973 15.0808 14.7331 14.6666 14.7331H12.75V16.6498C12.75 17.064 12.4142 17.3998 12 17.3998C11.5857 17.3998 11.25 17.064 11.25 16.6498V14.7331H9.33329C8.91908 14.7331 8.58329 14.3973 8.58329 13.9831C8.58329 13.5689 8.91908 13.2331 9.33329 13.2331H11.25V11.3164C11.25 10.9022 11.5857 10.5664 12 10.5664Z" fill="currentColor"/>
</svg>
