<svg width="24" height="24" viewBox="0 0 24 24" fill="none" xmlns="http://www.w3.org/2000/svg">
<path fill-rule="evenodd" clip-rule="evenodd" d="M12 6C12.8284 6 13.5 5.32843 13.5 4.5C13.5 3.67157 12.8284 3 12 3C11.1716 3 10.5 3.67157 10.5 4.5C10.5 5.32843 11.1716 6 12 6ZM10.5 9.25C10.0858 9.25 9.75 9.58579 9.75 10C9.75 10.4142 10.0858 10.75 10.5 10.75H11C11.1381 10.75 11.25 10.8619 11.25 11V19C11.25 19.9665 12.0335 20.75 13 20.75H14C14.4142 20.75 14.75 20.4142 14.75 20C14.75 19.5858 14.4142 19.25 14 19.25H13C12.8619 19.25 12.75 19.1381 12.75 19V11C12.75 10.0335 11.9665 9.25 11 9.25H10.5Z" fill="currentColor"/>
</svg>
