<svg width="24" height="24" viewBox="0 0 24 24" fill="none" xmlns="http://www.w3.org/2000/svg">
<path fill-rule="evenodd" clip-rule="evenodd" d="M6.56196 2C6.56196 1.58579 6.89775 1.25 7.31196 1.25H16.6453C17.0595 1.25 17.3953 1.58579 17.3953 2C17.3953 2.41421 17.0595 2.75 16.6453 2.75H16.062V8.44434L18.5324 12.2452C18.5384 12.254 18.5442 12.2629 18.5498 12.2719L21.9292 17.4713C21.9292 17.4712 21.9292 17.4713 21.9292 17.4713C22.2644 17.9869 22.4542 18.5835 22.4786 19.198C22.5029 19.8125 22.361 20.4223 22.0676 20.9628C21.7743 21.5034 21.3405 21.9548 20.812 22.2693C20.2835 22.5839 19.6799 22.7499 19.0649 22.75H4.88778C4.27315 22.7491 3.67013 22.5825 3.14229 22.2676C2.61444 21.9527 2.18131 21.5012 1.88853 20.9608C1.59576 20.4204 1.45419 19.811 1.47874 19.1969C1.50329 18.5827 1.69305 17.9866 2.02801 17.4713C2.02801 17.4713 2.02802 17.4713 2.02801 17.4713L5.40747 12.2719C5.41307 12.2629 5.41885 12.254 5.42482 12.2452L7.8953 8.44434V2.75H7.31196C6.89775 2.75 6.56196 2.41421 6.56196 2ZM9.3953 2.75V8.66667C9.3953 8.81176 9.35321 8.95374 9.27414 9.0754L7.42738 11.9167H16.5299L14.6831 9.0754C14.6041 8.95374 14.562 8.81176 14.562 8.66667V8.08333H12.6453C12.2311 8.08333 11.8953 7.74755 11.8953 7.33333C11.8953 6.91912 12.2311 6.58333 12.6453 6.58333H14.562V5.41667H12.6453C12.2311 5.41667 11.8953 5.08088 11.8953 4.66667C11.8953 4.25245 12.2311 3.91667 12.6453 3.91667H14.562V2.75H9.3953ZM17.5048 13.4167H6.45242L3.28569 18.2887C3.09778 18.5778 2.99131 18.9123 2.97754 19.2568C2.96377 19.6013 3.04319 19.9432 3.20743 20.2463C3.37167 20.5495 3.61464 20.8027 3.91075 20.9794C4.20686 21.156 4.54514 21.2495 4.88993 21.25H19.0648C19.0648 21.25 19.0648 21.25 19.0648 21.25C19.4098 21.25 19.7484 21.1568 20.0449 20.9804C20.3413 20.8039 20.5847 20.5507 20.7492 20.2474C20.9138 19.9442 20.9934 19.6022 20.9797 19.2574C20.9661 18.9127 20.8596 18.578 20.6716 18.2888L17.5048 13.4167ZM15.312 14.5833C15.7262 14.5833 16.062 14.9191 16.062 15.3333V15.9167H16.6453C17.0595 15.9167 17.3953 16.2525 17.3953 16.6667C17.3953 17.0809 17.0595 17.4167 16.6453 17.4167H16.062V18C16.062 18.4142 15.7262 18.75 15.312 18.75C14.8977 18.75 14.562 18.4142 14.562 18V17.4167H13.9786C13.5644 17.4167 13.2286 17.0809 13.2286 16.6667C13.2286 16.2525 13.5644 15.9167 13.9786 15.9167H14.562V15.3333C14.562 14.9191 14.8977 14.5833 15.312 14.5833ZM10.2733 16.2946C10.2731 16.2948 10.2734 16.2945 10.2733 16.2946C10.3514 16.2165 10.3953 16.1105 10.3953 16C10.3953 15.8895 10.3514 15.7835 10.2733 15.7054C10.1951 15.6272 10.0891 15.5833 9.97863 15.5833C9.86622 15.5833 9.76016 15.6286 9.68356 15.7049C9.68341 15.7051 9.68371 15.7048 9.68356 15.7049C9.60905 15.7794 9.56196 15.8844 9.56196 16C9.56196 16.1105 9.60586 16.2165 9.684 16.2946C9.76215 16.3728 9.86813 16.4167 9.97863 16.4167C10.0889 16.4167 10.1952 16.3725 10.2733 16.2946ZM9.2126 15.234C9.41576 15.0308 9.69132 14.9167 9.97863 14.9167C10.2659 14.9167 10.5415 15.0308 10.7447 15.234C10.9478 15.4371 11.062 15.7127 11.062 16C11.062 16.2924 10.9433 16.5665 10.7438 16.766C10.5421 16.9677 10.2681 17.0833 9.97863 17.0833C9.69132 17.0833 9.41576 16.9692 9.2126 16.766C9.00943 16.5629 8.8953 16.2873 8.8953 16C8.8953 15.7127 9.00943 15.4371 9.2126 15.234ZM7.60659 18.9613C7.60644 18.9614 7.60674 18.9611 7.60659 18.9613C7.68473 18.8832 7.72863 18.7772 7.72863 18.6667C7.72863 18.5562 7.68473 18.4502 7.60659 18.372C7.60657 18.372 7.60661 18.3721 7.60659 18.372C7.52851 18.294 7.42259 18.2501 7.31219 18.25C7.31211 18.25 7.31226 18.25 7.31219 18.25C7.19977 18.25 7.09349 18.2952 7.01689 18.3716C7.01674 18.3717 7.01704 18.3714 7.01689 18.3716C6.93875 18.4497 6.89441 18.5562 6.89441 18.6667C6.89441 18.777 6.93815 18.8828 7.01605 18.9609C7.01633 18.9612 7.01661 18.9615 7.01689 18.9617C7.09471 19.0393 7.20005 19.083 7.30996 19.0833L7.31196 18.3333V19.0833C7.42226 19.0833 7.5285 19.0392 7.60659 18.9613ZM6.54593 17.9006C6.74909 17.6975 7.02464 17.5833 7.31196 17.5833H7.31396C7.60078 17.5841 7.87559 17.6986 8.07813 17.9017C8.28067 18.1047 8.39441 18.3799 8.39441 18.6667C8.39441 18.954 8.28027 19.2295 8.07711 19.4327C7.87545 19.6344 7.60141 19.75 7.31196 19.75C7.02464 19.75 6.74909 19.6359 6.54593 19.4327C6.34277 19.2295 6.22863 18.954 6.22863 18.6667C6.22863 18.3794 6.34277 18.1038 6.54593 17.9006Z" fill="currentColor"/>
</svg>
