<svg width="24" height="24" viewBox="0 0 24 24" fill="none" xmlns="http://www.w3.org/2000/svg">
<path d="M15.557 2.301C15.7641 2.28442 15.9723 2.32125 16.1617 2.40844C16.3692 2.504 16.5455 2.65617 16.6704 2.84747C16.7953 3.03877 16.8637 3.26143 16.8677 3.48984C16.8713 3.69868 16.821 3.90461 16.7221 4.08785L14.4154 9.296H17.039C17.4296 9.296 18.0421 9.41164 18.2971 9.98782C18.5517 10.563 18.2271 11.0937 17.9647 11.3836L17.9638 11.3847L9.40775 20.8905C9.1817 21.1419 8.94841 21.3591 8.71469 21.5029C8.53793 21.6117 8.08351 21.8482 7.61729 21.5858C7.15133 21.3236 7.1175 20.8126 7.11862 20.6052C7.1201 20.3308 7.18448 20.0187 7.2818 19.695L9.05399 13.801H7.13462C6.93099 13.8162 6.72648 13.7799 6.54009 13.6951C6.33673 13.6025 6.16282 13.4556 6.03745 13.2707C5.91208 13.0857 5.84009 12.8698 5.8294 12.6466C5.81959 12.4419 5.86169 12.2383 5.9514 12.0546L9.53867 3.08646C9.54363 3.07406 9.54892 3.06179 9.55454 3.04968C9.65353 2.83604 9.80898 2.65349 10.0041 2.52173C10.1992 2.38996 10.4267 2.31398 10.6618 2.30198C10.6745 2.30133 10.6873 2.301 10.7 2.301H15.557Z" fill="currentColor"/>
</svg>
