<svg width="24" height="24" viewBox="0 0 24 24" fill="none" xmlns="http://www.w3.org/2000/svg">
<path fill-rule="evenodd" clip-rule="evenodd" d="M3.33333 5.41666C3.01117 5.41666 2.75 5.67782 2.75 5.99999V18C2.75 18.3222 3.01117 18.5833 3.33333 18.5833H20.6667C20.9888 18.5833 21.25 18.3222 21.25 18V5.99999C21.25 5.67782 20.9888 5.41666 20.6667 5.41666H3.33333ZM1.25 5.99999C1.25 4.8494 2.18274 3.91666 3.33333 3.91666H20.6667C21.8173 3.91666 22.75 4.8494 22.75 5.99999V18C22.75 19.1506 21.8173 20.0833 20.6667 20.0833H3.33333C2.18274 20.0833 1.25 19.1506 1.25 18V5.99999ZM19.7494 8.04262C20.094 8.27238 20.1871 8.73804 19.9574 9.08268L15.9574 15.0827C15.8327 15.2696 15.6308 15.3909 15.4072 15.413C15.1836 15.4351 14.9619 15.3559 14.803 15.197L12.6667 13.0606L10.5303 15.197C10.363 15.3643 10.1265 15.4429 9.89235 15.4089C9.65817 15.3749 9.45375 15.2324 9.34086 15.0245L7.43409 11.512L5.30979 15.0525C5.09668 15.4077 4.63598 15.5229 4.28079 15.3098C3.92561 15.0967 3.81044 14.636 4.02355 14.2808L6.82355 9.61412C6.96206 9.38327 7.21367 9.24437 7.48282 9.25016C7.75197 9.25596 7.99737 9.40557 8.12581 9.64217L10.1799 13.4261L12.1363 11.4697C12.277 11.329 12.4678 11.25 12.6667 11.25C12.8656 11.25 13.0563 11.329 13.197 11.4697L15.2168 13.4894L18.7093 8.25063C18.9391 7.90598 19.4047 7.81285 19.7494 8.04262Z" fill="currentColor"/>
</svg>
