<svg width="24" height="24" viewBox="0 0 24 24" fill="none" xmlns="http://www.w3.org/2000/svg">
<path d="M20.7031 4.26116C20.8473 3.87287 20.6494 3.44118 20.2611 3.29695C19.8729 3.15273 19.4412 3.35059 19.2969 3.73888L16.9611 10.0277L15.0692 9.30001C14.713 9.163 14.3107 9.31537 14.1346 9.65401L11.8438 14.0594L9.86924 13.3C9.62523 13.2062 9.34995 13.2462 9.14272 13.4056L6.54272 15.4056C6.21441 15.6581 6.15299 16.129 6.40554 16.4573C6.65809 16.7856 7.12897 16.847 7.45729 16.5945L9.72365 14.8511L11.9308 15.7C12.287 15.837 12.6893 15.6847 12.8654 15.346L15.1562 10.9406L17.1308 11.7C17.3178 11.772 17.5259 11.7661 17.7086 11.6836C17.8912 11.6012 18.0333 11.449 18.1031 11.2612L20.7031 4.26116Z" fill="currentColor"/>
<path d="M4.75 4C4.75 3.58579 4.41421 3.25 4 3.25C3.58579 3.25 3.25 3.58579 3.25 4V19.25C3.25 20.0784 3.92157 20.75 4.75 20.75H20C20.4142 20.75 20.75 20.4142 20.75 20C20.75 19.5858 20.4142 19.25 20 19.25H4.75V4Z" fill="currentColor"/>
</svg>
