<svg width="24" height="24" viewBox="0 0 24 24" fill="none" xmlns="http://www.w3.org/2000/svg">
<path d="M6 6.25C5.58579 6.25 5.25 6.58579 5.25 7C5.25 7.41421 5.58579 7.75 6 7.75H17C17.4142 7.75 17.75 7.41421 17.75 7C17.75 6.58579 17.4142 6.25 17 6.25H6Z" fill="currentColor"/>
<path d="M6 11.25C5.58579 11.25 5.25 11.5858 5.25 12C5.25 12.4142 5.58579 12.75 6 12.75H17C17.4142 12.75 17.75 12.4142 17.75 12C17.75 11.5858 17.4142 11.25 17 11.25H6Z" fill="currentColor"/>
<path d="M5.25 17C5.25 16.5858 5.58579 16.25 6 16.25H9.5C9.91421 16.25 10.25 16.5858 10.25 17C10.25 17.4142 9.91421 17.75 9.5 17.75H6C5.58579 17.75 5.25 17.4142 5.25 17Z" fill="currentColor"/>
<path d="M21.5303 14.5303C21.8232 14.2374 21.8232 13.7626 21.5303 13.4697C21.2374 13.1768 20.7626 13.1768 20.4697 13.4697L15.5 18.4393L13.5303 16.4697C13.2374 16.1768 12.7626 16.1768 12.4697 16.4697C12.1768 16.7626 12.1768 17.2374 12.4697 17.5303L14.7929 19.8535C15.1834 20.244 15.8166 20.244 16.2071 19.8535L21.5303 14.5303Z" fill="currentColor"/>
</svg>
