<svg width="24" height="24" viewBox="0 0 24 24" fill="none" xmlns="http://www.w3.org/2000/svg">
<path fill-rule="evenodd" clip-rule="evenodd" d="M11.2205 3.84148C10.546 4.03367 9.95395 4.4439 9.53709 5.00821C9.11829 5.57515 8.9001 6.26535 8.91692 6.97L8.91713 6.9879V8.26546C8.91713 8.67967 8.58135 9.01546 8.16713 9.01546C7.75292 9.01546 7.41713 8.67967 7.41713 8.26546V6.99646C7.39451 5.96207 7.71573 4.9493 8.33058 4.11696C8.94728 3.28211 9.82431 2.67627 10.8234 2.39496L10.8423 2.3899C11.5149 2.21933 12.2175 2.20453 12.8967 2.34662C13.5758 2.4887 14.2136 2.78393 14.7614 3.20981C15.3092 3.63569 15.7525 4.18098 16.0577 4.80414C16.3628 5.4273 16.5217 6.11189 16.5223 6.80576V8.26546C16.5223 8.67967 16.1865 9.01546 15.7723 9.01546C15.3581 9.01546 15.0223 8.67967 15.0223 8.26546V6.8069C15.0219 6.34132 14.9153 5.88196 14.7105 5.46382C14.5058 5.04568 14.2083 4.67979 13.8407 4.39403C13.4732 4.10827 13.0452 3.91017 12.5895 3.81483C12.137 3.72016 11.6689 3.72929 11.2205 3.84148ZM6.75624 11.7501C6.70302 11.7501 6.65199 11.7712 6.61436 11.8088C6.57673 11.8465 6.55559 11.8975 6.55559 11.9507L6.55566 18.0019C6.55566 18.0016 6.55566 18.0022 6.55566 18.0019C6.55643 18.2228 6.61967 18.4399 6.73808 18.6264C6.85664 18.8132 7.02567 18.9625 7.22561 19.0572C7.23562 19.062 7.24553 19.0669 7.25533 19.0721C8.71727 19.8455 10.3461 20.2499 12 20.2499C13.654 20.2499 15.2828 19.8455 16.7448 19.0721C16.7512 19.0687 16.7576 19.0654 16.7641 19.0622C16.7675 19.0605 16.771 19.0589 16.7745 19.0572C16.9744 18.9625 17.1435 18.8132 17.262 18.6264C17.3804 18.4399 17.4437 18.2237 17.4444 18.0028L17.4444 11.9507C17.4444 11.8975 17.4232 11.8465 17.3856 11.8088C17.348 11.7712 17.2969 11.7501 17.2437 11.7501H6.75624ZM5.5537 10.7482C5.87263 10.4292 6.3052 10.2501 6.75624 10.2501H17.2437C17.6948 10.2501 18.1273 10.4292 18.4463 10.7482C18.7652 11.0671 18.9444 11.4997 18.9444 11.9507L18.9444 18.0039L18.9444 18.006C18.943 18.5105 18.7988 19.0044 18.5284 19.4303C18.2612 19.8513 17.8815 20.1889 17.4325 20.4052C15.7579 21.2883 13.8933 21.7499 12 21.7499C10.1068 21.7499 8.24215 21.2883 6.56761 20.4052C6.1186 20.1889 5.73894 19.8513 5.4717 19.4303C5.20129 19.0044 5.05705 18.5105 5.05567 18.006L5.05566 18.0039L5.05559 11.9507C5.05559 11.4997 5.23477 11.0671 5.5537 10.7482ZM11.9697 13.6616C12.3839 13.6616 12.7197 13.9974 12.7197 14.4116V17.2635C12.7197 17.6778 12.3839 18.0135 11.9697 18.0135C11.5555 18.0135 11.2197 17.6778 11.2197 17.2635V14.4116C11.2197 13.9974 11.5555 13.6616 11.9697 13.6616Z" fill="currentColor"/>
</svg>
