<svg width="24" height="24" viewBox="0 0 24 24" fill="none" xmlns="http://www.w3.org/2000/svg">
<path d="M12.7499 3C12.7499 2.58579 12.4141 2.25 11.9999 2.25C11.5857 2.25 11.2499 2.58579 11.2499 3V6C11.2499 7.95385 9.85258 9.62812 7.93024 9.97764L6.36572 10.2621C5.95819 10.3362 5.68789 10.7266 5.76198 11.1342C5.83608 11.5417 6.22652 11.812 6.63405 11.7379L7.36167 11.6056L6.37604 13.0841C6.14628 13.4287 6.23941 13.8944 6.58405 14.1241C6.9287 14.3539 7.39435 14.2608 7.62412 13.9161L9.55309 11.0227C10.5866 10.5401 11.4368 9.75277 11.9999 8.78473C12.563 9.75288 13.4133 10.5403 14.447 11.0228L16.3759 13.9161C16.6056 14.2608 17.0713 14.3539 17.4159 14.1241C17.7606 13.8944 17.8537 13.4287 17.624 13.0841L16.6384 11.6057L17.3657 11.7379C17.7733 11.812 18.1637 11.5417 18.2378 11.1342C18.3119 10.7266 18.0416 10.3362 17.634 10.2621L16.0695 9.97764C14.1472 9.62812 12.7499 7.95385 12.7499 6V3Z" fill="currentColor"/>
<path d="M9.7398 4.87682C9.80768 5.28415 9.53355 5.66946 9.12703 5.73928L9.12339 5.73996C9.11796 5.741 9.10718 5.74312 9.09143 5.74654C9.05991 5.75337 9.00858 5.76533 8.94025 5.78404C8.80346 5.82149 8.59961 5.8857 8.35096 5.9893C7.85332 6.19665 7.18137 6.55962 6.50679 7.17798C5.1791 8.39503 3.75 10.6856 3.75 15.0001C3.75 16.8997 4.22562 17.6005 4.62863 17.8936C5.08636 18.2265 5.70153 18.2501 6.5 18.2501C7.18115 18.2501 7.80629 18.1332 8.28217 17.6573C8.76665 17.1728 9.25 16.1614 9.25 14.0001C9.25 13.5859 9.58579 13.2501 10 13.2501C10.4142 13.2501 10.75 13.5859 10.75 14.0001C10.75 16.3388 10.2334 17.8274 9.34283 18.7179C8.44371 19.6171 7.31885 19.7501 6.5 19.7501L6.43027 19.7502C5.72495 19.7509 4.63383 19.7521 3.74637 19.1067C2.77438 18.3998 2.25 17.1005 2.25 15.0001C2.25 10.3146 3.8209 7.6052 5.49321 6.07225C6.31863 5.31562 7.14668 4.86608 7.77404 4.60468C8.08789 4.47391 8.35279 4.38968 8.54412 4.33729C8.63986 4.31108 8.71743 4.29277 8.7738 4.28055C8.802 4.27444 8.82491 4.26985 8.84218 4.26656L8.86381 4.26256L8.87136 4.26123L8.87431 4.26072L8.87558 4.26051L8.8767 4.26032C9.28528 4.19223 9.6717 4.46824 9.7398 4.87682Z" fill="currentColor"/>
<path d="M14.2602 4.87682C14.1923 5.28415 14.4664 5.66946 14.873 5.73928L14.8766 5.73996C14.882 5.741 14.8928 5.74312 14.9086 5.74654C14.9401 5.75337 14.9914 5.76533 15.0597 5.78404C15.1965 5.82149 15.4004 5.8857 15.649 5.9893C16.1467 6.19665 16.8186 6.55962 17.4932 7.17798C18.8209 8.39503 20.25 10.6856 20.25 15.0001C20.25 16.8997 19.7744 17.6005 19.3714 17.8936C18.9136 18.2265 18.2985 18.2501 17.5 18.2501C16.8188 18.2501 16.1937 18.1332 15.7178 17.6573C15.2334 17.1728 14.75 16.1614 14.75 14.0001C14.75 13.5859 14.4142 13.2501 14 13.2501C13.5858 13.2501 13.25 13.5859 13.25 14.0001C13.25 16.3388 13.7666 17.8274 14.6572 18.7179C15.5563 19.6171 16.6812 19.7501 17.5 19.7501L17.5697 19.7502C18.275 19.7509 19.3662 19.7521 20.2536 19.1067C21.2256 18.3998 21.75 17.1005 21.75 15.0001C21.75 10.3146 20.1791 7.6052 18.5068 6.07225C17.6814 5.31562 16.8533 4.86608 16.226 4.60468C15.9121 4.47391 15.6472 4.38968 15.4559 4.33729C15.3601 4.31108 15.2826 4.29277 15.2262 4.28055C15.198 4.27444 15.1751 4.26985 15.1578 4.26656L15.1362 4.26256L15.1286 4.26123L15.1257 4.26072L15.1244 4.26051L15.1233 4.26032C14.7147 4.19223 14.3283 4.46824 14.2602 4.87682Z" fill="currentColor"/>
</svg>
