<svg width="24" height="24" viewBox="0 0 24 24" fill="none" xmlns="http://www.w3.org/2000/svg">
<path fill-rule="evenodd" clip-rule="evenodd" d="M5.33329 3.41666C4.82496 3.41666 4.33745 3.6186 3.978 3.97804C3.61856 4.33749 3.41663 4.825 3.41663 5.33333V17.3333C3.41663 17.8417 3.61856 18.3292 3.978 18.6886C4.33745 19.0481 4.82496 19.25 5.33329 19.25H11.9484C12.3626 19.25 12.6984 19.5858 12.6984 20C12.6984 20.4142 12.3626 20.75 11.9484 20.75H5.33329C4.42714 20.75 3.55809 20.39 2.91734 19.7493C2.2766 19.1085 1.91663 18.2395 1.91663 17.3333V5.33333C1.91663 4.42717 2.2766 3.55813 2.91734 2.91738C3.55809 2.27663 4.42714 1.91666 5.33329 1.91666H11.9484C12.8546 1.91666 13.7236 2.27663 14.3644 2.91738C15.0051 3.55813 15.3651 4.42717 15.3651 5.33333V8.83546C15.5798 8.92461 15.7928 9.01149 16.0026 9.09707C16.6895 9.37731 17.342 9.64348 17.9094 9.929C18.8088 10.3816 19.6106 10.9333 20.254 11.8029C21.5153 13.5076 22.0317 16.257 22.0317 21.3333C22.0317 21.7475 21.6959 22.0833 21.2817 22.0833C20.8675 22.0833 20.5317 21.7475 20.5317 21.3333C20.5317 16.239 19.985 13.9613 19.0482 12.6951C18.5925 12.0792 18.0113 11.6595 17.2351 11.2689C16.7172 11.0083 16.1603 10.7815 15.5161 10.5192C15.4663 10.4989 15.416 10.4784 15.3651 10.4576V10.6667C15.3651 11.0809 15.0293 11.4167 14.6151 11.4167C14.2009 11.4167 13.8651 11.0809 13.8651 10.6667V9.34991C13.8648 9.33864 13.8648 9.32735 13.8651 9.31604V5.33333C13.8651 4.825 13.6631 4.33749 13.3037 3.97804C12.9442 3.6186 12.4567 3.41666 11.9484 3.41666H5.33329ZM8.66663 5.93355C9.08084 5.93355 9.41663 6.26934 9.41663 6.68355V8.60022H11.3333C11.7475 8.60022 12.0833 8.936 12.0833 9.35022C12.0833 9.76443 11.7475 10.1002 11.3333 10.1002H9.41663V12.0169C9.41663 12.4311 9.08084 12.7669 8.66663 12.7669C8.25241 12.7669 7.91663 12.4311 7.91663 12.0169V10.1002H5.99996C5.58575 10.1002 5.24996 9.76443 5.24996 9.35022C5.24996 8.936 5.58575 8.60022 5.99996 8.60022H7.91663V6.68355C7.91663 6.26934 8.25241 5.93355 8.66663 5.93355ZM12.5956 11.8907C12.8831 11.8415 13.1776 11.8514 13.4612 11.9198C13.7444 11.9882 14.0107 12.1136 14.2439 12.2883C14.2441 12.2885 14.2444 12.2887 14.2446 12.2889L15.7306 13.3992C16.0625 13.6471 16.1305 14.1171 15.8826 14.4489C15.6346 14.7807 15.1647 14.8487 14.8328 14.6008L13.3457 13.4897L13.3446 13.4889C13.2745 13.4363 13.1943 13.3985 13.1091 13.3779C13.0239 13.3574 12.9354 13.3544 12.8489 13.3692C12.7625 13.384 12.68 13.4163 12.6065 13.4641C12.533 13.5118 12.47 13.5741 12.4214 13.6471C12.3509 13.7529 12.3133 13.8773 12.3133 14.0044C12.3133 14.1316 12.3508 14.2559 12.4213 14.3617C12.4213 14.3618 12.4214 14.3618 12.4214 14.3619L13.8835 16.5546L13.8836 16.5546C14.2482 17.1017 14.7703 17.5252 15.3807 17.7694L15.3808 17.7694L17.5603 18.6414C17.845 18.7553 18.0317 19.0311 18.0317 19.3378V21.3333C18.0317 21.7475 17.696 22.0833 17.2817 22.0833C16.8675 22.0833 16.5317 21.7475 16.5317 21.3333V19.8455L14.8236 19.1621C14.8236 19.1621 14.8236 19.1621 14.8236 19.1621C13.9314 18.8052 13.1685 18.1862 12.6355 17.3867L11.1733 15.1939L11.1732 15.1936C10.9385 14.8414 10.8133 14.4277 10.8133 14.0044C10.8133 13.5812 10.9385 13.1674 11.1732 12.8152L11.1732 12.8152C11.335 12.5724 11.5446 12.3653 11.7891 12.2063C12.0337 12.0474 12.3081 11.94 12.5956 11.8907Z" fill="currentColor"/>
</svg>
