<svg width="24" height="24" viewBox="0 0 24 24" fill="none" xmlns="http://www.w3.org/2000/svg">
<path d="M16 3.75C16.1381 3.75 16.25 3.86193 16.25 4V8C16.25 8.41421 16.5858 8.75 17 8.75C17.4142 8.75 17.75 8.41421 17.75 8V4C17.75 3.0335 16.9665 2.25 16 2.25H8C7.0335 2.25 6.25 3.0335 6.25 4V20C6.25 20.9665 7.0335 21.75 8 21.75H16C16.9665 21.75 17.75 20.9665 17.75 20V18C17.75 17.5858 17.4142 17.25 17 17.25C16.5858 17.25 16.25 17.5858 16.25 18V20C16.25 20.1381 16.1381 20.25 16 20.25H8C7.86193 20.25 7.75 20.1381 7.75 20L7.75 4C7.75 3.86193 7.86193 3.75 8 3.75L16 3.75Z" fill="currentColor"/>
<path d="M11 4.25C10.5858 4.25 10.25 4.58579 10.25 5C10.25 5.41421 10.5858 5.75 11 5.75H13C13.4142 5.75 13.75 5.41421 13.75 5C13.75 4.58579 13.4142 4.25 13 4.25H11Z" fill="currentColor"/>
<path fill-rule="evenodd" clip-rule="evenodd" d="M9.25 11C9.25 10.0335 10.0335 9.25 11 9.25H15C15.8379 9.25 16.5383 9.83891 16.7098 10.6254L18.584 9.37596C18.8141 9.22253 19.11 9.20823 19.3539 9.33874C19.5978 9.46926 19.75 9.7234 19.75 10V16C19.75 16.2766 19.5978 16.5307 19.3539 16.6613C19.11 16.7918 18.8141 16.7775 18.584 16.624L16.7098 15.3746C16.5383 16.1611 15.8379 16.75 15 16.75H11C10.0335 16.75 9.25 15.9665 9.25 15V11ZM15.25 11C15.25 10.8619 15.1381 10.75 15 10.75H11C10.8619 10.75 10.75 10.8619 10.75 11V15C10.75 15.1381 10.8619 15.25 11 15.25H15C15.1381 15.25 15.25 15.1381 15.25 15V11ZM16.75 13.5986L18.25 14.5986V11.4014L16.75 12.4014V13.5986Z" fill="currentColor"/>
</svg>
