<svg width="24" height="24" viewBox="0 0 24 24" fill="none" xmlns="http://www.w3.org/2000/svg">
<path d="M11 4.25C10.5858 4.25 10.25 4.58579 10.25 5C10.25 5.41421 10.5858 5.75 11 5.75H13C13.4142 5.75 13.75 5.41421 13.75 5C13.75 4.58579 13.4142 4.25 13 4.25H11Z" fill="currentColor"/>
<path fill-rule="evenodd" clip-rule="evenodd" d="M8 2.25C7.0335 2.25 6.25 3.0335 6.25 4V20C6.25 20.9665 7.0335 21.75 8 21.75H16C16.9665 21.75 17.75 20.9665 17.75 20V4C17.75 3.0335 16.9665 2.25 16 2.25H8ZM7.75 4C7.75 3.86193 7.86193 3.75 8 3.75H16C16.1381 3.75 16.25 3.86193 16.25 4V20C16.25 20.1381 16.1381 20.25 16 20.25H8C7.86193 20.25 7.75 20.1381 7.75 20V4Z" fill="currentColor"/>
</svg>
