<svg width="24" height="24" viewBox="0 0 24 24" fill="none" xmlns="http://www.w3.org/2000/svg">
<path d="M16 18.75C16.4142 18.75 16.75 19.0858 16.75 19.5V20C16.75 20.9665 15.9665 21.75 15 21.75H7C6.0335 21.75 5.25 20.9665 5.25 20V4C5.25 3.0335 6.0335 2.25 7 2.25H15C15.9665 2.25 16.75 3.0335 16.75 4L16.75 6.5C16.75 6.91421 16.4142 7.25 16 7.25C15.5858 7.25 15.25 6.91421 15.25 6.5L15.25 4C15.25 3.86193 15.1381 3.75 15 3.75L7 3.75C6.86193 3.75 6.75 3.86193 6.75 4L6.75 20C6.75 20.1381 6.86193 20.25 7 20.25H15C15.1381 20.25 15.25 20.1381 15.25 20V19.5C15.25 19.0858 15.5858 18.75 16 18.75Z" fill="currentColor"/>
<path d="M9.25 5C9.25 4.58579 9.58579 4.25 10 4.25H12C12.4142 4.25 12.75 4.58579 12.75 5C12.75 5.41421 12.4142 5.75 12 5.75H10C9.58579 5.75 9.25 5.41421 9.25 5Z" fill="currentColor"/>
<path fill-rule="evenodd" clip-rule="evenodd" d="M8.25 11C8.25 10.8097 8.32087 10.636 8.43765 10.5037C8.47313 10.4635 8.513 10.427 8.5567 10.395C8.62336 10.346 8.6984 10.3079 8.77927 10.283L14.7628 8.28849C14.9168 8.23717 15.0832 8.23717 15.2372 8.28849L21.2372 10.2885C21.5434 10.3906 21.75 10.6772 21.75 11C21.75 11.3228 21.5434 11.6094 21.2372 11.7115L18.75 12.5406V16C18.75 16.3228 18.5434 16.6094 18.2372 16.7115L15.2372 17.7115C15.0832 17.7628 14.9168 17.7628 14.7628 17.7115L11.7628 16.7115C11.4566 16.6094 11.25 16.3228 11.25 16V12.5406L9.75 12.0406V14C9.75 14.4142 9.41421 14.75 9 14.75C8.58579 14.75 8.25 14.4142 8.25 14V11ZM12.2538 11.294C12.2429 11.2901 12.2319 11.2864 12.2208 11.283L11.3717 11L15 9.79057L18.6283 11L17.7792 11.283C17.7681 11.2864 17.7571 11.2901 17.7462 11.294L15 12.2094L12.2538 11.294ZM12.75 13.0406V15.4594L15 16.2094L17.25 15.4594V13.0406L15.2372 13.7115C15.0832 13.7628 14.9168 13.7628 14.7628 13.7115L12.75 13.0406Z" fill="currentColor"/>
</svg>
