<svg width="24" height="24" viewBox="0 0 24 24" fill="none" xmlns="http://www.w3.org/2000/svg">
<path d="M12 13.5C12.8284 13.5 13.5 12.8284 13.5 12C13.5 11.1716 12.8284 10.5 12 10.5C11.1716 10.5 10.5 11.1716 10.5 12C10.5 12.8284 11.1716 13.5 12 13.5Z" fill="currentColor"/>
<path d="M9 12C9 12.8284 8.32843 13.5 7.5 13.5C6.67157 13.5 6 12.8284 6 12C6 11.1716 6.67157 10.5 7.5 10.5C8.32843 10.5 9 11.1716 9 12Z" fill="currentColor"/>
<path d="M16.5 13.5C17.3284 13.5 18 12.8284 18 12C18 11.1716 17.3284 10.5 16.5 10.5C15.6716 10.5 15 11.1716 15 12C15 12.8284 15.6716 13.5 16.5 13.5Z" fill="currentColor"/>
<path fill-rule="evenodd" clip-rule="evenodd" d="M12 2.25C6.61522 2.25 2.25 6.61522 2.25 12C2.25 17.3848 6.61522 21.75 12 21.75C17.3848 21.75 21.75 17.3848 21.75 12C21.75 6.61522 17.3848 2.25 12 2.25ZM3.75 12C3.75 7.44365 7.44365 3.75 12 3.75C16.5563 3.75 20.25 7.44365 20.25 12C20.25 16.5563 16.5563 20.25 12 20.25C7.44365 20.25 3.75 16.5563 3.75 12Z" fill="currentColor"/>
</svg>
