<svg width="24" height="24" viewBox="0 0 24 24" fill="none" xmlns="http://www.w3.org/2000/svg">
<path fill-rule="evenodd" clip-rule="evenodd" d="M12 1.24823C12.4142 1.24823 12.75 1.58402 12.75 1.99823V16.1876L14.803 14.1346C15.0959 13.8417 15.5708 13.8417 15.8637 14.1346C16.1566 14.4275 16.1566 14.9023 15.8637 15.1952L12.5303 18.5286C12.2374 18.8215 11.7626 18.8215 11.4697 18.5286L8.13634 15.1952C7.84344 14.9023 7.84344 14.4275 8.13634 14.1346C8.42923 13.8417 8.9041 13.8417 9.197 14.1346L11.25 16.1876V1.99823C11.25 1.58402 11.5858 1.24823 12 1.24823ZM1.25 21.9982C1.25 21.584 1.58579 21.2482 2 21.2482H22C22.4142 21.2482 22.75 21.584 22.75 21.9982C22.75 22.4124 22.4142 22.7482 22 22.7482H2C1.58579 22.7482 1.25 22.4124 1.25 21.9982Z" fill="currentColor"/>
</svg>
