<svg width="24" height="24" viewBox="0 0 24 24" fill="none" xmlns="http://www.w3.org/2000/svg">
<path fill-rule="evenodd" clip-rule="evenodd" d="M6 1.24289C6.41421 1.24289 6.75 1.57868 6.75 1.99289V2.57622H9.25V1.99289C9.25 1.57868 9.58578 1.24289 10 1.24289C10.4142 1.24289 10.75 1.57868 10.75 1.99289V2.57622H13.25V1.99289C13.25 1.57868 13.5858 1.24289 14 1.24289C14.4142 1.24289 14.75 1.57868 14.75 1.99289V2.57622H16.6667C16.6757 2.57622 16.6847 2.57639 16.6937 2.57671C17.2581 2.59708 17.7914 2.84034 18.1767 3.25319C18.559 3.66271 18.7648 4.20599 18.75 4.76564V8.65956C18.75 9.07377 18.4142 9.40956 18 9.40956C17.5858 9.40956 17.25 9.07377 17.25 8.65956V4.75467C17.25 4.74647 17.2501 4.73828 17.2504 4.73009C17.2559 4.5624 17.1947 4.39937 17.0802 4.27671C16.9682 4.15672 16.8142 4.08495 16.6505 4.07622H14.75V5.99289C14.75 6.4071 14.4142 6.74289 14 6.74289C13.5858 6.74289 13.25 6.4071 13.25 5.99289V4.07622H10.75V5.99289C10.75 6.4071 10.4142 6.74289 10 6.74289C9.58578 6.74289 9.25 6.4071 9.25 5.99289V4.07622H6.75V5.99289C6.75 6.4071 6.41421 6.74289 6 6.74289C5.58578 6.74289 5.25 6.4071 5.25 5.99289V4.07622H3.34947C3.18584 4.08495 3.03178 4.15672 2.91978 4.27671C2.8053 4.39937 2.7441 4.5624 2.74959 4.73009C2.74986 4.73828 2.75 4.74647 2.75 4.75467V17.9929L2.74976 18.0116C2.7479 18.0863 2.76124 18.1605 2.78897 18.2299C2.8167 18.2993 2.85824 18.3623 2.91107 18.4151C2.96391 18.468 3.02692 18.5095 3.0963 18.5372C3.16567 18.565 3.23996 18.5783 3.31465 18.5765L3.33333 18.5762H8.66666C9.08088 18.5762 9.41666 18.912 9.41666 19.3262C9.41666 19.7404 9.08088 20.0762 8.66666 20.0762H3.3416C3.06721 20.0817 2.79448 20.032 2.53957 19.9301C2.28144 19.8269 2.04698 19.6724 1.85041 19.4758C1.65385 19.2792 1.49929 19.0448 1.39611 18.7866C1.29423 18.5317 1.24455 18.259 1.25 17.9846V4.76563C1.23522 4.20598 1.44099 3.66271 1.82325 3.25319C2.2086 2.84034 2.7419 2.59708 3.30628 2.57671C3.31529 2.57639 3.32431 2.57622 3.33333 2.57622H5.25V1.99289C5.25 1.57868 5.58578 1.24289 6 1.24289ZM19.3125 12.4077C19.3124 12.4078 19.3125 12.4077 19.3125 12.4077L12.6909 19.0293L12.2894 21.0368L14.2969 20.6353L20.9186 14.0137C21.0235 13.9089 21.1073 13.7839 21.1642 13.6469C21.221 13.5099 21.2502 13.363 21.2502 13.2147C21.2502 13.0663 21.221 12.9195 21.1642 12.7824C21.1073 12.6454 21.024 12.5209 20.919 12.4162C20.9124 12.4095 20.9059 12.4028 20.8995 12.3959C20.6887 12.1913 20.4062 12.0766 20.112 12.0766C19.8122 12.0766 19.5245 12.1958 19.3125 12.4077ZM18.252 11.3469C18.7453 10.8537 19.4144 10.5766 20.112 10.5766C20.8096 10.5766 21.4787 10.8537 21.972 11.3469C21.9797 11.3546 21.9872 11.3625 21.9946 11.3705C22.2317 11.6112 22.4202 11.8955 22.5497 12.2078C22.6821 12.5269 22.7502 12.8691 22.7502 13.2147C22.7502 13.5602 22.6821 13.9024 22.5497 14.2216C22.4174 14.5405 22.2236 14.8303 21.9792 15.0743M21.9792 15.0743L15.197 21.8566C15.0923 21.9613 14.9589 22.0326 14.8138 22.0617L11.4804 22.7283C11.2345 22.7775 10.9803 22.7005 10.803 22.5232C10.6257 22.3459 10.5487 22.0917 10.5979 21.8458L11.2646 18.5125C11.2936 18.3673 11.365 18.2339 11.4697 18.1292L18.252 11.3469" fill="currentColor"/>
</svg>
