<svg width="24" height="24" viewBox="0 0 24 24" fill="none" xmlns="http://www.w3.org/2000/svg">
<path fill-rule="evenodd" clip-rule="evenodd" d="M5.33333 2.75C5.01117 2.75 4.75 3.01117 4.75 3.33333V20.6667C4.75 20.9888 5.01117 21.25 5.33333 21.25H7.25V2.75H5.33333ZM5.33333 1.25C4.18274 1.25 3.25 2.18274 3.25 3.33333V20.6667C3.25 21.8173 4.18274 22.75 5.33333 22.75H18.6667C19.8173 22.75 20.75 21.8173 20.75 20.6667V3.33333C20.75 2.18274 19.8173 1.25 18.6667 1.25H5.33333ZM8.75 2.75V21.25H18.6667C18.9888 21.25 19.25 20.9888 19.25 20.6667V3.33333C19.25 3.01117 18.9888 2.75 18.6667 2.75H8.75ZM12 6.75C11.8453 6.75 11.6969 6.81146 11.5875 6.92085C11.4781 7.03025 11.4167 7.17862 11.4167 7.33333C11.4167 7.48804 11.4781 7.63642 11.5875 7.74581C11.6969 7.85521 11.8453 7.91667 12 7.91667H16C16.1547 7.91667 16.3031 7.85521 16.4125 7.74581C16.5219 7.63642 16.5833 7.48804 16.5833 7.33333C16.5833 7.17863 16.5219 7.03025 16.4125 6.92085C16.3031 6.81146 16.1547 6.75 16 6.75H12ZM10.5269 5.86019C10.9176 5.46949 11.4475 5.25 12 5.25H16C16.5525 5.25 17.0824 5.46949 17.4731 5.86019C17.8638 6.25089 18.0833 6.7808 18.0833 7.33333C18.0833 7.88587 17.8638 8.41577 17.4731 8.80647C17.0824 9.19717 16.5525 9.41667 16 9.41667H12C11.4475 9.41667 10.9176 9.19717 10.5269 8.80647C10.1362 8.41577 9.91667 7.88587 9.91667 7.33333C9.91667 6.7808 10.1362 6.2509 10.5269 5.86019Z" fill="currentColor"/>
</svg>
