<svg width="24" height="24" viewBox="0 0 24 24" fill="none" xmlns="http://www.w3.org/2000/svg">
<path fill-rule="evenodd" clip-rule="evenodd" d="M20.75 19.25C20.75 20.0784 20.0784 20.75 19.25 20.75L4.75 20.75C3.92157 20.75 3.25 20.0784 3.25 19.25L3.25 4.75C3.25 3.92157 3.92158 3.25 4.75 3.25L19.25 3.25C20.0784 3.25 20.75 3.92158 20.75 4.75L20.75 19.25ZM4.75 19.25L19.25 19.25L19.25 4.75L4.75 4.75L4.75 19.25Z" fill="currentColor"/>
<path fill-rule="evenodd" clip-rule="evenodd" d="M9 20.75C8.58579 20.75 8.25 20.4142 8.25 20L8.25 4C8.25 3.58579 8.58579 3.25 9 3.25C9.41422 3.25 9.75 3.58579 9.75 4L9.75 20C9.75 20.4142 9.41421 20.75 9 20.75Z" fill="currentColor"/>
<path fill-rule="evenodd" clip-rule="evenodd" d="M15.25 14.6036C15.25 15.049 14.7114 15.2721 14.3964 14.9571L11.7929 12.3536C11.5976 12.1583 11.5976 11.8417 11.7929 11.6464L14.3964 9.04289C14.7114 8.72791 15.25 8.95099 15.25 9.39645L15.25 14.6036Z" fill="currentColor"/>
</svg>
