<svg width="24" height="24" viewBox="0 0 24 24" fill="none" xmlns="http://www.w3.org/2000/svg">
<path fill-rule="evenodd" clip-rule="evenodd" d="M3.25 4.75C3.25 3.92157 3.92157 3.25 4.75 3.25H19.25C20.0784 3.25 20.75 3.92157 20.75 4.75V19.25C20.75 20.0784 20.0784 20.75 19.25 20.75H4.75C3.92157 20.75 3.25 20.0784 3.25 19.25V4.75ZM19.25 4.75H4.75V19.25H19.25V4.75Z" fill="currentColor"/>
<path fill-rule="evenodd" clip-rule="evenodd" d="M15 3.25C15.4142 3.25 15.75 3.58579 15.75 4V20C15.75 20.4142 15.4142 20.75 15 20.75C14.5858 20.75 14.25 20.4142 14.25 20V4C14.25 3.58579 14.5858 3.25 15 3.25Z" fill="currentColor"/>
<path fill-rule="evenodd" clip-rule="evenodd" d="M8.75 9.39645C8.75 8.95099 9.28857 8.72791 9.60355 9.04289L12.2071 11.6464C12.4024 11.8417 12.4024 12.1583 12.2071 12.3536L9.60355 14.9571C9.28857 15.2721 8.75 15.049 8.75 14.6036V9.39645Z" fill="currentColor"/>
</svg>
