<svg width="24" height="24" viewBox="0 0 24 24" fill="none" xmlns="http://www.w3.org/2000/svg">
<path fill-rule="evenodd" clip-rule="evenodd" d="M3.25 5C3.25 4.0335 4.0335 3.25 5 3.25H10C10.9665 3.25 11.75 4.0335 11.75 5V19C11.75 19.9665 10.9665 20.75 10 20.75H5C4.0335 20.75 3.25 19.9665 3.25 19V5ZM5 4.75C4.86193 4.75 4.75 4.86193 4.75 5V19C4.75 19.1381 4.86193 19.25 5 19.25H10C10.1381 19.25 10.25 19.1381 10.25 19V5C10.25 4.86193 10.1381 4.75 10 4.75H5Z" fill="currentColor"/>
<path fill-rule="evenodd" clip-rule="evenodd" d="M13.25 5C13.25 4.0335 14.0335 3.25 15 3.25H19C19.9665 3.25 20.75 4.0335 20.75 5V12C20.75 12.9665 19.9665 13.75 19 13.75H15C14.0335 13.75 13.25 12.9665 13.25 12V5ZM15 4.75C14.8619 4.75 14.75 4.86193 14.75 5V12C14.75 12.1381 14.8619 12.25 15 12.25H19C19.1381 12.25 19.25 12.1381 19.25 12V5C19.25 4.86193 19.1381 4.75 19 4.75H15Z" fill="currentColor"/>
<path fill-rule="evenodd" clip-rule="evenodd" d="M15 15.25C14.0335 15.25 13.25 16.0335 13.25 17V19C13.25 19.9665 14.0335 20.75 15 20.75H19C19.9665 20.75 20.75 19.9665 20.75 19V17C20.75 16.0335 19.9665 15.25 19 15.25H15ZM14.75 17C14.75 16.8619 14.8619 16.75 15 16.75H19C19.1381 16.75 19.25 16.8619 19.25 17V19C19.25 19.1381 19.1381 19.25 19 19.25H15C14.8619 19.25 14.75 19.1381 14.75 19V17Z" fill="currentColor"/>
</svg>
