<svg width="24" height="24" viewBox="0 0 24 24" fill="none" xmlns="http://www.w3.org/2000/svg">
<path fill-rule="evenodd" clip-rule="evenodd" d="M8.25 6.25C7.42157 6.25 6.75 6.92157 6.75 7.75V16.25C6.75 17.0784 7.42157 17.75 8.25 17.75H9.75C10.5784 17.75 11.25 17.0784 11.25 16.25V7.75C11.25 6.92157 10.5784 6.25 9.75 6.25H8.25ZM8.25 7.75L9.75 7.75V16.25H8.25V7.75Z" fill="currentColor"/>
<path fill-rule="evenodd" clip-rule="evenodd" d="M14.25 6.25C13.4216 6.25 12.75 6.92157 12.75 7.75V16.25C12.75 17.0784 13.4216 17.75 14.25 17.75H15.75C16.5784 17.75 17.25 17.0784 17.25 16.25V7.75C17.25 6.92157 16.5784 6.25 15.75 6.25H14.25ZM14.25 7.75L15.75 7.75V16.25H14.25V7.75Z" fill="currentColor"/>
</svg>
