<svg width="24" height="24" viewBox="0 0 24 24" fill="none" xmlns="http://www.w3.org/2000/svg">
<path d="M9.5 5.25C10.1904 5.25 10.75 5.80964 10.75 6.5V17.5C10.75 18.1904 10.1904 18.75 9.5 18.75H6.5C5.80964 18.75 5.25 18.1904 5.25 17.5V6.5C5.25 5.80964 5.80964 5.25 6.5 5.25H9.5Z" fill="currentColor"/>
<path d="M17.5 5.25C18.1904 5.25 18.75 5.80964 18.75 6.5V17.5C18.75 18.1904 18.1904 18.75 17.5 18.75H14.5C13.8096 18.75 13.25 18.1904 13.25 17.5V6.5C13.25 5.80964 13.8096 5.25 14.5 5.25H17.5Z" fill="currentColor"/>
</svg>
