<svg width="24" height="24" viewBox="0 0 24 24" fill="none" xmlns="http://www.w3.org/2000/svg">
<path fill-rule="evenodd" clip-rule="evenodd" d="M6.25 6.5C6.25 4.15279 8.15279 2.25 10.5 2.25C12.8472 2.25 14.75 4.15279 14.75 6.5C14.75 8.84721 12.8472 10.75 10.5 10.75C8.15279 10.75 6.25 8.84721 6.25 6.5ZM10.5 3.75C8.98122 3.75 7.75 4.98122 7.75 6.5C7.75 8.01878 8.98122 9.25 10.5 9.25C12.0188 9.25 13.25 8.01878 13.25 6.5C13.25 4.98122 12.0188 3.75 10.5 3.75Z" fill="currentColor"/>
<path d="M10.5 12.75C7.32436 12.75 4.75 15.3244 4.75 18.5C4.75 18.9142 4.41421 19.25 4 19.25C3.58579 19.25 3.25 18.9142 3.25 18.5C3.25 14.4959 6.49594 11.25 10.5 11.25C11.277 11.25 12.0269 11.3725 12.7306 11.5998C13.1247 11.7271 13.341 12.1499 13.2137 12.5441C13.0864 12.9382 12.6636 13.1545 12.2694 13.0272C11.713 12.8474 11.1186 12.75 10.5 12.75Z" fill="currentColor"/>
<path d="M18.0318 14.2512C18.2581 14.242 18.4833 14.2875 18.6881 14.3838C18.893 14.4801 19.0714 14.6243 19.2082 14.8041C19.4592 15.1336 19.9297 15.1973 20.2593 14.9464C20.5888 14.6954 20.6525 14.2249 20.4016 13.8953C20.1184 13.5234 19.7495 13.2253 19.3264 13.0264C19.1411 12.9393 18.9479 12.8723 18.75 12.8261V12C18.75 11.5858 18.4142 11.25 18 11.25C17.5858 11.25 17.25 11.5858 17.25 12V12.8356C16.8364 12.93 16.4553 13.102 16.137 13.3402C15.6327 13.7178 15.25 14.2971 15.25 15.0009C15.25 15.7046 15.6326 16.2841 16.1368 16.6619C16.6408 17.0395 17.3026 17.251 18.0015 17.251C18.4074 17.251 18.7454 17.3751 18.965 17.5398C19.1843 17.7042 19.25 17.8743 19.25 17.9992C19.25 18.1232 19.1845 18.2935 18.9639 18.4587C18.7432 18.6239 18.4039 18.7483 17.9976 18.7483L17.983 18.7484L17.9678 18.7489C17.7413 18.7579 17.516 18.7122 17.3111 18.6159C17.1061 18.5195 16.9276 18.3753 16.7905 18.1956C16.5393 17.8662 16.0687 17.8028 15.7393 18.054C15.41 18.3052 15.3466 18.7758 15.5978 19.1052C15.8811 19.4767 16.2499 19.7745 16.6728 19.9733C16.8583 20.0605 17.0518 20.1276 17.25 20.1738V21C17.25 21.4142 17.5858 21.75 18 21.75C18.4142 21.75 18.75 21.4142 18.75 21V20.1643C19.1636 20.0698 19.5447 19.8977 19.8629 19.6594C20.3671 19.2819 20.75 18.7027 20.75 17.9992C20.75 17.2965 20.3687 16.7174 19.8649 16.3397C19.3613 15.9621 18.7001 15.751 18.0015 15.751C17.5957 15.751 17.2568 15.6267 17.0362 15.4614C16.8159 15.2963 16.75 15.1257 16.75 15.0009C16.75 14.8762 16.8157 14.7059 17.036 14.541C17.2565 14.376 17.5955 14.2518 18.0015 14.2518C18.0116 14.2518 18.0217 14.2516 18.0318 14.2512Z" fill="currentColor"/>
</svg>
