<svg width="24" height="24" viewBox="0 0 24 24" fill="none" xmlns="http://www.w3.org/2000/svg">
<path fill-rule="evenodd" clip-rule="evenodd" d="M1.66493 1.66405C1.93061 1.39837 2.29094 1.24911 2.66667 1.24911H5.72805C6.10212 1.25047 6.46058 1.39927 6.72565 1.66322L6.72703 1.66459L7.67083 2.60929C7.93445 2.87474 8.08268 3.23348 8.08333 3.60759L8.08333 3.60889L8.08333 8C8.08283 8.3754 7.93336 8.73625 7.66773 9.00152C7.40211 9.26679 7.04206 9.41578 6.66667 9.41578H2.66667C2.29094 9.41578 1.93061 9.26653 1.66493 9.00085C1.39926 8.73517 1.25 8.37484 1.25 7.99911V2.66578C1.25 2.29006 1.39926 1.92972 1.66493 1.66405ZM2.75 2.74911V7.91578H6.58333V3.64309L5.69021 2.74911H2.75ZM13.692 5.8531C12.5945 5.57053 11.4438 5.56623 10.3442 5.84058C9.94233 5.94086 9.53525 5.69635 9.43497 5.29445C9.3347 4.89256 9.57921 4.48547 9.98111 4.3852C11.3228 4.05044 12.7268 4.05569 14.066 4.40047C15.4052 4.74525 16.6372 5.41867 17.6504 6.35973C18.6637 7.30079 19.4261 8.47976 19.8688 9.78985C20.3114 11.0999 20.4202 12.4997 20.1853 13.8625C20.115 14.2707 19.727 14.5446 19.3188 14.4742C18.9106 14.4039 18.6368 14.0159 18.7071 13.6077C18.8996 12.4909 18.8104 11.3437 18.4477 10.27C18.0849 9.19629 17.46 8.23006 16.6296 7.45882C15.7992 6.68757 14.7895 6.13567 13.692 5.8531ZM12 9.59978C11.1702 9.59978 10.4976 10.2724 10.4976 11.1022C10.4976 11.932 11.1702 12.6047 12 12.6047C12.8298 12.6047 13.5024 11.932 13.5024 11.1022C13.5024 10.2724 12.8298 9.59978 12 9.59978ZM8.99756 11.1022C8.99756 9.44402 10.3418 8.09978 12 8.09978C13.6582 8.09978 15.0024 9.44402 15.0024 11.1022C15.0024 12.1935 14.4203 13.1488 13.5496 13.6744C13.8397 13.7821 14.1191 13.9202 14.383 14.0873C15.0958 14.5387 15.6657 15.1833 16.0265 15.946C16.2035 16.3205 16.0435 16.7676 15.6691 16.9447C15.2946 17.1218 14.8475 16.9618 14.6704 16.5873C14.4312 16.0814 14.0532 15.6539 13.5804 15.3545C13.1077 15.0551 12.5596 14.8962 12 14.8962C11.4404 14.8962 10.8923 15.0551 10.4196 15.3545C9.9468 15.6539 9.5688 16.0814 9.32956 16.5873C9.15248 16.9618 8.70537 17.1218 8.33092 16.9447C7.95647 16.7676 7.79647 16.3205 7.97355 15.946C8.33426 15.1833 8.90421 14.5387 9.61704 14.0873C9.88091 13.9202 10.1603 13.7821 10.4504 13.6744C9.57973 13.1488 8.99756 12.1935 8.99756 11.1022ZM4.68371 10.4077C5.09183 10.4785 5.3653 10.8667 5.29453 11.2748C5.11395 12.3161 5.17815 13.3851 5.48205 14.3972C5.78595 15.4094 6.32122 16.3369 7.0455 17.1065C7.76978 17.8761 8.66321 18.4665 9.65509 18.8312C10.647 19.1959 11.7101 19.3247 12.7604 19.2075C13.1721 19.1616 13.543 19.4581 13.5889 19.8697C13.6349 20.2814 13.3384 20.6523 12.9267 20.6983C11.6451 20.8412 10.3478 20.684 9.13751 20.2391C7.92717 19.7941 6.83698 19.0736 5.95319 18.1345C5.06939 17.1955 4.41624 16.0636 4.04541 14.8286C3.67458 13.5935 3.59624 12.2891 3.81659 11.0185C3.88736 10.6104 4.27559 10.3369 4.68371 10.4077ZM20.5676 16.5281C20.4781 16.5281 20.3895 16.5457 20.3069 16.58C20.2242 16.6142 20.1492 16.6644 20.0859 16.7276L18.9282 17.8853L19.8929 18.85L21.0507 17.6922C21.1784 17.5643 21.2502 17.391 21.2502 17.2102C21.2502 17.0363 21.1837 16.8691 21.0648 16.7428C21.0596 16.7378 21.0543 16.7328 21.0492 16.7276C20.986 16.6644 20.9109 16.6142 20.8282 16.58C20.7456 16.5457 20.657 16.5281 20.5676 16.5281ZM18.8322 19.9107L17.8676 18.946L16.7082 20.1053C16.7082 20.1054 16.7083 20.1053 16.7082 20.1053C16.5804 20.2333 16.5085 20.4069 16.5085 20.5877C16.5086 20.7686 16.5805 20.9421 16.7084 21.07C16.8364 21.1979 17.0099 21.2697 17.1908 21.2697C17.3717 21.2696 17.5452 21.1977 17.6731 21.0698L18.8322 19.9107ZM17.3682 17.3241C17.3573 17.3337 17.3467 17.3437 17.3363 17.3541C17.326 17.3645 17.3159 17.3751 17.3063 17.3859L15.6474 19.0448C15.2383 19.4541 15.0084 20.0093 15.0085 20.588C15.0087 21.1668 15.2387 21.7218 15.648 22.1309C16.0573 22.54 16.6124 22.7698 17.1911 22.7697C17.7698 22.7696 18.3248 22.5396 18.7339 22.1303C18.7338 22.1304 18.7339 22.1303 18.7339 22.1303L22.1117 18.7526C22.5203 18.3434 22.7502 17.7885 22.7502 17.2102C22.7502 16.632 22.5206 16.0773 22.112 15.6682C22.1032 15.6594 22.0941 15.6508 22.0849 15.6424C21.8877 15.4514 21.6561 15.2993 21.4023 15.1942C21.1376 15.0845 20.854 15.0281 20.5676 15.0281C20.2811 15.0281 19.9975 15.0845 19.7328 15.1942C19.4682 15.3038 19.2278 15.4645 19.0252 15.667C19.0252 15.667 19.0252 15.667 19.0252 15.667L17.3682 17.3241Z" fill="currentColor"/>
</svg>
