<svg width="24" height="24" viewBox="0 0 24 24" fill="none" xmlns="http://www.w3.org/2000/svg">
<path fill-rule="evenodd" clip-rule="evenodd" d="M9.1531 2.31753C9.73134 1.73929 10.5156 1.41444 11.3334 1.41444C12.1511 1.41444 12.9354 1.73929 13.5136 2.31753C14.0918 2.89577 14.4167 3.68003 14.4167 4.49778C14.4167 5.31553 14.0918 6.09979 13.5136 6.67802C12.9354 7.25626 12.1511 7.58111 11.3334 7.58111C10.5156 7.58111 9.73134 7.25626 9.1531 6.67802C8.57487 6.09979 8.25002 5.31553 8.25002 4.49778C8.25002 3.68003 8.57487 2.89577 9.1531 2.31753ZM11.3334 2.91444C10.9134 2.91444 10.5107 3.08126 10.2138 3.37819C9.91683 3.67512 9.75002 4.07785 9.75002 4.49778C9.75002 4.9177 9.91683 5.32043 10.2138 5.61736C10.5107 5.9143 10.9134 6.08111 11.3334 6.08111C11.7533 6.08111 12.156 5.9143 12.4529 5.61736C12.7499 5.32043 12.9167 4.9177 12.9167 4.49778C12.9167 4.07785 12.7499 3.67512 12.4529 3.37819C12.156 3.08126 11.7533 2.91444 11.3334 2.91444ZM11.3334 9.24778C11.1786 9.24778 11.0303 9.30924 10.9209 9.41863C10.8115 9.52803 10.75 9.6764 10.75 9.83111V16.4978C10.75 16.6525 10.8115 16.8009 10.9209 16.9103C11.0303 17.0197 11.1786 17.0811 11.3334 17.0811H15.1751C15.4592 17.0811 15.7189 17.2416 15.8459 17.4956L17.4779 20.7587C17.5471 20.8972 17.6686 21.0026 17.8154 21.0515C17.9623 21.1005 18.1226 21.0891 18.2611 21.0198C18.3995 20.9506 18.5048 20.8292 18.5538 20.6824C18.6027 20.5355 18.5913 20.3752 18.5221 20.2367L16.5221 16.2368C16.5221 16.2368 16.5221 16.2369 16.5221 16.2368C16.4737 16.14 16.3991 16.0584 16.307 16.0015C16.2148 15.9446 16.1086 15.9144 16.0002 15.9144H12.6667C12.2525 15.9144 11.9167 15.5787 11.9167 15.1644V9.83111C11.9167 9.6764 11.8552 9.52803 11.7458 9.41863C11.6364 9.30924 11.4881 9.24778 11.3334 9.24778ZM9.86021 8.35797C10.2509 7.96727 10.7808 7.74778 11.3334 7.74778C11.8859 7.74778 12.4158 7.96727 12.8065 8.35797C13.1972 8.74867 13.4167 9.27858 13.4167 9.83111V14.4144H15.9998C15.9997 14.4144 15.9999 14.4144 15.9998 14.4144C16.3867 14.4144 16.7662 14.522 17.0953 14.7254C17.4245 14.9287 17.6906 15.2198 17.8637 15.5658L19.8637 19.5659C20.1109 20.0602 20.1515 20.6324 19.9768 21.1567C19.802 21.681 19.4262 22.1143 18.9319 22.3615C18.4376 22.6086 17.8654 22.6493 17.3411 22.4745C16.8169 22.2998 16.3835 21.924 16.1363 21.4297C16.1363 21.4297 16.1364 21.4297 16.1363 21.4297L14.7117 18.5811H11.3334C10.7808 18.5811 10.2509 18.3616 9.86021 17.9709C9.46951 17.5802 9.25002 17.0503 9.25002 16.4978V9.83111C9.25002 9.27858 9.46951 8.74867 9.86021 8.35797ZM7.9829 11.5033C8.18998 11.862 8.06704 12.3207 7.7083 12.5278C6.65539 13.1356 5.88705 14.1367 5.57231 15.311C5.25757 16.4853 5.42221 17.7366 6.03001 18.7895C6.63781 19.8424 7.63898 20.6107 8.81328 20.9255C9.98758 21.2402 11.2388 21.0756 12.2917 20.4678C12.6505 20.2607 13.1091 20.3836 13.3162 20.7424C13.5233 21.1011 13.4004 21.5598 13.0416 21.7669C11.6442 22.5736 9.98351 22.7921 8.42495 22.3743C6.86639 21.9566 5.5376 20.9369 4.73092 19.5394C3.92423 18.1419 3.70572 16.4813 4.12345 14.9227C4.54118 13.3641 5.56094 12.0354 6.9584 11.2287C7.31713 11.0216 7.77581 11.1445 7.9829 11.5033Z" fill="currentColor"/>
</svg>
