<svg width="24" height="24" viewBox="0 0 24 24" fill="none" xmlns="http://www.w3.org/2000/svg">
<path fill-rule="evenodd" clip-rule="evenodd" d="M9.5 3.75C7.98122 3.75 6.75 4.98122 6.75 6.5C6.75 8.01878 7.98122 9.25 9.5 9.25C11.0188 9.25 12.25 8.01878 12.25 6.5C12.25 4.98122 11.0188 3.75 9.5 3.75ZM5.25 6.5C5.25 4.15279 7.15279 2.25 9.5 2.25C11.8472 2.25 13.75 4.15279 13.75 6.5C13.75 8.84721 11.8472 10.75 9.5 10.75C7.15279 10.75 5.25 8.84721 5.25 6.5ZM9.5 12.75C6.32436 12.75 3.75 15.3244 3.75 18.5C3.75 18.9142 3.41421 19.25 3 19.25C2.58579 19.25 2.25 18.9142 2.25 18.5C2.25 14.4959 5.49594 11.25 9.5 11.25C10.7057 11.25 11.8446 11.5449 12.8466 12.0671C13.214 12.2586 13.3565 12.7115 13.1651 13.0788C12.9736 13.4462 12.5207 13.5887 12.1534 13.3973C11.3603 12.984 10.4586 12.75 9.5 12.75ZM17 14.75C15.7574 14.75 14.75 15.7574 14.75 17C14.75 18.2426 15.7574 19.25 17 19.25C18.2426 19.25 19.25 18.2426 19.25 17C19.25 15.7574 18.2426 14.75 17 14.75ZM13.25 17C13.25 14.9289 14.9289 13.25 17 13.25C19.0711 13.25 20.75 14.9289 20.75 17C20.75 17.7643 20.5213 18.4752 20.1287 19.068L22.0303 20.9697C22.3232 21.2626 22.3232 21.7374 22.0303 22.0303C21.7374 22.3232 21.2626 22.3232 20.9697 22.0303L19.068 20.1287C18.4752 20.5213 17.7643 20.75 17 20.75C14.9289 20.75 13.25 19.0711 13.25 17Z" fill="currentColor"/>
</svg>
