<svg width="24" height="24" viewBox="0 0 24 24" fill="none" xmlns="http://www.w3.org/2000/svg">
<path fill-rule="evenodd" clip-rule="evenodd" d="M4.91739 2.25426C5.55814 1.61351 6.42718 1.25354 7.33333 1.25354C8.23949 1.25354 9.10853 1.61351 9.74928 2.25426C10.39 2.89501 10.75 3.76405 10.75 4.67021C10.75 5.57636 10.39 6.44541 9.74928 7.08615C9.57741 7.25802 9.38912 7.40969 9.18809 7.53962C10.1025 7.83238 10.9434 8.34023 11.6349 9.03175C12.7757 10.1726 13.4167 11.7199 13.4167 13.3333V15.3333C13.4167 15.8859 13.1972 16.4158 12.8065 16.8065C12.4158 17.1972 11.8859 17.4167 11.3333 17.4167H10.75V20.6667C10.75 21.2192 10.5305 21.7491 10.1398 22.1398C9.74911 22.5305 9.2192 22.75 8.66667 22.75H6C5.44747 22.75 4.91756 22.5305 4.52686 22.1398C4.13616 21.7491 3.91667 21.2192 3.91667 20.6667V17.4167H3.33333C2.7808 17.4167 2.25089 17.1972 1.86019 16.8065C1.46949 16.4158 1.25 15.8859 1.25 15.3333V13.3333C1.25 11.7199 1.89092 10.1726 3.03177 9.03175C3.72329 8.34023 4.56416 7.83239 5.47857 7.53963C5.27755 7.40969 5.08925 7.25802 4.91739 7.08615C4.27664 6.44541 3.91667 5.57636 3.91667 4.67021C3.91667 3.76405 4.27664 2.89501 4.91739 2.25426ZM7.33333 2.75354C6.825 2.75354 6.33749 2.95547 5.97805 3.31492C5.6186 3.67436 5.41667 4.16188 5.41667 4.67021C5.41667 5.17854 5.6186 5.66605 5.97805 6.02549C6.33749 6.38494 6.825 6.58687 7.33333 6.58687C7.84166 6.58687 8.32918 6.38494 8.68862 6.02549C9.04807 5.66605 9.25 5.17854 9.25 4.67021C9.25 4.16187 9.04807 3.67436 8.68862 3.31492C8.32918 2.95547 7.84167 2.75354 7.33333 2.75354ZM19.5491 2.73687C19.8805 2.48835 20.3506 2.5555 20.5991 2.88687L22.5991 5.55354C22.7991 5.82016 22.7991 6.18675 22.5992 6.45341L20.6001 9.12008C20.3516 9.4515 19.8816 9.51876 19.5501 9.2703C19.2187 9.02184 19.1514 8.55176 19.3999 8.22033L20.4995 6.75354H15.3324C14.9182 6.75354 14.5824 6.41775 14.5824 6.00354C14.5824 5.58933 14.9182 5.25354 15.3324 5.25354H20.4991L19.3991 3.78687C19.1506 3.4555 19.2177 2.9854 19.5491 2.73687ZM7.33333 8.74999C6.11776 8.74999 4.95197 9.23287 4.09243 10.0924C3.23289 10.952 2.75 12.1177 2.75 13.3333V15.3333C2.75 15.488 2.81146 15.6364 2.92085 15.7458C3.03025 15.8552 3.17862 15.9167 3.33333 15.9167H4.66667C5.08088 15.9167 5.41667 16.2524 5.41667 16.6667V20.6667C5.41667 20.8214 5.47812 20.9697 5.58752 21.0791C5.69692 21.1885 5.84529 21.25 6 21.25H8.66667C8.82138 21.25 8.96975 21.1885 9.07915 21.0791C9.18854 20.9697 9.25 20.8214 9.25 20.6667V16.6667C9.25 16.2524 9.58579 15.9167 10 15.9167H11.3333C11.488 15.9167 11.6364 15.8552 11.7458 15.7458C11.8552 15.6364 11.9167 15.488 11.9167 15.3333V13.3333C11.9167 12.1177 11.4338 10.952 10.5742 10.0924C9.7147 9.23287 8.54891 8.74999 7.33333 8.74999Z" fill="currentColor"/>
</svg>
