<svg width="24" height="24" viewBox="0 0 24 24" fill="none" xmlns="http://www.w3.org/2000/svg">
<path fill-rule="evenodd" clip-rule="evenodd" d="M4.3986 4.3986C6.41462 2.38259 9.14892 1.25 12 1.25C14.8511 1.25 17.5854 2.38259 19.6014 4.3986C21.6174 6.41462 22.75 9.14892 22.75 12C22.75 14.8511 21.6174 17.5854 19.6014 19.6014C17.5854 21.6174 14.8511 22.75 12 22.75C9.14892 22.75 6.41462 21.6174 4.3986 19.6014C2.38259 17.5854 1.25 14.8511 1.25 12C1.25 9.14892 2.38259 6.41462 4.3986 4.3986ZM12 2.75C9.54675 2.75 7.19397 3.72455 5.45926 5.45926C3.72455 7.19397 2.75 9.54675 2.75 12C2.75 14.4533 3.72455 16.806 5.45926 18.5407C7.19397 20.2755 9.54675 21.25 12 21.25C14.4533 21.25 16.806 20.2755 18.5407 18.5407C20.2755 16.806 21.25 14.4533 21.25 12C21.25 9.54675 20.2755 7.19397 18.5407 5.45926C16.806 3.72455 14.4533 2.75 12 2.75ZM10.0555 4.72212C10.5712 4.2064 11.2707 3.91667 12 3.91667C12.7293 3.91667 13.4288 4.2064 13.9445 4.72212C14.4603 5.23785 14.75 5.93732 14.75 6.66667C14.75 7.39601 14.4603 8.09549 13.9445 8.61121C13.606 8.94975 13.1883 9.19091 12.7349 9.31666C13.5447 9.46483 14.2971 9.85572 14.8874 10.446C15.6531 11.2118 16.0833 12.2504 16.0833 13.3333V15.3333C16.0833 15.7475 15.7475 16.0833 15.3333 16.0833H14.6353L14.0731 19.4566C14.0129 19.8183 13.7 20.0833 13.3333 20.0833H10.6667C10.3 20.0833 9.98715 19.8183 9.92687 19.4566L9.36465 16.0833H8.66667C8.25245 16.0833 7.91667 15.7475 7.91667 15.3333V13.3333C7.91667 12.2504 8.34687 11.2118 9.11265 10.446C9.70291 9.85572 10.4553 9.46483 11.2651 9.31666C10.8117 9.19091 10.394 8.94975 10.0555 8.61121C9.53973 8.09549 9.25 7.39601 9.25 6.66667C9.25 5.93732 9.53973 5.23785 10.0555 4.72212ZM12 5.41667C11.6685 5.41667 11.3505 5.54836 11.1161 5.78278C10.8817 6.0172 10.75 6.33515 10.75 6.66667C10.75 6.99819 10.8817 7.31613 11.1161 7.55055C11.3505 7.78497 11.6685 7.91667 12 7.91667C12.3315 7.91667 12.6495 7.78497 12.8839 7.55055C13.1183 7.31613 13.25 6.99819 13.25 6.66667C13.25 6.33515 13.1183 6.0172 12.8839 5.78278C12.6495 5.54836 12.3315 5.41667 12 5.41667ZM12 10.75C11.3149 10.75 10.6578 11.0222 10.1733 11.5066C9.68884 11.9911 9.41667 12.6482 9.41667 13.3333V14.5833H10C10.3666 14.5833 10.6795 14.8484 10.7398 15.21L11.302 18.5833H12.698L13.2602 15.21C13.3205 14.8484 13.6334 14.5833 14 14.5833H14.5833V13.3333C14.5833 12.6482 14.3112 11.9911 13.8267 11.5066C13.3422 11.0222 12.6851 10.75 12 10.75Z" fill="currentColor"/>
</svg>
