<svg width="24" height="24" viewBox="0 0 24 24" fill="none" xmlns="http://www.w3.org/2000/svg">
<path fill-rule="evenodd" clip-rule="evenodd" d="M8.16976 2.8365C9.18558 1.82068 10.5633 1.25 11.9999 1.25C13.4365 1.25 14.8143 1.82068 15.8301 2.8365C16.8459 3.85233 17.4166 5.23008 17.4166 6.66667C17.4166 8.10326 16.8459 9.48101 15.8301 10.4968C14.8143 11.5126 13.4365 12.0833 11.9999 12.0833C10.5633 12.0833 9.18558 11.5126 8.16976 10.4968C7.15393 9.48101 6.58325 8.10326 6.58325 6.66667C6.58325 5.23008 7.15393 3.85233 8.16976 2.8365ZM11.9999 2.75C10.9612 2.75 9.96493 3.16265 9.23042 3.89717C8.4959 4.63168 8.08325 5.6279 8.08325 6.66667C8.08325 7.70543 8.4959 8.70165 9.23042 9.43617C9.96493 10.1707 10.9612 10.5833 11.9999 10.5833C13.0387 10.5833 14.0349 10.1707 14.7694 9.43617C15.5039 8.70165 15.9166 7.70543 15.9166 6.66667C15.9166 5.6279 15.5039 4.63168 14.7694 3.89717C14.0349 3.16265 13.0387 2.75 11.9999 2.75ZM11.9999 14.0833C9.90029 14.0833 7.88665 14.9174 6.40199 16.4021C4.91733 17.8867 4.08325 19.9004 4.08325 22C4.08325 22.4142 3.74747 22.75 3.33325 22.75C2.91904 22.75 2.58325 22.4142 2.58325 22C2.58325 19.5025 3.57536 17.1074 5.34133 15.3414C7.1073 13.5754 9.50246 12.5833 11.9999 12.5833C14.4974 12.5833 16.8925 13.5754 18.6585 15.3414C20.4245 17.1074 21.4166 19.5025 21.4166 22C21.4166 22.4142 21.0808 22.75 20.6666 22.75C20.2524 22.75 19.9166 22.4142 19.9166 22C19.9166 19.9004 19.0825 17.8867 17.5978 16.4021C16.1132 14.9174 14.0995 14.0833 11.9999 14.0833Z" fill="currentColor"/>
</svg>
