<svg width="24" height="24" viewBox="0 0 24 24" fill="none" xmlns="http://www.w3.org/2000/svg">
<path fill-rule="evenodd" clip-rule="evenodd" d="M8.5 1.25C6.15279 1.25 4.25 3.15279 4.25 5.5C4.25 7.84721 6.15279 9.75 8.5 9.75C10.8472 9.75 12.75 7.84721 12.75 5.5C12.75 3.15279 10.8472 1.25 8.5 1.25ZM5.75 5.5C5.75 3.98122 6.98122 2.75 8.5 2.75C10.0188 2.75 11.25 3.98122 11.25 5.5C11.25 7.01878 10.0188 8.25 8.5 8.25C6.98122 8.25 5.75 7.01878 5.75 5.5Z" fill="currentColor"/>
<path d="M13.8069 17.2871C13.8435 17.3755 13.8978 17.4584 13.9697 17.5303L15.9697 19.5303C16.2626 19.8232 16.7374 19.8232 17.0303 19.5303C17.3232 19.2374 17.3232 18.7626 17.0303 18.4697L16.3107 17.75H19.5C19.9142 17.75 20.25 17.4142 20.25 17C20.25 16.5858 19.9142 16.25 19.5 16.25H16.3107L17.0303 15.5303C17.3232 15.2374 17.3232 14.7626 17.0303 14.4697C16.7374 14.1768 16.2626 14.1768 15.9697 14.4697L13.9697 16.4697C13.8978 16.5416 13.8435 16.6245 13.8069 16.7129C13.7702 16.8013 13.75 16.8983 13.75 17C13.75 17.1017 13.7702 17.1987 13.8069 17.2871Z" fill="currentColor"/>
<path fill-rule="evenodd" clip-rule="evenodd" d="M17 11.25C15.475 11.25 14.0125 11.8558 12.9341 12.9341C11.8558 14.0125 11.25 15.475 11.25 17C11.25 18.525 11.8558 19.9875 12.9341 21.0659C14.0125 22.1442 15.475 22.75 17 22.75C18.525 22.75 19.9875 22.1442 21.0659 21.0659C22.1442 19.9875 22.75 18.525 22.75 17C22.75 15.475 22.1442 14.0125 21.0659 12.9341C19.9875 11.8558 18.525 11.25 17 11.25ZM13.9948 13.9948C14.7918 13.1978 15.8728 12.75 17 12.75C18.1272 12.75 19.2082 13.1978 20.0052 13.9948C20.8022 14.7918 21.25 15.8728 21.25 17C21.25 18.1272 20.8022 19.2082 20.0052 20.0052C19.2082 20.8022 18.1272 21.25 17 21.25C15.8728 21.25 14.7918 20.8022 13.9948 20.0052C13.1978 19.2082 12.75 18.1272 12.75 17C12.75 15.8728 13.1978 14.7918 13.9948 13.9948Z" fill="currentColor"/>
<path d="M8.5 11.75C5.32436 11.75 2.75 14.3244 2.75 17.5C2.75 17.9142 2.41421 18.25 2 18.25C1.58579 18.25 1.25 17.9142 1.25 17.5C1.25 13.4959 4.49594 10.25 8.5 10.25C9.70566 10.25 10.8446 10.5449 11.8466 11.0671C12.214 11.2586 12.3565 11.7115 12.1651 12.0788C11.9736 12.4462 11.5207 12.5887 11.1534 12.3973C10.3603 11.984 9.45859 11.75 8.5 11.75Z" fill="currentColor"/>
</svg>
