<svg width="24" height="24" viewBox="0 0 24 24" fill="none" xmlns="http://www.w3.org/2000/svg">
<path fill-rule="evenodd" clip-rule="evenodd" d="M8.5 6.25C7.25736 6.25 6.25 7.25736 6.25 8.5C6.25 9.74264 7.25736 10.75 8.5 10.75C9.74264 10.75 10.75 9.74264 10.75 8.5C10.75 7.25736 9.74264 6.25 8.5 6.25ZM7.75 8.5C7.75 8.08579 8.08579 7.75 8.5 7.75C8.91421 7.75 9.25 8.08579 9.25 8.5C9.25 8.91421 8.91421 9.25 8.5 9.25C8.08579 9.25 7.75 8.91421 7.75 8.5Z" fill="currentColor"/>
<path fill-rule="evenodd" clip-rule="evenodd" d="M5.5 3.25C4.25736 3.25 3.25 4.25736 3.25 5.5V18.5C3.25 19.7426 4.25736 20.75 5.5 20.75H18.5C19.7426 20.75 20.75 19.7426 20.75 18.5V5.5C20.75 4.25736 19.7426 3.25 18.5 3.25H5.5ZM4.75 18.5V17.75H5.49625C5.49875 17.75 5.50125 17.75 5.50375 17.75H19.25V18.5C19.25 18.9142 18.9142 19.25 18.5 19.25H5.5C5.08579 19.25 4.75 18.9142 4.75 18.5ZM7.31067 16.25H19.25V5.5C19.25 5.08579 18.9142 4.75 18.5 4.75H5.5C5.08579 4.75 4.75 5.08579 4.75 5.5V16.25H5.18935L9.43934 12C10.0251 11.4142 10.9749 11.4142 11.5607 12L12.5 12.9393L14.9393 10.5C15.5251 9.91422 16.4749 9.91422 17.0607 10.5L18.0303 11.4697C18.3232 11.7626 18.3232 12.2374 18.0303 12.5303C17.7374 12.8232 17.2626 12.8232 16.9697 12.5303L16 11.5607L13.0303 14.5303C12.7374 14.8232 12.2626 14.8232 11.9697 14.5303L10.5 13.0607L7.31067 16.25Z" fill="currentColor"/>
</svg>
