<svg width="24" height="24" viewBox="0 0 24 24" fill="none" xmlns="http://www.w3.org/2000/svg">
<path d="M13.5 10.5C13.5 11.3284 12.8284 12 12 12C11.1716 12 10.5 11.3284 10.5 10.5C10.5 9.67157 11.1716 9 12 9C12.8284 9 13.5 9.67157 13.5 10.5Z" fill="currentColor"/>
<path fill-rule="evenodd" clip-rule="evenodd" d="M8.22523 7.88614C7.77044 5.91397 10.1432 4.54409 11.6237 5.92403C11.8357 6.1216 12.1643 6.1216 12.3763 5.92403C13.8569 4.54409 16.2296 5.91397 15.7748 7.88614C15.7097 8.1685 15.874 8.45313 16.1511 8.53792C18.0864 9.13014 18.0864 11.8699 16.1511 12.4621C15.874 12.5469 15.7097 12.8316 15.7748 13.1139C16.1929 14.927 14.2212 16.2311 12.75 15.3574V18C12.75 18.4142 12.4142 18.75 12 18.75C11.5858 18.75 11.25 18.4142 11.25 18V15.3574C9.7788 16.2311 7.80712 14.927 8.22523 13.1139C8.29034 12.8316 8.12601 12.5469 7.84892 12.4621C5.91358 11.8699 5.91358 9.13014 7.84892 8.53792C8.12601 8.45313 8.29034 8.16849 8.22523 7.88614ZM8.28784 9.97227C7.76728 10.1316 7.76728 10.8685 8.28784 11.0278C9.31799 11.343 9.92895 12.4012 9.68687 13.451C9.56454 13.9814 10.2027 14.3499 10.601 13.9787C11.389 13.2442 12.611 13.2442 13.399 13.9787C13.7973 14.3499 14.4355 13.9814 14.3131 13.451C14.0711 12.4012 14.682 11.343 15.7122 11.0278C16.2327 10.8685 16.2327 10.1316 15.7122 9.97226C14.682 9.65704 14.0711 8.59882 14.3131 7.54907C14.4355 7.01861 13.7973 6.65014 13.399 7.02131C12.611 7.75584 11.389 7.75584 10.601 7.02131C10.2027 6.65014 9.56454 7.01861 9.68687 7.54907C9.92895 8.59882 9.31799 9.65704 8.28784 9.97227Z" fill="currentColor"/>
<path d="M17.416 15.3759C17.7607 15.6057 17.8538 16.0713 17.624 16.416L17.2178 17.0254C16.7077 17.7904 15.8491 18.25 14.9296 18.25H14.5C14.0858 18.25 13.75 17.9142 13.75 17.5C13.75 17.0857 14.0858 16.75 14.5 16.75H14.9296C15.3476 16.75 15.7379 16.5411 15.9697 16.1933L16.376 15.5839C16.6057 15.2393 17.0714 15.1462 17.416 15.3759Z" fill="currentColor"/>
<path d="M6.37596 16.416C6.1462 16.0713 6.23933 15.6057 6.58397 15.3759C6.92862 15.1462 7.39427 15.2393 7.62404 15.5839L8.0303 16.1933C8.26214 16.5411 8.65243 16.75 9.07037 16.75H9.5C9.91421 16.75 10.25 17.0857 10.25 17.5C10.25 17.9142 9.91421 18.25 9.5 18.25H9.07037C8.1509 18.25 7.29226 17.7904 6.78223 17.0254L6.37596 16.416Z" fill="currentColor"/>
<path fill-rule="evenodd" clip-rule="evenodd" d="M5.5 3.25C4.25736 3.25 3.25 4.25736 3.25 5.5V18.5C3.25 19.7426 4.25736 20.75 5.5 20.75H18.5C19.7426 20.75 20.75 19.7426 20.75 18.5V5.5C20.75 4.25736 19.7426 3.25 18.5 3.25H5.5ZM4.75 5.5C4.75 5.08579 5.08579 4.75 5.5 4.75H18.5C18.9142 4.75 19.25 5.08579 19.25 5.5V18.5C19.25 18.9142 18.9142 19.25 18.5 19.25H5.5C5.08579 19.25 4.75 18.9142 4.75 18.5V5.5Z" fill="currentColor"/>
</svg>
