<svg width="24" height="24" viewBox="0 0 24 24" fill="none" xmlns="http://www.w3.org/2000/svg">
<path fill-rule="evenodd" clip-rule="evenodd" d="M20.3588 3.64124C18.5038 1.78625 15.4962 1.78625 13.6412 3.64124L3.64124 13.6412C1.78625 15.4962 1.78625 18.5038 3.64124 20.3588C5.49623 22.2137 8.50377 22.2137 10.3588 20.3588L20.3588 10.3588C22.2137 8.50377 22.2137 5.49623 20.3588 3.64124ZM14.7019 4.7019C15.9711 3.4327 18.0289 3.4327 19.2981 4.7019C20.5673 5.97111 20.5673 8.02889 19.2981 9.2981L14.8284 13.7678L10.2322 9.17157L14.7019 4.7019ZM9.17157 10.2322L4.7019 14.7019C3.4327 15.9711 3.4327 18.0289 4.7019 19.2981C5.97111 20.5673 8.02889 20.5673 9.2981 19.2981L13.7678 14.8284L9.17157 10.2322Z" fill="currentColor"/>
</svg>
