<svg width="24" height="24" viewBox="0 0 24 24" fill="none" xmlns="http://www.w3.org/2000/svg">
<g style="mix-blend-mode:multiply">
<path fill-rule="evenodd" clip-rule="evenodd" d="M17.75 4C17.75 3.0335 16.9665 2.25 16 2.25H8C7.0335 2.25 6.25 3.0335 6.25 4V6C6.25 6.6981 6.65876 7.30073 7.25 7.58159L7.25 20C7.25 20.9665 8.0335 21.75 9 21.75H15C15.9665 21.75 16.75 20.9665 16.75 20L16.75 7.58159C17.3412 7.30073 17.75 6.6981 17.75 6V4ZM15.25 7.75L8.75 7.75V9.25L12 9.25C12.9665 9.25 13.75 10.0335 13.75 11L13.75 15C13.75 15.9665 12.9665 16.75 12 16.75H8.75L8.75 20C8.75 20.1381 8.86193 20.25 9 20.25H15C15.1381 20.25 15.25 20.1381 15.25 20L15.25 7.75ZM16.0005 6.25C16.1383 6.24972 16.25 6.1379 16.25 6V4C16.25 3.86193 16.1381 3.75 16 3.75L8 3.75C7.86193 3.75 7.75 3.86193 7.75 4V6C7.75 6.13791 7.86167 6.24974 7.99953 6.25L16.0005 6.25ZM12 10.75H8.75L8.75 15.25H12C12.1381 15.25 12.25 15.1381 12.25 15L12.25 11C12.25 10.8619 12.1381 10.75 12 10.75Z" fill="currentColor"/>
</g>
</svg>
