<svg width="24" height="24" viewBox="0 0 24 24" fill="none" xmlns="http://www.w3.org/2000/svg">
<path fill-rule="evenodd" clip-rule="evenodd" d="M16.75 4C16.75 3.0335 15.9665 2.25 15 2.25H7C6.0335 2.25 5.25 3.0335 5.25 4V6C5.25 6.6981 5.65876 7.30073 6.25 7.58159L6.25 20C6.25 20.8017 6.79643 21.75 7.8 21.75H9C9.41421 21.75 9.75 21.4142 9.75 21C9.75 20.5858 9.41421 20.25 9 20.25H7.82983C7.82708 20.2471 7.82378 20.2434 7.81997 20.2386C7.78881 20.1996 7.75 20.1178 7.75 20L7.75 16.75H8C8.41421 16.75 8.75 16.4142 8.75 16C8.75 15.5858 8.41421 15.25 8 15.25H7.75L7.75 10.75L11 10.75C11.072 10.75 11.1359 10.7794 11.1824 10.8291C11.4659 11.1311 11.9405 11.1462 12.2426 10.8628C12.5446 10.5793 12.5597 10.1047 12.2763 9.80265C11.958 9.46347 11.5033 9.25 11 9.25H7.75V7.75L14.25 7.75V9C14.25 9.41421 14.5858 9.75 15 9.75C15.4142 9.75 15.75 9.41421 15.75 9V7.58159C16.3412 7.30073 16.75 6.6981 16.75 6V4ZM15.0001 6.25C15.1381 6.24993 15.25 6.13803 15.25 6V4C15.25 3.86193 15.1381 3.75 15 3.75L7 3.75C6.86193 3.75 6.75 3.86193 6.75 4V6C6.75 6.13807 6.86193 6.25 7 6.25L15.0001 6.25Z" fill="currentColor"/>
<path fill-rule="evenodd" clip-rule="evenodd" d="M11.9341 12.9341C13.0125 11.8558 14.475 11.25 16 11.25C17.525 11.25 18.9875 11.8558 20.0659 12.9341C21.1442 14.0125 21.75 15.475 21.75 17C21.75 18.525 21.1442 19.9875 20.0659 21.0659C18.9875 22.1442 17.525 22.75 16 22.75C14.475 22.75 13.0125 22.1442 11.9341 21.0659C10.8558 19.9875 10.25 18.525 10.25 17C10.25 15.475 10.8558 14.0125 11.9341 12.9341ZM16 12.75C14.8728 12.75 13.7918 13.1978 12.9948 13.9948C12.1978 14.7918 11.75 15.8728 11.75 17C11.75 17.8739 12.0192 18.7201 12.5116 19.4277L18.4277 13.5116C17.7201 13.0192 16.8739 12.75 16 12.75ZM19.4884 14.5723L13.5723 20.4884C14.2799 20.9808 15.1261 21.25 16 21.25C17.1272 21.25 18.2082 20.8022 19.0052 20.0052C19.8022 19.2082 20.25 18.1272 20.25 17C20.25 16.1261 19.9808 15.2799 19.4884 14.5723Z" fill="currentColor"/>
</svg>
