<svg width="24" height="24" viewBox="0 0 24 24" fill="none" xmlns="http://www.w3.org/2000/svg">
<path fill-rule="evenodd" clip-rule="evenodd" d="M12 2.66665C10.4087 2.66665 8.88257 3.29879 7.75735 4.42401C6.63213 5.54922 5.99999 7.07535 5.99999 8.66665C5.99999 9.2945 6.24262 10.2405 6.68604 11.4044C7.12176 12.548 7.72352 13.8324 8.38126 15.1099C9.6968 17.665 11.2119 20.1457 12 21.3337C12.7881 20.1457 14.3032 17.665 15.6187 15.1099C16.2765 13.8324 16.8782 12.548 17.3139 11.4044C17.7574 10.2405 18 9.2945 18 8.66665C18 7.07535 17.3678 5.54922 16.2426 4.42401C15.1174 3.29879 13.5913 2.66665 12 2.66665ZM6.81454 3.4812C8.18981 2.10593 10.0551 1.33331 12 1.33331C13.9449 1.33331 15.8102 2.10593 17.1854 3.4812C18.5607 4.85646 19.3333 6.72173 19.3333 8.66665C19.3333 9.55302 19.0122 10.6919 18.5599 11.8791C18.0999 13.0864 17.4741 14.4191 16.8042 15.7203C15.4644 18.3225 13.9239 20.8454 13.1111 22.0707C12.9895 22.2541 12.8244 22.4045 12.6305 22.5085C12.4366 22.6126 12.22 22.667 12 22.667C11.78 22.667 11.5634 22.6126 11.3695 22.5085C11.1756 22.4045 11.0105 22.2541 10.8889 22.0707C10.076 20.8454 8.53563 18.3225 7.19583 15.7203C6.5259 14.4191 5.90005 13.0864 5.44007 11.8791C4.9878 10.6919 4.66666 9.55302 4.66666 8.66665C4.66666 6.72173 5.43927 4.85646 6.81454 3.4812ZM9.17156 5.83822C9.92171 5.08807 10.9391 4.66665 12 4.66665C13.0609 4.66665 14.0783 5.08807 14.8284 5.83822C15.5786 6.58837 16 7.60578 16 8.66665C16 9.72751 15.5786 10.7449 14.8284 11.4951C14.0783 12.2452 13.0609 12.6666 12 12.6666C10.9391 12.6666 9.92171 12.2452 9.17156 11.4951C8.42142 10.7449 7.99999 9.72751 7.99999 8.66665C7.99999 7.60578 8.42142 6.58837 9.17156 5.83822ZM12 5.99998C11.2927 5.99998 10.6145 6.28093 10.1144 6.78103C9.61427 7.28113 9.33332 7.9594 9.33332 8.66665C9.33332 9.37389 9.61427 10.0522 10.1144 10.5523C10.6145 11.0524 11.2927 11.3333 12 11.3333C12.7072 11.3333 13.3855 11.0524 13.8856 10.5523C14.3857 10.0522 14.6667 9.37389 14.6667 8.66665C14.6667 7.9594 14.3857 7.28113 13.8856 6.78103C13.3855 6.28093 12.7072 5.99998 12 5.99998Z" fill="currentColor"/>
</svg>
