<svg width="24" height="24" viewBox="0 0 24 24" fill="none" xmlns="http://www.w3.org/2000/svg">
<path fill-rule="evenodd" clip-rule="evenodd" d="M12 2.75356C10.0772 2.75356 8.23311 3.51739 6.87348 4.87703C5.51384 6.23667 4.75 8.08074 4.75 10.0036C4.75 13.2788 6.18376 15.8501 7.83275 17.7293C9.45449 19.5776 11.2557 20.7213 11.9996 21.1506C12.7432 20.722 14.5448 19.5786 16.1669 17.7303C17.816 15.8512 19.25 13.2797 19.25 10.0036C19.25 8.08074 18.4862 6.23667 17.1265 4.87703C15.7669 3.51739 13.9228 2.75356 12 2.75356ZM5.81282 3.81637C7.45376 2.17543 9.67936 1.25356 12 1.25356C14.3206 1.25356 16.5462 2.17543 18.1872 3.81637C19.8281 5.45731 20.75 7.68291 20.75 10.0036C20.75 13.7497 19.1031 16.6586 17.2943 18.7197C15.4896 20.776 13.4943 22.0245 12.7018 22.477C12.4879 22.5992 12.2459 22.6634 11.9996 22.6634C11.7533 22.6634 11.5112 22.5992 11.2973 22.477L11.2971 22.4769C10.5049 22.024 8.50972 20.7751 6.70525 18.7187C4.89669 16.6575 3.25 13.7488 3.25 10.0036C3.25 7.68291 4.17187 5.45731 5.81282 3.81637ZM8.64124 6.6448C9.53204 5.754 10.7402 5.25356 12 5.25356C13.2598 5.25356 14.468 5.754 15.3588 6.6448C16.2496 7.5356 16.75 8.74378 16.75 10.0036C16.75 11.2633 16.2496 12.4715 15.3588 13.3623C14.468 14.2531 13.2598 14.7536 12 14.7536C10.7402 14.7536 9.53204 14.2531 8.64124 13.3623C7.75045 12.4715 7.25 11.2633 7.25 10.0036C7.25 8.74378 7.75045 7.5356 8.64124 6.6448ZM12 6.75356C11.138 6.75356 10.3114 7.09596 9.7019 7.70546C9.09241 8.31495 8.75 9.1416 8.75 10.0036C8.75 10.8655 9.09241 11.6922 9.7019 12.3017C10.3114 12.9111 11.138 13.2536 12 13.2536C12.862 13.2536 13.6886 12.9111 14.2981 12.3017C14.9076 11.6922 15.25 10.8655 15.25 10.0036C15.25 9.1416 14.9076 8.31495 14.2981 7.70546C13.6886 7.09596 12.862 6.75356 12 6.75356Z" fill="currentColor"/>
</svg>
