<svg width="24" height="24" viewBox="0 0 24 24" fill="none" xmlns="http://www.w3.org/2000/svg">
<path fill-rule="evenodd" clip-rule="evenodd" d="M3.42201 16.6386C5.07164 19.6828 8.29441 21.75 12 21.75C14.4225 21.75 16.6386 20.8666 18.3437 19.4043L21.4697 22.5302C21.7626 22.8231 22.2374 22.8231 22.5303 22.5302C22.8232 22.2373 22.8232 21.7624 22.5303 21.4695L19.4044 18.3436C20.8666 16.6385 21.75 14.4224 21.75 12C21.75 6.61522 17.3848 2.25 12 2.25C6.61523 2.25 2.25001 6.61522 2.25001 12C2.25001 13.1076 2.4347 14.1721 2.77498 15.1644L1.46967 16.4697C1.17678 16.7626 1.17678 17.2374 1.46967 17.5303C1.76256 17.8232 2.23744 17.8232 2.53033 17.5303L3.42201 16.6386ZM12 3.75C7.44366 3.75 3.75001 7.44365 3.75001 12C3.75001 12.6739 3.83082 13.329 3.98328 13.9561L12.4697 5.46967C12.7626 5.17678 13.2374 5.17678 13.5303 5.46967C13.9665 5.90586 14.125 6.50138 14.125 7.09375C14.125 7.68727 13.969 8.34705 13.6964 9.02853C13.1498 10.395 12.0831 11.9775 10.5303 13.5303C10.3897 13.671 10.1989 13.75 10 13.75C9.8011 13.75 9.61033 13.671 9.46968 13.5303C8.90026 12.9609 8.40943 12.4576 8.06081 12.0966L8.01329 12.0474L4.53782 15.5228C5.85927 18.317 8.7039 20.25 12 20.25C14.0082 20.25 15.8487 19.5325 17.2793 18.3399L16.4489 17.5095C15.3882 18.1682 13.9764 18.037 13.0554 17.116L11.4697 15.5302C11.1768 15.2373 11.1768 14.7624 11.4697 14.4695C11.7626 14.1766 12.2375 14.1766 12.5303 14.4695L14.1161 16.0553C14.4422 16.3814 14.9036 16.4897 15.3195 16.3801L12.9697 14.0303C12.6768 13.7374 12.6768 13.2625 12.9697 12.9696C13.2626 12.6767 13.7374 12.6767 14.0303 12.9696L16.3802 15.3195C16.4898 14.9035 16.3815 14.4421 16.0554 14.116L14.4697 12.5302C14.1768 12.2374 14.1768 11.7625 14.4697 11.4696C14.7626 11.1767 15.2374 11.1767 15.5303 11.4696L17.1161 13.0553C18.0371 13.9763 18.1683 15.3881 17.5096 16.4489L18.34 17.2792C19.5326 15.8486 20.25 14.0081 20.25 12C20.25 7.44365 16.5564 3.75 12 3.75ZM9.13987 11.0547L9.07413 10.9865L12.5939 7.46676C12.5499 7.75089 12.4572 8.08763 12.3036 8.47145C11.9072 9.46265 11.1437 10.6709 9.9907 11.9263C9.65759 11.5886 9.36784 11.2908 9.13987 11.0547Z" fill="currentColor"/>
</svg>
