<svg width="24" height="24" viewBox="0 0 24 24" fill="none" xmlns="http://www.w3.org/2000/svg">
<path fill-rule="evenodd" clip-rule="evenodd" d="M17 2.25C17.4142 2.25 17.75 2.58579 17.75 3C17.75 3.41421 17.4142 3.75 17 3.75H15.75V9C15.75 10.023 16.2316 10.9862 17.05 11.6L18.25 12.5C19.211 13.2208 18.7013 14.75 17.5 14.75H12.75V21C12.75 21.4142 12.4142 21.75 12 21.75C11.5858 21.75 11.25 21.4142 11.25 21V14.75H6.5C5.29873 14.75 4.78899 13.2208 5.75 12.5L6.95 11.6C7.76837 10.9862 8.25 10.023 8.25 9V3.75H7C6.58579 3.75 6.25 3.41421 6.25 3C6.25 2.58579 6.58579 2.25 7 2.25H17Z" fill="currentColor"/>
</svg>
