<svg width="24" height="24" viewBox="0 0 24 24" fill="none" xmlns="http://www.w3.org/2000/svg">
<path fill-rule="evenodd" clip-rule="evenodd" d="M3.25 5C3.25 3.48122 4.48122 2.25 6 2.25H17C18.5188 2.25 19.75 3.48122 19.75 5V8.49982C19.75 8.78399 19.5894 9.04376 19.3352 9.17076C19.0809 9.29775 18.7768 9.27016 18.5496 9.09949C18.2572 8.87985 17.8948 8.75 17.5 8.75C16.5335 8.75 15.75 9.5335 15.75 10.5C15.75 11.4665 16.5335 12.25 17.5 12.25C17.8948 12.25 18.2572 12.1201 18.5496 11.9005C18.7768 11.7298 19.0809 11.7022 19.3352 11.8292C19.5894 11.9562 19.75 12.216 19.75 12.5002V16C19.75 17.5188 18.5188 18.75 17 18.75H14.6629C14.7198 18.9909 14.75 19.2421 14.75 19.5C14.75 21.2949 13.2949 22.75 11.5 22.75C9.70507 22.75 8.25 21.2949 8.25 19.5C8.25 19.2421 8.28016 18.9909 8.33713 18.75H6C4.48122 18.75 3.25 17.5188 3.25 16V5ZM6 3.75C5.30964 3.75 4.75 4.30964 4.75 5V16C4.75 16.6904 5.30964 17.25 6 17.25H9.49982C9.78399 17.25 10.0438 17.4106 10.1708 17.6648C10.2978 17.9191 10.2702 18.2232 10.0995 18.4504C9.87985 18.7428 9.75 19.1052 9.75 19.5C9.75 20.4665 10.5335 21.25 11.5 21.25C12.4665 21.25 13.25 20.4665 13.25 19.5C13.25 19.1052 13.1201 18.7428 12.9005 18.4504C12.7298 18.2232 12.7022 17.9191 12.8292 17.6648C12.9562 17.4106 13.216 17.25 13.5002 17.25H17C17.6904 17.25 18.25 16.6904 18.25 16V13.6629C18.0091 13.7198 17.7579 13.75 17.5 13.75C15.7051 13.75 14.25 12.2949 14.25 10.5C14.25 8.70507 15.7051 7.25 17.5 7.25C17.7579 7.25 18.0091 7.28016 18.25 7.33713V5C18.25 4.30964 17.6904 3.75 17 3.75H6Z" fill="currentColor"/>
</svg>
