<svg width="24" height="24" viewBox="0 0 24 24" fill="none" xmlns="http://www.w3.org/2000/svg">
<path d="M6.5 13.25C6.91421 13.25 7.25 13.5858 7.25 14C7.25 14.4142 6.91421 14.75 6.5 14.75H5.5C5.08579 14.75 4.75 14.4142 4.75 14C4.75 13.5858 5.08579 13.25 5.5 13.25H6.5Z" fill="currentColor"/>
<path d="M6.5 10.25C6.91421 10.25 7.25 10.5858 7.25 11C7.25 11.4142 6.91421 11.75 6.5 11.75H5.5C5.08579 11.75 4.75 11.4142 4.75 11C4.75 10.5858 5.08579 10.25 5.5 10.25H6.5Z" fill="currentColor"/>
<path d="M6.5 7.25C6.91421 7.25 7.25 7.58579 7.25 8C7.25 8.41421 6.91421 8.75 6.5 8.75H5.5C5.08579 8.75 4.75 8.41421 4.75 8C4.75 7.58579 5.08579 7.25 5.5 7.25H6.5Z" fill="currentColor"/>
<path fill-rule="evenodd" clip-rule="evenodd" d="M20.25 4.25C21.0784 4.25 21.75 4.92157 21.75 5.75V18.25C21.75 19.0784 21.0784 19.75 20.25 19.75H3.75C2.92157 19.75 2.25 19.0784 2.25 18.25V5.75C2.25 4.92157 2.92157 4.25 3.75 4.25H20.25ZM3.75 18.25H8.25V5.75H3.75V18.25ZM9.75 18.25H20.25V5.75H9.75V18.25Z" fill="currentColor"/>
</svg>
