<svg width="24" height="24" viewBox="0 0 24 24" fill="none" xmlns="http://www.w3.org/2000/svg">
<path d="M17.75 7.5C17.75 7.08579 17.4142 6.75 17 6.75C16.5858 6.75 16.25 7.08579 16.25 7.5V16.5C16.25 16.9142 16.5858 17.25 17 17.25C17.4142 17.25 17.75 16.9142 17.75 16.5V7.5Z" fill="currentColor"/>
<path fill-rule="evenodd" clip-rule="evenodd" d="M8.545 7.08123C7.54592 6.45681 6.25 7.17508 6.25 8.35323V15.6469C6.25 16.825 7.54593 17.5433 8.545 16.9189L14.3799 13.272C15.3199 12.6845 15.3199 11.3155 14.3799 10.728L8.545 7.08123ZM7.75 8.35323L13.5849 12L7.75 15.6469V8.35323Z" fill="currentColor"/>
</svg>
