<svg width="24" height="24" viewBox="0 0 24 24" fill="none" xmlns="http://www.w3.org/2000/svg">
<path d="M6.25 16.5C6.25 16.9142 6.58579 17.25 7 17.25C7.41421 17.25 7.75 16.9142 7.75 16.5L7.75 7.5C7.75 7.08579 7.41421 6.75 7 6.75C6.58579 6.75 6.25 7.08579 6.25 7.5V16.5Z" fill="currentColor"/>
<path fill-rule="evenodd" clip-rule="evenodd" d="M15.455 16.9188C16.4541 17.5432 17.75 16.8249 17.75 15.6468L17.75 8.35314C17.75 7.17499 16.4541 6.45672 15.455 7.08114L9.6201 10.728C8.68009 11.3155 8.6801 12.6845 9.6201 13.272L15.455 16.9188ZM16.25 15.6468L10.4151 12L16.25 8.35314L16.25 15.6468Z" fill="currentColor"/>
</svg>
