<svg width="24" height="24" viewBox="0 0 24 24" fill="none" xmlns="http://www.w3.org/2000/svg">
<path fill-rule="evenodd" clip-rule="evenodd" d="M6.5 2.25C5.25736 2.25 4.25 3.25736 4.25 4.5V5.5C4.25 6.74264 5.25736 7.75 6.5 7.75H7.5C7.72731 7.75 7.94675 7.71629 8.15358 7.6536C7.87356 8.57748 7.01531 9.25 5.99999 9.25H5.66663C5.25241 9.25 4.91663 9.58579 4.91663 10C4.91663 10.4142 5.25241 10.75 5.66663 10.75H5.99999C8.07104 10.75 9.74997 9.07109 9.74999 7.00003L9.75 5.50001C9.75 5.5 9.75 5.50001 9.75 5.50001M8.25 5.5C8.25 5.91421 7.91421 6.25 7.5 6.25H6.5C6.08579 6.25 5.75 5.91421 5.75 5.5V4.5C5.75 4.08579 6.08579 3.75 6.5 3.75H7.5C7.91421 3.75 8.25 4.08579 8.25 4.5V5.5Z" fill="currentColor"/>
<path d="M9.75 5.50001V4.5C9.75 3.25736 8.74264 2.25 7.5 2.25H6.5" fill="currentColor"/>
<path d="M17 3.25C17.4142 3.25 17.75 3.58579 17.75 4L17.75 18.1893L20.4697 15.4697C20.7626 15.1768 21.2374 15.1768 21.5303 15.4697C21.8232 15.7626 21.8232 16.2374 21.5303 16.5303L17.5303 20.5303C17.3839 20.6768 17.1919 20.75 17 20.75C16.9871 20.75 16.9742 20.7497 16.9614 20.749C16.8738 20.7446 16.7901 20.7251 16.7129 20.6931C16.6245 20.6565 16.5416 20.6022 16.4697 20.5303L12.4697 16.5303C12.1768 16.2374 12.1768 15.7626 12.4697 15.4697C12.7626 15.1768 13.2374 15.1768 13.5303 15.4697L16.25 18.1893L16.25 4C16.25 3.58579 16.5858 3.25 17 3.25Z" fill="currentColor"/>
<path d="M8.25003 14C8.25003 13.7136 8.08687 13.4521 7.82955 13.3263C7.57223 13.2004 7.26569 13.2321 7.03958 13.408L5.53958 14.5747C5.21262 14.829 5.15372 15.3002 5.40802 15.6271C5.66232 15.9541 6.13353 16.013 6.46049 15.7587L6.75003 15.5335V21C6.75003 21.4142 7.08582 21.75 7.50003 21.75C7.91425 21.75 8.25003 21.4142 8.25003 21V14Z" fill="currentColor"/>
</svg>
