<svg width="24" height="24" viewBox="0 0 24 24" fill="none" xmlns="http://www.w3.org/2000/svg">
<path fill-rule="evenodd" clip-rule="evenodd" d="M4.25 5C4.25 3.48122 5.48122 2.25 7 2.25C8.51878 2.25 9.75 3.48122 9.75 5V10C9.75 10.4142 9.41421 10.75 9 10.75C8.58579 10.75 8.25 10.4142 8.25 10V7.75H5.75V10C5.75 10.4142 5.41421 10.75 5 10.75C4.58579 10.75 4.25 10.4142 4.25 10V5ZM8.25 6.25V5C8.25 4.30964 7.69036 3.75 7 3.75C6.30964 3.75 5.75 4.30964 5.75 5V6.25H8.25Z" fill="currentColor"/>
<path d="M17.75 4C17.75 3.58579 17.4142 3.25 17 3.25C16.5858 3.25 16.25 3.58579 16.25 4L16.25 18.1893L13.5303 15.4697C13.2374 15.1768 12.7626 15.1768 12.4697 15.4697C12.1768 15.7626 12.1768 16.2374 12.4697 16.5303L16.4697 20.5303C16.5416 20.6022 16.6245 20.6565 16.7129 20.6931C16.7901 20.7251 16.8738 20.7446 16.9614 20.749C16.9742 20.7497 16.9871 20.75 17 20.75C17.1919 20.75 17.3839 20.6768 17.5303 20.5303L21.5303 16.5303C21.8232 16.2374 21.8232 15.7626 21.5303 15.4697C21.2374 15.1768 20.7626 15.1768 20.4697 15.4697L17.75 18.1893L17.75 4Z" fill="currentColor"/>
<path d="M5 13.25C4.58579 13.25 4.25 13.5858 4.25 14C4.25 14.4142 4.58579 14.75 5 14.75H7.70762L4.34882 20.6279C4.21617 20.86 4.21713 21.1452 4.35132 21.3764C4.48551 21.6077 4.73265 21.75 5 21.75H9C9.41421 21.75 9.75 21.4142 9.75 21C9.75 20.5858 9.41421 20.25 9 20.25H6.29238L9.65118 14.3721C9.78383 14.14 9.78287 13.8548 9.64868 13.6236C9.51449 13.3923 9.26735 13.25 9 13.25H5Z" fill="currentColor"/>
</svg>
