<svg width="24" height="24" viewBox="0 0 24 24" fill="none" xmlns="http://www.w3.org/2000/svg">
<path fill-rule="evenodd" clip-rule="evenodd" d="M3.25002 12C3.25002 7.16751 7.16753 3.25 12 3.25C16.8325 3.25 20.75 7.16751 20.75 12C20.75 16.8325 16.8325 20.75 12 20.75C10.3871 20.75 8.87434 20.3129 7.57585 19.5506L3.33543 21.6708C3.04669 21.8152 2.69796 21.7586 2.46969 21.5303C2.24142 21.3021 2.18483 20.9533 2.3292 20.6646L4.44941 16.4242C3.6871 15.1257 3.25002 13.6129 3.25002 12ZM12 13C12.5523 13 13 12.5523 13 12C13 11.4477 12.5523 11 12 11C11.4477 11 11 11.4477 11 12C11 12.5523 11.4477 13 12 13ZM9 12C9 12.5523 8.55228 13 8 13C7.44772 13 7 12.5523 7 12C7 11.4477 7.44772 11 8 11C8.55228 11 9 11.4477 9 12ZM16 13C16.5523 13 17 12.5523 17 12C17 11.4477 16.5523 11 16 11C15.4477 11 15 11.4477 15 12C15 12.5523 15.4477 13 16 13Z" fill="currentColor"/>
</svg>
