<svg width="24" height="24" viewBox="0 0 24 24" fill="none" xmlns="http://www.w3.org/2000/svg">
<path fill-rule="evenodd" clip-rule="evenodd" d="M6 5.25C4.75736 5.25 3.75 6.25736 3.75 7.5V14.5C3.75 15.7426 4.75736 16.75 6 16.75H6.5C7.19036 16.75 7.75 17.3096 7.75 18V20.1893L10.8232 17.1161C11.0576 16.8817 11.3756 16.75 11.7071 16.75H18C19.2426 16.75 20.25 15.7426 20.25 14.5V7.5C20.25 6.25736 19.2426 5.25 18 5.25H6ZM2.25 7.5C2.25 5.42893 3.92893 3.75 6 3.75H18C20.0711 3.75 21.75 5.42893 21.75 7.5V14.5C21.75 16.5711 20.0711 18.25 18 18.25H11.8107L8.38388 21.6768C7.59643 22.4642 6.25 21.9065 6.25 20.7929V18.25H6C3.92893 18.25 2.25 16.5711 2.25 14.5V7.5Z" fill="currentColor"/>
</svg>
