<svg width="24" height="24" viewBox="0 0 24 24" fill="none" xmlns="http://www.w3.org/2000/svg">
<path d="M9 3.25C8.0335 3.25 7.25 4.0335 7.25 5V6C7.25 6.9665 8.0335 7.75 9 7.75H19C19.9665 7.75 20.75 6.9665 20.75 6V5C20.75 4.0335 19.9665 3.25 19 3.25H9Z" fill="currentColor"/>
<path d="M7 9.75C6.0335 9.75 5.25 10.5335 5.25 11.5V12.5C5.25 13.4665 6.0335 14.25 7 14.25H17C17.9665 14.25 18.75 13.4665 18.75 12.5V11.5C18.75 10.5335 17.9665 9.75 17 9.75H7Z" fill="currentColor"/>
<path d="M5 16.25C4.0335 16.25 3.25 17.0335 3.25 18V19C3.25 19.9665 4.0335 20.75 5 20.75H15C15.9665 20.75 16.75 19.9665 16.75 19V18C16.75 17.0335 15.9665 16.25 15 16.25H5Z" fill="currentColor"/>
</svg>
