<svg width="24" height="24" viewBox="0 0 24 24" fill="none" xmlns="http://www.w3.org/2000/svg">
<path fill-rule="evenodd" clip-rule="evenodd" d="M7 2.25C7.41421 2.25 7.75 2.58579 7.75 3V5C7.75 5.41421 7.41421 5.75 7 5.75C6.58579 5.75 6.25 5.41421 6.25 5V4.75H5C4.86193 4.75 4.75 4.86193 4.75 5V10C4.75 12.3472 6.65279 14.25 9 14.25C11.3472 14.25 13.25 12.3472 13.25 10V5C13.25 4.86193 13.1381 4.75 13 4.75H11.75V5C11.75 5.41421 11.4142 5.75 11 5.75C10.5858 5.75 10.25 5.41421 10.25 5V3C10.25 2.58579 10.5858 2.25 11 2.25C11.4142 2.25 11.75 2.58579 11.75 3V3.25H13C13.9665 3.25 14.75 4.0335 14.75 5V10C14.75 12.92 12.5734 15.3316 9.75418 15.701C9.85949 18.2311 11.944 20.25 14.5 20.25C17.1234 20.25 19.25 18.1234 19.25 15.5V13.6465C18.0957 13.32 17.25 12.2588 17.25 11C17.25 9.48122 18.4812 8.25 20 8.25C21.5188 8.25 22.75 9.48122 22.75 11C22.75 12.2588 21.9043 13.32 20.75 13.6465V15.5C20.75 18.9518 17.9518 21.75 14.5 21.75C11.1158 21.75 8.3598 19.0603 8.2532 15.7019C5.43038 15.3358 3.25 12.9226 3.25 10V5C3.25 4.0335 4.0335 3.25 5 3.25H6.25V3C6.25 2.58579 6.58579 2.25 7 2.25ZM20 12.25C20.6904 12.25 21.25 11.6904 21.25 11C21.25 10.3096 20.6904 9.75 20 9.75C19.3096 9.75 18.75 10.3096 18.75 11C18.75 11.6904 19.3096 12.25 20 12.25Z" fill="currentColor"/>
</svg>
