<svg width="24" height="24" viewBox="0 0 24 24" fill="none" xmlns="http://www.w3.org/2000/svg">
<path fill-rule="evenodd" clip-rule="evenodd" d="M4.66667 2.75977C4.15834 2.75977 3.67082 2.9617 3.31138 3.32114C2.95193 3.68059 2.75 4.1681 2.75 4.67643V19.3431C2.75 19.8514 2.95193 20.3389 3.31138 20.6984C3.67082 21.0578 4.15833 21.2598 4.66667 21.2598H14.5833V18.0098C14.5833 17.1036 14.9433 16.2346 15.5841 15.5938C16.2248 14.9531 17.0938 14.5931 18 14.5931H21.25V4.67643C21.25 4.1681 21.0481 3.68059 20.6886 3.32114C20.3292 2.9617 19.8417 2.75977 19.3333 2.75977H4.66667ZM20.8375 16.0931C20.7914 16.1515 20.7416 16.2075 20.6884 16.2607L16.2512 20.6988C16.1981 20.7518 16.1419 20.8017 16.0833 20.848V18.0098C16.0833 17.5014 16.2853 17.0139 16.6447 16.6545C17.0042 16.295 17.4917 16.0931 18 16.0931H20.8375ZM14.8948 22.7598H4.66667C3.76051 22.7598 2.89147 22.3998 2.25072 21.759C1.60997 21.1183 1.25 20.2493 1.25 19.3431V4.67643C1.25 3.77028 1.60997 2.90123 2.25072 2.26048C2.89147 1.61973 3.76051 1.25977 4.66667 1.25977H19.3333C20.2395 1.25977 21.1085 1.61973 21.7493 2.26048C22.39 2.90123 22.75 3.77028 22.75 4.67643V14.9058C22.7498 15.8118 22.3898 16.6808 21.7491 17.3214L17.3117 21.7596C16.9943 22.0768 16.6173 22.3286 16.2026 22.5002C15.788 22.6717 15.3434 22.7599 14.8948 22.7598Z" fill="currentColor"/>
<path fill-rule="evenodd" clip-rule="evenodd" d="M10.3316 6.66492C10.5973 6.39925 10.9576 6.24999 11.3333 6.24999H12.6667C13.0424 6.24999 13.4027 6.39925 13.6684 6.66492C13.9341 6.9306 14.0833 7.29094 14.0833 7.66666V8.91666H15.3333C15.7091 8.91666 16.0694 9.06592 16.3351 9.33159C16.6007 9.59727 16.75 9.9576 16.75 10.3333V11.6667C16.75 12.0424 16.6007 12.4027 16.3351 12.6684C16.0694 12.9341 15.7091 13.0833 15.3333 13.0833H14.0833V14.3333C14.0833 14.709 13.9341 15.0694 13.6684 15.3351C13.4027 15.6007 13.0424 15.75 12.6667 15.75H11.3333C10.9576 15.75 10.5973 15.6007 10.3316 15.3351C10.0659 15.0694 9.91666 14.7091 9.91666 14.3333V13.0833H8.66666C8.29094 13.0833 7.9306 12.9341 7.66493 12.6684C7.39925 12.4027 7.25 12.0424 7.25 11.6667V10.3333C7.25 9.9576 7.39925 9.59727 7.66493 9.33159C7.93061 9.06592 8.29094 8.91666 8.66666 8.91666H9.91666V7.66666C9.91666 7.29093 10.0659 6.9306 10.3316 6.66492ZM11.4167 7.74999V9.66666C11.4167 10.0809 11.0809 10.4167 10.6667 10.4167H8.75V11.5833H10.6667C11.0809 11.5833 11.4167 11.9191 11.4167 12.3333V14.25H12.5833V12.3333C12.5833 11.9191 12.9191 11.5833 13.3333 11.5833H15.25V10.4167H13.3333C12.9191 10.4167 12.5833 10.0809 12.5833 9.66666V7.74999H11.4167Z" fill="currentColor"/>
</svg>
