<svg width="24" height="24" viewBox="0 0 24 24" fill="none" xmlns="http://www.w3.org/2000/svg">
<path fill-rule="evenodd" clip-rule="evenodd" d="M4.66667 2.75977C4.15834 2.75977 3.67082 2.9617 3.31138 3.32114C2.95193 3.68059 2.75 4.1681 2.75 4.67643V19.3431C2.75 19.8514 2.95193 20.3389 3.31138 20.6984C3.67082 21.0578 4.15833 21.2598 4.66667 21.2598H14.5833V18.0098C14.5833 17.1036 14.9433 16.2346 15.5841 15.5938C16.2248 14.9531 17.0938 14.5931 18 14.5931H21.25V4.67643C21.25 4.1681 21.0481 3.68059 20.6886 3.32114C20.3292 2.9617 19.8417 2.75977 19.3333 2.75977H4.66667ZM20.8375 16.0931C20.7914 16.1515 20.7416 16.2075 20.6884 16.2607L16.2512 20.6988C16.1981 20.7518 16.1419 20.8017 16.0833 20.848V18.0098C16.0833 17.5014 16.2853 17.0139 16.6447 16.6545C17.0042 16.295 17.4917 16.0931 18 16.0931H20.8375ZM14.8948 22.7598H4.66667C3.76051 22.7598 2.89147 22.3998 2.25072 21.759C1.60997 21.1183 1.25 20.2493 1.25 19.3431V4.67643C1.25 3.77028 1.60997 2.90123 2.25072 2.26048C2.89147 1.61973 3.76051 1.25977 4.66667 1.25977H19.3333C20.2395 1.25977 21.1085 1.61973 21.7493 2.26048C22.39 2.90123 22.75 3.77028 22.75 4.67643V14.9058C22.7498 15.8118 22.3898 16.6808 21.7491 17.3214C21.749 17.3214 21.7491 17.3213 21.7491 17.3214L17.3117 21.7596C16.9943 22.0768 16.6173 22.3286 16.2026 22.5002C15.788 22.6717 15.3434 22.7599 14.8948 22.7598C14.8949 22.7598 14.8947 22.7598 14.8948 22.7598ZM16.3641 7.62966C16.657 7.92255 16.657 8.39742 16.3641 8.69032L11.3927 13.6617C11.1155 13.9382 10.7399 14.0934 10.3484 14.0934C9.95695 14.0934 9.58143 13.9382 9.3042 13.6617L7.63721 11.9974C7.34408 11.7047 7.3437 11.2299 7.63636 10.9367C7.92902 10.6436 8.40389 10.6432 8.69702 10.9359L10.3484 12.5847L15.3034 7.62966C15.5963 7.33676 16.0712 7.33676 16.3641 7.62966Z" fill="currentColor"/>
</svg>
