<svg width="24" height="24" viewBox="0 0 24 24" fill="none" xmlns="http://www.w3.org/2000/svg">
<path fill-rule="evenodd" clip-rule="evenodd" d="M13.6354 4.84267C13.9283 5.13556 13.9283 5.61043 13.6354 5.90333L5.34447 14.1942C4.75233 14.7866 4.41969 15.5899 4.41969 16.4275C4.41969 17.2651 4.75233 18.0684 5.34447 18.6608C5.93684 19.2528 6.74004 19.5853 7.57753 19.5853C8.41506 19.5853 9.21832 19.2527 9.8107 18.6607L18.1017 10.3697C18.3946 10.0768 18.8695 10.0768 19.1624 10.3697C19.4552 10.6626 19.4552 11.1374 19.1624 11.4303L10.8714 19.7213C9.99768 20.5946 8.81283 21.0853 7.57753 21.0853C6.34222 21.0853 5.15749 20.5947 4.28381 19.7214C3.4105 18.8478 2.91969 17.6628 2.91969 16.4275C2.91969 15.1922 3.41028 14.0075 4.28359 13.1338L12.5747 4.84267C12.8676 4.54977 13.3425 4.54977 13.6354 4.84267Z" fill="currentColor"/>
<path fill-rule="evenodd" clip-rule="evenodd" d="M12.5748 11.7465C12.8678 11.4537 13.3427 11.4538 13.6355 11.7468L15.7075 13.8198C16.0003 14.1128 16.0002 14.5876 15.7072 14.8805C15.4143 15.1733 14.9394 15.1732 14.6466 14.8802L12.5746 12.8072C12.2817 12.5142 12.2819 12.0394 12.5748 11.7465Z" fill="currentColor"/>
<path fill-rule="evenodd" clip-rule="evenodd" d="M10.5017 13.8197C10.7946 13.5268 11.2695 13.5268 11.5624 13.8197L13.6354 15.8927C13.9283 16.1856 13.9283 16.6604 13.6354 16.9533C13.3425 17.2462 12.8676 17.2462 12.5747 16.9533L10.5017 14.8803C10.2088 14.5874 10.2088 14.1126 10.5017 13.8197Z" fill="currentColor"/>
<path fill-rule="evenodd" clip-rule="evenodd" d="M8.42857 15.8928C8.72139 15.5998 9.19627 15.5997 9.48923 15.8925L11.5622 17.9645C11.8552 18.2574 11.8553 18.7322 11.5625 19.0252C11.2697 19.3182 10.7948 19.3183 10.5018 19.0255L8.42883 16.9535C8.13586 16.6606 8.13575 16.1858 8.42857 15.8928Z" fill="currentColor"/>
<path fill-rule="evenodd" clip-rule="evenodd" d="M15.4747 2.21067C15.7676 1.91777 16.2425 1.91777 16.5354 2.21067L21.7894 7.46467C22.0823 7.75756 22.0823 8.23243 21.7894 8.52533C21.4965 8.81822 21.0216 8.81822 20.7287 8.52533L15.4747 3.27133C15.1818 2.97843 15.1818 2.50356 15.4747 2.21067Z" fill="currentColor"/>
<path fill-rule="evenodd" clip-rule="evenodd" d="M5.34436 18.6557C5.63725 18.9486 5.63725 19.4234 5.34436 19.7163L3.27136 21.7893C2.97846 22.0822 2.50359 22.0822 2.2107 21.7893C1.9178 21.4964 1.9178 21.0216 2.2107 20.7287L4.2837 18.6557C4.57659 18.3628 5.05147 18.3628 5.34436 18.6557Z" fill="currentColor"/>
<path fill-rule="evenodd" clip-rule="evenodd" d="M11.5377 3.80167C11.8306 3.50877 12.3055 3.50877 12.5984 3.80167L20.1984 11.4017C20.4912 11.6946 20.4912 12.1694 20.1984 12.4623C19.9055 12.7552 19.4306 12.7552 19.1377 12.4623L11.5377 4.86233C11.2448 4.56943 11.2448 4.09456 11.5377 3.80167Z" fill="currentColor"/>
<path fill-rule="evenodd" clip-rule="evenodd" d="M18.1345 3.80979C18.4273 4.10277 18.4272 4.57764 18.1342 4.87045L16.8368 6.1671C16.5438 6.45991 16.0689 6.45977 15.7761 6.1668C15.4833 5.87382 15.4834 5.39894 15.7764 5.10614L17.0738 3.80948C17.3668 3.51667 17.8417 3.51681 18.1345 3.80979Z" fill="currentColor"/>
<path fill-rule="evenodd" clip-rule="evenodd" d="M20.1902 5.86551C20.4832 6.15832 20.4833 6.63319 20.1905 6.92617L18.8996 8.21776C18.6068 8.51074 18.132 8.51088 17.839 8.21807C17.546 7.92526 17.5459 7.45039 17.8387 7.15741L19.1295 5.86582C19.4223 5.57284 19.8972 5.5727 20.1902 5.86551Z" fill="currentColor"/>
</svg>
