<svg width="24" height="24" viewBox="0 0 24 24" fill="none" xmlns="http://www.w3.org/2000/svg">
<path fill-rule="evenodd" clip-rule="evenodd" d="M9.5 7.25C9.5 8.49264 8.49264 9.5 7.25 9.5C6.00736 9.5 5 8.49264 5 7.25C5 6.00736 6.00736 5 7.25 5C8.49264 5 9.5 6.00736 9.5 7.25ZM8 7.25C8 7.66421 7.66421 8 7.25 8C6.83579 8 6.5 7.66421 6.5 7.25C6.5 6.83579 6.83579 6.5 7.25 6.5C7.66421 6.5 8 6.83579 8 7.25Z" fill="currentColor"/>
<path fill-rule="evenodd" clip-rule="evenodd" d="M4.5 2.25C3.25736 2.25 2.25 3.25736 2.25 4.5V10.3787C2.25 10.9754 2.48705 11.5477 2.90901 11.9697L12.409 21.4697C13.2877 22.3483 14.7123 22.3484 15.591 21.4697L21.4697 15.591C22.3484 14.7123 22.3483 13.2877 21.4697 12.409L11.9697 2.90901C11.5477 2.48705 10.9754 2.25 10.3787 2.25H4.5ZM3.75 4.5C3.75 4.08579 4.08579 3.75 4.5 3.75H10.3787C10.5776 3.75 10.7684 3.82902 10.909 3.96967L20.409 13.4697C20.7019 13.7626 20.7019 14.2374 20.409 14.5303L14.5303 20.409C14.2374 20.7019 13.7626 20.7019 13.4697 20.409L3.96967 10.909C3.82902 10.7684 3.75 10.5776 3.75 10.3787V4.5Z" fill="currentColor"/>
</svg>
