<svg width="24" height="24" viewBox="0 0 24 24" fill="none" xmlns="http://www.w3.org/2000/svg">
<path fill-rule="evenodd" clip-rule="evenodd" d="M9.58405 2.25072C10.2248 1.60997 11.0938 1.25 12 1.25C12.9062 1.25 13.7752 1.60997 14.4159 2.25072C15.0567 2.89147 15.4167 3.76051 15.4167 4.66667V14.7198C16.0015 15.3254 16.4165 16.0772 16.616 16.8993C16.8429 17.8342 16.7806 18.8159 16.4373 19.7146C16.0941 20.6132 15.486 21.3865 14.6937 21.932C13.9013 22.4776 12.962 22.7696 12 22.7696C11.038 22.7696 10.0987 22.4776 9.30633 21.932C8.51398 21.3865 7.90594 20.6132 7.56268 19.7146C7.21942 18.8159 7.15712 17.8342 7.38401 16.8993C7.58355 16.0772 7.99849 15.3254 8.58333 14.7198V4.66667C8.58333 3.76051 8.9433 2.89147 9.58405 2.25072ZM12 2.75C11.4917 2.75 11.0042 2.95193 10.6447 3.31138C10.2853 3.67082 10.0833 4.15833 10.0833 4.66667V15.0382C10.0833 15.2516 9.99241 15.455 9.83333 15.5972C9.34274 16.036 8.99694 16.6135 8.84169 17.2531C8.68645 17.8927 8.72908 18.5644 8.96394 19.1793C9.1988 19.7942 9.61483 20.3233 10.157 20.6965C10.6991 21.0698 11.3418 21.2696 12 21.2696C12.6582 21.2696 13.3009 21.0698 13.843 20.6965C14.3852 20.3233 14.8012 19.7942 15.0361 19.1793C15.2709 18.5644 15.3136 17.8927 15.1583 17.2531C15.0031 16.6135 14.6573 16.036 14.1667 15.5972C14.0076 15.455 13.9167 15.2516 13.9167 15.0382V4.66667C13.9167 4.15833 13.7147 3.67082 13.3553 3.31138C12.9958 2.95193 12.5083 2.75 12 2.75ZM12 5.25C12.4142 5.25 12.75 5.58579 12.75 6V16.0563C13.0187 16.16 13.2656 16.3193 13.4731 16.5269C13.8638 16.9176 14.0833 17.4475 14.0833 18C14.0833 18.5525 13.8638 19.0824 13.4731 19.4731C13.0824 19.8638 12.5525 20.0833 12 20.0833C11.4475 20.0833 10.9176 19.8638 10.5269 19.4731C10.1362 19.0824 9.91667 18.5525 9.91667 18C9.91667 17.4475 10.1362 16.9176 10.5269 16.5269C10.7344 16.3193 10.9813 16.16 11.25 16.0563V6C11.25 5.58579 11.5858 5.25 12 5.25ZM12 17.4167C11.8453 17.4167 11.6969 17.4781 11.5875 17.5875C11.4781 17.6969 11.4167 17.8453 11.4167 18C11.4167 18.1547 11.4781 18.3031 11.5875 18.4125C11.6969 18.5219 11.8453 18.5833 12 18.5833C12.1547 18.5833 12.3031 18.5219 12.4125 18.4125C12.5219 18.3031 12.5833 18.1547 12.5833 18C12.5833 17.8453 12.5219 17.6969 12.4125 17.5875C12.3031 17.4781 12.1547 17.4167 12 17.4167Z" fill="currentColor"/>
</svg>
