<svg width="24" height="24" viewBox="0 0 24 24" fill="none" xmlns="http://www.w3.org/2000/svg">
<path fill-rule="evenodd" clip-rule="evenodd" d="M7.53956 2.25072C8.18031 1.60997 9.04935 1.25 9.95551 1.25C10.8617 1.25 11.7307 1.60997 12.3715 2.25072C13.0122 2.89147 13.3722 3.76051 13.3722 4.66667V14.7198C13.957 15.3254 14.372 16.0772 14.5715 16.8993C14.7984 17.8342 14.7361 18.8159 14.3928 19.7146C14.0496 20.6132 13.4415 21.3865 12.6492 21.932C11.8568 22.4776 10.9175 22.7696 9.95551 22.7696C8.99351 22.7696 8.05419 22.4776 7.26184 21.932C6.46948 21.3865 5.86145 20.6132 5.51819 19.7146C5.17493 18.8159 5.11262 17.8342 5.33952 16.8993C5.53906 16.0772 5.95399 15.3254 6.53884 14.7198V4.66667C6.53884 3.76051 6.89881 2.89147 7.53956 2.25072ZM9.95551 2.75C9.44718 2.75 8.95966 2.95193 8.60022 3.31138C8.24077 3.67082 8.03884 4.15834 8.03884 4.66667V15.0382C8.03884 15.2516 7.94791 15.455 7.78884 15.5972C7.29824 16.036 6.95244 16.6135 6.7972 17.2531C6.64195 17.8927 6.68458 18.5644 6.91945 19.1793C7.15431 19.7942 7.57033 20.3233 8.11247 20.6965C8.65461 21.0698 9.2973 21.2696 9.95551 21.2696C10.6137 21.2696 11.2564 21.0698 11.7985 20.6965C12.3407 20.3233 12.7567 19.7942 12.9916 19.1793C13.2264 18.5644 13.2691 17.8927 13.1138 17.2531C12.9586 16.6135 12.6128 16.036 12.1222 15.5972C11.9631 15.455 11.8722 15.2516 11.8722 15.0382V4.66667C11.8722 4.15833 11.6702 3.67082 11.3108 3.31138C10.9513 2.95193 10.4638 2.75 9.95551 2.75ZM15.2082 4.66667C15.2082 4.25245 15.544 3.91667 15.9582 3.91667H20.6248C21.0391 3.91667 21.3748 4.25245 21.3748 4.66667C21.3748 5.08088 21.0391 5.41667 20.6248 5.41667H15.9582C15.544 5.41667 15.2082 5.08088 15.2082 4.66667ZM15.2082 8.66667C15.2082 8.25245 15.544 7.91667 15.9582 7.91667H17.9582C18.3724 7.91667 18.7082 8.25245 18.7082 8.66667C18.7082 9.08088 18.3724 9.41667 17.9582 9.41667H15.9582C15.544 9.41667 15.2082 9.08088 15.2082 8.66667ZM9.95817 9.91667C10.3724 9.91667 10.7082 10.2525 10.7082 10.6667V16.0563C10.9769 16.16 11.2237 16.3193 11.4313 16.5269C11.822 16.9176 12.0415 17.4475 12.0415 18C12.0415 18.5525 11.822 19.0824 11.4313 19.4731C11.0406 19.8638 10.5107 20.0833 9.95817 20.0833C9.40564 20.0833 8.87573 19.8638 8.48503 19.4731C8.09433 19.0824 7.87484 18.5525 7.87484 18C7.87484 17.4475 8.09433 16.9176 8.48503 16.5269C8.69261 16.3193 8.93949 16.16 9.20817 16.0563V10.6667C9.20817 10.2525 9.54396 9.91667 9.95817 9.91667ZM15.2082 12.6667C15.2082 12.2525 15.544 11.9167 15.9582 11.9167H20.6248C21.0391 11.9167 21.3748 12.2525 21.3748 12.6667C21.3748 13.0809 21.0391 13.4167 20.6248 13.4167H15.9582C15.544 13.4167 15.2082 13.0809 15.2082 12.6667ZM9.95817 17.4167C9.80346 17.4167 9.65509 17.4781 9.54569 17.5875C9.4363 17.6969 9.37484 17.8453 9.37484 18C9.37484 18.1547 9.4363 18.3031 9.54569 18.4125C9.65509 18.5219 9.80346 18.5833 9.95817 18.5833C10.1129 18.5833 10.2613 18.5219 10.3707 18.4125C10.48 18.3031 10.5415 18.1547 10.5415 18C10.5415 17.8453 10.48 17.6969 10.3707 17.5875C10.2613 17.4781 10.1129 17.4167 9.95817 17.4167Z" fill="currentColor"/>
</svg>
