<svg width="24" height="24" viewBox="0 0 24 24" fill="none" xmlns="http://www.w3.org/2000/svg">
<path fill-rule="evenodd" clip-rule="evenodd" d="M14.4916 2.59293C14.0279 2.37805 13.5034 2.33312 13.0099 2.46602C12.5169 2.59877 12.0863 2.90053 11.7932 3.31853L11.7923 3.31985L7.72051 9.08842C7.63588 9.20837 7.52369 9.30623 7.39336 9.37379C7.26306 9.44133 7.11837 9.4766 6.9716 9.47663H6.67039C6.4479 8.76579 5.78419 8.25 5 8.25H3C2.0335 8.25 1.25 9.0335 1.25 10V19C1.25 19.9665 2.0335 20.75 3 20.75H5C5.67766 20.75 6.26535 20.3648 6.55609 19.8015C8.50668 20.7532 9.69446 21.2289 10.8949 21.4435C11.9145 21.6256 12.945 21.6149 14.4284 21.5993C14.8935 21.5945 15.4031 21.5891 15.9708 21.5891C17.251 21.5891 18.2681 21.1636 19.0483 20.3982C19.8055 19.6553 20.2909 18.6405 20.6309 17.5366C20.639 17.5102 20.6457 17.4835 20.6508 17.4565L22.2221 12.1833C22.229 12.1602 22.2348 12.1367 22.2394 12.1131C22.3325 11.7719 22.3497 11.4141 22.2894 11.0651C22.2254 10.6944 22.0757 10.3439 21.8523 10.0412C21.6289 9.73863 21.3379 9.49235 21.0025 9.32199C20.6672 9.15164 20.2967 9.06191 19.9205 9.05996H15.8333C15.693 9.05997 15.5545 9.02777 15.4287 8.96585C15.3028 8.90392 15.1928 8.81392 15.1071 8.70278C15.0215 8.59164 14.9625 8.46233 14.9347 8.3248C14.9069 8.18729 14.9111 8.0452 14.9469 7.90954L15.682 5.12235C15.812 4.62807 15.7639 4.10383 15.5463 3.6414C15.3287 3.17896 14.9553 2.80782 14.4916 2.59293ZM5.25 18.6756C5.24984 18.6846 5.24984 18.6936 5.25 18.7026V19C5.25 19.1381 5.13807 19.25 5 19.25H3C2.86193 19.25 2.75 19.1381 2.75 19V10C2.75 9.86193 2.86193 9.75 3 9.75H5C5.13807 9.75 5.25 9.86193 5.25 10V18.6756ZM6.75 18.2252C8.98463 19.3314 10.0913 19.7761 11.1588 19.9668C12.0286 20.1223 12.8725 20.1138 14.2959 20.0995C14.7793 20.0947 15.33 20.0891 15.9708 20.0891C16.884 20.0891 17.516 19.8001 17.9979 19.3274C18.4927 18.842 18.8767 18.1151 19.179 17.1543C19.1834 17.1321 19.1889 17.1101 19.1954 17.0883L20.7686 11.8084C20.7732 11.7861 20.7788 11.7639 20.7855 11.742C20.8268 11.6054 20.8356 11.4611 20.8113 11.3205C20.787 11.1799 20.7302 11.0469 20.6455 10.9322C20.5608 10.8174 20.4504 10.724 20.3232 10.6593C20.1965 10.595 20.0565 10.561 19.9144 10.56H15.8334C15.4635 10.56 15.0985 10.4751 14.7666 10.3118C14.4347 10.1486 14.1447 9.91131 13.9189 9.61831C13.6932 9.32531 13.5377 8.98439 13.4644 8.62182C13.3912 8.25925 13.4021 7.88471 13.4965 7.52705L14.2313 4.7409C14.2717 4.58718 14.2568 4.42394 14.1891 4.28012C14.1214 4.13624 14.0052 4.02077 13.861 3.95391C13.7167 3.88705 13.5535 3.87307 13.3999 3.91442C13.2464 3.95577 13.1123 4.04981 13.0211 4.18008L13.0194 4.18246L8.94616 9.95317C8.72306 10.2693 8.42721 10.5274 8.08367 10.7055C7.74008 10.8836 7.35875 10.9766 6.97174 10.9766H6.75V18.2252Z" fill="currentColor"/>
</svg>
