<svg width="24" height="24" viewBox="0 0 24 24" fill="none" xmlns="http://www.w3.org/2000/svg">
<path fill-rule="evenodd" clip-rule="evenodd" d="M11.999 1.75C10.6294 1.75 9.91014 2.51418 9.3883 3.06861L9.36181 3.09675C8.83968 3.65106 8.51331 3.972 7.815 3.972L7.79902 3.97217C7.43363 3.97996 7.07819 3.853 6.80043 3.61556C6.49245 3.34752 6.10502 3.18787 5.69753 3.16114C5.28861 3.13432 4.88223 3.24286 4.54114 3.47C4.20005 3.69714 3.94322 4.03025 3.8103 4.41789C3.67738 4.80554 3.67576 5.22616 3.8057 5.61481L3.80941 5.62563C4.32684 7.09822 4.98111 8.68693 5.71551 10.0362C6.05215 10.6547 6.42117 11.2528 6.81981 11.7728C6.49467 11.8549 6.25403 12.1494 6.25403 12.5C6.25403 12.9142 6.58981 13.25 7.00403 13.25H8.63594C8.64485 13.2502 8.65375 13.2502 8.66264 13.25H15.3513C15.3596 13.2501 15.3679 13.2501 15.3762 13.25H17.004C17.4182 13.25 17.754 12.9142 17.754 12.5C17.754 12.1444 17.5066 11.8466 17.1745 11.7695C17.5925 11.2172 17.9705 10.583 18.3091 9.93709C19.0137 8.593 19.6174 7.057 20.0895 5.73166C20.2236 5.35485 20.2332 4.94476 20.1168 4.56211C20.0004 4.17946 19.7642 3.84431 19.443 3.60601C19.1218 3.36772 18.7325 3.23888 18.3326 3.23847C17.9326 3.23806 17.5431 3.3661 17.2214 3.60373C17.2101 3.61207 17.199 3.62073 17.1882 3.62969C16.9125 3.85838 16.5635 3.97998 16.2053 3.97218L16.189 3.972C15.4858 3.972 15.1576 3.64976 14.6359 3.09649L14.6081 3.06695C14.0863 2.51305 13.3675 1.75 11.999 1.75ZM15.1323 11.75C15.7297 11.3027 16.3631 10.4187 16.9806 9.24066C17.6373 7.988 18.2136 6.528 18.6765 5.22834C18.7028 5.15432 18.7046 5.07381 18.6818 4.99866C18.6589 4.92344 18.6125 4.85756 18.5493 4.81072C18.4862 4.76387 18.4097 4.73855 18.331 4.73847C18.2571 4.73839 18.1849 4.76066 18.124 4.80218C17.576 5.24797 16.8877 5.48542 16.181 5.47199C14.8105 5.46902 14.0914 4.70582 13.5685 4.15095L13.5446 4.12551C13.0212 3.57038 12.696 3.25 11.999 3.25C11.3019 3.25 10.9762 3.57056 10.4537 4.12525L10.428 4.15257C9.90671 4.70635 9.18879 5.46907 7.82287 5.47199C7.09018 5.48562 6.37792 5.22951 5.82162 4.7522L5.8163 4.74764C5.75579 4.69473 5.67957 4.66319 5.59936 4.65793C5.51916 4.65267 5.43945 4.67396 5.37255 4.71851C5.30565 4.76306 5.25527 4.8284 5.2292 4.90443C5.20358 4.97914 5.20283 5.06009 5.22699 5.13521C5.72814 6.5606 6.35098 8.06607 7.03299 9.31907C7.67513 10.4988 8.31201 11.344 8.87283 11.75H10.2372C9.41657 10.6344 8.7984 9.37883 8.415 8.04055C8.30092 7.64236 8.53124 7.22708 8.92944 7.113C9.32763 6.99892 9.74291 7.22924 9.85699 7.62744C10.2762 9.09063 11.0173 10.4404 12.0248 11.5784C12.9936 10.7028 13.7309 9.59977 14.1694 8.36754C14.3083 7.97729 14.7372 7.77352 15.1275 7.91238C15.5177 8.05125 15.7215 8.48018 15.5826 8.87042C15.2077 9.92415 14.649 10.8985 13.9365 11.75H15.1323Z" fill="currentColor"/>
<path d="M4.80687 12.5302C5.15158 12.3005 5.24482 11.8349 5.01514 11.4901C4.78546 11.1454 4.31983 11.0522 3.97512 11.2819C3.59835 11.5329 3.28939 11.8731 3.07567 12.2723C2.86195 12.6714 2.75008 13.1173 2.75 13.57V20.5C2.75 20.9642 2.93437 21.4093 3.26256 21.7375C3.59075 22.0657 4.03587 22.25 4.5 22.25H19.5C19.9641 22.25 20.4092 22.0657 20.7374 21.7375C21.0656 21.4093 21.25 20.9642 21.25 20.5V13.5699C21.2499 13.1171 21.1381 12.6714 20.9243 12.2723C20.7106 11.8731 20.4016 11.5329 20.0249 11.2819C19.6802 11.0522 19.2145 11.1454 18.9849 11.4901C18.7552 11.8349 18.8484 12.3005 19.1931 12.5302C19.3644 12.6443 19.5048 12.7989 19.602 12.9803C19.6991 13.1617 19.7499 13.3644 19.75 13.5702V20.5C19.75 20.5663 19.7237 20.6299 19.6768 20.6768C19.6299 20.7237 19.5663 20.75 19.5 20.75H4.5C4.43369 20.75 4.37011 20.7237 4.32322 20.6768C4.27634 20.6299 4.25 20.5663 4.25 20.5V13.57C4.25006 13.3643 4.30091 13.1617 4.39803 12.9803C4.49518 12.7989 4.63561 12.6443 4.80687 12.5302Z" fill="currentColor"/>
</svg>
