<svg width="24" height="24" viewBox="0 0 24 24" fill="none" xmlns="http://www.w3.org/2000/svg">
<path fill-rule="evenodd" clip-rule="evenodd" d="M7.5 2.25C5.15279 2.25 3.25 4.15279 3.25 6.5C3.25 8.84721 5.15279 10.75 7.5 10.75H16.5C18.8472 10.75 20.75 8.84721 20.75 6.5C20.75 4.15279 18.8472 2.25 16.5 2.25H7.5ZM7.5 13.25C5.15279 13.25 3.25 15.1528 3.25 17.5C3.25 19.8472 5.15279 21.75 7.5 21.75H16.5C18.8472 21.75 20.75 19.8472 20.75 17.5C20.75 15.1528 18.8472 13.25 16.5 13.25H7.5ZM9 6.5C9 7.32843 8.32843 8 7.5 8C6.67157 8 6 7.32843 6 6.5C6 5.67157 6.67157 5 7.5 5C8.32843 5 9 5.67157 9 6.5ZM16.5 19C17.3284 19 18 18.3284 18 17.5C18 16.6716 17.3284 16 16.5 16C15.6716 16 15 16.6716 15 17.5C15 18.3284 15.6716 19 16.5 19Z" fill="currentColor"/>
</svg>
