<svg width="24" height="24" viewBox="0 0 24 24" fill="none" xmlns="http://www.w3.org/2000/svg">
<path fill-rule="evenodd" clip-rule="evenodd" d="M3.25 6.5C3.25 4.15279 5.15279 2.25 7.5 2.25H16.5C18.8472 2.25 20.75 4.15279 20.75 6.5C20.75 8.84721 18.8472 10.75 16.5 10.75H7.5C5.15279 10.75 3.25 8.84721 3.25 6.5ZM7.5 3.75C5.98122 3.75 4.75 4.98122 4.75 6.5C4.75 8.01878 5.98122 9.25 7.5 9.25H16.5C18.0188 9.25 19.25 8.01878 19.25 6.5C19.25 4.98122 18.0188 3.75 16.5 3.75H7.5Z" fill="currentColor"/>
<path fill-rule="evenodd" clip-rule="evenodd" d="M3.25 17.5C3.25 15.1528 5.15279 13.25 7.5 13.25H16.5C18.8472 13.25 20.75 15.1528 20.75 17.5C20.75 19.8472 18.8472 21.75 16.5 21.75H7.5C5.15279 21.75 3.25 19.8472 3.25 17.5ZM7.5 14.75C5.98122 14.75 4.75 15.9812 4.75 17.5C4.75 19.0188 5.98122 20.25 7.5 20.25H16.5C18.0188 20.25 19.25 19.0188 19.25 17.5C19.25 15.9812 18.0188 14.75 16.5 14.75H7.5Z" fill="currentColor"/>
<path d="M9 6.5C9 7.32843 8.32843 8 7.5 8C6.67157 8 6 7.32843 6 6.5C6 5.67157 6.67157 5 7.5 5C8.32843 5 9 5.67157 9 6.5Z" fill="currentColor"/>
<path d="M18 17.5C18 18.3284 17.3284 19 16.5 19C15.6716 19 15 18.3284 15 17.5C15 16.6716 15.6716 16 16.5 16C17.3284 16 18 16.6716 18 17.5Z" fill="currentColor"/>
</svg>
