<svg width="24" height="24" viewBox="0 0 24 24" fill="none" xmlns="http://www.w3.org/2000/svg">
<path fill-rule="evenodd" clip-rule="evenodd" d="M3.55914 4.18414C4.63747 3.1058 6.10001 2.5 7.625 2.5C9.14999 2.5 10.6125 3.1058 11.6909 4.18414C12.7692 5.26247 13.375 6.72501 13.375 8.25C13.375 9.77499 12.7692 11.2375 11.6909 12.3159C10.6125 13.3942 9.14999 14 7.625 14C6.10001 14 4.63747 13.3942 3.55914 12.3159C2.4808 11.2375 1.875 9.77499 1.875 8.25C1.875 6.72501 2.4808 5.26247 3.55914 4.18414ZM7.625 4C6.49783 4 5.41683 4.44777 4.6198 5.2448C3.82277 6.04183 3.375 7.12283 3.375 8.25C3.375 9.37717 3.82277 10.4582 4.6198 11.2552C5.41683 12.0522 6.49783 12.5 7.625 12.5C8.75217 12.5 9.83317 12.0522 10.6302 11.2552C11.4272 10.4582 11.875 9.37717 11.875 8.25C11.875 7.12283 11.4272 6.04183 10.6302 5.2448C9.83317 4.44777 8.75217 4 7.625 4ZM7.625 5.29C8.03921 5.29 8.375 5.62579 8.375 6.04V8.25C8.375 8.66421 8.03921 9 7.625 9H5.415C5.00079 9 4.665 8.66421 4.665 8.25C4.665 7.83579 5.00079 7.5 5.415 7.5H6.875V6.04C6.875 5.62579 7.21079 5.29 7.625 5.29ZM13.125 12C13.125 11.5858 13.4608 11.25 13.875 11.25H15.125C15.6554 11.25 16.1641 11.4607 16.5392 11.8358C16.7307 12.0273 16.8794 12.2537 16.979 12.5H18.875C19.737 12.5 20.5636 12.8424 21.1731 13.4519C21.7826 14.0614 22.125 14.888 22.125 15.75V18.25C22.125 18.7804 21.9143 19.2891 21.5392 19.6642C21.1641 20.0393 20.6554 20.25 20.125 20.25H18.7415C18.6331 20.4594 18.4925 20.6529 18.3227 20.8227C17.889 21.2564 17.3008 21.5 16.6875 21.5C16.0742 21.5 15.486 21.2564 15.0523 20.8227C14.8825 20.6529 14.7419 20.4594 14.6335 20.25H11.8665C11.7581 20.4594 11.6175 20.6529 11.4477 20.8227C11.014 21.2564 10.4258 21.5 9.8125 21.5C9.19919 21.5 8.61099 21.2564 8.17732 20.8227C8.00752 20.6529 7.86685 20.4594 7.75854 20.25H7.625C7.09457 20.25 6.58586 20.0393 6.21079 19.6642C5.83571 19.2891 5.625 18.7804 5.625 18.25V15.75C5.625 15.3358 5.96079 15 6.375 15C6.78921 15 7.125 15.3358 7.125 15.75V18.25C7.125 18.3826 7.17768 18.5098 7.27145 18.6036C7.34568 18.6778 7.44084 18.7263 7.54307 18.7432C7.63076 18.2953 7.84986 17.8798 8.17732 17.5523C8.61099 17.1186 9.19919 16.875 9.8125 16.875C10.4258 16.875 11.014 17.1186 11.4477 17.5523C11.7768 17.8814 11.9964 18.2995 12.0832 18.75H14.4168C14.5036 18.2995 14.7232 17.8814 15.0523 17.5523C15.2221 17.3825 15.4156 17.2419 15.625 17.1335V13.25C15.625 13.1174 15.5723 12.9902 15.4786 12.8964C15.3848 12.8027 15.2576 12.75 15.125 12.75H13.875C13.4608 12.75 13.125 12.4142 13.125 12ZM16.5118 18.3942C16.5209 18.3925 16.53 18.3907 16.5389 18.3887C16.5876 18.3796 16.6373 18.375 16.6875 18.375C16.903 18.375 17.1096 18.4606 17.262 18.613C17.4144 18.7654 17.5 18.972 17.5 19.1875C17.5 19.2377 17.4954 19.2874 17.4863 19.3361C17.4843 19.345 17.4825 19.3541 17.4808 19.3632C17.4476 19.5131 17.3723 19.6518 17.262 19.762C17.1097 19.9144 16.903 20 16.6875 20C16.472 20 16.2653 19.9144 16.113 19.762C16.0027 19.6518 15.9274 19.5131 15.8942 19.3632C15.8925 19.3541 15.8907 19.345 15.8887 19.3361C15.8796 19.2874 15.875 19.2377 15.875 19.1875C15.875 18.972 15.9606 18.7654 16.113 18.613C16.2232 18.5027 16.3619 18.4274 16.5118 18.3942ZM18.9582 18.75C18.8714 18.2995 18.6518 17.8814 18.3227 17.5523C17.9936 17.2232 17.5755 17.0036 17.125 16.9168V14H18.875C19.3391 14 19.7842 14.1844 20.1124 14.5126C20.2554 14.6555 20.3711 14.8207 20.4561 15H18.875C18.4608 15 18.125 15.3358 18.125 15.75C18.125 16.1642 18.4608 16.5 18.875 16.5H20.625V18.25C20.625 18.3826 20.5723 18.5098 20.4786 18.6036C20.3848 18.6973 20.2576 18.75 20.125 18.75H18.9582ZM9.8125 18.375C9.59701 18.375 9.39035 18.4606 9.23798 18.613C9.0856 18.7654 9 18.972 9 19.1875C9 19.403 9.0856 19.6097 9.23798 19.762C9.39035 19.9144 9.59701 20 9.8125 20C10.028 20 10.2347 19.9144 10.387 19.762C10.5394 19.6097 10.625 19.403 10.625 19.1875C10.625 18.972 10.5394 18.7654 10.387 18.613C10.2346 18.4606 10.028 18.375 9.8125 18.375Z" fill="currentColor"/>
</svg>
