<svg width="24" height="24" viewBox="0 0 24 24" fill="none" xmlns="http://www.w3.org/2000/svg">
<path d="M15.4697 9.03033C15.7626 9.32322 16.2374 9.32322 16.5303 9.03033C16.8232 8.73744 16.8232 8.26256 16.5303 7.96967L12.5303 3.96967C12.2374 3.67678 11.7626 3.67678 11.4697 3.96967L7.46967 7.96967C7.17678 8.26256 7.17678 8.73744 7.46967 9.03033C7.76256 9.32322 8.23744 9.32322 8.53033 9.03033L11.25 6.31066V15.5C11.25 15.9142 11.5858 16.25 12 16.25C12.4142 16.25 12.75 15.9142 12.75 15.5V6.31066L15.4697 9.03033Z" fill="currentColor"/>
<path d="M3.75 16C3.75 15.5858 3.41421 15.25 3 15.25C2.58579 15.25 2.25 15.5858 2.25 16V17C2.25 18.5188 3.48122 19.75 5 19.75H19C20.5188 19.75 21.75 18.5188 21.75 17V16C21.75 15.5858 21.4142 15.25 21 15.25C20.5858 15.25 20.25 15.5858 20.25 16V17C20.25 17.6904 19.6904 18.25 19 18.25H5C4.30964 18.25 3.75 17.6904 3.75 17V16Z" fill="currentColor"/>
</svg>
