<svg width="24" height="24" viewBox="0 0 24 24" fill="none" xmlns="http://www.w3.org/2000/svg">
<path fill-rule="evenodd" clip-rule="evenodd" d="M16.4697 14.2076C16.7626 13.9148 17.2375 13.9148 17.5304 14.2076L20.4494 17.1267C20.9214 17.5989 21.1867 18.2393 21.1867 18.907C21.1867 19.5747 20.9215 20.215 20.4495 20.6872C20.2017 20.9351 19.9048 21.1286 19.5779 21.2552C19.251 21.3818 18.9013 21.4388 18.5511 21.4224C18.2009 21.406 17.858 21.3168 17.5443 21.1602C17.2306 21.0037 16.9531 20.7834 16.7295 20.5135L13.3889 16.4783C13.1247 16.1592 13.1692 15.6865 13.4883 15.4223C13.8074 15.1582 14.2801 15.2027 14.5443 15.5217L17.8846 19.5566C17.975 19.6656 18.0873 19.7548 18.2141 19.818C18.3409 19.8813 18.4795 19.9174 18.6211 19.924C18.7627 19.9306 18.904 19.9076 19.0362 19.8564C19.1684 19.8053 19.2884 19.727 19.3886 19.6268C19.5794 19.4359 19.6867 19.1769 19.6867 18.907C19.6867 18.6371 19.5795 18.3782 19.3887 18.1873C19.3887 18.1873 19.3887 18.1874 19.3887 18.1873L16.4697 15.2683C16.1768 14.9754 16.1768 14.5005 16.4697 14.2076Z" fill="currentColor"/>
<path fill-rule="evenodd" clip-rule="evenodd" d="M4.56304 4.06977C4.33654 4.06977 4.11226 4.1144 3.90302 4.20112C3.69377 4.28783 3.50367 4.41493 3.34356 4.57515L3.34245 4.57626C3.30869 4.60991 3.21798 4.73152 3.2644 5.12341C3.31046 5.5123 3.48124 6.0418 3.79901 6.7062C4.43088 8.02736 5.55552 9.70245 7.00207 11.5353C7.25869 11.8604 7.20314 12.3321 6.87799 12.5887C6.55285 12.8453 6.08123 12.7897 5.82462 12.4646C4.35155 10.5982 3.14814 8.82186 2.44581 7.3534C2.09648 6.62299 1.84863 5.92312 1.77481 5.29984C1.70137 4.67978 1.78944 4.00667 2.28308 3.5143C2.58237 3.21495 2.93769 2.97746 3.32875 2.8154C3.72005 2.65323 4.13947 2.56977 4.56304 2.56977C4.98662 2.56977 5.40604 2.65323 5.79734 2.8154C6.18856 2.97753 6.54401 3.21514 6.84338 3.51467C6.84331 3.51461 6.84344 3.51474 6.84338 3.51467L9.79832 6.46961C10.0912 6.76251 10.0912 7.23738 9.79832 7.53027C9.50542 7.82317 9.03055 7.82317 8.73765 7.53027L5.78271 4.57533C5.62261 4.41512 5.43232 4.28783 5.22307 4.20112C5.01383 4.1144 4.78955 4.06977 4.56304 4.06977Z" fill="currentColor"/>
<path fill-rule="evenodd" clip-rule="evenodd" d="M18.8714 4.05674C19.1643 4.34967 19.1642 4.82454 18.8713 5.1174L14.9213 9.0664C14.6284 9.35926 14.1535 9.3592 13.8606 9.06627C13.5678 8.77334 13.5679 8.29846 13.8608 8.00561L17.8108 4.05661C18.1037 3.76375 18.5786 3.76381 18.8714 4.05674Z" fill="currentColor"/>
<path fill-rule="evenodd" clip-rule="evenodd" d="M20.4794 5.46967C20.7723 5.76257 20.7723 6.23744 20.4794 6.53033L16.5304 10.4793C16.2375 10.7722 15.7626 10.7722 15.4697 10.4793C15.1768 10.1864 15.1768 9.71157 15.4697 9.41867L19.4187 5.46967C19.7116 5.17678 20.1865 5.17678 20.4794 5.46967Z" fill="currentColor"/>
<path fill-rule="evenodd" clip-rule="evenodd" d="M22.0304 7.21667C22.3233 7.50957 22.3233 7.98444 22.0304 8.27733L17.6864 12.6213C17.3935 12.9142 16.9186 12.9142 16.6257 12.6213C16.3328 12.3284 16.3328 11.8536 16.6257 11.5607L20.9697 7.21667C21.2626 6.92378 21.7375 6.92378 22.0304 7.21667Z" fill="currentColor"/>
<path fill-rule="evenodd" clip-rule="evenodd" d="M17.2913 2.47661C17.5842 2.76947 17.5843 3.24435 17.2914 3.53727L12.9474 7.88227C12.6546 8.1752 12.1797 8.17525 11.8868 7.8824C11.5938 7.58954 11.5938 7.11466 11.8867 6.82173L16.2307 2.47673C16.5235 2.18381 16.9984 2.18375 17.2913 2.47661Z" fill="currentColor"/>
<path fill-rule="evenodd" clip-rule="evenodd" d="M12.9472 6.82147C13.2402 7.11425 13.2402 7.58927 12.9474 7.88227C12.5923 8.23772 12.3481 8.68849 12.2442 9.18013C12.1404 9.67176 12.1815 10.183 12.3626 10.6517C12.4768 10.9471 12.3931 11.2823 12.1535 11.4894L4.72449 17.9104C4.72449 17.9104 4.72449 17.9104 4.72449 17.9104C4.58644 18.0297 4.47445 18.1763 4.39553 18.3408C4.31661 18.5053 4.27245 18.6843 4.26579 18.8667C4.25913 19.049 4.29013 19.2308 4.35685 19.4007C4.42356 19.5705 4.52457 19.7248 4.65355 19.8539C4.78255 19.9828 4.93672 20.0838 5.10645 20.1505C5.27627 20.2173 5.45803 20.2483 5.64039 20.2417C5.82275 20.2351 6.00179 20.191 6.16634 20.1122C6.33089 20.0333 6.47742 19.9214 6.59679 19.7834L13.0187 12.3545C13.2256 12.1151 13.5606 12.0314 13.8558 12.1452C14.3248 12.326 14.836 12.3669 15.3278 12.2631C15.8195 12.1592 16.2699 11.9156 16.6257 11.5607C16.9189 11.2681 17.3944 11.2681 17.687 11.5613C17.9795 11.8545 17.9796 12.3288 17.6864 12.6213C17.1253 13.1812 16.4132 13.5669 15.6377 13.7307C15.0397 13.857 14.4233 13.8475 13.8333 13.7058L7.73143 20.7645C7.47723 21.0584 7.16504 21.2969 6.81463 21.4648C6.46421 21.6328 6.08294 21.7267 5.69461 21.7408C5.30628 21.7548 4.91923 21.6887 4.55759 21.5465C4.19595 21.4043 3.8675 21.1891 3.59273 20.9143C3.31804 20.6395 3.10277 20.3108 2.96069 19.9491C2.81862 19.5874 2.75261 19.2003 2.76679 18.812C2.78096 18.4236 2.87502 18.0424 3.04308 17.692C3.21114 17.3417 3.44961 17.0297 3.7436 16.7756L10.802 10.6749C10.6599 10.0849 10.6503 9.46835 10.7766 8.87016C10.9405 8.09434 11.3262 7.38264 11.8867 6.82173C12.1794 6.52873 12.6542 6.52869 12.9472 6.82147Z" fill="currentColor"/>
</svg>
