<svg width="24" height="24" viewBox="0 0 24 24" fill="none" xmlns="http://www.w3.org/2000/svg">
<path fill-rule="evenodd" clip-rule="evenodd" d="M18.6667 7.27827C18.4735 8.40281 18.2775 9.99714 18.08 12.0711C17.8572 14.4099 17.6324 16.1882 17.4034 17.3903C17.29 17.9857 17.1692 18.475 17.0342 18.8295C16.9683 19.0025 16.8824 19.1888 16.7632 19.3452C16.6574 19.4841 16.4078 19.75 16 19.75C15.5922 19.75 15.3426 19.4841 15.2368 19.3452C15.1176 19.1888 15.0317 19.0025 14.9658 18.8295C14.8308 18.475 14.71 17.9857 14.5966 17.3903C14.3676 16.1882 14.1428 14.4099 13.92 12.0711C13.7223 9.99516 13.5263 8.40123 13.3333 7.2783C13.1404 8.40123 12.9443 9.99516 12.7466 12.0711C12.5239 14.4099 12.2991 16.1882 12.0701 17.3903C11.9567 17.9857 11.8359 18.475 11.7009 18.8295C11.635 19.0025 11.549 19.1888 11.4299 19.3452C11.324 19.4841 11.0744 19.75 10.6667 19.75C10.2589 19.75 10.0093 19.4841 9.90343 19.3452C9.7843 19.1888 9.69836 19.0025 9.63247 18.8295C9.49744 18.475 9.37664 17.9857 9.26325 17.3903C9.03427 16.1882 8.80946 14.4099 8.58671 12.0711C8.389 9.99516 8.19293 8.40123 8 7.2783C7.80707 8.40123 7.611 9.99516 7.41329 12.0711C7.20593 14.2483 6.99692 15.9381 6.7848 17.1293C6.67915 17.7226 6.56914 18.2131 6.45162 18.5861C6.39305 18.7719 6.32672 18.9478 6.24875 19.1C6.17886 19.2364 6.06207 19.4302 5.86882 19.5715C5.76285 19.649 5.61807 19.722 5.4384 19.7437C5.25372 19.766 5.08281 19.7277 4.9411 19.6582C4.68878 19.5346 4.54401 19.3217 4.46852 19.1925C4.30572 18.914 4.18221 18.5183 4.07676 18.0803C3.85826 17.1728 3.64748 15.7695 3.44023 13.8963C3.36778 13.2416 2.8204 12.75 2.18143 12.75H2C1.58579 12.75 1.25 12.4142 1.25 12C1.25 11.5858 1.58579 11.25 2 11.25H2.18143C3.60469 11.25 4.77678 12.3364 4.93113 13.7314C5.06713 14.9605 5.20159 15.9548 5.33332 16.7217C5.52652 15.5972 5.72252 14.0029 5.92005 11.9289C6.14279 9.59006 6.3676 7.81181 6.59658 6.60967C6.70997 6.01435 6.83077 5.52496 6.9658 5.1705C7.03169 4.99754 7.11763 4.8112 7.23676 4.65484C7.34264 4.51587 7.59224 4.25 8 4.25C8.40776 4.25 8.65736 4.51587 8.76324 4.65484C8.88237 4.8112 8.96831 4.99754 9.0342 5.1705C9.16923 5.52496 9.29003 6.01435 9.40342 6.60967C9.6324 7.81181 9.85721 9.59006 10.08 11.9289C10.2777 14.0048 10.4737 15.5988 10.6667 16.7217C10.8596 15.5988 11.0557 14.0048 11.2534 11.9289C11.4761 9.59006 11.7009 7.81181 11.9299 6.60967C12.0433 6.01435 12.1641 5.52496 12.2991 5.1705C12.365 4.99754 12.451 4.8112 12.5701 4.65484C12.676 4.51587 12.9256 4.25 13.3333 4.25C13.7411 4.25 13.9907 4.51587 14.0966 4.65484C14.2157 4.8112 14.3016 4.99754 14.3675 5.1705C14.5026 5.52496 14.6234 6.01435 14.7368 6.60967C14.9657 7.81181 15.1905 9.59006 15.4133 11.9289C15.611 14.0048 15.8071 15.5988 16 16.7217C16.1929 15.5988 16.389 14.0048 16.5867 11.9289C16.7941 9.75167 17.0031 8.06188 17.2152 6.8707C17.3209 6.2774 17.4309 5.78688 17.5484 5.41395C17.607 5.22808 17.6733 5.05225 17.7512 4.90005C17.8211 4.7636 17.9379 4.56978 18.1312 4.42849C18.2372 4.35102 18.3819 4.27797 18.5616 4.25632C18.7463 4.23405 18.9172 4.27232 19.0589 4.34176C19.3112 4.46539 19.456 4.67831 19.5315 4.80748C19.6943 5.08605 19.8178 5.48174 19.9232 5.91969C20.1417 6.82722 20.3525 8.23052 20.5598 10.1037C20.6322 10.7584 21.1796 11.25 21.8186 11.25H22C22.4142 11.25 22.75 11.5858 22.75 12C22.75 12.4142 22.4142 12.75 22 12.75H21.8186C20.3953 12.75 19.2232 11.6636 19.0689 10.2686C18.9329 9.03951 18.7984 8.0452 18.6667 7.27827ZM19.1031 5.55458C19.1031 5.5547 19.1019 5.55674 19.0992 5.56033C19.1017 5.55625 19.103 5.55446 19.1031 5.55458ZM18.2346 5.56126C18.2303 5.5555 18.2282 5.5521 18.2283 5.55184C18.2284 5.55158 18.2305 5.55445 18.2346 5.56126ZM4.89695 18.4454C4.89691 18.4453 4.89815 18.4433 4.90075 18.4397C4.89828 18.4438 4.89698 18.4455 4.89695 18.4454ZM5.76539 18.4387C5.76973 18.4445 5.77177 18.4479 5.77171 18.4482C5.77164 18.4484 5.76948 18.4455 5.76539 18.4387Z" fill="currentColor"/>
</svg>
