<svg width="24" height="24" viewBox="0 0 24 24" fill="none" xmlns="http://www.w3.org/2000/svg">
<path fill-rule="evenodd" clip-rule="evenodd" d="M12 6.45001C12.4142 6.45001 12.75 6.7858 12.75 7.20001V7.53511C13.8439 7.58938 14.8442 7.76137 15.6312 8.02368C16.1092 8.18299 16.5502 8.38924 16.887 8.65472C17.2154 8.91357 17.55 9.31745 17.55 9.86666C17.55 10.2809 17.2142 10.6167 16.8 10.6167C16.4037 10.6167 16.0793 10.3094 16.0518 9.92015C16.0382 9.90315 16.0105 9.87383 15.9585 9.8328C15.8096 9.71542 15.5476 9.57691 15.1569 9.44672C14.5402 9.24116 13.7055 9.08997 12.75 9.03715V10.7317C13.9835 10.7816 15.109 10.9536 15.9866 11.2168C16.5082 11.3733 16.985 11.5745 17.3481 11.832C17.6917 12.0758 18.0833 12.4821 18.0833 13.0667C18.0833 13.4809 17.7475 13.8167 17.3333 13.8167C16.9453 13.8167 16.6261 13.5221 16.5873 13.1444C16.5697 13.1258 16.5372 13.0959 16.4803 13.0555C16.3036 12.9302 15.9992 12.7866 15.5557 12.6536C14.836 12.4377 13.8611 12.2821 12.75 12.2331V13.937C13.5414 13.9805 14.2657 14.0922 14.8461 14.2581C15.2209 14.3652 15.5786 14.5068 15.8599 14.6968C16.1149 14.8691 16.4834 15.2055 16.4834 15.7334C16.4834 16.1476 16.1476 16.4834 15.7334 16.4834C15.3884 16.4834 15.0978 16.2504 15.0103 15.9332C14.9111 15.8687 14.7248 15.7835 14.434 15.7003C13.9988 15.576 13.4177 15.481 12.75 15.4396V16.8C12.75 17.2142 12.4142 17.55 12 17.55C11.5858 17.55 11.25 17.2142 11.25 16.8V15.4396C10.5823 15.4811 10.0013 15.576 9.56615 15.7003C9.27531 15.7835 9.08906 15.8687 8.9898 15.9332C8.90233 16.2504 8.61173 16.4834 8.26672 16.4834C7.85251 16.4834 7.51672 16.1476 7.51672 15.7334C7.51672 15.2055 7.88518 14.8691 8.14023 14.6968C8.4215 14.5068 8.77924 14.3652 9.15397 14.2581C9.7344 14.0922 10.4586 13.9805 11.25 13.937V12.2331C10.1389 12.2821 9.1639 12.4377 8.44425 12.6536C8.00067 12.7866 7.69635 12.9302 7.51967 13.0555C7.46276 13.0959 7.4302 13.1258 7.41265 13.1444C7.37378 13.5221 7.05461 13.8167 6.66663 13.8167C6.25241 13.8167 5.91663 13.4809 5.91663 13.0667C5.91663 12.4821 6.3082 12.0758 6.65185 11.832C7.01495 11.5745 7.49169 11.3733 8.01327 11.2168C8.89092 10.9536 10.0164 10.7816 11.25 10.7317V9.03715C10.2945 9.08996 9.45972 9.24115 8.84297 9.44672C8.45234 9.57691 8.19034 9.71542 8.0414 9.8328C7.98936 9.87383 7.96173 9.90315 7.94807 9.92014C7.92065 10.3094 7.59618 10.6167 7.19995 10.6167C6.78574 10.6167 6.44995 10.2809 6.44995 9.86666C6.44995 9.31745 6.78447 8.91357 7.1129 8.65472C7.44974 8.38924 7.89068 8.18299 8.36867 8.02368C9.1557 7.76136 10.1561 7.58937 11.25 7.5351V7.20001C11.25 6.7858 11.5858 6.45001 12 6.45001ZM16.6018 13.1613C16.6038 13.1651 16.6051 13.167 16.6053 13.1669C16.6055 13.1669 16.6051 13.1661 16.6039 13.1644L16.6018 13.1613ZM8.93352 15.9759C8.93315 15.9759 8.93566 15.9731 8.94216 15.9676C8.93714 15.9732 8.93389 15.976 8.93352 15.9759ZM15.0666 15.9759C15.0664 15.976 15.0653 15.9751 15.0635 15.9734C15.0621 15.972 15.0602 15.9701 15.058 15.9676C15.0645 15.9731 15.067 15.9759 15.0666 15.9759Z" fill="currentColor"/>
<path fill-rule="evenodd" clip-rule="evenodd" d="M5 3.25C4.0335 3.25 3.25 4.0335 3.25 5V19C3.25 19.9665 4.0335 20.75 5 20.75H19C19.9665 20.75 20.75 19.9665 20.75 19V5C20.75 4.0335 19.9665 3.25 19 3.25H5ZM4.75 5C4.75 4.86193 4.86193 4.75 5 4.75H19C19.1381 4.75 19.25 4.86193 19.25 5V19C19.25 19.1381 19.1381 19.25 19 19.25H5C4.86193 19.25 4.75 19.1381 4.75 19V5Z" fill="currentColor"/>
</svg>
