<svg width="24" height="24" viewBox="0 0 24 24" fill="none" xmlns="http://www.w3.org/2000/svg">
<path d="M3 4.75C3 3.7835 3.7835 3 4.75 3H18.75C19.7165 3 20.5 3.7835 20.5 4.75V9.25C20.5 9.66421 20.1642 10 19.75 10C19.3358 10 19 9.66421 19 9.25V4.75C19 4.61193 18.8881 4.5 18.75 4.5H4.75C4.61193 4.5 4.5 4.61193 4.5 4.75V18.75C4.5 18.8881 4.61193 19 4.75 19H9.25C9.66421 19 10 19.3358 10 19.75C10 20.1642 9.66421 20.5 9.25 20.5H4.75C3.7835 20.5 3 19.7165 3 18.75V4.75Z" fill="currentColor"/>
<path fill-rule="evenodd" clip-rule="evenodd" d="M12.5 6.95001C12.5 6.5358 12.1642 6.20001 11.75 6.20001C11.3358 6.20001 11 6.5358 11 6.95001V7.2851C9.9061 7.33937 8.9057 7.51136 8.11867 7.77368C7.64068 7.93299 7.19974 8.13924 6.8629 8.40472C6.53447 8.66357 6.19995 9.06745 6.19995 9.61666C6.19995 10.0309 6.53574 10.3667 6.94995 10.3667C7.34618 10.3667 7.67065 10.0594 7.69807 9.67014C7.71173 9.65315 7.73936 9.62383 7.7914 9.5828C7.94034 9.46542 8.20234 9.32691 8.59297 9.19672C9.20972 8.99115 10.0445 8.83996 11 8.78715V10.4817C9.76648 10.5316 8.64101 10.7036 7.76339 10.9668C7.24182 11.1233 6.76507 11.3245 6.40197 11.582C6.05832 11.8258 5.66675 12.2321 5.66675 12.8167C5.66675 13.2309 6.00253 13.5667 6.41675 13.5667C6.80473 13.5667 7.1239 13.2721 7.16277 12.8944C7.18032 12.8758 7.21288 12.8459 7.26979 12.8055C7.44647 12.6802 7.75079 12.5366 8.19437 12.4036C9.02694 12.1538 10.2013 11.9847 11.5327 11.968C11.6015 11.9888 11.6744 12 11.75 12C12.1642 12 12.5 11.6642 12.5 11.25V11.2278L12.5001 11.2167L12.5 11.2055V8.78713C13.7735 8.85751 14.8145 9.10179 15.4139 9.40228C15.7842 9.58792 16.2348 9.43824 16.4205 9.06795C16.6061 8.69767 16.4564 8.247 16.0861 8.06136C15.2271 7.63071 13.9343 7.35631 12.5 7.28512V6.95001Z" fill="currentColor"/>
<path d="M9.88404 15.3205C10.2916 15.2464 10.562 14.856 10.4879 14.4485C10.4139 14.0409 10.0235 13.7706 9.61596 13.8446C9.05884 13.9458 8.54633 14.093 8.15243 14.2934C7.95636 14.3932 7.75368 14.5241 7.59107 14.6994C7.42476 14.8786 7.2666 15.144 7.2666 15.4833C7.2666 15.8976 7.60239 16.2333 8.0166 16.2333C8.3616 16.2333 8.6522 16.0004 8.73968 15.6832C8.76161 15.669 8.79193 15.6511 8.83262 15.6304C9.0449 15.5224 9.39909 15.4085 9.88404 15.3205Z" fill="currentColor"/>
<path d="M19.999 16.7114C19.9997 16.7242 20 16.7371 20 16.75C20 16.9419 19.9268 17.1339 19.7803 17.2803L17.7803 19.2803C17.4874 19.5732 17.0126 19.5732 16.7197 19.2803C16.4268 18.9874 16.4268 18.5126 16.7197 18.2197L17.4393 17.5H14.25C13.8358 17.5 13.5 17.1642 13.5 16.75C13.5 16.3358 13.8358 16 14.25 16H17.4393L16.7197 15.2803C16.4268 14.9874 16.4268 14.5126 16.7197 14.2197C17.0126 13.9268 17.4874 13.9268 17.7803 14.2197L19.7803 16.2197C19.8522 16.2916 19.9065 16.3745 19.9431 16.4629C19.9751 16.5401 19.9946 16.6238 19.999 16.7114Z" fill="currentColor"/>
<path fill-rule="evenodd" clip-rule="evenodd" d="M16.75 11C15.225 11 13.7625 11.6058 12.6841 12.6841C11.6058 13.7625 11 15.225 11 16.75C11 18.275 11.6058 19.7375 12.6841 20.8159C13.7625 21.8942 15.225 22.5 16.75 22.5C18.275 22.5 19.7375 21.8942 20.8159 20.8159C21.8942 19.7375 22.5 18.275 22.5 16.75C22.5 15.225 21.8942 13.7625 20.8159 12.6841C19.7375 11.6058 18.275 11 16.75 11ZM13.7448 13.7448C14.5418 12.9478 15.6228 12.5 16.75 12.5C17.8772 12.5 18.9582 12.9478 19.7552 13.7448C20.5522 14.5418 21 15.6228 21 16.75C21 17.8772 20.5522 18.9582 19.7552 19.7552C18.9582 20.5522 17.8772 21 16.75 21C15.6228 21 14.5418 20.5522 13.7448 19.7552C12.9478 18.9582 12.5 17.8772 12.5 16.75C12.5 15.6228 12.9478 14.5418 13.7448 13.7448Z" fill="currentColor"/>
</svg>
