<svg width="24" height="24" viewBox="0 0 24 24" fill="none" xmlns="http://www.w3.org/2000/svg">
<path fill-rule="evenodd" clip-rule="evenodd" d="M16.5852 1.51666C16.8748 1.81282 16.8695 2.28766 16.5734 2.57725L15.0513 4.06555L15.8372 4.37812C16.073 4.47193 16.2455 4.67867 16.2954 4.92754C16.3453 5.17641 16.2659 5.43364 16.0845 5.61114L13.7385 7.90614C13.4424 8.1958 12.9675 8.19058 12.6779 7.89449C12.3882 7.59839 12.3934 7.12355 12.6895 6.83389L14.2109 5.34558L13.4248 5.03292C13.1889 4.9391 13.0165 4.73232 12.9666 4.48342C12.9167 4.23451 12.9961 3.97726 13.1776 3.79978L15.5246 1.50478C15.8208 1.21518 16.2956 1.2205 16.5852 1.51666ZM8.20287 2.89797C8.02447 2.52415 7.5768 2.36573 7.20298 2.54413C6.82915 2.72253 6.67073 3.1702 6.84913 3.54403C7.24091 4.36495 7.45754 5.25841 7.48525 6.16758C7.52154 7.83817 6.88896 9.00006 5.99354 10.6447L5.99353 10.6448C5.81407 10.9744 5.62405 11.3234 5.42674 11.6998C4.59847 13.2778 4.32185 14.684 4.54964 16.3539C4.76946 17.9654 5.45889 19.8041 6.4699 22.2495C6.62816 22.6323 7.06676 22.8144 7.44955 22.6561C7.83234 22.4978 8.01436 22.0592 7.85611 21.6764C6.83512 19.2069 6.22554 17.5416 6.03587 16.1511C5.89763 15.1377 5.98226 14.2622 6.33787 13.3162C8.18713 13.7846 10.091 14.0064 12 13.9751C13.9094 14.0064 15.8138 13.7845 17.6635 13.3158C18.018 14.2605 18.1022 15.135 17.9641 16.1471C17.7745 17.5376 17.1649 19.2029 16.1439 21.6724C15.9856 22.0552 16.1677 22.4938 16.5505 22.6521C16.9332 22.8103 17.3719 22.6283 17.5301 22.2455C18.5411 19.8001 19.2305 17.9614 19.4504 16.3498C19.6781 14.68 19.4016 13.2738 18.5733 11.6959C18.4143 11.3919 18.2432 11.1001 18.0637 10.8196C17.8403 10.4708 17.3765 10.369 17.0276 10.5923C16.6788 10.8156 16.577 11.2795 16.8003 11.6283C16.8654 11.7299 16.9288 11.8326 16.9904 11.9365C15.3611 12.3224 13.689 12.5036 12.0127 12.4751C12.0043 12.475 11.9958 12.475 11.9873 12.4751C10.3084 12.5036 8.63354 12.3218 7.0018 11.9346C7.09096 11.7702 7.18038 11.6073 7.26926 11.4454C8.17828 9.78982 9.0315 8.23582 8.98482 6.13137L8.98484 6.13137L8.98467 6.12548C8.95107 5.00702 8.68482 3.90783 8.20287 2.89797ZM8.80879 15.4159C8.96955 15.0342 9.40934 14.855 9.79108 15.0158C10.5278 15.326 11.1794 15.8085 11.6912 16.4226C11.8014 16.5549 11.9044 16.6924 12 16.8345C12.0955 16.6924 12.1986 16.5549 12.3088 16.4226C12.8205 15.8085 13.4721 15.326 14.2089 15.0158C14.5907 14.855 15.0304 15.0342 15.1912 15.4159C15.352 15.7976 15.1728 16.2374 14.7911 16.3982C14.2754 16.6154 13.8193 16.953 13.4611 17.3829C13.1195 17.7928 12.8764 18.2751 12.75 18.7928V21.959C12.75 22.3732 12.4142 22.709 12 22.709C11.5858 22.709 11.25 22.3732 11.25 21.959V18.7928C11.1236 18.2751 10.8805 17.7928 10.5389 17.3829C10.1807 16.953 9.7246 16.6154 9.20891 16.3982C8.82717 16.2374 8.64803 15.7976 8.80879 15.4159ZM20.4606 6.70808C20.8594 6.59617 21.092 6.18215 20.9801 5.78334C20.8682 5.38453 20.4542 5.15195 20.0554 5.26386L16.8944 6.15086C16.6499 6.21946 16.4568 6.40707 16.3811 6.64943C16.3054 6.89179 16.3575 7.15598 16.5195 7.35148L17.0591 8.0027L15.0094 8.57786C14.6106 8.68977 14.378 9.10379 14.4899 9.5026C14.6018 9.90141 15.0158 10.134 15.4146 10.0221L18.5756 9.13508C18.8201 9.06648 19.0132 8.87887 19.0889 8.63651C19.1646 8.39415 19.1125 8.12996 18.9505 7.93446L18.4109 7.28324L20.4606 6.70808ZM12.75 9.38898C12.75 8.97476 12.4142 8.63898 12 8.63898C11.5858 8.63898 11.25 8.97476 11.25 9.38898V9.88898C11.25 10.3032 11.5858 10.639 12 10.639C12.4142 10.639 12.75 10.3032 12.75 9.88898V9.38898Z" fill="currentColor"/>
</svg>
