<svg width="24" height="24" viewBox="0 0 24 24" fill="none" xmlns="http://www.w3.org/2000/svg">
<path fill-rule="evenodd" clip-rule="evenodd" d="M9.33334 2.75C9.01118 2.75 8.75001 3.01117 8.75001 3.33333C8.75001 3.50824 8.82699 3.66517 8.94892 3.77208C8.95389 3.77595 8.95882 3.77988 8.96372 3.78389C8.96898 3.78819 8.97416 3.79254 8.97926 3.79695C9.07745 3.87205 9.20019 3.91667 9.33334 3.91667C9.59521 3.91667 9.81678 3.74411 9.89054 3.5065C9.89165 3.50252 9.89279 3.49855 9.89396 3.49457C9.89468 3.4921 9.89542 3.48964 9.89617 3.48719C9.90954 3.43817 9.91668 3.38659 9.91668 3.33333C9.91668 3.01117 9.65551 2.75 9.33334 2.75ZM11.4095 3.15949C11.3212 2.09024 10.4254 1.25 9.33334 1.25C8.18275 1.25 7.25001 2.18274 7.25001 3.33333C7.25001 3.70766 7.34873 4.05893 7.52157 4.36253L3.98457 8.68714C3.77969 8.61978 3.56077 8.58333 3.33334 8.58333C2.18275 8.58333 1.25001 9.51607 1.25001 10.6667C1.25001 11.8173 2.18275 12.75 3.33334 12.75C4.48394 12.75 5.41668 11.8173 5.41668 10.6667C5.41668 10.2923 5.31795 9.94107 5.14512 9.63747L8.68211 5.31286C8.887 5.38022 9.10592 5.41667 9.33334 5.41667C10.0078 5.41667 10.6074 5.09614 10.9882 4.59911L18.5905 6.84051C18.6788 7.90976 19.5746 8.75 20.6667 8.75C21.8173 8.75 22.75 7.81726 22.75 6.66667C22.75 5.51607 21.8173 4.58333 20.6667 4.58333C19.9922 4.58333 19.3926 4.90386 19.0118 5.4009L11.4095 3.15949ZM20.1039 6.5127C20.1046 6.51029 20.1053 6.50786 20.1061 6.50543C20.1072 6.50149 20.1083 6.49755 20.1094 6.4936C20.1832 6.25594 20.4048 6.08333 20.6667 6.08333C20.9888 6.08333 21.25 6.3445 21.25 6.66667C21.25 6.98883 20.9888 7.25 20.6667 7.25C20.3445 7.25 20.0833 6.98883 20.0833 6.66667C20.0833 6.61337 20.0905 6.56175 20.1039 6.5127ZM3.68741 10.203C3.69252 10.2075 3.69771 10.2118 3.70297 10.2161C3.70787 10.2201 3.71281 10.2241 3.71778 10.2279C3.8397 10.3348 3.91668 10.4918 3.91668 10.6667C3.91668 10.9888 3.65551 11.25 3.33334 11.25C3.01118 11.25 2.75001 10.9888 2.75001 10.6667C2.75001 10.3445 3.01118 10.0833 3.33334 10.0833C3.4665 10.0833 3.58923 10.1279 3.68741 10.203ZM10.6667 8.36111H13.3431C13.7147 8.36597 14.0698 8.51581 14.3325 8.77859C14.5953 9.04137 14.7451 9.39638 14.7499 9.76797L14.7501 9.77778L14.75 21.25H15.9167V14.2124C15.9215 13.8408 16.0714 13.4858 16.3342 13.223C16.5969 12.9603 16.9519 12.8105 17.3235 12.8056L17.3333 12.8055L20.0098 12.8056C20.3814 12.8104 20.7364 12.9603 20.9992 13.223C21.262 13.4858 21.4118 13.8408 21.4166 14.2124L21.4167 14.2222L21.4167 21.25H22C22.4142 21.25 22.75 21.5858 22.75 22C22.75 22.4142 22.4142 22.75 22 22.75H2.00001C1.5858 22.75 1.25001 22.4142 1.25001 22C1.25001 21.5858 1.5858 21.25 2.00001 21.25H2.58334V16.8791C2.5882 16.5075 2.73804 16.1525 3.00082 15.8897C3.2636 15.6269 3.61861 15.4771 3.99021 15.4723L4.00001 15.4722L6.67648 15.4722C7.04808 15.4771 7.40309 15.6269 7.66587 15.8897C7.92865 16.1525 8.07842 16.5075 8.08328 16.8791L8.08341 16.8889L8.08334 21.25H9.25001V9.76797C9.25487 9.39638 9.40471 9.04137 9.66749 8.77859C9.93027 8.51581 10.2853 8.36603 10.6569 8.36118L10.6667 8.36111ZM10.75 21.25H13.25V9.86111H10.75V21.25ZM6.58334 21.25V16.9722H4.08334V21.25H6.58334ZM19.9167 21.25V14.3056H17.4167V21.25H19.9167Z" fill="currentColor"/>
</svg>
