<svg width="24" height="24" viewBox="0 0 24 24" fill="none" xmlns="http://www.w3.org/2000/svg">
<path fill-rule="evenodd" clip-rule="evenodd" d="M18.5 20.75C19.7426 20.75 20.75 19.7426 20.75 18.5L20.75 5.5C20.75 4.25736 19.7426 3.25 18.5 3.25H12C11.5858 3.25 11.25 3.58579 11.25 4C11.25 4.41421 11.5858 4.75 12 4.75L18.5 4.75C18.9142 4.75 19.25 5.08579 19.25 5.5L19.25 18.5C19.25 18.9142 18.9142 19.25 18.5 19.25L12 19.25C11.5858 19.25 11.25 19.5858 11.25 20C11.25 20.4142 11.5858 20.75 12 20.75H18.5ZM9.46967 15.4697C9.17678 15.7626 9.17678 16.2374 9.46967 16.5303C9.76256 16.8232 10.2374 16.8232 10.5303 16.5303L14.5303 12.5303C14.8232 12.2374 14.8232 11.7626 14.5303 11.4697L10.5303 7.46967C10.2374 7.17678 9.76256 7.17678 9.46967 7.46967C9.17678 7.76256 9.17678 8.23744 9.46967 8.53033L12.1893 11.25L3 11.25C2.58579 11.25 2.25 11.5858 2.25 12C2.25 12.4142 2.58579 12.75 3 12.75L12.1893 12.75L9.46967 15.4697Z" fill="currentColor"/>
</svg>
