<svg width="24" height="24" viewBox="0 0 24 24" fill="none" xmlns="http://www.w3.org/2000/svg">
<path fill-rule="evenodd" clip-rule="evenodd" d="M3.46967 13.4697C3.17678 13.7626 3.17678 14.2374 3.46967 14.5303L8.46967 19.5303C8.76256 19.8232 9.23744 19.8232 9.53033 19.5303L14.5303 14.5303C14.8232 14.2374 14.8232 13.7626 14.5303 13.4697C14.2374 13.1768 13.7626 13.1768 13.4697 13.4697L9.75 17.1893V6.5C9.75 6.08579 10.0858 5.75 10.5 5.75H21C21.4142 5.75 21.75 5.41421 21.75 5C21.75 4.58579 21.4142 4.25 21 4.25H10.5C9.25736 4.25 8.25 5.25736 8.25 6.5V17.1893L4.53033 13.4697C4.23744 13.1768 3.76256 13.1768 3.46967 13.4697Z" fill="currentColor"/>
</svg>
