<svg width="24" height="24" viewBox="0 0 24 24" fill="none" xmlns="http://www.w3.org/2000/svg">
<path fill-rule="evenodd" clip-rule="evenodd" d="M13.4697 3.46967C13.7626 3.17678 14.2374 3.17678 14.5303 3.46967L19.5303 8.46967C19.8232 8.76256 19.8232 9.23744 19.5303 9.53033L14.5303 14.5303C14.2374 14.8232 13.7626 14.8232 13.4697 14.5303C13.1768 14.2374 13.1768 13.7626 13.4697 13.4697L17.1893 9.75H6.5C6.08579 9.75 5.75 10.0858 5.75 10.5V21C5.75 21.4142 5.41421 21.75 5 21.75C4.58579 21.75 4.25 21.4142 4.25 21V10.5C4.25 9.25736 5.25736 8.25 6.5 8.25H17.1893L13.4697 4.53033C13.1768 4.23744 13.1768 3.76256 13.4697 3.46967Z" fill="currentColor"/>
</svg>
