<svg width="24" height="24" viewBox="0 0 24 24" fill="none" xmlns="http://www.w3.org/2000/svg">
<path fill-rule="evenodd" clip-rule="evenodd" d="M15.25 1.99822C15.25 1.58401 15.5858 1.24822 16 1.24822H22C22.4142 1.24822 22.75 1.58401 22.75 1.99822V7.99822C22.75 8.41243 22.4142 8.74822 22 8.74822C21.5858 8.74822 21.25 8.41243 21.25 7.99822V3.80888L14.5303 10.5286C14.2374 10.8214 13.7626 10.8214 13.4697 10.5286C13.1768 10.2357 13.1768 9.76078 13.4697 9.46789L20.1893 2.74822H16C15.5858 2.74822 15.25 2.41243 15.25 1.99822ZM10.5303 13.4679C10.8232 13.7608 10.8232 14.2357 10.5303 14.5286L3.81066 21.2482H8C8.41421 21.2482 8.75 21.584 8.75 21.9982C8.75 22.4124 8.41421 22.7482 8 22.7482H2C1.58579 22.7482 1.25 22.4124 1.25 21.9982V15.9982C1.25 15.584 1.58579 15.2482 2 15.2482C2.41421 15.2482 2.75 15.584 2.75 15.9982V20.1876L9.46967 13.4679C9.76256 13.175 10.2374 13.175 10.5303 13.4679Z" fill="currentColor"/>
</svg>
