<svg width="24" height="24" viewBox="0 0 24 24" fill="none" xmlns="http://www.w3.org/2000/svg">
<path fill-rule="evenodd" clip-rule="evenodd" d="M10.5303 3.46967C10.2374 3.17678 9.76256 3.17678 9.46967 3.46967L4.46967 8.46967C4.17678 8.76256 4.17678 9.23744 4.46967 9.53033L9.46967 14.5303C9.76256 14.8232 10.2374 14.8232 10.5303 14.5303C10.8232 14.2374 10.8232 13.7626 10.5303 13.4697L6.81066 9.75H17.5C17.9142 9.75 18.25 10.0858 18.25 10.5V21C18.25 21.4142 18.5858 21.75 19 21.75C19.4142 21.75 19.75 21.4142 19.75 21V10.5C19.75 9.25736 18.7426 8.25 17.5 8.25H6.81066L10.5303 4.53033C10.8232 4.23744 10.8232 3.76256 10.5303 3.46967Z" fill="currentColor"/>
</svg>
