<svg width="24" height="24" viewBox="0 0 24 24" fill="none" xmlns="http://www.w3.org/2000/svg">
<path fill-rule="evenodd" clip-rule="evenodd" d="M13.4697 20.5303C13.7626 20.8232 14.2374 20.8232 14.5303 20.5303L19.5303 15.5303C19.8232 15.2374 19.8232 14.7626 19.5303 14.4697L14.5303 9.46967C14.2374 9.17678 13.7626 9.17678 13.4697 9.46967C13.1768 9.76256 13.1768 10.2374 13.4697 10.5303L17.1893 14.25H6.5C6.08579 14.25 5.75 13.9142 5.75 13.5V3C5.75 2.58579 5.41421 2.25 5 2.25C4.58579 2.25 4.25 2.58579 4.25 3V13.5C4.25 14.7426 5.25736 15.75 6.5 15.75H17.1893L13.4697 19.4697C13.1768 19.7626 13.1768 20.2374 13.4697 20.5303Z" fill="currentColor"/>
</svg>
