<svg width="24" height="24" viewBox="0 0 24 24" fill="none" xmlns="http://www.w3.org/2000/svg">
<path d="M3.75 12C3.75 7.44365 7.44365 3.75 12 3.75C14.787 3.75 17.2518 5.13149 18.7463 7.25L15.5 7.25C15.0858 7.25 14.75 7.58579 14.75 8C14.75 8.41421 15.0858 8.75 15.5 8.75L20.5 8.75C20.9142 8.75 21.25 8.41421 21.25 8V3C21.25 2.58579 20.9142 2.25 20.5 2.25C20.0858 2.25 19.75 2.58579 19.75 3V6.08319C17.9693 3.75423 15.1605 2.25 12 2.25C6.61522 2.25 2.25 6.61522 2.25 12C2.25 17.3848 6.61522 21.75 12 21.75C17.3848 21.75 21.75 17.3848 21.75 12C21.75 11.5858 21.4142 11.25 21 11.25C20.5858 11.25 20.25 11.5858 20.25 12C20.25 16.5563 16.5563 20.25 12 20.25C7.44365 20.25 3.75 16.5563 3.75 12Z" fill="currentColor"/>
</svg>
