<svg width="24" height="24" viewBox="0 0 24 24" fill="none" xmlns="http://www.w3.org/2000/svg">
<path fill-rule="evenodd" clip-rule="evenodd" d="M20.5303 13.4697C20.8232 13.7626 20.8232 14.2374 20.5303 14.5303L15.5303 19.5303C15.2374 19.8232 14.7626 19.8232 14.4697 19.5303L9.46967 14.5303C9.17678 14.2374 9.17678 13.7626 9.46967 13.4697C9.76256 13.1768 10.2374 13.1768 10.5303 13.4697L14.25 17.1893V6.5C14.25 6.08579 13.9142 5.75 13.5 5.75H3C2.58579 5.75 2.25 5.41421 2.25 5C2.25 4.58579 2.58579 4.25 3 4.25H13.5C14.7426 4.25 15.75 5.25736 15.75 6.5V17.1893L19.4697 13.4697C19.7626 13.1768 20.2374 13.1768 20.5303 13.4697Z" fill="currentColor"/>
</svg>
