<svg width="24" height="24" viewBox="0 0 24 24" fill="none" xmlns="http://www.w3.org/2000/svg">
<path fill-rule="evenodd" clip-rule="evenodd" d="M13.591 1.2166C12.7123 0.337917 11.2877 0.337917 10.409 1.2166L1.21663 10.409C0.337947 11.2877 0.337947 12.7123 1.21663 13.591L10.409 22.7834C11.2877 23.662 12.7123 23.662 13.591 22.7834L22.7834 13.591C23.6621 12.7123 23.6621 11.2877 22.7834 10.409L13.591 1.2166ZM11.4697 2.27726C11.7626 1.98436 12.2374 1.98436 12.5303 2.27726L21.7227 11.4696C22.0156 11.7625 22.0156 12.2374 21.7227 12.5303L12.5303 21.7227C12.2374 22.0156 11.7626 22.0156 11.4697 21.7227L2.27729 12.5303C1.98439 12.2374 1.98439 11.7625 2.27729 11.4696L11.4697 2.27726ZM18.0303 11.5303C18.3232 11.2374 18.3232 10.7626 18.0303 10.4697L14.5303 6.96967C14.2374 6.67677 13.7626 6.67677 13.4697 6.96967C13.1768 7.26256 13.1768 7.73743 13.4697 8.03033L15.6893 10.25H8.50001C8.08579 10.25 7.75001 10.5858 7.75001 11L7.75001 15.5C7.75001 15.9142 8.08579 16.25 8.50001 16.25C8.91422 16.25 9.25001 15.9142 9.25001 15.5V11.75L15.6893 11.75L13.4697 13.9697C13.1768 14.2626 13.1768 14.7374 13.4697 15.0303C13.7626 15.3232 14.2374 15.3232 14.5303 15.0303L18.0303 11.5303Z" fill="currentColor"/>
</svg>
