<svg width="24" height="24" viewBox="0 0 24 24" fill="none" xmlns="http://www.w3.org/2000/svg">
<path fill-rule="evenodd" clip-rule="evenodd" d="M20.5303 10.5303C20.8232 10.2374 20.8232 9.76256 20.5303 9.46967L15.5303 4.46967C15.2374 4.17678 14.7626 4.17678 14.4697 4.46967L9.46967 9.46967C9.17678 9.76256 9.17678 10.2374 9.46967 10.5303C9.76256 10.8232 10.2374 10.8232 10.5303 10.5303L14.25 6.81066V17.5C14.25 17.9142 13.9142 18.25 13.5 18.25H3C2.58579 18.25 2.25 18.5858 2.25 19C2.25 19.4142 2.58579 19.75 3 19.75H13.5C14.7426 19.75 15.75 18.7426 15.75 17.5V6.81066L19.4697 10.5303C19.7626 10.8232 20.2374 10.8232 20.5303 10.5303Z" fill="currentColor"/>
</svg>
