<svg width="24" height="24" viewBox="0 0 24 24" fill="none" xmlns="http://www.w3.org/2000/svg">
<path fill-rule="evenodd" clip-rule="evenodd" d="M10.2222 2.75002C9.34534 2.75002 8.63447 3.46089 8.63447 4.33779C8.63447 5.2147 9.34534 5.92557 10.2222 5.92557C11.0992 5.92557 11.81 5.2147 11.81 4.33779C11.81 3.46089 11.0992 2.75002 10.2222 2.75002ZM7.13447 4.33779C7.13447 2.63246 8.51692 1.25002 10.2222 1.25002C11.9276 1.25002 13.31 2.63246 13.31 4.33779C13.31 5.89295 12.1604 7.17957 10.6646 7.39413C10.9442 7.59786 11.0538 7.97567 10.9076 8.30462L9.88332 10.6093C10.3144 10.6779 10.7161 10.8809 11.0287 11.1935C11.4194 11.5842 11.6389 12.1141 11.6389 12.6667C11.6389 13.2192 11.4194 13.7491 11.0287 14.1398C10.638 14.5305 10.1081 14.75 9.55558 14.75L6.22225 14.75C5.66971 14.75 5.13981 14.5305 4.74911 14.1398C4.35841 13.7491 4.13892 13.2192 4.13892 12.6667V12C4.13891 11.0082 4.44937 10.0413 5.02675 9.23484C5.60412 8.42841 6.41945 7.82294 7.35836 7.50335C7.75048 7.36988 8.17656 7.57956 8.31003 7.97168C8.44349 8.3638 8.23382 8.78988 7.84169 8.92335C7.19928 9.14201 6.64143 9.55628 6.24638 10.108C5.85133 10.6598 5.63891 11.3214 5.63892 12V12.6667C5.63892 12.8214 5.70037 12.9698 5.80977 13.0792C5.91917 13.1886 6.06754 13.25 6.22225 13.25H7.06818L8.0281 11.0902C8.04241 11.0484 8.06031 11.0083 8.08144 10.9702L9.53689 7.69541C9.59221 7.57094 9.67727 7.46897 9.77999 7.39414C8.28417 7.1796 7.13447 5.89296 7.13447 4.33779ZM9.22817 12.0833L8.70965 13.25H9.55558C9.71029 13.25 9.85867 13.1886 9.96806 13.0792C10.0775 12.9698 10.1389 12.8214 10.1389 12.6667C10.1389 12.512 10.0775 12.3636 9.96806 12.2542C9.85867 12.1448 9.71029 12.0833 9.55558 12.0833H9.22817ZM12.0707 8.02625C12.228 7.64308 12.6662 7.46 13.0493 7.61734C14.1112 8.05335 14.9784 8.86048 15.4894 9.88838C15.5003 9.91033 15.5101 9.9328 15.5189 9.95572C15.6708 10.3555 15.9461 10.6965 16.3047 10.9294C16.6634 11.1623 17.0869 11.275 17.5139 11.2512C17.5278 11.2504 17.5417 11.25 17.5556 11.25C18.1081 11.25 18.638 11.4695 19.0287 11.8602C19.4194 12.2509 19.6389 12.7808 19.6389 13.3334C19.6389 13.8859 19.4194 14.4158 19.0287 14.8065C18.6413 15.1939 18.1169 15.413 17.5693 15.4166C16.5206 15.4503 15.4809 15.2122 14.5514 14.7252C14.2291 14.5564 13.9239 14.3597 13.6389 14.1381V20.6667C13.6389 21.2192 13.4194 21.7491 13.0287 22.1398C12.638 22.5305 12.1081 22.75 11.5556 22.75C11.0664 22.75 10.595 22.578 10.2223 22.2675C9.84946 22.578 9.37806 22.75 8.88892 22.75C8.33638 22.75 7.80648 22.5305 7.41578 22.1398C7.02508 21.7491 6.80558 21.2192 6.80558 20.6667V16.6667C6.80558 16.2525 7.14137 15.9167 7.55558 15.9167C7.9698 15.9167 8.30558 16.2525 8.30558 16.6667V20.6667C8.30558 20.8214 8.36704 20.9698 8.47644 21.0792C8.58583 21.1886 8.73421 21.25 8.88892 21.25C9.04362 21.25 9.192 21.1886 9.3014 21.0792C9.41079 20.9698 9.47225 20.8214 9.47225 20.6667V16.6667C9.47225 16.2525 9.80804 15.9167 10.2222 15.9167C10.6365 15.9167 10.9722 16.2525 10.9722 16.6667V20.6667C10.9722 20.8214 11.0337 20.9698 11.1431 21.0792C11.2525 21.1886 11.4009 21.25 11.5556 21.25C11.7103 21.25 11.8587 21.1886 11.9681 21.0792C12.0775 20.9698 12.1389 20.8214 12.1389 20.6667V12.2222C12.1389 11.8895 12.3582 11.5965 12.6774 11.5027C12.9967 11.4088 13.3396 11.5366 13.5196 11.8164C13.949 12.4838 14.5444 13.0283 15.2474 13.3965C15.9504 13.7647 16.7369 13.9441 17.5301 13.9171C17.5386 13.9168 17.5471 13.9167 17.5556 13.9167C17.7103 13.9167 17.8587 13.8552 17.9681 13.7458C18.0775 13.6364 18.1389 13.4881 18.1389 13.3334C18.1389 13.1786 18.0775 13.0303 17.9681 12.9209C17.8623 12.8151 17.7201 12.7542 17.571 12.7502C16.835 12.7857 16.1062 12.5889 15.4878 12.1874C14.8735 11.7885 14.3995 11.2078 14.1315 10.5269C13.7807 9.83874 13.1948 9.29859 12.4796 9.00492C12.0964 8.84759 11.9133 8.40942 12.0707 8.02625Z" fill="currentColor"/>
</svg>
