<svg width="24" height="24" viewBox="0 0 24 24" fill="none" xmlns="http://www.w3.org/2000/svg">
<path fill-rule="evenodd" clip-rule="evenodd" d="M12 1.25C12.4142 1.25 12.75 1.58579 12.75 2V3.29119C16.125 3.66427 18.75 6.52558 18.75 10C18.75 14.9239 19.7389 16.6782 20.5304 17.4697C20.7449 17.6842 20.809 18.0068 20.6929 18.287C20.5768 18.5673 20.3034 18.75 20 18.75H4.00002C3.69668 18.75 3.4232 18.5673 3.30711 18.287C3.19103 18.0068 3.25519 17.6842 3.46969 17.4697C4.26115 16.6782 5.25002 14.9239 5.25002 10C5.25002 6.52559 7.87505 3.66429 11.25 3.2912V2C11.25 1.58579 11.5858 1.25 12 1.25ZM12 4.75C9.10053 4.75 6.75002 7.1005 6.75002 10C6.75002 13.6708 6.22127 15.8614 5.47147 17.25H18.5286C17.7788 15.8614 17.25 13.6708 17.25 10C17.25 7.1005 14.8995 4.75 12 4.75Z" fill="currentColor"/>
<path d="M10.8112 20.3862C10.6832 19.9923 10.26 19.7767 9.8661 19.9047C9.47216 20.0327 9.25657 20.4558 9.38457 20.8498C9.56403 21.4021 9.91373 21.8834 10.3836 22.2248C10.8534 22.5661 11.4192 22.75 12 22.75C12.5807 22.75 13.1466 22.5661 13.6164 22.2248C14.0862 21.8834 14.4359 21.4021 14.6154 20.8498C14.7434 20.4558 14.5278 20.0327 14.1338 19.9047C13.7399 19.7767 13.3168 19.9923 13.1888 20.3862C13.1072 20.6373 12.9483 20.8561 12.7347 21.0112C12.5211 21.1664 12.2639 21.25 12 21.25C11.736 21.25 11.4788 21.1664 11.2652 21.0112C11.0517 20.8561 10.8927 20.6373 10.8112 20.3862Z" fill="currentColor"/>
</svg>
