<svg width="24" height="24" viewBox="0 0 24 24" fill="none" xmlns="http://www.w3.org/2000/svg">
<path d="M11.25 2C11.25 1.58579 11.5858 1.25 12 1.25C12.4142 1.25 12.75 1.58579 12.75 2V3.2912C16.125 3.66429 18.75 6.52559 18.75 10C18.75 11.5973 18.8541 12.865 19.0234 13.8762C19.0918 14.2847 18.816 14.6713 18.4075 14.7397C17.999 14.8081 17.6124 14.5323 17.544 14.1238C17.358 13.0128 17.25 11.6598 17.25 10C17.25 7.1005 14.8995 4.75 12 4.75C11.0424 4.75 10.1469 5.00566 9.37543 5.45195C9.01689 5.65937 8.55809 5.53685 8.35068 5.17831C8.14326 4.81977 8.26578 4.36097 8.62432 4.15356C9.41294 3.69734 10.3024 3.39613 11.25 3.29126V2Z" fill="currentColor"/>
<path fill-rule="evenodd" clip-rule="evenodd" d="M17.6893 18.75L20.4697 21.5303C20.7626 21.8232 21.2374 21.8232 21.5303 21.5303C21.8232 21.2374 21.8232 20.7626 21.5303 20.4697L3.53033 2.46967C3.23744 2.17678 2.76256 2.17678 2.46967 2.46967C2.17678 2.76256 2.17678 3.23744 2.46967 3.53033L5.94767 7.00833C5.50093 7.91061 5.24998 8.92687 5.24998 10C5.24998 14.9239 4.2611 16.6782 3.46965 17.4697C3.25515 17.6842 3.19098 18.0068 3.30707 18.287C3.42315 18.5673 3.69663 18.75 3.99998 18.75H17.6893ZM7.08618 8.14684L16.1893 17.25H5.47143C6.22123 15.8614 6.74998 13.6708 6.74998 10C6.74998 9.34687 6.86893 8.72258 7.08618 8.14684Z" fill="currentColor"/>
<path d="M14.1339 19.9047C13.7399 19.7767 13.3168 19.9923 13.1888 20.3863C13.1072 20.6373 12.9483 20.8561 12.7347 21.0113C12.5212 21.1664 12.264 21.25 12 21.25C11.736 21.25 11.4788 21.1664 11.2653 21.0113C11.0517 20.8561 10.8928 20.6373 10.8112 20.3863C10.6832 19.9923 10.2601 19.7767 9.86612 19.9047C9.47218 20.0327 9.2566 20.4559 9.38459 20.8498C9.56405 21.4021 9.91376 21.8834 10.3836 22.2248C10.8534 22.5661 11.4193 22.75 12 22.75C12.5807 22.75 13.1466 22.5661 13.6164 22.2248C14.0862 21.8834 14.4359 21.4021 14.6154 20.8498C14.7434 20.4559 14.5278 20.0327 14.1339 19.9047Z" fill="currentColor"/>
</svg>
