<svg width="24" height="24" viewBox="0 0 24 24" fill="none" xmlns="http://www.w3.org/2000/svg">
<path fill-rule="evenodd" clip-rule="evenodd" d="M3.75 7.25707V17.2982C4.58663 16.7524 5.81897 16.25 7.5 16.25C9.18103 16.25 10.4134 16.7524 11.25 17.2982V7.25707C11.2331 7.23757 11.2144 7.21658 11.194 7.19429C11.0545 7.04206 10.8338 6.83094 10.5242 6.61741C9.91121 6.19466 8.93262 5.75 7.5 5.75C6.06737 5.75 5.08879 6.19466 4.4758 6.61741C4.16618 6.83094 3.94553 7.04206 3.80599 7.19429C3.78556 7.21658 3.7669 7.23757 3.75 7.25707ZM12.75 7.25707V17.2982C13.5866 16.7524 14.819 16.25 16.5 16.25C18.181 16.25 19.4134 16.7524 20.25 17.2982V7.25707C20.2331 7.23757 20.2144 7.21658 20.194 7.19429C20.0545 7.04206 19.8338 6.83094 19.5242 6.61741C18.9112 6.19466 17.9326 5.75 16.5 5.75C15.0674 5.75 14.0888 6.19466 13.4758 6.61741C13.1662 6.83094 12.9455 7.04206 12.806 7.19429C12.7856 7.21658 12.7669 7.23757 12.75 7.25707ZM21 7L21.6288 6.59126C21.7079 6.71292 21.75 6.8549 21.75 7V19C21.75 19.3321 21.5316 19.6247 21.2132 19.7191C20.8957 19.8132 20.5542 19.6879 20.3728 19.4112L20.3739 19.4129L20.3748 19.4142C20.3748 19.4142 20.3736 19.4124 20.3712 19.409C20.3663 19.4021 20.3566 19.3887 20.342 19.3695C20.3127 19.3311 20.2637 19.2703 20.194 19.1943C20.0545 19.0421 19.8338 18.8309 19.5242 18.6174C18.9112 18.1947 17.9326 17.75 16.5 17.75C15.0674 17.75 14.0888 18.1947 13.4758 18.6174C13.1662 18.8309 12.9455 19.0421 12.806 19.1943C12.7363 19.2703 12.6873 19.3311 12.658 19.3695C12.6434 19.3887 12.6337 19.4021 12.6288 19.409C12.6276 19.4107 12.6261 19.4129 12.6261 19.4129M12.6261 19.4129C12.4874 19.6228 12.2519 19.75 12 19.75C11.7481 19.75 11.5131 19.6235 11.3743 19.4136C11.3743 19.4136 11.3727 19.4113 11.3712 19.409C11.3663 19.4021 11.3566 19.3887 11.342 19.3695C11.3127 19.3311 11.2637 19.2703 11.194 19.1943C11.0545 19.0421 10.8338 18.8309 10.5242 18.6174C9.91121 18.1947 8.93262 17.75 7.5 17.75C6.06737 17.75 5.08879 18.1947 4.4758 18.6174C4.16618 18.8309 3.94553 19.0421 3.80599 19.1943C3.73633 19.2703 3.68732 19.3311 3.658 19.3695C3.64335 19.3887 3.63368 19.4021 3.62884 19.409C3.62749 19.4109 3.62592 19.4132 3.62592 19.4132L3.62726 19.4111L3.62799 19.41L3.62884 19.409C3.62749 19.4109 3.62592 19.4132 3.62592 19.4132C3.44412 19.6883 3.1034 19.8129 2.78684 19.7191C2.46842 19.6247 2.25 19.3321 2.25 19V7C2.25 6.8549 2.29209 6.71292 2.37117 6.59126L3 7C2.37117 6.59126 2.37117 6.59126 2.37117 6.59126L2.37213 6.58978L2.37322 6.58812L2.37577 6.58424L2.38242 6.57431C2.38754 6.56674 2.39403 6.55729 2.40192 6.54607C2.41769 6.52365 2.43907 6.49416 2.46622 6.45863C2.52049 6.38763 2.59805 6.29221 2.70026 6.18071C2.90446 5.95794 3.20882 5.66906 3.6242 5.38259C4.46121 4.80534 5.73262 4.25 7.5 4.25C9.26737 4.25 10.5388 4.80534 11.3758 5.38259C11.6222 5.5525 11.8295 5.72325 12 5.88056C12.1705 5.72325 12.3778 5.5525 12.6242 5.38259C13.4612 4.80534 14.7326 4.25 16.5 4.25C18.2674 4.25 19.5388 4.80534 20.3758 5.38259C20.7912 5.66906 21.0955 5.95794 21.2997 6.18071C21.402 6.29221 21.4795 6.38763 21.5338 6.45863C21.5609 6.49416 21.5823 6.52365 21.5981 6.54607C21.606 6.55729 21.6125 6.56674 21.6176 6.57431L21.6242 6.58424L21.6268 6.58812L21.6288 6.59126C21.6288 6.59126 21.6288 6.59126 21 7M14.5 8.5L13.9697 7.96967C13.6768 8.26256 13.6768 8.73744 13.9697 9.03033C14.254 9.31471 14.71 9.32298 15.0043 9.05514C15.0071 9.05308 15.0115 9.04996 15.0176 9.04591C15.0449 9.02771 15.1082 8.98949 15.216 8.94636C15.4304 8.86062 15.8345 8.75 16.5 8.75C17.1655 8.75 17.5696 8.86062 17.784 8.94636C17.8918 8.98949 17.9551 9.02771 17.9824 9.04591C17.9885 9.04996 17.9929 9.05308 17.9957 9.05514C18.29 9.32298 18.746 9.31471 19.0303 9.03033C19.3232 8.73744 19.3232 8.26256 19.0303 7.96967L18.5 8.5C19.0303 7.96967 19.0295 7.96889 19.0295 7.96889L19.0287 7.96809L19.0271 7.96647L19.0237 7.96311L19.0162 7.95586C19.0109 7.95081 19.005 7.94532 18.9985 7.93943C18.9856 7.92765 18.9702 7.91427 18.9524 7.89957C18.9166 7.87014 18.871 7.83552 18.8145 7.79784C18.7011 7.72229 18.5457 7.63551 18.341 7.55364C17.9304 7.38938 17.3345 7.25 16.5 7.25C15.6655 7.25 15.0696 7.38938 14.659 7.55364C14.4543 7.63551 14.2989 7.72229 14.1855 7.79784C14.129 7.83552 14.0834 7.87014 14.0476 7.89957C14.0298 7.91427 14.0144 7.92765 14.0015 7.93943C13.995 7.94532 13.9891 7.95081 13.9838 7.95586L13.9763 7.96311L13.9729 7.96647L13.9712 7.96809L13.9705 7.96889C13.9705 7.96889 13.9697 7.96967 14.5 8.5ZM14.5 11.5L13.9697 10.9697C13.6768 11.2626 13.6768 11.7374 13.9697 12.0303C14.254 12.3147 14.71 12.323 15.0043 12.0551C15.0071 12.0531 15.0115 12.05 15.0176 12.0459C15.0449 12.0277 15.1082 11.9895 15.216 11.9464C15.4304 11.8606 15.8345 11.75 16.5 11.75C17.1655 11.75 17.5696 11.8606 17.784 11.9464C17.8918 11.9895 17.9551 12.0277 17.9824 12.0459C17.9885 12.05 17.9929 12.0531 17.9957 12.0551C18.29 12.323 18.746 12.3147 19.0303 12.0303C19.3232 11.7374 19.3232 11.2626 19.0303 10.9697L18.5 11.5C19.0303 10.9697 19.0295 10.9689 19.0295 10.9689L19.0287 10.9681L19.0271 10.9665L19.0237 10.9631L19.0162 10.9559C19.0109 10.9508 19.005 10.9453 18.9985 10.9394C18.9856 10.9276 18.9702 10.9143 18.9524 10.8996C18.9166 10.8701 18.871 10.8355 18.8145 10.7978C18.7011 10.7223 18.5457 10.6355 18.341 10.5536C17.9304 10.3894 17.3345 10.25 16.5 10.25C15.6655 10.25 15.0696 10.3894 14.659 10.5536C14.4543 10.6355 14.2989 10.7223 14.1855 10.7978C14.129 10.8355 14.0834 10.8701 14.0476 10.8996C14.0298 10.9143 14.0144 10.9276 14.0015 10.9394C13.995 10.9453 13.9891 10.9508 13.9838 10.9559L13.9763 10.9631L13.9729 10.9665L13.9712 10.9681L13.9705 10.9689C13.9705 10.9689 13.9697 10.9697 14.5 11.5ZM14.5 14.5L13.9697 13.9697C13.6768 14.2626 13.6768 14.7374 13.9697 15.0303C14.254 15.3147 14.71 15.323 15.0043 15.0551C15.0071 15.0531 15.0115 15.05 15.0176 15.0459C15.0449 15.0277 15.1082 14.9895 15.216 14.9464C15.4304 14.8606 15.8345 14.75 16.5 14.75C17.1655 14.75 17.5696 14.8606 17.784 14.9464C17.8918 14.9895 17.9551 15.0277 17.9824 15.0459C17.9885 15.05 17.9929 15.0531 17.9957 15.0551C18.29 15.323 18.746 15.3147 19.0303 15.0303C19.3232 14.7374 19.3232 14.2626 19.0303 13.9697L18.5 14.5C19.0303 13.9697 19.0295 13.9689 19.0295 13.9689L19.0287 13.9681L19.0271 13.9665L19.0237 13.9631L19.0162 13.9559C19.0109 13.9508 19.005 13.9453 18.9985 13.9394C18.9856 13.9276 18.9702 13.9143 18.9524 13.8996C18.9166 13.8701 18.871 13.8355 18.8145 13.7978C18.7011 13.7223 18.5457 13.6355 18.341 13.5536C17.9304 13.3894 17.3345 13.25 16.5 13.25C15.6655 13.25 15.0696 13.3894 14.659 13.5536C14.4543 13.6355 14.2989 13.7223 14.1855 13.7978C14.129 13.8355 14.0834 13.8701 14.0476 13.8996C14.0298 13.9143 14.0144 13.9276 14.0015 13.9394C13.995 13.9453 13.9891 13.9508 13.9838 13.9559L13.9763 13.9631L13.9729 13.9665L13.9712 13.9681L13.9705 13.9689C13.9705 13.9689 13.9697 13.9697 14.5 14.5Z" fill="currentColor"/>
</svg>
