<svg width="24" height="24" viewBox="0 0 24 24" fill="none" xmlns="http://www.w3.org/2000/svg">
<path d="M12 22.8H11.9C11.8 22.8 11.8 22.8 11.7 22.7C11.6 22.7 11.6 22.6 11.5 22.6C11.4 22.5 11.4 22.5 11.4 22.4C11.4 22.4 11.4 22.3 11.3 22.3C10.9 21.2 8.20001 19.6 3.20001 19.4C2.70001 19.4 2.20001 19.1 1.80001 18.7C1.40001 18.3 1.20001 17.8 1.20001 17.3V5.4C1.20001 5.1 1.30001 4.8 1.40001 4.6C1.50001 4.3 1.70001 4 1.90001 3.8C2.10001 3.6 2.40001 3.5 2.60001 3.4C2.90001 3.3 3.20001 3.3 3.40001 3.3C6.60001 3.5 9.30001 4.2 11 5.4C11.3 5.6 11.4 6.1 11.2 6.4C11 6.7 10.5 6.8 10.2 6.6C8.80001 5.6 6.30001 4.9 3.30001 4.8C3.20001 4.8 3.10001 4.8 3.00001 4.8C3.10001 4.8 3.00001 4.9 2.90001 4.9C2.90001 5 2.80001 5 2.80001 5.1C2.80001 5.2 2.80001 5.3 2.80001 5.3V17.2C2.80001 17.4 2.90001 17.5 3.00001 17.6C3.10001 17.7 3.20001 17.8 3.40001 17.8C7.20001 18 9.80001 18.9 11.4 20V10.7C11.4 10.3 11.7 9.9 12.2 9.9C12.7 9.9 13 10.2 13 10.7V20C14.5 18.9 17.2 18 21 17.8C21.1 17.8 21.3 17.7 21.4 17.6C21.5 17.5 21.6 17.3 21.6 17.2V9.1C21.6 8.7 21.9 8.3 22.4 8.3C22.9 8.3 23.2 8.6 23.2 9.1V17.2C23.2 17.7 23 18.2 22.6 18.6C22.2 19 21.7 19.2 21.2 19.3C16.2 19.5 13.5 21.1 13.1 22.2C13.1 22.3 13.1 22.3 13 22.3C13 22.4 12.9 22.4 12.9 22.5C12.9 22.6 12.8 22.6 12.7 22.6C12.6 22.6 12.6 22.7 12.5 22.7C12.1 22.7 12 22.8 12 22.8ZM9.60001 16.9C9.50001 16.9 9.40001 16.9 9.30001 16.9C7.70001 16.3 6.10001 16 4.50001 15.8C4.10001 15.8 3.80001 15.4 3.80001 15C3.80001 14.6 4.20001 14.3 4.60001 14.3C6.40001 14.5 8.10001 14.9 9.80001 15.5C10.2 15.6 10.4 16.1 10.3 16.5C10.2 16.7 9.90001 16.9 9.60001 16.9ZM16.7 14.8C16.3 14.8 15.9 14.5 15.9 14V13.4H15.3C14.9 13.4 14.5 13.1 14.5 12.7V11.4C14.1 11.1 13.8 10.8 13.6 10.4C13.3 9.9 13.1 9.3 13.1 8.7C13.1 8.1 13.3 7.5 13.6 7C14 6.4 14.4 6 15 5.7C15.5 5.4 16.1 5.2 16.7 5.2C17.3 5.2 17.9 5.4 18.4 5.7C18.9 6 19.3 6.4 19.6 7C19.9 7.5 20.1 8.1 20.1 8.7C20.1 9.3 19.9 9.9 19.6 10.4C19.4 10.8 19.1 11.1 18.7 11.4V12.7C18.7 13.1 18.4 13.4 17.9 13.4H17.3V14C17.4 14.4 17.1 14.8 16.7 14.8ZM16.1 11.9H17.3V10.9C17.3 10.6 17.4 10.4 17.7 10.2C18 10 18.2 9.8 18.4 9.5C18.6 9.2 18.7 8.9 18.7 8.5C18.7 8.2 18.6 7.8 18.4 7.5C18.2 7.2 18 7 17.7 6.8C17.4 6.6 17.1 6.5 16.7 6.5C16.4 6.5 16 6.6 15.7 6.8C15.4 7 15.2 7.2 15 7.5C14.8 7.8 14.7 8.1 14.7 8.5C14.7 8.8 14.8 9.2 15 9.5C15.2 9.8 15.4 10 15.7 10.2C15.9 10.3 16.1 10.6 16.1 10.8V11.9ZM9.60001 13.3C9.50001 13.3 9.40001 13.3 9.30001 13.3C7.80001 12.7 6.10001 12.4 4.50001 12.2C4.10001 12.2 3.80001 11.8 3.80001 11.4C3.80001 11 4.20001 10.7 4.60001 10.7C6.30001 10.9 8.10001 11.3 9.70001 11.9C10.1 12 10.3 12.5 10.2 12.9C10.2 13.1 9.90001 13.3 9.60001 13.3ZM9.60001 9.9C9.50001 9.9 9.40001 9.9 9.30001 9.9C7.80001 9.3 6.20001 8.9 4.60001 8.7C4.20001 8.7 3.90001 8.3 3.90001 7.9C3.90001 7.5 4.30001 7.2 4.70001 7.2C6.40001 7.4 8.20001 7.8 9.80001 8.4C10.2 8.5 10.4 9 10.3 9.4C10.2 9.7 9.90001 9.9 9.60001 9.9ZM20 5.9C19.8 5.9 19.6 5.8 19.5 5.7C19.2 5.4 19.2 4.9 19.5 4.6L20.4 3.7C20.7 3.4 21.2 3.4 21.5 3.7C21.8 4 21.8 4.5 21.5 4.8L20.6 5.7C20.4 5.8 20.2 5.9 20 5.9ZM13.3 5.9C13.1 5.9 12.9 5.8 12.8 5.7L11.9 4.8C11.6 4.5 11.6 4 11.9 3.7C12.2 3.4 12.7 3.4 13 3.7L13.9 4.6C14.2 4.9 14.2 5.4 13.9 5.7C13.7 5.8 13.5 5.9 13.3 5.9ZM16.7 4.1C16.3 4.1 15.9 3.8 15.9 3.3V2C15.9 1.6 16.2 1.2 16.7 1.2C17.2 1.2 17.5 1.5 17.5 2V3.3C17.4 3.7 17.1 4.1 16.7 4.1Z" fill="currentColor"/>
</svg>
