<svg width="24" height="24" viewBox="0 0 24 24" fill="none" xmlns="http://www.w3.org/2000/svg">
<path fill-rule="evenodd" clip-rule="evenodd" d="M4.83701 6.22614C4.8079 6.24838 4.77148 6.28851 4.75429 6.38021L2.9037 16.25H7.09631L5.24572 6.3802C5.22853 6.28851 5.19211 6.24838 5.163 6.22614C5.12632 6.1981 5.06931 6.17628 5.00001 6.17628C4.9307 6.17628 4.8737 6.1981 4.83701 6.22614ZM2.00001 17.75C1.77689 17.75 1.56536 17.6507 1.42287 17.479C1.28039 17.3073 1.22173 17.0811 1.26285 16.8618L3.27998 6.10377C3.63685 4.20046 6.36316 4.20043 6.72003 6.10377L8.50001 15.597L10.28 6.10377C10.6369 4.20046 13.3632 4.20043 13.72 6.10377L15.5 15.597L17.28 6.10377C17.6369 4.20046 20.3632 4.20043 20.72 6.10377L22.7372 16.8618C22.7783 17.0811 22.7196 17.3073 22.5771 17.479C22.4346 17.6507 22.2231 17.75 22 17.75H2.00001ZM9.9037 16.25H14.0963L12.2457 6.3802C12.2285 6.28851 12.1921 6.24838 12.163 6.22614C12.1263 6.1981 12.0693 6.17628 12 6.17628C11.9307 6.17628 11.8737 6.1981 11.837 6.22614C11.8079 6.24838 11.7715 6.28851 11.7543 6.38021L9.9037 16.25ZM16.9037 16.25H21.0963L19.2457 6.3802C19.2285 6.28851 19.1921 6.24838 19.163 6.22614C19.1263 6.1981 19.0693 6.17628 19 6.17628C18.9307 6.17628 18.8737 6.1981 18.837 6.22614C18.8079 6.24838 18.7715 6.28851 18.7543 6.38021L16.9037 16.25Z" fill="currentColor"/>
</svg>
