<svg width="24" height="24" viewBox="0 0 24 24" fill="none" xmlns="http://www.w3.org/2000/svg">
<path fill-rule="evenodd" clip-rule="evenodd" d="M9.94427 9.75C7.19817 9.75 4.68777 11.3015 3.45968 13.7577L3.21353 14.25H20.7865L20.5403 13.7577C19.3122 11.3015 16.8018 9.75 14.0557 9.75H9.94427ZM2.11804 13.0869C3.60022 10.1225 6.63002 8.25 9.94427 8.25H14.0557C17.37 8.25 20.3998 10.1225 21.882 13.0869L22.6708 14.6646C22.7871 14.8971 22.7746 15.1732 22.638 15.3943C22.5013 15.6154 22.2599 15.75 22 15.75H2C1.74007 15.75 1.49867 15.6154 1.36201 15.3943C1.22536 15.1732 1.21293 14.8971 1.32918 14.6646L2.11804 13.0869Z" fill="currentColor"/>
</svg>
