<svg width="24" height="24" viewBox="0 0 24 24" fill="none" xmlns="http://www.w3.org/2000/svg">
<path fill-rule="evenodd" clip-rule="evenodd" d="M12 1.95801C12.4142 1.95801 12.75 2.29379 12.75 2.70801V7.20801C12.75 7.62222 12.4142 7.95801 12 7.95801C11.5858 7.95801 11.25 7.62222 11.25 7.20801V2.70801C11.25 2.29379 11.5858 1.95801 12 1.95801ZM4.92907 4.8867C5.22196 4.59381 5.69683 4.59381 5.98973 4.8867L9.17171 8.06868C9.4646 8.36157 9.4646 8.83645 9.17171 9.12934C8.87882 9.42223 8.40394 9.42223 8.11105 9.12934L4.92907 5.94736C4.63617 5.65447 4.63617 5.17959 4.92907 4.8867ZM19.0713 4.88707C19.3642 5.17997 19.3642 5.65484 19.0713 5.94774L15.8893 9.12972C15.5964 9.42261 15.1216 9.42261 14.8287 9.12972C14.5358 8.83682 14.5358 8.36195 14.8287 8.06906L18.0106 4.88707C18.3035 4.59418 18.7784 4.59418 19.0713 4.88707ZM2 11.958C2 11.5438 2.33579 11.208 2.75 11.208H7.25C7.66421 11.208 8 11.5438 8 11.958C8 12.3722 7.66421 12.708 7.25 12.708H2.75C2.33579 12.708 2 12.3722 2 11.958ZM16 11.958C16 11.5438 16.3358 11.208 16.75 11.208H21.25C21.6642 11.208 22 11.5438 22 11.958C22 12.3722 21.6642 12.708 21.25 12.708H16.75C16.3358 12.708 16 12.3722 16 11.958ZM14.8286 14.7862C15.1215 14.4933 15.5963 14.4933 15.8892 14.7862L19.0712 17.9682C19.3641 18.2611 19.3641 18.7359 19.0712 19.0288C18.7783 19.3217 18.3034 19.3217 18.0105 19.0288L14.8286 15.8469C14.5357 15.554 14.5357 15.0791 14.8286 14.7862ZM9.17181 14.7866C9.46471 15.0795 9.46471 15.5543 9.17181 15.8472L5.98983 19.0292C5.69694 19.3221 5.22207 19.3221 4.92917 19.0292C4.63628 18.7363 4.63628 18.2614 4.92917 17.9686L8.11115 14.7866C8.40405 14.4937 8.87892 14.4937 9.17181 14.7866ZM12 15.958C12.4142 15.958 12.75 16.2938 12.75 16.708V21.208C12.75 21.6222 12.4142 21.958 12 21.958C11.5858 21.958 11.25 21.6222 11.25 21.208V16.708C11.25 16.2938 11.5858 15.958 12 15.958Z" fill="currentColor"/>
</svg>
