<svg width="24" height="24" viewBox="0 0 24 24" fill="none" xmlns="http://www.w3.org/2000/svg">
<path fill-rule="evenodd" clip-rule="evenodd" d="M7.77926 12C7.77926 11.5858 8.11504 11.25 8.52926 11.25H15.5293C15.9435 11.25 16.2793 11.5858 16.2793 12C16.2793 12.4142 15.9435 12.75 15.5293 12.75H8.52926C8.11504 12.75 7.77926 12.4142 7.77926 12Z" fill="currentColor"/>
<path fill-rule="evenodd" clip-rule="evenodd" d="M7.4503 14.736C7.5961 14.3483 8.02859 14.1522 8.4163 14.298L14.0593 16.4201C14.447 16.5659 14.6431 16.9984 14.4973 17.3861C14.3515 17.7738 13.9191 17.9699 13.5313 17.8241L7.88831 15.702C7.50061 15.5562 7.3045 15.1237 7.4503 14.736Z" fill="currentColor"/>
<path fill-rule="evenodd" clip-rule="evenodd" d="M14.4976 6.77694C14.6433 7.16467 14.4471 7.59713 14.0594 7.74288L8.4162 9.86415C8.02847 10.0099 7.59601 9.81373 7.45026 9.42601C7.30452 9.03828 7.50068 8.60582 7.88841 8.46007L13.5316 6.3388C13.9193 6.19305 14.3518 6.38922 14.4976 6.77694Z" fill="currentColor"/>
</svg>
