<svg width="24" height="24" viewBox="0 0 24 24" fill="none" xmlns="http://www.w3.org/2000/svg">
<path d="M8 1.25C8.41421 1.25 8.75 1.58579 8.75 2V3.25H15.25V2C15.25 1.58579 15.5858 1.25 16 1.25C16.4142 1.25 16.75 1.58579 16.75 2V3.25H19C19.9665 3.25 20.75 4.0335 20.75 5V19C20.75 19.9665 19.9665 20.75 19 20.75H5C4.0335 20.75 3.25 19.9665 3.25 19V15C3.25 14.5858 3.58579 14.25 4 14.25C4.41421 14.25 4.75 14.5858 4.75 15V19C4.75 19.1381 4.86193 19.25 5 19.25H19C19.1381 19.25 19.25 19.1381 19.25 19V5C19.25 4.86193 19.1381 4.75 19 4.75H16.75V6C16.75 6.41421 16.4142 6.75 16 6.75C15.5858 6.75 15.25 6.41421 15.25 6V4.75H8.75V6C8.75 6.41421 8.41421 6.75 8 6.75C7.58579 6.75 7.25 6.41421 7.25 6V4.75H5C4.86193 4.75 4.75 4.86193 4.75 5V9C4.75 9.41421 4.41421 9.75 4 9.75C3.58579 9.75 3.25 9.41421 3.25 9V5C3.25 4.0335 4.0335 3.25 5 3.25H7.25V2C7.25 1.58579 7.58579 1.25 8 1.25Z" fill="currentColor"/>
<path d="M1.75 12C1.75 11.5858 2.08579 11.25 2.5 11.25H13.1893L10.4697 8.53033C10.1768 8.23744 10.1768 7.76256 10.4697 7.46967C10.7626 7.17678 11.2374 7.17678 11.5303 7.46967L15.5303 11.4697C15.8232 11.7626 15.8232 12.2374 15.5303 12.5303L11.5303 16.5303C11.2374 16.8232 10.7626 16.8232 10.4697 16.5303C10.1768 16.2374 10.1768 15.7626 10.4697 15.4697L13.1893 12.75H2.5C2.08579 12.75 1.75 12.4142 1.75 12Z" fill="currentColor"/>
</svg>
