<svg width="24" height="24" viewBox="0 0 24 24" fill="none" xmlns="http://www.w3.org/2000/svg">
<path fill-rule="evenodd" clip-rule="evenodd" d="M8 1.25C8.41421 1.25 8.75 1.58579 8.75 2V3.25H15.25V2C15.25 1.58579 15.5858 1.25 16 1.25C16.4142 1.25 16.75 1.58579 16.75 2V3.25H19C19.9665 3.25 20.75 4.0335 20.75 5V9C20.75 9.41421 20.4142 9.75 20 9.75H4.75V19C4.75 19.1381 4.86193 19.25 5 19.25H9C9.41421 19.25 9.75 19.5858 9.75 20C9.75 20.4142 9.41421 20.75 9 20.75H5C4.0335 20.75 3.25 19.9665 3.25 19V5C3.25 4.0335 4.0335 3.25 5 3.25H7.25V2C7.25 1.58579 7.58579 1.25 8 1.25ZM7.25 4.75H5C4.86193 4.75 4.75 4.86193 4.75 5V8.25H19.25V5C19.25 4.86193 19.1381 4.75 19 4.75H16.75V6C16.75 6.41421 16.4142 6.75 16 6.75C15.5858 6.75 15.25 6.41421 15.25 6V4.75H8.75V6C8.75 6.41421 8.41421 6.75 8 6.75C7.58579 6.75 7.25 6.41421 7.25 6V4.75ZM17.5 12.75C15.1528 12.75 13.25 14.6528 13.25 17C13.25 19.3472 15.1528 21.25 17.5 21.25C19.8472 21.25 21.75 19.3472 21.75 17C21.75 14.6528 19.8472 12.75 17.5 12.75ZM11.75 17C11.75 13.8244 14.3244 11.25 17.5 11.25C20.6756 11.25 23.25 13.8244 23.25 17C23.25 20.1756 20.6756 22.75 17.5 22.75C14.3244 22.75 11.75 20.1756 11.75 17ZM20.2803 14.9697C20.5732 15.2626 20.5732 15.7374 20.2803 16.0303L17.2803 19.0303C16.9874 19.3232 16.5126 19.3232 16.2197 19.0303L14.7197 17.5303C14.4268 17.2374 14.4268 16.7626 14.7197 16.4697C15.0126 16.1768 15.4874 16.1768 15.7803 16.4697L16.75 17.4393L19.2197 14.9697C19.5126 14.6768 19.9874 14.6768 20.2803 14.9697Z" fill="currentColor"/>
</svg>
