<svg width="24" height="24" viewBox="0 0 24 24" fill="none" xmlns="http://www.w3.org/2000/svg">
<path fill-rule="evenodd" clip-rule="evenodd" d="M8 1.25C8.41421 1.25 8.75 1.58579 8.75 2V3.25H15.25V2C15.25 1.58579 15.5858 1.25 16 1.25C16.4142 1.25 16.75 1.58579 16.75 2V3.25H19C19.9665 3.25 20.75 4.0335 20.75 5V10C20.75 10.4142 20.4142 10.75 20 10.75C19.5858 10.75 19.25 10.4142 19.25 10V9.75H4.75V19C4.75 19.1381 4.86193 19.25 5 19.25H10C10.4142 19.25 10.75 19.5858 10.75 20C10.75 20.4142 10.4142 20.75 10 20.75H5C4.0335 20.75 3.25 19.9665 3.25 19V5C3.25 4.0335 4.0335 3.25 5 3.25H7.25V2C7.25 1.58579 7.58579 1.25 8 1.25ZM7.25 4.75H5C4.86193 4.75 4.75 4.86193 4.75 5V8.25H19.25V5C19.25 4.86193 19.1381 4.75 19 4.75H16.75V6C16.75 6.41421 16.4142 6.75 16 6.75C15.5858 6.75 15.25 6.41421 15.25 6V4.75H8.75V6C8.75 6.41421 8.41421 6.75 8 6.75C7.58579 6.75 7.25 6.41421 7.25 6V4.75ZM18 13.25C18.4142 13.25 18.75 13.5858 18.75 14V17.25H22C22.4142 17.25 22.75 17.5858 22.75 18C22.75 18.4142 22.4142 18.75 22 18.75H18.75V22C18.75 22.4142 18.4142 22.75 18 22.75C17.5858 22.75 17.25 22.4142 17.25 22V18.75H14C13.5858 18.75 13.25 18.4142 13.25 18C13.25 17.5858 13.5858 17.25 14 17.25H17.25V14C17.25 13.5858 17.5858 13.25 18 13.25Z" fill="currentColor"/>
</svg>
