<svg width="24" height="24" viewBox="0 0 24 24" fill="none" xmlns="http://www.w3.org/2000/svg">
<path d="M12.0001 6.16667C13.2999 6.16667 14.3535 5.122 14.3535 3.83334C14.3535 2.54467 13.2999 1.5 12.0001 1.5C10.7003 1.5 9.64665 2.54467 9.64665 3.83334C9.64665 5.122 10.7003 6.16667 12.0001 6.16667Z" fill="currentColor"/>
<path d="M6.95691 8.16676C6.95691 9.45543 5.90323 10.5001 4.60345 10.5001C3.30368 10.5001 2.25 9.45543 2.25 8.16676C2.25 6.87809 3.30368 5.83342 4.60345 5.83342C5.90323 5.83342 6.95691 6.87809 6.95691 8.16676Z" fill="currentColor"/>
<path d="M21.7501 15.8334C21.7501 17.1221 20.6964 18.1668 19.3966 18.1668C18.0968 18.1668 17.0432 17.1221 17.0432 15.8334C17.0432 14.5448 18.0968 13.5001 19.3966 13.5001C20.6964 13.5001 21.7501 14.5448 21.7501 15.8334Z" fill="currentColor"/>
<path d="M19.3968 9.83326C20.3252 9.83326 21.0778 9.08707 21.0778 8.16659C21.0778 7.24612 20.3252 6.49992 19.3968 6.49992C18.4684 6.49992 17.7157 7.24612 17.7157 8.16659C17.7157 9.08707 18.4684 9.83326 19.3968 9.83326Z" fill="currentColor"/>
<path d="M6.28442 15.8334C6.28442 16.7539 5.53179 17.5001 4.60338 17.5001C3.67496 17.5001 2.92234 16.7539 2.92234 15.8334C2.92234 14.913 3.67496 14.1668 4.60338 14.1668C5.53179 14.1668 6.28442 14.913 6.28442 15.8334Z" fill="currentColor"/>
<path d="M14.3535 20.1667C14.3535 21.4553 13.2999 22.5 12.0001 22.5C10.7003 22.5 9.64665 21.4553 9.64665 20.1667C9.64665 18.878 10.7003 17.8333 12.0001 17.8333C13.2999 17.8333 14.3535 18.878 14.3535 20.1667Z" fill="currentColor"/>
</svg>
