<svg width="24" height="24" viewBox="0 0 24 24" fill="none" xmlns="http://www.w3.org/2000/svg">
<path d="M14.25 17C14.25 17.4142 14.5858 17.75 15 17.75C15.4142 17.75 15.75 17.4142 15.75 17V15C15.75 14.5858 15.4142 14.25 15 14.25C14.5858 14.25 14.25 14.5858 14.25 15V17Z" fill="currentColor"/>
<path d="M15 13.25C14.5858 13.25 14.25 12.9142 14.25 12.5V10.5C14.25 10.0858 14.5858 9.75 15 9.75C15.4142 9.75 15.75 10.0858 15.75 10.5V12.5C15.75 12.9142 15.4142 13.25 15 13.25Z" fill="currentColor"/>
<path d="M9.25 16.5C9.25 17.1904 9.80964 17.75 10.5 17.75H11.5C12.1904 17.75 12.75 17.1904 12.75 16.5V14.5C12.75 13.8096 12.1904 13.25 11.5 13.25H10.5C9.80964 13.25 9.25 13.8096 9.25 14.5V16.5Z" fill="currentColor"/>
<path fill-rule="evenodd" clip-rule="evenodd" d="M1.25 6C1.25 4.48122 2.48122 3.25 4 3.25H20C21.5188 3.25 22.75 4.48122 22.75 6V8C22.75 9.51878 21.5188 10.75 20 10.75H18.75V18C18.75 19.5188 17.5188 20.75 16 20.75H8C6.48122 20.75 5.25 19.5188 5.25 18V10.75H4C2.48122 10.75 1.25 9.51878 1.25 8V6ZM20 9.25H18.75V7.75H19C19.4142 7.75 19.75 7.41421 19.75 7C19.75 6.58579 19.4142 6.25 19 6.25H5C4.58579 6.25 4.25 6.58579 4.25 7C4.25 7.41421 4.58579 7.75 5 7.75H5.25V9.25H4C3.30964 9.25 2.75 8.69036 2.75 8V6C2.75 5.30964 3.30964 4.75 4 4.75H20C20.6904 4.75 21.25 5.30964 21.25 6V8C21.25 8.69036 20.6904 9.25 20 9.25ZM6.75 7.75V18C6.75 18.6904 7.30964 19.25 8 19.25H16C16.6904 19.25 17.25 18.6904 17.25 18V7.75H15.75V8C15.75 8.41421 15.4142 8.75 15 8.75C14.5858 8.75 14.25 8.41421 14.25 8V7.75H6.75Z" fill="currentColor"/>
</svg>
