<svg width="24" height="24" viewBox="0 0 24 24" fill="none" xmlns="http://www.w3.org/2000/svg">
<path fill-rule="evenodd" clip-rule="evenodd" d="M12.6662 1.25C14.2269 1.24866 15.7665 1.60958 17.164 2.30437C18.5615 2.99919 19.7786 4.00893 20.7196 5.25409C21.6605 6.49924 22.2996 7.94583 22.5865 9.47994C22.8733 11.0141 22.8002 12.5938 22.3727 14.0949C21.9453 15.5959 21.1753 16.9772 20.1233 18.1301C19.0713 19.2829 17.766 20.1759 16.3103 20.7386C14.8545 21.3012 13.288 21.5183 11.7341 21.3727C10.3182 21.24 8.94799 20.8095 7.71272 20.1112L2.32239 22.6772C2.03595 22.8135 1.69469 22.7549 1.47017 22.5308C1.24564 22.3067 1.18642 21.9655 1.32226 21.6789L3.88984 16.2603C3.08099 14.821 2.63716 13.203 2.60039 11.5483C2.56055 9.75567 2.99986 7.98491 3.87297 6.4188C4.74608 4.85268 6.02135 3.54796 7.56713 2.63933C9.11285 1.73074 10.873 1.25113 12.666 1.25M16.4962 3.64752C15.3066 3.05607 13.9959 2.74883 12.6674 2.75L12.6671 2.75C11.1411 2.75093 9.64288 3.15913 8.32725 3.93247C7.01163 4.70582 5.92623 5.81627 5.18312 7.14921C4.44001 8.48214 4.06611 9.98925 4.10002 11.515C4.13392 13.0407 4.57441 14.5297 5.376 15.8283C5.5095 16.0445 5.52439 16.3137 5.41556 16.5434L3.57994 20.4172L7.42876 18.585C7.65932 18.4753 7.92987 18.4904 8.14679 18.6251C9.27542 19.326 10.5513 19.7553 11.8741 19.8792C13.1968 20.0032 14.5303 19.8184 15.7695 19.3394C17.0086 18.8605 18.1197 18.1004 19.0153 17.119C19.9108 16.1376 20.5662 14.9618 20.9301 13.6841C21.2939 12.4063 21.3562 11.0616 21.112 9.75566C20.8678 8.44975 20.3238 7.21836 19.5229 6.15844C18.7219 5.09851 17.6858 4.23898 16.4962 3.64752ZM10.2489 5.91667C10.6631 5.91667 10.9989 6.25246 10.9989 6.66667V8.89778C10.9989 9.312 10.6631 9.64778 10.2489 9.64778C9.8347 9.64778 9.49891 9.312 9.49891 8.89778V6.66667C9.49891 6.25246 9.8347 5.91667 10.2489 5.91667ZM15.7432 7.11721C16.0492 6.83794 16.5235 6.85954 16.8028 7.16545C17.7872 8.24375 18.333 9.65107 18.333 11.1111C18.333 12.5712 17.7872 13.9785 16.8028 15.0568C16.5235 15.3627 16.0492 15.3843 15.7432 15.105C15.4373 14.8257 15.4157 14.3514 15.695 14.0455C16.4271 13.2435 16.833 12.1969 16.833 11.1111C16.833 10.0253 16.4271 8.97869 15.695 8.17678C15.4157 7.87087 15.4373 7.39648 15.7432 7.11721ZM8.99829 12.3316C9.26396 12.0659 9.6243 11.9167 10 11.9167C10.07 11.9167 10.1394 11.9218 10.2078 11.932C11.0018 12.018 11.5497 12.5009 11.8757 13.0487C12.1968 13.5884 12.3322 14.2286 12.3322 14.7822C12.3322 14.7962 12.3319 14.8102 12.3311 14.8242C12.2983 15.4085 12.1079 15.9731 11.78 16.4578C11.452 16.9426 10.9989 17.3294 10.4687 17.5772C10.0935 17.7526 9.64708 17.5906 9.47169 17.2154C9.2963 16.8401 9.45831 16.3937 9.83356 16.2183C10.1182 16.0853 10.3615 15.8776 10.5375 15.6173C10.7097 15.3628 10.8113 15.0674 10.8321 14.7611C10.8312 14.6732 10.8243 14.5835 10.8118 14.4943C10.5755 14.6596 10.2924 14.75 10 14.75C9.6243 14.75 9.26396 14.6007 8.99829 14.3351C8.73261 14.0694 8.58335 13.7091 8.58335 13.3333C8.58335 12.9576 8.73261 12.5973 8.99829 12.3316Z" fill="currentColor"/>
</svg>
