<svg width="24" height="24" viewBox="0 0 24 24" fill="none" xmlns="http://www.w3.org/2000/svg">
<path fill-rule="evenodd" clip-rule="evenodd" d="M3.33333 2.74999C3.17862 2.74999 3.03025 2.81145 2.92085 2.92085C2.81146 3.03024 2.75 3.17862 2.75 3.33333V16.6667C2.75 16.8214 2.81146 16.9697 2.92085 17.0791C3.03025 17.1885 3.17863 17.25 3.33333 17.25H6C6.41421 17.25 6.75 17.5858 6.75 18V20.5L10.8833 17.4C11.0132 17.3026 11.1711 17.25 11.3333 17.25H20.6667C20.8214 17.25 20.9697 17.1885 21.0791 17.0791C21.1885 16.9697 21.25 16.8214 21.25 16.6667V3.33333C21.25 3.17862 21.1885 3.03024 21.0791 2.92085C20.9697 2.81145 20.8214 2.74999 20.6667 2.74999H3.33333ZM1.86019 1.86019C2.2509 1.46949 2.7808 1.24999 3.33333 1.24999H20.6667C21.2192 1.24999 21.7491 1.46949 22.1398 1.86019C22.5305 2.25089 22.75 2.78079 22.75 3.33333V16.6667C22.75 17.2192 22.5305 17.7491 22.1398 18.1398C21.7491 18.5305 21.2192 18.75 20.6667 18.75H11.5833L6.45 22.6C6.22274 22.7704 5.91868 22.7979 5.66459 22.6708C5.4105 22.5438 5.25 22.2841 5.25 22V18.75H3.33333C2.7808 18.75 2.25089 18.5305 1.86019 18.1398C1.46949 17.7491 1.25 17.2192 1.25 16.6667V3.33333C1.25 2.78079 1.46949 2.25089 1.86019 1.86019ZM7.39813 9.09923C7.57629 8.9802 7.78574 8.91666 8 8.91666C8.28732 8.91666 8.56287 9.0308 8.76603 9.23396C8.9692 9.43713 9.08333 9.71268 9.08333 9.99999C9.08333 10.2143 9.01979 10.4237 8.90076 10.6019C8.78172 10.78 8.61253 10.9189 8.41457 11.0009C8.21662 11.0829 7.9988 11.1043 7.78865 11.0625C7.57851 11.0207 7.38548 10.9175 7.23397 10.766C7.08247 10.6145 6.97928 10.4215 6.93748 10.2113C6.89568 10.0012 6.91714 9.78337 6.99913 9.58542C7.08112 9.38747 7.21998 9.21828 7.39813 9.09923ZM11.3981 9.09923C11.5763 8.9802 11.7857 8.91666 12 8.91666C12.2873 8.91666 12.5629 9.0308 12.766 9.23396C12.9692 9.43713 13.0833 9.71268 13.0833 9.99999C13.0833 10.2143 13.0198 10.4237 12.9008 10.6019C12.7817 10.78 12.6125 10.9189 12.4146 11.0009C12.2166 11.0829 11.9988 11.1043 11.7887 11.0625C11.5785 11.0207 11.3855 10.9175 11.234 10.766C11.0825 10.6145 10.9793 10.4215 10.9375 10.2113C10.8957 10.0012 10.9171 9.78337 10.9991 9.58542C11.0811 9.38747 11.22 9.21828 11.3981 9.09923ZM15.3981 9.09923C15.5763 8.98019 15.7857 8.91666 16 8.91666C16.2873 8.91666 16.5629 9.0308 16.766 9.23396C16.9692 9.43713 17.0833 9.71268 17.0833 9.99999C17.0833 10.2143 17.0198 10.4237 16.9008 10.6019C16.7817 10.78 16.6125 10.9189 16.4146 11.0009C16.2166 11.0829 15.9988 11.1043 15.7887 11.0625C15.5785 11.0207 15.3855 10.9175 15.234 10.766C15.0825 10.6145 14.9793 10.4215 14.9375 10.2113C14.8957 10.0012 14.9171 9.78337 14.9991 9.58542C15.0811 9.38748 15.22 9.21828 15.3981 9.09923Z" fill="currentColor"/>
</svg>
