<svg width="24" height="24" viewBox="0 0 24 24" fill="none" xmlns="http://www.w3.org/2000/svg">
<path fill-rule="evenodd" clip-rule="evenodd" d="M6.66494 2.75C5.77659 2.74793 4.91406 3.04868 4.21958 3.60264C3.5251 4.15661 3.04015 4.93071 2.8447 5.7973C2.64925 6.66389 2.75497 7.57121 3.14442 8.36965C3.53388 9.16809 4.18381 9.80996 4.98705 10.1894C5.24937 10.3133 5.41669 10.5774 5.41669 10.8676V13.5227L6.80302 12.1363C7.09592 11.8434 7.57079 11.8434 7.86368 12.1363C8.15658 12.4292 8.15658 12.9041 7.86368 13.197L5.19702 15.8637C4.98252 16.0782 4.65993 16.1423 4.37968 16.0262C4.09942 15.9102 3.91669 15.6367 3.91669 15.3333V11.3186C3.00305 10.7818 2.26394 9.98607 1.79625 9.02725C1.25727 7.92226 1.11096 6.66658 1.38146 5.46728C1.65195 4.26797 2.32309 3.19666 3.2842 2.43001C4.24507 1.66355 5.4384 1.24735 6.6675 1.25C6.66719 1.25 6.66781 1.25 6.6675 1.25L9.3333 1.25C10.5 1.24993 11.6355 1.62641 12.571 2.32345C13.5066 3.02051 14.1922 4.0009 14.5258 5.11884C14.6443 5.51575 14.4185 5.93355 14.0216 6.05201C13.6247 6.17046 13.2069 5.94473 13.0885 5.54782C12.8472 4.73936 12.3514 4.03037 11.6748 3.52628C10.9983 3.0222 10.1771 2.74994 9.33341 2.75H6.66669L6.66494 2.75ZM10.8365 9.50317C11.8523 8.48735 13.2301 7.91666 14.6667 7.91666H17.3332C17.3332 7.91666 17.3333 7.91666 17.3332 7.91666C18.0445 7.91655 18.7491 8.05656 19.4063 8.32872C20.0636 8.60089 20.6608 8.99988 21.1638 9.50291C21.6668 10.0059 22.0658 10.6031 22.338 11.2604C22.6101 11.9177 22.7502 12.6221 22.75 13.3335L22.75 13.3346C22.7482 14.3573 22.4563 15.3585 21.9083 16.2219C21.4473 16.9481 20.821 17.5518 20.0834 17.9852V22C20.0834 22.3033 19.9006 22.5768 19.6204 22.6929C19.3401 22.809 19.0175 22.7448 18.803 22.5303L15.0227 18.75H14.6667C13.2301 18.75 11.8523 18.1793 10.8365 17.1635C9.8207 16.1477 9.25002 14.7699 9.25002 13.3333C9.25002 11.8967 9.8207 10.519 10.8365 9.50317ZM14.6667 9.41666C13.6279 9.41666 12.6317 9.82931 11.8972 10.5638C11.1627 11.2983 10.75 12.2946 10.75 13.3333C10.75 14.3721 11.1627 15.3683 11.8972 16.1028C12.6317 16.8374 13.6279 17.25 14.6667 17.25H15.3334C15.5323 17.25 15.723 17.329 15.8637 17.4697L18.5834 20.1893V17.5342C18.5834 17.2441 18.7507 16.98 19.013 16.8561C19.6811 16.5405 20.2459 16.0418 20.6419 15.418C21.0377 14.7945 21.2485 14.0715 21.25 13.333C21.2501 12.8187 21.1489 12.3094 20.9521 11.8343C20.7553 11.3591 20.4668 10.9273 20.1031 10.5636C19.7394 10.1999 19.3076 9.91138 18.8324 9.71459C18.3572 9.5178 17.8479 9.41657 17.3335 9.41666H14.6667Z" fill="currentColor"/>
</svg>
