<svg width="24" height="24" viewBox="0 0 24 24" fill="none" xmlns="http://www.w3.org/2000/svg">
<path d="M17.5303 9.03033C17.8232 8.73744 17.8232 8.26256 17.5303 7.96967C17.2374 7.67678 16.7626 7.67678 16.4697 7.96967L10 14.4393L7.53033 11.9697C7.23744 11.6768 6.76256 11.6768 6.46967 11.9697C6.17678 12.2626 6.17678 12.7374 6.46967 13.0303L9.46967 16.0303C9.76256 16.3232 10.2374 16.3232 10.5303 16.0303L17.5303 9.03033Z" fill="currentColor"/>
<path fill-rule="evenodd" clip-rule="evenodd" d="M20.75 6C20.75 4.48122 19.5188 3.25 18 3.25H6C4.48122 3.25 3.25 4.48122 3.25 6V18C3.25 19.5188 4.48122 20.75 6 20.75H18C19.5188 20.75 20.75 19.5188 20.75 18V6ZM18 4.75C18.6904 4.75 19.25 5.30964 19.25 6L19.25 18C19.25 18.6904 18.6904 19.25 18 19.25H6C5.30964 19.25 4.75 18.6904 4.75 18L4.75 6C4.75 5.30964 5.30964 4.75 6 4.75L18 4.75Z" fill="currentColor"/>
</svg>
