<svg width="24" height="24" viewBox="0 0 24 24" fill="none" xmlns="http://www.w3.org/2000/svg">
<path fill-rule="evenodd" clip-rule="evenodd" d="M6 3.25C4.48122 3.25 3.25 4.48122 3.25 6V18C3.25 19.5188 4.48122 20.75 6 20.75H18C19.5188 20.75 20.75 19.5188 20.75 18L20.75 6C20.75 4.48122 19.5188 3.25 18 3.25H6ZM17.5303 7.96967C17.8232 8.26256 17.8232 8.73744 17.5303 9.03033L10.5303 16.0303C10.2374 16.3232 9.76256 16.3232 9.46967 16.0303L6.46967 13.0303C6.17678 12.7374 6.17678 12.2626 6.46967 11.9697C6.76256 11.6768 7.23744 11.6768 7.53033 11.9697L10 14.4393L16.4697 7.96967C16.7626 7.67678 17.2374 7.67678 17.5303 7.96967Z" fill="currentColor"/>
</svg>
