<svg width="24" height="24" viewBox="0 0 24 24" fill="none" xmlns="http://www.w3.org/2000/svg">
<path fill-rule="evenodd" clip-rule="evenodd" d="M21.5303 11.4697C21.8232 11.7626 21.8232 12.2374 21.5303 12.5303L16.5303 17.5303C16.2374 17.8232 15.7626 17.8232 15.4697 17.5303C15.1768 17.2374 15.1768 16.7626 15.4697 16.4697L19.9393 12L15.4697 7.53033C15.1768 7.23744 15.1768 6.76256 15.4697 6.46967C15.7626 6.17678 16.2374 6.17678 16.5303 6.46967L21.5303 11.4697Z" fill="currentColor"/>
<path fill-rule="evenodd" clip-rule="evenodd" d="M2.46967 12.5303C2.17678 12.2374 2.17678 11.7626 2.46967 11.4697L7.46967 6.46967C7.76256 6.17678 8.23744 6.17678 8.53033 6.46967C8.82322 6.76256 8.82322 7.23744 8.53033 7.53033L4.06066 12L8.53033 16.4697C8.82322 16.7626 8.82322 17.2374 8.53033 17.5303C8.23744 17.8232 7.76256 17.8232 7.46967 17.5303L2.46967 12.5303Z" fill="currentColor"/>
</svg>
