<svg width="24" height="24" viewBox="0 0 24 24" fill="none" xmlns="http://www.w3.org/2000/svg">
<path fill-rule="evenodd" clip-rule="evenodd" d="M12 2.75C10.7574 2.75 9.75 3.75736 9.75 5C9.75 5.19891 9.67098 5.38968 9.53033 5.53033C9.38968 5.67098 9.19891 5.75 9 5.75L6 5.75C5.86193 5.75 5.75 5.86193 5.75 6V20C5.75 20.1381 5.86193 20.25 6 20.25H18C18.1381 20.25 18.25 20.1381 18.25 20L18.25 6C18.25 5.86193 18.1381 5.75 18 5.75H15C14.5858 5.75 14.25 5.41421 14.25 5C14.25 3.75736 13.2426 2.75 12 2.75ZM8.32501 4.25C8.67247 2.53832 10.1858 1.25 12 1.25C13.8142 1.25 15.3275 2.53832 15.675 4.25H18C18.9665 4.25 19.75 5.0335 19.75 6L19.75 20C19.75 20.9665 18.9665 21.75 18 21.75H6C5.0335 21.75 4.25 20.9665 4.25 20V6C4.25 5.0335 5.0335 4.25 6 4.25L8.32501 4.25Z" fill="currentColor"/>
<path fill-rule="evenodd" clip-rule="evenodd" d="M16.5303 9.46967C16.8232 9.76256 16.8232 10.2374 16.5303 10.5303L10.5303 16.5303C10.3897 16.671 10.1989 16.75 10 16.75C9.80109 16.75 9.61032 16.671 9.46967 16.5303L7.46967 14.5303C7.17678 14.2374 7.17678 13.7626 7.46967 13.4697C7.76256 13.1768 8.23744 13.1768 8.53033 13.4697L10 14.9393L15.4697 9.46967C15.7626 9.17678 16.2374 9.17678 16.5303 9.46967Z" fill="currentColor"/>
<path d="M13 5C13 5.55228 12.5523 6 12 6C11.4477 6 11 5.55228 11 5C11 4.44772 11.4477 4 12 4C12.5523 4 13 4.44772 13 5Z" fill="currentColor"/>
</svg>
