<svg width="24" height="24" viewBox="0 0 24 24" fill="none" xmlns="http://www.w3.org/2000/svg">
<path d="M12 6C12.5523 6 13 5.55228 13 5C13 4.44772 12.5523 4 12 4C11.4477 4 11 4.44772 11 5C11 5.55228 11.4477 6 12 6Z" fill="currentColor"/>
<path d="M13 14V17H11V14H8V12H11V9H13V12H16V14H13Z" fill="currentColor"/>
<path fill-rule="evenodd" clip-rule="evenodd" d="M12 1.25C10.1858 1.25 8.67247 2.53832 8.32501 4.25L6 4.25C5.0335 4.25 4.25 5.0335 4.25 6V20C4.25 20.9665 5.0335 21.75 6 21.75H18C18.9665 21.75 19.75 20.9665 19.75 20L19.75 6C19.75 5.0335 18.9665 4.25 18 4.25H15.675C15.3275 2.53832 13.8142 1.25 12 1.25ZM9.75 5C9.75 3.75736 10.7574 2.75 12 2.75C13.2426 2.75 14.25 3.75736 14.25 5C14.25 5.41421 14.5858 5.75 15 5.75H18C18.1381 5.75 18.25 5.86193 18.25 6L18.25 20C18.25 20.1381 18.1381 20.25 18 20.25H6C5.86193 20.25 5.75 20.1381 5.75 20V6C5.75 5.86193 5.86193 5.75 6 5.75L9 5.75C9.19891 5.75 9.38968 5.67098 9.53033 5.53033C9.67098 5.38968 9.75 5.19891 9.75 5Z" fill="currentColor"/>
</svg>
