<svg width="24" height="24" viewBox="0 0 24 24" fill="none" xmlns="http://www.w3.org/2000/svg">
<path fill-rule="evenodd" clip-rule="evenodd" d="M6.30556 2.75V4.80556H12.3611V2.75H6.30556ZM13.8611 3.02778V2.66667C13.8611 1.88426 13.2268 1.25 12.4444 1.25H6.22222C5.43982 1.25 4.80556 1.88426 4.80556 2.66667V3.02778H3.33333C2.7808 3.02778 2.2509 3.24727 1.86019 3.63797C1.46949 4.02867 1.25 4.55858 1.25 5.11111V20.6667C1.25 21.2192 1.46949 21.7491 1.86019 22.1398C2.25089 22.5305 2.7808 22.75 3.33333 22.75H15.3333C15.8859 22.75 16.4158 22.5305 16.8065 22.1398C17.1972 21.7491 17.4167 21.2192 17.4167 20.6667V18C17.4167 17.5858 17.0809 17.25 16.6667 17.25C16.2525 17.25 15.9167 17.5858 15.9167 18V20.6667C15.9167 20.8214 15.8552 20.9697 15.7458 21.0791C15.6364 21.1885 15.488 21.25 15.3333 21.25H3.33333C3.17863 21.25 3.03025 21.1885 2.92085 21.0791C2.81146 20.9697 2.75 20.8214 2.75 20.6667V5.11111C2.75 4.9564 2.81146 4.80803 2.92085 4.69863C3.03025 4.58924 3.17862 4.52778 3.33333 4.52778H4.80556V4.88889C4.80556 5.67129 5.43982 6.30556 6.22222 6.30556H12.4444C13.2268 6.30556 13.8611 5.67129 13.8611 4.88889V4.52778H15.3333C15.488 4.52778 15.6364 4.58924 15.7458 4.69863C15.8552 4.80803 15.9167 4.9564 15.9167 5.11111C15.9167 5.52532 16.2525 5.86111 16.6667 5.86111C17.0809 5.86111 17.4167 5.52532 17.4167 5.11111C17.4167 4.55858 17.1972 4.02867 16.8065 3.63797C16.4158 3.24727 15.8859 3.02778 15.3333 3.02778H13.8611ZM19.1064 7.61646L10.8044 15.9098L10.5121 17.9341L12.5808 17.6393L20.873 9.38183C21.0885 9.14598 21.2056 8.83643 21.1999 8.51673C21.1942 8.19289 21.063 7.88392 20.834 7.6549C20.605 7.42587 20.296 7.29469 19.9722 7.28897C19.6522 7.28333 19.3424 7.40063 19.1064 7.61646ZM18.0754 6.52685C18.5967 6.04109 19.2862 5.77664 19.9986 5.78921C20.7111 5.80178 21.3908 6.09039 21.8947 6.59423C22.3985 7.09808 22.6871 7.77783 22.6997 8.49026C22.7123 9.2027 22.4478 9.89221 21.962 10.4135C21.9557 10.4204 21.9492 10.4271 21.9425 10.4337L13.4625 18.8781C13.3479 18.9923 13.1993 19.0663 13.0391 19.0892L9.73245 19.5603C9.4986 19.5936 9.26271 19.5148 9.09583 19.3476C8.92896 19.1804 8.8506 18.9444 8.88437 18.7106L9.35548 15.4484C9.37864 15.288 9.4531 15.1395 9.56773 15.0249L18.0566 6.54495C18.0596 6.54194 18.0627 6.53896 18.0657 6.536C18.0689 6.53292 18.0721 6.52987 18.0754 6.52685ZM5.25 9.11111C5.25 8.6969 5.58579 8.36111 6 8.36111H12.2222C12.6364 8.36111 12.9722 8.6969 12.9722 9.11111C12.9722 9.52533 12.6364 9.86111 12.2222 9.86111H6C5.58579 9.86111 5.25 9.52533 5.25 9.11111ZM5.25 13.1111C5.25 12.6969 5.58579 12.3611 6 12.3611H8.22222C8.63644 12.3611 8.97222 12.6969 8.97222 13.1111C8.97222 13.5253 8.63644 13.8611 8.22222 13.8611H6C5.58579 13.8611 5.25 13.5253 5.25 13.1111Z" fill="currentColor"/>
</svg>
