<svg width="24" height="24" viewBox="0 0 24 24" fill="none" xmlns="http://www.w3.org/2000/svg">
<path fill-rule="evenodd" clip-rule="evenodd" d="M9.73282 0.754766C10.1394 0.675726 10.5331 0.941267 10.6122 1.34787L10.9931 3.30729C11.3234 3.26944 11.6594 3.24999 12 3.24999C12.7621 3.24999 13.5015 3.34743 14.2063 3.53053L14.4471 2.83145C14.582 2.43981 15.0088 2.23167 15.4005 2.36655C15.7921 2.50143 16.0002 2.92826 15.8653 3.31989L15.6202 4.03169C16.6052 4.47994 17.4926 5.10547 18.2414 5.86753L19.8779 4.44493C20.1906 4.17319 20.6643 4.20632 20.936 4.51894C21.2078 4.83155 21.1746 5.30527 20.862 5.57701L19.198 7.02352C19.799 7.8912 20.2471 8.8728 20.5035 9.92938L21.4736 9.74053C21.8802 9.66138 22.2739 9.92681 22.3531 10.3334C22.4322 10.74 22.1668 11.1337 21.7602 11.2129L20.7306 11.4133C20.7434 11.6072 20.75 11.8028 20.75 12C20.75 12.838 20.6322 13.6485 20.4122 14.4158L22.3522 15.0839C22.7438 15.2187 22.952 15.6455 22.8171 16.0372C22.6822 16.4288 22.2554 16.637 21.8638 16.5021L19.8755 15.8174C19.4354 16.7238 18.8434 17.5427 18.1327 18.2412L19.2338 19.5082C19.5055 19.8208 19.4723 20.2946 19.1597 20.5663C18.847 20.838 18.3733 20.8048 18.1016 20.4922L16.9767 19.1978C16.1786 19.7507 15.2841 20.1742 14.3236 20.4381L14.5285 21.4935C14.6074 21.9001 14.3418 22.2937 13.9352 22.3727C13.5285 22.4516 13.1349 22.186 13.056 21.7794L12.8482 20.7094C12.5691 20.7362 12.2861 20.75 12 20.75C11.2931 20.75 10.6059 20.6662 9.94763 20.508L9.17408 22.7533C9.03916 23.1449 8.61231 23.353 8.22069 23.2181C7.82906 23.0832 7.62097 22.6563 7.75589 22.2647L8.52483 20.0327C7.61635 19.6392 6.78776 19.096 6.07013 18.4343L4.98 19.382C4.6674 19.6538 4.19368 19.6207 3.92192 19.3081C3.65016 18.9955 3.68327 18.5217 3.99587 18.25L5.05772 17.3269C4.4536 16.5407 3.98001 15.649 3.66938 14.6842L2.03522 15.0022C1.62863 15.0813 1.2349 14.8158 1.15579 14.4092C1.07668 14.0026 1.34216 13.6089 1.74875 13.5298L3.33451 13.2213C3.27877 12.8222 3.24996 12.4144 3.24996 12C3.24996 11.3686 3.31683 10.7529 3.44387 10.1595L2.6558 9.88811C2.26416 9.75325 2.05599 9.32644 2.19084 8.93479C2.3257 8.54315 2.75252 8.33498 3.14416 8.46984L3.88367 8.72447C4.28227 7.73775 4.85559 6.84033 5.56527 6.07056L4.42888 4.76289C4.15718 4.45024 4.19038 3.97652 4.50303 3.70482C4.81569 3.43312 5.2894 3.46632 5.5611 3.77897L6.67266 5.05808C7.51489 4.41077 8.47828 3.9133 9.52295 3.60553L9.13972 1.6341C9.06067 1.2275 9.32622 0.833807 9.73282 0.754766ZM9.81983 18.9165C9.78739 18.8996 9.75333 18.885 9.71774 18.8727C9.67711 18.8587 9.63611 18.8484 9.59509 18.8416C6.77305 17.8497 4.74996 15.1611 4.74996 12C4.74996 7.99592 7.99589 4.74999 12 4.74999C16.004 4.74999 19.25 7.99592 19.25 12C19.25 16.0041 16.004 19.25 12 19.25C11.2403 19.25 10.5079 19.1332 9.81983 18.9165ZM5.99996 10.5C5.99996 9.53349 6.78346 8.74999 7.74996 8.74999H8.74996C9.71646 8.74999 10.5 9.53349 10.5 10.5V10.55C10.5 10.9642 10.1642 11.3 9.74996 11.3C9.33574 11.3 8.99996 10.9642 8.99996 10.55V10.5C8.99996 10.3619 8.88803 10.25 8.74996 10.25H7.74996C7.61189 10.25 7.49996 10.3619 7.49996 10.5V13.5C7.49996 13.6381 7.61189 13.75 7.74996 13.75H8.74996C8.88803 13.75 8.99996 13.6381 8.99996 13.5V13.45C8.99996 13.0358 9.33574 12.7 9.74996 12.7C10.1642 12.7 10.5 13.0358 10.5 13.45V13.5C10.5 14.4665 9.71646 15.25 8.74996 15.25H7.74996C6.78346 15.25 5.99996 14.4665 5.99996 13.5V10.5ZM12 8.74999C12.4142 8.74999 12.75 9.08577 12.75 9.49999V14.5C12.75 14.9142 12.4142 15.25 12 15.25C11.5857 15.25 11.25 14.9142 11.25 14.5V9.49999C11.25 9.08577 11.5857 8.74999 12 8.74999ZM15.25 10.25C15.1119 10.25 15 10.3619 15 10.5V11C15 11.1381 15.1119 11.25 15.25 11.25H16.25C16.388 11.25 16.5 11.1381 16.5 11V10.5C16.5 10.3619 16.388 10.25 16.25 10.25H15.25ZM16.4778 12.7353C16.3678 13.3132 15.8599 13.75 15.25 13.75H14.75C14.3357 13.75 14 14.0858 14 14.5C14 14.9142 14.3357 15.25 14.75 15.25H15.25C16.7687 15.25 18 14.0188 18 12.5V10.5C18 9.53349 17.2165 8.74999 16.25 8.74999H15.25C14.2835 8.74999 13.5 9.53349 13.5 10.5V11C13.5 11.9665 14.2835 12.75 15.25 12.75H16.25C16.3272 12.75 16.4033 12.745 16.4778 12.7353Z" fill="currentColor"/>
</svg>
