<svg width="24" height="24" viewBox="0 0 24 24" fill="none" xmlns="http://www.w3.org/2000/svg">
<path fill-rule="evenodd" clip-rule="evenodd" d="M21.75 9.02004V13.5C21.75 13.8315 21.6183 14.1495 21.3839 14.3839C21.1495 14.6183 20.8315 14.75 20.5 14.75H16C15.5858 14.75 15.25 15.0858 15.25 15.5C15.25 15.9142 15.5858 16.25 16 16.25H20.5C21.2293 16.25 21.9288 15.9603 22.4445 15.4445C22.9603 14.9288 23.25 14.2293 23.25 13.5V6.5C23.25 5.77065 22.9603 5.07118 22.4445 4.55546C21.9288 4.03973 21.2293 3.75 20.5 3.75H9.5C8.77065 3.75 8.07118 4.03973 7.55546 4.55546C7.34948 4.76143 7.17955 4.99672 7.04974 5.25151C6.92278 5.24296 6.79194 5.26663 6.66951 5.32673C6.57937 5.37098 6.44443 5.42501 6.25531 5.49745L6.15842 5.53445C6.00237 5.59394 5.82483 5.66163 5.65205 5.73332C5.44229 5.82034 5.21519 5.92304 5.00922 6.04253C4.8143 6.15562 4.58005 6.31636 4.40682 6.54103L0.907989 11.0395C0.653687 11.3665 0.712589 11.8377 1.03955 12.092C1.36651 12.3463 1.83772 12.2874 2.09202 11.9605L5.59202 7.46044L5.59487 7.45675C5.59396 7.45764 5.5945 7.45723 5.59487 7.45675C5.60148 7.45029 5.64517 7.40774 5.76197 7.33998C5.88449 7.2689 6.04197 7.19552 6.22688 7.1188C6.37757 7.05628 6.53031 6.99802 6.6856 6.9388L6.75 6.9142V10C6.75 10.4142 7.08579 10.75 7.5 10.75C7.91421 10.75 8.25 10.4142 8.25 10V9.02002L21.75 9.02004ZM9.5 5.25C9.16848 5.25 8.85054 5.3817 8.61612 5.61612C8.3817 5.85054 8.25 6.16848 8.25 6.5V7.02002L21.75 7.02004V6.5C21.75 6.16848 21.6183 5.85054 21.3839 5.61612C21.1495 5.3817 20.8315 5.25 20.5 5.25H9.5Z" fill="currentColor"/>
<path d="M12.5744 11.1113C12.0964 11.0193 11.6018 11.0728 11.1545 11.2647L5.20495 13.8105C4.82414 13.9734 4.64752 14.4142 4.81047 14.795C4.97342 15.1759 5.41423 15.3525 5.79505 15.1895L11.7458 12.6432C11.9176 12.5695 12.1075 12.549 12.2911 12.5843C12.4747 12.6196 12.6435 12.7091 12.7757 12.8413C12.782 12.8477 12.7885 12.8539 12.7951 12.86C12.8834 12.9423 12.9539 13.0419 13.0022 13.1526C13.0504 13.2633 13.0752 13.3828 13.0752 13.5035C13.0752 13.6242 13.0504 13.7437 13.0022 13.8544C12.9578 13.9563 12.8945 14.0488 12.8158 14.127C12.5286 14.3451 11.5933 14.943 10.8733 15.3909C10.2727 15.7631 9.75901 16.2601 9.36701 16.8479C8.9767 17.433 8.44804 17.9127 7.82792 18.2445C7.20778 18.5763 6.51527 18.7499 5.81194 18.75H1.5C1.08579 18.75 0.75 19.0858 0.75 19.5C0.75 19.9142 1.08579 20.25 1.5 20.25H5.81206C6.76227 20.2499 7.69776 20.0153 8.53557 19.5671C9.37339 19.1188 10.0877 18.4706 10.615 17.6801C10.888 17.2707 11.2457 16.9247 11.664 16.6655L11.6652 16.6648C12.372 16.2252 13.4353 15.5494 13.7706 15.2848C13.7866 15.2722 13.802 15.2589 13.8169 15.245C14.0562 15.0224 14.247 14.7529 14.3774 14.4532C14.5079 14.1536 14.5752 13.8303 14.5752 13.5035C14.5752 13.1767 14.5079 12.8534 14.3774 12.5538C14.2488 12.2583 14.0614 11.992 13.8268 11.7712C13.484 11.4321 13.0481 11.2024 12.5744 11.1113Z" fill="currentColor"/>
</svg>
