<svg width="24" height="24" viewBox="0 0 24 24" fill="none" xmlns="http://www.w3.org/2000/svg">
<path d="M5.25 13C5.25 12.5858 5.58579 12.25 6 12.25H13C13.4142 12.25 13.75 12.5858 13.75 13C13.75 13.4142 13.4142 13.75 13 13.75H6C5.58579 13.75 5.25 13.4142 5.25 13Z" fill="currentColor"/>
<path d="M6 15.25C5.58579 15.25 5.25 15.5858 5.25 16C5.25 16.4142 5.58579 16.75 6 16.75H11C11.4142 16.75 11.75 16.4142 11.75 16C11.75 15.5858 11.4142 15.25 11 15.25H6Z" fill="currentColor"/>
<path fill-rule="evenodd" clip-rule="evenodd" d="M6 4.25C3.92893 4.25 2.25 5.92893 2.25 8V16C2.25 18.0711 3.92893 19.75 6 19.75H18C20.0711 19.75 21.75 18.0711 21.75 16V8C21.75 5.92893 20.0711 4.25 18 4.25H6ZM3.75 8C3.75 6.75736 4.75736 5.75 6 5.75H18C19.2426 5.75 20.25 6.75736 20.25 8L3.75 8ZM3.75 10V16C3.75 17.2426 4.75736 18.25 6 18.25H18C19.2426 18.25 20.25 17.2426 20.25 16V10H3.75Z" fill="currentColor"/>
</svg>
