<svg width="24" height="24" viewBox="0 0 24 24" fill="none" xmlns="http://www.w3.org/2000/svg">
<path fill-rule="evenodd" clip-rule="evenodd" d="M4.3986 4.3986C6.41462 2.38259 9.14892 1.25 12 1.25C14.8511 1.25 17.5854 2.38259 19.6014 4.3986C21.6174 6.41462 22.75 9.14892 22.75 12C22.75 14.8511 21.6174 17.5854 19.6014 19.6014C17.5854 21.6174 14.8511 22.75 12 22.75C9.14892 22.75 6.41462 21.6174 4.3986 19.6014C2.38259 17.5854 1.25 14.8511 1.25 12C1.25 9.14892 2.38259 6.41462 4.3986 4.3986ZM12 2.75C9.54675 2.75 7.19397 3.72455 5.45926 5.45926C3.72455 7.19397 2.75 9.54675 2.75 12C2.75 14.4533 3.72455 16.806 5.45926 18.5407C7.19397 20.2755 9.54675 21.25 12 21.25C14.4533 21.25 16.806 20.2755 18.5407 18.5407C20.2755 16.806 21.25 14.4533 21.25 12C21.25 9.54675 20.2755 7.19397 18.5407 5.45926C16.806 3.72455 14.4533 2.75 12 2.75ZM9.66493 5.66493C9.93061 5.39925 10.2909 5.25 10.6667 5.25H13.3333C13.7091 5.25 14.0694 5.39925 14.3351 5.66493C14.6007 5.93061 14.75 6.29094 14.75 6.66667V9.25H17.3333C17.7091 9.25 18.0694 9.39925 18.3351 9.66493C18.6007 9.93061 18.75 10.2909 18.75 10.6667V13.3333C18.75 13.7091 18.6007 14.0694 18.3351 14.3351C18.0694 14.6007 17.7091 14.75 17.3333 14.75H14.75V17.3333C14.75 17.7091 14.6007 18.0694 14.3351 18.3351C14.0694 18.6007 13.7091 18.75 13.3333 18.75H10.6667C10.2909 18.75 9.93061 18.6007 9.66493 18.3351C9.39925 18.0694 9.25 17.7091 9.25 17.3333V14.75H6.66667C6.29094 14.75 5.93061 14.6007 5.66493 14.3351C5.39925 14.0694 5.25 13.7091 5.25 13.3333V10.6667C5.25 10.2909 5.39925 9.93061 5.66493 9.66493C5.93061 9.39926 6.29094 9.25 6.66667 9.25H9.25V6.66667C9.25 6.29094 9.39926 5.93061 9.66493 5.66493ZM10.75 6.75V10C10.75 10.4142 10.4142 10.75 10 10.75H6.75V13.25H10C10.4142 13.25 10.75 13.5858 10.75 14V17.25H13.25V14C13.25 13.5858 13.5858 13.25 14 13.25H17.25V10.75H14C13.5858 10.75 13.25 10.4142 13.25 10V6.75H10.75Z" fill="currentColor"/>
</svg>
