<svg width="24" height="24" viewBox="0 0 24 24" fill="none" xmlns="http://www.w3.org/2000/svg">
<path d="M8.53033 10.4697C8.23744 10.1768 7.76256 10.1768 7.46967 10.4697C7.17678 10.7626 7.17678 11.2374 7.46967 11.5303L11.4697 15.5303C11.7626 15.8232 12.2374 15.8232 12.5303 15.5303L16.5303 11.5303C16.8232 11.2374 16.8232 10.7626 16.5303 10.4697C16.2374 10.1768 15.7626 10.1768 15.4697 10.4697L12.75 13.1893V4C12.75 3.58579 12.4142 3.25 12 3.25C11.5858 3.25 11.25 3.58579 11.25 4V13.1893L8.53033 10.4697Z" fill="currentColor"/>
<path d="M3.75 16C3.75 15.5858 3.41421 15.25 3 15.25C2.58579 15.25 2.25 15.5858 2.25 16V17C2.25 18.5188 3.48122 19.75 5 19.75H19C20.5188 19.75 21.75 18.5188 21.75 17V16C21.75 15.5858 21.4142 15.25 21 15.25C20.5858 15.25 20.25 15.5858 20.25 16V17C20.25 17.6904 19.6904 18.25 19 18.25H5C4.30964 18.25 3.75 17.6904 3.75 17V16Z" fill="currentColor"/>
</svg>
