<svg width="24" height="24" viewBox="0 0 24 24" fill="none" xmlns="http://www.w3.org/2000/svg">
<path d="M9.10237 2.25078C8.20737 2.2372 7.31861 2.40177 6.48781 2.73491C5.65701 3.06804 4.90076 3.56309 4.26309 4.19124C3.62541 4.8194 3.11903 5.5681 2.77343 6.3938C2.42782 7.21949 2.2499 8.10567 2.25 9.00078C2.25005 9.41499 2.58587 9.75074 3.00009 9.75069C3.4143 9.75064 3.75005 9.41482 3.75 9.0006C3.74992 8.30441 3.88831 7.61516 4.15711 6.97295C4.42591 6.33075 4.81976 5.74842 5.31573 5.25986C5.81171 4.77129 6.3999 4.38625 7.04608 4.12715C7.69104 3.86853 8.38092 3.74053 9.07571 3.75055C10.3721 3.78471 11.6114 4.29125 12.5607 5.175C13.5101 6.05892 14.1038 7.25924 14.2302 8.55017C14.3085 9.43694 14.1598 10.3291 13.7981 11.1425C13.4359 11.9569 12.8721 12.6655 12.16 13.2014L12.1465 13.2118C11.0905 14.0447 10.3936 15.2502 10.1986 16.5806C10.0932 17.1623 9.83121 17.7043 9.44062 18.1483C9.04757 18.595 8.53943 18.9252 7.97158 19.103C7.40372 19.2808 6.79796 19.2993 6.22034 19.1564C5.64271 19.0135 5.11539 18.7149 4.69586 18.2929C4.40382 17.9992 3.92894 17.9978 3.63521 18.2898C3.34147 18.5819 3.34009 19.0567 3.63214 19.3505C4.2453 19.9672 5.016 20.4037 5.86022 20.6125C6.70445 20.8213 7.58979 20.7943 8.41972 20.5345C9.24966 20.2747 9.99234 19.792 10.5668 19.1391C11.1412 18.4862 11.5254 17.6881 11.6775 16.8318C11.6789 16.8238 11.6802 16.8157 11.6813 16.8076C11.8185 15.8553 12.3153 14.9917 13.0693 14.3944C13.9817 13.7058 14.7041 12.7966 15.1686 11.752C15.6344 10.7047 15.8256 9.55598 15.7241 8.41427L15.7235 8.40804C15.5623 6.75157 14.8009 5.21123 13.5828 4.07715C12.3647 2.94308 10.774 2.29356 9.11021 2.25094L9.10237 2.25078Z" fill="currentColor"/>
<path d="M19.7582 4.84235C20.1286 4.6569 20.5792 4.80682 20.7646 5.1772C21.423 6.49213 21.7658 7.94243 21.7658 9.41298C21.7658 10.8835 21.423 12.3338 20.7646 13.6488C20.5792 14.0191 20.1286 14.1691 19.7582 13.9836C19.3878 13.7982 19.2379 13.3476 19.4233 12.9772C19.9773 11.8707 20.2658 10.6504 20.2658 9.41298C20.2658 8.17558 19.9773 6.95522 19.4233 5.84876C19.2379 5.47838 19.3878 5.02779 19.7582 4.84235Z" fill="currentColor"/>
<path d="M17.2283 5.96985C17.6095 5.80768 18.0499 5.9852 18.2121 6.36635C18.6216 7.32881 18.8327 8.36402 18.8327 9.40998C18.8327 10.4559 18.6216 11.4912 18.2121 12.4536C18.0499 12.8348 17.6095 13.0123 17.2283 12.8501C16.8472 12.6879 16.6697 12.2475 16.8319 11.8663C17.1623 11.0896 17.3327 10.2541 17.3327 9.40998C17.3327 8.56584 17.1623 7.73038 16.8319 6.95362C16.6697 6.57247 16.8472 6.13203 17.2283 5.96985Z" fill="currentColor"/>
<path d="M8.99998 12.25C9.4142 12.25 9.74998 12.5858 9.74998 13C9.74998 14.078 9.05001 15.0474 8.12788 15.5853C7.17694 16.1401 5.90873 16.2929 4.66457 15.6708C4.29409 15.4856 4.14392 15.0351 4.32916 14.6646C4.5144 14.2941 4.96491 14.1439 5.33539 14.3292C6.09123 14.7071 6.82302 14.6099 7.37208 14.2897C7.94995 13.9526 8.24998 13.422 8.24998 13C8.24998 12.5858 8.58577 12.25 8.99998 12.25Z" fill="currentColor"/>
<path d="M8.77946 6.76084C9.14769 6.72457 9.51919 6.77967 9.86104 6.92127C10.2029 7.06287 10.5045 7.28659 10.7393 7.57262C10.974 7.85864 11.1346 8.19814 11.2068 8.56105C11.279 8.92395 11.2605 9.29906 11.1531 9.65314C11.0457 10.0072 10.8526 10.3294 10.591 10.591C10.2981 10.8839 10.2981 11.3588 10.591 11.6517C10.8839 11.9445 11.3588 11.9445 11.6517 11.6517C12.0877 11.2156 12.4095 10.6787 12.5885 10.0886C12.7675 9.49843 12.7983 8.87325 12.6779 8.26841C12.5576 7.66357 12.29 7.09773 11.8988 6.62103C11.5076 6.14432 11.0048 5.77145 10.4351 5.53545C9.86531 5.29946 9.24616 5.20761 8.63244 5.26806C8.01871 5.3285 7.42937 5.53937 6.91661 5.88199C6.40385 6.22461 5.9835 6.68839 5.6928 7.23226C5.40209 7.77614 5.25 8.38331 5.25 9V12C5.25 12.4142 5.58579 12.75 6 12.75C6.41421 12.75 6.75 12.4142 6.75 12V9C6.75 8.62999 6.84125 8.26568 7.01568 7.93936C7.1901 7.61303 7.44231 7.33476 7.74997 7.12919C8.05762 6.92362 8.41123 6.7971 8.77946 6.76084Z" fill="currentColor"/>
</svg>
