<svg width="24" height="24" viewBox="0 0 24 24" fill="none" xmlns="http://www.w3.org/2000/svg">
<path fill-rule="evenodd" clip-rule="evenodd" d="M12 3.75C7.44365 3.75 3.75 7.44365 3.75 12C3.75 16.5563 7.44365 20.25 12 20.25C16.5563 20.25 20.25 16.5563 20.25 12C20.25 7.44365 16.5563 3.75 12 3.75ZM2.25 12C2.25 6.61522 6.61522 2.25 12 2.25C17.3848 2.25 21.75 6.61522 21.75 12C21.75 17.3848 17.3848 21.75 12 21.75C6.61522 21.75 2.25 17.3848 2.25 12Z" fill="currentColor"/>
<path d="M9 12C9 12.8284 8.32843 13.5 7.5 13.5C6.67157 13.5 6 12.8284 6 12C6 11.1716 6.67157 10.5 7.5 10.5C8.32843 10.5 9 11.1716 9 12Z" fill="currentColor"/>
<path d="M18 12C18 12.8284 17.3284 13.5 16.5 13.5C15.6716 13.5 15 12.8284 15 12C15 11.1716 15.6716 10.5 16.5 10.5C17.3284 10.5 18 11.1716 18 12Z" fill="currentColor"/>
<path fill-rule="evenodd" clip-rule="evenodd" d="M14.4702 17.5308C14.4702 17.5308 14.4702 17.5308 14.4702 17.5308L14.4716 17.5322L14.4731 17.5338L14.4752 17.5358C14.4757 17.5363 14.4759 17.5365 14.476 17.5365C14.476 17.5365 14.4764 17.5369 14.476 17.5365C14.4759 17.5365 14.4757 17.5363 14.4752 17.5358C14.4734 17.5341 14.468 17.5292 14.4592 17.5215C14.4413 17.5058 14.409 17.4786 14.3625 17.4438C14.2693 17.3739 14.12 17.2735 13.9146 17.1708C13.5063 16.9667 12.8704 16.75 12 16.75C11.1296 16.75 10.4937 16.9667 10.0854 17.1708C9.88004 17.2735 9.73065 17.3739 9.6375 17.4437C9.59097 17.4786 9.55871 17.5058 9.54075 17.5215C9.53197 17.5291 9.52665 17.5341 9.52479 17.5358C9.23148 17.8232 8.76072 17.8214 8.46967 17.5303C8.17678 17.2374 8.17678 16.7626 8.46967 16.4697L9 17C8.46967 16.4697 8.4694 16.4699 8.46967 16.4697L8.47075 16.4686L8.47194 16.4674L8.47459 16.4648L8.48108 16.4585L8.49876 16.4416C8.51264 16.4286 8.53071 16.4121 8.553 16.3926C8.59754 16.3536 8.65903 16.3026 8.7375 16.2437C8.89435 16.1261 9.11996 15.9765 9.41459 15.8292C10.0063 15.5333 10.8704 15.25 12 15.25C13.1296 15.25 13.9937 15.5333 14.5854 15.8292C14.88 15.9765 15.1057 16.1261 15.2625 16.2437C15.341 16.3026 15.4025 16.3536 15.447 16.3926C15.4693 16.4121 15.4874 16.4286 15.5012 16.4416L15.5189 16.4585L15.5254 16.4648L15.5281 16.4674L15.5292 16.4686C15.5295 16.4689 15.5303 16.4697 15 17M14.4702 17.5308C14.4702 17.5308 14.4702 17.5308 14.4702 17.5308V17.5308Z" fill="currentColor"/>
</svg>
