<svg width="24" height="24" viewBox="0 0 24 24" fill="none" xmlns="http://www.w3.org/2000/svg">
<path fill-rule="evenodd" clip-rule="evenodd" d="M12 3.75C7.44365 3.75 3.75 7.44365 3.75 12C3.75 16.5563 7.44365 20.25 12 20.25C16.5563 20.25 20.25 16.5563 20.25 12C20.25 7.44365 16.5563 3.75 12 3.75ZM2.25 12C2.25 6.61522 6.61522 2.25 12 2.25C17.3848 2.25 21.75 6.61522 21.75 12C21.75 17.3848 17.3848 21.75 12 21.75C6.61522 21.75 2.25 17.3848 2.25 12Z" fill="currentColor"/>
<path d="M9 12C9 12.8284 8.32843 13.5 7.5 13.5C6.67157 13.5 6 12.8284 6 12C6 11.1716 6.67157 10.5 7.5 10.5C8.32843 10.5 9 11.1716 9 12Z" fill="currentColor"/>
<path d="M18 12C18 12.8284 17.3284 13.5 16.5 13.5C15.6716 13.5 15 12.8284 15 12C15 11.1716 15.6716 10.5 16.5 10.5C17.3284 10.5 18 11.1716 18 12Z" fill="currentColor"/>
<path fill-rule="evenodd" clip-rule="evenodd" d="M9.52982 15.4692C9.52982 15.4692 9.52982 15.4692 9.52982 15.4692L9.52843 15.4678L9.52687 15.4662L9.52478 15.4642C9.52474 15.4642 9.52481 15.4642 9.52478 15.4642C9.52663 15.4659 9.53196 15.4708 9.54075 15.4785C9.55871 15.4942 9.59097 15.5214 9.6375 15.5562C9.73065 15.6261 9.88004 15.7265 10.0854 15.8292C10.4937 16.0333 11.1296 16.25 12 16.25C12.8704 16.25 13.5063 16.0333 13.9146 15.8292C14.12 15.7265 14.2693 15.6261 14.3625 15.5562C14.409 15.5214 14.4413 15.4942 14.4592 15.4785C14.468 15.4709 14.4733 15.4659 14.4752 15.4642C14.7685 15.1768 15.2393 15.1786 15.5303 15.4697C15.8232 15.7626 15.8232 16.2374 15.5303 16.5303L15 16C15.5303 16.5303 15.5306 16.5301 15.5303 16.5303L15.5292 16.5314L15.5281 16.5326L15.5254 16.5352L15.5189 16.5415L15.5012 16.5584C15.4874 16.5714 15.4693 16.5879 15.447 16.6074C15.4025 16.6464 15.341 16.6974 15.2625 16.7563C15.1057 16.8739 14.88 17.0235 14.5854 17.1708C13.9937 17.4667 13.1296 17.75 12 17.75C10.8704 17.75 10.0063 17.4667 9.41459 17.1708C9.11996 17.0235 8.89435 16.8739 8.7375 16.7563C8.65903 16.6974 8.59754 16.6464 8.553 16.6074C8.53071 16.5879 8.51264 16.5714 8.49876 16.5584L8.48108 16.5415L8.47459 16.5352L8.47194 16.5326L8.47075 16.5314C8.47049 16.5311 8.46967 16.5303 9 16M9.52982 15.4692C9.52982 15.4692 9.52982 15.4692 9.52982 15.4692V15.4692Z" fill="currentColor"/>
</svg>
