<svg width="24" height="24" viewBox="0 0 24 24" fill="none" xmlns="http://www.w3.org/2000/svg">
<g clip-path="url(#clip0_1824_449)">
<path fill-rule="evenodd" clip-rule="evenodd" d="M9.5 5.25C9.91421 5.25 10.25 5.58579 10.25 6V7.368C10.25 7.78221 9.91421 8.118 9.5 8.118C9.08579 8.118 8.75 7.78221 8.75 7.368V6C8.75 5.58579 9.08579 5.25 9.5 5.25Z" fill="currentColor"/>
<path fill-rule="evenodd" clip-rule="evenodd" d="M6.5 5.25C6.91421 5.25 7.25 5.58579 7.25 6V7.368C7.25 7.78221 6.91421 8.118 6.5 8.118C6.08579 8.118 5.75 7.78221 5.75 7.368V6C5.75 5.58579 6.08579 5.25 6.5 5.25Z" fill="currentColor"/>
<path fill-rule="evenodd" clip-rule="evenodd" d="M10.4862 9.38732C10.861 9.56361 11.022 10.0104 10.8457 10.3852C10.5912 10.9262 10.1846 11.3812 9.67548 11.6946C9.17227 12.0044 8.59058 12.1625 8.00009 12.1502C7.41037 12.1626 6.82934 12.0052 6.32637 11.6965C5.81751 11.3842 5.41054 10.9305 5.1551 10.3909C4.97789 10.0165 5.13774 9.56931 5.51214 9.3921C5.88653 9.21489 6.33369 9.37474 6.5109 9.74914C6.64177 10.0256 6.85029 10.2581 7.111 10.4181C7.37172 10.5781 7.67338 10.6588 7.97917 10.6503C7.99299 10.6499 8.00683 10.6499 8.02065 10.6503C8.32665 10.6587 8.62846 10.5777 8.88913 10.4173C9.14981 10.2568 9.35804 10.0238 9.48832 9.74679C9.66461 9.37197 10.1114 9.21103 10.4862 9.38732Z" fill="currentColor"/>
<path fill-rule="evenodd" clip-rule="evenodd" d="M8 2.25C4.82436 2.25 2.25 4.82436 2.25 8C2.25 11.1756 4.82436 13.75 8 13.75C11.1756 13.75 13.75 11.1756 13.75 8C13.75 4.82436 11.1756 2.25 8 2.25ZM0.75 8C0.75 3.99594 3.99594 0.75 8 0.75C12.0041 0.75 15.25 3.99594 15.25 8C15.25 12.0041 12.0041 15.25 8 15.25C3.99594 15.25 0.75 12.0041 0.75 8Z" fill="currentColor"/>
<path fill-rule="evenodd" clip-rule="evenodd" d="M17.5 13.25C17.9142 13.25 18.25 13.5858 18.25 14V15.368C18.25 15.7822 17.9142 16.118 17.5 16.118C17.0858 16.118 16.75 15.7822 16.75 15.368V14C16.75 13.5858 17.0858 13.25 17.5 13.25Z" fill="currentColor"/>
<path fill-rule="evenodd" clip-rule="evenodd" d="M14.5 13.25C14.9142 13.25 15.25 13.5858 15.25 14V15.368C15.25 15.7822 14.9142 16.118 14.5 16.118C14.0858 16.118 13.75 15.7822 13.75 15.368V14C13.75 13.5858 14.0858 13.25 14.5 13.25Z" fill="currentColor"/>
<path fill-rule="evenodd" clip-rule="evenodd" d="M14.334 17.7874C14.8348 17.479 15.4114 17.3157 15.9995 17.3157C16.5876 17.3157 17.1642 17.479 17.665 17.7874C18.1658 18.0958 18.5711 18.5373 18.8358 19.0625C19.0222 19.4324 18.8734 19.8834 18.5035 20.0698C18.1336 20.2562 17.6826 20.1074 17.4962 19.7375C17.3566 19.4603 17.1427 19.2274 16.8784 19.0646C16.6141 18.9019 16.3099 18.8157 15.9995 18.8157C15.6891 18.8157 15.3849 18.9019 15.1206 19.0646C14.8563 19.2274 14.6424 19.4603 14.5028 19.7375C14.3164 20.1074 13.8654 20.2562 13.4955 20.0698C13.1256 19.8834 12.9768 19.4324 13.1632 19.0625C13.4279 18.5373 13.8332 18.0958 14.334 17.7874Z" fill="currentColor"/>
<path fill-rule="evenodd" clip-rule="evenodd" d="M16.2589 9.46205C16.3227 9.05277 16.7061 8.77263 17.1154 8.83635C18.2312 9.01007 19.295 9.44273 20.2193 10.1043C21.364 10.9234 22.2454 12.058 22.7561 13.3697C23.2668 14.6814 23.3846 16.1133 23.0952 17.4908C22.8058 18.8683 22.1216 20.1317 21.1262 21.127C20.1309 22.1222 18.8673 22.8061 17.4898 23.0954C16.1123 23.3846 14.6803 23.2666 13.3687 22.7557C12.0572 22.2448 10.9227 21.3632 10.1037 20.2184C9.4425 19.2942 9.01006 18.2308 8.8364 17.1154C8.77268 16.7061 9.05281 16.3227 9.46209 16.2589C9.87138 16.1952 10.2548 16.4754 10.3185 16.8846C10.4563 17.7693 10.7993 18.6127 11.3236 19.3457C11.9732 20.2536 12.8729 20.9528 13.9132 21.358C14.9534 21.7631 16.0891 21.8567 17.1816 21.6274C18.2741 21.398 19.2762 20.8555 20.0657 20.0662C20.8551 19.2769 21.3977 18.2749 21.6272 17.1824C21.8568 16.0899 21.7633 14.9542 21.3583 13.9139C20.9533 12.8736 20.2542 11.9737 19.3464 11.3241C18.6133 10.7994 17.7696 10.4563 16.8846 10.3185C16.4754 10.2548 16.1952 9.87133 16.2589 9.46205Z" fill="currentColor"/>
</g>
<defs>
<clipPath id="clip0_1824_449">
<rect width="24" height="24" fill="white"/>
</clipPath>
</defs>
</svg>
