<svg width="24" height="24" viewBox="0 0 24 24" fill="none" xmlns="http://www.w3.org/2000/svg">
<path fill-rule="evenodd" clip-rule="evenodd" d="M4.25 3.75C4.25 2.92157 4.92157 2.25 5.75 2.25H14.6893C15.0872 2.25 15.4687 2.40803 15.75 2.68934L19.3107 6.25C19.592 6.5313 19.75 6.91284 19.75 7.31066V11C19.75 11.4142 19.4142 11.75 19 11.75C18.5858 11.75 18.25 11.4142 18.25 11V7.31066L14.6893 3.75L5.75 3.75V20.25H12C12.4142 20.25 12.75 20.5858 12.75 21C12.75 21.4142 12.4142 21.75 12 21.75H5.75C4.92157 21.75 4.25 21.0784 4.25 20.25V3.75Z" fill="currentColor"/>
<path fill-rule="evenodd" clip-rule="evenodd" d="M17 14.75C15.7574 14.75 14.75 15.7574 14.75 17C14.75 18.2426 15.7574 19.25 17 19.25C18.2426 19.25 19.25 18.2426 19.25 17C19.25 15.7574 18.2426 14.75 17 14.75ZM13.25 17C13.25 14.9289 14.9289 13.25 17 13.25C19.0711 13.25 20.75 14.9289 20.75 17C20.75 19.0711 19.0711 20.75 17 20.75C14.9289 20.75 13.25 19.0711 13.25 17Z" fill="currentColor"/>
<path fill-rule="evenodd" clip-rule="evenodd" d="M18.9697 18.9697C19.2626 18.6768 19.7374 18.6768 20.0303 18.9697L22.0303 20.9697C22.3232 21.2626 22.3232 21.7374 22.0303 22.0303C21.7374 22.3232 21.2626 22.3232 20.9697 22.0303L18.9697 20.0303C18.6768 19.7374 18.6768 19.2626 18.9697 18.9697Z" fill="currentColor"/>
<path fill-rule="evenodd" clip-rule="evenodd" d="M7.25 10C7.25 9.58579 7.58579 9.25 8 9.25H16C16.4142 9.25 16.75 9.58579 16.75 10C16.75 10.4142 16.4142 10.75 16 10.75H8C7.58579 10.75 7.25 10.4142 7.25 10Z" fill="currentColor"/>
<path fill-rule="evenodd" clip-rule="evenodd" d="M7.25 13C7.25 12.5858 7.58579 12.25 8 12.25H12C12.4142 12.25 12.75 12.5858 12.75 13C12.75 13.4142 12.4142 13.75 12 13.75H8C7.58579 13.75 7.25 13.4142 7.25 13Z" fill="currentColor"/>
<path fill-rule="evenodd" clip-rule="evenodd" d="M7.25 16C7.25 15.5858 7.58579 15.25 8 15.25H11C11.4142 15.25 11.75 15.5858 11.75 16C11.75 16.4142 11.4142 16.75 11 16.75H8C7.58579 16.75 7.25 16.4142 7.25 16Z" fill="currentColor"/>
</svg>
