<svg width="24" height="24" viewBox="0 0 24 24" fill="none" xmlns="http://www.w3.org/2000/svg">
<path fill-rule="evenodd" clip-rule="evenodd" d="M4.25 3.75C4.25 2.92157 4.92157 2.25 5.75 2.25H14.6893C15.0872 2.25 15.4687 2.40803 15.75 2.68934L19.3107 6.25C19.592 6.5313 19.75 6.91284 19.75 7.31066V20.25C19.75 21.0784 19.0784 21.75 18.25 21.75H5.75C4.92157 21.75 4.25 21.0784 4.25 20.25V3.75ZM14.6893 3.75L5.75 3.75V20.25H18.25V7.31066L14.6893 3.75Z" fill="currentColor"/>
<path fill-rule="evenodd" clip-rule="evenodd" d="M7.25 10C7.25 9.58579 7.58579 9.25 8 9.25H16C16.4142 9.25 16.75 9.58579 16.75 10C16.75 10.4142 16.4142 10.75 16 10.75H8C7.58579 10.75 7.25 10.4142 7.25 10Z" fill="currentColor"/>
<path fill-rule="evenodd" clip-rule="evenodd" d="M7.25 13C7.25 12.5858 7.58579 12.25 8 12.25H16C16.4142 12.25 16.75 12.5858 16.75 13C16.75 13.4142 16.4142 13.75 16 13.75H8C7.58579 13.75 7.25 13.4142 7.25 13Z" fill="currentColor"/>
<path fill-rule="evenodd" clip-rule="evenodd" d="M7.25 16C7.25 15.5858 7.58579 15.25 8 15.25H13C13.4142 15.25 13.75 15.5858 13.75 16C13.75 16.4142 13.4142 16.75 13 16.75H8C7.58579 16.75 7.25 16.4142 7.25 16Z" fill="currentColor"/>
</svg>
