<svg width="24" height="24" viewBox="0 0 24 24" fill="none" xmlns="http://www.w3.org/2000/svg">
<path d="M5.75 2.25C4.92157 2.25 4.25 2.92157 4.25 3.75V20.25C4.25 21.0784 4.92157 21.75 5.75 21.75H10.5C10.9142 21.75 11.25 21.4142 11.25 21C11.25 20.5858 10.9142 20.25 10.5 20.25H5.75V3.75L14.6893 3.75L18.25 7.31066V11C18.25 11.4142 18.5858 11.75 19 11.75C19.4142 11.75 19.75 11.4142 19.75 11V7.31066C19.75 6.91284 19.592 6.5313 19.3107 6.25L15.75 2.68934C15.4687 2.40803 15.0872 2.25 14.6893 2.25H5.75Z" fill="currentColor"/>
<path d="M13.75 18C13.75 16.2051 15.2051 14.75 17 14.75C17.9211 14.75 18.7533 15.133 19.3453 15.75H18C17.5858 15.75 17.25 16.0858 17.25 16.5C17.25 16.9142 17.5858 17.25 18 17.25H21C21.4142 17.25 21.75 16.9142 21.75 16.5V13.5C21.75 13.0858 21.4142 12.75 21 12.75C20.5858 12.75 20.25 13.0858 20.25 13.5V14.536C19.4008 13.739 18.2577 13.25 17 13.25C14.3766 13.25 12.25 15.3766 12.25 18C12.25 20.6234 14.3766 22.75 17 22.75C18.4188 22.75 19.693 22.127 20.5623 21.1421C20.8364 20.8316 20.8069 20.3576 20.4963 20.0835C20.1857 19.8094 19.7118 19.839 19.4377 20.1495C18.8411 20.8255 17.9706 21.25 17 21.25C15.2051 21.25 13.75 19.7949 13.75 18Z" fill="currentColor"/>
<path fill-rule="evenodd" clip-rule="evenodd" d="M10.0761 9.07606C10.0847 9.06745 10.0934 9.05909 10.1024 9.05098L12.1497 7.00566C12.3892 6.76609 12.6737 6.57605 12.9867 6.44639C13.2997 6.31673 13.6352 6.25 13.974 6.25C14.3128 6.25 14.6483 6.31673 14.9613 6.44639C15.2743 6.57605 15.5587 6.76609 15.7983 7.00566C16.0379 7.24524 16.2279 7.52965 16.3576 7.84267C16.4873 8.15569 16.554 8.49118 16.554 8.82999C16.554 9.1688 16.4873 9.50429 16.3576 9.81731C16.2279 10.1303 16.0376 10.415 15.7981 10.6546L11.6541 14.7946C11.1702 15.2783 10.5141 15.55 9.82999 15.55C9.14574 15.55 8.4895 15.2782 8.00566 14.7943C7.52182 14.3105 7.25 13.6542 7.25 12.97C7.25 12.2857 7.52208 11.6292 8.00592 11.1454L10.0515 9.10182C10.0594 9.09309 10.0676 9.0845 10.0761 9.07606ZM13.5607 7.83221C13.6917 7.77793 13.8322 7.75 13.974 7.75C14.1158 7.75 14.2563 7.77794 14.3873 7.83221C14.5183 7.88648 14.6374 7.96604 14.7377 8.06632C14.8379 8.16661 14.9175 8.28567 14.9718 8.4167C15.026 8.54773 15.054 8.68816 15.054 8.82999C15.054 8.97182 15.026 9.11226 14.9718 9.24329C14.9175 9.37421 14.8378 9.49343 14.7377 9.59366L13.1952 11.1346L11.6679 9.60725L13.2103 8.06632C13.3106 7.96604 13.4297 7.88648 13.5607 7.83221ZM10.6067 10.6674L12.1341 12.1947L10.5937 13.7337C10.3911 13.9362 10.1164 14.05 9.82999 14.05C9.54356 14.05 9.26886 13.9362 9.06632 13.7337C8.86378 13.5311 8.75 13.2564 8.75 12.97C8.75 12.6836 8.86378 12.4089 9.06632 12.2063L10.6067 10.6674Z" fill="currentColor"/>
</svg>
