<svg width="24" height="24" viewBox="0 0 24 24" fill="none" xmlns="http://www.w3.org/2000/svg">
<path fill-rule="evenodd" clip-rule="evenodd" d="M10 2.75C9.84529 2.75 9.69691 2.81146 9.58752 2.92085C9.47812 3.03025 9.41666 3.17862 9.41666 3.33333V15.3333C9.41666 15.488 9.47812 15.6364 9.58752 15.7458C9.69691 15.8552 9.84529 15.9167 10 15.9167H19.3333C19.488 15.9167 19.6364 15.8552 19.7458 15.7458C19.8552 15.6364 19.9167 15.488 19.9167 15.3333V5.88549C19.9166 5.73103 19.8553 5.58274 19.7461 5.47344M19.7461 5.47344L17.1934 2.92072C17.0841 2.81158 16.9358 2.75008 16.7813 2.75H10M8.52686 1.86019C8.91756 1.46949 9.44746 1.25 10 1.25H16.7813C17.3335 1.25012 17.8632 1.46942 18.2537 1.85972L20.8068 4.41278C21.1971 4.80333 21.4165 5.33302 21.4167 5.88517V15.3333C21.4167 15.8859 21.1972 16.4158 20.8065 16.8065C20.4158 17.1972 19.8859 17.4167 19.3333 17.4167H10C9.44746 17.4167 8.91756 17.1972 8.52686 16.8065C8.13615 16.4158 7.91666 15.8859 7.91666 15.3333V3.33333C7.91666 2.7808 8.13615 2.2509 8.52686 1.86019ZM6 2.58333C6.41421 2.58333 6.75 2.91912 6.75 3.33333V18C6.75 18.1547 6.81145 18.3031 6.92085 18.4125C7.03025 18.5219 7.17862 18.5833 7.33333 18.5833H19.3333C19.7475 18.5833 20.0833 18.9191 20.0833 19.3333C20.0833 19.7475 19.7475 20.0833 19.3333 20.0833H7.33333C6.78079 20.0833 6.25089 19.8638 5.86019 19.4731C5.46949 19.0824 5.25 18.5525 5.25 18V3.33333C5.25 2.91912 5.58578 2.58333 6 2.58333ZM3.33333 5.25C3.74754 5.25 4.08333 5.58579 4.08333 6V20.6667C4.08333 20.8214 4.14479 20.9697 4.25418 21.0791C4.36358 21.1885 4.51195 21.25 4.66666 21.25H16.6667C17.0809 21.25 17.4167 21.5858 17.4167 22C17.4167 22.4142 17.0809 22.75 16.6667 22.75H4.66666C4.11413 22.75 3.58422 22.5305 3.19352 22.1398C2.80282 21.7491 2.58333 21.2192 2.58333 20.6667V6C2.58333 5.58579 2.91911 5.25 3.33333 5.25Z" fill="currentColor"/>
</svg>
