<svg width="24" height="24" viewBox="0 0 24 24" fill="none" xmlns="http://www.w3.org/2000/svg">
<path d="M10.7999 21.7448C10.7337 21.7553 10.6662 21.7553 10.5999 21.7448C10.4414 21.7027 10.3014 21.6091 10.2019 21.4788C10.1023 21.3485 10.0489 21.1888 10.0499 21.0248V14.5448H7.99994C7.71857 14.5431 7.44262 14.4672 7.19994 14.3248C6.96287 14.1841 6.76645 13.9843 6.62994 13.7448C6.49034 13.5018 6.42109 13.2248 6.42994 12.9448C6.43994 12.6665 6.51897 12.395 6.65994 12.1548L12.5399 2.60478C12.6252 2.46606 12.7532 2.35883 12.9047 2.2993C13.0563 2.23976 13.2231 2.23116 13.3799 2.27478C13.5514 2.30294 13.7074 2.3905 13.8208 2.52213C13.9341 2.65377 13.9975 2.82109 13.9999 2.99478V9.44478H15.9999C16.2819 9.44198 16.559 9.51819 16.7999 9.66478C17.0421 9.80337 17.2398 10.008 17.3699 10.2548C17.5102 10.4938 17.5796 10.7678 17.5699 11.0448C17.5599 11.3231 17.4809 11.5946 17.3399 11.8348L11.4599 21.3848C11.3921 21.4983 11.2951 21.5915 11.1791 21.6548C11.063 21.7182 10.9321 21.7492 10.7999 21.7448ZM12.4499 5.64478L7.99994 12.9948L8.05994 13.0948H10.7999C10.998 13.0974 11.1873 13.1772 11.3274 13.3173C11.4675 13.4574 11.5473 13.6467 11.5499 13.8448V18.3948L15.9999 11.0448L13.1999 10.9948C13.0018 10.9922 12.8126 10.9123 12.6725 10.7722C12.5324 10.6322 12.4525 10.4429 12.4499 10.2448V5.64478Z" fill="currentColor"/>
</svg>
