<svg width="24" height="24" viewBox="0 0 24 24" fill="none" xmlns="http://www.w3.org/2000/svg">
<path fill-rule="evenodd" clip-rule="evenodd" d="M10.5935 21.7216C10.2707 21.6301 10.0479 21.3355 10.0479 21L10.0479 14.5371H7.99289C7.9749 14.5371 7.95691 14.5365 7.93896 14.5352C7.65321 14.5146 7.37873 14.4153 7.14597 14.2482C6.926 14.0904 6.7514 13.8779 6.63919 13.632C6.51795 13.4065 6.45431 13.1541 6.45431 12.8976C6.45431 12.6252 6.526 12.3577 6.66216 12.1218C6.66631 12.1147 6.67058 12.1075 6.67497 12.1005L8.35577 9.40041L3.65578 4.70042C3.36289 4.40752 3.36289 3.93265 3.65578 3.63976C3.94867 3.34686 4.42355 3.34686 4.71644 3.63976L9.82542 8.74874C9.83403 8.75694 9.84241 8.76533 9.85056 8.77388L15.2109 14.1342C15.2196 14.1425 15.228 14.1509 15.2362 14.1595L20.3442 19.2675C20.6371 19.5604 20.6371 20.0353 20.3442 20.3282C20.0513 20.6211 19.5765 20.6211 19.2836 20.3282L14.8336 15.8782L11.4365 21.3933C11.2605 21.679 10.9163 21.813 10.5935 21.7216ZM13.7434 14.788L9.44476 10.4894L7.9589 12.8763C7.95588 12.883 7.95431 12.8902 7.95431 12.8976C7.95431 12.9066 7.95669 12.9155 7.9612 12.9233C7.97693 12.9505 7.99093 12.9787 8.00311 13.0077C8.00679 13.0165 8.01282 13.024 8.02054 13.0296C8.02527 13.033 8.03052 13.0355 8.03606 13.0371L10.7979 13.0371C11.2121 13.0371 11.5479 13.3729 11.5479 13.7871L11.5479 18.3523L13.7434 14.788ZM15.6128 13.223C15.2605 13.0053 15.1514 12.5431 15.3692 12.1907L16.073 11.052C16.0761 11.0452 16.0778 11.0378 16.0778 11.0303C16.0778 11.0213 16.0754 11.0124 16.0709 11.0046L16.0624 10.9895C16.0579 10.9813 16.0513 10.9745 16.0433 10.9698C16.0352 10.9651 16.026 10.9627 16.0167 10.9628L16.0071 10.9629L13.2022 10.9628C12.7879 10.9628 12.4522 10.627 12.4522 10.2128V5.63313L11.251 7.57062C11.0327 7.92266 10.5704 8.03112 10.2184 7.81287C9.86632 7.59461 9.75786 7.13229 9.97612 6.78024L12.5647 2.60482C12.7413 2.32002 13.0853 2.1869 13.4076 2.27869C13.7299 2.37048 13.9522 2.66492 13.9522 3L13.9522 9.46283H16.0031C16.283 9.46027 16.5583 9.53345 16.8 9.67465C17.0407 9.81533 17.2391 10.0183 17.3742 10.2621C17.5076 10.4961 17.5778 10.7608 17.5778 11.0303C17.5778 11.3026 17.5061 11.5702 17.3699 11.806C17.3662 11.8125 17.3623 11.8189 17.3584 11.8253L16.6451 12.9794C16.4274 13.3317 15.9652 13.4408 15.6128 13.223Z" fill="currentColor"/>
</svg>
