<svg width="24" height="24" viewBox="0 0 24 24" fill="none" xmlns="http://www.w3.org/2000/svg">
<path d="M13 11.5H15V13.5H17V15.5H15V17.5H13V15.5H11V13.5H13V11.5Z" fill="currentColor"/>
<path fill-rule="evenodd" clip-rule="evenodd" d="M4 4.75C3.86193 4.75 3.75 4.86193 3.75 5V18C3.75 18.6904 4.30964 19.25 5 19.25C5.69036 19.25 6.25 18.6904 6.25 18V10C6.25 9.0335 7.0335 8.25 8 8.25H20C20.9665 8.25 21.75 9.0335 21.75 10V18C21.75 19.5188 20.5188 20.75 19 20.75H5C3.48122 20.75 2.25 19.5188 2.25 18V5C2.25 4.0335 3.0335 3.25 4 3.25H9C9.9665 3.25 10.75 4.0335 10.75 5C10.75 5.13807 10.8619 5.25 11 5.25H19C19.4142 5.25 19.75 5.58579 19.75 6C19.75 6.41421 19.4142 6.75 19 6.75H11C10.0335 6.75 9.25 5.9665 9.25 5C9.25 4.86193 9.13807 4.75 9 4.75H4ZM7.45015 19.25H19C19.6904 19.25 20.25 18.6904 20.25 18V10C20.25 9.86193 20.1381 9.75 20 9.75H8C7.86193 9.75 7.75 9.86193 7.75 10V18C7.75 18.4501 7.64186 18.875 7.45015 19.25Z" fill="currentColor"/>
</svg>
