<svg width="24" height="24" viewBox="0 0 24 24" fill="none" xmlns="http://www.w3.org/2000/svg">
<path fill-rule="evenodd" clip-rule="evenodd" d="M10.7639 2.55578C11.1777 2.53697 11.5284 2.85716 11.5472 3.27094C11.6833 6.26524 11.936 8.45479 12.1257 10.0984C12.2043 10.7789 12.272 11.3658 12.3162 11.8775L12.3165 11.8807C12.3743 12.5855 12.6933 13.2432 13.2109 13.725L13.2159 13.7296C14.3784 14.8314 15.6689 15.7896 17.0598 16.5837L17.0621 16.585C17.9389 17.0896 18.9125 17.4027 19.919 17.5039C20.1939 17.5258 20.4593 17.6141 20.6925 17.7614C20.9289 17.9108 21.1249 18.1162 21.263 18.3594C21.4012 18.6026 21.4772 18.8761 21.4844 19.1557C21.4912 19.4171 21.4375 19.6764 21.328 19.9133C21.1038 20.5363 20.6854 21.0713 20.1338 21.4389C19.5692 21.8153 18.8965 21.9953 18.2194 21.9514C18.1948 21.9498 18.1703 21.947 18.1459 21.943C17.1034 21.771 16.1779 21.5753 15.3911 21.4089C15.3143 21.3927 15.2389 21.3768 15.1647 21.3611C14.312 21.1813 13.6753 21.0542 13.2021 21.0201L13.201 21.02C11.507 20.8955 9.80513 21.1106 8.19535 21.6528C8.18239 21.6571 8.16931 21.6612 8.15613 21.6648C7.18493 21.9337 6.08454 21.9143 5.30514 21.2715C4.47313 20.5852 4.29631 19.4448 4.65767 18.1267C4.66647 18.0946 4.67741 18.0631 4.69039 18.0325C5.75165 15.5273 5.8248 12.7132 4.89513 10.1563L4.89138 10.146C4.39354 8.71175 3.87365 7.13694 3.47863 5.92234C3.281 5.31468 3.1144 4.79641 2.99719 4.42997C2.93857 4.24673 2.89229 4.10143 2.86064 4.00185L2.81208 3.84875C2.68723 3.45379 2.90598 3.03173 3.30093 2.90688C3.69588 2.78204 4.11726 3.00101 4.2421 3.39596L4.29017 3.54748C4.32157 3.64625 4.36756 3.79067 4.42587 3.97295C4.54249 4.33754 4.70834 4.85346 4.90508 5.45842C5.29835 6.66762 5.8141 8.22954 6.30674 9.64896C7.35799 12.5443 7.28092 15.7287 6.09198 18.5691C5.82914 19.5663 6.07562 19.9626 6.25957 20.1143C6.49693 20.3101 6.99958 20.4244 7.73723 20.2243C9.53005 19.6236 11.4245 19.3855 13.3104 19.524C13.9061 19.567 14.6507 19.7198 15.4742 19.8934C15.5483 19.909 15.6234 19.9249 15.6994 19.941C16.4779 20.1056 17.3588 20.2918 18.3501 20.4564C18.3389 20.4559 18.3277 20.4553 18.3165 20.4546L18.3501 20.4564L18.3901 20.463C18.3767 20.4608 18.3634 20.4586 18.3501 20.4564C18.6872 20.4711 19.0206 20.3783 19.3019 20.1908C19.5925 19.9971 19.8113 19.7132 19.9245 19.3828C19.9354 19.3509 19.9485 19.3198 19.9636 19.2896C19.9785 19.2601 19.9858 19.2274 19.9849 19.1943C19.9841 19.1613 19.9751 19.129 19.9588 19.1002C19.9424 19.0715 19.9193 19.0472 19.8913 19.0296C19.8634 19.0119 19.8315 19.0014 19.7986 18.999L19.7788 18.9973C18.5586 18.8761 17.3779 18.4972 16.315 17.8857L16.3161 17.8863L16.3139 17.885L16.315 17.8857C14.8212 17.0328 13.4351 16.0037 12.1864 14.8206L12.189 14.823L12.7 14.274L12.1841 14.8184L12.1864 14.8206C11.3969 14.0847 10.9103 13.0807 10.8216 12.005L10.8218 12.0065L11.569 11.942L10.8215 12.0033L10.8216 12.005C10.7822 11.5486 10.7186 10.9967 10.6432 10.3432C10.4527 8.69045 10.1874 6.38814 10.0488 3.33907C10.0299 2.92528 10.3501 2.57459 10.7639 2.55578ZM9.37906 13.3987C9.73017 13.6185 9.83665 14.0813 9.6169 14.4324C9.40964 14.7635 9.30634 15.1492 9.32032 15.5396C9.3343 15.93 9.46492 16.3072 9.69532 16.6227C9.93963 16.9572 9.86652 17.4264 9.53202 17.6707C9.19753 17.915 8.72831 17.8419 8.48401 17.5074C8.07682 16.9499 7.84599 16.2832 7.82128 15.5932C7.79658 14.9033 7.97913 14.2218 8.34541 13.6366C8.56516 13.2855 9.02795 13.179 9.37906 13.3987Z" fill="currentColor"/>
</svg>
