<svg width="24" height="24" viewBox="0 0 24 24" fill="none" xmlns="http://www.w3.org/2000/svg">
<path fill-rule="evenodd" clip-rule="evenodd" d="M9.85712 6.89307C9.60137 6.89307 9.3561 6.99466 9.17526 7.1755C8.99442 7.35634 8.89283 7.60161 8.89283 7.85735V11.2371C8.89283 11.6513 8.55704 11.9871 8.14283 11.9871C7.72862 11.9871 7.39283 11.6513 7.39283 11.2371V8.51187C7.28195 8.54696 7.17164 8.58359 7.0647 8.62164C6.86105 8.69412 6.6895 8.76498 6.56161 8.83114C6.46527 8.88099 6.42708 8.9114 6.42066 8.91557L3.59509 12.5991C3.34299 12.9278 2.87219 12.9898 2.54353 12.7377C2.21487 12.4856 2.15282 12.0148 2.40492 11.6862L5.24464 7.98417C5.42255 7.75246 5.68099 7.59788 5.87235 7.49888C6.08523 7.38874 6.32745 7.29186 6.56178 7.20846C6.91067 7.0843 7.28603 6.97497 7.591 6.88914C7.71338 6.60272 7.89009 6.33935 8.1146 6.11484C8.57675 5.6527 9.20355 5.39307 9.85712 5.39307H19.2857C19.9393 5.39307 20.5661 5.6527 21.0282 6.11484C21.4903 6.57698 21.75 7.20378 21.75 7.85735V13.8574C21.75 14.5109 21.4903 15.1377 21.0282 15.5999C20.5661 16.062 19.9393 16.3216 19.2857 16.3216H11.8326L11.2823 16.7814C11.2588 16.8011 11.234 16.8193 11.2082 16.836C10.8882 17.0425 10.6142 17.3129 10.4034 17.6301L10.4027 17.6312C9.9679 18.2829 9.37898 18.8173 8.68818 19.187C7.99737 19.5566 7.22602 19.75 6.44254 19.7501H3.00001C2.58579 19.7501 2.25001 19.4143 2.25001 19.0001C2.25001 18.5859 2.58579 18.2501 3.00001 18.2501H6.44241C6.97901 18.25 7.50738 18.1175 7.98052 17.8644C8.45368 17.6112 8.85704 17.2452 9.15484 16.7988C9.4709 16.3232 9.87831 15.9171 10.3542 15.6022L11.2782 14.8302C11.3654 14.7349 11.4195 14.6136 11.4319 14.4844C11.4451 14.3465 11.4098 14.2082 11.3321 14.0935C11.2544 13.9787 11.1391 13.8946 11.0061 13.8557C10.874 13.817 10.7327 13.8252 10.6061 13.8789L6.49646 15.6944C6.11757 15.8618 5.67473 15.6903 5.50735 15.3114C5.33997 14.9325 5.51143 14.4897 5.89032 14.3223L10.0112 12.5019C10.459 12.3095 10.9598 12.2792 11.4276 12.4161C11.8954 12.5531 12.3008 12.8488 12.5741 13.2524C12.8474 13.6559 12.9715 14.1421 12.9251 14.6273C12.9188 14.6927 12.9095 14.7575 12.8973 14.8216H19.2857C19.5414 14.8216 19.7867 14.72 19.9675 14.5392C20.1484 14.3584 20.25 14.1131 20.25 13.8574V7.85735C20.25 7.60161 20.1484 7.35634 19.9675 7.1755C19.7867 6.99466 19.5414 6.89307 19.2857 6.89307H9.85712ZM14.5714 8.104C14.9856 8.104 15.3214 8.43979 15.3214 8.854V10.1074H16.5748C16.989 10.1074 17.3248 10.4432 17.3248 10.8574C17.3248 11.2716 16.989 11.6074 16.5748 11.6074H15.3214V12.8608C15.3214 13.2751 14.9856 13.6108 14.5714 13.6108C14.1572 13.6108 13.8214 13.2751 13.8214 12.8608V11.6074H12.568C12.1538 11.6074 11.818 11.2716 11.818 10.8574C11.818 10.4432 12.1538 10.1074 12.568 10.1074H13.8214V8.854C13.8214 8.43979 14.1572 8.104 14.5714 8.104Z" fill="currentColor"/>
</svg>
