<svg width="24" height="24" viewBox="0 0 24 24" fill="none" xmlns="http://www.w3.org/2000/svg">
<path d="M11.2843 2.77632C10.8868 2.74147 10.4869 2.74172 10.0894 2.77705L10.0771 2.77815C9.08359 2.84998 8.12223 3.16103 7.27506 3.68492C6.42788 4.20882 5.72004 4.92992 5.21195 5.78666C4.70386 6.64341 4.4106 7.61037 4.35721 8.60502C4.30381 9.59967 4.49187 10.5925 4.90532 11.4987L4.90678 11.5019C5.16421 12.0732 5.41868 12.5673 5.66791 13.0512C5.77276 13.2548 5.87672 13.4566 5.97953 13.6616C6.31924 14.3388 6.6328 15.0253 6.83997 15.8052C7.2622 17.3946 7.21009 19.2439 6.35429 22.1424C6.237 22.5396 5.81987 22.7666 5.42261 22.6493C5.02535 22.532 4.79839 22.1149 4.91568 21.7176C5.72688 18.9701 5.71677 17.4194 5.39025 16.1903C5.22305 15.5609 4.96455 14.9836 4.63878 14.3342C4.54903 14.1553 4.45285 13.9685 4.35243 13.7735C4.09703 13.2775 3.81411 12.7281 3.53991 12.1197C3.02652 10.9937 2.79303 9.76033 2.85936 8.52462C2.92573 7.28832 3.29023 6.08643 3.92177 5.02153C4.5533 3.95663 5.43312 3.06034 6.48612 2.40916C7.53736 1.75906 8.73005 1.37253 9.96272 1.2824C10.4493 1.23951 10.9388 1.23969 11.4254 1.28295L11.4419 1.2846C13.4871 1.5122 15.3743 2.49284 16.7361 4.03555C18.0968 5.57696 18.8356 7.56924 18.809 9.625V9.95692L20.8074 12.7161C20.9695 12.94 21.0771 13.1988 21.1214 13.4717C21.1656 13.7446 21.1454 14.0241 21.0623 14.2878C20.9793 14.5515 20.8356 14.7921 20.643 14.9904C20.4504 15.1885 20.2142 15.3389 19.9532 15.4294L18.811 15.8264V16.831C18.8109 17.2197 18.7298 17.6042 18.5728 17.9598C18.4158 18.3153 18.1865 18.6343 17.8993 18.8962C17.6122 19.1582 17.2736 19.3573 16.9051 19.4811C16.5367 19.6048 16.1465 19.6504 15.7594 19.6149L14.4269 19.4929C14.3837 19.489 14.3401 19.4954 14.2999 19.5117C14.2596 19.5279 14.2238 19.5536 14.1954 19.5865C14.1671 19.6193 14.147 19.6585 14.1368 19.7007C14.1266 19.7429 14.1266 19.787 14.1368 19.8292L14.619 21.8238C14.7163 22.2264 14.4688 22.6317 14.0662 22.729C13.6636 22.8263 13.2583 22.5788 13.161 22.1762L12.6791 20.1828C12.6126 19.9088 12.6125 19.6228 12.6787 19.3487C12.7448 19.0746 12.8755 18.8202 13.0597 18.6066C13.2439 18.3931 13.4764 18.2266 13.7378 18.1209C13.9993 18.0153 14.2822 17.9735 14.5631 17.9991L15.8963 18.1211C16.0757 18.1376 16.2568 18.1165 16.4276 18.0591C16.5984 18.0018 16.7553 17.9094 16.8884 17.788C17.0215 17.6666 17.1278 17.5188 17.2006 17.354C17.2733 17.1892 17.3109 17.0111 17.311 16.831V15.293C17.311 14.9737 17.5132 14.6894 17.8148 14.5846L19.4608 14.0126C19.5009 13.9987 19.5377 13.9754 19.5673 13.945C19.5968 13.9145 19.6189 13.8776 19.6316 13.8371C19.6444 13.7966 19.6475 13.7537 19.6407 13.7118C19.6339 13.67 19.6174 13.6303 19.5926 13.5959L17.4516 10.6399C17.3589 10.512 17.309 10.358 17.309 10.2V9.60982C17.3319 7.9248 16.7268 6.29159 15.6116 5.02822C14.4982 3.76694 12.9559 2.96443 11.2843 2.77632Z" fill="currentColor"/>
<path d="M12 10V12H9.99998V10H7.99998V8H9.99998V6H12V8H14V10H12Z" fill="currentColor"/>
</svg>
