<svg width="24" height="24" viewBox="0 0 24 24" fill="none" xmlns="http://www.w3.org/2000/svg">
<path d="M10.0894 2.77705C10.4869 2.74172 10.8868 2.74147 11.2843 2.77632C12.9559 2.96443 14.4982 3.76694 15.6116 5.02822C16.7268 6.29159 17.3319 7.9248 17.309 9.60982V10.2C17.309 10.358 17.3589 10.512 17.4516 10.6399L19.5926 13.5959C19.6174 13.6303 19.6339 13.67 19.6407 13.7118C19.6475 13.7537 19.6444 13.7966 19.6316 13.8371C19.6189 13.8776 19.5968 13.9145 19.5673 13.945C19.5377 13.9754 19.5009 13.9987 19.4608 14.0126L17.8148 14.5846C17.5132 14.6894 17.311 14.9737 17.311 15.293V16.831C17.3109 17.0111 17.2733 17.1892 17.2006 17.354C17.1278 17.5188 17.0215 17.6666 16.8884 17.788C16.7553 17.9094 16.5984 18.0018 16.4276 18.0591C16.2568 18.1165 16.0757 18.1376 15.8963 18.1211L14.5631 17.9991C14.2822 17.9735 13.9993 18.0153 13.7378 18.1209C13.4764 18.2266 13.2439 18.3931 13.0597 18.6066C12.8755 18.8202 12.7448 19.0746 12.6787 19.3487C12.6125 19.6228 12.6126 19.9088 12.6791 20.1828L13.161 22.1762C13.2583 22.5788 13.6636 22.8263 14.0662 22.729C14.4688 22.6317 14.7163 22.2264 14.619 21.8238L14.1368 19.8292C14.1266 19.787 14.1266 19.7429 14.1368 19.7007C14.147 19.6585 14.1671 19.6193 14.1954 19.5865C14.2238 19.5536 14.2596 19.5279 14.2999 19.5117C14.3401 19.4954 14.3837 19.489 14.4269 19.4929L15.7594 19.6149C16.1465 19.6504 16.5367 19.6048 16.9051 19.4811C17.2736 19.3573 17.6122 19.1582 17.8993 18.8962C18.1865 18.6343 18.4158 18.3153 18.5728 17.9598C18.7298 17.6042 18.8109 17.2197 18.811 16.831V15.8264L19.9532 15.4294C20.2142 15.3389 20.4504 15.1885 20.643 14.9904C20.8356 14.7921 20.9793 14.5515 21.0623 14.2878C21.1454 14.0241 21.1656 13.7446 21.1214 13.4717C21.0771 13.1988 20.9695 12.94 20.8074 12.7161L18.809 9.95692V9.625C18.8356 7.56924 18.0968 5.57696 16.7361 4.03555C15.3743 2.49284 13.4871 1.5122 11.4419 1.2846L11.4254 1.28295C10.9388 1.23969 10.4493 1.23951 9.96272 1.2824C8.73005 1.37253 7.53736 1.75906 6.48612 2.40916C5.43312 3.06034 4.5533 3.95663 3.92177 5.02153C3.29023 6.08643 2.92573 7.28832 2.85936 8.52462C2.79303 9.76033 3.02652 10.9937 3.53991 12.1197C3.81411 12.7281 4.09694 13.2773 4.35234 13.7733C4.45279 13.9684 4.54901 14.1552 4.63878 14.3342C4.96455 14.9836 5.22305 15.5609 5.39025 16.1903C5.71677 17.4194 5.72688 18.9701 4.91568 21.7176C4.79839 22.1149 5.02535 22.532 5.42261 22.6493C5.81987 22.7666 6.237 22.5396 6.35429 22.1424C7.21009 19.2439 7.2622 17.3946 6.83997 15.8052C6.6328 15.0253 6.31924 14.3388 5.97953 13.6616C5.87671 13.4566 5.77278 13.2548 5.66793 13.0513C5.4187 12.5673 5.16421 12.0732 4.90678 11.5019L4.90532 11.4987C4.49187 10.5925 4.30381 9.59967 4.35721 8.60502C4.4106 7.61037 4.70386 6.64341 5.21195 5.78666C5.72004 4.92992 6.42788 4.20882 7.27506 3.68492C8.12223 3.16103 9.08359 2.84998 10.0771 2.77815L10.0894 2.77705Z" fill="currentColor"/>
<path d="M12.3907 7.04747C12.6494 6.724 12.5969 6.25203 12.2734 5.9933C11.95 5.73458 11.478 5.78706 11.2193 6.11053L8.10228 10.0075C7.92221 10.2327 7.88712 10.5411 8.01202 10.8009C8.13691 11.0608 8.39969 11.226 8.68798 11.226H11.8031L9.66042 13.9034C9.4016 14.2268 9.45395 14.6987 9.77735 14.9576C10.1007 15.2164 10.5727 15.164 10.8315 14.8406L13.9495 10.9446C14.1297 10.7195 14.1649 10.4111 14.04 10.1512C13.9151 9.89129 13.6523 9.726 13.364 9.726H10.2483L12.3907 7.04747Z" fill="currentColor"/>
</svg>
