<svg width="24" height="24" viewBox="0 0 24 24" fill="none" xmlns="http://www.w3.org/2000/svg">
<path fill-rule="evenodd" clip-rule="evenodd" d="M19.4697 6.53033C18.1057 5.16637 15.8943 5.16636 14.5303 6.53032L12.5303 8.53033C12.2374 8.82322 11.7626 8.82322 11.4697 8.53033L9.46966 6.53033C8.1057 5.16637 5.89429 5.16637 4.53032 6.53033C3.16636 7.89429 3.16637 10.1057 4.53033 11.4697L12 18.9393L19.4697 11.4697C20.8336 10.1057 20.8336 7.89429 19.4697 6.53033ZM20.5303 5.46967C18.5806 3.51992 15.4194 3.51992 13.4697 5.46966L12 6.93934L10.5303 5.46967C8.58058 3.51992 5.41941 3.51992 3.46966 5.46967C1.51992 7.41941 1.51992 10.5806 3.46967 12.5303L11.3055 20.3661C11.6891 20.7497 12.3109 20.7497 12.6945 20.3661L20.5303 12.5303C22.4801 10.5806 22.4801 7.41941 20.5303 5.46967Z" fill="currentColor"/>
</svg>
