<svg width="24" height="24" viewBox="0 0 24 24" fill="none" xmlns="http://www.w3.org/2000/svg">
<path d="M14.5303 6.53029C15.8943 5.16633 18.1057 5.16633 19.4696 6.5303C20.8336 7.89426 20.8336 10.1057 19.4696 11.4696L12 18.9393L11.0303 17.9696C10.7374 17.6767 10.2625 17.6767 9.96964 17.9696C9.67674 18.2625 9.67674 18.7374 9.96964 19.0303L11.3055 20.3661C11.689 20.7497 12.3109 20.7497 12.6945 20.3661L20.5303 12.5303C22.48 10.5805 22.48 7.41938 20.5303 5.46964C18.5805 3.51989 15.4194 3.51989 13.4696 5.46963L12 6.93931L10.5303 5.46964C8.58054 3.51989 5.41938 3.51989 3.46963 5.46964C2.03708 6.90219 1.65816 8.98755 2.32849 10.7647C2.47468 11.1523 2.90736 11.3479 3.29492 11.2017C3.68248 11.0556 3.87816 10.6229 3.73197 10.2353C3.26195 8.98922 3.52952 7.53106 4.53029 6.5303C5.89425 5.16634 8.10567 5.16633 9.46963 6.5303L11.4696 8.5303C11.6103 8.67095 11.801 8.74997 12 8.74997C12.1989 8.74997 12.3896 8.67095 12.5303 8.5303L14.5303 6.53029Z" fill="currentColor"/>
<path d="M7.27179 13.5374L7.95752 11.2516L9.09285 15.5091C9.33589 16.4205 10.5898 16.5196 10.9729 15.6576L12.0399 13.2569L12.2601 13.6973C12.4294 14.036 12.7757 14.25 13.1545 14.25H15C15.4142 14.25 15.75 13.9143 15.75 13.5C15.75 13.0858 15.4142 12.75 15 12.75H13.4635L12.9077 11.6385C12.5297 10.8826 11.4427 10.9073 11.0995 11.6795L10.1773 13.7543L8.95205 9.15958C8.6923 8.18551 7.31767 8.1643 7.02799 9.12989L5.94195 12.75H2.99997C2.58576 12.75 2.24997 13.0858 2.24997 13.5C2.24997 13.9143 2.58576 14.25 2.99997 14.25H6.31396C6.75557 14.25 7.14489 13.9604 7.27179 13.5374Z" fill="currentColor"/>
</svg>
