<svg width="24" height="24" viewBox="0 0 24 24" fill="none" xmlns="http://www.w3.org/2000/svg">
<path d="M12.9707 1.74576C12.3829 1.35387 11.6171 1.35387 11.0293 1.74576L3.02927 7.07909C2.54243 7.40365 2.25 7.95006 2.25 8.53518V19C2.25 19.9665 3.0335 20.75 4 20.75H9C9.41421 20.75 9.75 20.4142 9.75 20V15C9.75 13.7574 10.7574 12.75 12 12.75C13.2426 12.75 14.25 13.7574 14.25 15V20C14.25 20.4142 14.5858 20.75 15 20.75H20C20.9665 20.75 21.75 19.9665 21.75 19V8.53518C21.75 7.95006 21.4576 7.40365 20.9707 7.07909L12.9707 1.74576Z" fill="currentColor"/>
</svg>
