<svg width="24" height="24" viewBox="0 0 24 24" fill="none" xmlns="http://www.w3.org/2000/svg">
<path fill-rule="evenodd" clip-rule="evenodd" d="M12.1387 2.99383C12.0547 2.93785 11.9453 2.93785 11.8613 2.99383L3.86133 8.32716C3.79178 8.37353 3.75 8.45159 3.75 8.53518V19C3.75 19.1381 3.86193 19.25 4 19.25H8.25V15C8.25 12.9289 9.92893 11.25 12 11.25C14.0711 11.25 15.75 12.9289 15.75 15V19.25H20C20.1381 19.25 20.25 19.1381 20.25 19V8.53518C20.25 8.45159 20.2082 8.37353 20.1387 8.32716L12.1387 2.99383ZM11.0293 1.74576C11.6171 1.35387 12.3829 1.35387 12.9707 1.74576L20.9707 7.07909C21.4576 7.40365 21.75 7.95006 21.75 8.53518V19C21.75 19.9665 20.9665 20.75 20 20.75H15C14.5858 20.75 14.25 20.4142 14.25 20V15C14.25 13.7574 13.2426 12.75 12 12.75C10.7574 12.75 9.75 13.7574 9.75 15V20C9.75 20.4142 9.41421 20.75 9 20.75H4C3.0335 20.75 2.25 19.9665 2.25 19V8.53518C2.25 7.95006 2.54243 7.40365 3.02927 7.07909L11.0293 1.74576Z" fill="currentColor"/>
</svg>
