<svg width="24" height="24" viewBox="0 0 24 24" fill="none" xmlns="http://www.w3.org/2000/svg">
<path fill-rule="evenodd" clip-rule="evenodd" d="M2.25 6.5C2.25 5.25736 3.25736 4.25 4.5 4.25H19.5C20.7426 4.25 21.75 5.25736 21.75 6.5V17.5C21.75 18.7426 20.7426 19.75 19.5 19.75H4.5C3.25736 19.75 2.25 18.7426 2.25 17.5V6.5ZM4.5 5.75C4.08579 5.75 3.75 6.08579 3.75 6.5V17.5C3.75 17.9142 4.08579 18.25 4.5 18.25H19.5C19.9142 18.25 20.25 17.9142 20.25 17.5V6.5C20.25 6.08579 19.9142 5.75 19.5 5.75H4.5Z" fill="currentColor"/>
<path d="M5 8C5 7.72386 5.22386 7.5 5.5 7.5H6.5C6.77614 7.5 7 7.72386 7 8V9C7 9.27614 6.77614 9.5 6.5 9.5H5.5C5.22386 9.5 5 9.27614 5 9V8Z" fill="currentColor"/>
<path d="M5 11.5C5 11.2239 5.22386 11 5.5 11H6.5C6.77614 11 7 11.2239 7 11.5V12.5C7 12.7761 6.77614 13 6.5 13H5.5C5.22386 13 5 12.7761 5 12.5V11.5Z" fill="currentColor"/>
<path d="M8 8C8 7.72386 8.22386 7.5 8.5 7.5H9.5C9.77614 7.5 10 7.72386 10 8V9C10 9.27614 9.77614 9.5 9.5 9.5H8.5C8.22386 9.5 8 9.27614 8 9V8Z" fill="currentColor"/>
<path d="M8 11.5C8 11.2239 8.22386 11 8.5 11H9.5C9.77614 11 10 11.2239 10 11.5V12.5C10 12.7761 9.77614 13 9.5 13H8.5C8.22386 13 8 12.7761 8 12.5V11.5Z" fill="currentColor"/>
<path d="M14 8C14 7.72386 14.2239 7.5 14.5 7.5H15.5C15.7761 7.5 16 7.72386 16 8V9C16 9.27614 15.7761 9.5 15.5 9.5H14.5C14.2239 9.5 14 9.27614 14 9V8Z" fill="currentColor"/>
<path d="M14 11.5C14 11.2239 14.2239 11 14.5 11H15.5C15.7761 11 16 11.2239 16 11.5V12.5C16 12.7761 15.7761 13 15.5 13H14.5C14.2239 13 14 12.7761 14 12.5V11.5Z" fill="currentColor"/>
<path d="M11 8C11 7.72386 11.2239 7.5 11.5 7.5H12.5C12.7761 7.5 13 7.72386 13 8V9C13 9.27614 12.7761 9.5 12.5 9.5H11.5C11.2239 9.5 11 9.27614 11 9V8Z" fill="currentColor"/>
<path d="M11 11.5C11 11.2239 11.2239 11 11.5 11H12.5C12.7761 11 13 11.2239 13 11.5V12.5C13 12.7761 12.7761 13 12.5 13H11.5C11.2239 13 11 12.7761 11 12.5V11.5Z" fill="currentColor"/>
<path d="M8 15C8 14.7239 8.22386 14.5 8.5 14.5H15.5C15.7761 14.5 16 14.7239 16 15V16C16 16.2761 15.7761 16.5 15.5 16.5H8.5C8.22386 16.5 8 16.2761 8 16V15Z" fill="currentColor"/>
<path d="M17 8C17 7.72386 17.2239 7.5 17.5 7.5H18.5C18.7761 7.5 19 7.72386 19 8V9C19 9.27614 18.7761 9.5 18.5 9.5H17.5C17.2239 9.5 17 9.27614 17 9V8Z" fill="currentColor"/>
<path d="M17 11.5C17 11.2239 17.2239 11 17.5 11H18.5C18.7761 11 19 11.2239 19 11.5V12.5C19 12.7761 18.7761 13 18.5 13H17.5C17.2239 13 17 12.7761 17 12.5V11.5Z" fill="currentColor"/>
</svg>
