<svg width="24" height="24" viewBox="0 0 24 24" fill="none" xmlns="http://www.w3.org/2000/svg">
<path fill-rule="evenodd" clip-rule="evenodd" d="M12 2.25C7.71979 2.25 4.25 5.71979 4.25 10C4.25 12.6545 5.58521 14.9969 7.61724 16.3925C7.98546 16.6454 8.40891 16.75 8.80941 16.75H15.1906C15.5911 16.75 16.0145 16.6454 16.3828 16.3925C18.4148 14.9969 19.75 12.6545 19.75 10C19.75 5.71979 16.2802 2.25 12 2.25ZM5.75 10C5.75 6.54822 8.54822 3.75 12 3.75C15.4518 3.75 18.25 6.54822 18.25 10C18.25 12.1395 17.1756 14.0283 15.5336 15.156C15.452 15.212 15.3357 15.25 15.1906 15.25H8.80941C8.66425 15.25 8.548 15.212 8.46644 15.156C6.82436 14.0283 5.75 12.1395 5.75 10Z" fill="currentColor"/>
<path d="M9 18C8.58579 18 8.25 18.3358 8.25 18.75C8.25 19.1642 8.58579 19.5 9 19.5H15C15.4142 19.5 15.75 19.1642 15.75 18.75C15.75 18.3358 15.4142 18 15 18H9Z" fill="currentColor"/>
<path d="M13.4142 22.1642C13.7761 21.8023 14 21.3023 14 20.75H10C10 21.3473 10.2619 21.8835 10.6771 22.25C10.6938 22.2647 10.7107 22.2791 10.7278 22.2933C11.0735 22.5786 11.5168 22.75 12 22.75C12.5072 22.75 12.9703 22.5612 13.3229 22.25" fill="currentColor"/>
</svg>
