<svg width="24" height="24" viewBox="0 0 24 24" fill="none" xmlns="http://www.w3.org/2000/svg">
<path d="M6 6.25C5.58579 6.25 5.25 6.58579 5.25 7C5.25 7.41421 5.58579 7.75 6 7.75H17C17.4142 7.75 17.75 7.41421 17.75 7C17.75 6.58579 17.4142 6.25 17 6.25H6Z" fill="currentColor"/>
<path d="M6 11.25C5.58579 11.25 5.25 11.5858 5.25 12C5.25 12.4142 5.58579 12.75 6 12.75H17C17.4142 12.75 17.75 12.4142 17.75 12C17.75 11.5858 17.4142 11.25 17 11.25H6Z" fill="currentColor"/>
<path d="M5.25 17C5.25 16.5858 5.58579 16.25 6 16.25H9.5C9.91421 16.25 10.25 16.5858 10.25 17C10.25 17.4142 9.91421 17.75 9.5 17.75H6C5.58579 17.75 5.25 17.4142 5.25 17Z" fill="currentColor"/>
<path d="M12 18.4857C11.9987 19.213 12.2149 19.9227 12.6189 20.5166C13.0228 21.1106 13.5944 21.5593 14.2545 21.8009C14.9147 22.0424 15.6308 22.0648 16.3037 21.8648C16.9766 21.6649 17.5731 21.2526 18.0106 20.6849C18.056 20.6292 18.0902 20.5647 18.1113 20.4951C18.1324 20.4255 18.14 20.3522 18.1336 20.2795C18.1272 20.2069 18.107 20.1363 18.074 20.0718C18.0411 20.0074 17.9961 19.9504 17.9418 19.9042C17.8328 19.8137 17.6938 19.7715 17.5551 19.787C17.4164 19.8024 17.2891 19.8742 17.2011 19.9866C16.9114 20.363 16.5197 20.6404 16.0766 20.7829C15.6335 20.9254 15.1595 20.9265 14.7158 20.7861C14.2722 20.6456 13.8793 20.37 13.588 19.995C13.2967 19.62 13.1203 19.1628 13.0818 18.6825C13.0433 18.2022 13.1444 17.721 13.3719 17.301C13.5995 16.8811 13.9431 16.5418 14.3582 16.3269C14.7734 16.1121 15.2411 16.0316 15.7007 16.096C16.1604 16.1603 16.5909 16.3665 16.9365 16.6879C16.9496 16.7005 16.9602 16.7158 16.9674 16.7329C16.9747 16.7499 16.9786 16.7682 16.9788 16.7868C16.9807 16.8052 16.9784 16.8238 16.9719 16.841C16.9655 16.8582 16.9551 16.8736 16.9418 16.8858L16.2064 17.65C16.1693 17.689 16.144 17.7384 16.1337 17.7922C16.1233 17.8459 16.1283 17.9016 16.1482 17.9524C16.162 18.0012 16.1887 18.045 16.2251 18.079C16.2616 18.1129 16.3063 18.1357 16.3545 18.1448H18.7355C18.7702 18.1448 18.8046 18.1377 18.8367 18.1239C18.8688 18.1101 18.898 18.0898 18.9225 18.0643C18.9471 18.0388 18.9666 18.0085 18.9799 17.9751C18.9932 17.9418 19 17.906 19 17.8699V15.3959C18.9997 15.3416 18.984 15.2886 18.9548 15.2436C18.9256 15.1986 18.8843 15.1636 18.836 15.143C18.7883 15.1205 18.735 15.1143 18.6837 15.1251C18.6324 15.136 18.5857 15.1634 18.5503 15.2034L17.8624 15.9457C17.8377 15.9709 17.8045 15.985 17.7698 15.985C17.7352 15.985 17.702 15.9709 17.6772 15.9457C17.5142 15.7875 17.337 15.6457 17.1481 15.5223C16.6163 15.1786 16.002 14.9976 15.3757 15C14.484 15 13.6286 15.3665 12.9962 16.0196C12.3637 16.6727 12.0056 17.5592 12 18.4857Z" fill="currentColor"/>
</svg>
