<svg width="24" height="24" viewBox="0 0 24 24" fill="none" xmlns="http://www.w3.org/2000/svg">
<path d="M5 17C5.55228 17 6 17.4477 6 18C6 18.5523 5.55228 19 5 19C4.44772 19 4 18.5523 4 18C4 17.4477 4.44772 17 5 17Z" fill="currentColor"/>
<path d="M19.0771 17.2539C19.4551 17.2925 19.75 17.6118 19.75 18C19.75 18.3882 19.4551 18.7075 19.0771 18.7461L19 18.75H8C7.58579 18.75 7.25 18.4142 7.25 18C7.25 17.5858 7.58579 17.25 8 17.25H19L19.0771 17.2539Z" fill="currentColor"/>
<path d="M5 13C5.55228 13 6 13.4477 6 14C6 14.5523 5.55228 15 5 15C4.44772 15 4 14.5523 4 14C4 13.4477 4.44772 13 5 13Z" fill="currentColor"/>
<path d="M19.0771 13.2539C19.4551 13.2925 19.75 13.6118 19.75 14C19.75 14.3882 19.4551 14.7075 19.0771 14.7461L19 14.75H8C7.58579 14.75 7.25 14.4142 7.25 14C7.25 13.5858 7.58579 13.25 8 13.25H19L19.0771 13.2539Z" fill="currentColor"/>
<path d="M5 9C5.55228 9 6 9.44772 6 10C6 10.5523 5.55228 11 5 11C4.44772 11 4 10.5523 4 10C4 9.44772 4.44772 9 5 9Z" fill="currentColor"/>
<path d="M19.0771 9.25391C19.4551 9.29253 19.75 9.61183 19.75 10C19.75 10.3882 19.4551 10.7075 19.0771 10.7461L19 10.75H8C7.58579 10.75 7.25 10.4142 7.25 10C7.25 9.58579 7.58579 9.25 8 9.25H19L19.0771 9.25391Z" fill="currentColor"/>
<path d="M5 5C5.55228 5 6 5.44772 6 6C6 6.55228 5.55228 7 5 7C4.44772 7 4 6.55228 4 6C4 5.44772 4.44772 5 5 5Z" fill="currentColor"/>
<path d="M19.0771 5.25391C19.4551 5.29253 19.75 5.61183 19.75 6C19.75 6.38817 19.4551 6.70747 19.0771 6.74609L19 6.75H8C7.58579 6.75 7.25 6.41421 7.25 6C7.25 5.58579 7.58579 5.25 8 5.25H19L19.0771 5.25391Z" fill="currentColor"/>
</svg>
