<svg width="24" height="24" viewBox="0 0 24 24" fill="none" xmlns="http://www.w3.org/2000/svg">
<path fill-rule="evenodd" clip-rule="evenodd" d="M12 1.25C12.4142 1.25 12.75 1.58579 12.75 2V4.62133C14.4415 4.79321 16.0314 5.54264 17.2444 6.75562C18.4574 7.96861 19.2068 9.55848 19.3787 11.25H22C22.4142 11.25 22.75 11.5858 22.75 12C22.75 12.4142 22.4142 12.75 22 12.75H19.3787C19.2068 14.4415 18.4574 16.0314 17.2444 17.2444C16.0314 18.4574 14.4415 19.2068 12.75 19.3787V22C12.75 22.4142 12.4142 22.75 12 22.75C11.5858 22.75 11.25 22.4142 11.25 22V19.3787C9.55848 19.2068 7.96861 18.4574 6.75562 17.2444C5.54264 16.0314 4.79321 14.4415 4.62133 12.75H2C1.58579 12.75 1.25 12.4142 1.25 12C1.25 11.5858 1.58579 11.25 2 11.25H4.62133C4.79321 9.55848 5.54264 7.96861 6.75562 6.75562C7.96861 5.54264 9.55848 4.79321 11.25 4.62133V2C11.25 1.58579 11.5858 1.25 12 1.25ZM12 6.08333C10.4308 6.08333 8.92588 6.70669 7.81629 7.81629C6.70669 8.92588 6.08333 10.4308 6.08333 12C6.08333 13.5692 6.70669 15.0741 7.81629 16.1837C8.92588 17.2933 10.4308 17.9167 12 17.9167C13.5692 17.9167 15.0741 17.2933 16.1837 16.1837C17.2933 15.0741 17.9167 13.5692 17.9167 12C17.9167 10.4308 17.2933 8.92588 16.1837 7.81629C15.0741 6.70669 13.5692 6.08333 12 6.08333ZM9.58405 9.58405C10.2248 8.9433 11.0938 8.58333 12 8.58333C12.9062 8.58333 13.7752 8.9433 14.4159 9.58405C15.0567 10.2248 15.4167 11.0938 15.4167 12C15.4167 12.9062 15.0567 13.7752 14.4159 14.4159C13.7752 15.0567 12.9062 15.4167 12 15.4167C11.0938 15.4167 10.2248 15.0567 9.58405 14.4159C8.9433 13.7752 8.58333 12.9062 8.58333 12C8.58333 11.0938 8.9433 10.2248 9.58405 9.58405ZM12 10.0833C11.4917 10.0833 11.0042 10.2853 10.6447 10.6447C10.2853 11.0042 10.0833 11.4917 10.0833 12C10.0833 12.5083 10.2853 12.9958 10.6447 13.3553C11.0042 13.7147 11.4917 13.9167 12 13.9167C12.5083 13.9167 12.9958 13.7147 13.3553 13.3553C13.7147 12.9958 13.9167 12.5083 13.9167 12C13.9167 11.4917 13.7147 11.0042 13.3553 10.6447C12.9958 10.2853 12.5083 10.0833 12 10.0833Z" fill="currentColor"/>
</svg>
