<svg width="24" height="24" viewBox="0 0 24 24" fill="none" xmlns="http://www.w3.org/2000/svg">
<path fill-rule="evenodd" clip-rule="evenodd" d="M4.25 10.75C4.25 9.92157 4.92157 9.25 5.75 9.25H18.25C19.0784 9.25 19.75 9.92157 19.75 10.75V20.25C19.75 21.0784 19.0784 21.75 18.25 21.75H5.75C4.92157 21.75 4.25 21.0784 4.25 20.25V10.75ZM18.25 10.75H5.75V20.25H18.25V10.75Z" fill="currentColor"/>
<path fill-rule="evenodd" clip-rule="evenodd" d="M12 2.75C10.2051 2.75 8.75 4.20507 8.75 6C8.75 6.41421 8.41421 6.75 8 6.75C7.58579 6.75 7.25 6.41421 7.25 6C7.25 3.37665 9.37665 1.25 12 1.25C14.6234 1.25 16.75 3.37665 16.75 6V10H15.25V6C15.25 4.20507 13.7949 2.75 12 2.75Z" fill="currentColor"/>
<path d="M14 15.5C14 16.6046 13.1046 17.5 12 17.5C10.8954 17.5 10 16.6046 10 15.5C10 14.3954 10.8954 13.5 12 13.5C13.1046 13.5 14 14.3954 14 15.5Z" fill="currentColor"/>
</svg>
