<svg width="24" height="24" viewBox="0 0 24 24" fill="none" xmlns="http://www.w3.org/2000/svg">
<path d="M5.76438 12.3091H2.67438C2.47547 12.3091 2.2847 12.23 2.14405 12.0894C2.00339 11.9487 1.92438 11.758 1.92438 11.5591C1.92438 11.3602 2.00339 11.1694 2.14405 11.0287C2.2847 10.8881 2.47547 10.8091 2.67438 10.8091H5.76438C5.96329 10.8091 6.15406 10.8881 6.29471 11.0287C6.43536 11.1694 6.51438 11.3602 6.51438 11.5591C6.51438 11.758 6.43536 11.9487 6.29471 12.0894C6.15406 12.23 5.96329 12.3091 5.76438 12.3091Z" fill="currentColor"/>
<path d="M5.76438 18.7791H2.67438C2.47547 18.7791 2.2847 18.7 2.14405 18.5594C2.00339 18.4187 1.92438 18.228 1.92438 18.0291C1.92438 17.8302 2.00339 17.6394 2.14405 17.4987C2.2847 17.3581 2.47547 17.2791 2.67438 17.2791H5.76438C5.96329 17.2791 6.15406 17.3581 6.29471 17.4987C6.43536 17.6394 6.51438 17.8302 6.51438 18.0291C6.51438 18.228 6.43536 18.4187 6.29471 18.5594C6.15406 18.7 5.96329 18.7791 5.76438 18.7791Z" fill="currentColor"/>
<path d="M22.0146 16.7426L21.3646 12.0326C21.2597 11.2613 20.884 10.5524 20.3046 10.0326C19.7266 9.53261 18.9888 9.25593 18.2246 9.25265H14.9146C14.0789 9.25381 13.2581 9.47451 12.5346 9.89265L10.8146 10.8926H8.76455C8.56564 10.8926 8.37488 10.9717 8.23422 11.1123C8.09357 11.253 8.01455 11.4437 8.01455 11.6426C8.01455 11.8416 8.09357 12.0323 8.23422 12.173C8.37488 12.3136 8.56564 12.3926 8.76455 12.3926H11.0146C11.1476 12.3914 11.2782 12.3571 11.3946 12.2926L13.2946 11.1826C13.7854 10.8935 14.3449 10.7416 14.9146 10.7426H18.2246C18.6248 10.7467 19.0108 10.8919 19.3146 11.1526C19.6181 11.4265 19.8163 11.798 19.8746 12.2026L20.5346 16.9526C20.5643 17.0776 20.5643 17.2077 20.5346 17.3326C20.5048 17.4566 20.4427 17.5705 20.3546 17.6626C20.2772 17.7609 20.1779 17.8397 20.0646 17.8926C19.9542 17.9408 19.8349 17.9647 19.7146 17.9626H15.6346C15.4356 17.9626 15.2449 18.0417 15.1042 18.1823C14.9636 18.323 14.8846 18.5137 14.8846 18.7126C14.8846 18.9116 14.9636 19.1023 15.1042 19.243C15.2449 19.3836 15.4356 19.4626 15.6346 19.4626H17.4346C17.3993 19.6436 17.3241 19.8144 17.2146 19.9626C17.0786 20.1372 16.8825 20.2548 16.6646 20.2926H14.9146C14.4332 20.2902 13.9585 20.1809 13.5246 19.9726C13.1307 19.7059 12.7913 19.3665 12.5246 18.9726L11.6346 17.8026C11.5652 17.7089 11.4748 17.6329 11.3705 17.5808C11.2662 17.5286 11.1511 17.5019 11.0346 17.5026H8.76455C8.56564 17.5026 8.37488 17.5817 8.23422 17.7223C8.09357 17.863 8.01455 18.0537 8.01455 18.2526C8.01455 18.4516 8.09357 18.6423 8.23422 18.783C8.37488 18.9236 8.56564 19.0026 8.76455 19.0026H10.6446L11.3346 19.9226C11.7434 20.5017 12.272 20.986 12.8846 21.3426C13.5101 21.639 14.1924 21.7959 14.8846 21.8026H16.6346C16.9482 21.797 17.2571 21.7255 17.5413 21.5929C17.8256 21.4602 18.0788 21.2694 18.2846 21.0326C18.6828 20.5924 18.9375 20.0413 19.0146 19.4526H19.7346C20.0792 19.4562 20.4205 19.3845 20.7346 19.2426C21.0433 19.1014 21.3166 18.893 21.5346 18.6326C21.7519 18.3744 21.9151 18.0752 22.0146 17.7526C22.0894 17.4201 22.0894 17.0752 22.0146 16.7426Z" fill="currentColor"/>
<path fill-rule="evenodd" clip-rule="evenodd" d="M5.08471 11.5642C5.08471 10.7036 5.78238 10.0059 6.64297 10.0059L7.9456 10.006C7.94559 10.006 7.9456 10.006 7.9456 10.006C8.80618 10.006 9.50385 10.7036 9.50385 11.5642V18.0302C9.50385 18.8909 8.80618 19.5885 7.9456 19.5885L6.64297 19.5885C5.78238 19.5885 5.08471 18.8908 5.08471 18.0302V11.5642ZM6.64296 11.5059C6.61079 11.5059 6.58471 11.532 6.58471 11.5642V18.0302C6.58471 18.0624 6.61079 18.0885 6.64297 18.0885L7.9456 18.0885C7.97778 18.0885 8.00385 18.0624 8.00385 18.0302V11.5642C8.00385 11.532 7.97778 11.506 7.9456 11.506L6.64296 11.5059C6.64296 11.5059 6.64296 11.5059 6.64296 11.5059Z" fill="currentColor"/>
<path d="M10.1744 8.40906C9.98162 8.41268 9.79505 8.34093 9.65439 8.20906C8.99802 7.61528 8.14448 7.28649 7.25939 7.28649C6.37429 7.28649 5.52076 7.61528 4.86439 8.20906C4.71563 8.30562 4.53747 8.34634 4.36154 8.32399C4.18561 8.30164 4.02329 8.21767 3.9034 8.08699C3.78351 7.95631 3.71381 7.78737 3.70666 7.61017C3.69952 7.43297 3.7554 7.25897 3.86439 7.11906C4.79168 6.24719 6.01658 5.76178 7.28939 5.76178C8.5622 5.76178 9.78709 6.24719 10.7144 7.11906C10.8548 7.25969 10.9337 7.45031 10.9337 7.64906C10.9337 7.84782 10.8548 8.03844 10.7144 8.17906C10.6456 8.25318 10.5619 8.31196 10.4689 8.35159C10.3758 8.39122 10.2755 8.4108 10.1744 8.40906Z" fill="currentColor"/>
<path d="M12.1144 5.67908C11.9225 5.67777 11.7377 5.60668 11.5944 5.47908C10.424 4.36917 8.87239 3.75048 7.25939 3.75048C5.64638 3.75048 4.09482 4.36917 2.92439 5.47908C2.77563 5.57563 2.59747 5.61635 2.42154 5.594C2.24561 5.57165 2.08329 5.48768 1.9634 5.357C1.84351 5.22632 1.7738 5.05738 1.76666 4.88018C1.75952 4.70298 1.8154 4.52898 1.92439 4.38908C3.37327 3.01616 5.29335 2.25095 7.28939 2.25095C9.28542 2.25095 11.2055 3.01616 12.6544 4.38908C12.7948 4.5297 12.8737 4.72033 12.8737 4.91908C12.8737 5.11783 12.7948 5.30845 12.6544 5.44908C12.5841 5.5213 12.5002 5.57882 12.4075 5.61831C12.3148 5.65779 12.2151 5.67845 12.1144 5.67908Z" fill="currentColor"/>
</svg>
