<svg width="20" height="20" viewBox="0 0 20 20" fill="none" xmlns="http://www.w3.org/2000/svg">
<path fill-rule="evenodd" clip-rule="evenodd" d="M16.1142 6.37001L17.0742 3.53574C17.1027 3.45446 17.1078 3.36676 17.0886 3.28275C17.0695 3.19874 17.0271 3.12184 16.9662 3.06092C16.9052 3 16.8283 2.95753 16.7443 2.93842C16.6603 2.9193 16.5726 2.92432 16.4913 2.95289L13.657 3.91288C13.5871 3.93751 13.5122 3.94517 13.4387 3.93524C13.3652 3.9253 13.2951 3.89806 13.2342 3.85574L10.8342 2.06146C10.766 2.02204 10.6889 2.00088 10.6102 2.00003C10.5315 1.99917 10.4539 2.01865 10.3849 2.05659C10.3159 2.09452 10.2579 2.14962 10.2165 2.21654C10.1751 2.28347 10.1516 2.35996 10.1484 2.4386V5.43287C10.1463 5.50626 10.1277 5.57822 10.0941 5.64349C10.0605 5.70876 10.0127 5.76566 9.95415 5.81001L7.50844 7.53572C7.43828 7.58466 7.38327 7.6523 7.34964 7.73095C7.31602 7.8096 7.30514 7.89611 7.31824 7.98064C7.33133 8.06517 7.36788 8.14432 7.42373 8.20912C7.47957 8.27391 7.55249 8.32173 7.63416 8.34714L10.4913 9.23857C10.5619 9.25891 10.6262 9.29684 10.6782 9.34881C10.7302 9.40077 10.7681 9.46508 10.7884 9.53571L11.6799 12.3928C11.7053 12.4745 11.7531 12.5474 11.8179 12.6033C11.8827 12.6591 11.9618 12.6957 12.0464 12.7088C12.1309 12.7219 12.2174 12.711 12.2961 12.6773C12.3747 12.6437 12.4424 12.5887 12.4913 12.5185L14.1599 10.1186C14.2042 10.0601 14.2611 10.0122 14.3264 9.97863C14.3916 9.94501 14.4636 9.92644 14.537 9.92428H17.5313C17.6171 9.92645 17.7019 9.90438 17.7758 9.86061C17.8497 9.81684 17.9098 9.75312 17.9491 9.67678C17.9886 9.60044 18.0056 9.51455 17.9984 9.42897C17.9912 9.34338 17.96 9.26155 17.9084 9.19285L16.1142 6.79287C16.081 6.72731 16.0638 6.65489 16.0638 6.58144C16.0638 6.50799 16.081 6.43556 16.1142 6.37001ZM2.33473 16.049L8.32465 10.0591L9.57716 10.4499L9.95508 11.6612L3.95098 17.6653C3.50466 18.1116 2.78105 18.1116 2.33473 17.6653C1.88842 17.2189 1.88842 16.4954 2.33473 16.049Z" fill="currentColor"/>
</svg>
