<svg width="24" height="24" viewBox="0 0 24 24" fill="none" xmlns="http://www.w3.org/2000/svg">
<path fill-rule="evenodd" clip-rule="evenodd" d="M7.06306 1.96679C8.20555 1.49356 9.43005 1.24999 10.6667 1.24999C11.9033 1.24999 13.1278 1.49356 14.2703 1.96679C15.4128 2.44003 16.4508 3.13365 17.3253 4.00807C18.1997 4.88249 18.8933 5.92057 19.3665 7.06306C19.8398 8.20554 20.0833 9.43005 20.0833 10.6667C20.0833 11.9033 19.8398 13.1278 19.3665 14.2703C18.9892 15.1811 18.4718 16.0257 17.8344 16.7738L22.5303 21.4697C22.8232 21.7626 22.8232 22.2374 22.5303 22.5303C22.2374 22.8232 21.7626 22.8232 21.4697 22.5303L16.7738 17.8344C16.0257 18.4718 15.1811 18.9892 14.2703 19.3665C13.1278 19.8398 11.9033 20.0833 10.6667 20.0833C9.43005 20.0833 8.20555 19.8398 7.06306 19.3665C5.92058 18.8933 4.8825 18.1997 4.00808 17.3252C3.13366 16.4508 2.44003 15.4127 1.9668 14.2703C1.49357 13.1278 1.25 11.9033 1.25 10.6667C1.25 9.43005 1.49357 8.20554 1.9668 7.06306C2.44003 5.92057 3.13366 4.88249 4.00808 4.00807C4.8825 3.13365 5.92058 2.44003 7.06306 1.96679ZM10.6667 2.74999C9.62704 2.74999 8.59758 2.95476 7.63709 3.35261C6.6766 3.75046 5.80387 4.3336 5.06874 5.06873C4.33361 5.80386 3.75047 6.67659 3.35262 7.63708C2.95477 8.59758 2.75 9.62703 2.75 10.6667C2.75 11.7063 2.95477 12.7357 3.35262 13.6962C3.75047 14.6567 4.33361 15.5295 5.06874 16.2646C5.80387 16.9997 6.6766 17.5829 7.63709 17.9807C8.59758 18.3786 9.62704 18.5833 10.6667 18.5833C11.7063 18.5833 12.7358 18.3786 13.6962 17.9807C14.6567 17.5829 15.5295 16.9997 16.2646 16.2646C16.9997 15.5295 17.5829 14.6567 17.9807 13.6962C18.3786 12.7357 18.5833 11.7063 18.5833 10.6667C18.5833 9.62703 18.3786 8.59758 17.9807 7.63708C17.5829 6.67659 16.9997 5.80386 16.2646 5.06873C15.5295 4.3336 14.6567 3.75046 13.6962 3.35261C12.7357 2.95476 11.7063 2.74999 10.6667 2.74999ZM9.61429 3.45932C9.94793 3.32112 10.3055 3.24999 10.6667 3.24999C11.0278 3.24999 11.3854 3.32112 11.719 3.45932C12.0527 3.59752 12.3559 3.80009 12.6112 4.05545C12.8666 4.31081 13.0691 4.61397 13.2073 4.94761C13.3455 5.28126 13.4167 5.63886 13.4167 5.99999C13.4167 6.36113 13.3455 6.71873 13.2073 7.05237C13.0691 7.38602 12.8666 7.68917 12.6112 7.94454C12.3559 8.1999 12.0527 8.40246 11.719 8.54066C11.6153 8.58363 11.5093 8.62011 11.4015 8.64998C12.2114 8.79816 12.9638 9.18904 13.554 9.77931C14.3198 10.5451 14.75 11.5837 14.75 12.6667V13.3333C14.75 13.7475 14.4142 14.0833 14 14.0833H13.302L12.858 16.7456C12.7899 17.1542 12.4034 17.4301 11.9949 17.362C11.5863 17.2939 11.3103 16.9074 11.3784 16.4989L11.9269 13.21C11.9872 12.8484 12.3001 12.5833 12.6667 12.5833H13.2487C13.2275 11.9284 12.9582 11.3048 12.4934 10.84C12.0089 10.3555 11.3518 10.0833 10.6667 10.0833C9.98152 10.0833 9.32444 10.3555 8.83997 10.84C8.37518 11.3048 8.10579 11.9284 8.08468 12.5833H8.66667C9.03327 12.5833 9.34615 12.8484 9.40645 13.21L9.9549 16.4989C10.023 16.9074 9.74705 17.2939 9.33848 17.362C8.9299 17.4301 8.54346 17.1542 8.47533 16.7456L8.03138 14.0833H7.33333C6.91912 14.0833 6.58333 13.7475 6.58333 13.3333V12.6667C6.58333 11.5837 7.01354 10.5451 7.77931 9.77931C8.36958 9.18904 9.12195 8.79815 9.93178 8.64998C9.82404 8.62011 9.71801 8.58362 9.61429 8.54066C9.28064 8.40246 8.97748 8.1999 8.72212 7.94454C8.46676 7.68918 8.2642 7.38602 8.126 7.05237C7.9878 6.71873 7.91667 6.36113 7.91667 5.99999C7.91667 5.63886 7.9878 5.28126 8.126 4.94761C8.2642 4.61397 8.46676 4.31081 8.72212 4.05545C8.97748 3.80009 9.28064 3.59752 9.61429 3.45932ZM10.6667 4.74999C10.5025 4.74999 10.34 4.78232 10.1883 4.84514C10.0367 4.90796 9.89886 5.00004 9.78278 5.11611C9.66671 5.23218 9.57464 5.36998 9.51182 5.52164C9.449 5.6733 9.41667 5.83584 9.41667 5.99999C9.41667 6.16414 9.449 6.32669 9.51182 6.47835C9.57464 6.63 9.66671 6.7678 9.78278 6.88388C9.89886 6.99995 10.0367 7.09202 10.1883 7.15484C10.34 7.21766 10.5025 7.24999 10.6667 7.24999C10.8308 7.24999 10.9934 7.21766 11.145 7.15484C11.2967 7.09202 11.4345 6.99995 11.5506 6.88388C11.6666 6.7678 11.7587 6.63 11.8215 6.47835C11.8843 6.32669 11.9167 6.16414 11.9167 5.99999C11.9167 5.83584 11.8843 5.6733 11.8215 5.52164C11.7587 5.36998 11.6666 5.23218 11.5506 5.11611C11.4345 5.00004 11.2967 4.90796 11.145 4.84514C10.9934 4.78233 10.8308 4.74999 10.6667 4.74999Z" fill="currentColor"/>
</svg>
