<svg width="24" height="24" viewBox="0 0 24 24" fill="none" xmlns="http://www.w3.org/2000/svg">
<path fill-rule="evenodd" clip-rule="evenodd" d="M14.25 3C14.25 2.58579 14.5858 2.25 15 2.25H20C20.4142 2.25 20.75 2.58579 20.75 3V6C20.75 6.41421 20.4142 6.75 20 6.75H15.75V9V14C15.75 14.4142 15.4142 14.75 15 14.75C14.5858 14.75 14.25 14.4142 14.25 14V9.75H10.4641C11.2616 10.5997 11.75 11.7428 11.75 13V18.25H20.25V13C20.25 11.4867 19.215 10.2132 17.8131 9.85235C17.4119 9.7491 17.1704 9.34021 17.2737 8.93907C17.3769 8.53793 17.7858 8.29644 18.1869 8.39969C20.2355 8.92695 21.75 10.7857 21.75 13V18.25C21.75 19.0784 21.0784 19.75 20.25 19.75H11C10.9877 19.75 10.9755 19.7497 10.9633 19.7491C10.9505 19.7497 10.9377 19.75 10.9248 19.75H3.07519C2.61945 19.75 2.25 19.3806 2.25 18.9248V13C2.25 10.3766 4.37665 8.25 7 8.25H14.25V3ZM7 9.75C5.20507 9.75 3.75 11.2051 3.75 13V18.25H10.25V13C10.25 11.2051 8.79493 9.75 7 9.75ZM15.75 5.25H19.25V3.75H15.75V5.25Z" fill="currentColor"/>
</svg>
