<svg width="24" height="24" viewBox="0 0 24 24" fill="none" xmlns="http://www.w3.org/2000/svg">
<path d="M11.172 0.641383C11.3641 0.589901 11.5688 0.616852 11.7411 0.716308L15.2052 2.71631C15.5639 2.92342 15.6868 3.38211 15.4797 3.74083L12.4797 8.93698C12.2726 9.2957 11.8139 9.41861 11.4552 9.2115C11.0965 9.00439 10.9736 8.5457 11.1807 8.18698L13.8057 3.64035L11.6406 2.39035L7.82647 8.99664L7.32526 11.4459L8.12102 11.9053L9.30403 10.8563L8.90616 10.6266C8.54744 10.4195 8.42453 9.96076 8.63164 9.60204C8.83874 9.24332 9.29744 9.12042 9.65616 9.32752L10.9552 10.0775C11.164 10.1981 11.3021 10.4116 11.3264 10.6515C11.3507 10.8913 11.2582 11.1282 11.0778 11.2882L8.71177 13.3863C8.47023 13.6005 8.11874 13.6361 7.83917 13.4746L6.10712 12.4746C5.82754 12.3132 5.68262 11.991 5.74734 11.6748L6.38132 8.57668C6.39748 8.49771 6.42627 8.42185 6.46657 8.35204L10.7166 0.990828C10.816 0.818564 10.9798 0.692865 11.172 0.641383Z" fill="currentColor"/>
<path d="M3.71657 13.1153C3.92368 12.7566 4.38237 12.6337 4.74109 12.8408L8.20519 14.8408C8.56391 15.0479 8.68682 15.5066 8.47971 15.8653C8.27261 16.2241 7.81391 16.347 7.45519 16.1399L3.99109 14.1399C3.63237 13.9328 3.50947 13.4741 3.71657 13.1153Z" fill="currentColor"/>
<path fill-rule="evenodd" clip-rule="evenodd" d="M14.5 13.2505C12.7051 13.2505 11.25 14.7056 11.25 16.5005C11.25 16.7586 11.2801 17.0097 11.337 17.2505H9.41417C8.95004 17.2505 8.50492 17.4349 8.17673 17.7631L7.17674 18.7631C6.0743 19.8655 6.85509 21.7505 8.41417 21.7505H18C18.9665 21.7505 19.75 20.967 19.75 20.0005V18.0005C19.75 17.5863 19.4142 17.2505 19 17.2505C18.5857 17.2505 18.25 17.5863 18.25 18.0005V20.0005C18.25 20.1386 18.138 20.2505 18 20.2505H8.41417C8.19145 20.2505 8.0799 19.9812 8.2374 19.8237L9.2374 18.8237C9.28428 18.7768 9.34787 18.7505 9.41417 18.7505H12C12.0485 18.7505 12.096 18.7459 12.142 18.7371C12.7342 19.3612 13.5717 19.7505 14.5 19.7505C16.2949 19.7505 17.75 18.2954 17.75 16.5005C17.75 15.5872 17.3733 14.7619 16.7668 14.1715C17.1369 13.5265 17.8233 12.2891 18.0519 10.938C18.1819 10.1697 18.1735 9.31877 17.8449 8.49559C17.5116 7.66076 16.876 6.92265 15.872 6.34895C15.5124 6.14344 15.0542 6.26839 14.8487 6.62802C14.6432 6.98766 14.7682 7.4458 15.1278 7.65131C15.8738 8.0776 16.259 8.56872 16.4518 9.05169C16.6492 9.54632 16.6721 10.1017 16.5729 10.6877C16.3931 11.7504 15.8439 12.7609 15.4792 13.4006C15.1702 13.3031 14.8412 13.2505 14.5 13.2505ZM12.75 16.5005C12.75 15.534 13.5335 14.7505 14.5 14.7505C15.4665 14.7505 16.25 15.534 16.25 16.5005C16.25 17.467 15.4665 18.2505 14.5 18.2505C13.5335 18.2505 12.75 17.467 12.75 16.5005Z" fill="currentColor"/>
</svg>
