<svg width="24" height="24" viewBox="0 0 24 24" fill="none" xmlns="http://www.w3.org/2000/svg">
<path d="M12 2.25C10.3661 2.25 8.97801 3.29459 8.46358 4.75007C8.32554 5.1406 8.53023 5.56909 8.92077 5.70713C9.31131 5.84517 9.7398 5.64047 9.87784 5.24993C10.1871 4.37503 11.0215 3.75 12 3.75C13.2426 3.75 14.25 4.75736 14.25 6V11C14.25 11.4142 14.5858 11.75 15 11.75C15.4142 11.75 15.75 11.4142 15.75 11V6C15.75 3.92893 14.0711 2.25 12 2.25Z" fill="currentColor"/>
<path fill-rule="evenodd" clip-rule="evenodd" d="M14.068 15.1286C13.4752 15.521 12.7638 15.75 12 15.75C9.92893 15.75 8.25 14.0711 8.25 12V9.31066L3.46967 4.53033C3.17678 4.23744 3.17678 3.76256 3.46967 3.46967C3.76256 3.17678 4.23744 3.17678 4.53033 3.46967L20.5303 19.4697C20.8232 19.7626 20.8232 20.2374 20.5303 20.5303C20.2374 20.8232 19.7626 20.8232 19.4697 20.5303L16.2132 17.2739C15.2425 18.0503 14.0518 18.5647 12.75 18.7088V21C12.75 21.4142 12.4142 21.75 12 21.75C11.5858 21.75 11.25 21.4142 11.25 21V18.7088C7.87504 18.3357 5.25 15.4744 5.25 12V11C5.25 10.5858 5.58579 10.25 6 10.25C6.41421 10.25 6.75 10.5858 6.75 11V12C6.75 14.8995 9.1005 17.25 12 17.25C13.1797 17.25 14.2675 16.8616 15.1442 16.2048L14.068 15.1286ZM9.75 10.8107V12C9.75 13.2426 10.7574 14.25 12 14.25C12.3478 14.25 12.6766 14.1714 12.9702 14.0309L9.75 10.8107Z" fill="currentColor"/>
<path d="M18.75 11C18.75 10.5858 18.4142 10.25 18 10.25C17.5858 10.25 17.25 10.5858 17.25 11V12C17.25 12.483 17.185 12.9497 17.0636 13.3922C16.9541 13.7917 17.1891 14.2043 17.5885 14.3139C17.988 14.4234 18.4006 14.1884 18.5102 13.7889C18.6667 13.2183 18.75 12.6183 18.75 12V11Z" fill="currentColor"/>
</svg>
