<svg width="24" height="24" viewBox="0 0 24 24" fill="none" xmlns="http://www.w3.org/2000/svg">
<path fill-rule="evenodd" clip-rule="evenodd" d="M2.58325 6.66934C2.58325 6.25513 2.91904 5.91934 3.33325 5.91934H20.6666C21.0808 5.91934 21.4166 6.25513 21.4166 6.66934C21.4166 7.08356 21.0808 7.41934 20.6666 7.41934H3.33325C2.91904 7.41934 2.58325 7.08356 2.58325 6.66934ZM2.58325 12.0027C2.58325 11.5885 2.91904 11.2527 3.33325 11.2527H20.6666C21.0808 11.2527 21.4166 11.5885 21.4166 12.0027C21.4166 12.4169 21.0808 12.7527 20.6666 12.7527H3.33325C2.91904 12.7527 2.58325 12.4169 2.58325 12.0027ZM2.58325 17.336C2.58325 16.9218 2.91904 16.586 3.33325 16.586H20.6666C21.0808 16.586 21.4166 16.9218 21.4166 17.336C21.4166 17.7502 21.0808 18.086 20.6666 18.086H3.33325C2.91904 18.086 2.58325 17.7502 2.58325 17.336Z" fill="currentColor"/>
</svg>
