<svg width="24" height="24" viewBox="0 0 24 24" fill="none" xmlns="http://www.w3.org/2000/svg">
<path fill-rule="evenodd" clip-rule="evenodd" d="M12 2.75C6.89137 2.75 2.75 6.89137 2.75 12C2.75 17.1086 6.89137 21.25 12 21.25C17.1086 21.25 21.25 17.1086 21.25 12C21.25 6.89137 17.1086 2.75 12 2.75ZM1.25 12C1.25 6.06294 6.06294 1.25 12 1.25C17.9371 1.25 22.75 6.06294 22.75 12C22.75 17.9371 17.9371 22.75 12 22.75C6.06294 22.75 1.25 17.9371 1.25 12ZM10 9.41667C9.67783 9.41667 9.41667 9.67783 9.41667 10V14C9.41667 14.3222 9.67783 14.5833 10 14.5833H11.3333C11.6555 14.5833 11.9167 14.3222 11.9167 14V10C11.9167 9.67783 11.6555 9.41667 11.3333 9.41667H10ZM7.91667 10C7.91667 8.84941 8.84941 7.91667 10 7.91667H11.3333C12.4839 7.91667 13.4167 8.84941 13.4167 10V14C13.4167 15.1506 12.4839 16.0833 11.3333 16.0833H10C8.84941 16.0833 7.91667 15.1506 7.91667 14V10ZM15.6667 13.4167C15.6004 13.4167 15.5368 13.443 15.4899 13.4899C15.443 13.5368 15.4167 13.6004 15.4167 13.6667C15.4167 14.0809 15.0809 14.4167 14.6667 14.4167C14.2525 14.4167 13.9167 14.0809 13.9167 13.6667C13.9167 13.2025 14.101 12.7574 14.4292 12.4292C14.7574 12.101 15.2025 11.9167 15.6667 11.9167C16.1308 11.9167 16.5759 12.101 16.9041 12.4292C17.2323 12.7574 17.4167 13.2025 17.4167 13.6667L17.4167 13.668C17.4158 14.1605 17.2481 14.6383 16.941 15.0233L16.2266 15.9167H16.6667C17.0809 15.9167 17.4167 16.2525 17.4167 16.6667C17.4167 17.0809 17.0809 17.4167 16.6667 17.4167H14.6667C14.3784 17.4167 14.1156 17.2514 13.9907 16.9916C13.8658 16.7318 13.9009 16.4234 14.0809 16.1983L15.7684 14.0878C15.8641 13.9678 15.9164 13.8189 15.9167 13.6654L16.6667 13.6667H15.9167C15.9167 13.6004 15.8903 13.5368 15.8434 13.4899C15.7966 13.443 15.733 13.4167 15.6667 13.4167Z" fill="currentColor"/>
</svg>
