<svg width="24" height="24" viewBox="0 0 24 24" fill="none" xmlns="http://www.w3.org/2000/svg">
<path fill-rule="evenodd" clip-rule="evenodd" d="M15.8794 3.16375C15.48 3.00034 15.052 2.91811 14.6205 2.92186C14.1889 2.92561 13.7625 3.01527 13.366 3.18559C12.9695 3.35592 12.6108 3.60352 12.311 3.91392L12.3019 3.92333L4.28767 11.9366C4.28766 11.9366 4.28768 11.9365 4.28767 11.9366C3.30311 12.9211 2.74997 14.2565 2.74997 15.6489C2.74997 17.0413 3.3031 18.3767 4.28767 19.3612C5.27224 20.3458 6.60761 20.8989 8.00001 20.8989C9.39239 20.8989 10.7277 20.3458 11.7123 19.3613C11.7123 19.3613 11.7123 19.3612 11.7123 19.3613L21.4697 9.60303C21.7625 9.31012 22.2374 9.3101 22.5303 9.60298C22.8232 9.89586 22.8232 10.3707 22.5304 10.6636L12.773 20.4219C11.5072 21.6877 9.79023 22.3989 8.00001 22.3989C6.20979 22.3989 4.49289 21.6878 3.22701 20.4219C1.96113 19.156 1.24997 17.4391 1.24997 15.6489C1.24997 13.8587 1.96113 12.1418 3.22701 10.8759L11.2369 2.86693C11.6741 2.41556 12.1965 2.05542 12.7739 1.80738C13.3534 1.55843 13.9767 1.4274 14.6074 1.42192C15.2381 1.41644 15.8636 1.53662 16.4474 1.77545C17.0311 2.01429 17.5615 2.36699 18.0075 2.81298C18.4535 3.25897 18.8062 3.78932 19.045 4.37308C19.2838 4.95683 19.404 5.58231 19.3985 6.21301C19.3931 6.84372 19.262 7.46701 19.0131 8.04653C18.765 8.62393 18.4049 9.14636 17.9536 9.58355L9.93543 17.6061C9.41685 18.1072 8.72216 18.3844 8.00112 18.3782C7.28007 18.3721 6.59029 18.083 6.08034 17.5732C5.57039 17.0634 5.28106 16.3737 5.27469 15.6526C5.26831 14.9316 5.54538 14.2369 6.04624 13.7182L6.05529 13.7088L14.0696 5.69198C14.3624 5.39904 14.8373 5.39896 15.1302 5.69181C15.4232 5.98465 15.4233 6.45952 15.1304 6.75247L7.12133 14.7642C6.8962 14.9996 6.77174 15.3135 6.77463 15.6394C6.77753 15.9671 6.90904 16.2806 7.14083 16.5123C7.37263 16.7441 7.68617 16.8755 8.01391 16.8783C8.33973 16.881 8.65368 16.7565 8.88894 16.5313L16.9064 8.50934C17.2169 8.20954 17.4645 7.851 17.6349 7.45449C17.8052 7.05798 17.8948 6.63151 17.8986 6.19998C17.9023 5.76845 17.8201 5.34049 17.6567 4.94107C17.4933 4.54166 17.252 4.17879 16.9468 3.87364C16.6417 3.56849 16.2788 3.32717 15.8794 3.16375Z" fill="currentColor"/>
</svg>
