<svg width="24" height="24" viewBox="0 0 24 24" fill="none" xmlns="http://www.w3.org/2000/svg">
<path fill-rule="evenodd" clip-rule="evenodd" d="M4.30711 2.71299C4.4232 2.43273 4.69668 2.25 5.00002 2.25H18C18.1989 2.25 18.3897 2.32902 18.5304 2.46967L18 3C18.5304 2.46967 18.5304 2.46967 18.5304 2.46967L18.5327 2.47203L18.5356 2.47496L18.543 2.48255L18.564 2.50462C18.5807 2.5224 18.6026 2.54634 18.6289 2.57643C18.6816 2.6366 18.7521 2.72153 18.8344 2.83125C18.9989 3.0506 19.211 3.36996 19.4208 3.78959C19.8417 4.63131 20.25 5.87043 20.25 7.5C20.25 9.12957 19.8417 10.3687 19.4208 11.2104C19.211 11.63 18.9989 11.9494 18.8344 12.1687C18.7521 12.2785 18.6816 12.3634 18.6289 12.4236C18.6026 12.4537 18.5807 12.4776 18.564 12.4954L18.543 12.5175L18.5356 12.525L18.5327 12.528L18.5315 12.5292C18.5315 12.5292 18.5304 12.5303 18 12L18.5304 12.5303C18.3897 12.671 18.1989 12.75 18 12.75H5.00002C4.69668 12.75 4.4232 12.5673 4.30711 12.287C4.19171 12.0084 4.25444 11.688 4.4659 11.4735L4.46971 11.4695C4.47502 11.4638 4.48536 11.4526 4.50004 11.4358C4.52943 11.4022 4.57607 11.3465 4.6344 11.2688C4.75114 11.1131 4.91402 10.87 5.0792 10.5396C5.40834 9.88131 5.75002 8.87043 5.75002 7.5C5.75002 6.12957 5.40834 5.11869 5.0792 4.46041C4.91402 4.13004 4.75114 3.8869 4.6344 3.73125C4.57607 3.65348 4.52943 3.59777 4.50004 3.56419C4.48536 3.54741 4.47502 3.53619 4.46971 3.53053L4.46592 3.52653C4.25444 3.31204 4.19171 2.99159 4.30711 2.71299ZM6.40089 3.75C6.40754 3.7631 6.41419 3.77629 6.42084 3.78959C6.8417 4.63131 7.25002 5.87043 7.25002 7.5C7.25002 9.12957 6.8417 10.3687 6.42084 11.2104C6.41419 11.2237 6.40754 11.2369 6.40089 11.25H17.6484C17.7639 11.0939 17.9205 10.857 18.0792 10.5396C18.4083 9.88131 18.75 8.87043 18.75 7.5C18.75 6.12957 18.4083 5.11869 18.0792 4.46041C17.9205 4.14302 17.7639 3.90614 17.6484 3.75H6.40089Z" fill="currentColor"/>
<path fill-rule="evenodd" clip-rule="evenodd" d="M4.30711 11.713C4.4232 11.4327 4.69668 11.25 5.00002 11.25H18C18.1989 11.25 18.3897 11.329 18.5304 11.4697L18 12C18.5304 11.4697 18.5304 11.4697 18.5304 11.4697L18.5327 11.472L18.5356 11.475L18.543 11.4825L18.564 11.5046C18.5807 11.5224 18.6026 11.5463 18.6289 11.5764C18.6816 11.6366 18.7521 11.7215 18.8344 11.8313C18.9989 12.0506 19.211 12.37 19.4208 12.7896C19.8417 13.6313 20.25 14.8704 20.25 16.5C20.25 18.1296 19.8417 19.3687 19.4208 20.2104C19.211 20.63 18.9989 20.9494 18.8344 21.1688C18.7521 21.2785 18.6816 21.3634 18.6289 21.4236C18.6026 21.4537 18.5807 21.4776 18.564 21.4954L18.543 21.5175L18.5356 21.525L18.5327 21.528L18.5315 21.5292C18.5315 21.5292 18.5304 21.5303 18 21L18.5304 21.5303C18.3897 21.671 18.1989 21.75 18 21.75H5.00002C4.69668 21.75 4.4232 21.5673 4.30711 21.287C4.19171 21.0084 4.25444 20.688 4.4659 20.4735L4.46971 20.4695C4.47502 20.4638 4.48536 20.4526 4.50004 20.4358C4.52943 20.4022 4.57607 20.3465 4.6344 20.2687C4.75114 20.1131 4.91402 19.87 5.0792 19.5396C5.40834 18.8813 5.75002 17.8704 5.75002 16.5C5.75002 15.1296 5.40834 14.1187 5.0792 13.4604C4.91402 13.13 4.75114 12.8869 4.6344 12.7312C4.57607 12.6535 4.52943 12.5978 4.50004 12.5642C4.48536 12.5474 4.47502 12.5362 4.46971 12.5305L4.46592 12.5265C4.25444 12.312 4.19171 11.9916 4.30711 11.713ZM6.40089 12.75C6.40754 12.7631 6.41419 12.7763 6.42084 12.7896C6.8417 13.6313 7.25002 14.8704 7.25002 16.5C7.25002 18.1296 6.8417 19.3687 6.42084 20.2104C6.41419 20.2237 6.40754 20.2369 6.40089 20.25H17.6484C17.7639 20.0939 17.9205 19.857 18.0792 19.5396C18.4083 18.8813 18.75 17.8704 18.75 16.5C18.75 15.1296 18.4083 14.1187 18.0792 13.4604C17.9205 13.143 17.7639 12.9061 17.6484 12.75H6.40089Z" fill="currentColor"/>
<path fill-rule="evenodd" clip-rule="evenodd" d="M8.5 5.5C8.5 5.22386 8.72386 5 9 5H13C13.2761 5 13.5 5.22386 13.5 5.5C13.5 5.77614 13.2761 6 13 6H9C8.72386 6 8.5 5.77614 8.5 5.5Z" fill="currentColor"/>
<path fill-rule="evenodd" clip-rule="evenodd" d="M13 15C13 14.7239 13.2239 14.5 13.5 14.5H16.5C16.7761 14.5 17 14.7239 17 15C17 15.2761 16.7761 15.5 16.5 15.5H13.5C13.2239 15.5 13 15.2761 13 15Z" fill="currentColor"/>
<path fill-rule="evenodd" clip-rule="evenodd" d="M13 17C13 16.7239 13.2239 16.5 13.5 16.5H16.5C16.7761 16.5 17 16.7239 17 17C17 17.2761 16.7761 17.5 16.5 17.5H13.5C13.2239 17.5 13 17.2761 13 17Z" fill="currentColor"/>
<path fill-rule="evenodd" clip-rule="evenodd" d="M10 15.5C10.4142 15.5 10.75 15.1642 10.75 14.75C10.75 14.3358 10.4142 14 10 14C9.58579 14 9.25 14.3358 9.25 14.75C9.25 15.1642 9.58579 15.5 10 15.5ZM10 15.875C9.17157 15.875 8.5 16.5466 8.5 17.375C8.5 17.5821 8.66789 17.75 8.875 17.75H11.125C11.3321 17.75 11.5 17.5821 11.5 17.375C11.5 16.5466 10.8284 15.875 10 15.875Z" fill="currentColor"/>
</svg>
