<svg width="24" height="24" viewBox="0 0 24 24" fill="none" xmlns="http://www.w3.org/2000/svg">
<path fill-rule="evenodd" clip-rule="evenodd" d="M18.3263 1.87478C18.826 1.8714 19.3214 1.96705 19.7839 2.15621C20.2464 2.34537 20.6668 2.62429 21.0209 2.97686L21.0229 2.97893C21.3756 3.33289 21.6547 3.75325 21.8439 4.21571C22.0332 4.67817 22.1289 5.17356 22.1255 5.67323C22.1221 6.17291 22.0197 6.66695 21.8242 7.12681C21.6293 7.58521 21.3458 8.00058 20.9899 8.34905L8.9095 20.4295C8.81447 20.5245 8.69567 20.5923 8.5655 20.6256L2.81133 22.1015C2.55458 22.1673 2.28214 22.0928 2.09471 21.9054C1.90727 21.7179 1.83267 21.4455 1.89849 21.1888L3.37349 15.4346C3.40687 15.3044 3.47462 15.1855 3.56967 15.0905L15.6501 3.01004C15.9988 2.65421 16.4142 2.37074 16.8728 2.17592C17.3326 1.98051 17.8267 1.87816 18.3263 1.87478ZM19.216 3.54457C18.9369 3.43043 18.638 3.37271 18.3365 3.37475C18.035 3.37679 17.7369 3.43855 17.4593 3.55646C17.1818 3.67438 16.9304 3.84611 16.7197 4.06173L16.7137 4.06785L4.77552 16.006L3.66618 20.3337L7.99399 19.2237L19.9384 7.27925C20.1541 7.06862 20.3258 6.81738 20.4438 6.53996C20.5617 6.26255 20.6235 5.96451 20.6255 5.66308C20.6276 5.36164 20.5698 5.06279 20.4557 4.78381C20.3417 4.50527 20.1737 4.25204 19.9614 4.03873C19.748 3.82647 19.4947 3.65853 19.216 3.54457Z" fill="currentColor"/>
<path fill-rule="evenodd" clip-rule="evenodd" d="M14.308 4.35299C14.6009 4.0601 15.0758 4.0601 15.3687 4.35299L19.647 8.63133C19.9399 8.92422 19.9399 9.39909 19.647 9.69199C19.3541 9.98488 18.8792 9.98488 18.5863 9.69199L14.308 5.41365C14.0151 5.12076 14.0151 4.64588 14.308 4.35299ZM3.56967 15.0905C3.86231 14.7973 4.33755 14.7966 4.6307 15.0892L8.9132 19.3642C9.20635 19.6568 9.20676 20.1317 8.91412 20.4249C8.62149 20.718 8.14662 20.7184 7.85347 20.4258L3.57097 16.1508C3.27782 15.8581 3.27703 15.3836 3.56967 15.0905Z" fill="currentColor"/>
</svg>
