<svg width="24" height="24" viewBox="0 0 24 24" fill="none" xmlns="http://www.w3.org/2000/svg">
<path fill-rule="evenodd" clip-rule="evenodd" d="M4.25072 2.25072C4.89147 1.60997 5.76051 1.25 6.66667 1.25C7.57282 1.25 8.44187 1.60997 9.08261 2.25072C9.72336 2.89147 10.0833 3.76051 10.0833 4.66667C10.0833 5.57283 9.72336 6.44187 9.08261 7.08262C8.64106 7.52417 8.0911 7.83239 7.49528 7.98135C7.92375 8.04758 8.34534 8.16542 8.7506 8.33422C9.85239 8.79313 10.7718 9.60305 11.366 10.6382C11.5722 10.9974 11.4482 11.4558 11.0889 11.662C10.7297 11.8682 10.2713 11.7442 10.0651 11.3849C9.63543 10.6364 8.97058 10.0508 8.17385 9.7189C7.37712 9.38705 6.4931 9.32759 5.65911 9.54976C4.82512 9.77194 4.08783 10.2633 3.56178 10.9475C3.0358 11.6317 2.75043 12.4704 2.75 13.3333V14.5833H4C4.38531 14.5833 4.70794 14.8753 4.74628 15.2587L5.34541 21.25H7.98807L8.20841 19.0514C8.24971 18.6393 8.61731 18.3387 9.02946 18.38C9.4416 18.4213 9.74223 18.7889 9.70093 19.201L9.41293 22.0748C9.37451 22.4581 9.05192 22.75 8.66667 22.75H4.66667C4.28135 22.75 3.95873 22.458 3.92039 22.0746L3.32126 16.0833H2C1.58579 16.0833 1.25 15.7476 1.25 15.3333V13.3333C1.2505 12.1398 1.64514 10.9795 2.37261 10.0333C3.10008 9.08706 4.11966 8.40755 5.27298 8.10031C5.46001 8.05049 5.64886 8.01091 5.83872 7.98151C5.24265 7.83262 4.69244 7.52434 4.25072 7.08262C3.60997 6.44187 3.25 5.57283 3.25 4.66667C3.25 3.76051 3.60997 2.89147 4.25072 2.25072ZM6.66667 2.75C6.15833 2.75 5.67082 2.95194 5.31138 3.31138C4.95193 3.67083 4.75 4.15834 4.75 4.66667C4.75 5.175 4.95193 5.66251 5.31138 6.02196C5.67082 6.3814 6.15834 6.58334 6.66667 6.58334C7.175 6.58334 7.66251 6.3814 8.02195 6.02196C8.3814 5.66251 8.58333 5.175 8.58333 4.66667C8.58333 4.15834 8.3814 3.67083 8.02195 3.31138C7.66251 2.95194 7.175 2.75 6.66667 2.75ZM13.8198 2.15309C14.398 1.57485 15.1822 1.25 16 1.25C16.8178 1.25 17.602 1.57485 18.1802 2.15309C18.7585 2.73133 19.0833 3.51559 19.0833 4.33334C19.0833 5.15109 18.7585 5.93535 18.1802 6.51358C18.0348 6.65901 17.8764 6.78842 17.7076 6.90065C18.0098 7.01684 18.3004 7.16401 18.5745 7.3405C19.2097 7.74946 19.7382 8.30402 20.1161 8.95816C20.3233 9.31682 20.2005 9.77555 19.8418 9.98275C19.4832 10.19 19.0245 10.0672 18.8173 9.70852C18.5587 9.26095 18.1971 8.88151 17.7625 8.6017C17.3279 8.32188 16.8328 8.14976 16.3184 8.09962C15.8039 8.04949 15.2849 8.12278 14.8045 8.31341C14.324 8.50404 13.896 8.80652 13.5559 9.19574C13.2833 9.50764 12.8095 9.53954 12.4976 9.26698C12.1857 8.99442 12.1538 8.52062 12.4264 8.20871C12.9235 7.63986 13.5491 7.19777 14.2513 6.91915C14.2657 6.91342 14.2802 6.90776 14.2947 6.90217C14.1251 6.78959 13.9658 6.65967 13.8198 6.51358C13.2415 5.93535 12.9167 5.15109 12.9167 4.33334C12.9167 3.51559 13.2415 2.73133 13.8198 2.15309ZM16 2.75C15.5801 2.75 15.1773 2.91682 14.8804 3.21375C14.5835 3.51068 14.4167 3.91341 14.4167 4.33334C14.4167 4.75326 14.5835 5.15599 14.8804 5.45292C15.1773 5.74986 15.5801 5.91667 16 5.91667C16.4199 5.91667 16.8227 5.74986 17.1196 5.45292C17.4165 5.15599 17.5833 4.75326 17.5833 4.33334C17.5833 3.91341 17.4165 3.51068 17.1196 3.21375C16.8227 2.91682 16.4199 2.75 16 2.75ZM12.3651 12.3651C13.5059 11.2243 15.0533 10.5833 16.6667 10.5833C18.2801 10.5833 19.8274 11.2243 20.9682 12.3651C22.1091 13.506 22.75 15.0533 22.75 16.6667C22.75 18.2801 22.1091 19.8274 20.9682 20.9682C19.8274 22.1091 18.2801 22.75 16.6667 22.75C15.0533 22.75 13.5059 22.1091 12.3651 20.9682C11.2243 19.8274 10.5833 18.2801 10.5833 16.6667C10.5833 15.0533 11.2243 13.506 12.3651 12.3651ZM16.6667 12.0833C15.4511 12.0833 14.2853 12.5662 13.4258 13.4258C12.5662 14.2853 12.0833 15.4511 12.0833 16.6667C12.0833 17.8822 12.5662 19.048 13.4258 19.9076C14.2853 20.7671 15.4511 21.25 16.6667 21.25C17.8822 21.25 19.048 20.7671 19.9076 19.9076C20.7671 19.048 21.25 17.8822 21.25 16.6667C21.25 15.4511 20.7671 14.2853 19.9076 13.4258C19.048 12.5662 17.8822 12.0833 16.6667 12.0833ZM16.1363 13.4697C16.4292 13.1768 16.9041 13.1768 17.197 13.4697L19.197 15.4697C19.4899 15.7626 19.4899 16.2374 19.197 16.5303C18.9041 16.8232 18.4292 16.8232 18.1363 16.5303L17.4167 15.8107V19.3333C17.4167 19.7475 17.0809 20.0833 16.6667 20.0833C16.2525 20.0833 15.9167 19.7475 15.9167 19.3333V15.8107L15.197 16.5303C14.9041 16.8232 14.4292 16.8232 14.1363 16.5303C13.8434 16.2374 13.8434 15.7626 14.1363 15.4697L16.1363 13.4697Z" fill="currentColor"/>
</svg>
