<svg width="24" height="24" viewBox="0 0 24 24" fill="none" xmlns="http://www.w3.org/2000/svg">
<path fill-rule="evenodd" clip-rule="evenodd" d="M7.5 5.75C6.25736 5.75 5.25 6.75736 5.25 8C5.25 9.24264 6.25736 10.25 7.5 10.25C8.74264 10.25 9.75 9.24264 9.75 8C9.75 6.75736 8.74264 5.75 7.5 5.75ZM3.75 8C3.75 5.92893 5.42893 4.25 7.5 4.25C9.57107 4.25 11.25 5.92893 11.25 8C11.25 10.0711 9.57107 11.75 7.5 11.75C5.42893 11.75 3.75 10.0711 3.75 8Z" fill="currentColor"/>
<path fill-rule="evenodd" clip-rule="evenodd" d="M16.5 5.75C15.2574 5.75 14.25 6.75736 14.25 8C14.25 9.24264 15.2574 10.25 16.5 10.25C17.7426 10.25 18.75 9.24264 18.75 8C18.75 6.75736 17.7426 5.75 16.5 5.75ZM12.75 8C12.75 5.92893 14.4289 4.25 16.5 4.25C18.5711 4.25 20.25 5.92893 20.25 8C20.25 10.0711 18.5711 11.75 16.5 11.75C14.4289 11.75 12.75 10.0711 12.75 8Z" fill="currentColor"/>
<path fill-rule="evenodd" clip-rule="evenodd" d="M7.5 13.75C4.87665 13.75 2.75 15.8766 2.75 18.5C2.75 18.9142 2.41421 19.25 2 19.25C1.58579 19.25 1.25 18.9142 1.25 18.5C1.25 15.0482 4.04822 12.25 7.5 12.25C10.9518 12.25 13.75 15.0482 13.75 18.5C13.75 18.9142 13.4142 19.25 13 19.25C12.5858 19.25 12.25 18.9142 12.25 18.5C12.25 15.8766 10.1234 13.75 7.5 13.75Z" fill="currentColor"/>
<path fill-rule="evenodd" clip-rule="evenodd" d="M16.5 13.75C15.8893 13.75 15.3071 13.8649 14.7728 14.0736C14.387 14.2242 13.9521 14.0336 13.8014 13.6478C13.6507 13.2619 13.8413 12.827 14.2272 12.6763C14.9326 12.4008 15.6996 12.25 16.5 12.25C19.9518 12.25 22.75 15.0482 22.75 18.5C22.75 18.9142 22.4142 19.25 22 19.25C21.5858 19.25 21.25 18.9142 21.25 18.5C21.25 15.8766 19.1234 13.75 16.5 13.75Z" fill="currentColor"/>
</svg>
