<svg width="24" height="24" viewBox="0 0 24 24" fill="none" xmlns="http://www.w3.org/2000/svg">
<path fill-rule="evenodd" clip-rule="evenodd" d="M9.58405 2.25072C10.2248 1.60997 11.0938 1.25 12 1.25C12.9062 1.25 13.7752 1.60997 14.4159 2.25072C15.0567 2.89147 15.4167 3.76051 15.4167 4.66667C15.4167 5.57282 15.0567 6.44187 14.4159 7.08261C13.9631 7.53542 13.3963 7.848 12.783 7.99242C13.5745 8.14707 14.3088 8.53408 14.8874 9.11265C15.6531 9.87842 16.0833 10.917 16.0833 12V14C16.0833 14.4142 15.7475 14.75 15.3333 14.75H14.6621L14.0775 19.4264C14.0306 19.8017 13.7116 20.0833 13.3333 20.0833H10.6667C10.2884 20.0833 9.96937 19.8017 9.92246 19.4264L9.33791 14.75H8.66667C8.25245 14.75 7.91667 14.4142 7.91667 14V12C7.91667 10.917 8.34687 9.87842 9.11265 9.11265C9.69121 8.53408 10.4255 8.14707 11.217 7.99242C10.6037 7.848 10.0369 7.53542 9.58405 7.08261C8.9433 6.44187 8.58333 5.57282 8.58333 4.66667C8.58333 3.76051 8.9433 2.89147 9.58405 2.25072ZM12 2.75C11.4917 2.75 11.0042 2.95193 10.6447 3.31138C10.2853 3.67082 10.0833 4.15833 10.0833 4.66667C10.0833 5.175 10.2853 5.66251 10.6447 6.02195C11.0042 6.3814 11.4917 6.58333 12 6.58333C12.5083 6.58333 12.9958 6.3814 13.3553 6.02195C13.7147 5.66251 13.9167 5.175 13.9167 4.66667C13.9167 4.15834 13.7147 3.67082 13.3553 3.31138C12.9958 2.95193 12.5083 2.75 12 2.75ZM3.38879 4.72212C3.90451 4.2064 4.60399 3.91667 5.33333 3.91667C6.06268 3.91667 6.76215 4.2064 7.27788 4.72212C7.7936 5.23785 8.08333 5.93732 8.08333 6.66667C8.08333 7.39601 7.7936 8.09549 7.27788 8.61121C6.93913 8.94995 6.52112 9.1912 6.06743 9.31688C6.26076 9.35206 6.45186 9.40123 6.63921 9.46428C7.03179 9.59639 7.24294 10.0217 7.11083 10.4143C6.97872 10.8069 6.55337 11.0181 6.16079 10.8859C5.77206 10.7551 5.35779 10.7186 4.95218 10.7795C4.54658 10.8404 4.16126 10.9969 3.82806 11.236C3.49486 11.4752 3.22333 11.7902 3.03587 12.155C2.86126 12.4948 2.76427 12.8688 2.75146 13.25H3.33333C3.69996 13.25 4.01286 13.5151 4.07313 13.8767L4.63535 17.25H6.03132L6.26109 15.8714C6.32919 15.4628 6.71561 15.1868 7.12419 15.2549C7.53277 15.323 7.80878 15.7094 7.74068 16.118L7.40646 18.1233C7.34619 18.4849 7.0333 18.75 6.66667 18.75H4C3.63337 18.75 3.32048 18.4849 3.2602 18.1233L2.69799 14.75H2C1.58579 14.75 1.25 14.4142 1.25 14V13.3333C1.25069 12.6853 1.40552 12.0459 1.7017 11.4695C1.99788 10.8931 2.42692 10.3954 2.95339 10.0175C3.44464 9.66485 4.00757 9.42599 4.60136 9.31747C4.14685 9.19195 3.72806 8.95048 3.38879 8.61121C2.87306 8.09549 2.58333 7.39601 2.58333 6.66667C2.58333 5.93732 2.87306 5.23785 3.38879 4.72212ZM5.33333 5.41667C5.00181 5.41667 4.68387 5.54836 4.44945 5.78278C4.21503 6.0172 4.08333 6.33515 4.08333 6.66667C4.08333 6.99819 4.21503 7.31613 4.44945 7.55055C4.68387 7.78497 5.00181 7.91667 5.33333 7.91667C5.66485 7.91667 5.9828 7.78497 6.21722 7.55055C6.45164 7.31613 6.58333 6.99819 6.58333 6.66667C6.58333 6.33515 6.45164 6.0172 6.21722 5.78278C5.9828 5.54836 5.66485 5.41667 5.33333 5.41667ZM16.7221 4.72212C17.2378 4.2064 17.9373 3.91667 18.6667 3.91667C19.396 3.91667 20.0955 4.2064 20.6112 4.72212C21.1269 5.23785 21.4167 5.93732 21.4167 6.66667C21.4167 7.39601 21.1269 8.09549 20.6112 8.61121C20.2719 8.95048 19.8531 9.19195 19.3986 9.31747C19.9924 9.42599 20.5554 9.66485 21.0466 10.0175C21.5731 10.3954 22.0021 10.893 22.2983 11.4695C22.5945 12.0459 22.7493 12.6845 22.75 13.3325V14C22.75 14.4142 22.4142 14.75 22 14.75H21.302L20.7398 18.1233C20.6795 18.4849 20.3666 18.75 20 18.75H17.3333C16.9667 18.75 16.6538 18.4849 16.5935 18.1233L16.2593 16.118C16.1912 15.7094 16.4672 15.323 16.8758 15.2549C17.2844 15.1868 17.6708 15.4628 17.7389 15.8714L17.9687 17.25H19.3647L19.9269 13.8767C19.9871 13.5151 20.3 13.25 20.6667 13.25H21.2485C21.2357 12.8688 21.1387 12.4948 20.9641 12.155C20.7767 11.7902 20.5051 11.4752 20.1719 11.236C19.8387 10.9969 19.4534 10.8404 19.0478 10.7795C18.6422 10.7186 18.2279 10.7551 17.8392 10.8859C17.4466 11.0181 17.0213 10.8069 16.8892 10.4143C16.7571 10.0217 16.9682 9.59639 17.3608 9.46428C17.5481 9.40123 17.7392 9.35206 17.9326 9.31688C17.4789 9.1912 17.0609 8.94995 16.7221 8.61121C16.2064 8.09549 15.9167 7.39601 15.9167 6.66667C15.9167 5.93732 16.2064 5.23785 16.7221 4.72212ZM18.6667 5.41667C18.3351 5.41667 18.0172 5.54836 17.7828 5.78278C17.5484 6.0172 17.4167 6.33515 17.4167 6.66667C17.4167 6.99819 17.5484 7.31613 17.7828 7.55055C18.0172 7.78497 18.3351 7.91667 18.6667 7.91667C18.9982 7.91667 19.3161 7.78497 19.5506 7.55055C19.785 7.31613 19.9167 6.99819 19.9167 6.66667C19.9167 6.33515 19.785 6.0172 19.5506 5.78278C19.3161 5.54836 18.9982 5.41667 18.6667 5.41667ZM12 9.41667C11.3149 9.41667 10.6578 9.68884 10.1733 10.1733C9.68884 10.6578 9.41667 11.3149 9.41667 12V13.25H10C10.3782 13.25 10.6973 13.5317 10.7442 13.907L11.3288 18.5833H12.6712L13.2558 13.907C13.3027 13.5317 13.6218 13.25 14 13.25H14.5833V12C14.5833 11.3149 14.3112 10.6578 13.8267 10.1733C13.3422 9.68884 12.6851 9.41667 12 9.41667ZM2.74026 19.8788C2.68234 19.5222 2.37296 19.25 2 19.25C1.58579 19.25 1.25 19.5858 1.25 20C1.25 20.4108 1.46137 20.7268 1.67891 20.9395C1.89518 21.1509 2.17391 21.3189 2.46526 21.4566C3.05176 21.734 3.85252 21.9639 4.78193 22.1498C6.65311 22.524 9.20471 22.75 12 22.75C14.7953 22.75 17.3469 22.524 19.2181 22.1498C20.1475 21.9639 20.9482 21.734 21.5347 21.4566C21.8261 21.3189 22.1048 21.1509 22.3211 20.9395C22.5386 20.7268 22.75 20.4108 22.75 20C22.75 19.5858 22.4142 19.25 22 19.25C21.627 19.25 21.3177 19.5222 21.2597 19.8788C21.2041 19.9289 21.0916 20.0069 20.8935 20.1006C20.4679 20.3019 19.8042 20.5029 18.9239 20.6789C17.1758 21.0285 14.7274 21.25 12 21.25C9.27263 21.25 6.82423 21.0285 5.07607 20.6789C4.19581 20.5029 3.53208 20.3019 3.10649 20.1006C2.90842 20.007 2.79589 19.9289 2.74026 19.8788Z" fill="currentColor"/>
</svg>
