<svg width="24" height="24" viewBox="0 0 24 24" fill="none" xmlns="http://www.w3.org/2000/svg">
<path fill-rule="evenodd" clip-rule="evenodd" d="M4.25072 2.25072C4.89147 1.60997 5.76051 1.25 6.66667 1.25C7.57282 1.25 8.44187 1.60997 9.08261 2.25072C9.72336 2.89147 10.0833 3.76051 10.0833 4.66667C10.0833 5.57282 9.72336 6.44186 9.08261 7.08261C8.64164 7.52359 8.09253 7.83158 7.49761 7.98076C8.62651 8.156 9.67897 8.68531 10.4968 9.50317C11.5126 10.519 12.0833 11.8967 12.0833 13.3333V15.3333C12.0833 15.7475 11.7475 16.0833 11.3333 16.0833H10.0121L9.41294 22.0746C9.3746 22.458 9.05198 22.75 8.66667 22.75H4.66667C4.28135 22.75 3.95873 22.458 3.92039 22.0746L3.32126 16.0833H2C1.58579 16.0833 1.25 15.7475 1.25 15.3333V13.3333C1.25 11.8967 1.82068 10.519 2.8365 9.50317C3.65436 8.68531 4.70683 8.156 5.83572 7.98076C5.2408 7.83158 4.69169 7.52359 4.25072 7.08261C3.60997 6.44186 3.25 5.57282 3.25 4.66667C3.25 3.76051 3.60997 2.89147 4.25072 2.25072ZM6.66667 2.75C6.15833 2.75 5.67082 2.95193 5.31138 3.31138C4.95193 3.67082 4.75 4.15833 4.75 4.66667C4.75 5.175 4.95193 5.66251 5.31138 6.02195C5.67082 6.3814 6.15834 6.58333 6.66667 6.58333C7.175 6.58333 7.66251 6.3814 8.02195 6.02195C8.3814 5.66251 8.58333 5.175 8.58333 4.66667C8.58333 4.15833 8.3814 3.67082 8.02195 3.31138C7.66251 2.95193 7.175 2.75 6.66667 2.75ZM14.9174 2.25072C15.5581 1.60997 16.4272 1.25 17.3333 1.25C18.2395 1.25 19.1085 1.60997 19.7493 2.25072C20.39 2.89147 20.75 3.76051 20.75 4.66667C20.75 5.57282 20.39 6.44186 19.7493 7.08261C19.306 7.52587 18.7535 7.83475 18.1551 7.98305C18.3646 8.01522 18.573 8.05979 18.7789 8.11683C19.9199 8.43279 20.9259 9.11386 21.6431 10.0558C22.3603 10.9978 22.7491 12.1488 22.75 13.3327V15.3333C22.75 15.7475 22.4142 16.0833 22 16.0833H20.6787L20.0796 22.0746C20.0413 22.458 19.7186 22.75 19.3333 22.75H15.3333C14.948 22.75 14.6254 22.458 14.5871 22.0746L13.9879 16.0833H13.3333C12.9191 16.0833 12.5833 15.7475 12.5833 15.3333C12.5833 14.9191 12.9191 14.5833 13.3333 14.5833H14.6667C15.052 14.5833 15.3746 14.8753 15.4129 15.2587L16.0121 21.25H18.6546L19.2537 15.2587C19.2921 14.8753 19.6147 14.5833 20 14.5833H21.25V13.3339C21.2493 12.4779 20.9682 11.6456 20.4496 10.9645C19.9311 10.2834 19.2036 9.79089 18.3786 9.56242C17.5536 9.33396 16.6765 9.38208 15.8814 9.69943C15.0863 10.0168 14.4171 10.5859 13.9762 11.3196C13.7628 11.6747 13.3021 11.7895 12.947 11.5762C12.592 11.3628 12.4771 10.9021 12.6905 10.547C13.3003 9.53224 14.2258 8.74519 15.3253 8.30631C15.7095 8.15295 16.1076 8.04506 16.5116 7.98305C15.9131 7.83475 15.3606 7.52587 14.9174 7.08261C14.2766 6.44186 13.9167 5.57282 13.9167 4.66667C13.9167 3.76051 14.2766 2.89147 14.9174 2.25072ZM17.3333 2.75C16.825 2.75 16.3375 2.95193 15.978 3.31138C15.6186 3.67082 15.4167 4.15833 15.4167 4.66667C15.4167 5.175 15.6186 5.66251 15.978 6.02195C16.3375 6.3814 16.825 6.58333 17.3333 6.58333C17.8417 6.58333 18.3292 6.3814 18.6886 6.02195C19.0481 5.66251 19.25 5.175 19.25 4.66667C19.25 4.15833 19.0481 3.67082 18.6886 3.31138C18.3292 2.95193 17.8417 2.75 17.3333 2.75ZM6.66667 9.41667C5.6279 9.41667 4.63168 9.82931 3.89717 10.5638C3.16265 11.2983 2.75 12.2946 2.75 13.3333V14.5833H4C4.38531 14.5833 4.70794 14.8753 4.74628 15.2587L5.34541 21.25H7.98793L8.58706 15.2587C8.6254 14.8753 8.94802 14.5833 9.33333 14.5833H10.5833V13.3333C10.5833 12.2946 10.1707 11.2983 9.43617 10.5638C8.70165 9.82931 7.70543 9.41667 6.66667 9.41667Z" fill="currentColor"/>
</svg>
