<svg width="24" height="24" viewBox="0 0 24 24" fill="none" xmlns="http://www.w3.org/2000/svg">
<path fill-rule="evenodd" clip-rule="evenodd" d="M9.58405 2.25071C10.2248 1.60996 11.0938 1.24999 12 1.24999C12.9062 1.24999 13.7752 1.60996 14.4159 2.25071C15.0567 2.89146 15.4167 3.7605 15.4167 4.66666C15.4167 5.57282 15.0567 6.44186 14.4159 7.08261C13.975 7.52358 13.4259 7.83157 12.8309 7.98075C13.9598 8.156 15.0123 8.68531 15.8302 9.50316C16.846 10.519 17.4167 11.8967 17.4167 13.3333V15.3333C17.4167 15.7475 17.0809 16.0833 16.6667 16.0833H15.3454L14.7463 22.0746C14.7079 22.458 14.3853 22.75 14 22.75H10C9.61469 22.75 9.29206 22.458 9.25372 22.0746L8.65459 16.0833H7.33333C6.91912 16.0833 6.58333 15.7475 6.58333 15.3333V13.3333C6.58333 11.8967 7.15402 10.519 8.16984 9.50316C8.9877 8.68531 10.0402 8.156 11.1691 7.98075C10.5741 7.83157 10.025 7.52358 9.58405 7.08261C8.9433 6.44186 8.58333 5.57281 8.58333 4.66666C8.58333 3.7605 8.9433 2.89146 9.58405 2.25071ZM12 2.74999C11.4917 2.74999 11.0042 2.95193 10.6447 3.31137C10.2853 3.67082 10.0833 4.15833 10.0833 4.66666C10.0833 5.17499 10.2853 5.6625 10.6447 6.02195C11.0042 6.38139 11.4917 6.58333 12 6.58333C12.5083 6.58333 12.9958 6.38139 13.3553 6.02195C13.7147 5.6625 13.9167 5.17499 13.9167 4.66666C13.9167 4.15833 13.7147 3.67082 13.3553 3.31137C12.9958 2.95193 12.5083 2.74999 12 2.74999ZM3.38879 4.72212C3.90451 4.20639 4.60399 3.91666 5.33333 3.91666C6.06268 3.91666 6.76215 4.20639 7.27788 4.72212C7.7936 5.23784 8.08333 5.93731 8.08333 6.66666C8.08333 7.39601 7.7936 8.09548 7.27788 8.6112C6.86389 9.02519 6.33151 9.29355 5.76032 9.38332C5.95551 9.51873 6.08333 9.74443 6.08333 9.99999C6.08333 10.4142 5.74755 10.75 5.33333 10.75C4.64819 10.75 3.99111 11.0222 3.50664 11.5066C3.02217 11.9911 2.75 12.6482 2.75 13.3333V14.5833H3.33333C3.71158 14.5833 4.03063 14.865 4.07754 15.2403L4.66209 19.9167H6.66667C7.08088 19.9167 7.41667 20.2524 7.41667 20.6667C7.41667 21.0809 7.08088 21.4167 6.66667 21.4167H4C3.62176 21.4167 3.30271 21.135 3.25579 20.7597L2.67125 16.0833H2C1.58579 16.0833 1.25 15.7475 1.25 15.3333V13.3333C1.25 12.2504 1.68021 11.2117 2.44598 10.446C3.03624 9.85571 3.7886 9.46482 4.59843 9.31665C4.14506 9.19091 3.72733 8.94975 3.38879 8.6112C2.87306 8.09548 2.58333 7.396 2.58333 6.66666C2.58333 5.93731 2.87306 5.23784 3.38879 4.72212ZM5.33333 5.41666C5.00181 5.41666 4.68387 5.54836 4.44945 5.78278C4.21503 6.0172 4.08333 6.33514 4.08333 6.66666C4.08333 6.99818 4.21503 7.31612 4.44945 7.55054C4.68387 7.78496 5.00181 7.91666 5.33333 7.91666C5.66485 7.91666 5.9828 7.78496 6.21722 7.55054C6.45164 7.31612 6.58333 6.99818 6.58333 6.66666C6.58333 6.33514 6.45164 6.0172 6.21722 5.78278C5.9828 5.54836 5.66485 5.41666 5.33333 5.41666ZM16.7221 4.72212C17.2378 4.20639 17.9373 3.91666 18.6667 3.91666C19.396 3.91666 20.0955 4.20639 20.6112 4.72212C21.1269 5.23784 21.4167 5.93731 21.4167 6.66666C21.4167 7.39601 21.1269 8.09548 20.6112 8.6112C20.2727 8.94975 19.8549 9.19091 19.4016 9.31665C20.2114 9.46483 20.9638 9.85571 21.554 10.446C22.3198 11.2117 22.75 12.2504 22.75 13.3333V15.3333C22.75 15.7475 22.4142 16.0833 22 16.0833H21.3288L20.7442 20.7597C20.6973 21.135 20.3782 21.4167 20 21.4167H17.3333C16.9191 21.4167 16.5833 21.0809 16.5833 20.6667C16.5833 20.2524 16.9191 19.9167 17.3333 19.9167H19.3379L19.9225 15.2403C19.9694 14.865 20.2884 14.5833 20.6667 14.5833H21.25V13.3333C21.25 12.6482 20.9778 11.9911 20.4934 11.5066C20.0089 11.0222 19.3518 10.75 18.6667 10.75C18.2525 10.75 17.9167 10.4142 17.9167 9.99999C17.9167 9.74443 18.0445 9.51873 18.2397 9.38332C17.6685 9.29355 17.1361 9.02519 16.7221 8.6112C16.2064 8.09548 15.9167 7.39601 15.9167 6.66666C15.9167 5.93731 16.2064 5.23784 16.7221 4.72212ZM18.6667 5.41666C18.3351 5.41666 18.0172 5.54836 17.7828 5.78278C17.5484 6.0172 17.4167 6.33514 17.4167 6.66666C17.4167 6.99818 17.5484 7.31612 17.7828 7.55054C18.0172 7.78496 18.3351 7.91666 18.6667 7.91666C18.9982 7.91666 19.3161 7.78496 19.5506 7.55054C19.785 7.31612 19.9167 6.99818 19.9167 6.66666C19.9167 6.33514 19.785 6.0172 19.5506 5.78278C19.3161 5.54836 18.9982 5.41666 18.6667 5.41666ZM12 9.41666C10.9612 9.41666 9.96502 9.82931 9.2305 10.5638C8.49598 11.2983 8.08333 12.2946 8.08333 13.3333V14.5833H9.33333C9.71865 14.5833 10.0413 14.8753 10.0796 15.2587L10.6787 21.25H13.3213L13.9204 15.2587C13.9587 14.8753 14.2814 14.5833 14.6667 14.5833H15.9167V13.3333C15.9167 12.2946 15.504 11.2983 14.7695 10.5638C14.035 9.82931 13.0388 9.41666 12 9.41666Z" fill="currentColor"/>
</svg>
