<svg width="24" height="24" viewBox="0 0 24 24" fill="none" xmlns="http://www.w3.org/2000/svg">
<path fill-rule="evenodd" clip-rule="evenodd" d="M4.3986 4.3986C6.41462 2.38259 9.14892 1.25 12 1.25C14.8511 1.25 17.5854 2.38259 19.6014 4.3986C21.6174 6.41462 22.75 9.14892 22.75 12C22.75 14.8511 21.6174 17.5854 19.6014 19.6014C19.2924 19.9104 18.9665 20.1987 18.6259 20.4653C18.6121 20.4769 18.598 20.4878 18.5836 20.4982C16.7095 21.9501 14.396 22.75 12 22.75C9.604 22.75 7.29048 21.9501 5.41643 20.4982C5.40203 20.4878 5.38792 20.4769 5.37413 20.4653C5.03352 20.1987 4.70762 19.9104 4.3986 19.6014C2.38259 17.5854 1.25 14.8511 1.25 12C1.25 9.14892 2.38259 6.41462 4.3986 4.3986ZM7.0559 19.8179C8.52367 20.746 10.2359 21.25 12 21.25C13.7641 21.25 15.4763 20.746 16.9441 19.8179C16.3664 19.3556 15.7255 18.9757 15.0397 18.6903C14.0764 18.2895 13.0433 18.0832 12 18.0832C10.9567 18.0832 9.92363 18.2895 8.96035 18.6903C8.27448 18.9757 7.63361 19.3556 7.0559 19.8179ZM18.1724 18.8894C17.4118 18.2288 16.5488 17.6935 15.6158 17.3054C14.47 16.8286 13.2411 16.5832 12 16.5832C10.7589 16.5832 9.53004 16.8286 8.38415 17.3054C7.4512 17.6935 6.58825 18.2288 5.82759 18.8894C5.70198 18.7769 5.57914 18.6606 5.45926 18.5407C3.72455 16.806 2.75 14.4533 2.75 12C2.75 9.54675 3.72455 7.19397 5.45926 5.45926C7.19397 3.72455 9.54675 2.75 12 2.75C14.4533 2.75 16.806 3.72455 18.5407 5.45926C20.2755 7.19397 21.25 9.54675 21.25 12C21.25 14.4533 20.2755 16.806 18.5407 18.5407C18.4209 18.6606 18.298 18.7769 18.1724 18.8894ZM8.16984 6.16984C9.18566 5.15402 10.5634 4.58333 12 4.58333C13.4366 4.58333 14.8143 5.15402 15.8302 6.16984C16.846 7.18566 17.4167 8.56341 17.4167 10C17.4167 11.4366 16.846 12.8143 15.8302 13.8302C14.8143 14.846 13.4366 15.4167 12 15.4167C10.5634 15.4167 9.18566 14.846 8.16984 13.8302C7.15402 12.8143 6.58333 11.4366 6.58333 10C6.58333 8.56341 7.15402 7.18566 8.16984 6.16984ZM12 6.08333C10.9612 6.08333 9.96502 6.49598 9.2305 7.2305C8.49598 7.96502 8.08333 8.96124 8.08333 10C8.08333 11.0388 8.49598 12.035 9.2305 12.7695C9.96502 13.504 10.9612 13.9167 12 13.9167C13.0388 13.9167 14.035 13.504 14.7695 12.7695C15.504 12.035 15.9167 11.0388 15.9167 10C15.9167 8.96124 15.504 7.96502 14.7695 7.2305C14.035 6.49598 13.0388 6.08333 12 6.08333Z" fill="currentColor"/>
</svg>
