<svg width="24" height="24" viewBox="0 0 24 24" fill="none" xmlns="http://www.w3.org/2000/svg">
<path fill-rule="evenodd" clip-rule="evenodd" d="M12 2.75C6.89137 2.75 2.75 6.89137 2.75 12C2.75 17.1086 6.89137 21.25 12 21.25C17.1086 21.25 21.25 17.1086 21.25 12C21.25 6.89137 17.1086 2.75 12 2.75ZM1.25 12C1.25 6.06294 6.06294 1.25 12 1.25C17.9371 1.25 22.75 6.06294 22.75 12C22.75 17.9371 17.9371 22.75 12 22.75C6.06294 22.75 1.25 17.9371 1.25 12ZM12 5.19444C11.4324 5.19444 10.9722 5.6546 10.9722 6.22222C10.9722 6.78985 11.4324 7.25 12 7.25C12.5676 7.25 13.0278 6.78985 13.0278 6.22222C13.0278 5.6546 12.5676 5.19444 12 5.19444ZM9.47222 6.22222C9.47222 4.82617 10.6039 3.69444 12 3.69444C13.3961 3.69444 14.5278 4.82617 14.5278 6.22222C14.5278 7.61828 13.3961 8.75 12 8.75C10.6039 8.75 9.47222 7.61828 9.47222 6.22222ZM5.81575 9.41575C6.20645 9.02505 6.73635 8.80556 7.28889 8.80556C7.31241 8.80556 7.33591 8.80666 7.35933 8.80887L11.9983 9.24651L16.3762 8.8133C16.4116 8.8082 16.4477 8.80556 16.4844 8.80556H16.4916C16.4952 8.80556 16.4988 8.80558 16.5024 8.80563C17.0485 8.81035 17.5711 9.02929 17.9576 9.41575C18.3483 9.80645 18.5678 10.3364 18.5678 10.8889C18.5678 11.4414 18.3483 11.9713 17.9576 12.362C17.5843 12.7353 17.0839 12.9523 16.5582 12.9709L14.7456 13.2946V14.1664L16.369 16.2883C16.7042 16.7275 16.8517 17.2827 16.7782 17.8303C16.7046 18.378 16.4165 18.8739 15.9772 19.2091C15.5379 19.5443 14.9835 19.6913 14.4359 19.6177C13.8883 19.5441 13.3923 19.256 13.0571 18.8168L11.9357 17.3458L10.6855 18.8597C10.5221 19.0815 10.3163 19.2688 10.08 19.4107C9.83533 19.5574 9.56316 19.6524 9.28032 19.6897C8.99748 19.727 8.70999 19.7058 8.43567 19.6274C8.16136 19.5491 7.90606 19.4152 7.68561 19.2341C7.46516 19.053 7.28425 18.8286 7.1541 18.5747C7.02395 18.3208 6.94732 18.0429 6.92898 17.7582C6.91063 17.4735 6.95096 17.1881 7.04745 16.9196C7.14091 16.6596 7.28513 16.4208 7.47163 16.2172L9.25267 14.0585V13.3038L7.22116 12.9711C6.69321 12.954 6.19046 12.7367 5.81575 12.362C5.42505 11.9713 5.20556 11.4414 5.20556 10.8889C5.20556 10.3364 5.42505 9.80645 5.81575 9.41575ZM16.5185 10.3066C16.6608 10.3149 16.7956 10.3751 16.8969 10.4764C17.0063 10.5858 17.0678 10.7342 17.0678 10.8889C17.0678 11.0436 17.0063 11.192 16.8969 11.3014C16.7875 11.4108 16.6392 11.4722 16.4844 11.4722C16.4402 11.4722 16.3961 11.4761 16.3526 11.4839L13.8637 11.9283C13.506 11.9922 13.2456 12.3033 13.2456 12.6667V14.4204C13.2456 14.5852 13.2998 14.7453 13.3999 14.8762L15.1771 17.199C15.271 17.322 15.3121 17.4772 15.2915 17.6306C15.2709 17.7839 15.1902 17.9228 15.0672 18.0167C14.9442 18.1105 14.789 18.1517 14.6356 18.1311C14.4823 18.1105 14.3434 18.0298 14.2496 17.9068L12.5555 15.6848C12.4168 15.5028 12.2025 15.3941 11.9737 15.3897C11.7449 15.3852 11.5265 15.4855 11.3808 15.662L9.51414 17.9224C9.5031 17.9358 9.49253 17.9496 9.48244 17.9636C9.43597 18.0286 9.37665 18.0834 9.30815 18.1245C9.23966 18.1656 9.16345 18.1922 9.08425 18.2026C9.00505 18.213 8.92456 18.2071 8.84775 18.1852C8.77094 18.1632 8.69946 18.1257 8.63773 18.075C8.57601 18.0243 8.52535 17.9615 8.48891 17.8904C8.45247 17.8193 8.43101 17.7415 8.42587 17.6618C8.42074 17.5821 8.43203 17.5021 8.45905 17.427C8.48607 17.3518 8.52824 17.283 8.58294 17.2248C8.594 17.213 8.60468 17.2009 8.61496 17.1884L10.5812 14.8053C10.692 14.6709 10.7527 14.5022 10.7527 14.328V12.6667C10.7527 12.2992 10.4865 11.9859 10.1239 11.9265L7.4101 11.4821C7.37003 11.4755 7.32949 11.4722 7.28889 11.4722C7.13418 11.4722 6.98581 11.4108 6.87641 11.3014C6.76701 11.192 6.70555 11.0436 6.70555 10.8889C6.70555 10.7342 6.76701 10.5858 6.87641 10.4764C6.97916 10.3737 7.11629 10.3132 7.26077 10.3062L11.9296 10.7467C11.9776 10.7512 12.0259 10.7511 12.0739 10.7464L16.5185 10.3066Z" fill="currentColor"/>
</svg>
