<svg width="24" height="24" viewBox="0 0 24 24" fill="none" xmlns="http://www.w3.org/2000/svg">
<path d="M13.404 14.2948C13.6554 13.9656 14.126 13.9026 14.4552 14.154L15.6334 15.0537L15.665 15.0753C15.6965 15.097 15.7401 15.1279 15.7882 15.1642C15.8612 15.2194 16.0257 15.346 16.1414 15.4981C16.3029 15.7101 16.4138 15.9563 16.4657 16.2177L17.4243 21.0088C17.4752 21.2616 17.4695 21.5231 17.4072 21.7734C17.3449 22.0238 17.2277 22.2573 17.0641 22.4569C16.9005 22.6565 16.6946 22.8172 16.4613 22.9274C16.2279 23.0376 15.973 23.0946 15.7149 23.0942C15.2778 23.0939 14.8532 22.9478 14.5084 22.6791C14.1633 22.4102 13.9178 22.0338 13.8109 21.6095L12.9255 18.0939L12.3224 17.6752C11.9821 17.439 11.8978 16.9717 12.134 16.6314C12.3702 16.2912 12.8375 16.2068 13.1778 16.4431L14.0118 17.0221C14.1607 17.1255 14.2671 17.2792 14.3114 17.455L15.2654 21.2428C15.2907 21.3432 15.3488 21.4323 15.4304 21.496C15.5121 21.5596 15.6127 21.5942 15.7162 21.5942H15.7173C15.753 21.5942 15.7883 21.5863 15.8206 21.5711C15.8529 21.5558 15.8814 21.5336 15.9041 21.506C15.9267 21.4783 15.9429 21.446 15.9516 21.4113C15.9602 21.3767 15.961 21.3405 15.9539 21.3055L14.9947 16.5113L14.9944 16.5097C14.9881 16.4782 14.9759 16.4482 14.9583 16.4214L14.9541 16.4176C14.9366 16.4021 14.9125 16.3826 14.8844 16.3614C14.8571 16.3408 14.8311 16.3223 14.8119 16.309L14.7906 16.2945L14.7866 16.2919C14.7714 16.2819 14.7564 16.2713 14.7419 16.2602L13.5449 15.3461C13.2157 15.0947 13.1526 14.6241 13.404 14.2948Z" fill="currentColor"/>
<path fill-rule="evenodd" clip-rule="evenodd" d="M9.25 4C9.25 2.48122 10.4812 1.25 12 1.25C13.5188 1.25 14.75 2.48122 14.75 4C14.75 5.51878 13.5188 6.75 12 6.75C10.4812 6.75 9.25 5.51878 9.25 4ZM12 2.75C11.3096 2.75 10.75 3.30964 10.75 4C10.75 4.69036 11.3096 5.25 12 5.25C12.6904 5.25 13.25 4.69036 13.25 4C13.25 3.30964 12.6904 2.75 12 2.75Z" fill="currentColor"/>
<path fill-rule="evenodd" clip-rule="evenodd" d="M10.4621 6.52905L14.3111 8.44678L16.4813 6.7519L16.4929 6.743C16.6768 6.60511 16.886 6.50479 17.1086 6.44775C17.3313 6.39071 17.5629 6.37809 17.7904 6.41059C18.0179 6.44309 18.2368 6.52008 18.4346 6.63717C18.6323 6.75426 18.8051 6.90915 18.9429 7.093C19.0808 7.27685 19.1812 7.48606 19.2382 7.70868C19.2952 7.9313 19.3079 8.16298 19.2754 8.39049C19.2429 8.61799 19.1659 8.83686 19.0488 9.03461C18.9328 9.23045 18.7798 9.40177 18.5983 9.53899L15.55 11.9001C15.2471 12.1273 14.8786 12.25 14.4999 12.25C14.2439 12.2498 13.9905 12.1936 13.7587 12.0857L13.3902 11.9474L10.4131 18.4294C10.2241 18.9556 9.87913 19.412 9.42374 19.7374C8.95729 20.0707 8.39834 20.2499 7.82504 20.25H3.645C3.14241 20.25 2.66041 20.0503 2.30503 19.6949C1.94965 19.3395 1.75 18.8575 1.75 18.355C1.75 18.3472 1.75012 18.3395 1.75036 18.3318C1.76552 17.8403 1.96756 17.373 2.31531 17.0253C2.66044 16.6801 3.1233 16.4785 3.61078 16.4607L6.97672 16.268L7.33236 13.3642L5.34621 10.8364C5.31507 10.7967 5.28801 10.7541 5.26543 10.709C5.06524 10.3096 5.00568 9.85422 5.09639 9.41669C5.18711 8.97917 5.42279 8.58504 5.7653 8.29809L7.45453 6.88474C7.86643 6.53892 8.37104 6.32051 8.90515 6.25734C9.43927 6.19417 9.98089 6.28884 10.4621 6.52905ZM7.58962 11.2637L7.75556 9.90878C7.80592 9.49764 8.18003 9.20516 8.59118 9.25552C9.00232 9.30587 9.29479 9.67999 9.24444 10.0911L8.38944 17.0721C8.34535 17.4321 8.04996 17.709 7.68787 17.7297L3.68787 17.9587L3.66812 17.9596C3.55821 17.963 3.45373 18.0082 3.37597 18.0859C3.30098 18.1609 3.25629 18.2608 3.25016 18.3664C3.25307 18.467 3.29431 18.5629 3.36569 18.6343C3.43977 18.7083 3.54024 18.75 3.645 18.75H7.82496C8.08553 18.7499 8.33963 18.6685 8.55164 18.517C8.76366 18.3655 8.92303 18.1515 9.00746 17.905C9.01561 17.8812 9.02495 17.8578 9.03545 17.8349L12.3161 10.692C12.4001 10.505 12.5531 10.3676 12.7332 10.299C12.8249 10.2641 12.9236 10.247 13.0238 10.2501C13.1062 10.2527 13.1894 10.269 13.2701 10.3003L14.3164 10.6928C14.3402 10.7017 14.3635 10.7118 14.3862 10.7231C14.4217 10.7407 14.4607 10.7499 14.5003 10.75C14.553 10.7499 14.6042 10.7332 14.6468 10.7023L17.6929 8.34293C17.7192 8.32323 17.7413 8.29862 17.7581 8.27037C17.7748 8.24212 17.7858 8.21086 17.7904 8.17835C17.7951 8.14586 17.7933 8.11276 17.7851 8.08095C17.777 8.04915 17.7626 8.01926 17.7429 7.993C17.7232 7.96673 17.6986 7.94461 17.6703 7.92788C17.6421 7.91115 17.6108 7.90015 17.5783 7.89551C17.5458 7.89087 17.5127 7.89267 17.4809 7.90082C17.4507 7.90856 17.4222 7.92189 17.3969 7.94011L14.8616 9.9201C14.6338 10.098 14.3241 10.1292 14.0655 10.0003L9.79248 7.87129C9.57281 7.76156 9.32517 7.71812 9.08132 7.74696C8.83747 7.7758 8.60737 7.87532 8.41936 8.03326L6.72859 9.4479C6.64498 9.51801 6.58731 9.61437 6.56516 9.72122C6.54698 9.8089 6.5535 9.89951 6.58342 9.98312L7.58962 11.2637Z" fill="currentColor"/>
</svg>
