<svg width="24" height="24" viewBox="0 0 24 24" fill="none" xmlns="http://www.w3.org/2000/svg">
<path fill-rule="evenodd" clip-rule="evenodd" d="M4.25 5.5C4.25 3.15279 6.15279 1.25 8.5 1.25C10.8472 1.25 12.75 3.15279 12.75 5.5C12.75 7.84721 10.8472 9.75 8.5 9.75C6.15279 9.75 4.25 7.84721 4.25 5.5ZM8.5 2.75C6.98122 2.75 5.75 3.98122 5.75 5.5C5.75 7.01878 6.98122 8.25 8.5 8.25C10.0188 8.25 11.25 7.01878 11.25 5.5C11.25 3.98122 10.0188 2.75 8.5 2.75Z" fill="currentColor"/>
<path d="M17.0386 20.249L17.0196 20.2497L17 20.25C16.8081 20.25 16.6161 20.1768 16.4697 20.0303L14.4697 18.0303C14.1768 17.7374 14.1768 17.2626 14.4697 16.9697C14.7626 16.6768 15.2374 16.6768 15.5303 16.9697L16.25 17.6893L16.25 14.5C16.25 14.0858 16.5858 13.75 17 13.75C17.4142 13.75 17.75 14.0858 17.75 14.5V17.6893L18.4697 16.9697C18.7626 16.6768 19.2374 16.6768 19.5303 16.9697C19.8232 17.2626 19.8232 17.7374 19.5303 18.0303L17.5303 20.0303C17.4584 20.1022 17.3755 20.1565 17.2871 20.1931C17.2099 20.2251 17.1262 20.2446 17.0386 20.249Z" fill="currentColor"/>
<path fill-rule="evenodd" clip-rule="evenodd" d="M12.9341 12.9341C14.0125 11.8558 15.475 11.25 17 11.25C18.525 11.25 19.9875 11.8558 21.0659 12.9341C22.1442 14.0125 22.75 15.475 22.75 17C22.75 18.525 22.1442 19.9875 21.0659 21.0659C19.9875 22.1442 18.525 22.75 17 22.75C15.475 22.75 14.0125 22.1442 12.9341 21.0659C11.8558 19.9875 11.25 18.525 11.25 17C11.25 15.475 11.8558 14.0125 12.9341 12.9341ZM17 12.75C15.8728 12.75 14.7918 13.1978 13.9948 13.9948C13.1978 14.7918 12.75 15.8728 12.75 17C12.75 18.1272 13.1978 19.2082 13.9948 20.0052C14.7918 20.8022 15.8728 21.25 17 21.25C18.1272 21.25 19.2082 20.8022 20.0052 20.0052C20.8022 19.2082 21.25 18.1272 21.25 17C21.25 15.8728 20.8022 14.7918 20.0052 13.9948C19.2082 13.1978 18.1272 12.75 17 12.75Z" fill="currentColor"/>
<path d="M2.75 17.5C2.75 14.3244 5.32436 11.75 8.5 11.75C9.45859 11.75 10.3603 11.984 11.1534 12.3973C11.5207 12.5887 11.9736 12.4462 12.1651 12.0788C12.3565 11.7115 12.214 11.2586 11.8466 11.0671C10.8446 10.5449 9.70566 10.25 8.5 10.25C4.49594 10.25 1.25 13.4959 1.25 17.5C1.25 17.9142 1.58579 18.25 2 18.25C2.41421 18.25 2.75 17.9142 2.75 17.5Z" fill="currentColor"/>
</svg>
