<svg width="24" height="24" viewBox="0 0 24 24" fill="none" xmlns="http://www.w3.org/2000/svg">
<path fill-rule="evenodd" clip-rule="evenodd" d="M5 3.75C4.30964 3.75 3.75 4.30964 3.75 5C3.75 13.4223 10.5777 20.25 19 20.25C19.6904 20.25 20.25 19.6904 20.25 19V16.3541C20.25 15.8429 19.9388 15.3833 19.4642 15.1935L16.9459 14.1861C16.4817 14.0004 15.9514 14.1093 15.5978 14.4629L14.4424 15.6183C13.9068 16.1539 13.0501 16.3086 12.3565 15.8844C10.6287 14.8277 9.17233 13.3713 8.11562 11.6435C7.69137 10.9499 7.84612 10.0932 8.3817 9.55764L9.53714 8.4022C9.89072 8.04862 9.99956 7.51835 9.81386 7.05408L8.80653 4.53576C8.6167 4.06119 8.15706 3.75 7.64593 3.75H5ZM2.25 5C2.25 3.48122 3.48122 2.25 5 2.25H7.64593C8.77042 2.25 9.78162 2.93462 10.1992 3.97868L11.2066 6.49699C11.6151 7.51839 11.3757 8.68499 10.5978 9.46286L9.44236 10.6183C9.35691 10.7037 9.36127 10.8053 9.39526 10.8609C10.328 12.386 11.614 13.672 13.1391 14.6047C13.1947 14.6387 13.2963 14.6431 13.3817 14.5576L14.5371 13.4022C15.315 12.6243 16.4816 12.3849 17.503 12.7934L20.0213 13.8008C21.0654 14.2184 21.75 15.2296 21.75 16.3541V19C21.75 20.5188 20.5188 21.75 19 21.75C9.74923 21.75 2.25 14.2508 2.25 5Z" fill="currentColor"/>
</svg>
