<svg width="24" height="24" viewBox="0 0 24 24" fill="none" xmlns="http://www.w3.org/2000/svg">
<path fill-rule="evenodd" clip-rule="evenodd" d="M15 2.25C15.9665 2.25 16.75 3.0335 16.75 4V6C16.75 6.6981 16.3412 7.30073 15.75 7.58159V11C15.75 11.4142 15.4142 11.75 15 11.75C14.5858 11.75 14.25 11.4142 14.25 11V7.75L7.75 7.75V9.25L11 9.25C11.9665 9.25 12.75 10.0335 12.75 11V12.5C12.75 12.9142 12.4142 13.25 12 13.25C11.5858 13.25 11.25 12.9142 11.25 12.5V11C11.25 10.8619 11.1381 10.75 11 10.75H7.75L7.75 15.25H10C10.4142 15.25 10.75 15.5858 10.75 16C10.75 16.4142 10.4142 16.75 10 16.75H7.75L7.75 20C7.75 20.1178 7.78881 20.1996 7.81997 20.2386C7.82378 20.2434 7.82708 20.2471 7.82983 20.25H10.5C10.9142 20.25 11.25 20.5858 11.25 21C11.25 21.4142 10.9142 21.75 10.5 21.75H7.8C6.79643 21.75 6.25 20.8017 6.25 20L6.25 7.58159C5.65876 7.30073 5.25 6.6981 5.25 6V4C5.25 3.0335 6.0335 2.25 7 2.25H15ZM15.25 6C15.25 6.13803 15.1381 6.24993 15.0001 6.25L7 6.25C6.86193 6.25 6.75 6.13807 6.75 6V4C6.75 3.86193 6.86193 3.75 7 3.75L15 3.75C15.1381 3.75 15.25 3.86193 15.25 4V6Z" fill="currentColor"/>
<path d="M17 14.75C15.2051 14.75 13.75 16.2051 13.75 18C13.75 19.7949 15.2051 21.25 17 21.25C17.9706 21.25 18.8411 20.8255 19.4377 20.1495C19.7118 19.839 20.1857 19.8094 20.4963 20.0835C20.8069 20.3576 20.8364 20.8316 20.5623 21.1421C19.693 22.127 18.4188 22.75 17 22.75C14.3766 22.75 12.25 20.6234 12.25 18C12.25 15.3766 14.3766 13.25 17 13.25C18.2577 13.25 19.4008 13.739 20.25 14.536V13.5C20.25 13.0858 20.5858 12.75 21 12.75C21.4142 12.75 21.75 13.0858 21.75 13.5V16.5C21.75 16.9142 21.4142 17.25 21 17.25H18C17.5858 17.25 17.25 16.9142 17.25 16.5C17.25 16.0858 17.5858 15.75 18 15.75H19.3453C18.7533 15.133 17.9211 14.75 17 14.75Z" fill="currentColor"/>
</svg>
