<svg width="24" height="24" viewBox="0 0 24 24" fill="none" xmlns="http://www.w3.org/2000/svg">
<path fill-rule="evenodd" clip-rule="evenodd" d="M15 2.25C15.9665 2.25 16.75 3.0335 16.75 4V6C16.75 6.6981 16.3412 7.30073 15.75 7.58159V11C15.75 11.4142 15.4142 11.75 15 11.75C14.5858 11.75 14.25 11.4142 14.25 11V7.75L7.75 7.75V9.25L11 9.25C11.9665 9.25 12.75 10.0335 12.75 11L12.75 13.5C12.75 13.9142 12.4142 14.25 12 14.25C11.5858 14.25 11.25 13.9142 11.25 13.5L11.25 11C11.25 10.8619 11.1381 10.75 11 10.75H7.75L7.75 15.25H9C9.41421 15.25 9.75 15.5858 9.75 16C9.75 16.4142 9.41421 16.75 9 16.75H7.75L7.75 20C7.75 20.1178 7.78881 20.1996 7.81997 20.2386L7.82413 20.2436C7.82647 20.2464 7.82857 20.2487 7.8304 20.2506C8.23052 20.2666 8.55 20.596 8.55 21C8.55 21.4142 8.21421 21.75 7.8 21.75C6.79643 21.75 6.25 20.8017 6.25 20L6.25 7.58159C5.65876 7.30073 5.25 6.6981 5.25 6V4C5.25 3.0335 6.0335 2.25 7 2.25H15ZM15.25 6C15.25 6.13803 15.1381 6.24993 15.0001 6.25L7 6.25C6.86193 6.25 6.75 6.13807 6.75 6V4C6.75 3.86193 6.86193 3.75 7 3.75L15 3.75C15.1381 3.75 15.25 3.86193 15.25 4V6Z" fill="currentColor"/>
<path fill-rule="evenodd" clip-rule="evenodd" d="M20.7803 11.7196C19.7971 10.7364 18.2029 10.7364 17.2197 11.7196L10.4697 18.4696C10.3796 18.5597 10.3139 18.6714 10.2789 18.7939L9.27888 22.2939C9.20405 22.5558 9.27709 22.8377 9.46969 23.0303C9.66229 23.2229 9.94416 23.2959 10.2061 23.2211L13.7061 22.2211C13.8286 22.1861 13.9402 22.1204 14.0303 22.0303L20.7803 15.2803C21.7636 14.297 21.7636 12.7029 20.7803 11.7196ZM18.2803 12.7803C18.6778 12.3828 19.3222 12.3828 19.7197 12.7803C20.1172 13.1777 20.1172 13.8222 19.7197 14.2196L13.1071 20.8322L11.092 21.4079L11.6678 19.3929L18.2803 12.7803Z" fill="currentColor"/>
</svg>
