<svg width="24" height="24" viewBox="0 0 24 24" fill="none" xmlns="http://www.w3.org/2000/svg">
<path fill-rule="evenodd" clip-rule="evenodd" d="M16.75 4C16.75 3.0335 15.9665 2.25 15 2.25H7C6.0335 2.25 5.25 3.0335 5.25 4V6C5.25 6.6981 5.65876 7.30073 6.25 7.58159L6.25 20C6.25 20.8017 6.79643 21.75 7.8 21.75H10.5C10.9142 21.75 11.25 21.4142 11.25 21C11.25 20.5858 10.9142 20.25 10.5 20.25H7.82983C7.82708 20.2471 7.82378 20.2434 7.81997 20.2386C7.78881 20.1996 7.75 20.1178 7.75 20L7.75 16.75H11C11.4142 16.75 11.75 16.4142 11.75 16C11.75 15.5858 11.4142 15.25 11 15.25H7.75L7.75 10.75H11C11.1381 10.75 11.25 10.8619 11.25 11V11.5C11.25 11.9142 11.5858 12.25 12 12.25C12.4142 12.25 12.75 11.9142 12.75 11.5V11C12.75 10.0335 11.9665 9.25 11 9.25L7.75 9.25V7.75L14.25 7.75V11C14.25 11.4142 14.5858 11.75 15 11.75C15.4142 11.75 15.75 11.4142 15.75 11V7.58159C16.3412 7.30073 16.75 6.6981 16.75 6V4ZM15.0001 6.25C15.1381 6.24993 15.25 6.13803 15.25 6V4C15.25 3.86193 15.1381 3.75 15 3.75L7 3.75C6.86193 3.75 6.75 3.86193 6.75 4V6C6.75 6.13807 6.86193 6.25 7 6.25L15.0001 6.25Z" fill="currentColor"/>
<path d="M21.75 14C21.75 14.0129 21.7497 14.0258 21.749 14.0386C21.7446 14.1262 21.7251 14.2099 21.6931 14.2871C21.6565 14.3755 21.6022 14.4584 21.5303 14.5303L19.5303 16.5303C19.2374 16.8232 18.7626 16.8232 18.4697 16.5303C18.1768 16.2374 18.1768 15.7626 18.4697 15.4697L19.1893 14.75H14C13.5858 14.75 13.25 14.4142 13.25 14C13.25 13.5858 13.5858 13.25 14 13.25H19.1893L18.4697 12.5303C18.1768 12.2374 18.1768 11.7626 18.4697 11.4697C18.7626 11.1768 19.2374 11.1768 19.5303 11.4697L21.5303 13.4697C21.6022 13.5416 21.6565 13.6245 21.6931 13.7129C21.7298 13.8013 21.75 13.8983 21.75 14Z" fill="currentColor"/>
<path d="M12.251 18.9614C12.2503 18.9742 12.25 18.9871 12.25 19C12.25 19.1017 12.2702 19.1987 12.3069 19.2871C12.3435 19.3755 12.3978 19.4584 12.4697 19.5303L14.4697 21.5303C14.7626 21.8232 15.2374 21.8232 15.5303 21.5303C15.8232 21.2374 15.8232 20.7626 15.5303 20.4697L14.8107 19.75H20C20.4142 19.75 20.75 19.4142 20.75 19C20.75 18.5858 20.4142 18.25 20 18.25H14.8107L15.5303 17.5303C15.8232 17.2374 15.8232 16.7626 15.5303 16.4697C15.2374 16.1768 14.7626 16.1768 14.4697 16.4697L12.4697 18.4697C12.3978 18.5416 12.3435 18.6245 12.3069 18.7129C12.2749 18.7901 12.2554 18.8738 12.251 18.9614Z" fill="currentColor"/>
</svg>
