<svg width="24" height="24" viewBox="0 0 24 24" fill="none" xmlns="http://www.w3.org/2000/svg">
<path fill-rule="evenodd" clip-rule="evenodd" d="M3.03177 3.03177C4.17261 1.89092 5.71993 1.25 7.33333 1.25C8.94673 1.25 10.4941 1.89092 11.6349 3.03177C12.7757 4.17261 13.4167 5.71993 13.4167 7.33333C13.4167 8.94673 12.7757 10.4941 11.6349 11.6349C10.4941 12.7757 8.94673 13.4167 7.33333 13.4167C5.71993 13.4167 4.17261 12.7757 3.03177 11.6349C1.89092 10.4941 1.25 8.94673 1.25 7.33333C1.25 5.71993 1.89092 4.17261 3.03177 3.03177ZM7.33333 2.75C6.11776 2.75 4.95197 3.23289 4.09243 4.09243C3.23289 4.95197 2.75 6.11776 2.75 7.33333C2.75 8.54891 3.23289 9.7147 4.09243 10.5742C4.95197 11.4338 6.11776 11.9167 7.33333 11.9167C8.54891 11.9167 9.7147 11.4338 10.5742 10.5742C11.4338 9.7147 11.9167 8.54891 11.9167 7.33333C11.9167 6.11776 11.4338 4.95197 10.5742 4.09243C9.7147 3.23289 8.54891 2.75 7.33333 2.75ZM7.33333 4.226C7.74755 4.226 8.08333 4.56179 8.08333 4.976V6.58333H9.69067C10.1049 6.58333 10.4407 6.91912 10.4407 7.33333C10.4407 7.74755 10.1049 8.08333 9.69067 8.08333H7.33333C6.91912 8.08333 6.58333 7.74755 6.58333 7.33333V4.976C6.58333 4.56179 6.91912 4.226 7.33333 4.226ZM19.7191 10.5331C19.3974 10.4032 19.0529 10.3394 18.706 10.3455C18.3592 10.3516 18.0171 10.4275 17.7002 10.5687C17.3833 10.7099 17.0981 10.9135 16.8616 11.1673C16.8556 11.1737 16.8495 11.1801 16.8432 11.1863L14.5451 13.4844L18.1956 17.1349L20.4937 14.8368C20.4999 14.8305 20.5063 14.8244 20.5127 14.8184C20.7665 14.5819 20.9701 14.2967 21.1113 13.9798C21.2525 13.6629 21.3284 13.3208 21.3345 12.974C21.3406 12.6271 21.2768 12.2826 21.1469 11.9609C21.017 11.6392 20.8236 11.347 20.5783 11.1017C20.333 10.8564 20.0408 10.663 19.7191 10.5331ZM18.7271 18.7246C18.7267 18.7251 18.7263 18.7255 18.7259 18.7259C18.7255 18.7263 18.7251 18.7267 18.7246 18.7271L15.8974 21.5543C15.8912 21.5606 15.8849 21.5667 15.8784 21.5727C15.1043 22.294 14.0805 22.6867 13.0227 22.668C11.9648 22.6493 10.9555 22.2208 10.2074 21.4726C9.45921 20.7245 9.03067 19.7152 9.01201 18.6573C8.99334 17.5995 9.38601 16.5757 10.1073 15.8016C10.1133 15.7951 10.1194 15.7888 10.1257 15.7826L12.8924 13.0159C12.9103 12.9933 12.9297 12.9714 12.9506 12.9506C12.9714 12.9297 12.9933 12.9103 13.0159 12.8924L15.7737 10.1346C16.1456 9.7381 16.593 9.41986 17.0897 9.19857C17.5906 8.97539 18.1313 8.85538 18.6796 8.84571C19.2278 8.83604 19.7724 8.93689 20.2809 9.14226C20.7893 9.34763 21.2512 9.65331 21.6389 10.0411C22.0267 10.4288 22.3324 10.8907 22.5377 11.3991C22.7431 11.9076 22.844 12.4522 22.8343 13.0004C22.8246 13.5487 22.7046 14.0894 22.4814 14.5903C22.2601 15.087 21.9419 15.5344 21.5455 15.9063L18.7271 18.7246ZM13.4844 14.5451L11.1963 16.8333C10.7453 17.3219 10.5 17.9657 10.5118 18.6309C10.5236 19.3001 10.7947 19.9387 11.268 20.412C11.7413 20.8853 12.3799 21.1564 13.0491 21.1682C13.7143 21.18 14.3581 20.9347 14.8467 20.4837L17.1349 18.1956L13.4844 14.5451Z" fill="currentColor"/>
</svg>
