<svg width="24" height="24" viewBox="0 0 24 24" fill="none" xmlns="http://www.w3.org/2000/svg">
<path fill-rule="evenodd" clip-rule="evenodd" d="M12 2.75356C10.0772 2.75356 8.23311 3.51739 6.87348 4.87703C5.51384 6.23667 4.75 8.08074 4.75 10.0036C4.75 13.2788 6.18376 15.8501 7.83275 17.7293C9.45449 19.5776 11.2557 20.7213 11.9996 21.1506C12.7432 20.722 14.5448 19.5786 16.1669 17.7303C17.816 15.8512 19.25 13.2797 19.25 10.0036C19.25 8.08074 18.4862 6.23667 17.1265 4.87703C15.7669 3.51739 13.9228 2.75356 12 2.75356ZM5.81282 3.81637C7.45376 2.17543 9.67936 1.25356 12 1.25356C14.3206 1.25356 16.5462 2.17543 18.1872 3.81637C19.8281 5.45731 20.75 7.68291 20.75 10.0036C20.75 13.7497 19.1031 16.6586 17.2943 18.7197C15.4896 20.776 13.4943 22.0245 12.7018 22.477C12.4879 22.5992 12.2459 22.6634 11.9996 22.6634C11.7533 22.6634 11.5112 22.5992 11.2973 22.477L11.2971 22.4769C10.5049 22.024 8.50972 20.7751 6.70525 18.7187C4.89669 16.6575 3.25 13.7488 3.25 10.0036C3.25 7.68291 4.17187 5.45731 5.81282 3.81637ZM10.3316 5.66493C10.5973 5.39925 10.9576 5.25 11.3333 5.25H12.6667C13.0424 5.25 13.4027 5.39926 13.6684 5.66493C13.9341 5.93061 14.0833 6.29094 14.0833 6.66667V7.91667H15.3333C15.7091 7.91667 16.0694 8.06592 16.3351 8.3316C16.6007 8.59728 16.75 8.95761 16.75 9.33333V10.6667C16.75 11.0424 16.6007 11.4027 16.3351 11.6684C16.0694 11.9341 15.7091 12.0833 15.3333 12.0833H14.0833V13.3333C14.0833 13.7091 13.9341 14.0694 13.6684 14.3351C13.4027 14.6007 13.0424 14.75 12.6667 14.75H11.3333C10.9576 14.75 10.5973 14.6007 10.3316 14.3351C10.0659 14.0694 9.91667 13.7091 9.91667 13.3333V12.0833H8.66667C8.29094 12.0833 7.93061 11.9341 7.66493 11.6684C7.39926 11.4027 7.25 11.0424 7.25 10.6667V9.33333C7.25 8.95761 7.39925 8.59728 7.66493 8.3316C7.93061 8.06592 8.29094 7.91667 8.66667 7.91667H9.91667V6.66667C9.91667 6.29094 10.0659 5.93061 10.3316 5.66493ZM11.4167 6.75V8.66667C11.4167 9.08088 11.0809 9.41667 10.6667 9.41667H8.75V10.5833H10.6667C11.0809 10.5833 11.4167 10.9191 11.4167 11.3333V13.25H12.5833V11.3333C12.5833 10.9191 12.9191 10.5833 13.3333 10.5833H15.25V9.41667H13.3333C12.9191 9.41667 12.5833 9.08088 12.5833 8.66667V6.75H11.4167Z" fill="currentColor"/>
</svg>
