<svg width="24" height="24" viewBox="0 0 24 24" fill="none" xmlns="http://www.w3.org/2000/svg">
<path d="M18 10C17.4477 10 17 10.4477 17 11C17 11.5523 17.4477 12 18 12C18.5523 12 19 11.5523 19 11C19 10.4477 18.5523 10 18 10Z" fill="currentColor"/>
<path fill-rule="evenodd" clip-rule="evenodd" d="M16.25 2.25C17.0784 2.25 17.75 2.92157 17.75 3.75V7.25L19.5 7.25C20.7426 7.25 21.75 8.25736 21.75 9.5V16.5C21.75 17.7426 20.7426 18.75 19.5 18.75H17.75V20.25C17.75 21.0784 17.0784 21.75 16.25 21.75H7.75C6.92157 21.75 6.25 21.0784 6.25 20.25V18.75H4.5C3.25736 18.75 2.25 17.7426 2.25 16.5V9.5C2.25 8.25736 3.25736 7.25 4.5 7.25H6.25L6.25 3.75C6.25 2.92157 6.92157 2.25 7.75 2.25H16.25ZM19.5 8.75C19.9142 8.75 20.25 9.08579 20.25 9.5V16.5C20.25 16.9142 19.9142 17.25 19.5 17.25H17.75V14C17.75 13.5858 17.4142 13.25 17 13.25H7C6.58579 13.25 6.25 13.5858 6.25 14L6.25 17.25H4.5C4.08579 17.25 3.75 16.9142 3.75 16.5V9.5C3.75 9.08579 4.08579 8.75 4.5 8.75H19.5ZM16.25 3.75V7.25L7.75 7.25V3.75L16.25 3.75ZM7.75 14.75H16.25V20.25H7.75L7.75 14.75Z" fill="currentColor"/>
</svg>
