<svg width="24" height="24" viewBox="0 0 24 24" fill="none" xmlns="http://www.w3.org/2000/svg">
<path d="M19.25 3.25C20.0784 3.25 20.75 3.92157 20.75 4.75V8C20.75 8.41421 20.4142 8.75 20 8.75C19.5858 8.75 19.25 8.41421 19.25 8V4.75H16C15.5858 4.75 15.25 4.41421 15.25 4C15.25 3.58579 15.5858 3.25 16 3.25L19.25 3.25Z" fill="currentColor"/>
<path d="M4.75 3.25C3.92157 3.25 3.25 3.92157 3.25 4.75V8C3.25 8.41421 3.58579 8.75 4 8.75C4.41421 8.75 4.75 8.41421 4.75 8V4.75H8C8.41421 4.75 8.75 4.41421 8.75 4C8.75 3.58579 8.41421 3.25 8 3.25H4.75Z" fill="currentColor"/>
<path d="M19.25 20.75C20.0784 20.75 20.75 20.0784 20.75 19.25V16C20.75 15.5858 20.4142 15.25 20 15.25C19.5858 15.25 19.25 15.5858 19.25 16V19.25H16C15.5858 19.25 15.25 19.5858 15.25 20C15.25 20.4142 15.5858 20.75 16 20.75H19.25Z" fill="currentColor"/>
<path d="M3.25 19.25C3.25 20.0784 3.92157 20.75 4.75 20.75H8C8.41421 20.75 8.75 20.4142 8.75 20C8.75 19.5858 8.41421 19.25 8 19.25H4.75L4.75 16C4.75 15.5858 4.41421 15.25 4 15.25C3.58579 15.25 3.25 15.5858 3.25 16L3.25 19.25Z" fill="currentColor"/>
<path fill-rule="evenodd" clip-rule="evenodd" d="M6.25 7.75C6.25 6.92157 6.92157 6.25 7.75 6.25H9.75C10.5784 6.25 11.25 6.92157 11.25 7.75V9.75C11.25 10.5784 10.5784 11.25 9.75 11.25H7.75C6.92157 11.25 6.25 10.5784 6.25 9.75V7.75ZM9.75 7.75H7.75V9.75H9.75V7.75Z" fill="currentColor"/>
<path fill-rule="evenodd" clip-rule="evenodd" d="M14.25 6.25C13.4216 6.25 12.75 6.92157 12.75 7.75V9.75C12.75 10.5784 13.4216 11.25 14.25 11.25H16.25C17.0784 11.25 17.75 10.5784 17.75 9.75V7.75C17.75 6.92157 17.0784 6.25 16.25 6.25H14.25ZM14.25 7.75H16.25V9.75H14.25V7.75Z" fill="currentColor"/>
<path fill-rule="evenodd" clip-rule="evenodd" d="M6.25 14.25C6.25 13.4216 6.92157 12.75 7.75 12.75H9.75C10.5784 12.75 11.25 13.4216 11.25 14.25V16.25C11.25 17.0784 10.5784 17.75 9.75 17.75H7.75C6.92157 17.75 6.25 17.0784 6.25 16.25V14.25ZM9.75 14.25H7.75V16.25H9.75V14.25Z" fill="currentColor"/>
<path d="M14.5 13H13V14.5H14.5V16H13V17.5H14.5V16H16V17.5H17.5V16H16V14.5H17.5V13H16V14.5H14.5V13Z" fill="currentColor"/>
</svg>
