<svg width="24" height="24" viewBox="0 0 24 24" fill="none" xmlns="http://www.w3.org/2000/svg">
<path d="M13.5 17C13.5 17.8284 12.8284 18.5 12 18.5C11.1716 18.5 10.5 17.8284 10.5 17C10.5 16.1716 11.1716 15.5 12 15.5C12.8284 15.5 13.5 16.1716 13.5 17Z" fill="currentColor"/>
<path d="M11.1191 6.9644C11.4312 6.80292 11.7816 6.73033 12.1322 6.75457C12.4827 6.7788 12.8198 6.89893 13.1067 7.10182C13.3936 7.30471 13.6192 7.58256 13.7588 7.90499C13.8984 8.22743 13.9467 8.58204 13.8985 8.93008C13.8502 9.27812 13.7071 9.60618 13.485 9.87842C13.2628 10.1507 12.9701 10.3566 12.6389 10.4737C12.2325 10.6174 11.8807 10.8836 11.632 11.2355C11.3833 11.5874 11.2498 12.0081 11.25 12.439V13.3328C11.25 13.747 11.5858 14.0828 12 14.0828C12.4142 14.0828 12.75 13.747 12.75 13.3328V12.4382C12.7499 12.3175 12.7873 12.1998 12.8569 12.1012C12.9266 12.0027 13.0251 11.9282 13.1389 11.8879C13.7294 11.6791 14.2512 11.312 14.6472 10.8267C15.0432 10.3415 15.2981 9.75664 15.3842 9.13623C15.4703 8.51582 15.3842 7.88368 15.1353 7.3089C14.8864 6.73413 14.4842 6.23884 13.9729 5.87716C13.4615 5.51548 12.8605 5.30134 12.2356 5.25814C11.6108 5.21494 10.9861 5.34433 10.4298 5.63219C9.87348 5.92005 9.40702 6.35529 9.08137 6.89034C8.75573 7.42539 8.58343 8.03966 8.58331 8.66602C8.58323 9.08023 8.91896 9.41608 9.33317 9.41616C9.74738 9.41624 10.0832 9.08051 10.0833 8.6663C10.0834 8.31493 10.18 7.97034 10.3627 7.67019C10.5454 7.37004 10.8071 7.12588 11.1191 6.9644Z" fill="currentColor"/>
<path fill-rule="evenodd" clip-rule="evenodd" d="M2.25 12C2.25 6.61522 6.61522 2.25 12 2.25C17.3848 2.25 21.75 6.61522 21.75 12C21.75 17.3848 17.3848 21.75 12 21.75C6.61522 21.75 2.25 17.3848 2.25 12ZM12 3.75C7.44365 3.75 3.75 7.44365 3.75 12C3.75 16.5563 7.44365 20.25 12 20.25C16.5563 20.25 20.25 16.5563 20.25 12C20.25 7.44365 16.5563 3.75 12 3.75Z" fill="currentColor"/>
</svg>
