<svg width="24" height="24" viewBox="0 0 24 24" fill="none" xmlns="http://www.w3.org/2000/svg">
<path d="M20.25 4.25C21.0784 4.25 21.75 4.92157 21.75 5.75V18.25C21.75 19.0784 21.0784 19.75 20.25 19.75H3.75C2.92157 19.75 2.25 19.0784 2.25 18.25V5.75C2.25 4.92157 2.92157 4.25 3.75 4.25H20.25ZM3.75 18.25H20.25V5.75H3.75V18.25ZM6 8.25C6.41421 8.25 6.75 8.58579 6.75 9V15C6.75 15.4142 6.41421 15.75 6 15.75C5.58579 15.75 5.25 15.4142 5.25 15V9C5.25 8.58579 5.58579 8.25 6 8.25Z" fill="currentColor"/>
</svg>
