<svg width="24" height="24" viewBox="0 0 24 24" fill="none" xmlns="http://www.w3.org/2000/svg">
<path fill-rule="evenodd" clip-rule="evenodd" d="M9.45501 16.9188C10.4541 17.5432 11.75 16.8249 11.75 15.6468L11.75 8.35314C11.75 7.17499 10.4541 6.45672 9.45501 7.08114L3.6201 10.728C2.6801 11.3155 2.6801 12.6845 3.6201 13.272L9.45501 16.9188ZM10.25 15.6468L4.4151 12L10.25 8.35314L10.25 15.6468Z" fill="currentColor"/>
<path fill-rule="evenodd" clip-rule="evenodd" d="M19.455 16.9188C20.4541 17.5432 21.75 16.8249 21.75 15.6468V8.35314C21.75 7.17499 20.4541 6.45672 19.455 7.08114L13.6201 10.728C12.6801 11.3155 12.6801 12.6845 13.6201 13.272L19.455 16.9188ZM20.25 15.6468L14.4151 12L20.25 8.35314V15.6468Z" fill="currentColor"/>
</svg>
