<svg width="24" height="24" viewBox="0 0 24 24" fill="none" xmlns="http://www.w3.org/2000/svg">
<path fill-rule="evenodd" clip-rule="evenodd" d="M21.1822 1.24598C21.6958 1.38271 22.1925 1.67988 22.6529 2.16083L22.1133 2.67744L22.6529 2.16083C23.4358 2.9786 23.6087 3.89127 23.415 4.71566C23.2338 5.48699 22.7499 6.11723 22.328 6.52115L22.328 6.52117L13.6597 14.8195C13.516 14.957 13.3236 15.0319 13.1247 15.0275L8.48677 14.9264L3.99935 19.2223L6.8388 18.7185C7.18555 18.6097 7.63181 18.4479 7.97481 18.152C8.2887 17.8813 8.54177 17.481 8.45441 16.7571C8.40479 16.3458 8.69793 15.9722 9.10916 15.9226C9.52039 15.873 9.89398 16.1661 9.94361 16.5773C10.0959 17.839 9.61373 18.7193 8.95449 19.2879C8.33901 19.8188 7.59787 20.054 7.2381 20.1652C7.2084 20.1744 7.17816 20.1817 7.14755 20.1872L1.82239 21.132C1.49697 21.1897 1.17212 21.0276 1.02256 20.7329C0.872996 20.4382 0.933989 20.0803 1.17273 19.8517L6.44074 14.8086C6.2787 14.7267 6.1482 14.5871 6.07967 14.4108C5.96972 14.1281 6.0409 13.807 6.26003 13.5972L18.1788 2.18705L18.1788 2.18703C18.3904 1.98455 18.9754 1.47283 19.7761 1.25676C20.189 1.14536 20.6703 1.10972 21.1822 1.24598ZM8.60525 13.4286L12.8468 13.5211L21.2907 5.43765C21.2907 5.43765 21.2907 5.43764 21.2907 5.43763C21.5911 5.15003 21.8632 4.76231 21.9548 4.37255C22.0339 4.03585 21.9966 3.64432 21.5694 3.19811L22.1112 2.67947L21.5694 3.19811C21.2721 2.88757 21.0084 2.75195 20.7963 2.6955C20.5825 2.63859 20.3729 2.64938 20.1669 2.70497C19.7299 2.82287 19.3658 3.12728 19.2161 3.27057C19.2161 3.27058 19.2161 3.27059 19.2161 3.27059L8.60525 13.4286ZM9.74997 20C9.74997 19.5858 10.0858 19.25 10.5 19.25H17.5C17.9142 19.25 18.25 19.5858 18.25 20C18.25 20.4142 17.9142 20.75 17.5 20.75H10.5C10.0858 20.75 9.74997 20.4142 9.74997 20ZM19.25 20C19.25 19.5858 19.5858 19.25 20 19.25H21C21.4142 19.25 21.75 19.5858 21.75 20C21.75 20.4142 21.4142 20.75 21 20.75H20C19.5858 20.75 19.25 20.4142 19.25 20Z" fill="currentColor"/>
</svg>
