<svg width="24" height="24" viewBox="0 0 24 24" fill="none" xmlns="http://www.w3.org/2000/svg">
<path d="M12.5303 2.46967C12.2374 2.17678 11.7626 2.17678 11.4697 2.46967L7.96967 5.96967C7.67678 6.26256 7.67678 6.73744 7.96967 7.03033C8.26256 7.32322 8.73744 7.32322 9.03033 7.03033L11.25 4.81066V15C11.25 15.4142 11.5858 15.75 12 15.75C12.4142 15.75 12.75 15.4142 12.75 15V4.81066L14.9697 7.03033C15.2626 7.32322 15.7374 7.32322 16.0303 7.03033C16.3232 6.73744 16.3232 6.26256 16.0303 5.96967L12.5303 2.46967Z" fill="currentColor"/>
<path d="M5.75 11.5C5.75 11.0858 6.08579 10.75 6.5 10.75H8.5C8.91421 10.75 9.25 10.4142 9.25 10C9.25 9.58579 8.91421 9.25 8.5 9.25H6.5C5.25736 9.25 4.25 10.2574 4.25 11.5V19.5C4.25 20.7426 5.25736 21.75 6.5 21.75H17.5C18.7426 21.75 19.75 20.7426 19.75 19.5V11.5C19.75 10.2574 18.7426 9.25 17.5 9.25H15.5C15.0858 9.25 14.75 9.58579 14.75 10C14.75 10.4142 15.0858 10.75 15.5 10.75H17.5C17.9142 10.75 18.25 11.0858 18.25 11.5V19.5C18.25 19.9142 17.9142 20.25 17.5 20.25H6.5C6.08579 20.25 5.75 19.9142 5.75 19.5V11.5Z" fill="currentColor"/>
</svg>
