<svg width="24" height="24" viewBox="0 0 24 24" fill="none" xmlns="http://www.w3.org/2000/svg">
<path d="M5 2.25C4.58579 2.25 4.25 2.58579 4.25 3C4.25 3.41421 4.58579 3.75 5 3.75H7.70762L4.34882 9.6279C4.21617 9.86002 4.21713 10.1452 4.35132 10.3764C4.48551 10.6077 4.73265 10.75 5 10.75H9C9.41421 10.75 9.75 10.4142 9.75 10C9.75 9.58579 9.41421 9.25 9 9.25H6.29238L9.65118 3.3721C9.78383 3.13998 9.78287 2.85479 9.64868 2.62355C9.51449 2.39232 9.26735 2.25 9 2.25H5Z" fill="currentColor"/>
<path d="M17.75 4C17.75 3.58579 17.4142 3.25 17 3.25C16.5858 3.25 16.25 3.58579 16.25 4L16.25 18.1893L13.5303 15.4697C13.2374 15.1768 12.7626 15.1768 12.4697 15.4697C12.1768 15.7626 12.1768 16.2374 12.4697 16.5303L16.4697 20.5303C16.5416 20.6022 16.6245 20.6565 16.7129 20.6931C16.7901 20.7251 16.8738 20.7446 16.9614 20.749C16.9742 20.7497 16.9871 20.75 17 20.75C17.1919 20.75 17.3839 20.6768 17.5303 20.5303L21.5303 16.5303C21.8232 16.2374 21.8232 15.7626 21.5303 15.4697C21.2374 15.1768 20.7626 15.1768 20.4697 15.4697L17.75 18.1893L17.75 4Z" fill="currentColor"/>
<path fill-rule="evenodd" clip-rule="evenodd" d="M4.25 16C4.25 14.4812 5.48122 13.25 7 13.25C8.51878 13.25 9.75 14.4812 9.75 16V21C9.75 21.4142 9.41421 21.75 9 21.75C8.58579 21.75 8.25 21.4142 8.25 21V18.8333H5.75V21C5.75 21.4142 5.41421 21.75 5 21.75C4.58579 21.75 4.25 21.4142 4.25 21V16ZM8.25 17.3333V16C8.25 15.3096 7.69036 14.75 7 14.75C6.30964 14.75 5.75 15.3096 5.75 16V17.3333H8.25Z" fill="currentColor"/>
</svg>
