<svg width="24" height="24" viewBox="0 0 24 24" fill="none" xmlns="http://www.w3.org/2000/svg">
<path d="M8.25003 3.00001C8.25003 2.71356 8.08687 2.45212 7.82955 2.32627C7.57223 2.20042 7.26569 2.23213 7.03958 2.40799L5.53958 3.57466C5.21262 3.82896 5.15372 4.30017 5.40802 4.62713C5.66232 4.95409 6.13353 5.01299 6.46049 4.75869L6.75003 4.53349V10C6.75003 10.4142 7.08582 10.75 7.50003 10.75C7.91425 10.75 8.25003 10.4142 8.25003 10V3.00001Z" fill="currentColor"/>
<path d="M17 3.25C17.4142 3.25 17.75 3.58579 17.75 4L17.75 18.1893L20.4697 15.4697C20.7626 15.1768 21.2374 15.1768 21.5303 15.4697C21.8232 15.7626 21.8232 16.2374 21.5303 16.5303L17.5303 20.5303C17.3839 20.6768 17.1919 20.75 17 20.75C16.9871 20.75 16.9742 20.7497 16.9614 20.749C16.8738 20.7446 16.7901 20.7251 16.7129 20.6931C16.6245 20.6565 16.5416 20.6022 16.4697 20.5303L12.4697 16.5303C12.1768 16.2374 12.1768 15.7626 12.4697 15.4697C12.7626 15.1768 13.2374 15.1768 13.5303 15.4697L16.25 18.1893L16.25 4C16.25 3.58579 16.5858 3.25 17 3.25Z" fill="currentColor"/>
<path fill-rule="evenodd" clip-rule="evenodd" d="M5.99999 20.25C7.01531 20.25 7.87356 19.5775 8.15358 18.6536C7.94675 18.7163 7.72731 18.75 7.5 18.75H6.5C5.25736 18.75 4.25 17.7426 4.25 16.5V15.5C4.25 14.2574 5.25736 13.25 6.5 13.25H7.5C8.74264 13.25 9.75 14.2574 9.75 15.5L9.74999 18C9.74997 20.0711 8.07104 21.75 5.99999 21.75H5.66663C5.25241 21.75 4.91663 21.4142 4.91663 21C4.91663 20.5858 5.25241 20.25 5.66663 20.25H5.99999ZM8.25 16.5V15.5C8.25 15.0858 7.91421 14.75 7.5 14.75H6.5C6.08579 14.75 5.75 15.0858 5.75 15.5V16.5C5.75 16.9142 6.08579 17.25 6.5 17.25H7.5C7.91421 17.25 8.25 16.9142 8.25 16.5Z" fill="currentColor"/>
</svg>
