<svg width="24" height="24" viewBox="0 0 24 24" fill="none" xmlns="http://www.w3.org/2000/svg">
<path fill-rule="evenodd" clip-rule="evenodd" d="M12 4.75C7.99596 4.75 4.75002 7.99594 4.75002 12C4.75002 13.4682 5.18568 14.8325 5.93459 15.9732C6.08126 16.1966 6.09797 16.4812 5.97845 16.7202L4.67707 19.3229L7.27982 18.0216C7.51886 17.9021 7.80344 17.9188 8.02684 18.0654C9.16756 18.8143 10.5318 19.25 12 19.25C16.0041 19.25 19.25 16.0041 19.25 12C19.25 7.99594 16.0041 4.75 12 4.75ZM3.25002 12C3.25002 7.16751 7.16753 3.25 12 3.25C16.8325 3.25 20.75 7.16751 20.75 12C20.75 16.8325 16.8325 20.75 12 20.75C10.3871 20.75 8.87434 20.3129 7.57585 19.5506L3.33543 21.6708C3.04669 21.8152 2.69796 21.7586 2.46969 21.5303C2.24142 21.3021 2.18483 20.9533 2.3292 20.6646L4.44941 16.4242C3.6871 15.1257 3.25002 13.6129 3.25002 12Z" fill="currentColor"/>
<path d="M13 12C13 12.5523 12.5523 13 12 13C11.4477 13 11 12.5523 11 12C11 11.4477 11.4477 11 12 11C12.5523 11 13 11.4477 13 12Z" fill="currentColor"/>
<path d="M9.00002 12C9.00002 12.5523 8.55231 13 8.00002 13C7.44774 13 7.00002 12.5523 7.00002 12C7.00002 11.4477 7.44774 11 8.00002 11C8.55231 11 9.00002 11.4477 9.00002 12Z" fill="currentColor"/>
<path d="M17 12C17 12.5523 16.5523 13 16 13C15.4477 13 15 12.5523 15 12C15 11.4477 15.4477 11 16 11C16.5523 11 17 11.4477 17 12Z" fill="currentColor"/>
</svg>
