<svg width="24" height="24" viewBox="0 0 24 24" fill="none" xmlns="http://www.w3.org/2000/svg">
<path fill-rule="evenodd" clip-rule="evenodd" d="M12.0001 3.48133L9.61717 8.20646C9.50159 8.43563 9.27686 8.58979 9.02144 8.61509L4.49141 9.06388L8.24826 12.7846C8.44087 12.9754 8.51555 13.2552 8.4436 13.5166L7.05443 18.5628L11.6672 16.2784C11.8769 16.1745 12.1231 16.1745 12.3328 16.2784L16.9523 18.5659L15.5632 13.5196C15.4912 13.2583 15.5658 12.9786 15.7583 12.7878L19.5125 9.06689L14.9823 8.61809C14.727 8.5928 14.5023 8.43875 14.3867 8.2097L12.0001 3.48133ZM13.8345 3.78688L13.2143 2.55819C13.0999 2.33464 12.9259 2.14703 12.7117 2.01602C12.4974 1.88501 12.2511 1.81569 12 1.81569C11.7489 1.81569 11.5026 1.88501 11.2883 2.01602C11.0741 2.14703 10.9001 2.33464 10.7857 2.55819L8.46342 7.16303L4.04828 7.60043C3.79304 7.623 3.5494 7.71754 3.3457 7.87315C3.14011 8.0302 2.98383 8.24288 2.89536 8.48599C2.80689 8.7291 2.78994 8.99248 2.84651 9.24493C2.90308 9.49738 3.0308 9.72833 3.21455 9.91045L6.88092 13.5416L5.52365 18.4719L5.52187 18.4785C5.45463 18.7317 5.46198 18.999 5.54303 19.2481C5.62408 19.4973 5.77538 19.7177 5.97873 19.8829C6.18209 20.0481 6.42884 20.151 6.68931 20.1793C6.94889 20.2075 7.21107 20.1603 7.44454 20.0435L7.44693 20.0423L12 17.7874L16.5598 20.0453L16.5623 20.0466C16.7958 20.1633 17.0579 20.2105 17.3175 20.1823C17.5779 20.154 17.8247 20.0511 18.028 19.8859C18.2314 19.7207 18.3827 19.5003 18.4637 19.2511C18.5448 19.002 18.5521 18.7347 18.4849 18.4815L17.1258 13.5444L20.7892 9.91345C20.973 9.73134 21.1007 9.50038 21.1572 9.24793C21.2138 8.99547 21.1969 8.7321 21.1084 8.48899C21.0199 8.24588 20.8636 8.0332 20.6581 7.87615C20.4544 7.72055 20.2107 7.626 19.9555 7.60343L15.5402 7.16602L13.2163 2.56204L13.8345 3.78688Z" fill="currentColor"/>
</svg>
