<svg width="24" height="24" viewBox="0 0 24 24" fill="none" xmlns="http://www.w3.org/2000/svg">
<path d="M13.2163 2.56203L15.5402 7.166L19.9555 7.60342C20.2107 7.62598 20.4544 7.72053 20.6581 7.87614C20.8636 8.03319 21.0199 8.24586 21.1084 8.48898C21.1969 8.73208 21.2138 8.99546 21.1572 9.24791C21.1007 9.50037 20.973 9.73132 20.7892 9.91343L17.1258 13.5444L18.4849 18.4815C18.5521 18.7347 18.5448 19.002 18.4637 19.2511C18.3827 19.5003 18.2314 19.7207 18.028 19.8859C17.8247 20.0511 17.5779 20.154 17.3175 20.1823C17.0579 20.2105 16.7958 20.1633 16.5623 20.0466L16.5598 20.0453L12 17.7874L7.44693 20.0423L7.44454 20.0435C7.21107 20.1603 6.94889 20.2075 6.68931 20.1793C6.42884 20.151 6.18209 20.0481 5.97873 19.8829C5.77538 19.7177 5.62408 19.4973 5.54303 19.2481C5.46198 18.999 5.45463 18.7317 5.52187 18.4785L5.52365 18.4719L6.88092 13.5415L3.21455 9.91043C3.0308 9.72832 2.90308 9.49736 2.84651 9.24491C2.78994 8.99246 2.80689 8.72909 2.89536 8.48598C2.98383 8.24286 3.14011 8.03019 3.3457 7.87314C3.5494 7.71753 3.79304 7.62298 4.04828 7.60042L8.46342 7.16302L10.7857 2.55817C10.9001 2.33463 11.0741 2.14702 11.2883 2.01601C11.5026 1.885 11.7489 1.81567 12 1.81567C12.2511 1.81567 12.4974 1.885 12.7117 2.01601C12.9259 2.14702 13.0999 2.33463 13.2143 2.55817L13.2163 2.56203Z" fill="currentColor"/>
</svg>
