<svg width="24" height="24" viewBox="0 0 24 24" fill="none" xmlns="http://www.w3.org/2000/svg">
<path fill-rule="evenodd" clip-rule="evenodd" d="M5.25 11.5C5.25 10.5335 6.0335 9.75 7 9.75H17C17.9665 9.75 18.75 10.5335 18.75 11.5V12.5C18.75 13.4665 17.9665 14.25 17 14.25H7C6.0335 14.25 5.25 13.4665 5.25 12.5V11.5ZM7 11.25C6.86193 11.25 6.75 11.3619 6.75 11.5V12.5C6.75 12.6381 6.86193 12.75 7 12.75H17C17.1381 12.75 17.25 12.6381 17.25 12.5V11.5C17.25 11.3619 17.1381 11.25 17 11.25H7Z" fill="currentColor"/>
<path fill-rule="evenodd" clip-rule="evenodd" d="M3.25 18C3.25 17.0335 4.0335 16.25 5 16.25H15C15.9665 16.25 16.75 17.0335 16.75 18V19C16.75 19.9665 15.9665 20.75 15 20.75H5C4.0335 20.75 3.25 19.9665 3.25 19V18ZM5 17.75C4.86193 17.75 4.75 17.8619 4.75 18V19C4.75 19.1381 4.86193 19.25 5 19.25H15C15.1381 19.25 15.25 19.1381 15.25 19V18C15.25 17.8619 15.1381 17.75 15 17.75H5Z" fill="currentColor"/>
<path fill-rule="evenodd" clip-rule="evenodd" d="M7.25 5C7.25 4.0335 8.0335 3.25 9 3.25H19C19.9665 3.25 20.75 4.0335 20.75 5V6C20.75 6.9665 19.9665 7.75 19 7.75H9C8.0335 7.75 7.25 6.9665 7.25 6V5ZM9 4.75C8.86193 4.75 8.75 4.86193 8.75 5V6C8.75 6.13807 8.86193 6.25 9 6.25H19C19.1381 6.25 19.25 6.13807 19.25 6V5C19.25 4.86193 19.1381 4.75 19 4.75H9Z" fill="currentColor"/>
</svg>
