<svg width="24" height="24" viewBox="0 0 24 24" fill="none" xmlns="http://www.w3.org/2000/svg">
<path d="M12 1.25C12.4142 1.25 12.75 1.58579 12.75 2V4C12.75 4.41421 12.4142 4.75 12 4.75C11.5858 4.75 11.25 4.41421 11.25 4V2C11.25 1.58579 11.5858 1.25 12 1.25Z" fill="currentColor"/>
<path fill-rule="evenodd" clip-rule="evenodd" d="M7.93414 7.93414C9.01247 6.8558 10.475 6.25 12 6.25C13.525 6.25 14.9875 6.8558 16.0659 7.93414C17.1442 9.01247 17.75 10.475 17.75 12C17.75 13.525 17.1442 14.9875 16.0659 16.0659C14.9875 17.1442 13.525 17.75 12 17.75C10.475 17.75 9.01247 17.1442 7.93414 16.0659C6.8558 14.9875 6.25 13.525 6.25 12C6.25 10.475 6.8558 9.01247 7.93414 7.93414ZM12 7.75C10.8728 7.75 9.79183 8.19777 8.9948 8.9948C8.19777 9.79183 7.75 10.8728 7.75 12C7.75 13.1272 8.19777 14.2082 8.9948 15.0052C9.79183 15.8022 10.8728 16.25 12 16.25C13.1272 16.25 14.2082 15.8022 15.0052 15.0052C15.8022 14.2082 16.25 13.1272 16.25 12C16.25 10.8728 15.8022 9.79183 15.0052 8.9948C14.2082 8.19777 13.1272 7.75 12 7.75Z" fill="currentColor"/>
<path d="M12.75 20C12.75 19.5858 12.4142 19.25 12 19.25C11.5858 19.25 11.25 19.5858 11.25 20V22C11.25 22.4142 11.5858 22.75 12 22.75C12.4142 22.75 12.75 22.4142 12.75 22V20Z" fill="currentColor"/>
<path d="M19.6014 4.39849C19.8943 4.69139 19.8943 5.16626 19.6014 5.45915L18.1872 6.87337C17.8943 7.16626 17.4194 7.16626 17.1265 6.87337C16.8336 6.58047 16.8336 6.1056 17.1265 5.81271L18.5407 4.39849C18.8336 4.1056 19.3085 4.1056 19.6014 4.39849Z" fill="currentColor"/>
<path d="M6.87348 18.1871C7.16638 17.8942 7.16638 17.4193 6.87348 17.1264C6.58059 16.8335 6.10572 16.8335 5.81282 17.1264L4.39861 18.5406C4.10572 18.8335 4.10572 19.3084 4.39861 19.6013C4.6915 19.8942 5.16638 19.8942 5.45927 19.6013L6.87348 18.1871Z" fill="currentColor"/>
<path d="M22.75 12C22.75 12.4142 22.4142 12.75 22 12.75H20C19.5858 12.75 19.25 12.4142 19.25 12C19.25 11.5858 19.5858 11.25 20 11.25H22C22.4142 11.25 22.75 11.5858 22.75 12Z" fill="currentColor"/>
<path d="M4 12.75C4.41421 12.75 4.75 12.4142 4.75 12C4.75 11.5858 4.41421 11.25 4 11.25H2C1.58579 11.25 1.25 11.5858 1.25 12C1.25 12.4142 1.58579 12.75 2 12.75H4Z" fill="currentColor"/>
<path d="M19.6014 19.6014C19.3085 19.8943 18.8336 19.8943 18.5407 19.6014L17.1265 18.1872C16.8336 17.8943 16.8336 17.4194 17.1265 17.1265C17.4194 16.8336 17.8943 16.8336 18.1872 17.1265L19.6014 18.5407C19.8943 18.8336 19.8943 19.3085 19.6014 19.6014Z" fill="currentColor"/>
<path d="M5.8128 6.87345C6.1057 7.16635 6.58057 7.16635 6.87346 6.87345C7.16636 6.58056 7.16636 6.10569 6.87346 5.81279L5.45925 4.39858C5.16636 4.10569 4.69148 4.10569 4.39859 4.39858C4.1057 4.69147 4.1057 5.16635 4.39859 5.45924L5.8128 6.87345Z" fill="currentColor"/>
</svg>
