<svg width="24" height="24" viewBox="0 0 24 24" fill="none" xmlns="http://www.w3.org/2000/svg">
<path fill-rule="evenodd" clip-rule="evenodd" d="M2.25 6C2.25 5.0335 3.0335 4.25 4 4.25H20C20.9665 4.25 21.75 5.0335 21.75 6V18C21.75 18.9665 20.9665 19.75 20 19.75H4C3.0335 19.75 2.25 18.9665 2.25 18V6ZM4 5.75C3.86193 5.75 3.75 5.86193 3.75 6V11.25H11.25V5.75H4ZM12.75 5.75V11.25H20.25V6C20.25 5.86193 20.1381 5.75 20 5.75H12.75ZM11.25 12.75H3.75V18C3.75 18.1381 3.86193 18.25 4 18.25H11.25V12.75ZM12.75 18.25V12.75H20.25V18C20.25 18.1381 20.1381 18.25 20 18.25H12.75Z" fill="currentColor"/>
</svg>
