<svg width="24" height="24" viewBox="0 0 24 24" fill="none" xmlns="http://www.w3.org/2000/svg">
<path fill-rule="evenodd" clip-rule="evenodd" d="M9.50838 21.407C9.97209 21.6218 10.4966 21.6668 10.9901 21.5339C11.4831 21.4011 11.9137 21.0994 12.2068 20.6813L12.2077 20.68L16.2795 14.9115C16.3641 14.7915 16.4763 14.6937 16.6066 14.6261C16.7369 14.5586 16.8816 14.5233 17.0284 14.5233H17.3296C17.5521 15.2341 18.2158 15.7499 19 15.7499H21C21.9665 15.7499 22.75 14.9664 22.75 13.9999L22.75 4.99989C22.75 4.03339 21.9665 3.24989 21 3.24989L19 3.24989C18.3223 3.24989 17.7347 3.63507 17.4439 4.19843C15.4933 3.24669 14.3055 2.77095 13.1051 2.55643C12.0855 2.37424 11.055 2.38502 9.57159 2.40055C9.10651 2.40542 8.59691 2.41076 8.02917 2.41076C6.74899 2.41076 5.73186 2.83633 4.95166 3.60172C4.19447 4.34454 3.70908 5.35936 3.36906 6.46332C3.36096 6.48964 3.35432 6.51636 3.34916 6.54334L1.7779 11.8166C1.771 11.8397 1.76524 11.8631 1.76062 11.8868C1.66746 12.228 1.65027 12.5857 1.71059 12.9348C1.77464 13.3054 1.92432 13.656 2.14773 13.9586C2.37114 14.2613 2.66211 14.5075 2.99746 14.6779C3.33282 14.8482 3.70331 14.938 4.07946 14.9399L8.16671 14.9399C8.30702 14.9399 8.44545 14.9721 8.57135 15.034C8.69725 15.096 8.80725 15.186 8.89289 15.2971C8.97852 15.4082 9.0375 15.5376 9.06528 15.6751C9.09306 15.8126 9.0889 15.9547 9.05313 16.0903L8.31799 18.8775C8.18802 19.3718 8.23606 19.8961 8.45368 20.3585C8.67131 20.8209 9.04466 21.1921 9.50838 21.407ZM18.75 5.3243C18.7502 5.31526 18.7502 5.30623 18.75 5.29721V4.99989C18.75 4.86182 18.8619 4.74989 19 4.74989L21 4.74989C21.1381 4.74989 21.25 4.86182 21.25 4.99989L21.25 13.9999C21.25 14.138 21.1381 14.2499 21 14.2499H19C18.8619 14.2499 18.75 14.138 18.75 13.9999L18.75 5.3243ZM17.25 5.7747C15.0154 4.6685 13.9087 4.22378 12.8412 4.03304C11.9714 3.87761 11.1275 3.88608 9.70412 3.90038C9.22069 3.90523 8.66998 3.91076 8.02917 3.91076C7.11602 3.91076 6.48398 4.19977 6.0021 4.6725C5.50733 5.15788 5.12326 5.88481 4.82105 6.8456C4.81658 6.86781 4.81109 6.88983 4.80461 6.91159L3.23138 12.1914C3.22679 12.2138 3.22118 12.236 3.21455 12.2579C3.17324 12.3945 3.16439 12.5388 3.18868 12.6794C3.21298 12.82 3.26975 12.9529 3.35449 13.0677C3.43924 13.1825 3.5496 13.2759 3.6768 13.3405C3.80352 13.4049 3.94346 13.4389 4.08557 13.4399L8.16662 13.4399C8.5365 13.4399 8.90149 13.5248 9.23339 13.688C9.56531 13.8513 9.85532 14.0886 10.0811 14.3816C10.3068 14.6746 10.4623 15.0155 10.5356 15.3781C10.6088 15.7406 10.5979 16.1152 10.5035 16.4728L9.76868 19.259C9.72831 19.4127 9.74322 19.5759 9.8109 19.7198C9.87861 19.8636 9.99477 19.9791 10.1391 20.046C10.2833 20.1128 10.4465 20.1268 10.6001 20.0855C10.7536 20.0441 10.8877 19.9501 10.9789 19.8198L10.9806 19.8174L15.0538 14.0467C15.2769 13.7306 15.5728 13.4725 15.9163 13.2944C16.2599 13.1163 16.6413 13.0233 17.0283 13.0233H17.25L17.25 5.7747Z" fill="currentColor"/>
</svg>
