<svg width="24" height="24" viewBox="0 0 24 24" fill="none" xmlns="http://www.w3.org/2000/svg">
<path d="M10 9.25C10.4142 9.25 10.75 9.58579 10.75 10V17C10.75 17.4142 10.4142 17.75 10 17.75C9.58579 17.75 9.25 17.4142 9.25 17V10C9.25 9.58579 9.58579 9.25 10 9.25Z" fill="currentColor"/>
<path d="M14.75 10C14.75 9.58579 14.4142 9.25 14 9.25C13.5858 9.25 13.25 9.58579 13.25 10V17C13.25 17.4142 13.5858 17.75 14 17.75C14.4142 17.75 14.75 17.4142 14.75 17V10Z" fill="currentColor"/>
<path fill-rule="evenodd" clip-rule="evenodd" d="M5.01456 5.25H8.25V4C8.25 3.0335 9.0335 2.25 10 2.25H14C14.9665 2.25 15.75 3.0335 15.75 4V5.25H18.9856C18.9946 5.24984 19.0036 5.24984 19.0127 5.25H22C22.4142 5.25 22.75 5.58579 22.75 6C22.75 6.41421 22.4142 6.75 22 6.75H19.6567L17.8592 20.2313C17.7433 21.1007 17.0017 21.75 16.1246 21.75H7.8756C6.9985 21.75 6.25688 21.1007 6.14095 20.2313L4.34345 6.75H2C1.58579 6.75 1.25 6.41421 1.25 6C1.25 5.58579 1.58579 5.25 2 5.25H4.98749C4.99654 5.24984 5.00557 5.24984 5.01456 5.25ZM10 3.75C9.86193 3.75 9.75 3.86193 9.75 4V5.25H14.25V4C14.25 3.86193 14.1381 3.75 14 3.75H10ZM5.85673 6.75L7.6278 20.033C7.64436 20.1572 7.7503 20.25 7.8756 20.25H16.1246C16.2499 20.25 16.3558 20.1572 16.3724 20.033L18.1434 6.75H5.85673Z" fill="currentColor"/>
</svg>
