<svg width="24" height="24" viewBox="0 0 24 24" fill="none" xmlns="http://www.w3.org/2000/svg">
<path fill-rule="evenodd" clip-rule="evenodd" d="M4 5.25C3.0335 5.25 2.25 6.0335 2.25 7V17C2.25 17.9665 3.0335 18.75 4 18.75H14C14.9665 18.75 15.75 17.9665 15.75 17V15.2135L20.6646 17.6708C20.8971 17.7871 21.1732 17.7746 21.3943 17.638C21.6154 17.5013 21.75 17.2599 21.75 17V7C21.75 6.74007 21.6154 6.49867 21.3943 6.36201C21.1732 6.22536 20.8971 6.21293 20.6646 6.32918L15.75 8.78648V7C15.75 6.0335 14.9665 5.25 14 5.25H4ZM15.75 10.4635V13.5365L20.25 15.7865V8.21353L15.75 10.4635ZM14.25 7C14.25 6.86193 14.1381 6.75 14 6.75H4C3.86193 6.75 3.75 6.86193 3.75 7V17C3.75 17.1381 3.86193 17.25 4 17.25H14C14.1381 17.25 14.25 17.1381 14.25 17V7Z" fill="currentColor"/>
</svg>
