<svg width="24" height="24" viewBox="0 0 24 24" fill="none" xmlns="http://www.w3.org/2000/svg">
<path d="M3 7C3 6.44772 3.44772 6 4 6H14C14.5523 6 15 6.44772 15 7V17C15 17.5523 14.5523 18 14 18H4C3.44772 18 3 17.5523 3 17V7Z" fill="currentColor"/>
<path fill-rule="evenodd" clip-rule="evenodd" d="M2.25 7C2.25 6.0335 3.0335 5.25 4 5.25H14C14.9665 5.25 15.75 6.0335 15.75 7V17C15.75 17.9665 14.9665 18.75 14 18.75H4C3.0335 18.75 2.25 17.9665 2.25 17V7ZM4 6.75C3.86193 6.75 3.75 6.86193 3.75 7V17C3.75 17.1381 3.86193 17.25 4 17.25H14C14.1381 17.25 14.25 17.1381 14.25 17V7C14.25 6.86193 14.1381 6.75 14 6.75H4Z" fill="currentColor"/>
<path d="M15 14V10L21 7V17L15 14Z" fill="currentColor"/>
<path fill-rule="evenodd" clip-rule="evenodd" d="M21.3943 6.36201C21.6154 6.49867 21.75 6.74007 21.75 7V17C21.75 17.2599 21.6154 17.5013 21.3943 17.638C21.1732 17.7746 20.8971 17.7871 20.6646 17.6708L14.6646 14.6708C14.4105 14.5438 14.25 14.2841 14.25 14V10C14.25 9.71592 14.4105 9.45622 14.6646 9.32918L20.6646 6.32918C20.8971 6.21293 21.1732 6.22536 21.3943 6.36201ZM15.75 10.4635V13.5365L20.25 15.7865V8.21353L15.75 10.4635Z" fill="currentColor"/>
</svg>
