<svg width="24" height="24" viewBox="0 0 24 24" fill="none" xmlns="http://www.w3.org/2000/svg">
<path fill-rule="evenodd" clip-rule="evenodd" d="M18.6185 11.7575C18.5168 11.7867 18.2839 11.9262 17.9574 12.416C17.4827 13.128 16.8426 13.75 16 13.75C15.1574 13.75 14.5173 13.128 14.0426 12.416C13.6284 11.7947 13.3796 11.75 13.3333 11.75C13.287 11.75 13.0383 11.7947 12.624 12.416C12.1494 13.128 11.5093 13.75 10.6667 13.75C9.82407 13.75 9.18394 13.128 8.7093 12.416C8.29505 11.7947 8.0463 11.75 8 11.75C7.95371 11.75 7.70495 11.7947 7.2907 12.416C6.89824 13.0047 6.41209 13.5075 5.79481 13.6844C5.10527 13.8821 4.48395 13.6171 3.99983 13.1685C3.68373 12.8755 3.41762 12.75 3.19722 12.75H2C1.58579 12.75 1.25 12.4142 1.25 12C1.25 11.5858 1.58579 11.25 2 11.25H3.19722C3.97989 11.25 4.59977 11.6794 5.0194 12.0682C5.24912 12.2811 5.34762 12.2524 5.37942 12.2431C5.38014 12.2429 5.38082 12.2427 5.38147 12.2425C5.48321 12.2134 5.71608 12.0738 6.04263 11.584C6.51727 10.872 7.15741 10.25 8 10.25C8.84259 10.25 9.48273 10.872 9.95737 11.584C10.3716 12.2053 10.6204 12.25 10.6667 12.25C10.713 12.25 10.9617 12.2053 11.376 11.584C11.8506 10.872 12.4907 10.25 13.3333 10.25C14.1759 10.25 14.8161 10.872 15.2907 11.584C15.7049 12.2053 15.9537 12.25 16 12.25C16.0463 12.25 16.2951 12.2053 16.7093 11.584C17.1018 10.9953 17.5879 10.4925 18.2052 10.3156C18.8947 10.1179 19.5161 10.3829 20.0002 10.8316C20.3163 11.1245 20.5824 11.25 20.8028 11.25H22C22.4142 11.25 22.75 11.5858 22.75 12C22.75 12.4142 22.4142 12.75 22 12.75H20.8028C20.0201 12.75 19.4002 12.3206 18.9806 11.9318C18.7509 11.7189 18.6524 11.7476 18.6206 11.7569C18.6199 11.7571 18.6192 11.7573 18.6185 11.7575Z" fill="currentColor"/>
</svg>
