<svg width="24" height="24" viewBox="0 0 24 24" fill="none" xmlns="http://www.w3.org/2000/svg">
<path fill-rule="evenodd" clip-rule="evenodd" d="M21.3692 8.63084C16.1947 3.45639 7.80527 3.45639 2.63082 8.63084C2.33793 8.92373 1.86306 8.92373 1.57016 8.63084C1.27727 8.33794 1.27727 7.86307 1.57016 7.57018C7.3304 1.80994 16.6696 1.80994 22.4298 7.57018C22.7227 7.86307 22.7227 8.33794 22.4298 8.63084C22.1369 8.92373 21.662 8.92373 21.3692 8.63084Z" fill="currentColor"/>
<path fill-rule="evenodd" clip-rule="evenodd" d="M18.5407 11.4593C14.9284 7.84691 9.0716 7.84691 5.45925 11.4593C5.16636 11.7522 4.69148 11.7522 4.39859 11.4593C4.1057 11.1664 4.1057 10.6915 4.39859 10.3986C8.59673 6.20047 15.4033 6.20047 19.6014 10.3986C19.8943 10.6915 19.8943 11.1664 19.6014 11.4593C19.3085 11.7522 18.8336 11.7522 18.5407 11.4593Z" fill="currentColor"/>
<path fill-rule="evenodd" clip-rule="evenodd" d="M15.7123 14.2877C13.662 12.2374 10.3379 12.2374 8.28768 14.2877C7.99479 14.5806 7.51991 14.5806 7.22702 14.2877C6.93412 13.9948 6.93412 13.5199 7.22702 13.227C9.86306 10.591 14.1369 10.591 16.773 13.227C17.0659 13.5199 17.0659 13.9948 16.773 14.2877C16.4801 14.5806 16.0052 14.5806 15.7123 14.2877Z" fill="currentColor"/>
<path fill-rule="evenodd" clip-rule="evenodd" d="M12 16.75C11.3096 16.75 10.75 17.3096 10.75 18C10.75 18.6904 11.3096 19.25 12 19.25C12.6903 19.25 13.25 18.6904 13.25 18C13.25 17.3096 12.6903 16.75 12 16.75ZM9.24999 18C9.24999 16.4812 10.4812 15.25 12 15.25C13.5188 15.25 14.75 16.4812 14.75 18C14.75 19.5188 13.5188 20.75 12 20.75C10.4812 20.75 9.24999 19.5188 9.24999 18Z" fill="currentColor"/>
</svg>
