<svg width="20" height="20" viewBox="0 0 20 20" fill="none" xmlns="http://www.w3.org/2000/svg">
<path fill-rule="evenodd" clip-rule="evenodd" d="M11.4697 2.46967C11.7626 2.17678 12.2374 2.17678 12.5303 2.46967L16.5303 6.46967C16.8232 6.76256 16.8232 7.23744 16.5303 7.53033L12.5303 11.5303C12.2374 11.8232 11.7626 11.8232 11.4697 11.5303C11.1768 11.2374 11.1768 10.7626 11.4697 10.4697L14.1893 7.75H6.5C6.08579 7.75 5.75 8.08579 5.75 8.5V17C5.75 17.4142 5.41421 17.75 5 17.75C4.58579 17.75 4.25 17.4142 4.25 17V8.5C4.25 7.25736 5.25736 6.25 6.5 6.25H14.1893L11.4697 3.53033C11.1768 3.23744 11.1768 2.76256 11.4697 2.46967Z" fill="currentColor"/>
</svg>
