<svg width="20" height="20" viewBox="0 0 20 20" fill="none" xmlns="http://www.w3.org/2000/svg">
<path d="M3 9.25L9.18945 9.25L7.46973 7.53027C7.17683 7.23738 7.17683 6.76262 7.46973 6.46973C7.76262 6.17683 8.23738 6.17683 8.53027 6.46973L11.5303 9.46973L11.582 9.52637C11.8223 9.82095 11.8049 10.2557 11.5303 10.5303L8.53027 13.5303L8.47363 13.582C8.17905 13.8223 7.74433 13.8049 7.46973 13.5303C7.19512 13.2557 7.17766 12.8209 7.41797 12.5264L7.46973 12.4697L9.18945 10.75L3 10.75C2.58579 10.75 2.25 10.4142 2.25 10C2.25 9.58579 2.58579 9.25 3 9.25Z" fill="currentColor"/>
<path d="M16.75 5.5L16.75 14.5C16.75 15.7426 15.7426 16.75 14.5 16.75H11C10.5858 16.75 10.25 16.4142 10.25 16C10.25 15.5858 10.5858 15.25 11 15.25H14.5C14.9142 15.25 15.25 14.9142 15.25 14.5L15.25 5.5C15.25 5.08579 14.9142 4.75 14.5 4.75L11 4.75C10.5858 4.75 10.25 4.41421 10.25 4C10.25 3.58579 10.5858 3.25 11 3.25L14.5 3.25C15.7426 3.25 16.75 4.25736 16.75 5.5Z" fill="currentColor"/>
</svg>
