<svg width="20" height="20" viewBox="0 0 20 20" fill="none" xmlns="http://www.w3.org/2000/svg">
<path d="M16.25 10C16.25 6.54822 13.4518 3.75 10 3.75C7.95604 3.75 6.14063 4.73074 4.99945 6.25L7.25 6.25C7.66421 6.25 8 6.58579 8 7C8 7.41421 7.66421 7.75 7.25 7.75L3.25 7.75C2.83578 7.75 2.5 7.41421 2.5 7V3C2.5 2.58579 2.83578 2.25 3.25 2.25C3.66421 2.25 4 2.58579 4 3V5.09439C5.42045 3.35914 7.58046 2.25 10 2.25C14.2802 2.25 17.75 5.71979 17.75 10C17.75 14.2802 14.2802 17.75 10 17.75C5.9056 17.75 2.55333 14.5754 2.26944 10.5528C2.24028 10.1396 2.55159 9.78102 2.96478 9.75186C3.37797 9.7227 3.73656 10.034 3.76572 10.4472C3.99457 13.6899 6.69864 16.25 10 16.25C13.4518 16.25 16.25 13.4518 16.25 10Z" fill="currentColor"/>
</svg>
