<svg width="20" height="20" viewBox="0 0 20 20" fill="none" xmlns="http://www.w3.org/2000/svg">
<path fill-rule="evenodd" clip-rule="evenodd" d="M15 14.75C14.5857 14.75 14.25 14.4142 14.25 14V6.81066L5.53028 15.5303C5.23739 15.8232 4.76252 15.8232 4.46962 15.5303C4.17673 15.2374 4.17673 14.7626 4.46962 14.4697L13.1893 5.75L5.99995 5.75C5.58574 5.75 5.24995 5.41421 5.24995 5C5.24995 4.58579 5.58574 4.25 5.99995 4.25L15 4.25C15.1989 4.25 15.3896 4.32902 15.5303 4.46967C15.6709 4.61032 15.75 4.80109 15.75 5V14C15.75 14.4142 15.4142 14.75 15 14.75Z" fill="currentColor"/>
</svg>
