<svg width="20" height="20" viewBox="0 0 20 20" fill="none" xmlns="http://www.w3.org/2000/svg">
<path fill-rule="evenodd" clip-rule="evenodd" d="M11.4697 14.5303C11.7626 14.8232 12.2374 14.8232 12.5303 14.5303L16.5303 10.5303C16.8232 10.2374 16.8232 9.76256 16.5303 9.46967L12.5303 5.46967C12.2374 5.17678 11.7626 5.17678 11.4697 5.46967C11.1768 5.76256 11.1768 6.23744 11.4697 6.53033L14.1893 9.25H6.5C6.08579 9.25 5.75 8.91421 5.75 8.5V5C5.75 4.58579 5.41421 4.25 5 4.25C4.58579 4.25 4.25 4.58579 4.25 5V8.5C4.25 9.74264 5.25736 10.75 6.5 10.75H14.1893L11.4697 13.4697C11.1768 13.7626 11.1768 14.2374 11.4697 14.5303Z" fill="currentColor"/>
</svg>
