<svg width="20" height="20" viewBox="0 0 20 20" fill="none" xmlns="http://www.w3.org/2000/svg">
<path d="M12.4697 9.53033C12.1768 9.23744 12.1768 8.76256 12.4697 8.46967L14.1893 6.75L4 6.75C3.58579 6.75 3.25 6.41421 3.25 6C3.25 5.58579 3.58579 5.25 4 5.25L14.1893 5.25L12.4697 3.53033C12.1768 3.23744 12.1768 2.76256 12.4697 2.46967C12.7626 2.17678 13.2374 2.17678 13.5303 2.46967L16.5286 5.46794C16.5341 5.47343 16.5396 5.47901 16.5449 5.48467C16.6089 5.55228 16.658 5.6289 16.692 5.71029C16.7294 5.79942 16.75 5.8973 16.75 5.99999C16.75 6.19194 16.6768 6.38388 16.5303 6.53033L13.5303 9.53033C13.2374 9.82322 12.7626 9.82322 12.4697 9.53033Z" fill="currentColor"/>
<path d="M16 14.75C16.4142 14.75 16.75 14.4142 16.75 14C16.75 13.5858 16.4142 13.25 16 13.25L5.81066 13.25L7.53033 11.5303C7.82322 11.2374 7.82322 10.7626 7.53033 10.4697C7.23744 10.1768 6.76256 10.1768 6.46967 10.4697L3.46967 13.4697C3.39662 13.5427 3.34178 13.6271 3.30517 13.7171C3.27098 13.8011 3.25154 13.8926 3.25009 13.9884C3.25003 13.9923 3.25 13.9961 3.25 14C3.25 14.0039 3.25003 14.0077 3.25009 14.0116C3.25307 14.2083 3.33175 14.3866 3.45829 14.5187C3.46248 14.5231 3.46672 14.5274 3.47101 14.5317L6.46967 17.5303C6.76256 17.8232 7.23744 17.8232 7.53033 17.5303C7.82322 17.2374 7.82322 16.7626 7.53033 16.4697L5.81066 14.75L16 14.75Z" fill="currentColor"/>
</svg>
