<svg width="20" height="20" viewBox="0 0 20 20" fill="none" xmlns="http://www.w3.org/2000/svg">
<path fill-rule="evenodd" clip-rule="evenodd" d="M17.5303 8.53033C17.8232 8.23744 17.8232 7.76256 17.5303 7.46967L13.5303 3.46967C13.2374 3.17678 12.7626 3.17678 12.4697 3.46967L8.46967 7.46967C8.17678 7.76256 8.17678 8.23744 8.46967 8.53033C8.76256 8.82322 9.23744 8.82322 9.53033 8.53033L12.25 5.81066V13.5C12.25 13.9142 11.9142 14.25 11.5 14.25H3C2.58579 14.25 2.25 14.5858 2.25 15C2.25 15.4142 2.58579 15.75 3 15.75H11.5C12.7426 15.75 13.75 14.7426 13.75 13.5V5.81066L16.4697 8.53033C16.7626 8.82322 17.2374 8.82322 17.5303 8.53033Z" fill="currentColor"/>
</svg>
