<svg width="20" height="20" viewBox="0 0 20 20" fill="none" xmlns="http://www.w3.org/2000/svg">
<path fill-rule="evenodd" clip-rule="evenodd" d="M2.46967 11.4697C2.17678 11.7626 2.17678 12.2374 2.46967 12.5303L6.46967 16.5303C6.76256 16.8232 7.23744 16.8232 7.53033 16.5303L11.5303 12.5303C11.8232 12.2374 11.8232 11.7626 11.5303 11.4697C11.2374 11.1768 10.7626 11.1768 10.4697 11.4697L7.75 14.1893V6.5C7.75 6.08579 8.08579 5.75 8.5 5.75H17C17.4142 5.75 17.75 5.41421 17.75 5C17.75 4.58579 17.4142 4.25 17 4.25H8.5C7.25736 4.25 6.25 5.25736 6.25 6.5V14.1893L3.53033 11.4697C3.23744 11.1768 2.76256 11.1768 2.46967 11.4697Z" fill="currentColor"/>
</svg>
