<svg width="20" height="20" viewBox="0 0 20 20" fill="none" xmlns="http://www.w3.org/2000/svg">
<path d="M9.53033 7.53033C9.23744 7.82322 8.76256 7.82322 8.46967 7.53033L6.75 5.81066L6.75 16C6.75 16.4142 6.41422 16.75 6 16.75C5.58579 16.75 5.25 16.4142 5.25 16L5.25 5.81066L3.53033 7.53033C3.23744 7.82322 2.76256 7.82322 2.46967 7.53033C2.17678 7.23744 2.17678 6.76256 2.46967 6.46967L5.46794 3.4714C5.47343 3.46587 5.47901 3.46043 5.48467 3.45508C5.55228 3.39107 5.6289 3.34204 5.71029 3.308C5.79942 3.27064 5.8973 3.25 5.99999 3.25C6.19194 3.25 6.38388 3.32322 6.53033 3.46967L9.53033 6.46967C9.82322 6.76256 9.82322 7.23744 9.53033 7.53033Z" fill="currentColor"/>
<path d="M14.75 4C14.75 3.58579 14.4142 3.25 14 3.25C13.5858 3.25 13.25 3.58579 13.25 4L13.25 14.1893L11.5303 12.4697C11.2374 12.1768 10.7626 12.1768 10.4697 12.4697C10.1768 12.7626 10.1768 13.2374 10.4697 13.5303L13.4697 16.5303C13.5427 16.6034 13.6271 16.6582 13.7171 16.6948C13.8011 16.729 13.8926 16.7485 13.9884 16.7499C13.9923 16.75 13.9961 16.75 14 16.75C14.0039 16.75 14.0077 16.75 14.0116 16.7499C14.2083 16.7469 14.3866 16.6682 14.5187 16.5417C14.5231 16.5375 14.5274 16.5333 14.5317 16.529L17.5303 13.5303C17.8232 13.2374 17.8232 12.7626 17.5303 12.4697C17.2374 12.1768 16.7626 12.1768 16.4697 12.4697L14.75 14.1893L14.75 4Z" fill="currentColor"/>
</svg>
