<svg width="20" height="20" viewBox="0 0 20 20" fill="none" xmlns="http://www.w3.org/2000/svg">
<path d="M9 9.25L15.1895 9.25L13.4697 7.53027C13.1768 7.23738 13.1768 6.76262 13.4697 6.46973C13.7626 6.17683 14.2374 6.17683 14.5303 6.46973L17.5303 9.46973L17.582 9.52637C17.8223 9.82095 17.8049 10.2557 17.5303 10.5303L14.5303 13.5303L14.4736 13.582C14.1791 13.8223 13.7443 13.8049 13.4697 13.5303C13.1951 13.2557 13.1777 12.8209 13.418 12.5264L13.4697 12.4697L15.1895 10.75L9 10.75C8.58579 10.75 8.25 10.4142 8.25 10C8.25 9.58579 8.58579 9.25 9 9.25Z" fill="currentColor"/>
<path d="M3.25 14.5V5.5C3.25 4.25736 4.25736 3.25 5.5 3.25H9C9.41421 3.25 9.75 3.58579 9.75 4C9.75 4.41421 9.41421 4.75 9 4.75H5.5C5.08579 4.75 4.75 5.08579 4.75 5.5V14.5C4.75 14.9142 5.08579 15.25 5.5 15.25H9C9.41421 15.25 9.75 15.5858 9.75 16C9.75 16.4142 9.41421 16.75 9 16.75H5.5C4.25736 16.75 3.25 15.7426 3.25 14.5Z" fill="currentColor"/>
</svg>
