<svg width="20" height="20" viewBox="0 0 20 20" fill="none" xmlns="http://www.w3.org/2000/svg">
<path d="M10 3.75C6.69867 3.75 3.9946 6.31011 3.76575 9.5528C3.73659 9.96599 3.378 10.2773 2.96481 10.2481C2.55162 10.219 2.24031 9.86039 2.26947 9.4472C2.55336 5.42461 5.90563 2.25 10 2.25C12.4196 2.25 14.5795 3.3591 16 5.09436V3C16 2.58579 16.3358 2.25 16.75 2.25C17.1642 2.25 17.5 2.58579 17.5 3V7C17.5 7.41421 17.1642 7.75 16.75 7.75L12.75 7.75C12.3358 7.75 12 7.41421 12 7C12 6.58579 12.3358 6.25 12.75 6.25L15.0006 6.25C13.8594 4.73078 12.044 3.75 10 3.75Z" fill="currentColor"/>
<path d="M17.0352 9.75186C17.4484 9.78102 17.7597 10.1396 17.7306 10.5528C17.4467 14.5754 14.0944 17.75 10 17.75C7.58046 17.75 5.42048 16.6409 4 14.9056V17C4 17.4142 3.66421 17.75 3.25 17.75C2.83579 17.75 2.5 17.4142 2.5 17V13C2.5 12.5858 2.83579 12.25 3.25 12.25H7.25C7.66421 12.25 8 12.5858 8 13C8 13.4142 7.66421 13.75 7.25 13.75H4.99948C6.14061 15.2692 7.95608 16.25 10 16.25C13.3014 16.25 16.0055 13.6899 16.2343 10.4472C16.2635 10.034 16.6221 9.7227 17.0352 9.75186Z" fill="currentColor"/>
</svg>
