<svg width="20" height="20" viewBox="0 0 20 20" fill="none" xmlns="http://www.w3.org/2000/svg">
<path fill-rule="evenodd" clip-rule="evenodd" d="M11.25 4C11.25 3.58579 11.5858 3.25 12 3.25H16C16.4142 3.25 16.75 3.58579 16.75 4V8C16.75 8.41421 16.4142 8.75 16 8.75C15.5858 8.75 15.25 8.41421 15.25 8V5.81066L12.0303 9.03033C11.7374 9.32322 11.2626 9.32322 10.9697 9.03033C10.6768 8.73744 10.6768 8.26256 10.9697 7.96967L14.1893 4.75H12C11.5858 4.75 11.25 4.41421 11.25 4Z" fill="currentColor"/>
<path fill-rule="evenodd" clip-rule="evenodd" d="M8.75 16C8.75 16.4142 8.41421 16.75 8 16.75H4C3.58579 16.75 3.25 16.4142 3.25 16L3.25 12C3.25 11.5858 3.58579 11.25 4 11.25C4.41421 11.25 4.75 11.5858 4.75 12L4.75 14.1893L7.96967 10.9697C8.26256 10.6768 8.73744 10.6768 9.03033 10.9697C9.32322 11.2626 9.32322 11.7374 9.03033 12.0303L5.81066 15.25H8C8.41421 15.25 8.75 15.5858 8.75 16Z" fill="currentColor"/>
</svg>
