<svg width="20" height="20" viewBox="0 0 20 20" fill="none" xmlns="http://www.w3.org/2000/svg">
<path fill-rule="evenodd" clip-rule="evenodd" d="M11.591 2.04512C10.7123 1.16644 9.2877 1.16644 8.40902 2.04512L2.04506 8.40908C1.16638 9.28776 1.16638 10.7124 2.04506 11.5911L8.40902 17.955C9.2877 18.8337 10.7123 18.8337 11.591 17.955L17.955 11.5911C18.8336 10.7124 18.8336 9.28776 17.955 8.40908L11.591 2.04512ZM9.46968 3.10578C9.76257 2.81289 10.2374 2.81289 10.5303 3.10578L16.8943 9.46974C17.1872 9.76263 17.1872 10.2375 16.8943 10.5304L10.5303 16.8944C10.2374 17.1873 9.76257 17.1873 9.46968 16.8944L3.10572 10.5304C2.81282 10.2375 2.81282 9.76263 3.10572 9.46974L9.46968 3.10578ZM11.5303 12.2804L14.0303 9.78036C14.3232 9.48746 14.3232 9.01259 14.0303 8.7197L11.5303 6.2197C11.2374 5.9268 10.7626 5.9268 10.4697 6.2197C10.1768 6.51259 10.1768 6.98746 10.4697 7.28036L11.6893 8.50003H7.50001C7.3011 8.50003 7.11033 8.57904 6.96968 8.7197C6.82903 8.86035 6.75001 9.05111 6.75001 9.25003V12.25C6.75001 12.6642 7.08579 13 7.50001 13C7.91422 13 8.25001 12.6642 8.25001 12.25V10H11.6893L10.4697 11.2197C10.1768 11.5126 10.1768 11.9875 10.4697 12.2804C10.7626 12.5732 11.2374 12.5732 11.5303 12.2804Z" fill="currentColor"/>
</svg>
