<svg width="20" height="20" viewBox="0 0 20 20" fill="none" xmlns="http://www.w3.org/2000/svg">
<path fill-rule="evenodd" clip-rule="evenodd" d="M5.25 15C5.25 14.5858 5.58579 14.25 6 14.25H13.1893L4.46967 5.53033C4.17678 5.23744 4.17678 4.76256 4.46967 4.46967C4.76256 4.17678 5.23744 4.17678 5.53033 4.46967L14.25 13.1893L14.25 6C14.25 5.58579 14.5858 5.25 15 5.25C15.4142 5.25 15.75 5.58579 15.75 6V15C15.75 15.1989 15.671 15.3897 15.5303 15.5303C15.3897 15.671 15.1989 15.75 15 15.75H6C5.58579 15.75 5.25 15.4142 5.25 15Z" fill="currentColor"/>
</svg>
