<svg width="20" height="20" viewBox="0 0 20 20" fill="none" xmlns="http://www.w3.org/2000/svg">
<path fill-rule="evenodd" clip-rule="evenodd" d="M5.71429 3.75C5.45183 3.75 5.20423 3.85156 5.02491 4.0259C4.84631 4.19954 4.75 4.43048 4.75 4.66667V16.5661L9.5722 13.2173C9.82943 13.0387 10.1706 13.0387 10.4278 13.2173L15.25 16.5661V4.66667C15.25 4.43048 15.1537 4.19954 14.9751 4.0259C14.7958 3.85156 14.5482 3.75 14.2857 3.75H5.71429ZM3.97929 2.95041C4.44296 2.49963 5.06743 2.25 5.71429 2.25H14.2857C14.9326 2.25 15.557 2.49963 16.0207 2.95041C16.4851 3.40189 16.75 4.0188 16.75 4.66667V18C16.75 18.2792 16.595 18.5352 16.3476 18.6646C16.1002 18.794 15.8015 18.7753 15.5722 18.616L10 14.7464L4.4278 18.616C4.19851 18.7753 3.89976 18.794 3.6524 18.6646C3.40504 18.5352 3.25 18.2792 3.25 18V4.66667C3.25 4.0188 3.51491 3.40189 3.97929 2.95041Z" fill="currentColor"/>
</svg>
