<svg width="20" height="20" viewBox="0 0 20 20" fill="none" xmlns="http://www.w3.org/2000/svg">
<path fill-rule="evenodd" clip-rule="evenodd" d="M3.75 7.20507V13.0952C4.40896 12.6345 5.31723 12.25 6.5 12.25C7.68277 12.25 8.59104 12.6345 9.25 13.0952V7.20507C9.23346 7.17982 9.21436 7.15164 9.19267 7.12101C9.08586 6.97022 8.91971 6.76543 8.68923 6.56056C8.23457 6.15642 7.53041 5.75 6.5 5.75C5.46959 5.75 4.76543 6.15642 4.31077 6.56056C4.08029 6.76543 3.91414 6.97022 3.80733 7.12101C3.78564 7.15164 3.76654 7.17982 3.75 7.20507ZM10.75 7.20507V13.0952C11.409 12.6345 12.3172 12.25 13.5 12.25C14.6828 12.25 15.591 12.6345 16.25 13.0952V7.20507C16.2335 7.17982 16.2144 7.15164 16.1927 7.12101C16.0859 6.97022 15.9197 6.76543 15.6892 6.56056C15.2346 6.15642 14.5304 5.75 13.5 5.75C12.4696 5.75 11.7654 6.15642 11.3108 6.56056C11.0803 6.76543 10.9141 6.97022 10.8073 7.12101C10.7856 7.15164 10.7665 7.17982 10.75 7.20507ZM17 7L17.6708 6.66459C17.7229 6.76873 17.75 6.88357 17.75 7V15C17.75 15.3478 17.5108 15.65 17.1723 15.7299C16.8355 15.8095 16.4882 15.6481 16.3315 15.34L16.3287 15.3348C16.3248 15.3276 16.3173 15.314 16.306 15.2948C16.2833 15.2563 16.2458 15.196 16.1927 15.121C16.0859 14.9702 15.9197 14.7654 15.6892 14.5606C15.2346 14.1564 14.5304 13.75 13.5 13.75C12.4696 13.75 11.7654 14.1564 11.3108 14.5606C11.0803 14.7654 10.9141 14.9702 10.8073 15.121C10.7542 15.196 10.7167 15.2563 10.694 15.2948C10.6827 15.314 10.6752 15.3276 10.6713 15.3348L10.6685 15.34C10.5406 15.5914 10.2824 15.75 10 15.75C9.71765 15.75 9.45938 15.5914 9.33151 15.34L9.32869 15.3348C9.32484 15.3276 9.31731 15.314 9.30599 15.2948C9.28332 15.2563 9.24579 15.196 9.19267 15.121C9.08586 14.9702 8.91971 14.7654 8.68923 14.5606C8.23457 14.1564 7.53041 13.75 6.5 13.75C5.46959 13.75 4.76543 14.1564 4.31077 14.5606C4.08029 14.7654 3.91414 14.9702 3.80733 15.121C3.75421 15.196 3.71668 15.2563 3.69401 15.2948C3.68269 15.314 3.67516 15.3276 3.67131 15.3348L3.66849 15.34C3.5118 15.6481 3.16453 15.8095 2.82769 15.7299C2.48916 15.65 2.25 15.3478 2.25 15V7C2.25 6.88357 2.27711 6.76873 2.32918 6.66459L3 7C2.32918 6.66459 2.32918 6.66459 2.32918 6.66459L2.32988 6.66319L2.33069 6.66159L2.33259 6.65785L2.33758 6.64816L2.35237 6.62033C2.36439 6.59814 2.38078 6.56878 2.4017 6.53329C2.44347 6.4624 2.5036 6.3665 2.58329 6.25399C2.74211 6.02978 2.98221 5.73457 3.31423 5.43944C3.98457 4.84358 5.03041 4.25 6.5 4.25C7.96959 4.25 9.01543 4.84358 9.68577 5.43944C9.80154 5.54235 9.90613 5.64526 10 5.74517C10.0939 5.64526 10.1985 5.54235 10.3142 5.43944C10.9846 4.84358 12.0304 4.25 13.5 4.25C14.9696 4.25 16.0154 4.84358 16.6858 5.43944C17.0178 5.73457 17.2579 6.02978 17.4167 6.25399C17.4964 6.3665 17.5565 6.4624 17.5983 6.53329C17.6192 6.56878 17.6356 6.59814 17.6476 6.62033L17.6624 6.64816L17.6674 6.65785L17.6693 6.66159L17.6701 6.66319L17.6708 6.66459C17.6708 6.66459 17.6708 6.66459 17 7Z" fill="currentColor"/>
</svg>
