<svg width="20" height="20" viewBox="0 0 20 20" fill="none" xmlns="http://www.w3.org/2000/svg">
<path d="M7.75 3C7.75 2.58579 7.41421 2.25 7 2.25C6.58579 2.25 6.25 2.58579 6.25 3V3.25H4.80001C3.94396 3.25 3.25 3.94396 3.25 4.80001V15.2C3.25 16.056 3.94396 16.75 4.80001 16.75H8.5C8.91421 16.75 9.25 16.4142 9.25 16C9.25 15.5858 8.91421 15.25 8.5 15.25H4.80001C4.77239 15.25 4.75 15.2276 4.75 15.2V4.80001C4.75 4.77239 4.77239 4.75 4.80001 4.75H6.25V5C6.25 5.41421 6.58579 5.75 7 5.75C7.41421 5.75 7.75 5.41421 7.75 5V4.75H12.25V5C12.25 5.41421 12.5858 5.75 13 5.75C13.4142 5.75 13.75 5.41421 13.75 5V4.75H15.2C15.2276 4.75 15.25 4.77239 15.25 4.80001V8.5C15.25 8.91421 15.5858 9.25 16 9.25C16.4142 9.25 16.75 8.91421 16.75 8.5V4.80001C16.75 3.94396 16.056 3.25 15.2 3.25H13.75V3C13.75 2.58579 13.4142 2.25 13 2.25C12.5858 2.25 12.25 2.58579 12.25 3V3.25H7.75V3Z" fill="currentColor"/>
<path d="M18.0303 15.0303L15.0303 18.0303C14.7374 18.3232 14.2626 18.3232 13.9697 18.0303C13.6768 17.7374 13.6768 17.2626 13.9697 16.9697L15.6893 15.25H11.5C11.0858 15.25 10.75 14.9142 10.75 14.5C10.75 14.0858 11.0858 13.75 11.5 13.75H15.6893L13.9697 12.0303C13.6768 11.7374 13.6768 11.2626 13.9697 10.9697C14.2626 10.6768 14.7374 10.6768 15.0303 10.9697L18.0303 13.9697C18.3232 14.2626 18.3232 14.7374 18.0303 15.0303Z" fill="currentColor"/>
</svg>
