<svg width="20" height="20" viewBox="0 0 20 20" fill="none" xmlns="http://www.w3.org/2000/svg">
<path d="M7 2.25C7.41421 2.25 7.75 2.58579 7.75 3V3.25H12.25V3C12.25 2.58579 12.5858 2.25 13 2.25C13.4142 2.25 13.75 2.58579 13.75 3V3.25H15.2C16.056 3.25 16.75 3.94396 16.75 4.80001V9C16.75 9.41421 16.4142 9.75 16 9.75C15.5858 9.75 15.25 9.41421 15.25 9V4.80001C15.25 4.77239 15.2276 4.75 15.2 4.75H13.75V5C13.75 5.41421 13.4142 5.75 13 5.75C12.5858 5.75 12.25 5.41421 12.25 5V4.75H7.75V5C7.75 5.41421 7.41421 5.75 7 5.75C6.58579 5.75 6.25 5.41421 6.25 5V4.75H4.80001C4.77239 4.75 4.75 4.77239 4.75 4.80001V15.2C4.75 15.2276 4.77239 15.25 4.80001 15.25H9C9.41421 15.25 9.75 15.5858 9.75 16C9.75 16.4142 9.41421 16.75 9 16.75H4.80001C3.94396 16.75 3.25 16.056 3.25 15.2V4.80001C3.25 3.94396 3.94396 3.25 4.80001 3.25H6.25V3C6.25 2.58579 6.58579 2.25 7 2.25Z" fill="currentColor"/>
<path d="M11.9697 11.9697C12.2626 11.6768 12.7374 11.6768 13.0303 11.9697L15 13.9393L16.9697 11.9697C17.2626 11.6768 17.7374 11.6768 18.0303 11.9697C18.3232 12.2626 18.3232 12.7374 18.0303 13.0303L16.0607 15L18.0303 16.9697C18.3232 17.2626 18.3232 17.7374 18.0303 18.0303C17.7374 18.3232 17.2626 18.3232 16.9697 18.0303L15 16.0607L13.0303 18.0303C12.7374 18.3232 12.2626 18.3232 11.9697 18.0303C11.6768 17.7374 11.6768 17.2626 11.9697 16.9697L13.9393 15L11.9697 13.0303C11.6768 12.7374 11.6768 12.2626 11.9697 11.9697Z" fill="currentColor"/>
</svg>
