<svg width="20" height="20" viewBox="0 0 20 20" fill="none" xmlns="http://www.w3.org/2000/svg">
<path d="M9 7H11V9H13V11H11V13H9V11H7V9H9V7Z" fill="currentColor"/>
<path fill-rule="evenodd" clip-rule="evenodd" d="M7 2.25C7.41421 2.25 7.75 2.58579 7.75 3V3.25H12.25V3C12.25 2.58579 12.5858 2.25 13 2.25C13.4142 2.25 13.75 2.58579 13.75 3V3.25H15.2C16.056 3.25 16.75 3.94396 16.75 4.80001V15.2C16.75 16.056 16.056 16.75 15.2 16.75H4.80001C3.94396 16.75 3.25 16.056 3.25 15.2V4.80001C3.25 3.94396 3.94396 3.25 4.80001 3.25H6.25V3C6.25 2.58579 6.58579 2.25 7 2.25ZM12.25 4.75V5C12.25 5.41421 12.5858 5.75 13 5.75C13.4142 5.75 13.75 5.41421 13.75 5V4.75H15.2C15.2276 4.75 15.25 4.77239 15.25 4.80001V15.2C15.25 15.2276 15.2276 15.25 15.2 15.25H4.80001C4.77239 15.25 4.75 15.2276 4.75 15.2V4.80001C4.75 4.77239 4.77239 4.75 4.80001 4.75H6.25V5C6.25 5.41421 6.58579 5.75 7 5.75C7.41421 5.75 7.75 5.41421 7.75 5V4.75H12.25Z" fill="currentColor"/>
</svg>
