<svg width="20" height="20" viewBox="0 0 20 20" fill="none" xmlns="http://www.w3.org/2000/svg">
<path fill-rule="evenodd" clip-rule="evenodd" d="M7.63953 1.75H12.3605L14.3605 4.25H15C17.0711 4.25 18.75 5.92893 18.75 8V13C18.75 15.0711 17.0711 16.75 15 16.75H5C2.92893 16.75 1.25 15.0711 1.25 13L1.25 8C1.25001 5.92893 2.92894 4.25 5 4.25H5.63954L7.63953 1.75ZM8.36047 3.25L6.36048 5.75H5C3.75736 5.75 2.75001 6.75736 2.75 8L2.75 13C2.75 14.2426 3.75736 15.25 5 15.25H15C16.2426 15.25 17.25 14.2426 17.25 13V8C17.25 6.75736 16.2426 5.75 15 5.75H13.6395L11.6395 3.25H8.36047ZM10 7.75C8.75736 7.75 7.75 8.75736 7.75 10C7.75 11.2426 8.75736 12.25 10 12.25C11.2426 12.25 12.25 11.2426 12.25 10C12.25 8.75736 11.2426 7.75 10 7.75ZM6.25 10C6.25 7.92893 7.92893 6.25 10 6.25C12.0711 6.25 13.75 7.92893 13.75 10C13.75 12.0711 12.0711 13.75 10 13.75C7.92893 13.75 6.25 12.0711 6.25 10Z" fill="currentColor"/>
</svg>
