<svg width="20" height="20" viewBox="0 0 20 20" fill="none" xmlns="http://www.w3.org/2000/svg">
<path d="M8 13C8 12.4477 8.44772 12 9 12C9.55228 12 10 12.4477 10 13V14C10 14.5523 9.55228 15 9 15C8.44772 15 8 14.5523 8 14V13Z" fill="currentColor"/>
<path fill-rule="evenodd" clip-rule="evenodd" d="M16 3.25C16.9665 3.25 17.75 4.0335 17.75 5V9C17.75 9.9665 16.9665 10.75 16 10.75H14.75V16C14.75 16.9665 13.9665 17.75 13 17.75H7C6.0335 17.75 5.25 16.9665 5.25 16L5.25 10.75H4C3.0335 10.75 2.25 9.9665 2.25 9V5C2.25 4.0335 3.0335 3.25 4 3.25H16ZM5.25 9.25V6.25L14.75 6.25V9.25H16C16.1381 9.25 16.25 9.13807 16.25 9V5C16.25 4.86193 16.1381 4.75 16 4.75L4 4.75C3.86193 4.75 3.75 4.86193 3.75 5L3.75 9C3.75 9.13807 3.86193 9.25 4 9.25H5.25ZM13.25 16V7.75H12V14.5C12 14.7761 11.7761 15 11.5 15C11.2239 15 11 14.7761 11 14.5V7.75L6.75 7.75L6.75 16C6.75 16.1381 6.86193 16.25 7 16.25H13C13.1381 16.25 13.25 16.1381 13.25 16Z" fill="currentColor"/>
</svg>
