<svg width="20" height="20" viewBox="0 0 20 20" fill="none" xmlns="http://www.w3.org/2000/svg">
<path fill-rule="evenodd" clip-rule="evenodd" d="M2.25 6.5C2.25 5.25736 3.25736 4.25 4.5 4.25H15.5C16.7426 4.25 17.75 5.25736 17.75 6.5V13.5C17.75 14.7426 16.7426 15.75 15.5 15.75H4.5C3.25736 15.75 2.25 14.7426 2.25 13.5V6.5ZM4.5 5.75C4.08579 5.75 3.75 6.08579 3.75 6.5V13.5C3.75 13.9142 4.08579 14.25 4.5 14.25H15.5C15.9142 14.25 16.25 13.9142 16.25 13.5V6.5C16.25 6.08579 15.9142 5.75 15.5 5.75H4.5ZM7 7H9V9H11V11H9V13H7V11H5V9H7V7ZM12.25 8C12.25 7.72386 12.4739 7.5 12.75 7.5H14.75C15.0261 7.5 15.25 7.72386 15.25 8C15.25 8.27614 15.0261 8.5 14.75 8.5H12.75C12.4739 8.5 12.25 8.27614 12.25 8ZM12.75 9.5C12.4739 9.5 12.25 9.72386 12.25 10C12.25 10.2761 12.4739 10.5 12.75 10.5H14.75C15.0261 10.5 15.25 10.2761 15.25 10C15.25 9.72386 15.0261 9.5 14.75 9.5H12.75Z" fill="currentColor"/>
</svg>
