<svg width="20" height="20" viewBox="0 0 20 20" fill="none" xmlns="http://www.w3.org/2000/svg">
<path d="M9.53033 4.53033C9.82322 4.23744 9.82322 3.76256 9.53033 3.46967C9.23744 3.17678 8.76256 3.17678 8.46967 3.46967L5 6.93934L3.53033 5.46967C3.23744 5.17678 2.76256 5.17678 2.46967 5.46967C2.17678 5.76256 2.17678 6.23744 2.46967 6.53033L4.29289 8.35355C4.68342 8.74408 5.31658 8.74408 5.70711 8.35355L9.53033 4.53033Z" fill="currentColor"/>
<path d="M11.5 5.25C11.0858 5.25 10.75 5.58579 10.75 6C10.75 6.41421 11.0858 6.75 11.5 6.75H17C17.4142 6.75 17.75 6.41421 17.75 6C17.75 5.58579 17.4142 5.25 17 5.25H11.5Z" fill="currentColor"/>
<path d="M9.53033 10.4697C9.82322 10.7626 9.82322 11.2374 9.53033 11.5303L5.70711 15.3536C5.31658 15.7441 4.68342 15.7441 4.29289 15.3536L2.46967 13.5303C2.17678 13.2374 2.17678 12.7626 2.46967 12.4697C2.76256 12.1768 3.23744 12.1768 3.53033 12.4697L5 13.9393L8.46967 10.4697C8.76256 10.1768 9.23744 10.1768 9.53033 10.4697Z" fill="currentColor"/>
<path d="M11.5 12.25C11.0858 12.25 10.75 12.5858 10.75 13C10.75 13.4142 11.0858 13.75 11.5 13.75H17C17.4142 13.75 17.75 13.4142 17.75 13C17.75 12.5858 17.4142 12.25 17 12.25H11.5Z" fill="currentColor"/>
</svg>
