<svg width="20" height="20" viewBox="0 0 20 20" fill="none" xmlns="http://www.w3.org/2000/svg">
<path d="M7.53033 3.46967C7.23744 3.17678 6.76256 3.17678 6.46967 3.46967C6.17678 3.76256 6.17678 4.23744 6.46967 4.53033L9.46967 7.53033C9.76256 7.82322 10.2374 7.82322 10.5303 7.53033L13.5303 4.53033C13.8232 4.23744 13.8232 3.76256 13.5303 3.46967C13.2374 3.17678 12.7626 3.17678 12.4697 3.46967L10 5.93934L7.53033 3.46967Z" fill="currentColor"/>
<path d="M12.4697 16.5303C12.7626 16.8232 13.2374 16.8232 13.5303 16.5303C13.8232 16.2374 13.8232 15.7626 13.5303 15.4697L10.5303 12.4697C10.2374 12.1768 9.76256 12.1768 9.46967 12.4697L6.46967 15.4697C6.17678 15.7626 6.17678 16.2374 6.46967 16.5303C6.76256 16.8232 7.23744 16.8232 7.53033 16.5303L10 14.0607L12.4697 16.5303Z" fill="currentColor"/>
</svg>
