<svg width="20" height="20" viewBox="0 0 20 20" fill="none" xmlns="http://www.w3.org/2000/svg">
<path d="M12.4697 6.53033C12.7626 6.82322 13.2374 6.82322 13.5303 6.53033C13.8232 6.23744 13.8232 5.76256 13.5303 5.46967L10.5303 2.46967C10.2374 2.17678 9.76256 2.17678 9.46967 2.46967L6.46967 5.46967C6.17678 5.76256 6.17678 6.23744 6.46967 6.53033C6.76256 6.82322 7.23744 6.82322 7.53033 6.53033L10 4.06066L12.4697 6.53033Z" fill="currentColor"/>
<path d="M7.53033 13.4697C7.23744 13.1768 6.76256 13.1768 6.46967 13.4697C6.17678 13.7626 6.17678 14.2374 6.46967 14.5303L9.46967 17.5303C9.76256 17.8232 10.2374 17.8232 10.5303 17.5303L13.5303 14.5303C13.8232 14.2374 13.8232 13.7626 13.5303 13.4697C13.2374 13.1768 12.7626 13.1768 12.4697 13.4697L10 15.9393L7.53033 13.4697Z" fill="currentColor"/>
</svg>
