<svg width="20" height="20" viewBox="0 0 20 20" fill="none" xmlns="http://www.w3.org/2000/svg">
<path d="M7.5 6H9.5V8H11.5V10H9.5V12H7.5V10H5.5V8H7.5V6Z" fill="currentColor"/>
<path fill-rule="evenodd" clip-rule="evenodd" d="M17.75 3C17.75 2.58579 17.4142 2.25 17 2.25C16.5858 2.25 16.25 2.58579 16.25 3V5.25H14.75V5C14.75 3.75736 13.7426 2.75 12.5 2.75H4.5C3.25736 2.75 2.25 3.75736 2.25 5V13C2.25 14.2426 3.25736 15.25 4.5 15.25H12.5C13.7426 15.25 14.75 14.2426 14.75 13V12.75H16.25V17C16.25 17.4142 16.5858 17.75 17 17.75C17.4142 17.75 17.75 17.4142 17.75 17V3ZM16.25 11.25V6.75H14.75V11.25H16.25ZM13.25 5C13.25 4.58579 12.9142 4.25 12.5 4.25H4.5C4.08579 4.25 3.75 4.58579 3.75 5V13C3.75 13.4142 4.08579 13.75 4.5 13.75H12.5C12.9142 13.75 13.25 13.4142 13.25 13V5Z" fill="currentColor"/>
</svg>
