<svg width="20" height="20" viewBox="0 0 20 20" fill="none" xmlns="http://www.w3.org/2000/svg">
<path fill-rule="evenodd" clip-rule="evenodd" d="M10 2.75C8.75736 2.75 7.75 3.75736 7.75 5C7.75 5.41421 7.41421 5.75 7 5.75H4.75V16.25H15.25V5.75H13C12.5858 5.75 12.25 5.41421 12.25 5C12.25 3.75736 11.2426 2.75 10 2.75ZM6.32501 4.25C6.67247 2.53832 8.18578 1.25 10 1.25C11.8142 1.25 13.3275 2.53832 13.675 4.25H15.25C16.0784 4.25 16.75 4.92157 16.75 5.75V16.25C16.75 17.0784 16.0784 17.75 15.25 17.75H4.75C3.92157 17.75 3.25 17.0784 3.25 16.25V5.75C3.25 4.92157 3.92157 4.25 4.75 4.25H6.32501ZM11 5C11 5.55228 10.5523 6 10 6C9.44772 6 9 5.55228 9 5C9 4.44772 9.44772 4 10 4C10.5523 4 11 4.44772 11 5ZM13.5303 9.53033C13.8232 9.23744 13.8232 8.76256 13.5303 8.46967C13.2374 8.17678 12.7626 8.17678 12.4697 8.46967L9 11.9393L7.53033 10.4697C7.23744 10.1768 6.76256 10.1768 6.46967 10.4697C6.17678 10.7626 6.17678 11.2374 6.46967 11.5303L8.46967 13.5303C8.76256 13.8232 9.23744 13.8232 9.53033 13.5303L13.5303 9.53033Z" fill="currentColor"/>
</svg>
