<svg width="20" height="20" viewBox="0 0 20 20" fill="none" xmlns="http://www.w3.org/2000/svg">
<path d="M10 2.75C8.75736 2.75 7.75 3.75736 7.75 5C7.75 5.41421 7.41421 5.75 7 5.75H4.75V16.25H6C6.41421 16.25 6.75 16.5858 6.75 17C6.75 17.4142 6.41421 17.75 6 17.75H4.75C3.92157 17.75 3.25 17.0784 3.25 16.25V5.75C3.25 4.92157 3.92157 4.25 4.75 4.25H6.32501C6.67247 2.53832 8.18578 1.25 10 1.25C11.8142 1.25 13.3275 2.53832 13.675 4.25H15.25C16.0784 4.25 16.75 4.92157 16.75 5.75V6C16.75 6.41421 16.4142 6.75 16 6.75C15.5858 6.75 15.25 6.41421 15.25 6V5.75H13C12.5858 5.75 12.25 5.41421 12.25 5C12.25 3.75736 11.2426 2.75 10 2.75Z" fill="currentColor"/>
<path d="M11 5C11 5.55228 10.5523 6 10 6C9.44772 6 9 5.55228 9 5C9 4.44772 9.44772 4 10 4C10.5523 4 11 4.44772 11 5Z" fill="currentColor"/>
<path fill-rule="evenodd" clip-rule="evenodd" d="M19.0303 8.4697C18.1852 7.62452 16.8148 7.62452 15.9697 8.4697L8.96967 15.4697C8.86497 15.5744 8.7936 15.7077 8.76457 15.8529L8.26456 18.3529C8.21539 18.5988 8.29235 18.853 8.46967 19.0304C8.64699 19.2077 8.90119 19.2846 9.14709 19.2355L11.6471 18.7355C11.7923 18.7064 11.9256 18.6351 12.0303 18.5304L19.0303 11.5304C19.8755 10.6852 19.8755 9.31488 19.0303 8.4697ZM17.0303 9.53036C17.2897 9.27097 17.7103 9.27097 17.9697 9.53036C18.2291 9.78975 18.2291 10.2103 17.9697 10.4697L11.1302 17.3091L9.95607 17.544L10.1909 16.3698L17.0303 9.53036Z" fill="currentColor"/>
</svg>
