<svg width="20" height="20" viewBox="0 0 20 20" fill="none" xmlns="http://www.w3.org/2000/svg">
<path d="M10 6C10.5523 6 11 5.55228 11 5C11 4.44772 10.5523 4 10 4C9.44772 4 9 4.44772 9 5C9 5.55228 9.44772 6 10 6Z" fill="currentColor"/>
<path fill-rule="evenodd" clip-rule="evenodd" d="M10 1.25C8.18578 1.25 6.67247 2.53832 6.32501 4.25H4.75C3.92157 4.25 3.25 4.92157 3.25 5.75V16.25C3.25 17.0784 3.92157 17.75 4.75 17.75H15.25C16.0784 17.75 16.75 17.0784 16.75 16.25V5.75C16.75 4.92157 16.0784 4.25 15.25 4.25H13.675C13.3275 2.53832 11.8142 1.25 10 1.25ZM7.75 5C7.75 3.75736 8.75736 2.75 10 2.75C11.2426 2.75 12.25 3.75736 12.25 5C12.25 5.41421 12.5858 5.75 13 5.75H15.25V16.25H4.75V5.75H7C7.41421 5.75 7.75 5.41421 7.75 5Z" fill="currentColor"/>
</svg>
