<svg width="20" height="20" viewBox="0 0 20 20" fill="none" xmlns="http://www.w3.org/2000/svg">
<path fill-rule="evenodd" clip-rule="evenodd" d="M17.75 13.5C17.75 14.7426 16.7426 15.75 15.5 15.75H4.5C3.25736 15.75 2.25 14.7426 2.25 13.5V6.5C2.25 5.25736 3.25736 4.25 4.5 4.25H15.5C16.7426 4.25 17.75 5.25736 17.75 6.5V13.5ZM15.5 14.25C15.9142 14.25 16.25 13.9142 16.25 13.5V9.5H3.75L3.75 13.5C3.75 13.9142 4.08579 14.25 4.5 14.25H15.5ZM3.75 7.5V6.5C3.75 6.08579 4.08579 5.75 4.5 5.75L15.5 5.75C15.9142 5.75 16.25 6.08579 16.25 6.5V7.5H3.75Z" fill="currentColor"/>
</svg>
