<svg width="20" height="20" viewBox="0 0 20 20" fill="none" xmlns="http://www.w3.org/2000/svg">
<path fill-rule="evenodd" clip-rule="evenodd" d="M5 8C5 7.72386 5.22386 7.5 5.5 7.5H6C7.10457 7.5 8 8.39543 8 9.5C8 10.6046 7.10457 11.5 6 11.5V13C6 13.2761 5.77614 13.5 5.5 13.5C5.22386 13.5 5 13.2761 5 13V8ZM6 10.5C6.55228 10.5 7 10.0523 7 9.5C7 8.94772 6.55228 8.5 6 8.5V10.5Z" fill="currentColor"/>
<path fill-rule="evenodd" clip-rule="evenodd" d="M12.5 9.75C12.5 8.50736 13.5074 7.5 14.75 7.5H15C15.2761 7.5 15.5 7.72386 15.5 8C15.5 8.27614 15.2761 8.5 15 8.5H14.75C14.0596 8.5 13.5 9.05964 13.5 9.75V10.5H15C15.2761 10.5 15.5 10.7239 15.5 11C15.5 11.2761 15.2761 11.5 15 11.5H13.5V13C13.5 13.2761 13.2761 13.5 13 13.5C12.7239 13.5 12.5 13.2761 12.5 13V9.75Z" fill="currentColor"/>
<path fill-rule="evenodd" clip-rule="evenodd" d="M8.75 8.00003C8.75 7.72389 8.97386 7.50003 9.25 7.50003H9.5C10.7426 7.50003 11.75 8.50739 11.75 9.75003V11.25C11.75 12.4926 10.7426 13.5 9.5 13.5H9.25C8.97386 13.5 8.75 13.2761 8.75 13V8.00003ZM9.75 8.52503V12.475C10.3206 12.3592 10.75 11.8547 10.75 11.25V9.75003C10.75 9.14529 10.3206 8.64085 9.75 8.52503Z" fill="currentColor"/>
<path fill-rule="evenodd" clip-rule="evenodd" d="M2.25 5C2.25 3.48122 3.48122 2.25 5 2.25H15C16.5188 2.25 17.75 3.48122 17.75 5V15C17.75 16.5188 16.5188 17.75 15 17.75H5C3.48122 17.75 2.25 16.5188 2.25 15V5ZM5 3.75C4.30964 3.75 3.75 4.30964 3.75 5V15C3.75 15.6904 4.30964 16.25 5 16.25H15C15.6904 16.25 16.25 15.6904 16.25 15V5C16.25 4.30964 15.6904 3.75 15 3.75H5Z" fill="currentColor"/>
</svg>
