<svg width="20" height="20" viewBox="0 0 20 20" fill="none" xmlns="http://www.w3.org/2000/svg">
<path fill-rule="evenodd" clip-rule="evenodd" d="M13 6.25C13.4142 6.25 13.75 6.58579 13.75 7V8.33452C13.75 9.20315 13.4598 10.0566 12.9141 10.7031C12.3652 11.3534 11.5906 11.75 10.75 11.75H7C6.58579 11.75 6.25 11.4142 6.25 11C6.25 10.5858 6.58579 10.25 7 10.25H10.75C11.1028 10.25 11.4729 10.085 11.7679 9.73552C12.0661 9.38227 12.25 8.87975 12.25 8.33452V7C12.25 6.58579 12.5858 6.25 13 6.25Z" fill="currentColor"/>
<path fill-rule="evenodd" clip-rule="evenodd" d="M9.53033 8.46967C9.82322 8.76256 9.82322 9.23744 9.53033 9.53033L8.06066 11L9.53033 12.4697C9.82322 12.7626 9.82322 13.2374 9.53033 13.5303C9.23744 13.8232 8.76256 13.8232 8.46967 13.5303L6.46967 11.5303C6.17678 11.2374 6.17678 10.7626 6.46967 10.4697L8.46967 8.46967C8.76256 8.17678 9.23744 8.17678 9.53033 8.46967Z" fill="currentColor"/>
<path fill-rule="evenodd" clip-rule="evenodd" d="M5.71429 4.75C5.18173 4.75 4.75 5.18173 4.75 5.71429V14.2857C4.75 14.8183 5.18173 15.25 5.71429 15.25H14.2857C14.8183 15.25 15.25 14.8183 15.25 14.2857V5.71429C15.25 5.18173 14.8183 4.75 14.2857 4.75H5.71429ZM3.25 5.71429C3.25 4.3533 4.3533 3.25 5.71429 3.25H14.2857C15.6467 3.25 16.75 4.3533 16.75 5.71429V14.2857C16.75 15.6467 15.6467 16.75 14.2857 16.75H5.71429C4.3533 16.75 3.25 15.6467 3.25 14.2857V5.71429Z" fill="currentColor"/>
</svg>
