<svg width="20" height="20" viewBox="0 0 20 20" fill="none" xmlns="http://www.w3.org/2000/svg">
<path fill-rule="evenodd" clip-rule="evenodd" d="M10.5959 3.5C10.5959 3.08579 10.9317 2.75 11.3459 2.75H16.6793C17.0935 2.75 17.4293 3.08579 17.4293 3.5V8.74733C17.4293 9.16155 17.0935 9.49733 16.6793 9.49733C16.2651 9.49733 15.9293 9.16155 15.9293 8.74733V5.28994L9.9416 11.1805C9.64632 11.471 9.17146 11.4671 8.88097 11.1719C8.59048 10.8766 8.59436 10.4017 8.88964 10.1112L14.8475 4.25H11.3459C10.9317 4.25 10.5959 3.91421 10.5959 3.5ZM3.30095 5.74528C3.5389 5.50734 3.86163 5.37366 4.19814 5.37366H9C9.41421 5.37366 9.75 5.70944 9.75 6.12366C9.75 6.53787 9.41421 6.87366 9 6.87366H4.42932V15.75H13.3057V11C13.3057 10.5858 13.6414 10.25 14.0557 10.25C14.4699 10.25 14.8057 10.5858 14.8057 11V15.9812C14.8057 16.3177 14.672 16.6404 14.434 16.8784C14.1961 17.1163 13.8734 17.25 13.5368 17.25H4.19814C3.86163 17.25 3.5389 17.1163 3.30095 16.8784C3.063 16.6404 2.92932 16.3177 2.92932 15.9812V6.64247C2.92932 6.30596 3.063 5.98323 3.30095 5.74528Z" fill="currentColor"/>
</svg>
