<svg width="20" height="20" viewBox="0 0 20 20" fill="none" xmlns="http://www.w3.org/2000/svg">
<path fill-rule="evenodd" clip-rule="evenodd" d="M10 7.25C8.48122 7.25 7.25 8.48122 7.25 10C7.25 11.5188 8.48122 12.75 10 12.75C11.5188 12.75 12.75 11.5188 12.75 10C12.75 8.48122 11.5188 7.25 10 7.25ZM8.75 10C8.75 9.30964 9.30964 8.75 10 8.75C10.6904 8.75 11.25 9.30964 11.25 10C11.25 10.6904 10.6904 11.25 10 11.25C9.30964 11.25 8.75 10.6904 8.75 10Z" fill="currentColor"/>
<path fill-rule="evenodd" clip-rule="evenodd" d="M10 4.25C7.56881 4.25 5.41057 5.34569 3.88295 6.53279C3.11488 7.12964 2.4845 7.766 2.03877 8.33373C1.81646 8.61688 1.63084 8.8947 1.49702 9.15222C1.37532 9.38642 1.25 9.69008 1.25 10C1.25 10.3099 1.37532 10.6136 1.49702 10.8478C1.63084 11.1053 1.81646 11.3831 2.03877 11.6663C2.4845 12.234 3.11488 12.8704 3.88295 13.4672C5.41057 14.6543 7.56881 15.75 10 15.75C12.4312 15.75 14.5894 14.6543 16.1171 13.4672C16.8851 12.8704 17.5155 12.234 17.9612 11.6663C18.1835 11.3831 18.3692 11.1053 18.503 10.8478C18.6247 10.6136 18.75 10.3099 18.75 10C18.75 9.69008 18.6247 9.38642 18.503 9.15222C18.3692 8.8947 18.1835 8.61688 17.9612 8.33373C17.5155 7.766 16.8851 7.12964 16.1171 6.53279C14.5894 5.34569 12.4312 4.25 10 4.25ZM2.82804 10.1561C2.78795 10.079 2.76801 10.0279 2.75826 10C2.76801 9.97207 2.78795 9.92104 2.82804 9.84387C2.90736 9.69124 3.03608 9.49249 3.21859 9.26002C3.5825 8.7965 4.1237 8.24536 4.80335 7.71721C6.17115 6.65431 8.01292 5.75 10 5.75C11.9871 5.75 13.8289 6.65431 15.1967 7.71721C15.8763 8.24536 16.4175 8.7965 16.7814 9.26002C16.9639 9.49249 17.0926 9.69124 17.172 9.84387C17.2121 9.92104 17.232 9.97207 17.2417 10C17.232 10.0279 17.2121 10.079 17.172 10.1561C17.0926 10.3088 16.9639 10.5075 16.7814 10.74C16.4175 11.2035 15.8763 11.7546 15.1967 12.2828C13.8289 13.3457 11.9871 14.25 10 14.25C8.01292 14.25 6.17115 13.3457 4.80335 12.2828C4.1237 11.7546 3.5825 11.2035 3.21859 10.74C3.03608 10.5075 2.90736 10.3088 2.82804 10.1561Z" fill="currentColor"/>
</svg>
