<svg width="20" height="20" viewBox="0 0 20 20" fill="none" xmlns="http://www.w3.org/2000/svg">
<path fill-rule="evenodd" clip-rule="evenodd" d="M16.5303 15.4697C16.8232 15.7626 16.8232 16.2374 16.5303 16.5303C16.2374 16.8232 15.7626 16.8232 15.4697 16.5303L13.813 14.8736C12.6787 15.3941 11.3841 15.75 10 15.75C7.56881 15.75 5.41057 14.6543 3.88295 13.4672C3.11488 12.8704 2.4845 12.234 2.03877 11.6663C1.81646 11.3831 1.63084 11.1053 1.49702 10.8478C1.37532 10.6136 1.25 10.3099 1.25 10C1.25 9.78135 1.31176 9.57545 1.37735 9.41131C1.44668 9.23782 1.54151 9.05923 1.65158 8.88198C1.87197 8.52705 2.18097 8.13342 2.55697 7.73365C3.13848 7.11535 3.90688 6.4541 4.81504 5.8757L3.46967 4.53033C3.17678 4.23744 3.17678 3.76256 3.46967 3.46967C3.76256 3.17678 4.23744 3.17678 4.53033 3.46967L8.65914 7.59848C9.05582 7.37652 9.51313 7.25 10 7.25C11.5188 7.25 12.75 8.48122 12.75 10C12.75 10.4869 12.6235 10.9442 12.4015 11.3409L16.5303 15.4697ZM11.3409 12.4015L12.6686 13.7292C11.8309 14.052 10.9309 14.25 10 14.25C8.01292 14.25 6.17115 13.3457 4.80335 12.2828C4.1237 11.7546 3.5825 11.2035 3.21859 10.74C3.03608 10.5075 2.90736 10.3088 2.82804 10.1561C2.78792 10.0789 2.76798 10.0279 2.75824 9.99995C2.76131 9.99111 2.76524 9.98047 2.77025 9.96794C2.79824 9.89789 2.84777 9.79907 2.92589 9.67326C3.08187 9.42206 3.32452 9.10698 3.64963 8.7613C4.21121 8.16421 4.9856 7.51105 5.90536 6.96602L7.59848 8.65914C7.37652 9.05582 7.25 9.51313 7.25 10C7.25 11.5188 8.48122 12.75 10 12.75C10.4869 12.75 10.9442 12.6235 11.3409 12.4015Z" fill="currentColor"/>
<path d="M16.8259 12.8718C16.5192 13.1503 16.0449 13.1275 15.7664 12.8209C15.4879 12.5143 15.5107 12.0399 15.8173 11.7614C16.31 11.3139 16.6914 10.8795 16.9429 10.5238C17.0691 10.3453 17.1544 10.1982 17.2052 10.0886C17.2237 10.0487 17.235 10.0195 17.2417 10C17.232 9.97209 17.2121 9.92105 17.172 9.84387C17.0926 9.69124 16.9639 9.49249 16.7814 9.26002C16.4175 8.7965 15.8763 8.24536 15.1967 7.71721C13.8289 6.65431 11.9871 5.75 10 5.75C9.69609 5.75 9.3956 5.77109 9.0995 5.81072C8.68895 5.86567 8.31158 5.5774 8.25663 5.16685C8.20168 4.7563 8.48995 4.37893 8.9005 4.32398C9.25959 4.27591 9.62659 4.25 10 4.25C12.4312 4.25 14.5894 5.34569 16.1171 6.53279C16.8851 7.12964 17.5155 7.766 17.9612 8.33373C18.1835 8.61688 18.3692 8.8947 18.503 9.15222C18.6247 9.38642 18.75 9.69008 18.75 10C18.75 10.2659 18.6582 10.5208 18.5661 10.7195C18.4666 10.9341 18.3296 11.1608 18.1677 11.3898C17.843 11.8489 17.3852 12.3637 16.8259 12.8718Z" fill="currentColor"/>
</svg>
