<svg width="20" height="20" viewBox="0 0 20 20" fill="none" xmlns="http://www.w3.org/2000/svg">
<path fill-rule="evenodd" clip-rule="evenodd" d="M5.58205 6.15337C4.58522 5.48882 3.25 6.20341 3.25 7.40145V12.5987C3.25 13.7967 4.58522 14.5113 5.58205 13.8467L9.47997 11.2481C10.3706 10.6544 10.3706 9.34572 9.47997 8.75199L5.58205 6.15337ZM4.75 7.40145L8.64792 10.0001L4.75 12.5987V7.40145Z" fill="currentColor"/>
<path fill-rule="evenodd" clip-rule="evenodd" d="M13.5821 6.15337C12.5852 5.48882 11.25 6.20341 11.25 7.40145V12.5987C11.25 13.7967 12.5852 14.5113 13.5821 13.8467L17.48 11.2481C18.3706 10.6544 18.3706 9.34572 17.48 8.75199L13.5821 6.15337ZM12.75 7.40145L16.6479 10.0001L12.75 12.5987V7.40145Z" fill="currentColor"/>
</svg>
