<svg width="20" height="20" viewBox="0 0 20 20" fill="none" xmlns="http://www.w3.org/2000/svg">
<path d="M7.5 8C7.22386 8 7 8.22386 7 8.5C7 8.77614 7.22386 9 7.5 9H12.5C12.7761 9 13 8.77614 13 8.5C13 8.22386 12.7761 8 12.5 8H7.5Z" fill="currentColor"/>
<path d="M7 11C7 10.7239 7.22386 10.5 7.5 10.5H12.5C12.7761 10.5 13 10.7239 13 11C13 11.2761 12.7761 11.5 12.5 11.5H7.5C7.22386 11.5 7 11.2761 7 11Z" fill="currentColor"/>
<path d="M7.5 13C7.22386 13 7 13.2239 7 13.5C7 13.7761 7.22386 14 7.5 14H11C11.2761 14 11.5 13.7761 11.5 13.5C11.5 13.2239 11.2761 13 11 13H7.5Z" fill="currentColor"/>
<path fill-rule="evenodd" clip-rule="evenodd" d="M5.75 2.25C4.92157 2.25 4.25 2.92157 4.25 3.75V16.25C4.25 17.0784 4.92157 17.75 5.75 17.75H14.25C15.0784 17.75 15.75 17.0784 15.75 16.25V7.31066C15.75 6.91284 15.592 6.5313 15.3107 6.25L11.75 2.68934C11.4687 2.40804 11.0872 2.25 10.6893 2.25H5.75ZM5.75 3.75L10.6893 3.75L14.25 7.31066V16.25H5.75V3.75Z" fill="currentColor"/>
</svg>
