<svg width="20" height="20" viewBox="0 0 20 20" fill="none" xmlns="http://www.w3.org/2000/svg">
<path d="M11.75 2.99999C11.75 2.67147 11.5362 2.38119 11.2225 2.28375C10.9087 2.1863 10.5681 2.30438 10.382 2.5751L8.73304 4.97352C8.49838 5.31485 8.58485 5.78179 8.92618 6.01645C9.26751 6.25112 9.73444 6.16465 9.96911 5.82332L10.25 5.41476V6.99999C10.25 7.41421 10.5858 7.74999 11 7.74999C11.4142 7.74999 11.75 7.41421 11.75 6.99999V2.99999Z" fill="currentColor"/>
<path fill-rule="evenodd" clip-rule="evenodd" d="M12.3665 13.4271L9.61802 17.4249C9.43191 17.6956 9.09127 17.8137 8.77753 17.7162C8.4638 17.6188 8.24999 17.3285 8.24999 17V11.75H6.92577C5.718 11.75 5.00547 10.3955 5.6897 9.4002L6.76927 7.82993L3.46967 4.53033C3.17678 4.23744 3.17678 3.76256 3.46967 3.46967C3.76256 3.17678 4.23744 3.17678 4.53033 3.46967L16.5303 15.4697C16.8232 15.7626 16.8232 16.2374 16.5303 16.5303C16.2374 16.8232 15.7626 16.8232 15.4697 16.5303L12.3665 13.4271ZM7.84796 8.90862L6.92577 10.25H8.99999C9.07768 10.25 9.1526 10.2618 9.22307 10.2837L7.84796 8.90862ZM9.71626 10.7769C9.73818 10.8474 9.74999 10.9223 9.74999 11V14.5852L11.2878 12.3484L9.71626 10.7769Z" fill="currentColor"/>
<path d="M13 8.24999C12.5858 8.24999 12.25 8.58578 12.25 8.99999C12.25 9.41421 12.5858 9.74999 13 9.74999H13.1651C13.1234 10.0251 13.2372 10.3127 13.4819 10.4809C13.8232 10.7156 14.2901 10.6291 14.5248 10.2878C15.1182 9.42469 14.5002 8.24999 13.4528 8.24999H13Z" fill="currentColor"/>
</svg>
