<svg width="20" height="20" viewBox="0 0 20 20" fill="none" xmlns="http://www.w3.org/2000/svg">
<path d="M9.25 9.25V7.5H10.75V9.25H12.5V10.75H10.75V12.5H9.25V10.75H7.5V9.25H9.25Z" fill="currentColor"/>
<path fill-rule="evenodd" clip-rule="evenodd" d="M2.25 3.75C2.25 2.92157 2.92157 2.25 3.75 2.25H8C8.9665 2.25 9.75 3.0335 9.75 4C9.75 4.13807 9.86193 4.25 10 4.25H16.25C17.0784 4.25 17.75 4.92157 17.75 5.75V14.25C17.75 15.0784 17.0784 15.75 16.25 15.75H3.75C2.92157 15.75 2.25 15.0784 2.25 14.25V3.75ZM8 3.75H3.75V14.25H16.25V5.75H10C9.0335 5.75 8.25 4.9665 8.25 4C8.25 3.86193 8.13807 3.75 8 3.75Z" fill="currentColor"/>
</svg>
