<svg width="20" height="20" viewBox="0 0 20 20" fill="none" xmlns="http://www.w3.org/2000/svg">
<path fill-rule="evenodd" clip-rule="evenodd" d="M9.77629 4.28414C9.92196 4.23862 10.078 4.23862 10.2237 4.28414L18.2237 6.78414C18.5368 6.88199 18.75 7.17196 18.75 7.5C18.75 7.82804 18.5368 8.11801 18.2237 8.21586L14.75 9.30139V13C14.75 13.8981 14.0925 14.5993 13.2966 15.0334C12.4726 15.4829 11.3416 15.75 10 15.75C8.65845 15.75 7.5274 15.4829 6.70336 15.0334C5.9075 14.5993 5.25 13.8981 5.25 13V9.30139L3.75 8.83264V14C3.75 14.4142 3.41421 14.75 3 14.75C2.58579 14.75 2.25 14.4142 2.25 14V8.36389L1.77629 8.21586C1.46319 8.11801 1.25 7.82804 1.25 7.5C1.25 7.17196 1.46319 6.88199 1.77629 6.78414L9.77629 4.28414ZM6.75 9.77014V13C6.75 13.1019 6.8425 13.4007 7.42164 13.7166C7.9726 14.0171 8.84155 14.25 10 14.25C11.1584 14.25 12.0274 14.0171 12.5784 13.7166C13.1575 13.4007 13.25 13.1019 13.25 13V9.77014L10.2237 10.7159C10.078 10.7614 9.92196 10.7614 9.77629 10.7159L6.75 9.77014ZM4.51446 7.5L10 9.21423L15.4855 7.5L10 5.78577L4.51446 7.5Z" fill="currentColor"/>
</svg>
