<svg width="20" height="20" viewBox="0 0 20 20" fill="none" xmlns="http://www.w3.org/2000/svg">
<path fill-rule="evenodd" clip-rule="evenodd" d="M4.25 8C4.25 4.82436 6.82436 2.25 10 2.25C13.1756 2.25 15.75 4.82436 15.75 8C15.75 9.67401 15.0337 11.1818 13.8931 12.2316C13.4878 12.6046 12.9716 12.75 12.4998 12.75H7.50022C7.02841 12.75 6.51217 12.6046 6.10691 12.2316C4.96632 11.1818 4.25 9.67401 4.25 8ZM10 3.75C7.65279 3.75 5.75 5.65279 5.75 8C5.75 9.23731 6.27778 10.3502 7.12274 11.128C7.19572 11.1951 7.32205 11.25 7.50022 11.25H12.4998C12.678 11.25 12.8043 11.1951 12.8773 11.128C13.7222 10.3502 14.25 9.23731 14.25 8C14.25 5.65279 12.3472 3.75 10 3.75Z" fill="currentColor"/>
<path d="M6.75 14.75C6.75 14.3358 7.08579 14 7.5 14H12.5C12.9142 14 13.25 14.3358 13.25 14.75C13.25 15.1642 12.9142 15.5 12.5 15.5H7.5C7.08579 15.5 6.75 15.1642 6.75 14.75Z" fill="currentColor"/>
<path d="M11.5 17.25V16.75H8.5V17.25C8.5 18.0784 9.17157 18.75 10 18.75C10.8284 18.75 11.5 18.0784 11.5 17.25Z" fill="currentColor"/>
</svg>
