<svg width="20" height="20" viewBox="0 0 20 20" fill="none" xmlns="http://www.w3.org/2000/svg">
<path d="M5.5 5.25C5.08579 5.25 4.75 5.58579 4.75 6C4.75 6.41421 5.08579 6.75 5.5 6.75H13.5C13.9142 6.75 14.25 6.41421 14.25 6C14.25 5.58579 13.9142 5.25 13.5 5.25H5.5Z" fill="currentColor"/>
<path d="M5.5 9.25C5.08579 9.25 4.75 9.58579 4.75 10C4.75 10.4142 5.08579 10.75 5.5 10.75H13.5C13.9142 10.75 14.25 10.4142 14.25 10C14.25 9.58579 13.9142 9.25 13.5 9.25H5.5Z" fill="currentColor"/>
<path d="M4.75 14C4.75 13.5858 5.08579 13.25 5.5 13.25H8C8.41421 13.25 8.75 13.5858 8.75 14C8.75 14.4142 8.41421 14.75 8 14.75H5.5C5.08579 14.75 4.75 14.4142 4.75 14Z" fill="currentColor"/>
<path d="M17.5303 12.5303C17.8232 12.2374 17.8232 11.7626 17.5303 11.4697C17.2374 11.1768 16.7626 11.1768 16.4697 11.4697L13 14.9393L11.5303 13.4697C11.2374 13.1768 10.7626 13.1768 10.4697 13.4697C10.1768 13.7626 10.1768 14.2374 10.4697 14.5303L12.2929 16.3536C12.6834 16.7441 13.3166 16.7441 13.7071 16.3536L17.5303 12.5303Z" fill="currentColor"/>
</svg>
