<svg width="20" height="20" viewBox="0 0 20 20" fill="none" xmlns="http://www.w3.org/2000/svg">
<path d="M9.5 4.75C9.08579 4.75 8.75 5.08579 8.75 5.5C8.75 5.91421 9.08579 6.25 9.5 6.25H10.5C10.9142 6.25 11.25 5.91421 11.25 5.5C11.25 5.08579 10.9142 4.75 10.5 4.75H9.5Z" fill="currentColor"/>
<path fill-rule="evenodd" clip-rule="evenodd" d="M6.75 2.25C5.92157 2.25 5.25 2.92157 5.25 3.75V16.25C5.25 17.0784 5.92157 17.75 6.75 17.75H13.25C14.0784 17.75 14.75 17.0784 14.75 16.25V3.75C14.75 2.92157 14.0784 2.25 13.25 2.25H6.75ZM6.75 3.75L13.25 3.75V16.25H6.75V3.75Z" fill="currentColor"/>
</svg>
