<svg width="20" height="20" viewBox="0 0 20 20" fill="none" xmlns="http://www.w3.org/2000/svg">
<path d="M7 2.25C7.41421 2.25 7.75 2.58579 7.75 3V3.29844C7.75 3.92288 7.53748 4.52874 7.14739 5.01635L6.22956 6.16363C5.91913 6.55168 5.75 7.03382 5.75 7.53076C5.75 7.92799 6.07201 8.25 6.46924 8.25H6.79268C6.76504 8.17181 6.75 8.08766 6.75 8C6.75 7.58579 7.08579 7.25 7.5 7.25H7.84549C8.22867 7.25 8.54244 7.4632 8.71311 7.73781C8.8176 7.90592 9.02775 8.18408 9.29265 8.4107C9.56745 8.6458 9.81132 8.75 10 8.75C10.1887 8.75 10.4325 8.6458 10.7074 8.4107C10.9723 8.18408 11.1824 7.90592 11.2869 7.7378C11.4576 7.4632 11.7713 7.25 12.1545 7.25H12.5C12.9142 7.25 13.25 7.58579 13.25 8C13.25 8.08766 13.235 8.17181 13.2073 8.25H13.5308C13.928 8.25 14.25 7.92799 14.25 7.53076C14.25 7.03382 14.0809 6.55168 13.7704 6.16363L12.8526 5.01635C12.4625 4.52874 12.25 3.92288 12.25 3.29844V3C12.25 2.58579 12.5858 2.25 13 2.25C13.4142 2.25 13.75 2.58579 13.75 3V3.29844C13.75 3.58228 13.8466 3.85767 14.0239 4.07931L14.9417 5.22659C15.465 5.8806 15.75 6.69321 15.75 7.53076C15.75 8.75641 14.7564 9.75 13.5308 9.75H11.5C11.4771 9.75 11.4544 9.74897 11.432 9.74696C11.0563 10.0155 10.5677 10.25 10 10.25C9.43229 10.25 8.94366 10.0155 8.56802 9.74696C8.54561 9.74897 8.52293 9.75 8.5 9.75H6.46924C5.24359 9.75 4.25 8.75641 4.25 7.53076C4.25 6.69321 4.53505 5.8806 5.05826 5.22659L5.97609 4.07931C6.1534 3.85767 6.25 3.58228 6.25 3.29844V3C6.25 2.58579 6.58579 2.25 7 2.25Z" fill="currentColor"/>
<path d="M8 12.25C8.41421 12.25 8.75 12.5858 8.75 13V14.25H11.25V13C11.25 12.5858 11.5858 12.25 12 12.25C12.4142 12.25 12.75 12.5858 12.75 13V14.25H13.25C13.8692 14.25 14.4008 14.6252 14.6298 15.1607C15.5659 14.8883 16.25 14.024 16.25 13V11C16.25 10.5858 16.5858 10.25 17 10.25C17.4142 10.25 17.75 10.5858 17.75 11V13C17.75 14.837 16.4291 16.3656 14.6852 16.6875C14.4979 17.3025 13.9262 17.75 13.25 17.75H6.75C6.07378 17.75 5.50207 17.3025 5.31482 16.6875C3.57095 16.3656 2.25 14.837 2.25 13V11C2.25 10.5858 2.58579 10.25 3 10.25C3.41421 10.25 3.75 10.5858 3.75 11V13C3.75 14.024 4.43409 14.8883 5.3702 15.1607C5.5992 14.6252 6.13078 14.25 6.75 14.25H7.25V13C7.25 12.5858 7.58579 12.25 8 12.25Z" fill="currentColor"/>
</svg>
