<svg width="20" height="20" viewBox="0 0 20 20" fill="none" xmlns="http://www.w3.org/2000/svg">
<path fill-rule="evenodd" clip-rule="evenodd" d="M2.25 3.75C2.25 2.92157 2.92157 2.25 3.75 2.25H14.25C15.0784 2.25 15.75 2.92157 15.75 3.75V6C15.75 6.41421 15.4142 6.75 15 6.75C14.5858 6.75 14.25 6.41421 14.25 6V3.75H3.75V14.25H6.5C6.91421 14.25 7.25 14.5858 7.25 15C7.25 15.4142 6.91421 15.75 6.5 15.75H3.75C2.92157 15.75 2.25 15.0784 2.25 14.25V3.75Z" fill="currentColor"/>
<path fill-rule="evenodd" clip-rule="evenodd" d="M15.9697 8.46967C16.8148 7.62449 18.1852 7.62449 19.0303 8.46967C19.8755 9.31485 19.8755 10.6852 19.0303 11.5303L12.0303 18.5303C11.9256 18.635 11.7923 18.7064 11.6471 18.7354L9.14709 19.2354C8.90119 19.2846 8.64699 19.2076 8.46967 19.0303C8.29235 18.853 8.21538 18.5988 8.26456 18.3529L8.76456 15.8529C8.7936 15.7077 8.86497 15.5744 8.96967 15.4697L15.9697 8.46967ZM17.9697 9.53033C17.7103 9.27094 17.2897 9.27094 17.0303 9.53033L10.1909 16.3698L9.95607 17.5439L11.1302 17.3091L17.9697 10.4697C18.2291 10.2103 18.2291 9.78972 17.9697 9.53033Z" fill="currentColor"/>
<path fill-rule="evenodd" clip-rule="evenodd" d="M6 0.75C6.41421 0.75 6.75 1.08579 6.75 1.5V4.5C6.75 4.91421 6.41421 5.25 6 5.25C5.58579 5.25 5.25 4.91421 5.25 4.5V1.5C5.25 1.08579 5.58579 0.75 6 0.75Z" fill="currentColor"/>
<path fill-rule="evenodd" clip-rule="evenodd" d="M9 0.75C9.41421 0.75 9.75 1.08579 9.75 1.5V4.5C9.75 4.91421 9.41421 5.25 9 5.25C8.58579 5.25 8.25 4.91421 8.25 4.5V1.5C8.25 1.08579 8.58579 0.75 9 0.75Z" fill="currentColor"/>
<path fill-rule="evenodd" clip-rule="evenodd" d="M12 0.75C12.4142 0.75 12.75 1.08579 12.75 1.5V4.5C12.75 4.91421 12.4142 5.25 12 5.25C11.5858 5.25 11.25 4.91421 11.25 4.5V1.5C11.25 1.08579 11.5858 0.75 12 0.75Z" fill="currentColor"/>
</svg>
