<svg width="20" height="20" viewBox="0 0 20 20" fill="none" xmlns="http://www.w3.org/2000/svg">
<path fill-rule="evenodd" clip-rule="evenodd" d="M6 2.25C6.41421 2.25 6.75 2.58579 6.75 3V3.25H10.25C10.6642 3.25 11 3.58579 11 4V13.125C11 14.4367 12.0633 15.5 13.375 15.5C14.6867 15.5 15.75 14.4367 15.75 13.125V10.75H13.75C12.9216 10.75 12.25 10.0784 12.25 9.25V4.63158C12.25 3.86855 12.8686 3.25 13.6316 3.25C15.9061 3.25 17.75 5.09388 17.75 7.36842V7.5C17.75 8.10474 17.3206 8.60918 16.75 8.725V13.125C16.75 14.989 15.239 16.5 13.375 16.5C11.511 16.5 10 14.989 10 13.125V4.75H6.75V5.35352C7.90425 5.67998 8.75 6.74122 8.75 8V15.9248C8.75 16.3806 8.38055 16.75 7.92481 16.75H4.07519C3.61945 16.75 3.25 16.3806 3.25 15.9248V8C3.25 6.74122 4.09575 5.67998 5.25 5.35352V4.75H4.25C3.83579 4.75 3.5 4.41421 3.5 4C3.5 3.58579 3.83579 3.25 4.25 3.25H5.25V3C5.25 2.58579 5.58579 2.25 6 2.25ZM6 6.75C5.30964 6.75 4.75 7.30964 4.75 8V15.25H7.25V8C7.25 7.30964 6.69036 6.75 6 6.75ZM16.2484 7.27534C16.2007 5.91168 15.1103 4.81318 13.75 4.75263V9.25H15.25V8.5C15.25 7.89583 15.6786 7.39178 16.2484 7.27534Z" fill="currentColor"/>
</svg>
