<svg width="20" height="20" viewBox="0 0 20 20" fill="none" xmlns="http://www.w3.org/2000/svg">
<path d="M15.25 3.25C16.0784 3.25 16.75 3.92157 16.75 4.75V15.25C16.75 16.0784 16.0784 16.75 15.25 16.75H4.75C3.92157 16.75 3.25 16.0784 3.25 15.25V4.75C3.25 3.92157 3.92157 3.25 4.75 3.25H15.25ZM4.75 15.25H6.75V4.75H4.75V15.25ZM8.25 15.25H15.25V4.75H8.25V15.25ZM12.1465 7.04297C12.4615 6.72799 13 6.95103 13 7.39648V12.6035C13 13.049 12.4615 13.272 12.1465 12.957L9.54297 10.3535C9.34771 10.1583 9.34771 9.84175 9.54297 9.64648L12.1465 7.04297Z" fill="#181818"/>
</svg>
