<svg width="20" height="20" viewBox="0 0 20 20" fill="none" xmlns="http://www.w3.org/2000/svg">
<path fill-rule="evenodd" clip-rule="evenodd" d="M3.25 4.75C3.25 3.92157 3.92157 3.25 4.75 3.25H7.75C8.57843 3.25 9.25 3.92157 9.25 4.75V15.25C9.25 16.0784 8.57843 16.75 7.75 16.75H4.75C3.92157 16.75 3.25 16.0784 3.25 15.25V4.75ZM7.75 4.75H4.75V15.25H7.75V4.75Z" fill="currentColor"/>
<path fill-rule="evenodd" clip-rule="evenodd" d="M10.75 4.75C10.75 3.92157 11.4216 3.25 12.25 3.25H15.25C16.0784 3.25 16.75 3.92157 16.75 4.75V9.25C16.75 10.0784 16.0784 10.75 15.25 10.75H12.25C11.4216 10.75 10.75 10.0784 10.75 9.25V4.75ZM15.25 4.75H12.25V9.25H15.25V4.75Z" fill="currentColor"/>
<path fill-rule="evenodd" clip-rule="evenodd" d="M12.25 12.25C11.4216 12.25 10.75 12.9216 10.75 13.75V15.25C10.75 16.0784 11.4216 16.75 12.25 16.75H15.25C16.0784 16.75 16.75 16.0784 16.75 15.25V13.75C16.75 12.9216 16.0784 12.25 15.25 12.25H12.25ZM12.25 13.75H15.25V15.25H12.25V13.75Z" fill="currentColor"/>
</svg>
