<svg width="20" height="20" viewBox="0 0 20 20" fill="none" xmlns="http://www.w3.org/2000/svg">
<path fill-rule="evenodd" clip-rule="evenodd" d="M6.25 5.25C5.42157 5.25 4.75 5.92157 4.75 6.75V13.25C4.75 14.0784 5.42157 14.75 6.25 14.75H7.75C8.57843 14.75 9.25 14.0784 9.25 13.25V6.75C9.25 5.92157 8.57843 5.25 7.75 5.25H6.25ZM6.25 6.75H7.75V13.25H6.25V6.75Z" fill="currentColor"/>
<path fill-rule="evenodd" clip-rule="evenodd" d="M12.25 5.25C11.4216 5.25 10.75 5.92157 10.75 6.75V13.25C10.75 14.0784 11.4216 14.75 12.25 14.75H13.75C14.5784 14.75 15.25 14.0784 15.25 13.25V6.75C15.25 5.92157 14.5784 5.25 13.75 5.25H12.25ZM12.25 6.75H13.75V13.25H12.25V6.75Z" fill="currentColor"/>
</svg>
