<svg width="20" height="20" viewBox="0 0 20 20" fill="none" xmlns="http://www.w3.org/2000/svg">
<path fill-rule="evenodd" clip-rule="evenodd" d="M6 3.25C4.20507 3.25 2.75 4.70507 2.75 6.5C2.75 8.29493 4.20507 9.75 6 9.75C7.79493 9.75 9.25 8.29493 9.25 6.5C9.25 4.70507 7.79493 3.25 6 3.25ZM4.25 6.5C4.25 5.5335 5.0335 4.75 6 4.75C6.9665 4.75 7.75 5.5335 7.75 6.5C7.75 7.4665 6.9665 8.25 6 8.25C5.0335 8.25 4.25 7.4665 4.25 6.5Z" fill="currentColor"/>
<path fill-rule="evenodd" clip-rule="evenodd" d="M14 3.25C12.2051 3.25 10.75 4.70507 10.75 6.5C10.75 8.29493 12.2051 9.75 14 9.75C15.7949 9.75 17.25 8.29493 17.25 6.5C17.25 4.70507 15.7949 3.25 14 3.25ZM12.25 6.5C12.25 5.5335 13.0335 4.75 14 4.75C14.9665 4.75 15.75 5.5335 15.75 6.5C15.75 7.4665 14.9665 8.25 14 8.25C13.0335 8.25 12.25 7.4665 12.25 6.5Z" fill="currentColor"/>
<path d="M6 11.75C4.20507 11.75 2.75 13.2051 2.75 15C2.75 15.4142 2.41421 15.75 2 15.75C1.58579 15.75 1.25 15.4142 1.25 15C1.25 12.3766 3.37665 10.25 6 10.25C8.62335 10.25 10.75 12.3766 10.75 15C10.75 15.4142 10.4142 15.75 10 15.75C9.58579 15.75 9.25 15.4142 9.25 15C9.25 13.2051 7.79493 11.75 6 11.75Z" fill="currentColor"/>
<path d="M12.3754 12.1843C12.8527 11.9082 13.4067 11.75 13.9999 11.75C15.7948 11.75 17.2499 13.2051 17.2499 15C17.2499 15.4142 17.5857 15.75 17.9999 15.75C18.4141 15.75 18.7499 15.4142 18.7499 15C18.7499 12.3766 16.6232 10.25 13.9999 10.25C13.1359 10.25 12.3238 10.4813 11.6243 10.8859C11.2658 11.0933 11.1433 11.5521 11.3507 11.9107C11.5581 12.2692 12.0169 12.3917 12.3754 12.1843Z" fill="currentColor"/>
</svg>
