<svg width="20" height="20" viewBox="0 0 20 20" fill="none" xmlns="http://www.w3.org/2000/svg">
<path fill-rule="evenodd" clip-rule="evenodd" d="M10 1.21729C7.92893 1.21729 6.25 2.89622 6.25 4.96729C6.25 7.03835 7.92893 8.71729 10 8.71729C12.0711 8.71729 13.75 7.03835 13.75 4.96729C13.75 2.89622 12.0711 1.21729 10 1.21729ZM7.75 4.96729C7.75 3.72464 8.75736 2.71729 10 2.71729C11.2426 2.71729 12.25 3.72464 12.25 4.96729C12.25 6.20993 11.2426 7.21729 10 7.21729C8.75736 7.21729 7.75 6.20993 7.75 4.96729Z" fill="currentColor"/>
<path d="M4.75 15.9673C4.75 13.0678 7.10051 10.7173 10 10.7173C12.8995 10.7173 15.25 13.0678 15.25 15.9673C15.25 16.3815 15.5858 16.7173 16 16.7173C16.4142 16.7173 16.75 16.3815 16.75 15.9673C16.75 12.2394 13.7279 9.21729 10 9.21729C6.27208 9.21729 3.25 12.2394 3.25 15.9673C3.25 16.3815 3.58579 16.7173 4 16.7173C4.41421 16.7173 4.75 16.3815 4.75 15.9673Z" fill="currentColor"/>
</svg>
