<svg width="20" height="20" viewBox="0 0 20 20" fill="none" xmlns="http://www.w3.org/2000/svg">
<path fill-rule="evenodd" clip-rule="evenodd" d="M10 1.21729C7.92893 1.21729 6.25 2.89622 6.25 4.96729C6.25 7.03835 7.92893 8.71729 10 8.71729C12.0711 8.71729 13.75 7.03835 13.75 4.96729C13.75 2.89622 12.0711 1.21729 10 1.21729ZM7.75 4.96729C7.75 3.72464 8.75736 2.71729 10 2.71729C11.2426 2.71729 12.25 3.72464 12.25 4.96729C12.25 6.20993 11.2426 7.21729 10 7.21729C8.75736 7.21729 7.75 6.20993 7.75 4.96729Z" fill="currentColor"/>
<path d="M4.75 15.9673C4.75 13.0678 7.10051 10.7173 10 10.7173C10.299 10.7173 10.5915 10.7422 10.8759 10.7899C11.2844 10.8584 11.6711 10.5828 11.7397 10.1743C11.8082 9.76583 11.5326 9.37912 11.1241 9.31058C10.758 9.24917 10.3825 9.21729 10 9.21729C6.27208 9.21729 3.25 12.2394 3.25 15.9673C3.25 16.3815 3.58579 16.7173 4 16.7173C4.41421 16.7173 4.75 16.3815 4.75 15.9673Z" fill="currentColor"/>
<path d="M15.6893 15.25L13.9697 16.9697C13.6768 17.2626 13.6768 17.7374 13.9697 18.0303C14.2626 18.3232 14.7374 18.3232 15.0303 18.0303L18.0303 15.0303C18.3232 14.7374 18.3232 14.2626 18.0303 13.9697L15.0303 10.9697C14.7374 10.6768 14.2626 10.6768 13.9697 10.9697C13.6768 11.2626 13.6768 11.7374 13.9697 12.0303L15.6893 13.75H11.5C11.0858 13.75 10.75 14.0858 10.75 14.5C10.75 14.9142 11.0858 15.25 11.5 15.25H15.6893Z" fill="currentColor"/>
</svg>
