<svg width="20" height="20" viewBox="0 0 20 20" fill="none" xmlns="http://www.w3.org/2000/svg">
<path d="M11.5 4.5C12.3284 4.5 13 3.82843 13 3C13 2.17157 12.3284 1.5 11.5 1.5C10.6716 1.5 10 2.17157 10 3C10 3.82843 10.6716 4.5 11.5 4.5Z" fill="currentColor"/>
<path d="M9.89192 5.25C9.53177 5.25 9.17536 5.32315 8.84433 5.46503L5.70456 6.81064C5.4288 6.92883 5.25 7.19998 5.25 7.5V10C5.25 10.4142 5.58579 10.75 6 10.75C6.41421 10.75 6.75 10.4142 6.75 10V7.99455L8.40567 7.28497L6.02239 16.8181C5.92193 17.2199 6.16625 17.6271 6.5681 17.7276C6.96994 17.8281 7.37715 17.5837 7.47761 17.1819L8.87892 11.5766C8.89548 11.7377 8.96396 11.8915 9.07785 12.013L10.75 13.7966V17C10.75 17.4142 11.0858 17.75 11.5 17.75C11.9142 17.75 12.25 17.4142 12.25 17V13.5C12.25 13.3095 12.1775 13.1261 12.0472 12.987L10.4518 11.2853L11.2749 7.99274L12.3488 9.8721C12.4503 10.0496 12.6198 10.178 12.8181 10.2276L14.8181 10.7276C15.2199 10.8281 15.6271 10.5837 15.7276 10.1819C15.8281 9.78006 15.5837 9.37285 15.1819 9.27239L13.4924 8.85002L12.2009 6.58998C11.7275 5.76137 10.8463 5.25 9.89192 5.25Z" fill="currentColor"/>
</svg>
