<svg width="20" height="20" viewBox="0 0 20 20" fill="none" xmlns="http://www.w3.org/2000/svg">
<path fill-rule="evenodd" clip-rule="evenodd" d="M15.75 4C15.75 3.0335 14.9665 2.25 14 2.25H6C5.0335 2.25 4.25 3.0335 4.25 4V5C4.25 5.6981 4.65876 6.30073 5.25 6.58159L5.25 16C5.25 16.9665 6.0335 17.75 7 17.75H13C13.9665 17.75 14.75 16.9665 14.75 16V6.58159C15.3412 6.30073 15.75 5.6981 15.75 5V4ZM13.25 6.75L6.75 6.75L6.75 16C6.75 16.1381 6.86193 16.25 7 16.25H13C13.1381 16.25 13.25 16.1381 13.25 16V14.75H10C9.0335 14.75 8.25 13.9665 8.25 13L8.25 10C8.25 9.0335 9.0335 8.25 10 8.25H13.25V6.75ZM14.0005 5.25C14.1383 5.24972 14.25 5.1379 14.25 5V4C14.25 3.86193 14.1381 3.75 14 3.75L6 3.75C5.86193 3.75 5.75 3.86193 5.75 4V5C5.75 5.13791 5.86167 5.24974 5.99953 5.25C5.99937 5.25 5.99968 5.25 5.99953 5.25L14.0005 5.25ZM13.25 9.75V13.25H10C9.86193 13.25 9.75 13.1381 9.75 13V10C9.75 9.86193 9.86193 9.75 10 9.75H13.25Z" fill="currentColor"/>
</svg>
