<svg width="20" height="20" viewBox="0 0 20 20" fill="none" xmlns="http://www.w3.org/2000/svg">
<path fill-rule="evenodd" clip-rule="evenodd" d="M16.6516 3.34835C15.1872 1.88388 12.8128 1.88388 11.3483 3.34835L3.34835 11.3484C1.88388 12.8128 1.88388 15.1872 3.34835 16.6517C4.81282 18.1161 7.18718 18.1161 8.65165 16.6517L16.6516 8.65165C18.1161 7.18718 18.1161 4.81282 16.6516 3.34835ZM12.409 4.40901C13.2877 3.53033 14.7123 3.53033 15.591 4.40901C16.4697 5.28769 16.4697 6.71231 15.591 7.59099L12.1213 11.0607L8.93934 7.87868L12.409 4.40901ZM7.87868 8.93934L4.40901 12.409C3.53033 13.2877 3.53033 14.7123 4.40901 15.591C5.28769 16.4697 6.71231 16.4697 7.59099 15.591L11.0607 12.1213L7.87868 8.93934Z" fill="currentColor"/>
</svg>
