<svg width="20" height="20" viewBox="0 0 20 20" fill="none" xmlns="http://www.w3.org/2000/svg">
<path fill-rule="evenodd" clip-rule="evenodd" d="M10 3.75C7.10051 3.75 4.75 6.10051 4.75 9C4.75 11.7389 6.11935 13.9402 7.5511 15.4913C8.26326 16.2628 8.97711 16.8578 9.5125 17.2594C9.70041 17.4003 9.86558 17.5168 10 17.6083C10.1344 17.5168 10.2996 17.4003 10.4875 17.2594C11.0229 16.8578 11.7367 16.2628 12.4489 15.4913C13.8807 13.9402 15.25 11.7389 15.25 9C15.25 6.10051 12.8995 3.75 10 3.75ZM10 18.5C9.6221 19.1478 9.62184 19.1477 9.62156 19.1475L9.61911 19.1461L9.61393 19.143L9.59717 19.133C9.58319 19.1247 9.56366 19.1128 9.53895 19.0976C9.48953 19.0671 9.41934 19.023 9.33135 18.9654C9.15544 18.8502 8.90787 18.6809 8.6125 18.4594C8.02289 18.0172 7.23674 17.3622 6.4489 16.5087C4.88065 14.8098 3.25 12.2611 3.25 9C3.25 5.27208 6.27208 2.25 10 2.25C13.7279 2.25 16.75 5.27208 16.75 9C16.75 12.2611 15.1193 14.8098 13.5511 16.5087C12.7633 17.3622 11.9771 18.0172 11.3875 18.4594C11.0921 18.6809 10.8446 18.8502 10.6687 18.9654C10.5807 19.023 10.5105 19.0671 10.461 19.0976C10.4363 19.1128 10.4168 19.1247 10.4028 19.133L10.3861 19.143L10.3809 19.1461L10.3791 19.1471C10.3788 19.1473 10.3779 19.1478 10 18.5ZM10 18.5L10.3779 19.1478C10.1444 19.2841 9.85508 19.2837 9.62156 19.1475L10 18.5Z" fill="currentColor"/>
<path fill-rule="evenodd" clip-rule="evenodd" d="M10 6.75C8.75736 6.75 7.75 7.75736 7.75 9C7.75 10.2426 8.75736 11.25 10 11.25C11.2426 11.25 12.25 10.2426 12.25 9C12.25 7.75736 11.2426 6.75 10 6.75ZM6.25 9C6.25 6.92893 7.92893 5.25 10 5.25C12.0711 5.25 13.75 6.92893 13.75 9C13.75 11.0711 12.0711 12.75 10 12.75C7.92893 12.75 6.25 11.0711 6.25 9Z" fill="currentColor"/>
</svg>
