<svg width="20" height="20" viewBox="0 0 20 20" fill="none" xmlns="http://www.w3.org/2000/svg">
<path fill-rule="evenodd" clip-rule="evenodd" d="M11.2342 16.8525C10.9541 17.258 10.4928 17.5 10 17.5C9.50722 17.5 9.04587 17.258 8.76581 16.8525L8.76171 16.8466L8.7519 16.8323L8.71588 16.7796C8.68483 16.7341 8.64001 16.6681 8.58337 16.5839C8.47013 16.4155 8.30942 16.1739 8.11702 15.8777C7.73306 15.2865 7.21886 14.4712 6.70251 13.5811C6.189 12.6959 5.65839 11.711 5.25169 10.7853C4.87205 9.92122 4.5 8.89297 4.5 8C4.5 4.96243 6.96243 2.5 10 2.5C13.0376 2.5 15.5 4.96243 15.5 8C15.5 8.89297 15.1279 9.92122 14.7483 10.7853C14.3416 11.711 13.811 12.6959 13.2975 13.5811C12.7811 14.4712 12.2669 15.2865 11.883 15.8777C11.6906 16.1739 11.5299 16.4155 11.4166 16.5839C11.36 16.6681 11.3152 16.7341 11.2841 16.7796L11.2481 16.8323L11.2383 16.8466L11.2342 16.8525ZM10 9.50073C10.8284 9.50073 11.5 8.82916 11.5 8.00073C11.5 7.17231 10.8284 6.50073 10 6.50073C9.17157 6.50073 8.5 7.17231 8.5 8.00073C8.5 8.82916 9.17157 9.50073 10 9.50073Z" fill="currentColor"/>
</svg>
