<svg width="20" height="20" viewBox="0 0 20 20" fill="none" xmlns="http://www.w3.org/2000/svg">
<path d="M14 8.75C13.5858 8.75 13.25 9.08579 13.25 9.5C13.25 9.91421 13.5858 10.25 14 10.25C14.4142 10.25 14.75 9.91421 14.75 9.5C14.75 9.08579 14.4142 8.75 14 8.75Z" fill="currentColor"/>
<path fill-rule="evenodd" clip-rule="evenodd" d="M13.25 2.25C14.0784 2.25 14.75 2.92157 14.75 3.75V6.25L15.5 6.25C16.7426 6.25 17.75 7.25736 17.75 8.5V13.5C17.75 14.7426 16.7426 15.75 15.5 15.75H14.75V16.25C14.75 17.0784 14.0784 17.75 13.25 17.75H6.75C5.92157 17.75 5.25 17.0784 5.25 16.25V15.75H4.5C3.25736 15.75 2.25 14.7426 2.25 13.5V8.5C2.25 7.25736 3.25736 6.25 4.5 6.25H5.25L5.25 3.75C5.25 2.92157 5.92157 2.25 6.75 2.25H13.25ZM13.25 3.75V6.25L6.75 6.25V3.75L13.25 3.75ZM4.5 7.75H15.5C15.9142 7.75 16.25 8.08579 16.25 8.5V13.5C16.25 13.9142 15.9142 14.25 15.5 14.25H14.75V12C14.75 11.5858 14.4142 11.25 14 11.25H6C5.58579 11.25 5.25 11.5858 5.25 12L5.25 14.25H4.5C4.08579 14.25 3.75 13.9142 3.75 13.5V8.5C3.75 8.08579 4.08579 7.75 4.5 7.75ZM6.75 12.75H13.25V16.25H6.75V12.75Z" fill="currentColor"/>
</svg>
