<svg width="20" height="20" viewBox="0 0 20 20" fill="none" xmlns="http://www.w3.org/2000/svg">
<path fill-rule="evenodd" clip-rule="evenodd" d="M7.25 3.75H6.5C6.08579 3.75 5.75 3.41421 5.75 3C5.75 2.58579 6.08579 2.25 6.5 2.25H13.5C13.9142 2.25 14.25 2.58579 14.25 3C14.25 3.41421 13.9142 3.75 13.5 3.75H12.75V7.92963C12.75 8.34757 12.9589 8.73786 13.3066 8.9697L14.729 9.91795C15.5522 10.4668 15.1637 11.75 14.1743 11.75H10.75V17C10.75 17.4142 10.4142 17.75 10 17.75C9.58579 17.75 9.25 17.4142 9.25 17V11.75H5.8257C4.83629 11.75 4.44776 10.4668 5.271 9.91795L6.69338 8.9697C7.04113 8.73786 7.25 8.34757 7.25 7.92963V3.75ZM12.5229 10.25L12.4746 10.2178C11.7095 9.70774 11.25 8.8491 11.25 7.92963V3.75H8.75V7.92963C8.75 8.8491 8.29047 9.70774 7.52543 10.2178L7.47708 10.25H12.5229Z" fill="currentColor"/>
</svg>
