<svg width="20" height="20" viewBox="0 0 20 20" fill="none" xmlns="http://www.w3.org/2000/svg">
<path fill-rule="evenodd" clip-rule="evenodd" d="M3.25 5C3.25 3.48122 4.48122 2.25 6 2.25H14C15.5188 2.25 16.75 3.48122 16.75 5V7.26756C16.75 7.53563 16.6069 7.78331 16.3747 7.91724C16.1425 8.05117 15.8565 8.05099 15.6245 7.91677C15.4414 7.81085 15.2289 7.75 15 7.75C14.3096 7.75 13.75 8.30964 13.75 9C13.75 9.69036 14.3096 10.25 15 10.25C15.2289 10.25 15.4414 10.1891 15.6245 10.0832C15.8565 9.94901 16.1425 9.94883 16.3747 10.0828C16.6069 10.2167 16.75 10.4644 16.75 10.7324V13C16.75 14.5188 15.5188 15.75 14 15.75H12.7387C12.7462 15.8324 12.75 15.9158 12.75 16C12.75 17.5188 11.5188 18.75 10 18.75C8.48122 18.75 7.25 17.5188 7.25 16C7.25 15.9158 7.2538 15.8324 7.26125 15.75H6C4.48122 15.75 3.25 14.5188 3.25 13V5ZM6 3.75C5.30964 3.75 4.75 4.30964 4.75 5V13C4.75 13.6904 5.30964 14.25 6 14.25H8.26756C8.53563 14.25 8.78331 14.3931 8.91724 14.6253C9.05117 14.8575 9.05099 15.1435 8.91677 15.3755C8.81085 15.5586 8.75 15.7711 8.75 16C8.75 16.6904 9.30964 17.25 10 17.25C10.6904 17.25 11.25 16.6904 11.25 16C11.25 15.7711 11.1891 15.5586 11.0832 15.3755C10.949 15.1435 10.9488 14.8575 11.0828 14.6253C11.2167 14.3931 11.4644 14.25 11.7324 14.25H14C14.6904 14.25 15.25 13.6904 15.25 13V11.7387C15.1676 11.7462 15.0842 11.75 15 11.75C13.4812 11.75 12.25 10.5188 12.25 9C12.25 7.48122 13.4812 6.25 15 6.25C15.0842 6.25 15.1676 6.2538 15.25 6.26125V5C15.25 4.30964 14.6904 3.75 14 3.75H6Z" fill="currentColor"/>
</svg>
