<svg width="20" height="20" viewBox="0 0 20 20" fill="none" xmlns="http://www.w3.org/2000/svg">
<path d="M4 2.25C3.58579 2.25 3.25 2.58579 3.25 3C3.25 3.41421 3.58579 3.75 4 3.75H5.67536L3.35688 7.61413C3.21786 7.84583 3.21422 8.13439 3.34735 8.36952C3.48048 8.60466 3.7298 8.75 4 8.75H7C7.41421 8.75 7.75 8.41421 7.75 8C7.75 7.58579 7.41421 7.25 7 7.25H5.32464L7.64312 3.38587C7.78214 3.15417 7.78578 2.86561 7.65265 2.63048C7.51952 2.39534 7.2702 2.25 7 2.25H4Z" fill="currentColor"/>
<path d="M14.75 4C14.75 3.58579 14.4142 3.25 14 3.25C13.5858 3.25 13.25 3.58579 13.25 4L13.25 14.1893L11.5303 12.4697C11.2374 12.1768 10.7626 12.1768 10.4697 12.4697C10.1768 12.7626 10.1768 13.2374 10.4697 13.5303L13.4697 16.5303C13.5427 16.6034 13.6271 16.6582 13.7171 16.6948C13.8011 16.729 13.8926 16.7485 13.9884 16.7499L14 16.75L14.0116 16.7499C14.2083 16.7469 14.3866 16.6682 14.5187 16.5417L14.5317 16.529L17.5303 13.5303C17.8232 13.2374 17.8232 12.7626 17.5303 12.4697C17.2374 12.1768 16.7626 12.1768 16.4697 12.4697L14.75 14.1893L14.75 4Z" fill="currentColor"/>
<path fill-rule="evenodd" clip-rule="evenodd" d="M3.25 13.5C3.25 12.2574 4.25736 11.25 5.5 11.25C6.74264 11.25 7.75 12.2574 7.75 13.5V17C7.75 17.4142 7.41421 17.75 7 17.75C6.58579 17.75 6.25 17.4142 6.25 17V15.5H4.75V17C4.75 17.4142 4.41421 17.75 4 17.75C3.58579 17.75 3.25 17.4142 3.25 17V13.5ZM6.25 14V13.5C6.25 13.0858 5.91421 12.75 5.5 12.75C5.08579 12.75 4.75 13.0858 4.75 13.5V14H6.25Z" fill="currentColor"/>
</svg>
