<svg width="20" height="20" viewBox="0 0 20 20" fill="none" xmlns="http://www.w3.org/2000/svg">
<path fill-rule="evenodd" clip-rule="evenodd" d="M5.5 2.25C4.25736 2.25 3.25 3.25736 3.25 4.5V8C3.25 8.41421 3.58579 8.75 4 8.75C4.41421 8.75 4.75 8.41421 4.75 8V6.5H6.25V8C6.25 8.41421 6.58579 8.75 7 8.75C7.41421 8.75 7.75 8.41421 7.75 8V4.5C7.75 3.25736 6.74264 2.25 5.5 2.25ZM6.25 4.5V5H4.75V4.5C4.75 4.08579 5.08579 3.75 5.5 3.75C5.91421 3.75 6.25 4.08579 6.25 4.5Z" fill="currentColor"/>
<path d="M14.75 4C14.75 3.58579 14.4142 3.25 14 3.25C13.5858 3.25 13.25 3.58579 13.25 4L13.25 14.1893L11.5303 12.4697C11.2374 12.1768 10.7626 12.1768 10.4697 12.4697C10.1768 12.7626 10.1768 13.2374 10.4697 13.5303L13.4697 16.5303C13.5427 16.6034 13.6271 16.6582 13.7171 16.6948C13.8011 16.729 13.8926 16.7485 13.9884 16.7499L14 16.75L14.0116 16.7499C14.2083 16.7469 14.3866 16.6682 14.5187 16.5417L14.5317 16.529L17.5303 13.5303C17.8232 13.2374 17.8232 12.7626 17.5303 12.4697C17.2374 12.1768 16.7626 12.1768 16.4697 12.4697L14.75 14.1893L14.75 4Z" fill="currentColor"/>
<path d="M3.25 12C3.25 11.5858 3.58579 11.25 4 11.25H7C7.2702 11.25 7.51952 11.3953 7.65265 11.6305C7.78578 11.8656 7.78214 12.1542 7.64312 12.3859L5.32464 16.25H7C7.41421 16.25 7.75 16.5858 7.75 17C7.75 17.4142 7.41421 17.75 7 17.75H4C3.7298 17.75 3.48048 17.6047 3.34735 17.3695C3.21422 17.1344 3.21786 16.8458 3.35688 16.6141L5.67536 12.75H4C3.58579 12.75 3.25 12.4142 3.25 12Z" fill="currentColor"/>
</svg>
