<svg width="20" height="20" viewBox="0 0 20 20" fill="none" xmlns="http://www.w3.org/2000/svg">
<path d="M6.50001 3.00001C6.50001 2.70535 6.32746 2.43798 6.05896 2.3166C5.79045 2.19522 5.47575 2.24231 5.25454 2.43698L4.00454 3.53698C3.69358 3.81062 3.66333 4.28453 3.93697 4.59548C4.21062 4.90644 4.68452 4.93669 4.99548 4.66305L5.00001 4.65906V8.50001C5.00001 8.91423 5.3358 9.25001 5.75001 9.25001C6.16422 9.25001 6.50001 8.91423 6.50001 8.50001V3.00001Z" fill="currentColor"/>
<path d="M14.75 4C14.75 3.58579 14.4142 3.25 14 3.25C13.5858 3.25 13.25 3.58579 13.25 4L13.25 14.1893L11.5303 12.4697C11.2374 12.1768 10.7626 12.1768 10.4697 12.4697C10.1768 12.7626 10.1768 13.2374 10.4697 13.5303L13.4697 16.5303C13.5427 16.6034 13.6271 16.6582 13.7171 16.6948C13.8011 16.729 13.8926 16.7485 13.9884 16.7499L14 16.75L14.0116 16.7499C14.2083 16.7469 14.3866 16.6682 14.5187 16.5417L14.5317 16.529L17.5303 13.5303C17.8232 13.2374 17.8232 12.7626 17.5303 12.4697C17.2374 12.1768 16.7626 12.1768 16.4697 12.4697L14.75 14.1893L14.75 4Z" fill="currentColor"/>
<path fill-rule="evenodd" clip-rule="evenodd" d="M3.25 13C3.25 12.0335 4.0335 11.25 5 11.25H6C6.9665 11.25 7.75 12.0335 7.75 13V15C7.75 16.5204 6.67683 17.8295 5.18593 18.1277L4.64709 18.2354C4.24092 18.3167 3.8458 18.0533 3.76456 17.6471C3.68333 17.2409 3.94674 16.8458 4.35291 16.7646L4.89175 16.6568C5.41918 16.5513 5.84792 16.207 6.07456 15.75H5C4.0335 15.75 3.25 14.9665 3.25 14V13ZM6.25 14.25V13C6.25 12.8619 6.13807 12.75 6 12.75H5C4.86193 12.75 4.75 12.8619 4.75 13V14C4.75 14.1381 4.86193 14.25 5 14.25H6.25Z" fill="currentColor"/>
</svg>
