<svg width="20" height="20" viewBox="0 0 20 20" fill="none" xmlns="http://www.w3.org/2000/svg">
<path fill-rule="evenodd" clip-rule="evenodd" d="M5 2.25C4.0335 2.25 3.25 3.0335 3.25 4V5C3.25 5.9665 4.0335 6.75 5 6.75H6.07456C5.84792 7.207 5.41918 7.55131 4.89175 7.6568L4.35291 7.76456C3.94674 7.8458 3.68333 8.24092 3.76456 8.64709C3.8458 9.05326 4.24092 9.31667 4.64709 9.23544L5.18593 9.12767C6.67683 8.82949 7.75 7.52043 7.75 6V4C7.75 3.0335 6.9665 2.25 6 2.25H5ZM6.25 4V5.25H5C4.86193 5.25 4.75 5.13807 4.75 5V4C4.75 3.86193 4.86193 3.75 5 3.75H6C6.13807 3.75 6.25 3.86193 6.25 4Z" fill="currentColor"/>
<path d="M14.75 4C14.75 3.58579 14.4142 3.25 14 3.25C13.5858 3.25 13.25 3.58579 13.25 4L13.25 14.1893L11.5303 12.4697C11.2374 12.1768 10.7626 12.1768 10.4697 12.4697C10.1768 12.7626 10.1768 13.2374 10.4697 13.5303L13.4697 16.5303C13.5427 16.6034 13.6271 16.6582 13.7171 16.6948C13.8011 16.729 13.8926 16.7485 13.9884 16.7499L14 16.75L14.0116 16.7499C14.2083 16.7469 14.3866 16.6682 14.5187 16.5417L14.5317 16.529L17.5303 13.5303C17.8232 13.2374 17.8232 12.7626 17.5303 12.4697C17.2374 12.1768 16.7626 12.1768 16.4697 12.4697L14.75 14.1893L14.75 4Z" fill="currentColor"/>
<path d="M6.0409 11.3087C6.31909 11.4258 6.5 11.6982 6.5 12V17.5C6.5 17.9142 6.16421 18.25 5.75 18.25C5.33579 18.25 5 17.9142 5 17.5V13.7813C4.7027 14.0476 4.24552 14.0348 3.96375 13.7466C3.67416 13.4504 3.6795 12.9756 3.97566 12.686L5.22566 11.4638C5.44146 11.2528 5.76271 11.1917 6.0409 11.3087Z" fill="currentColor"/>
</svg>
