<svg width="20" height="20" viewBox="0 0 20 20" fill="none" xmlns="http://www.w3.org/2000/svg">
<path d="M10.9299 1.56929L11.2836 2.26991L10.9313 1.57186L13.0382 5.74601L17.0549 6.14394C17.2507 6.16108 17.4375 6.23352 17.5938 6.35286C17.7512 6.47312 17.8709 6.63598 17.9386 6.82215C18.0064 7.00832 18.0193 7.21 17.976 7.40333C17.9327 7.59664 17.8349 7.77351 17.6942 7.91296L14.3686 11.2091L15.6021 15.6902C15.6537 15.8842 15.648 16.089 15.5859 16.2799C15.5238 16.4709 15.4079 16.6398 15.252 16.7664C15.0962 16.893 14.9071 16.9718 14.7075 16.9935C14.5085 17.0151 14.3075 16.979 14.1286 16.8894L14.1269 16.8885L9.99891 14.8444L5.87684 16.8859L5.87522 16.8867C5.69626 16.9763 5.49526 17.0125 5.29626 16.9908C5.09666 16.9692 4.90757 16.8903 4.75174 16.7637C4.5959 16.6371 4.47996 16.4682 4.41785 16.2773C4.35574 16.0864 4.35011 15.8816 4.40164 15.6875L4.40282 15.6831L5.63517 11.2065L2.30692 7.9103C2.16621 7.77084 2.0684 7.59398 2.02509 7.40066C1.98177 7.20734 1.99475 7.00565 2.0625 6.81948C2.13024 6.63331 2.24992 6.47045 2.40735 6.35019C2.56356 6.23086 2.75046 6.15842 2.94622 6.14127L6.96284 5.74335L9.06783 1.56929C9.15559 1.39789 9.28896 1.25405 9.45324 1.1536C9.61752 1.05315 9.80633 1 9.99889 1C10.1914 1 10.3803 1.05315 10.5445 1.1536C10.7088 1.25405 10.8422 1.39789 10.9299 1.56929Z" fill="currentColor"/>
</svg>
