<svg width="20" height="20" viewBox="0 0 20 20" fill="none" xmlns="http://www.w3.org/2000/svg">
<path d="M9.99909 3.05385L11.6991 6.42191L12.0704 7.15747L12.8903 7.2387L15.939 7.5407L13.3126 10.1438L12.6895 10.7614L12.9224 11.6072L13.8821 15.0935L10.6645 13.5002L9.99883 13.1706L9.33317 13.5003L6.12168 15.0908L7.08137 11.6046L7.31437 10.7584L6.69073 10.1407L4.06267 7.538L7.11072 7.236L7.931 7.15478L8.30216 6.41878L9.99909 3.05385ZM9.99889 1C9.80633 1.00001 9.61752 1.05316 9.45324 1.15361C9.28896 1.25406 9.15559 1.3979 9.06783 1.56929L6.96283 5.74335L2.9462 6.14127C2.74924 6.15852 2.56132 6.23175 2.4046 6.3523C2.24789 6.47285 2.12891 6.6357 2.06172 6.82165C1.99452 7.0076 1.9819 7.20888 2.02534 7.40177C2.06879 7.59465 2.16649 7.77109 2.30692 7.91027L5.63516 11.2065L4.40282 15.6831L4.40164 15.6875C4.35014 15.8814 4.35572 16.086 4.4177 16.2768C4.47967 16.4677 4.59541 16.6365 4.75102 16.7631C4.90663 16.8898 5.09548 16.9688 5.2949 16.9907C5.49432 17.0126 5.69583 16.9765 5.87522 16.8867L5.87684 16.8859L9.99891 14.8444L14.1269 16.8885L14.1286 16.8894C14.308 16.9792 14.5095 17.0153 14.7089 16.9934C14.9083 16.9714 15.0972 16.8924 15.2528 16.7658C15.4083 16.6392 15.5241 16.4703 15.5861 16.2795C15.648 16.0887 15.6536 15.8841 15.6021 15.6902L14.3686 11.2091L17.6942 7.913C17.8346 7.77382 17.9323 7.59738 17.9758 7.40449C18.0192 7.2116 18.0066 7.01031 17.9394 6.82437C17.8722 6.63842 17.7532 6.47556 17.5965 6.35501C17.4398 6.23446 17.2519 6.16125 17.0549 6.144L13.0382 5.746L10.9313 1.57186L11.2836 2.26986L10.9299 1.56924C10.8421 1.39786 10.7088 1.25403 10.5445 1.15359C10.3802 1.05315 10.1914 1 9.99889 1Z" fill="currentColor"/>
</svg>
