<svg width="20" height="20" viewBox="0 0 20 20" fill="none" xmlns="http://www.w3.org/2000/svg">
<path d="M4 4.75C3.86193 4.75 3.75 4.86193 3.75 5V7.88571C3.75 9.76381 5.22485 11.25 7 11.25C8.77515 11.25 10.25 9.76381 10.25 7.88571V5C10.25 4.86193 10.1381 4.75 10 4.75H9C8.58579 4.75 8.25 4.41421 8.25 4C8.25 3.58579 8.58579 3.25 9 3.25H10C10.9665 3.25 11.75 4.0335 11.75 5V7.88571C11.75 10.2694 10.0662 12.2786 7.82081 12.6779C8.13264 14.1474 9.43756 15.25 11 15.25C12.7949 15.25 14.25 13.7949 14.25 12V10.8546C13.517 10.5579 13 9.83934 13 9C13 7.89543 13.8954 7 15 7C16.1046 7 17 7.89543 17 9C17 9.83934 16.483 10.5579 15.75 10.8546V12C15.75 14.6234 13.6234 16.75 11 16.75C8.61374 16.75 6.63847 14.9904 6.30091 12.6979C3.99489 12.3508 2.25 10.3123 2.25 7.88571V5C2.25 4.0335 3.0335 3.25 4 3.25H5C5.41421 3.25 5.75 3.58579 5.75 4C5.75 4.41421 5.41421 4.75 5 4.75H4Z" fill="currentColor"/>
</svg>
