<svg width="20" height="20" viewBox="0 0 20 20" fill="none" xmlns="http://www.w3.org/2000/svg">
<path fill-rule="evenodd" clip-rule="evenodd" d="M12.4697 1.46967C12.7626 1.17678 13.2374 1.17678 13.5303 1.46967L18.5303 6.46967C18.8232 6.76256 18.8232 7.23744 18.5303 7.53033C18.2374 7.82322 17.7626 7.82322 17.4697 7.53033L15.5 5.56066L14.0607 7L17.0303 9.96967C17.3232 10.2626 17.3232 10.7374 17.0303 11.0303C16.7374 11.3232 16.2626 11.3232 15.9697 11.0303L15.1213 10.182L8.65165 16.6517C7.3688 17.9345 5.38775 18.0936 3.93172 17.1289L2.53033 18.5303C2.23744 18.8232 1.76256 18.8232 1.46967 18.5303C1.17678 18.2374 1.17678 17.7626 1.46967 17.4697L2.87106 16.0683C1.90641 14.6123 2.0655 12.6312 3.34835 11.3484L9.81802 4.87868L8.96967 4.03033C8.67678 3.73744 8.67678 3.26256 8.96967 2.96967C9.26256 2.67678 9.73744 2.67678 10.0303 2.96967L13 5.93934L14.4393 4.5L12.4697 2.53033C12.1768 2.23744 12.1768 1.76256 12.4697 1.46967ZM10.8787 5.93934L4.40901 12.409C3.53033 13.2877 3.53033 14.7123 4.40901 15.591C5.28769 16.4697 6.71231 16.4697 7.59099 15.591L9.06066 14.1213L7.46967 12.5303C7.17678 12.2374 7.17678 11.7626 7.46967 11.4697C7.76256 11.1768 8.23744 11.1768 8.53033 11.4697L10.1213 13.0607L11.0607 12.1213L9.46967 10.5303C9.17678 10.2374 9.17678 9.76256 9.46967 9.46967C9.76256 9.17678 10.2374 9.17678 10.5303 9.46967L12.1213 11.0607L14.0607 9.12132L10.8787 5.93934Z" fill="currentColor"/>
</svg>
