<svg width="20" height="20" viewBox="0 0 20 20" fill="none" xmlns="http://www.w3.org/2000/svg">
<path d="M6.5 8C7.32843 8 8 7.32843 8 6.5C8 5.67157 7.32843 5 6.5 5C5.67157 5 5 5.67157 5 6.5C5 7.32843 5.67157 8 6.5 8Z" fill="currentColor"/>
<path fill-rule="evenodd" clip-rule="evenodd" d="M3.75 2.25C2.92157 2.25 2.25 2.92157 2.25 3.75V8.68934C2.25 9.08716 2.40804 9.4687 2.68934 9.75L10.9393 18C11.5251 18.5858 12.4749 18.5858 13.0607 18L18 13.0607C18.5858 12.4749 18.5858 11.5251 18 10.9393L9.75 2.68934C9.4687 2.40803 9.08716 2.25 8.68934 2.25H3.75ZM3.75 3.75H8.68934L16.9393 12L12 16.9393L3.75 8.68934V3.75Z" fill="currentColor"/>
</svg>
