<svg width="20" height="20" viewBox="0 0 20 20" fill="none" xmlns="http://www.w3.org/2000/svg">
<path d="M8.5 8.25C8.91421 8.25 9.25 8.58579 9.25 9L9.25 14C9.25 14.4142 8.91421 14.75 8.5 14.75C8.08579 14.75 7.75 14.4142 7.75 14L7.75 9C7.75 8.58579 8.08579 8.25 8.5 8.25Z" fill="currentColor"/>
<path d="M12.25 9C12.25 8.58579 11.9142 8.25 11.5 8.25C11.0858 8.25 10.75 8.58579 10.75 9V14C10.75 14.4142 11.0858 14.75 11.5 14.75C11.9142 14.75 12.25 14.4142 12.25 14V9Z" fill="currentColor"/>
<path fill-rule="evenodd" clip-rule="evenodd" d="M8.75 2.25C7.92157 2.25 7.25 2.92157 7.25 3.75V5.25H3C2.58579 5.25 2.25 5.58579 2.25 6C2.25 6.41421 2.58579 6.75 3 6.75H4.31509L5.1704 16.1584C5.25235 17.0598 6.00811 17.75 6.91322 17.75H13.0868C13.9919 17.75 14.7477 17.0598 14.8296 16.1584L15.6849 6.75H17C17.4142 6.75 17.75 6.41421 17.75 6C17.75 5.58579 17.4142 5.25 17 5.25H12.75V3.75C12.75 2.92157 12.0784 2.25 11.25 2.25H8.75ZM14.1787 6.75H5.82128L6.66424 16.0226C6.67595 16.1514 6.78392 16.25 6.91322 16.25H13.0868C13.2161 16.25 13.3241 16.1514 13.3358 16.0226L14.1787 6.75ZM11.25 5.25H8.75V3.75H11.25V5.25Z" fill="currentColor"/>
</svg>
