<svg width="20" height="20" viewBox="0 0 20 20" fill="none" xmlns="http://www.w3.org/2000/svg">
<path d="M12.25 12.5C12.25 12.791 12.4183 13.0558 12.6819 13.1792C12.9454 13.3026 13.2566 13.2625 13.4801 13.0762L16.4801 10.5762C16.6511 10.4337 16.75 10.2226 16.75 9.99999C16.75 9.77741 16.6511 9.56632 16.4801 9.42383L13.4801 6.92383C13.2566 6.73753 12.9454 6.69737 12.6819 6.8208C12.4183 6.94424 12.25 7.20898 12.25 7.49999V12.5Z" fill="currentColor"/>
<path d="M7.75 7.50001C7.75 7.209 7.58166 6.94425 7.31812 6.82082C7.05458 6.69739 6.74342 6.73754 6.51986 6.92385L3.51986 9.42385C3.34887 9.56634 3.25 9.77743 3.25 10C3.25 10.2226 3.34887 10.4337 3.51986 10.5762L6.51986 13.0762C6.74342 13.2625 7.05458 13.3026 7.31812 13.1792C7.58166 13.0558 7.75 12.791 7.75 12.5L7.75 7.50001Z" fill="currentColor"/>
</svg>
