<svg width="20" height="20" viewBox="0 0 20 20" fill="none" xmlns="http://www.w3.org/2000/svg">
<path d="M10.5303 3.96967C10.2374 3.67678 9.76256 3.67678 9.46967 3.96967L6.46967 6.96967C6.17678 7.26256 6.17678 7.73744 6.46967 8.03033C6.76256 8.32322 7.23744 8.32322 7.53033 8.03033L9.25 6.31066V12.5C9.25 12.9142 9.58579 13.25 10 13.25C10.4142 13.25 10.75 12.9142 10.75 12.5V6.31066L12.4697 8.03033C12.7626 8.32322 13.2374 8.32322 13.5303 8.03033C13.8232 7.73744 13.8232 7.26256 13.5303 6.96967L10.5303 3.96967Z" fill="currentColor"/>
<path d="M4.75 14C4.75 13.5858 4.41421 13.25 4 13.25C3.58579 13.25 3.25 13.5858 3.25 14V14.5C3.25 15.7426 4.25736 16.75 5.5 16.75H14.5C15.7426 16.75 16.75 15.7426 16.75 14.5V14C16.75 13.5858 16.4142 13.25 16 13.25C15.5858 13.25 15.25 13.5858 15.25 14V14.5C15.25 14.9142 14.9142 15.25 14.5 15.25H5.5C5.08579 15.25 4.75 14.9142 4.75 14.5V14Z" fill="currentColor"/>
</svg>
