<svg width="20" height="20" viewBox="0 0 20 20" fill="none" xmlns="http://www.w3.org/2000/svg">
<path fill-rule="evenodd" clip-rule="evenodd" d="M17.2478 7.75209C13.2449 3.74922 6.75501 3.74922 2.75213 7.75209C2.45924 8.04499 1.98436 8.04499 1.69147 7.75209C1.39858 7.4592 1.39858 6.98433 1.69147 6.69143C6.28013 2.10277 13.7198 2.10277 18.3085 6.69143C18.6014 6.98433 18.6014 7.4592 18.3085 7.75209C18.0156 8.04499 17.5407 8.04499 17.2478 7.75209Z" fill="currentColor"/>
<path fill-rule="evenodd" clip-rule="evenodd" d="M15.1265 9.87345C12.2952 7.04215 7.70475 7.04215 4.87345 9.87345C4.58056 10.1663 4.10568 10.1663 3.81279 9.87345C3.5199 9.58056 3.5199 9.10568 3.81279 8.81279C7.22988 5.3957 12.7701 5.3957 16.1872 8.81279C16.4801 9.10568 16.4801 9.58056 16.1872 9.87345C15.8943 10.1663 15.4194 10.1663 15.1265 9.87345Z" fill="currentColor"/>
<path fill-rule="evenodd" clip-rule="evenodd" d="M13.0052 11.9948C11.3455 10.3351 8.6545 10.3351 6.99477 11.9948C6.70188 12.2877 6.22701 12.2877 5.93411 11.9948C5.64122 11.7019 5.64122 11.227 5.93411 10.9341C8.17963 8.68863 11.8203 8.68863 14.0658 10.9341C14.3587 11.227 14.3587 11.7019 14.0658 11.9948C13.7729 12.2877 13.2981 12.2877 13.0052 11.9948Z" fill="currentColor"/>
<path fill-rule="evenodd" clip-rule="evenodd" d="M9.99998 15.5C10.4142 15.5 10.75 15.1642 10.75 14.75C10.75 14.3358 10.4142 14 9.99998 14C9.58576 14 9.24998 14.3358 9.24998 14.75C9.24998 15.1642 9.58576 15.5 9.99998 15.5ZM9.99998 17C11.2426 17 12.25 15.9926 12.25 14.75C12.25 13.5073 11.2426 12.5 9.99998 12.5C8.75734 12.5 7.74998 13.5073 7.74998 14.75C7.74998 15.9926 8.75734 17 9.99998 17Z" fill="currentColor"/>
</svg>
