<svg width="24" height="24" viewBox="0 0 24 24" fill="none" xmlns="http://www.w3.org/2000/svg">
<path d="M12 2.25C6.61522 2.25 2.25 6.61522 2.25 12C2.25 17.3848 6.61522 21.75 12 21.75C17.3848 21.75 21.75 17.3848 21.75 12C21.75 6.61522 17.3848 2.25 12 2.25Z" fill="black" fill-opacity="0.12"/>
<path fill-rule="evenodd" clip-rule="evenodd" d="M7.46967 9.96967C7.76256 9.67678 8.23744 9.67678 8.53033 9.96967L12 13.4393L15.4697 9.96967C15.7626 9.67678 16.2374 9.67678 16.5303 9.96967C16.8232 10.2626 16.8232 10.7374 16.5303 11.0303L12.5303 15.0303C12.2374 15.3232 11.7626 15.3232 11.4697 15.0303L7.46967 11.0303C7.17678 10.7374 7.17678 10.2626 7.46967 9.96967Z" fill="#181818"/>
</svg>
