<svg width="24" height="24" viewBox="0 0 24 24" fill="none" xmlns="http://www.w3.org/2000/svg">
<path d="M10.2679 0.999999C11.0377 -0.333334 12.9622 -0.333333 13.732 1L23.2583 17.5C24.0281 18.8333 23.0659 20.5 21.5263 20.5H2.47372C0.934115 20.5 -0.0281335 18.8333 0.741667 17.5L10.2679 0.999999Z" fill="#EED366"/>
<path d="M12.75 6C12.75 5.58579 12.4142 5.25 12 5.25C11.5858 5.25 11.25 5.58579 11.25 6L11.25 13C11.25 13.4142 11.5858 13.75 12 13.75C12.4142 13.75 12.75 13.4142 12.75 13L12.75 6Z" fill="#181818"/>
<path d="M12 18C12.8284 18 13.5 17.3284 13.5 16.5C13.5 15.6716 12.8284 15 12 15C11.1716 15 10.5 15.6716 10.5 16.5C10.5 17.3284 11.1716 18 12 18Z" fill="#181818"/>
</svg>
