<svg width="20" height="20" viewBox="0 0 20 20" fill="none" xmlns="http://www.w3.org/2000/svg">
<g clip-path="url(#clip0_4319_108)">
<path d="M10 2.25C5.71979 2.25 2.25 5.71979 2.25 10C2.25 14.2802 5.71979 17.75 10 17.75C14.2802 17.75 17.75 14.2802 17.75 10C17.75 5.71979 14.2802 2.25 10 2.25Z" fill="black" fill-opacity="0.12"/>
<path fill-rule="evenodd" clip-rule="evenodd" d="M9.46967 5.46967C9.76256 5.17678 10.2374 5.17678 10.5303 5.46967L13.5303 8.46967C13.8232 8.76256 13.8232 9.23744 13.5303 9.53033C13.2374 9.82322 12.7626 9.82322 12.4697 9.53033L10.75 7.81066V14C10.75 14.4142 10.4142 14.75 10 14.75C9.58579 14.75 9.25 14.4142 9.25 14V7.81066L7.53033 9.53033C7.23744 9.82322 6.76256 9.82322 6.46967 9.53033C6.17678 9.23744 6.17678 8.76256 6.46967 8.46967L9.46967 5.46967Z" fill="#181818"/>
</g>
<defs>
<clipPath id="clip0_4319_108">
<rect width="20" height="20" fill="white"/>
</clipPath>
</defs>
</svg>
