<svg width="20" height="20" viewBox="0 0 20 20" fill="none" xmlns="http://www.w3.org/2000/svg">
<g clip-path="url(#clip0_4319_110)">
<path d="M10 2.25C5.71979 2.25 2.25 5.71979 2.25 10C2.25 14.2802 5.71979 17.75 10 17.75C14.2802 17.75 17.75 14.2802 17.75 10C17.75 5.71979 14.2802 2.25 10 2.25Z" fill="black" fill-opacity="0.12"/>
<path fill-rule="evenodd" clip-rule="evenodd" d="M14.5303 9.46967C14.8232 9.76256 14.8232 10.2374 14.5303 10.5303L11.5303 13.5303C11.2374 13.8232 10.7626 13.8232 10.4697 13.5303C10.1768 13.2374 10.1768 12.7626 10.4697 12.4697L12.1893 10.75H6C5.58579 10.75 5.25 10.4142 5.25 10C5.25 9.58579 5.58579 9.25 6 9.25L12.1893 9.25L10.4697 7.53033C10.1768 7.23744 10.1768 6.76256 10.4697 6.46967C10.7626 6.17678 11.2374 6.17678 11.5303 6.46967L14.5303 9.46967Z" fill="#181818"/>
</g>
<defs>
<clipPath id="clip0_4319_110">
<rect width="20" height="20" fill="white"/>
</clipPath>
</defs>
</svg>
