<svg width="20" height="20" viewBox="0 0 20 20" fill="none" xmlns="http://www.w3.org/2000/svg">
<g clip-path="url(#clip0_4319_111)">
<path d="M10 2.25C5.71979 2.25 2.25 5.71979 2.25 10C2.25 14.2802 5.71979 17.75 10 17.75C14.2802 17.75 17.75 14.2802 17.75 10C17.75 5.71979 14.2802 2.25 10 2.25Z" fill="black" fill-opacity="0.12"/>
<path fill-rule="evenodd" clip-rule="evenodd" d="M5.46967 10.5303C5.17678 10.2374 5.17678 9.76256 5.46967 9.46967L8.46967 6.46967C8.76256 6.17678 9.23744 6.17678 9.53033 6.46967C9.82322 6.76256 9.82322 7.23744 9.53033 7.53033L7.81066 9.25L14 9.25C14.4142 9.25 14.75 9.58579 14.75 10C14.75 10.4142 14.4142 10.75 14 10.75L7.81066 10.75L9.53033 12.4697C9.82322 12.7626 9.82322 13.2374 9.53033 13.5303C9.23744 13.8232 8.76256 13.8232 8.46967 13.5303L5.46967 10.5303Z" fill="#181818"/>
</g>
<defs>
<clipPath id="clip0_4319_111">
<rect width="20" height="20" fill="white"/>
</clipPath>
</defs>
</svg>
