<svg width="20" height="20" viewBox="0 0 20 20" fill="none" xmlns="http://www.w3.org/2000/svg">
<g clip-path="url(#clip0_4319_252)">
<path d="M10 2.25C5.71979 2.25 2.25 5.71979 2.25 10C2.25 14.2802 5.71979 17.75 10 17.75C14.2802 17.75 17.75 14.2802 17.75 10C17.75 5.71979 14.2802 2.25 10 2.25Z" fill="#247450"/>
<path fill-rule="evenodd" clip-rule="evenodd" d="M14.5303 6.46967C14.8232 6.76256 14.8232 7.23744 14.5303 7.53033L8.53033 13.5303C8.23744 13.8232 7.76256 13.8232 7.46967 13.5303L5.46967 11.5303C5.17678 11.2374 5.17678 10.7626 5.46967 10.4697C5.76256 10.1768 6.23744 10.1768 6.53033 10.4697L8 11.9393L13.4697 6.46967C13.7626 6.17678 14.2374 6.17678 14.5303 6.46967Z" fill="white"/>
</g>
<defs>
<clipPath id="clip0_4319_252">
<rect width="20" height="20" fill="white"/>
</clipPath>
</defs>
</svg>
