<svg width="20" height="20" viewBox="0 0 20 20" fill="none" xmlns="http://www.w3.org/2000/svg">
<g clip-path="url(#clip0_4319_116)">
<path d="M10.8716 0.529576C10.4893 -0.150076 9.51078 -0.150077 9.12847 0.529574L0.983396 15.0097C0.608431 15.6763 1.09014 16.5 1.85497 16.5H18.1451C18.91 16.5 19.3917 15.6763 19.0167 15.0097L10.8716 0.529576Z" fill="#EED366"/>
<path d="M10.75 5C10.75 4.58579 10.4142 4.25 10 4.25C9.58579 4.25 9.25 4.58579 9.25 5V10C9.25 10.4142 9.58579 10.75 10 10.75C10.4142 10.75 10.75 10.4142 10.75 10V5Z" fill="#181818"/>
<path d="M10 15C10.8284 15 11.5 14.3284 11.5 13.5C11.5 12.6716 10.8284 12 10 12C9.17157 12 8.5 12.6716 8.5 13.5C8.5 14.3284 9.17157 15 10 15Z" fill="#181818"/>
</g>
<defs>
<clipPath id="clip0_4319_116">
<rect width="20" height="20" fill="white"/>
</clipPath>
</defs>
</svg>
