<svg width="20" height="20" viewBox="0 0 20 20" fill="none" xmlns="http://www.w3.org/2000/svg">
<g clip-path="url(#clip0_4319_297)">
<path d="M10 2.25C5.71979 2.25 2.25 5.71979 2.25 10C2.25 14.2802 5.71979 17.75 10 17.75C14.2802 17.75 17.75 14.2802 17.75 10C17.75 5.71979 14.2802 2.25 10 2.25Z" fill="#376C89"/>
<path d="M10 5C9.17157 5 8.5 5.67157 8.5 6.5C8.5 7.32843 9.17157 8 10 8C10.8284 8 11.5 7.32843 11.5 6.5C11.5 5.67157 10.8284 5 10 5Z" fill="white"/>
<path d="M11 14.75C11.4142 14.75 11.75 14.4142 11.75 14C11.75 13.5858 11.4142 13.25 11 13.25H10.75V10.5C10.75 9.80964 10.1904 9.25 9.5 9.25L9 9.25C8.58579 9.25 8.25 9.58579 8.25 10C8.25 10.4142 8.58579 10.75 9 10.75L9.25 10.75L9.25 13.5C9.25 14.1904 9.80964 14.75 10.5 14.75H11Z" fill="white"/>
</g>
<defs>
<clipPath id="clip0_4319_297">
<rect width="20" height="20" fill="white"/>
</clipPath>
</defs>
</svg>
