<svg width="20" height="20" viewBox="0 0 20 20" fill="none" xmlns="http://www.w3.org/2000/svg">
<g clip-path="url(#clip0_4319_106)">
<path d="M10 2.25C5.71979 2.25 2.25 5.71979 2.25 10C2.25 14.2802 5.71979 17.75 10 17.75C14.2802 17.75 17.75 14.2802 17.75 10C17.75 5.71979 14.2802 2.25 10 2.25Z" fill="black" fill-opacity="0.12"/>
<path d="M9.52165 5.84515C9.75005 5.75054 10.0014 5.72579 10.2439 5.77402C10.4863 5.82225 10.7091 5.9413 10.8839 6.11612C11.0587 6.29093 11.1778 6.51366 11.226 6.75614C11.2742 6.99861 11.2495 7.24995 11.1548 7.47836C11.0602 7.70676 10.9 7.90199 10.6945 8.03934C10.5761 8.11843 10.4458 8.17629 10.3093 8.21114C9.82155 8.33568 9.25 8.77778 9.25 9.5V10C9.25 10.4142 9.58579 10.75 10 10.75C10.4142 10.75 10.75 10.4142 10.75 10V9.64575C11.025 9.56781 11.2876 9.44705 11.5278 9.28654C11.9801 8.98437 12.3325 8.55488 12.5407 8.05238C12.7488 7.54988 12.8033 6.99695 12.6972 6.4635C12.5911 5.93006 12.3291 5.44005 11.9445 5.05546C11.5599 4.67086 11.0699 4.40895 10.5365 4.30284C10.0031 4.19673 9.45012 4.25119 8.94762 4.45933C8.44512 4.66747 8.01563 5.01995 7.71346 5.47218C7.41128 5.92442 7.25 6.4561 7.25 7C7.25 7.41421 7.58579 7.75 8 7.75C8.41421 7.75 8.75 7.41421 8.75 7C8.75 6.75277 8.82331 6.5111 8.96066 6.30554C9.09801 6.09998 9.29324 5.93976 9.52165 5.84515Z" fill="#181818"/>
<path d="M10 15C10.8284 15 11.5 14.3284 11.5 13.5C11.5 12.6716 10.8284 12 10 12C9.17157 12 8.5 12.6716 8.5 13.5C8.5 14.3284 9.17157 15 10 15Z" fill="#181818"/>
</g>
<defs>
<clipPath id="clip0_4319_106">
<rect width="20" height="20" fill="white"/>
</clipPath>
</defs>
</svg>
