<svg width="24" height="24" viewBox="0 0 24 24" fill="none" xmlns="http://www.w3.org/2000/svg">
<path d="M12 2.25C6.61522 2.25 2.25 6.61522 2.25 12C2.25 17.3848 6.61522 21.75 12 21.75C17.3848 21.75 21.75 17.3848 21.75 12C21.75 6.61522 17.3848 2.25 12 2.25Z" fill="black" fill-opacity="0.12"/>
<path fill-rule="evenodd" clip-rule="evenodd" d="M7.46967 12.4697C7.76256 12.1768 8.23744 12.1768 8.53033 12.4697L11.25 15.1893L11.25 7C11.25 6.58579 11.5858 6.25 12 6.25C12.4142 6.25 12.75 6.58579 12.75 7L12.75 15.1893L15.4697 12.4697C15.7626 12.1768 16.2374 12.1768 16.5303 12.4697C16.8232 12.7626 16.8232 13.2374 16.5303 13.5303L12.5303 17.5303C12.2374 17.8232 11.7626 17.8232 11.4697 17.5303L7.46967 13.5303C7.17678 13.2374 7.17678 12.7626 7.46967 12.4697Z" fill="#181818"/>
</svg>
