<svg width="24" height="24" viewBox="0 0 24 24" fill="none" xmlns="http://www.w3.org/2000/svg">
<path d="M12 2.25C6.61522 2.25 2.25 6.61522 2.25 12C2.25 17.3848 6.61522 21.75 12 21.75C17.3848 21.75 21.75 17.3848 21.75 12C21.75 6.61522 17.3848 2.25 12 2.25Z" fill="black" fill-opacity="0.12"/>
<path fill-rule="evenodd" clip-rule="evenodd" d="M12.4697 16.5303C12.1768 16.2374 12.1768 15.7626 12.4697 15.4697L15.1893 12.75L7 12.75C6.58579 12.75 6.25 12.4142 6.25 12C6.25 11.5858 6.58579 11.25 7 11.25L15.1893 11.25L12.4697 8.53033C12.1768 8.23744 12.1768 7.76256 12.4697 7.46967C12.7626 7.17678 13.2374 7.17678 13.5303 7.46967L17.5303 11.4697C17.8232 11.7626 17.8232 12.2374 17.5303 12.5303L13.5303 16.5303C13.2374 16.8232 12.7626 16.8232 12.4697 16.5303Z" fill="#181818"/>
</svg>
