<svg width="24" height="24" viewBox="0 0 24 24" fill="none" xmlns="http://www.w3.org/2000/svg">
<path d="M12 2.25C6.61522 2.25 2.25 6.61522 2.25 12C2.25 17.3848 6.61522 21.75 12 21.75C17.3848 21.75 21.75 17.3848 21.75 12C21.75 6.61522 17.3848 2.25 12 2.25Z" fill="#A9E2B3"/>
<path fill-rule="evenodd" clip-rule="evenodd" d="M17.5303 8.21967C17.8232 8.51256 17.8232 8.98744 17.5303 9.28033L10.5303 16.2803C10.2374 16.5732 9.76256 16.5732 9.46967 16.2803L6.46967 13.2803C6.17678 12.9874 6.17678 12.5126 6.46967 12.2197C6.76256 11.9268 7.23744 11.9268 7.53033 12.2197L10 14.6893L16.4697 8.21967C16.7626 7.92678 17.2374 7.92678 17.5303 8.21967Z" fill="#181818"/>
</svg>
