<svg width="24" height="24" viewBox="0 0 24 24" fill="none" xmlns="http://www.w3.org/2000/svg">
<path d="M12 2.25C6.61522 2.25 2.25 6.61522 2.25 12C2.25 17.3848 6.61522 21.75 12 21.75C17.3848 21.75 21.75 17.3848 21.75 12C21.75 6.61522 17.3848 2.25 12 2.25Z" fill="#F5CBC5"/>
<path d="M12.75 6C12.75 5.58579 12.4142 5.25 12 5.25C11.5858 5.25 11.25 5.58579 11.25 6L11.25 13C11.25 13.4142 11.5858 13.75 12 13.75C12.4142 13.75 12.75 13.4142 12.75 13L12.75 6Z" fill="#712C28"/>
<path d="M12 18C12.8284 18 13.5 17.3284 13.5 16.5C13.5 15.6716 12.8284 15 12 15C11.1716 15 10.5 15.6716 10.5 16.5C10.5 17.3284 11.1716 18 12 18Z" fill="#712C28"/>
</svg>
