<svg width="24" height="24" viewBox="0 0 24 24" fill="none" xmlns="http://www.w3.org/2000/svg">
<path d="M12 2.25C6.61522 2.25 2.25 6.61522 2.25 12C2.25 17.3848 6.61522 21.75 12 21.75C17.3848 21.75 21.75 17.3848 21.75 12C21.75 6.61522 17.3848 2.25 12 2.25Z" fill="#376C89"/>
<path d="M12 9C12.8284 9 13.5 8.32843 13.5 7.5C13.5 6.67157 12.8284 6 12 6C11.1716 6 10.5 6.67157 10.5 7.5C10.5 8.32843 11.1716 9 12 9Z" fill="white"/>
<path d="M10.5 10.25C10.0858 10.25 9.75 10.5858 9.75 11C9.75 11.4142 10.0858 11.75 10.5 11.75H11C11.1381 11.75 11.25 11.8619 11.25 12V16C11.25 16.9665 12.0335 17.75 13 17.75H13.5C13.9142 17.75 14.25 17.4142 14.25 17C14.25 16.5858 13.9142 16.25 13.5 16.25H13C12.8619 16.25 12.75 16.1381 12.75 16V12C12.75 11.0335 11.9665 10.25 11 10.25H10.5Z" fill="white"/>
</svg>
