<svg width="24" height="24" viewBox="0 0 24 24" fill="none" xmlns="http://www.w3.org/2000/svg">
<path d="M10.875 8.75H13.125V12.1345H16.4905V14.3845H13.125V17.75H10.875V14.3845H7.49048V12.1345H10.875V8.75Z" fill="#181818"/>
<path fill-rule="evenodd" clip-rule="evenodd" d="M6.75 0.875C6.75 0.667893 6.58211 0.5 6.375 0.5C6.16789 0.5 6 0.667893 6 0.875V1.25H4.125C2.47329 1.25 1.125 2.59829 1.125 4.25V20C1.125 21.6517 2.47329 23 4.125 23H19.875C21.5267 23 22.875 21.6517 22.875 20V4.25C22.875 2.59829 21.5267 1.25 19.875 1.25H18V0.875C18 0.667893 17.8321 0.5 17.625 0.5C17.4179 0.5 17.25 0.667893 17.25 0.875V1.25H12.375V0.875C12.375 0.667893 12.2071 0.5 12 0.5C11.7929 0.5 11.625 0.667893 11.625 0.875V1.25H6.75V0.875ZM11.625 2.75H6.75V3.125C6.75 3.33211 6.58211 3.5 6.375 3.5C6.16789 3.5 6 3.33211 6 3.125V2.75H4.125C3.30171 2.75 2.625 3.42671 2.625 4.25V20C2.625 20.8233 3.30171 21.5 4.125 21.5H19.875C20.6983 21.5 21.375 20.8233 21.375 20V4.25C21.375 3.42671 20.6983 2.75 19.875 2.75H18V3.125C18 3.33211 17.8321 3.5 17.625 3.5C17.4179 3.5 17.25 3.33211 17.25 3.125V2.75H12.375V3.125C12.375 3.33211 12.2071 3.5 12 3.5C11.7929 3.5 11.625 3.33211 11.625 3.125V2.75Z" fill="#181818"/>
</svg>
