<svg width="24" height="24" viewBox="0 0 24 24" fill="none" xmlns="http://www.w3.org/2000/svg">
<g clip-path="url(#clip0_2526_530)">
<path d="M19.875 0.75C18.011 0.75 16.5 2.26104 16.5 4.125V19.875C16.5 21.739 18.011 23.25 19.875 23.25C21.739 23.25 23.25 21.739 23.25 19.875V4.125C23.25 2.26104 21.739 0.75 19.875 0.75Z" fill="#181818"/>
<path d="M12 6C10.136 6 8.625 7.51104 8.625 9.375V19.875C8.625 21.739 10.136 23.25 12 23.25C13.864 23.25 15.375 21.739 15.375 19.875V9.375C15.375 7.51104 13.864 6 12 6Z" fill="#181818"/>
<path d="M4.125 11.25C2.26104 11.25 0.75 12.761 0.75 14.625V19.875C0.75 21.739 2.26104 23.25 4.125 23.25C5.98896 23.25 7.5 21.739 7.5 19.875V14.625C7.5 12.761 5.98896 11.25 4.125 11.25Z" fill="#181818"/>
</g>
<defs>
<clipPath id="clip0_2526_530">
<rect width="24" height="24" fill="white"/>
</clipPath>
</defs>
</svg>
