<svg width="24" height="24" viewBox="0 0 24 24" fill="none" xmlns="http://www.w3.org/2000/svg">
<path fill-rule="evenodd" clip-rule="evenodd" d="M11.3221 1.51492C11.705 1.16169 12.295 1.16169 12.678 1.51492L21.95 10.0668C22.2045 10.3027 22.407 10.5891 22.5447 10.9076C22.6819 11.2249 22.7518 11.5672 22.75 11.913L22.75 11.9168H21.95L22.75 11.91V11.913V20.25C22.75 20.913 22.4866 21.5489 22.0178 22.0178C21.549 22.4866 20.9131 22.75 20.25 22.75H3.75003C3.08699 22.75 2.45111 22.4866 1.98227 22.0178C1.51343 21.5489 1.25003 20.913 1.25003 20.25V11.913L1.25006 11.9168L2.05205 11.91H1.25003V11.913C1.24822 11.5672 1.31813 11.2249 1.45536 10.9076C1.59309 10.5891 1.79562 10.3027 2.05006 10.0668L2.05205 10.0649L11.3221 1.51492Z" fill="#181818"/>
</svg>
