<svg width="24" height="24" viewBox="0 0 24 24" fill="none" xmlns="http://www.w3.org/2000/svg">
<path d="M8.95112 11.9001C8.95112 12.7915 8.22845 13.5142 7.33699 13.5142C6.44553 13.5142 5.72286 12.7915 5.72286 11.9001C5.72286 11.0086 6.44553 10.2859 7.33699 10.2859C8.22845 10.2859 8.95112 11.0086 8.95112 11.9001Z" fill="#181818"/>
<path d="M12.1794 13.5142C13.0708 13.5142 13.7935 12.7915 13.7935 11.9001C13.7935 11.0086 13.0708 10.2859 12.1794 10.2859C11.2879 10.2859 10.5653 11.0086 10.5653 11.9001C10.5653 12.7915 11.2879 13.5142 12.1794 13.5142Z" fill="#181818"/>
<path d="M18.6359 11.9001C18.6359 12.7915 17.9132 13.5142 17.0218 13.5142C16.1303 13.5142 15.4076 12.7915 15.4076 11.9001C15.4076 11.0086 16.1303 10.2859 17.0218 10.2859C17.9132 10.2859 18.6359 11.0086 18.6359 11.9001Z" fill="#181818"/>
<path fill-rule="evenodd" clip-rule="evenodd" d="M23.5727 13.7944C24.8399 6.0758 18.1583 -0.706418 10.2319 0.5572L10.2207 0.559074C5.62405 1.36349 1.82224 4.92432 0.898258 9.54424L0.896232 9.55476C0.349507 12.5071 0.948913 15.3551 2.29367 17.6988L1.16794 20.1379L1.16614 20.1418C0.366242 21.9016 2.09571 23.8675 3.9316 23.2027L6.9607 22.1278C9.06211 23.1681 11.4903 23.6768 14.132 23.2366L14.1349 23.2361C18.854 22.4304 22.7654 18.6383 23.5724 13.7961L23.5727 13.7944ZM2.37018 9.83317C3.16941 5.84876 6.46594 2.74131 10.4737 2.0376C17.3945 0.937979 23.1918 6.85153 22.0927 13.5503C21.393 17.7463 17.9879 21.0558 13.884 21.7572C11.4859 22.1566 9.28407 21.6602 7.36344 20.6494C7.17819 20.5519 6.96061 20.5362 6.76332 20.6062L3.42745 21.7899L3.42195 21.7919C2.89204 21.9846 2.25707 21.3703 2.53094 20.7642L2.53169 20.7626L3.82118 17.9687C3.92671 17.74 3.91045 17.4737 3.77791 17.2596C2.47124 15.1488 1.87011 12.5411 2.37018 9.83317Z" fill="#181818"/>
</svg>
