<svg width="24" height="24" viewBox="0 0 24 24" fill="none" xmlns="http://www.w3.org/2000/svg">
<path d="M19.5 6.375C19.5 7.41053 18.6605 8.25 17.625 8.25C16.5895 8.25 15.75 7.41053 15.75 6.375C15.75 5.33947 16.5895 4.5 17.625 4.5C18.6605 4.5 19.5 5.33947 19.5 6.375Z" fill="#181818"/>
<path fill-rule="evenodd" clip-rule="evenodd" d="M1.5 6.375C1.5 3.68261 3.68261 1.5 6.375 1.5H17.625C20.3174 1.5 22.5 3.68261 22.5 6.375C22.5 9.06739 20.3174 11.25 17.625 11.25H6.375C3.68261 11.25 1.5 9.06739 1.5 6.375ZM6.375 3H17.625C19.489 3 21 4.51104 21 6.375C21 8.23896 19.489 9.75 17.625 9.75H6.375C4.51104 9.75 3 8.23896 3 6.375C3 4.51104 4.51104 3 6.375 3Z" fill="#181818"/>
<path d="M6.375 19.5C7.41053 19.5 8.25 18.6605 8.25 17.625C8.25 16.5895 7.41053 15.75 6.375 15.75C5.33947 15.75 4.5 16.5895 4.5 17.625C4.5 18.6605 5.33947 19.5 6.375 19.5Z" fill="#181818"/>
<path fill-rule="evenodd" clip-rule="evenodd" d="M1.5 17.625C1.5 14.9326 3.68261 12.75 6.375 12.75H17.625C20.3174 12.75 22.5 14.9326 22.5 17.625C22.5 20.3174 20.3174 22.5 17.625 22.5H6.375C3.68261 22.5 1.5 20.3174 1.5 17.625ZM6.375 14.25H17.625C19.489 14.25 21 15.761 21 17.625C21 19.489 19.489 21 17.625 21H6.375C4.51104 21 3 19.489 3 17.625C3 15.761 4.51104 14.25 6.375 14.25Z" fill="#181818"/>
</svg>
