<svg width="20" height="20" viewBox="0 0 20 20" fill="none" xmlns="http://www.w3.org/2000/svg">
<path fill-rule="evenodd" clip-rule="evenodd" d="M11.4697 17.5303C11.7626 17.8232 12.2374 17.8232 12.5303 17.5303L16.5303 13.5303C16.8232 13.2374 16.8232 12.7626 16.5303 12.4697L12.5303 8.46967C12.2374 8.17678 11.7626 8.17678 11.4697 8.46967C11.1768 8.76256 11.1768 9.23744 11.4697 9.53033L14.1893 12.25H6.5C6.08579 12.25 5.75 11.9142 5.75 11.5V3C5.75 2.58579 5.41421 2.25 5 2.25C4.58579 2.25 4.25 2.58579 4.25 3V11.5C4.25 12.7426 5.25736 13.75 6.5 13.75H14.1893L11.4697 16.4697C11.1768 16.7626 11.1768 17.2374 11.4697 17.5303Z" fill="currentColor"/>
</svg>
