<svg width="20" height="20" viewBox="0 0 20 20" fill="none" xmlns="http://www.w3.org/2000/svg">
<path fill-rule="evenodd" clip-rule="evenodd" d="M8.53033 2.46967C8.23744 2.17678 7.76256 2.17678 7.46967 2.46967L3.46967 6.46967C3.17678 6.76256 3.17678 7.23744 3.46967 7.53033L7.46967 11.5303C7.76256 11.8232 8.23744 11.8232 8.53033 11.5303C8.82322 11.2374 8.82322 10.7626 8.53033 10.4697L5.81066 7.75H13.5C13.9142 7.75 14.25 8.08579 14.25 8.5V17C14.25 17.4142 14.5858 17.75 15 17.75C15.4142 17.75 15.75 17.4142 15.75 17V8.5C15.75 7.25736 14.7426 6.25 13.5 6.25H5.81066L8.53033 3.53033C8.82322 3.23744 8.82322 2.76256 8.53033 2.46967Z" fill="currentColor"/>
</svg>
