<svg width="20" height="20" viewBox="0 0 20 20" fill="none" xmlns="http://www.w3.org/2000/svg">
<path fill-rule="evenodd" clip-rule="evenodd" d="M14.75 5C14.75 5.41421 14.4142 5.75 14 5.75L6.81066 5.75L15.5303 14.4697C15.8232 14.7626 15.8232 15.2374 15.5303 15.5303C15.2374 15.8232 14.7626 15.8232 14.4697 15.5303L5.75 6.81066L5.75 14C5.75 14.4142 5.41421 14.75 5 14.75C4.58579 14.75 4.25 14.4142 4.25 14L4.25 5C4.25 4.80109 4.32902 4.61032 4.46967 4.46967C4.61032 4.32902 4.80109 4.25 5 4.25L14 4.25C14.4142 4.25 14.75 4.58579 14.75 5Z" fill="currentColor"/>
</svg>
