<svg width="20" height="20" viewBox="0 0 20 20" fill="none" xmlns="http://www.w3.org/2000/svg">
<path fill-rule="evenodd" clip-rule="evenodd" d="M9.53033 14.5303C9.23744 14.8232 8.76256 14.8232 8.46967 14.5303L4.46967 10.5303C4.17678 10.2374 4.17678 9.76256 4.46967 9.46967L8.46967 5.46967C8.76256 5.17678 9.23744 5.17678 9.53033 5.46967C9.82322 5.76256 9.82322 6.23744 9.53033 6.53033L6.81066 9.25H14.5C14.9142 9.25 15.25 8.91421 15.25 8.5V5C15.25 4.58579 15.5858 4.25 16 4.25C16.4142 4.25 16.75 4.58579 16.75 5V8.5C16.75 9.74264 15.7426 10.75 14.5 10.75H6.81066L9.53033 13.4697C9.82322 13.7626 9.82322 14.2374 9.53033 14.5303Z" fill="currentColor"/>
</svg>
