<svg width="20" height="20" viewBox="0 0 20 20" fill="none" xmlns="http://www.w3.org/2000/svg">
<path fill-rule="evenodd" clip-rule="evenodd" d="M2.46967 8.53033C2.17678 8.23744 2.17678 7.76256 2.46967 7.46967L6.46967 3.46967C6.76256 3.17678 7.23744 3.17678 7.53033 3.46967L11.5303 7.46967C11.8232 7.76256 11.8232 8.23744 11.5303 8.53033C11.2374 8.82322 10.7626 8.82322 10.4697 8.53033L7.75 5.81066V13.5C7.75 13.9142 8.08579 14.25 8.5 14.25H17C17.4142 14.25 17.75 14.5858 17.75 15C17.75 15.4142 17.4142 15.75 17 15.75H8.5C7.25736 15.75 6.25 14.7426 6.25 13.5V5.81066L3.53033 8.53033C3.23744 8.82322 2.76256 8.82322 2.46967 8.53033Z" fill="currentColor"/>
</svg>
