<svg width="20" height="20" viewBox="0 0 20 20" fill="none" xmlns="http://www.w3.org/2000/svg">
<path d="M3.75 10C3.75 6.54822 6.54822 3.75 10 3.75C12.044 3.75 13.8594 4.73074 15.0005 6.25L12.75 6.25C12.3358 6.25 12 6.58579 12 7C12 7.41421 12.3358 7.75 12.75 7.75L16.75 7.75C17.1642 7.75 17.5 7.41421 17.5 7V3C17.5 2.58579 17.1642 2.25 16.75 2.25C16.3358 2.25 16 2.58579 16 3V5.09439C14.5796 3.35914 12.4195 2.25 10 2.25C5.71979 2.25 2.25 5.71979 2.25 10C2.25 14.2802 5.71979 17.75 10 17.75C14.0944 17.75 17.4467 14.5754 17.7306 10.5528C17.7597 10.1396 17.4484 9.78102 17.0352 9.75186C16.622 9.7227 16.2634 10.034 16.2343 10.4472C16.0054 13.6899 13.3014 16.25 10 16.25C6.54822 16.25 3.75 13.4518 3.75 10Z" fill="currentColor"/>
</svg>
