<svg width="20" height="20" viewBox="0 0 20 20" fill="none" xmlns="http://www.w3.org/2000/svg">
<path fill-rule="evenodd" clip-rule="evenodd" d="M17.5303 11.4697C17.8232 11.7626 17.8232 12.2374 17.5303 12.5303L13.5303 16.5303C13.2374 16.8232 12.7626 16.8232 12.4697 16.5303L8.46967 12.5303C8.17678 12.2374 8.17678 11.7626 8.46967 11.4697C8.76256 11.1768 9.23744 11.1768 9.53033 11.4697L12.25 14.1893V6.5C12.25 6.08579 11.9142 5.75 11.5 5.75H3C2.58579 5.75 2.25 5.41421 2.25 5C2.25 4.58579 2.58579 4.25 3 4.25H11.5C12.7426 4.25 13.75 5.25736 13.75 6.5V14.1893L16.4697 11.4697C16.7626 11.1768 17.2374 11.1768 17.5303 11.4697Z" fill="currentColor"/>
</svg>
