<svg width="20" height="20" viewBox="0 0 20 20" fill="none" xmlns="http://www.w3.org/2000/svg">
<path fill-rule="evenodd" clip-rule="evenodd" d="M8.53033 17.5303C8.23744 17.8232 7.76256 17.8232 7.46967 17.5303L3.46967 13.5303C3.17678 13.2374 3.17678 12.7626 3.46967 12.4697L7.46967 8.46967C7.76256 8.17678 8.23744 8.17678 8.53033 8.46967C8.82322 8.76256 8.82322 9.23744 8.53033 9.53033L5.81066 12.25H13.5C13.9142 12.25 14.25 11.9142 14.25 11.5V3C14.25 2.58579 14.5858 2.25 15 2.25C15.4142 2.25 15.75 2.58579 15.75 3V11.5C15.75 12.7426 14.7426 13.75 13.5 13.75H5.81066L8.53033 16.4697C8.82322 16.7626 8.82322 17.2374 8.53033 17.5303Z" fill="currentColor"/>
</svg>
