<svg width="20" height="20" viewBox="0 0 20 20" fill="none" xmlns="http://www.w3.org/2000/svg">
<path fill-rule="evenodd" clip-rule="evenodd" d="M5 5.25C5.41421 5.25 5.75 5.58579 5.75 6L5.75 13.1893L14.4697 4.46967C14.7626 4.17678 15.2374 4.17678 15.5303 4.46967C15.8232 4.76256 15.8232 5.23744 15.5303 5.53033L6.81066 14.25L14 14.25C14.4142 14.25 14.75 14.5858 14.75 15C14.75 15.4142 14.4142 15.75 14 15.75H5C4.80109 15.75 4.61032 15.671 4.46967 15.5303C4.32902 15.3897 4.25 15.1989 4.25 15L4.25 6C4.25 5.58579 4.58579 5.25 5 5.25Z" fill="currentColor"/>
</svg>
