<svg width="20" height="20" viewBox="0 0 20 20" fill="none" xmlns="http://www.w3.org/2000/svg">
<path fill-rule="evenodd" clip-rule="evenodd" d="M16.25 8.5C16.25 8.91421 15.9142 9.25 15.5 9.25L11.5 9.25C11.0858 9.25 10.75 8.91421 10.75 8.5L10.75 4.5C10.75 4.08579 11.0858 3.75 11.5 3.75C11.9142 3.75 12.25 4.08579 12.25 4.5V6.68934L15.4697 3.46967C15.7626 3.17678 16.2374 3.17678 16.5303 3.46967C16.8232 3.76256 16.8232 4.23744 16.5303 4.53033L13.3107 7.75L15.5 7.75C15.9142 7.75 16.25 8.08579 16.25 8.5Z" fill="currentColor"/>
<path fill-rule="evenodd" clip-rule="evenodd" d="M3.75 11.5C3.75 11.0858 4.08579 10.75 4.5 10.75H8.5C8.91421 10.75 9.25 11.0858 9.25 11.5V15.5C9.25 15.9142 8.91421 16.25 8.5 16.25C8.08578 16.25 7.75 15.9142 7.75 15.5V13.3107L4.53033 16.5303C4.23744 16.8232 3.76256 16.8232 3.46967 16.5303C3.17678 16.2374 3.17678 15.7626 3.46967 15.4697L6.68934 12.25H4.5C4.08579 12.25 3.75 11.9142 3.75 11.5Z" fill="currentColor"/>
</svg>
