<svg width="20" height="20" viewBox="0 0 20 20" fill="none" xmlns="http://www.w3.org/2000/svg">
<path d="M10 3.25C10.4142 3.25 10.75 3.58579 10.75 4V8.70107L14.8214 6.35047C15.1801 6.14336 15.6388 6.26627 15.8459 6.62499C16.053 6.98371 15.9301 7.4424 15.5714 7.64951L11.5001 10.0001L15.5711 12.3505C15.9298 12.5576 16.0528 13.0163 15.8456 13.375C15.6385 13.7337 15.1798 13.8566 14.8211 13.6495L10.75 11.299V16C10.75 16.4142 10.4142 16.75 10 16.75C9.58579 16.75 9.25001 16.4142 9.25001 16V11.2991L5.17907 13.6495C4.82035 13.8566 4.36165 13.7337 4.15455 13.375C3.94744 13.0163 4.07035 12.5576 4.42907 12.3505L8.5001 10.0001L4.42882 7.64951C4.0701 7.4424 3.9472 6.98371 4.1543 6.62499C4.36141 6.26627 4.8201 6.14336 5.17882 6.35047L9.25 8.70097V4C9.25 3.58579 9.58579 3.25 10 3.25Z" fill="currentColor"/>
</svg>
