<svg width="20" height="20" viewBox="0 0 20 20" fill="none" xmlns="http://www.w3.org/2000/svg">
<path fill-rule="evenodd" clip-rule="evenodd" d="M10 1.25C10.4142 1.25 10.75 1.58579 10.75 2V3.29847C13.5713 3.66597 15.75 6.07855 15.75 9C15.75 11.2794 16.3877 13.0983 16.6708 13.6646C16.7871 13.8971 16.7746 14.1732 16.638 14.3943C16.5013 14.6154 16.2599 14.75 16 14.75H4C3.74007 14.75 3.49867 14.6154 3.36201 14.3943C3.22536 14.1732 3.21293 13.8971 3.32918 13.6646C3.61234 13.0983 4.25 11.2794 4.25 9C4.25 6.07855 6.42873 3.66598 9.25 3.29847V2C9.25 1.58579 9.58579 1.25 10 1.25ZM5.75 9C5.75 6.65279 7.65279 4.75 10 4.75C12.3472 4.75 14.25 6.65279 14.25 9C14.25 10.724 14.5755 12.2269 14.9039 13.25H5.09613C5.42455 12.2269 5.75 10.724 5.75 9Z" fill="currentColor"/>
<path d="M8.33549 15.7953C8.72582 15.6566 9.15462 15.8607 9.29325 16.251C9.34492 16.3965 9.44025 16.5225 9.56622 16.6118C9.69219 16.7011 9.84265 16.7494 9.99707 16.75C10.1515 16.7506 10.3023 16.7035 10.429 16.6152C10.5556 16.5269 10.652 16.4016 10.7048 16.2565C10.8464 15.8673 11.2768 15.6666 11.6661 15.8083C12.0553 15.9499 12.256 16.3803 12.1143 16.7695C11.9559 17.2049 11.6669 17.5806 11.2869 17.8456C10.907 18.1106 10.4544 18.2518 9.99121 18.25C9.52797 18.2482 9.07658 18.1034 8.69867 17.8355C8.32077 17.5676 8.03477 17.1895 7.87974 16.753C7.74112 16.3627 7.94516 15.9339 8.33549 15.7953Z" fill="currentColor"/>
</svg>
