<svg width="20" height="20" viewBox="0 0 20 20" fill="none" xmlns="http://www.w3.org/2000/svg">
<path fill-rule="evenodd" clip-rule="evenodd" d="M8.3355 15.7952C8.72582 15.6566 9.15462 15.8607 9.29325 16.251C9.34493 16.3965 9.44026 16.5225 9.56623 16.6118C9.69219 16.7011 9.84266 16.7494 9.99707 16.75C10.1515 16.7506 10.3023 16.7035 10.429 16.6152C10.5556 16.5269 10.652 16.4016 10.7048 16.2565C10.8464 15.8673 11.2768 15.6666 11.6661 15.8083C12.0553 15.9499 12.256 16.3803 12.1143 16.7695C11.9559 17.2049 11.6669 17.5806 11.2869 17.8456C10.907 18.1106 10.4545 18.2518 9.99121 18.25C9.52797 18.2482 9.07658 18.1034 8.69868 17.8355C8.32077 17.5676 8.03478 17.1895 7.87974 16.753C7.74112 16.3627 7.94517 15.9339 8.3355 15.7952Z" fill="currentColor"/>
<path fill-rule="evenodd" clip-rule="evenodd" d="M10 1.25C10.4142 1.25 10.75 1.58579 10.75 2V4C10.75 4.41421 10.4142 4.75 10 4.75C7.65279 4.75 5.75 6.65279 5.75 9C5.75 10.724 5.42455 12.2269 5.09613 13.25H14.9038C14.7183 12.6717 14.5345 11.943 14.4095 11.1116C14.3479 10.702 14.63 10.32 15.0396 10.2583C15.4492 10.1967 15.8312 10.4788 15.8928 10.8884C16.0993 12.2613 16.4767 13.2763 16.6708 13.6646C16.7871 13.8971 16.7746 14.1732 16.638 14.3943C16.5013 14.6154 16.2599 14.75 16 14.75H4C3.74007 14.75 3.49867 14.6154 3.36201 14.3943C3.22536 14.1732 3.21293 13.8971 3.32918 13.6646C3.61234 13.0983 4.25 11.2794 4.25 9C4.25 6.07855 6.42873 3.66598 9.25 3.29847V2C9.25 1.58579 9.58579 1.25 10 1.25Z" fill="currentColor"/>
<path fill-rule="evenodd" clip-rule="evenodd" d="M13 4.75C12.5858 4.75 12.25 4.41421 12.25 4C12.25 3.58579 12.5858 3.25 13 3.25H17C17.3033 3.25 17.5768 3.43273 17.6929 3.71299C17.809 3.99324 17.7448 4.31583 17.5303 4.53033L14.8107 7.25H17C17.4142 7.25 17.75 7.58579 17.75 8C17.75 8.41421 17.4142 8.75 17 8.75H13C12.6967 8.75 12.4232 8.56727 12.3071 8.28701C12.191 8.00676 12.2552 7.68417 12.4697 7.46967L15.1893 4.75H13Z" fill="currentColor"/>
</svg>
