<svg width="20" height="20" viewBox="0 0 20 20" fill="none" xmlns="http://www.w3.org/2000/svg">
<path fill-rule="evenodd" clip-rule="evenodd" d="M15.25 3.25C16.0784 3.25 16.75 3.92157 16.75 4.75V15.25C16.75 16.0784 16.0784 16.75 15.25 16.75H12.25C11.4216 16.75 10.75 16.0784 10.75 15.25L10.75 4.75C10.75 3.92157 11.4216 3.25 12.25 3.25L15.25 3.25ZM15.25 15.25V4.75L12.25 4.75V15.25H15.25Z" fill="currentColor"/>
<path fill-rule="evenodd" clip-rule="evenodd" d="M7.75 3.25C8.57843 3.25 9.25 3.92157 9.25 4.75L9.25 15.25C9.25 16.0784 8.57843 16.75 7.75 16.75H4.75C3.92157 16.75 3.25 16.0784 3.25 15.25L3.25 4.75C3.25 3.92157 3.92157 3.25 4.75 3.25L7.75 3.25ZM7.75 15.25L7.75 4.75L4.75 4.75L4.75 15.25H7.75Z" fill="currentColor"/>
</svg>
