<svg width="20" height="20" viewBox="0 0 20 20" fill="none" xmlns="http://www.w3.org/2000/svg">
<path fill-rule="evenodd" clip-rule="evenodd" d="M3.25 4.75C3.25 3.92157 3.92157 3.25 4.75 3.25H15.25C16.0784 3.25 16.75 3.92157 16.75 4.75V7.75C16.75 8.57843 16.0784 9.25 15.25 9.25H4.75C3.92157 9.25 3.25 8.57843 3.25 7.75V4.75ZM15.25 4.75L4.75 4.75V7.75H15.25V4.75Z" fill="currentColor"/>
<path fill-rule="evenodd" clip-rule="evenodd" d="M3.25 12.25C3.25 11.4216 3.92157 10.75 4.75 10.75H15.25C16.0784 10.75 16.75 11.4216 16.75 12.25V15.25C16.75 16.0784 16.0784 16.75 15.25 16.75H4.75C3.92157 16.75 3.25 16.0784 3.25 15.25V12.25ZM15.25 12.25H4.75V15.25H15.25V12.25Z" fill="currentColor"/>
</svg>
