<svg width="20" height="20" viewBox="0 0 20 20" fill="none" xmlns="http://www.w3.org/2000/svg">
<path fill-rule="evenodd" clip-rule="evenodd" d="M3.25 4.07692C3.25 3.05884 4.08336 2.25 5.09091 2.25H14.9091C15.9167 2.25 16.75 3.05885 16.75 4.07692V15.9231C16.75 16.9412 15.9167 17.75 14.9091 17.75H5.09091C4.08337 17.75 3.25 16.9412 3.25 15.9231V4.07692ZM5.09091 3.75C4.89348 3.75 4.75 3.90546 4.75 4.07692V15.9231C4.75 16.0945 4.89347 16.25 5.09091 16.25H14.9091C15.1065 16.25 15.25 16.0946 15.25 15.9231V4.07692C15.25 3.90546 15.1065 3.75 14.9091 3.75H5.09091Z" fill="currentColor"/>
<path fill-rule="evenodd" clip-rule="evenodd" d="M3.25 8.38466C3.25 7.97045 3.58579 7.63466 4 7.63466H16C16.4142 7.63466 16.75 7.97045 16.75 8.38466C16.75 8.79887 16.4142 9.13466 16 9.13466H4C3.58579 9.13466 3.25 8.79887 3.25 8.38466Z" fill="currentColor"/>
<path fill-rule="evenodd" clip-rule="evenodd" d="M7.70025 11.3462C7.7324 11.2627 7.75002 11.1719 7.75002 11.077C7.75002 10.6628 7.41424 10.327 7.00002 10.327C6.44434 10.327 5.97729 10.7742 5.97729 11.3462C5.97729 11.9182 6.44434 12.3655 7.00002 12.3655C7.41424 12.3655 7.75002 12.0297 7.75002 11.6155C7.75002 11.5206 7.7324 11.4298 7.70025 11.3462Z" fill="currentColor"/>
<path fill-rule="evenodd" clip-rule="evenodd" d="M6.25 11.077C6.25 10.6628 6.58581 10.327 7.00002 10.327C7.5557 10.327 8.02273 10.7743 8.02273 11.3463C8.02273 11.9183 7.55571 12.3655 7.00002 12.3655C6.58581 12.3655 6.25 12.0297 6.25 11.6155C6.25 11.5206 6.26762 11.4298 6.29977 11.3463C6.26762 11.2627 6.25 11.1719 6.25 11.077Z" fill="currentColor"/>
<path fill-rule="evenodd" clip-rule="evenodd" d="M10.7002 11.3462C10.7324 11.2627 10.75 11.1719 10.75 11.077C10.75 10.6628 10.4142 10.327 10 10.327C9.44434 10.327 8.97729 10.7742 8.97729 11.3462C8.97729 11.9182 9.44434 12.3655 10 12.3655C10.4142 12.3655 10.75 12.0297 10.75 11.6155C10.75 11.5206 10.7324 11.4298 10.7002 11.3462Z" fill="currentColor"/>
<path fill-rule="evenodd" clip-rule="evenodd" d="M9.25 11.077C9.25 10.6628 9.58581 10.327 10 10.327C10.5557 10.327 11.0227 10.7743 11.0227 11.3463C11.0227 11.9183 10.5557 12.3655 10 12.3655C9.58581 12.3655 9.25 12.0297 9.25 11.6155C9.25 11.5206 9.26762 11.4298 9.29977 11.3463C9.26762 11.2627 9.25 11.1719 9.25 11.077Z" fill="currentColor"/>
<path fill-rule="evenodd" clip-rule="evenodd" d="M13.7002 11.3462C13.7324 11.2627 13.75 11.1719 13.75 11.077C13.75 10.6628 13.4142 10.327 13 10.327C12.4443 10.327 11.9773 10.7742 11.9773 11.3462C11.9773 11.9182 12.4443 12.3655 13 12.3655C13.4142 12.3655 13.75 12.0297 13.75 11.6155C13.75 11.5206 13.7324 11.4298 13.7002 11.3462Z" fill="currentColor"/>
<path fill-rule="evenodd" clip-rule="evenodd" d="M12.25 11.077C12.25 10.6628 12.5858 10.327 13 10.327C13.5557 10.327 14.0227 10.7743 14.0227 11.3463C14.0227 11.9183 13.5557 12.3655 13 12.3655C12.5858 12.3655 12.25 12.0297 12.25 11.6155C12.25 11.5206 12.2676 11.4298 12.2998 11.3463C12.2676 11.2627 12.25 11.1719 12.25 11.077Z" fill="currentColor"/>
<path fill-rule="evenodd" clip-rule="evenodd" d="M7.70025 14.0383C7.7324 13.9547 7.75002 13.864 7.75002 13.7691C7.75002 13.3549 7.41424 13.0191 7.00002 13.0191C6.4444 13.0191 5.97729 13.4662 5.97729 14.0383C5.97729 14.6104 6.4444 15.0575 7.00002 15.0575C7.41424 15.0575 7.75002 14.7218 7.75002 14.3075C7.75002 14.2126 7.7324 14.1219 7.70025 14.0383Z" fill="currentColor"/>
<path fill-rule="evenodd" clip-rule="evenodd" d="M6.25 13.7692C6.25 13.355 6.58581 13.0191 7.00002 13.0191C7.55565 13.0191 8.02273 13.4663 8.02273 14.0384C8.02273 14.6105 7.55565 15.0575 7.00002 15.0575C6.58581 15.0575 6.25 14.7218 6.25 14.3076C6.25 14.2127 6.26762 14.122 6.29977 14.0384C6.26762 13.9548 6.25 13.8641 6.25 13.7692Z" fill="currentColor"/>
<path fill-rule="evenodd" clip-rule="evenodd" d="M10.7002 14.0383C10.7324 13.9547 10.75 13.864 10.75 13.7691C10.75 13.3549 10.4142 13.0191 10 13.0191C9.4444 13.0191 8.97729 13.4662 8.97729 14.0383C8.97729 14.6104 9.4444 15.0575 10 15.0575C10.4142 15.0575 10.75 14.7218 10.75 14.3075C10.75 14.2126 10.7324 14.1219 10.7002 14.0383Z" fill="currentColor"/>
<path fill-rule="evenodd" clip-rule="evenodd" d="M9.25 13.7692C9.25 13.355 9.58581 13.0191 10 13.0191C10.5556 13.0191 11.0227 13.4663 11.0227 14.0384C11.0227 14.6105 10.5556 15.0575 10 15.0575C9.58581 15.0575 9.25 14.7218 9.25 14.3076C9.25 14.2127 9.26762 14.122 9.29977 14.0384C9.26762 13.9548 9.25 13.8641 9.25 13.7692Z" fill="currentColor"/>
<path fill-rule="evenodd" clip-rule="evenodd" d="M13.7002 14.0383C13.7324 13.9547 13.75 13.864 13.75 13.7691C13.75 13.3549 13.4142 13.0191 13 13.0191C12.4444 13.0191 11.9773 13.4662 11.9773 14.0383C11.9773 14.6104 12.4444 15.0575 13 15.0575C13.4142 15.0575 13.75 14.7218 13.75 14.3075C13.75 14.2126 13.7324 14.1219 13.7002 14.0383Z" fill="currentColor"/>
<path fill-rule="evenodd" clip-rule="evenodd" d="M12.25 13.7692C12.25 13.355 12.5858 13.0191 13 13.0191C13.5556 13.0191 14.0227 13.4663 14.0227 14.0384C14.0227 14.6105 13.5556 15.0575 13 15.0575C12.5858 15.0575 12.25 14.7218 12.25 14.3076C12.25 14.2127 12.2676 14.122 12.2998 14.0384C12.2676 13.9548 12.25 13.8641 12.25 13.7692Z" fill="currentColor"/>
<path fill-rule="evenodd" clip-rule="evenodd" d="M11.4319 5.69233C11.4319 5.27812 11.7677 4.94233 12.1819 4.94233H13.2728C13.687 4.94233 14.0228 5.27812 14.0228 5.69233C14.0228 6.10654 13.687 6.44233 13.2728 6.44233H12.1819C11.7677 6.44233 11.4319 6.10654 11.4319 5.69233Z" fill="currentColor"/>
</svg>
