<svg width="20" height="20" viewBox="0 0 20 20" fill="none" xmlns="http://www.w3.org/2000/svg">
<path fill-rule="evenodd" clip-rule="evenodd" d="M7.75 3C7.75 2.58579 7.41421 2.25 7 2.25C6.58579 2.25 6.25 2.58579 6.25 3V3.25H4.80001C3.94396 3.25 3.25 3.94396 3.25 4.80001V15.2C3.25 16.056 3.94396 16.75 4.80001 16.75H8C8.41421 16.75 8.75 16.4142 8.75 16C8.75 15.5858 8.41421 15.25 8 15.25H4.80001C4.77239 15.25 4.75 15.2276 4.75 15.2V4.80001C4.75 4.77239 4.77239 4.75 4.80001 4.75H6.25V5C6.25 5.41421 6.58579 5.75 7 5.75C7.41421 5.75 7.75 5.41421 7.75 5V4.75H12.25V5C12.25 5.41421 12.5858 5.75 13 5.75C13.4142 5.75 13.75 5.41421 13.75 5V4.75H15.2C15.2276 4.75 15.25 4.77239 15.25 4.80001V9.5C15.25 9.91421 15.5858 10.25 16 10.25C16.4142 10.25 16.75 9.91421 16.75 9.5V4.80001C16.75 3.94396 16.056 3.25 15.2 3.25H13.75V3C13.75 2.58579 13.4142 2.25 13 2.25C12.5858 2.25 12.25 2.58579 12.25 3V3.25H7.75V3ZM18.0303 13.5303C18.3232 13.2374 18.3232 12.7626 18.0303 12.4697C17.7374 12.1768 17.2626 12.1768 16.9697 12.4697L13.5 15.9393L12.0303 14.4697C11.7374 14.1768 11.2626 14.1768 10.9697 14.4697C10.6768 14.7626 10.6768 15.2374 10.9697 15.5303L12.9697 17.5303C13.1103 17.671 13.3011 17.75 13.5 17.75C13.6989 17.75 13.8897 17.671 14.0303 17.5303L18.0303 13.5303Z" fill="currentColor"/>
</svg>
