<svg width="20" height="20" viewBox="0 0 20 20" fill="none" xmlns="http://www.w3.org/2000/svg">
<path d="M7.75 3C7.75 2.58579 7.41421 2.25 7 2.25C6.58579 2.25 6.25 2.58579 6.25 3V3.25H4.80001C3.94396 3.25 3.25 3.94396 3.25 4.80001V15.2C3.25 16.056 3.94396 16.75 4.80001 16.75H9C9.41421 16.75 9.75 16.4142 9.75 16C9.75 15.5858 9.41421 15.25 9 15.25H4.80001C4.77239 15.25 4.75 15.2276 4.75 15.2V4.80001C4.75 4.77239 4.77239 4.75 4.80001 4.75H6.25V5C6.25 5.41421 6.58579 5.75 7 5.75C7.41421 5.75 7.75 5.41421 7.75 5V4.75H12.25V5C12.25 5.41421 12.5858 5.75 13 5.75C13.4142 5.75 13.75 5.41421 13.75 5V4.75H15.2C15.2276 4.75 15.25 4.77239 15.25 4.80001V9C15.25 9.41421 15.5858 9.75 16 9.75C16.4142 9.75 16.75 9.41421 16.75 9V4.80001C16.75 3.94396 16.056 3.25 15.2 3.25H13.75V3C13.75 2.58579 13.4142 2.25 13 2.25C12.5858 2.25 12.25 2.58579 12.25 3V3.25H7.75V3Z" fill="currentColor"/>
<path d="M15.75 12C15.75 11.5858 15.4142 11.25 15 11.25C14.5858 11.25 14.25 11.5858 14.25 12V14.25H12C11.5858 14.25 11.25 14.5858 11.25 15C11.25 15.4142 11.5858 15.75 12 15.75H14.25V18C14.25 18.4142 14.5858 18.75 15 18.75C15.4142 18.75 15.75 18.4142 15.75 18V15.75H18C18.4142 15.75 18.75 15.4142 18.75 15C18.75 14.5858 18.4142 14.25 18 14.25H15.75V12Z" fill="currentColor"/>
</svg>
