<svg width="20" height="20" viewBox="0 0 20 20" fill="none" xmlns="http://www.w3.org/2000/svg">
<path d="M7.75 3.25V3C7.75 2.58579 7.41421 2.25 7 2.25C6.58579 2.25 6.25 2.58579 6.25 3C6.25 3.19891 6.32902 3.39213 6.46967 3.53278L7.46722 4.53033C7.60787 4.67098 7.79863 4.75 7.99755 4.75H12.25V5C12.25 5.41421 12.5858 5.75 13 5.75C13.4142 5.75 13.75 5.41421 13.75 5V4.75H15.2C15.2276 4.75 15.25 4.77239 15.25 4.80001V7.25H12C11.5858 7.25 11.25 7.58579 11.25 8C11.25 8.41421 11.5858 8.75 12 8.75H15.25V12C15.25 12.4142 15.5858 12.75 16 12.75C16.4142 12.75 16.75 12.4142 16.75 12V4.80001C16.75 3.94396 16.056 3.25 15.2 3.25H13.75V3C13.75 2.58579 13.4142 2.25 13 2.25C12.5858 2.25 12.25 2.58579 12.25 3V3.25H7.75Z" fill="currentColor"/>
<path fill-rule="evenodd" clip-rule="evenodd" d="M3.31033 4.37099L2.46967 3.53033C2.17678 3.23744 2.17678 2.76256 2.46967 2.46967C2.76256 2.17678 3.23744 2.17678 3.53033 2.46967L17.5303 16.4697C17.8232 16.7626 17.8232 17.2374 17.5303 17.5303C17.2374 17.8232 16.7626 17.8232 16.4697 17.5303L15.629 16.6897C15.4927 16.7289 15.3487 16.75 15.2 16.75H4.80001C3.94396 16.75 3.25 16.056 3.25 15.2V4.80001C3.25 4.65139 3.27107 4.50738 3.31033 4.37099ZM4.75 5.81066V7.25H6.18934L4.75 5.81066ZM7.68934 8.75H4.75V15.2C4.75 15.2276 4.77239 15.25 4.80001 15.25H14.1893L7.68934 8.75Z" fill="currentColor"/>
</svg>
