<svg width="20" height="20" viewBox="0 0 20 20" fill="none" xmlns="http://www.w3.org/2000/svg">
<path fill-rule="evenodd" clip-rule="evenodd" d="M7.75 3C7.75 2.58579 7.41421 2.25 7 2.25C6.58579 2.25 6.25 2.58579 6.25 3V3.25H4.80001C3.94396 3.25 3.25 3.94396 3.25 4.80001V15.2C3.25 16.056 3.94396 16.75 4.80001 16.75H15.2C16.056 16.75 16.75 16.056 16.75 15.2V4.80001C16.75 3.94396 16.056 3.25 15.2 3.25H13.75V3C13.75 2.58579 13.4142 2.25 13 2.25C12.5858 2.25 12.25 2.58579 12.25 3V3.25H7.75V3ZM15.25 7.25V4.80001C15.25 4.77239 15.2276 4.75 15.2 4.75H13.75V5C13.75 5.41421 13.4142 5.75 13 5.75C12.5858 5.75 12.25 5.41421 12.25 5V4.75H7.75V5C7.75 5.41421 7.41421 5.75 7 5.75C6.58579 5.75 6.25 5.41421 6.25 5V4.75H4.80001C4.77239 4.75 4.75 4.77239 4.75 4.80001V7.25H15.25ZM4.75 8.75H15.25V15.2C15.25 15.2276 15.2276 15.25 15.2 15.25H4.80001C4.77239 15.25 4.75 15.2276 4.75 15.2V8.75Z" fill="currentColor"/>
</svg>
