<svg width="20" height="20" viewBox="0 0 20 20" fill="none" xmlns="http://www.w3.org/2000/svg">
<path d="M7.75 3C7.75 2.58579 7.41421 2.25 7 2.25C6.58579 2.25 6.25 2.58579 6.25 3V3.25H4.75C3.92157 3.25 3.25 3.92157 3.25 4.75V7C3.25 7.41421 3.58579 7.75 4 7.75C4.41421 7.75 4.75 7.41421 4.75 7V4.75H6.25V5C6.25 5.41421 6.58579 5.75 7 5.75C7.41421 5.75 7.75 5.41421 7.75 5V4.75H12.25V5C12.25 5.41421 12.5858 5.75 13 5.75C13.4142 5.75 13.75 5.41421 13.75 5V4.75H15.25V15.25H4.75V13C4.75 12.5858 4.41421 12.25 4 12.25C3.58579 12.25 3.25 12.5858 3.25 13V15.25C3.25 16.0784 3.92157 16.75 4.75 16.75H15.25C16.0784 16.75 16.75 16.0784 16.75 15.25V4.75C16.75 3.92157 16.0784 3.25 15.25 3.25H13.75V3C13.75 2.58579 13.4142 2.25 13 2.25C12.5858 2.25 12.25 2.58579 12.25 3V3.25H7.75V3Z" fill="currentColor"/>
<path d="M12.5303 10.5303L9.53033 13.5303C9.23744 13.8232 8.76256 13.8232 8.46967 13.5303C8.17678 13.2374 8.17678 12.7626 8.46967 12.4697L10.1893 10.75H2.5C2.08579 10.75 1.75 10.4142 1.75 10C1.75 9.58579 2.08579 9.25 2.5 9.25H10.1893L8.46967 7.53033C8.17678 7.23744 8.17678 6.76256 8.46967 6.46967C8.76256 6.17678 9.23744 6.17678 9.53033 6.46967L12.5303 9.46967C12.8232 9.76256 12.8232 10.2374 12.5303 10.5303Z" fill="currentColor"/>
</svg>
