<svg width="20" height="20" viewBox="0 0 20 20" fill="none" xmlns="http://www.w3.org/2000/svg">
<path d="M8 9C8 9.55228 7.55228 10 7 10C6.44772 10 6 9.55228 6 9C6 8.44772 6.44772 8 7 8C7.55228 8 8 8.44772 8 9Z" fill="currentColor"/>
<path d="M7 10.5C5.89543 10.5 5 11.3954 5 12.5C5 12.7761 5.22386 13 5.5 13H8.5C8.77614 13 9 12.7761 9 12.5C9 11.3954 8.10457 10.5 7 10.5Z" fill="currentColor"/>
<path d="M10.5 8C10.5 7.72386 10.7239 7.5 11 7.5H14C14.2761 7.5 14.5 7.72386 14.5 8C14.5 8.27614 14.2761 8.5 14 8.5H11C10.7239 8.5 10.5 8.27614 10.5 8Z" fill="currentColor"/>
<path d="M11 9.5C10.7239 9.5 10.5 9.72386 10.5 10C10.5 10.2761 10.7239 10.5 11 10.5H14C14.2761 10.5 14.5 10.2761 14.5 10C14.5 9.72386 14.2761 9.5 14 9.5H11Z" fill="currentColor"/>
<path fill-rule="evenodd" clip-rule="evenodd" d="M2.25 6.5C2.25 5.25736 3.25736 4.25 4.5 4.25H15.5C16.7426 4.25 17.75 5.25736 17.75 6.5V13.5C17.75 14.7426 16.7426 15.75 15.5 15.75H4.5C3.25736 15.75 2.25 14.7426 2.25 13.5V6.5ZM4.5 5.75C4.08579 5.75 3.75 6.08579 3.75 6.5V13.5C3.75 13.9142 4.08579 14.25 4.5 14.25H15.5C15.9142 14.25 16.25 13.9142 16.25 13.5V6.5C16.25 6.08579 15.9142 5.75 15.5 5.75H4.5Z" fill="currentColor"/>
</svg>
