<svg width="20" height="20" viewBox="0 0 20 20" fill="none" xmlns="http://www.w3.org/2000/svg">
<path d="M15 4.25C16.5188 4.25 17.75 5.48122 17.75 7V13C17.75 14.5188 16.5188 15.75 15 15.75H5C3.48122 15.75 2.25 14.5188 2.25 13V7C2.25 5.48122 3.48122 4.25 5 4.25H15ZM7.5 7.25C6.25736 7.25 5.25 8.25736 5.25 9.5V10.5C5.25 11.7426 6.25736 12.75 7.5 12.75H8.5C8.91421 12.75 9.25 12.4142 9.25 12C9.25 11.5858 8.91421 11.25 8.5 11.25H7.5C7.08579 11.25 6.75 10.9142 6.75 10.5V9.5C6.75 9.08579 7.08579 8.75 7.5 8.75H8.5C8.91421 8.75 9.25 8.41421 9.25 8C9.25 7.58579 8.91421 7.25 8.5 7.25H7.5ZM12.5 7.25C11.2574 7.25 10.25 8.25736 10.25 9.5V10.5C10.25 11.7426 11.2574 12.75 12.5 12.75H13.5C13.9142 12.75 14.25 12.4142 14.25 12C14.25 11.5858 13.9142 11.25 13.5 11.25H12.5C12.0858 11.25 11.75 10.9142 11.75 10.5V9.5C11.75 9.08579 12.0858 8.75 12.5 8.75H13.5C13.9142 8.75 14.25 8.41421 14.25 8C14.25 7.58579 13.9142 7.25 13.5 7.25H12.5Z" fill="currentColor"/>
</svg>
