<svg width="20" height="20" viewBox="0 0 20 20" fill="none" xmlns="http://www.w3.org/2000/svg">
<path d="M8.5 7.25C8.91421 7.25 9.25 7.58579 9.25 8C9.25 8.41421 8.91421 8.75 8.5 8.75H7.5C7.08579 8.75 6.75 9.08579 6.75 9.5V10.5C6.75 10.9142 7.08579 11.25 7.5 11.25H8.5C8.91421 11.25 9.25 11.5858 9.25 12C9.25 12.4142 8.91421 12.75 8.5 12.75H7.5C6.25736 12.75 5.25 11.7426 5.25 10.5V9.5C5.25 8.25736 6.25736 7.25 7.5 7.25H8.5Z" fill="currentColor"/>
<path d="M13.5 7.25C13.9142 7.25 14.25 7.58579 14.25 8C14.25 8.41421 13.9142 8.75 13.5 8.75H12.5C12.0858 8.75 11.75 9.08579 11.75 9.5V10.5C11.75 10.9142 12.0858 11.25 12.5 11.25H13.5C13.9142 11.25 14.25 11.5858 14.25 12C14.25 12.4142 13.9142 12.75 13.5 12.75H12.5C11.2574 12.75 10.25 11.7426 10.25 10.5V9.5C10.25 8.25736 11.2574 7.25 12.5 7.25H13.5Z" fill="currentColor"/>
<path fill-rule="evenodd" clip-rule="evenodd" d="M15 4.25C16.5188 4.25 17.75 5.48122 17.75 7V13C17.75 14.5188 16.5188 15.75 15 15.75H5C3.48122 15.75 2.25 14.5188 2.25 13V7C2.25 5.48122 3.48122 4.25 5 4.25H15ZM5 5.75C4.30964 5.75 3.75 6.30964 3.75 7V13C3.75 13.6904 4.30964 14.25 5 14.25H15C15.6904 14.25 16.25 13.6904 16.25 13V7C16.25 6.30964 15.6904 5.75 15 5.75H5Z" fill="currentColor"/>
</svg>
