<svg width="20" height="20" viewBox="0 0 20 20" fill="none" xmlns="http://www.w3.org/2000/svg">
<path fill-rule="evenodd" clip-rule="evenodd" d="M10.4606 2.25001C11.5872 2.24825 12.6988 2.50826 13.708 3.00953C14.7174 3.51098 15.5967 4.24016 16.2765 5.13956C16.9563 6.03896 17.4181 7.08403 17.6256 8.1924C17.8331 9.30077 17.7805 10.4422 17.4721 11.5268C17.1637 12.6114 16.6078 13.6096 15.8482 14.4426C15.0886 15.2757 14.146 15.9208 13.0948 16.3273C12.0435 16.7337 10.9122 16.8903 9.79014 16.7846C8.80709 16.6921 7.85464 16.4005 6.99014 15.9292L3.32269 17.677C3.03606 17.8136 2.69447 17.755 2.46987 17.5305C2.24528 17.3061 2.18635 16.9645 2.32276 16.6778L4.06955 13.0062C3.51724 11.9926 3.21301 10.86 3.1847 9.70185C3.15299 8.4042 3.46884 7.12167 4.09952 5.98735C4.73021 4.85302 5.65276 3.90819 6.77152 3.25098C7.88993 2.59397 9.16365 2.24835 10.4606 2.25001ZM10.4606 2.25001L10.4618 2.25001L10.4607 3.00001L10.4594 2.25001L10.4606 2.25001ZM13.0406 4.35292C12.2393 3.95485 11.3566 3.74847 10.462 3.75001L10.4596 3.75001C9.43021 3.74852 8.41913 4.02277 7.53129 4.54433C6.64345 5.06589 5.91117 5.81578 5.41051 6.71625C4.90985 7.61673 4.65908 8.63493 4.68426 9.6652C4.70944 10.6955 5.00965 11.7002 5.55369 12.5751C5.68859 12.792 5.70379 13.0627 5.59405 13.2933L4.5853 15.4136L6.70238 14.4047C6.93321 14.2946 7.20418 14.3098 7.42129 14.4449C8.18106 14.9177 9.04012 15.2074 9.93076 15.2912C10.8214 15.3751 11.7193 15.2508 12.5539 14.9282C13.3884 14.6056 14.1367 14.0934 14.7398 13.4319C15.3429 12.7705 15.7844 11.9779 16.0293 11.1165C16.2742 10.2552 16.316 9.34864 16.1512 8.46837C15.9864 7.58811 15.6197 6.75821 15.0799 6.04404C14.5401 5.32988 13.842 4.75099 13.0406 4.35292Z" fill="currentColor"/>
</svg>
