<svg width="20" height="20" viewBox="0 0 20 20" fill="none" xmlns="http://www.w3.org/2000/svg">
<path fill-rule="evenodd" clip-rule="evenodd" d="M16.75 7C16.75 7.41421 16.4142 7.75 16 7.75L13 7.75C12.5858 7.75 12.25 7.41421 12.25 7V4C12.25 3.58579 12.5858 3.25 13 3.25C13.4142 3.25 13.75 3.58579 13.75 4V6.25L16 6.25C16.4142 6.25 16.75 6.58579 16.75 7Z" fill="currentColor"/>
<path fill-rule="evenodd" clip-rule="evenodd" d="M3.25 13C3.25 12.5858 3.58579 12.25 4 12.25H7C7.41421 12.25 7.75 12.5858 7.75 13V16C7.75 16.4142 7.41421 16.75 7 16.75C6.58579 16.75 6.25 16.4142 6.25 16V13.75H4C3.58579 13.75 3.25 13.4142 3.25 13Z" fill="currentColor"/>
<path fill-rule="evenodd" clip-rule="evenodd" d="M7 3.25C7.41421 3.25 7.75 3.58579 7.75 4V7C7.75 7.41421 7.41421 7.75 7 7.75L4 7.75C3.58579 7.75 3.25 7.41421 3.25 7C3.25 6.58579 3.58579 6.25 4 6.25H6.25L6.25 4C6.25 3.58579 6.58579 3.25 7 3.25Z" fill="currentColor"/>
<path fill-rule="evenodd" clip-rule="evenodd" d="M13 16.75C12.5858 16.75 12.25 16.4142 12.25 16V13C12.25 12.5858 12.5858 12.25 13 12.25H16C16.4142 12.25 16.75 12.5858 16.75 13C16.75 13.4142 16.4142 13.75 16 13.75H13.75V16C13.75 16.4142 13.4142 16.75 13 16.75Z" fill="currentColor"/>
</svg>
