<svg width="20" height="20" viewBox="0 0 20 20" fill="none" xmlns="http://www.w3.org/2000/svg">
<path fill-rule="evenodd" clip-rule="evenodd" d="M17.75 10C17.75 10.1989 17.671 10.3897 17.5303 10.5303L13.5303 14.5303C13.2374 14.8232 12.7626 14.8232 12.4697 14.5303C12.1768 14.2374 12.1768 13.7626 12.4697 13.4697L15.9393 10L12.4697 6.53033C12.1768 6.23744 12.1768 5.76256 12.4697 5.46967C12.7626 5.17678 13.2374 5.17678 13.5303 5.46967L17.5303 9.46967C17.671 9.61032 17.75 9.80109 17.75 10ZM7.53033 5.46967C7.82322 5.76256 7.82322 6.23744 7.53033 6.53033L4.06066 10L7.53033 13.4697C7.82322 13.7626 7.82322 14.2374 7.53033 14.5303C7.23744 14.8232 6.76256 14.8232 6.46967 14.5303L2.46967 10.5303C2.17678 10.2374 2.17678 9.76256 2.46967 9.46967L6.46967 5.46967C6.76256 5.17678 7.23744 5.17678 7.53033 5.46967Z" fill="currentColor"/>
</svg>
