<svg width="20" height="20" viewBox="0 0 20 20" fill="none" xmlns="http://www.w3.org/2000/svg">
<path d="M13 3.25C12.5858 3.25 12.25 3.58579 12.25 4C12.25 4.41421 12.5858 4.75 13 4.75H15.25V7C15.25 7.41421 15.5858 7.75 16 7.75C16.4142 7.75 16.75 7.41421 16.75 7V4C16.75 3.58579 16.4142 3.25 16 3.25H13Z" fill="currentColor"/>
<path d="M7 16.75C7.41421 16.75 7.75 16.4142 7.75 16C7.75 15.5858 7.41421 15.25 7 15.25H4.75L4.75 13C4.75 12.5858 4.41421 12.25 4 12.25C3.58579 12.25 3.25 12.5858 3.25 13V16C3.25 16.4142 3.58579 16.75 4 16.75H7Z" fill="currentColor"/>
<path d="M4 7.75C3.58579 7.75 3.25 7.41421 3.25 7V4C3.25 3.58579 3.58579 3.25 4 3.25H7C7.41421 3.25 7.75 3.58579 7.75 4C7.75 4.41421 7.41421 4.75 7 4.75H4.75L4.75 7C4.75 7.41421 4.41421 7.75 4 7.75Z" fill="currentColor"/>
<path d="M16.75 13C16.75 12.5858 16.4142 12.25 16 12.25C15.5858 12.25 15.25 12.5858 15.25 13V15.25H13C12.5858 15.25 12.25 15.5858 12.25 16C12.25 16.4142 12.5858 16.75 13 16.75H16C16.4142 16.75 16.75 16.4142 16.75 16V13Z" fill="currentColor"/>
</svg>
