<svg width="20" height="20" viewBox="0 0 20 20" fill="none" xmlns="http://www.w3.org/2000/svg">
<path d="M3.75 10C3.75 6.54822 6.54822 3.75 10 3.75C10.9599 3.75 11.8674 3.9659 12.6782 4.35108C13.0523 4.52881 13.4997 4.36959 13.6774 3.99545C13.8552 3.62131 13.696 3.17392 13.3218 2.99619C12.3141 2.51749 11.1873 2.25 10 2.25C5.71979 2.25 2.25 5.71979 2.25 10C2.25 14.2802 5.71979 17.75 10 17.75C14.2802 17.75 17.75 14.2802 17.75 10C17.75 9.58579 17.4142 9.25 17 9.25C16.5858 9.25 16.25 9.58579 16.25 10C16.25 13.4518 13.4518 16.25 10 16.25C6.54822 16.25 3.75 13.4518 3.75 10Z" fill="currentColor"/>
<path d="M17.0303 6.03033C17.3232 5.73744 17.3232 5.26256 17.0303 4.96967C16.7374 4.67678 16.2626 4.67678 15.9697 4.96967L9.5 11.4393L7.03033 8.96967C6.73744 8.67678 6.26256 8.67678 5.96967 8.96967C5.67678 9.26256 5.67678 9.73744 5.96967 10.0303L8.96967 13.0303C9.26256 13.3232 9.73744 13.3232 10.0303 13.0303L17.0303 6.03033Z" fill="currentColor"/>
</svg>
