<svg width="20" height="20" viewBox="0 0 20 20" fill="none" xmlns="http://www.w3.org/2000/svg">
<path fill-rule="evenodd" clip-rule="evenodd" d="M16.25 9.5V11C16.25 11.4142 16.5858 11.75 17 11.75C17.4142 11.75 17.75 11.4142 17.75 11V6.5C17.75 5.25736 16.7426 4.25 15.5 4.25H4.5C3.25736 4.25 2.25 5.25736 2.25 6.5V13.5C2.25 14.7426 3.25736 15.75 4.5 15.75H9C9.41421 15.75 9.75 15.4142 9.75 15C9.75 14.5858 9.41421 14.25 9 14.25H4.5C4.08579 14.25 3.75 13.9142 3.75 13.5L3.75 9.5H16.25ZM16.25 7.5V6.5C16.25 6.08579 15.9142 5.75 15.5 5.75L4.5 5.75C4.08579 5.75 3.75 6.08579 3.75 6.5V7.5H16.25Z" fill="currentColor"/>
<path d="M11.25 15C11.25 14.5858 11.5858 14.25 12 14.25H13.75V12.5C13.75 12.0858 14.0858 11.75 14.5 11.75C14.9142 11.75 15.25 12.0858 15.25 12.5V14.25H17C17.4142 14.25 17.75 14.5858 17.75 15C17.75 15.4142 17.4142 15.75 17 15.75H15.25V17.5C15.25 17.9142 14.9142 18.25 14.5 18.25C14.0858 18.25 13.75 17.9142 13.75 17.5V15.75H12C11.5858 15.75 11.25 15.4142 11.25 15Z" fill="currentColor"/>
</svg>
