<svg width="20" height="20" viewBox="0 0 20 20" fill="none" xmlns="http://www.w3.org/2000/svg">
<path d="M10 2.25C10.4142 2.25 10.75 2.58579 10.75 3V4.32126C12.1461 4.59426 12.9878 5.59176 13.2115 6.26283C13.3425 6.65579 13.1301 7.08053 12.7372 7.21151C12.3442 7.3425 11.9195 7.13013 11.7885 6.73717C11.7164 6.52094 11.1541 5.75 9.99999 5.75C9.45322 5.75 8.86134 5.86279 8.43173 6.13412C8.04936 6.37562 7.74999 6.76458 7.74999 7.5C7.74999 8.05719 8.1567 8.48983 8.8354 8.82918C9.1542 8.98858 9.48057 9.09815 9.73197 9.16799C9.85624 9.20251 9.95872 9.22636 10.0282 9.24126C10.0629 9.24869 10.0891 9.25384 10.1055 9.25693L10.1224 9.26004L10.1237 9.26028L10.1257 9.26061L10.1293 9.26122L10.1396 9.26303L10.1729 9.26914C10.2005 9.27434 10.2387 9.28189 10.286 9.29204C10.3806 9.3123 10.5125 9.34313 10.6695 9.38674C10.9806 9.47315 11.4042 9.61358 11.8354 9.82918C12.6567 10.2398 13.75 11.0572 13.75 12.5C13.75 13.7185 13.2752 14.5929 12.4785 15.124C11.9578 15.4711 11.3474 15.6392 10.75 15.7086V17C10.75 17.4142 10.4142 17.75 10 17.75C9.58579 17.75 9.25 17.4142 9.25 17V15.6799C8.74567 15.5895 8.24489 15.418 7.81129 15.2035C7.48243 15.0409 7.16893 14.8423 6.90924 14.6132C6.65771 14.3912 6.40892 14.0985 6.28848 13.7372C6.15749 13.3442 6.36986 12.9195 6.76282 12.7885C7.15578 12.6575 7.58052 12.8699 7.7115 13.2628C7.71606 13.2765 7.75477 13.3588 7.90167 13.4884C8.04043 13.6108 8.2363 13.7403 8.47619 13.859C8.96364 14.1 9.53763 14.25 9.99999 14.25C10.6903 14.25 11.2645 14.1306 11.6465 13.876C11.9748 13.6571 12.25 13.2815 12.25 12.5C12.25 11.9428 11.8433 11.5102 11.1646 11.1708C10.8458 11.0114 10.5194 10.9018 10.268 10.832C10.1437 10.7975 10.0413 10.7736 9.97175 10.7587C9.93708 10.7513 9.91084 10.7462 9.89448 10.7431L9.87758 10.74L9.87619 10.7397L9.87071 10.7388L9.86037 10.737L9.82709 10.7309C9.79952 10.7257 9.76129 10.7181 9.71394 10.708C9.61938 10.6877 9.48749 10.6569 9.33051 10.6133C9.01941 10.5268 8.59578 10.3864 8.16458 10.1708C7.34328 9.76017 6.24999 8.94281 6.24999 7.5C6.24999 6.23542 6.82562 5.37438 7.63075 4.86588C8.13866 4.5451 8.71403 4.37767 9.25 4.30211V3C9.25 2.58579 9.58579 2.25 10 2.25Z" fill="currentColor"/>
</svg>
