<svg width="20" height="20" viewBox="0 0 20 20" fill="none" xmlns="http://www.w3.org/2000/svg">
<path d="M9.46967 12.5303C9.76256 12.8232 10.2374 12.8232 10.5303 12.5303L13.5303 9.53033C13.8232 9.23744 13.8232 8.76256 13.5303 8.46967C13.2374 8.17678 12.7626 8.17678 12.4697 8.46967L10.75 10.1893L10.75 4C10.75 3.58579 10.4142 3.25 10 3.25C9.58579 3.25 9.25 3.58579 9.25 4L9.25 10.1893L7.53033 8.46967C7.23744 8.17678 6.76256 8.17678 6.46967 8.46967C6.17678 8.76256 6.17678 9.23744 6.46967 9.53033L9.46967 12.5303Z" fill="currentColor"/>
<path d="M4.75 14C4.75 13.5858 4.41421 13.25 4 13.25C3.58579 13.25 3.25 13.5858 3.25 14V14.5C3.25 15.7426 4.25736 16.75 5.5 16.75H14.5C15.7426 16.75 16.75 15.7426 16.75 14.5V14C16.75 13.5858 16.4142 13.25 16 13.25C15.5858 13.25 15.25 13.5858 15.25 14V14.5C15.25 14.9142 14.9142 15.25 14.5 15.25H5.5C5.08579 15.25 4.75 14.9142 4.75 14.5V14Z" fill="currentColor"/>
</svg>
