<svg width="20" height="20" viewBox="0 0 20 20" fill="none" xmlns="http://www.w3.org/2000/svg">
<path fill-rule="evenodd" clip-rule="evenodd" d="M2.24997 6.51102C2.24983 6.50224 2.24985 6.49345 2.25002 6.48465C2.25827 5.24908 3.26245 4.25 4.49997 4.25H15.5C16.7375 4.25 17.7417 5.24908 17.7499 6.48467C17.7501 6.49345 17.7501 6.50223 17.75 6.51101V13.5C17.75 14.7426 16.7426 15.75 15.5 15.75H4.49997C3.25733 15.75 2.24997 14.7426 2.24997 13.5V6.51102ZM3.74997 7.87375V13.5C3.74997 13.9142 4.08576 14.25 4.49997 14.25H15.5C15.9142 14.25 16.25 13.9142 16.25 13.5V7.87375L11.2167 11.1094C10.4755 11.5859 9.52443 11.5859 8.78326 11.1094L3.74997 7.87375ZM16.1619 6.14713C16.0357 5.91081 15.7866 5.75 15.5 5.75H4.49997C4.21332 5.75 3.96424 5.91081 3.838 6.14713L9.5944 9.84767C9.84146 10.0065 10.1585 10.0065 10.4055 9.84767L16.1619 6.14713Z" fill="currentColor"/>
</svg>
