<svg width="20" height="20" viewBox="0 0 20 20" fill="none" xmlns="http://www.w3.org/2000/svg">
<path fill-rule="evenodd" clip-rule="evenodd" d="M7.25 3C7.25 2.58579 6.91421 2.25 6.5 2.25C6.08579 2.25 5.75 2.58579 5.75 3V11C5.75 11.4142 6.08579 11.75 6.5 11.75C6.91421 11.75 7.25 11.4142 7.25 11V3ZM6.5 17C7.32843 17 8 16.3284 8 15.5C8 14.6716 7.32843 14 6.5 14C5.67157 14 5 14.6716 5 15.5C5 16.3284 5.67157 17 6.5 17ZM14.25 3C14.25 2.58579 13.9142 2.25 13.5 2.25C13.0858 2.25 12.75 2.58579 12.75 3V11C12.75 11.4142 13.0858 11.75 13.5 11.75C13.9142 11.75 14.25 11.4142 14.25 11V3ZM13.5 17C14.3284 17 15 16.3284 15 15.5C15 14.6716 14.3284 14 13.5 14C12.6716 14 12 14.6716 12 15.5C12 16.3284 12.6716 17 13.5 17Z" fill="currentColor"/>
</svg>
