<svg width="20" height="20" viewBox="0 0 20 20" fill="none" xmlns="http://www.w3.org/2000/svg">
<path d="M9 7H11V9H13V11H11V13H9V11H7V9H9V7Z" fill="currentColor"/>
<path fill-rule="evenodd" clip-rule="evenodd" d="M4.25 3.75C4.25 2.92157 4.92157 2.25 5.75 2.25H11.6893C12.0872 2.25 12.4687 2.40804 12.75 2.68934L15.3107 5.25C15.592 5.5313 15.75 5.91284 15.75 6.31066V16.25C15.75 17.0784 15.0784 17.75 14.25 17.75H5.75C4.92157 17.75 4.25 17.0784 4.25 16.25V3.75ZM11.6893 3.75L5.75 3.75V16.25H14.25V6.31066L11.6893 3.75Z" fill="currentColor"/>
</svg>
