<svg width="20" height="20" viewBox="0 0 20 20" fill="none" xmlns="http://www.w3.org/2000/svg">
<path d="M10 5.75C10.4142 5.75 10.75 6.08579 10.75 6.5V6.85812C10.871 6.89724 10.9889 6.94674 11.1027 7.00618C11.4524 7.18884 11.7489 7.45809 11.9723 7.78409C12.2065 8.12576 12.1193 8.59257 11.7777 8.82673C11.436 9.06089 10.9692 8.97374 10.735 8.63207C10.6434 8.49835 10.5295 8.39907 10.4082 8.33569C10.2875 8.27263 10.1598 8.24509 10.0348 8.25072C10.0236 8.25122 10.0123 8.25147 10.0011 8.25147C9.45162 8.25147 9.25 8.5979 9.25 8.75075C9.25 8.90416 9.4523 9.25083 10.0011 9.25083C11.1097 9.25083 12.25 10.023 12.25 11.2493C12.25 12.1958 11.5697 12.8716 10.75 13.1312V13.5C10.75 13.9142 10.4142 14.25 10 14.25C9.58579 14.25 9.25 13.9142 9.25 13.5V13.1419C9.12882 13.1027 9.01066 13.0531 8.89668 12.9936C8.54724 12.811 8.25076 12.5421 8.02723 12.2164C7.79284 11.8749 7.87967 11.408 8.22118 11.1736C8.5627 10.9392 9.02956 11.026 9.26396 11.3676C9.35575 11.5013 9.46977 11.6006 9.59123 11.6641C9.71208 11.7272 9.83986 11.7548 9.96508 11.7493C9.97611 11.7488 9.98714 11.7486 9.99818 11.7486C10.5483 11.7486 10.75 11.4014 10.75 11.2493C10.75 11.0963 10.5494 10.7508 10.0011 10.7508C8.89301 10.7508 7.75 9.97825 7.75 8.75075C7.75 7.80344 8.43054 7.12797 9.25 6.86864V6.5C9.25 6.08579 9.58579 5.75 10 5.75Z" fill="currentColor"/>
<path fill-rule="evenodd" clip-rule="evenodd" d="M6 18H14C15.1046 18 16 17.1046 16 16V6.82843C16 6.29799 15.7893 5.78929 15.4142 5.41421L12.5858 2.58579C12.2107 2.21071 11.702 2 11.1716 2H6C4.89543 2 4 2.89543 4 4V16C4 17.1046 4.89543 18 6 18ZM14.5 16C14.5 16.2761 14.2761 16.5 14 16.5H6C5.72386 16.5 5.5 16.2761 5.5 16V4C5.5 3.72386 5.72386 3.5 6 3.5H11.1716C11.3042 3.5 11.4314 3.55268 11.5251 3.64645L14.3536 6.47487C14.4473 6.56864 14.5 6.69582 14.5 6.82843V16Z" fill="currentColor"/>
</svg>
