<svg width="20" height="20" viewBox="0 0 20 20" fill="none" xmlns="http://www.w3.org/2000/svg">
<path d="M2.25 5C2.25 4.58579 2.58579 4.25 3 4.25H17C17.4142 4.25 17.75 4.58579 17.75 5C17.75 5.41421 17.4142 5.75 17 5.75H3C2.58579 5.75 2.25 5.41421 2.25 5Z" fill="currentColor"/>
<path d="M5.25 10C5.25 9.58579 5.58579 9.25 6 9.25H14C14.4142 9.25 14.75 9.58579 14.75 10C14.75 10.4142 14.4142 10.75 14 10.75H6C5.58579 10.75 5.25 10.4142 5.25 10Z" fill="currentColor"/>
<path d="M9 14.25C8.58579 14.25 8.25 14.5858 8.25 15C8.25 15.4142 8.58579 15.75 9 15.75H11C11.4142 15.75 11.75 15.4142 11.75 15C11.75 14.5858 11.4142 14.25 11 14.25H9Z" fill="currentColor"/>
</svg>
