<svg width="20" height="20" viewBox="0 0 20 20" fill="none" xmlns="http://www.w3.org/2000/svg">
<path fill-rule="evenodd" clip-rule="evenodd" d="M11.2225 2.28375C11.5362 2.38119 11.75 2.67147 11.75 2.99999V8.24999H13.0742C14.282 8.24999 14.9945 9.60454 14.3103 10.5998L9.61805 17.4249C9.43194 17.6956 9.0913 17.8137 8.77756 17.7162C8.46383 17.6188 8.25002 17.3285 8.25002 17V11.75H6.9258C5.71803 11.75 5.0055 10.3955 5.68973 9.4002L10.382 2.5751C10.5681 2.30438 10.9087 2.1863 11.2225 2.28375ZM10.25 5.41476L6.9258 10.25H9.00002C9.41424 10.25 9.75002 10.5858 9.75002 11V14.5852L13.0742 9.74999H11C10.5858 9.74999 10.25 9.41421 10.25 8.99999V5.41476Z" fill="currentColor"/>
</svg>
