<svg width="20" height="20" viewBox="0 0 20 20" fill="none" xmlns="http://www.w3.org/2000/svg">
<path fill-rule="evenodd" clip-rule="evenodd" d="M10 6.25C7.92893 6.25 6.25 7.92893 6.25 10C6.25 12.0711 7.92893 13.75 10 13.75C12.0711 13.75 13.75 12.0711 13.75 10C13.75 7.92893 12.0711 6.25 10 6.25ZM7.75 10C7.75 8.75736 8.75736 7.75 10 7.75C11.2426 7.75 12.25 8.75736 12.25 10C12.25 11.2426 11.2426 12.25 10 12.25C8.75736 12.25 7.75 11.2426 7.75 10Z" fill="currentColor"/>
<path fill-rule="evenodd" clip-rule="evenodd" d="M6.65157 1.91605C5.83131 2.25581 5.39639 3.06283 5.38714 3.85709L5.38375 4.14834C5.37585 4.8273 4.82736 5.37579 4.1484 5.38369L3.85782 5.38707C3.06381 5.39631 2.25609 5.83073 1.91611 6.65151C1.57613 7.4723 1.8401 8.35062 2.39502 8.91861L2.59809 9.12646C3.07261 9.61215 3.07261 10.3878 2.59809 10.8735L2.39455 11.0819C1.83945 11.65 1.57634 12.5282 1.91611 13.3485C2.25587 14.1687 3.06289 14.6037 3.85715 14.6129L4.1484 14.6163C4.82737 14.6242 5.37585 15.1727 5.38375 15.8517L5.38714 16.1422C5.39637 16.9362 5.83079 17.744 6.65157 18.0839C7.47236 18.4239 8.35068 18.16 8.91867 17.605L9.12652 17.402C9.61222 16.9274 10.3879 16.9274 10.8736 17.402L11.0819 17.6055C11.6501 18.1606 12.5283 18.4237 13.3485 18.0839C14.1688 17.7442 14.6037 16.9372 14.613 16.1429L14.6164 15.8516C14.6243 15.1727 15.1727 14.6242 15.8517 14.6163L16.1423 14.6129C16.9363 14.6037 17.744 14.1693 18.084 13.3485C18.424 12.5277 18.16 11.6494 17.6051 11.0814L17.402 10.8735C16.9275 10.3878 16.9275 9.61215 17.402 9.12646L17.6056 8.91813C18.1607 8.34996 18.4238 7.47178 18.084 6.65151C17.7442 5.83125 16.9372 5.39632 16.143 5.38708L15.8517 5.38369C15.1727 5.37579 14.6243 4.82731 14.6164 4.14834L14.613 3.85776C14.6037 3.06375 14.1693 2.25603 13.3485 1.91605C12.5277 1.57607 11.6494 1.84003 11.0814 2.39495L10.8736 2.59803C10.3879 3.07255 9.61221 3.07255 9.12652 2.59803L8.91819 2.39449C8.35002 1.83939 7.47184 1.57628 6.65157 1.91605ZM6.88704 3.87455C6.89042 3.5843 7.04383 3.37716 7.2256 3.30187C7.40736 3.22658 7.66232 3.26457 7.86994 3.46742L8.07828 3.67096C9.1468 4.7149 10.8533 4.7149 11.9218 3.67096L12.1297 3.46788C12.3378 3.26461 12.5929 3.22665 12.7745 3.30187C12.9561 3.37708 13.1097 3.58435 13.1131 3.87522L13.1165 4.16579C13.1338 5.65953 14.3405 6.86621 15.8343 6.88359L16.1255 6.88698C16.4157 6.89036 16.6229 7.04377 16.6982 7.22554C16.7735 7.4073 16.7355 7.66225 16.5326 7.86988L16.3291 8.07822C15.2851 9.14674 15.2851 10.8532 16.3291 11.9218L16.5322 12.1296C16.7354 12.3377 16.7734 12.5929 16.6982 12.7744C16.623 12.956 16.4157 13.1096 16.1248 13.113L15.8343 13.1164C14.3405 13.1338 13.1338 14.3405 13.1165 15.8342L13.1131 16.1254C13.1097 16.4157 12.9563 16.6228 12.7745 16.6981C12.5927 16.7734 12.3378 16.7354 12.1302 16.5326L11.9218 16.329C10.8533 15.2851 9.1468 15.2851 8.07828 16.329L7.87042 16.5321C7.66236 16.7354 7.40718 16.7733 7.2256 16.6981C7.04402 16.6229 6.89042 16.4156 6.88703 16.1248L6.88365 15.8342C6.86627 14.3405 5.65959 13.1338 4.16585 13.1164L3.87461 13.113C3.58436 13.1096 3.37722 12.9562 3.30193 12.7744C3.22664 12.5927 3.26463 12.3377 3.46748 12.1301L3.67102 11.9218C4.71496 10.8532 4.71496 9.14674 3.67102 8.07822L3.46795 7.87036C3.26467 7.6623 3.22671 7.40712 3.30193 7.22554C3.37714 7.04396 3.58441 6.89036 3.87528 6.88697L4.16585 6.88359C5.65959 6.86621 6.86627 5.65953 6.88365 4.16579L6.88704 3.87455Z" fill="currentColor"/>
</svg>
