<svg width="20" height="20" viewBox="0 0 20 20" fill="none" xmlns="http://www.w3.org/2000/svg">
<path fill-rule="evenodd" clip-rule="evenodd" d="M10 2C14.4183 2 18 5.58172 18 10C18 14.4183 14.4183 18 10 18C5.58172 18 2 14.4183 2 10C2 5.58172 5.58172 2 10 2ZM12.6914 15.9184C14.0984 15.2775 15.2369 14.1496 15.8913 12.75H13.7574C13.5334 13.974 13.1641 15.0579 12.6914 15.9184ZM10 16.5C10.2303 16.5 10.8427 16.2743 11.4868 14.986C11.7928 14.3741 12.0504 13.6156 12.2293 12.75H7.77067C7.94959 13.6156 8.20725 14.3741 8.51321 14.986C9.15734 16.2743 9.76967 16.5 10 16.5ZM6.2426 12.75C6.46661 13.974 6.83588 15.0579 7.30864 15.9184C5.90156 15.2775 4.7631 14.1496 4.10868 12.75H6.2426ZM7.55361 11.25H12.4464C12.4814 10.8472 12.5 10.4296 12.5 10C12.5 9.57044 12.4814 9.15284 12.4464 8.75H7.55361C7.51859 9.15284 7.5 9.57044 7.5 10C7.5 10.4296 7.51859 10.8472 7.55361 11.25ZM6.04854 8.75C6.01659 9.15729 6 9.57477 6 10C6 10.4252 6.01659 10.8427 6.04854 11.25H3.62008C3.54128 10.8455 3.5 10.4276 3.5 10C3.5 9.57243 3.54128 9.15451 3.62008 8.75H6.04854ZM7.77067 7.25H12.2293C12.0504 6.38438 11.7928 5.6259 11.4868 5.01397C10.8427 3.72571 10.2303 3.5 10 3.5C9.76967 3.5 9.15734 3.72571 8.51321 5.01397C8.20725 5.6259 7.94959 6.38438 7.77067 7.25ZM7.30864 4.08162C6.83588 4.94207 6.46661 6.02603 6.2426 7.25H4.10868C4.7631 5.85044 5.90156 4.72251 7.30864 4.08162ZM12.6914 4.08162C14.0984 4.72251 15.2369 5.85044 15.8913 7.25H13.7574C13.5334 6.02603 13.1641 4.94207 12.6914 4.08162ZM13.9515 8.75H16.3799C16.4587 9.15451 16.5 9.57243 16.5 10C16.5 10.4276 16.4587 10.8455 16.3799 11.25H13.9515C13.9834 10.8427 14 10.4252 14 10C14 9.57477 13.9834 9.15729 13.9515 8.75Z" fill="currentColor"/>
</svg>
