<svg width="20" height="20" viewBox="0 0 20 20" fill="none" xmlns="http://www.w3.org/2000/svg">
<path fill-rule="evenodd" clip-rule="evenodd" d="M3.21964 5.21967C4.75518 3.68414 7.24477 3.68414 8.7803 5.21967L9.99997 6.43934L11.2196 5.21967C12.7552 3.68414 15.2448 3.68414 16.7803 5.21967C18.3158 6.7552 18.3158 9.2448 16.7803 10.7803L10.5303 17.0303C10.2374 17.3232 9.76254 17.3232 9.46964 17.0303L3.21964 10.7803C1.68411 9.2448 1.68411 6.7552 3.21964 5.21967ZM4.2803 6.28033C3.33056 7.23008 3.33056 8.76992 4.2803 9.71967L9.99997 15.4393L15.7196 9.71967C16.6694 8.76992 16.6694 7.23008 15.7196 6.28033C14.7699 5.33058 13.2301 5.33058 12.2803 6.28033L10.5303 8.03033C10.2374 8.32322 9.76254 8.32322 9.46964 8.03033L7.71964 6.28033C6.7699 5.33058 5.23005 5.33058 4.2803 6.28033Z" fill="currentColor"/>
</svg>
