<svg width="20" height="20" viewBox="0 0 20 20" fill="none" xmlns="http://www.w3.org/2000/svg">
<path d="M8.78037 5.21964C7.24484 3.68411 4.75525 3.68411 3.21971 5.21964C2.29389 6.14547 1.92688 7.41858 2.11659 8.61724C2.18134 9.02636 2.56549 9.30553 2.97461 9.24078C3.38373 9.17603 3.6629 8.79188 3.59815 8.38276C3.48026 7.6379 3.70837 6.85231 4.28037 6.2803C5.23012 5.33056 6.76997 5.33056 7.71971 6.2803L9.46971 8.0303C9.76261 8.3232 10.2375 8.3232 10.5304 8.0303L12.2804 6.28031C13.2301 5.33056 14.77 5.33056 15.7197 6.2803C16.6695 7.23005 16.6695 8.7699 15.7197 9.71964L9.99919 15.4402C9.70469 15.1771 9.25243 15.1869 8.96971 15.4696C8.67682 15.7625 8.67682 16.2374 8.96971 16.5303L9.46971 17.0303C9.61037 17.171 9.80113 17.25 10 17.25C10.199 17.25 10.3897 17.171 10.5304 17.0303L16.7804 10.7803C18.3159 9.24477 18.3159 6.75518 16.7804 5.21964C15.2448 3.68411 12.7552 3.68411 11.2197 5.21965L10 6.43931L8.78037 5.21964Z" fill="currentColor"/>
<path d="M6.27298 11.5247L6.45173 10.8991L7.08491 13.4318C7.32021 14.373 8.62322 14.4614 8.98353 13.5606L9.5078 12.2499H11C11.4142 12.2499 11.75 11.9142 11.75 11.4999C11.75 11.0857 11.4142 10.7499 11 10.7499H9.16929C8.76038 10.7499 8.39267 10.9989 8.24081 11.3786L8.16509 11.5679L7.45407 8.72378C7.20589 7.73106 5.80352 7.7077 5.5224 8.6916L4.9343 10.7499H3.00003C2.58582 10.7499 2.25003 11.0857 2.25003 11.4999C2.25003 11.9142 2.58582 12.2499 3.00003 12.2499H5.31146C5.75794 12.2499 6.15032 11.954 6.27298 11.5247Z" fill="currentColor"/>
</svg>
