<svg width="20" height="20" viewBox="0 0 20 20" fill="none" xmlns="http://www.w3.org/2000/svg">
<path d="M16.25 15V7.51465C16.25 7.43407 16.211 7.35847 16.1455 7.31152L10.1455 3.02539C10.0586 2.9633 9.94142 2.96331 9.85449 3.02539L3.85449 7.31152C3.78897 7.35847 3.75 7.43403 3.75 7.51465V15C3.75 15.1381 3.86193 15.25 4 15.25H7.25V12C7.25 10.4812 8.48122 9.25 10 9.25C11.5188 9.25 12.75 10.4812 12.75 12V15.25H16C16.138 15.2499 16.25 15.138 16.25 15ZM17.75 15C17.75 15.9664 16.9664 16.7499 16 16.75H12.75C11.9216 16.75 11.25 16.0784 11.25 15.25V12C11.25 11.3096 10.6904 10.75 10 10.75C9.30964 10.75 8.75 11.3096 8.75 12V15.25C8.75 16.0784 8.07843 16.75 7.25 16.75H4C3.0335 16.75 2.25 15.9665 2.25 15V7.51465C2.25 6.94964 2.52276 6.41934 2.98242 6.09082L8.98242 1.80469C9.59077 1.37014 10.4082 1.37032 11.0166 1.80469L17.0166 6.09082C17.4765 6.41931 17.75 6.94948 17.75 7.51465V15Z" fill="currentColor"/>
</svg>
