<svg width="20" height="20" viewBox="0 0 20 20" fill="none" xmlns="http://www.w3.org/2000/svg">
<path d="M10 6C10.8284 6 11.5 5.32843 11.5 4.5C11.5 3.67157 10.8284 3 10 3C9.17157 3 8.5 3.67157 8.5 4.5C8.5 5.32843 9.17157 6 10 6Z" fill="currentColor"/>
<path d="M8.5 8.25C8.08579 8.25 7.75 8.58579 7.75 9C7.75 9.41421 8.08579 9.75 8.5 9.75H9C9.13807 9.75 9.25 9.86193 9.25 10V15C9.25 15.9665 10.0335 16.75 11 16.75H11.5C11.9142 16.75 12.25 16.4142 12.25 16C12.25 15.5858 11.9142 15.25 11.5 15.25H11C10.8619 15.25 10.75 15.1381 10.75 15V10C10.75 9.0335 9.9665 8.25 9 8.25H8.5Z" fill="currentColor"/>
</svg>
