<svg width="20" height="20" viewBox="0 0 20 20" fill="none" xmlns="http://www.w3.org/2000/svg">
<path d="M6.625 6.75H5.125V8.25H6.625V6.75Z" fill="currentColor"/>
<path d="M7.875 6.75H9.375V8.25H7.875V6.75Z" fill="currentColor"/>
<path d="M12.125 6.75H10.625V8.25H12.125V6.75Z" fill="currentColor"/>
<path d="M13.375 6.75H14.875V8.25H13.375V6.75Z" fill="currentColor"/>
<path d="M6.625 9.25H5.125V10.75H6.625V9.25Z" fill="currentColor"/>
<path d="M7.875 9.25H9.375V10.75H7.875V9.25Z" fill="currentColor"/>
<path d="M12.125 9.25H10.625V10.75H12.125V9.25Z" fill="currentColor"/>
<path d="M13.375 9.25H14.875V10.75H13.375V9.25Z" fill="currentColor"/>
<path d="M14 11.75H6V13.25H14V11.75Z" fill="currentColor"/>
<path fill-rule="evenodd" clip-rule="evenodd" d="M4.5 4.25C3.25736 4.25 2.25 5.25736 2.25 6.5V13.5C2.25 14.7426 3.25736 15.75 4.5 15.75H15.5C16.7426 15.75 17.75 14.7426 17.75 13.5V6.5C17.75 5.25736 16.7426 4.25 15.5 4.25H4.5ZM3.75 6.5C3.75 6.08579 4.08579 5.75 4.5 5.75H15.5C15.9142 5.75 16.25 6.08579 16.25 6.5V13.5C16.25 13.9142 15.9142 14.25 15.5 14.25H4.5C4.08579 14.25 3.75 13.9142 3.75 13.5V6.5Z" fill="currentColor"/>
</svg>
