<svg width="20" height="20" viewBox="0 0 20 20" fill="none" xmlns="http://www.w3.org/2000/svg">
<path fill-rule="evenodd" clip-rule="evenodd" d="M7.30366 2.72146C7.41756 2.43671 7.69334 2.25 8.00002 2.25H13C13.2539 2.25 13.4905 2.37844 13.6289 2.59131C13.7672 2.80419 13.7885 3.0726 13.6854 3.3046L12.1541 6.75H13.9253C14.9881 6.75 15.566 7.99221 14.8814 8.80517L7.5737 17.4831C7.3505 17.7482 6.97479 17.8258 6.66481 17.6709C6.35484 17.5161 6.19131 17.169 6.26923 16.8314L7.55723 11.25H5.73854C4.85421 11.25 4.24951 10.3568 4.57794 9.53576L7.30366 2.72146ZM8.5078 3.75L6.1078 9.75H8.50002C8.72858 9.75 8.94467 9.85422 9.08696 10.0331C9.22924 10.212 9.28221 10.4459 9.23081 10.6686L8.43041 14.1371L13.3879 8.25H11C10.7461 8.25 10.5095 8.12156 10.3712 7.90869C10.2328 7.69581 10.2116 7.4274 10.3147 7.1954L11.8459 3.75H8.5078Z" fill="currentColor"/>
</svg>
