<svg width="20" height="20" viewBox="0 0 20 20" fill="none" xmlns="http://www.w3.org/2000/svg">
<path d="M4 4.75C3.58579 4.75 3.25 5.08579 3.25 5.5C3.25 5.91421 3.58579 6.25 4 6.25H16C16.4142 6.25 16.75 5.91421 16.75 5.5C16.75 5.08579 16.4142 4.75 16 4.75H4Z" fill="currentColor"/>
<path d="M4 7.75C3.58579 7.75 3.25 8.08579 3.25 8.5C3.25 8.91421 3.58579 9.25 4 9.25H16C16.4142 9.25 16.75 8.91421 16.75 8.5C16.75 8.08579 16.4142 7.75 16 7.75H4Z" fill="currentColor"/>
<path d="M3.25 11.5C3.25 11.0858 3.58579 10.75 4 10.75H16C16.4142 10.75 16.75 11.0858 16.75 11.5C16.75 11.9142 16.4142 12.25 16 12.25H4C3.58579 12.25 3.25 11.9142 3.25 11.5Z" fill="currentColor"/>
<path d="M4 13.75C3.58579 13.75 3.25 14.0858 3.25 14.5C3.25 14.9142 3.58579 15.25 4 15.25H12C12.4142 15.25 12.75 14.9142 12.75 14.5C12.75 14.0858 12.4142 13.75 12 13.75H4Z" fill="currentColor"/>
</svg>
