<svg width="20" height="20" viewBox="0 0 20 20" fill="none" xmlns="http://www.w3.org/2000/svg">
<path d="M16.7079 4.24778C16.8447 3.85683 16.6387 3.42896 16.2478 3.29213C15.8568 3.15529 15.4289 3.3613 15.2921 3.75226L13.7327 8.20765L12.6269 7.85661C12.3015 7.7533 11.9474 7.88281 11.7654 8.17167L10.2744 10.5384L9.02694 10.1423C8.81553 10.0752 8.58525 10.1051 8.398 10.224L6.598 11.3669C6.24831 11.5889 6.14482 12.0523 6.36684 12.402C6.58887 12.7517 7.05233 12.8552 7.40201 12.6332L8.9066 11.6779L10.3731 12.1434C10.6985 12.2467 11.0526 12.1172 11.2346 11.8284L12.7256 9.46169L13.9731 9.85772C14.3597 9.98047 14.7739 9.77353 14.9079 9.39064L16.7079 4.24778Z" fill="currentColor"/>
<path d="M4.75 4C4.75 3.58579 4.41421 3.25 4 3.25C3.58579 3.25 3.25 3.58579 3.25 4V15.25C3.25 16.0784 3.92157 16.75 4.75 16.75H16C16.4142 16.75 16.75 16.4142 16.75 16C16.75 15.5858 16.4142 15.25 16 15.25H4.75V4Z" fill="currentColor"/>
</svg>
