<svg width="20" height="20" viewBox="0 0 20 20" fill="none" xmlns="http://www.w3.org/2000/svg">
<path d="M7 6.25C6.58579 6.25 6.25 6.58579 6.25 7C6.25 7.41421 6.58579 7.75 7 7.75H13C13.4142 7.75 13.75 7.41421 13.75 7C13.75 6.58579 13.4142 6.25 13 6.25H7Z" fill="currentColor"/>
<path d="M6.25 10C6.25 9.58579 6.58579 9.25 7 9.25H13C13.4142 9.25 13.75 9.58579 13.75 10C13.75 10.4142 13.4142 10.75 13 10.75H7C6.58579 10.75 6.25 10.4142 6.25 10Z" fill="currentColor"/>
<path d="M7 12.25C6.58579 12.25 6.25 12.5858 6.25 13C6.25 13.4142 6.58579 13.75 7 13.75H11C11.4142 13.75 11.75 13.4142 11.75 13C11.75 12.5858 11.4142 12.25 11 12.25H7Z" fill="currentColor"/>
<path fill-rule="evenodd" clip-rule="evenodd" d="M5.5 3.25C4.25736 3.25 3.25 4.25736 3.25 5.5V14.5C3.25 15.7426 4.25736 16.75 5.5 16.75H14.5C15.7426 16.75 16.75 15.7426 16.75 14.5V5.5C16.75 4.25736 15.7426 3.25 14.5 3.25H5.5ZM4.75 5.5C4.75 5.08579 5.08579 4.75 5.5 4.75H14.5C14.9142 4.75 15.25 5.08579 15.25 5.5V14.5C15.25 14.9142 14.9142 15.25 14.5 15.25H5.5C5.08579 15.25 4.75 14.9142 4.75 14.5V5.5Z" fill="currentColor"/>
</svg>
