<svg width="20" height="20" viewBox="0 0 20 20" fill="none" xmlns="http://www.w3.org/2000/svg">
<path fill-rule="evenodd" clip-rule="evenodd" d="M4.25 8.75C4.25 7.92157 4.92157 7.25 5.75 7.25H14.25C15.0784 7.25 15.75 7.92157 15.75 8.75V16.25C15.75 17.0784 15.0784 17.75 14.25 17.75H5.75C4.92157 17.75 4.25 17.0784 4.25 16.25V8.75ZM14.25 8.75H5.75V16.25H14.25V8.75Z" fill="currentColor"/>
<path d="M11.5 12.5C11.5 13.3284 10.8284 14 10 14C9.17157 14 8.5 13.3284 8.5 12.5C8.5 11.6716 9.17157 11 10 11C10.8284 11 11.5 11.6716 11.5 12.5Z" fill="currentColor"/>
<path fill-rule="evenodd" clip-rule="evenodd" d="M10 2.75C8.75736 2.75 7.75 3.75736 7.75 5H6.25C6.25 2.92893 7.92893 1.25 10 1.25C12.0711 1.25 13.75 2.92893 13.75 5V8H12.25V5C12.25 3.75736 11.2426 2.75 10 2.75Z" fill="currentColor"/>
</svg>
