<svg width="20" height="20" viewBox="0 0 20 20" fill="none" xmlns="http://www.w3.org/2000/svg">
<path fill-rule="evenodd" clip-rule="evenodd" d="M12 2.25C11.5858 2.25 11.25 2.58579 11.25 3V6.25H6C3.92893 6.25 2.25 7.92893 2.25 10V14.9398C2.25 15.3873 2.61271 15.75 3.06015 15.75H8.93985C8.95011 15.75 8.96033 15.7498 8.97051 15.7494C8.98029 15.7498 8.99012 15.75 9 15.75H16.25C17.0784 15.75 17.75 15.0784 17.75 14.25V10C17.75 8.36606 16.7054 6.97801 15.2499 6.46358C14.8594 6.32554 14.4309 6.53023 14.2929 6.92077C14.1548 7.31131 14.3595 7.7398 14.7501 7.87784C15.625 8.18707 16.25 9.02151 16.25 10V14.25H9.75V10C9.75 9.1558 9.47104 8.37675 9.00027 7.75H11.25V11C11.25 11.4142 11.5858 11.75 12 11.75C12.4142 11.75 12.75 11.4142 12.75 11V7V4.75H15C15.4142 4.75 15.75 4.41421 15.75 4V3C15.75 2.58579 15.4142 2.25 15 2.25H12ZM3.75 10C3.75 8.75736 4.75736 7.75 6 7.75C7.24264 7.75 8.25 8.75736 8.25 10V14.25H3.75V10Z" fill="currentColor"/>
</svg>
