<svg width="20" height="20" viewBox="0 0 20 20" fill="none" xmlns="http://www.w3.org/2000/svg">
<path fill-rule="evenodd" clip-rule="evenodd" d="M7.25 5C7.25 3.48122 8.48122 2.25 10 2.25C11.5188 2.25 12.75 3.48122 12.75 5V10C12.75 11.5188 11.5188 12.75 10 12.75C8.48122 12.75 7.25 11.5188 7.25 10V5ZM10 3.75C9.30964 3.75 8.75 4.30964 8.75 5V10C8.75 10.6904 9.30964 11.25 10 11.25C10.6904 11.25 11.25 10.6904 11.25 10V5C11.25 4.30964 10.6904 3.75 10 3.75Z" fill="currentColor"/>
<path d="M9.25 15.7015V17C9.25 17.4142 9.58579 17.75 10 17.75C10.4142 17.75 10.75 17.4142 10.75 17V15.7015C13.5713 15.334 15.75 12.9214 15.75 10V9C15.75 8.58579 15.4142 8.25 15 8.25C14.5858 8.25 14.25 8.58579 14.25 9V10C14.25 12.3472 12.3472 14.25 10 14.25C7.65279 14.25 5.75 12.3472 5.75 10V9C5.75 8.58579 5.41421 8.25 5 8.25C4.58579 8.25 4.25 8.58579 4.25 9V10C4.25 12.9214 6.42873 15.334 9.25 15.7015Z" fill="currentColor"/>
</svg>
