<svg width="20" height="20" viewBox="0 0 20 20" fill="none" xmlns="http://www.w3.org/2000/svg">
<path d="M10 2.25C9.23017 2.25 8.5331 2.56731 8.03478 3.07635C7.74502 3.37235 7.75007 3.84719 8.04607 4.13695C8.34206 4.42671 8.81691 4.42166 9.10667 4.12567C9.33445 3.89298 9.64985 3.75 10 3.75C10.6904 3.75 11.25 4.30964 11.25 5V7.03029C11.25 7.4445 11.5858 7.78029 12 7.78029C12.4142 7.78029 12.75 7.4445 12.75 7.03029V5C12.75 3.48122 11.5188 2.25 10 2.25Z" fill="currentColor"/>
<path fill-rule="evenodd" clip-rule="evenodd" d="M4.53033 2.46967L16.5303 14.4697C16.8232 14.7626 16.8232 15.2374 16.5303 15.5303C16.2374 15.8232 15.7626 15.8232 15.4697 15.5303L14.0354 14.096C13.1657 14.9529 12.0233 15.5355 10.75 15.7015V17C10.75 17.4142 10.4142 17.75 10 17.75C9.58579 17.75 9.25 17.4142 9.25 17V15.7015C6.42873 15.334 4.25 12.9214 4.25 10V9C4.25 8.58579 4.58579 8.25 5 8.25C5.41421 8.25 5.75 8.58579 5.75 9V10C5.75 12.3472 7.65279 14.25 10 14.25C11.1579 14.25 12.2075 13.7875 12.9748 13.0354L11.9139 11.9746C11.4193 12.4541 10.7445 12.75 10 12.75C8.48122 12.75 7.25 11.5188 7.25 10V7.31066L3.46967 3.53033C3.17678 3.23744 3.17678 2.76256 3.46967 2.46967C3.76256 2.17678 4.23744 2.17678 4.53033 2.46967ZM10 11.25C10.3292 11.25 10.6294 11.1228 10.8531 10.9138L8.75 8.81066V10C8.75 10.6904 9.30964 11.25 10 11.25Z" fill="currentColor"/>
<path d="M15.75 9C15.75 8.58579 15.4142 8.25 15 8.25C14.5858 8.25 14.25 8.58579 14.25 9V10C14.25 10.4142 14.5858 10.75 15 10.75C15.4142 10.75 15.75 10.4142 15.75 10V9Z" fill="currentColor"/>
</svg>
