<svg width="20" height="20" viewBox="0 0 20 20" fill="none" xmlns="http://www.w3.org/2000/svg">
<path d="M6.25 2.25C5.42157 2.25 4.75 2.92157 4.75 3.75V16.25C4.75 17.0784 5.42157 17.75 6.25 17.75H6.5C6.91421 17.75 7.25 17.4142 7.25 17C7.25 16.5858 6.91421 16.25 6.5 16.25H6.25V3.75L12.75 3.75V9C12.75 9.41421 13.0858 9.75 13.5 9.75C13.9142 9.75 14.25 9.41421 14.25 9V3.75C14.25 2.92157 13.5784 2.25 12.75 2.25H6.25Z" fill="currentColor"/>
<path d="M9 4.75C8.58579 4.75 8.25 5.08579 8.25 5.5C8.25 5.91421 8.58579 6.25 9 6.25H10C10.4142 6.25 10.75 5.91421 10.75 5.5C10.75 5.08579 10.4142 4.75 10 4.75H9Z" fill="currentColor"/>
<path fill-rule="evenodd" clip-rule="evenodd" d="M8.75 12.75C8.75 11.9216 9.42157 11.25 10.25 11.25H13.75C14.5784 11.25 15.25 11.9216 15.25 12.75V13.125L16.7764 12.3618C17.1088 12.1956 17.5 12.4373 17.5 12.809V16.191C17.5 16.5627 17.1088 16.8044 16.7764 16.6382L15.25 15.875V16.25C15.25 17.0784 14.5784 17.75 13.75 17.75H10.25C9.42157 17.75 8.75 17.0784 8.75 16.25V12.75ZM13.75 12.75H10.25V16.25H13.75V12.75Z" fill="currentColor"/>
</svg>
