<svg width="20" height="20" viewBox="0 0 20 20" fill="none" xmlns="http://www.w3.org/2000/svg">
<path fill-rule="evenodd" clip-rule="evenodd" d="M10 3.75C13.4518 3.75 16.25 6.54822 16.25 10C16.25 11.4556 15.7524 12.795 14.918 13.8573L6.14266 5.082C7.20499 4.24761 8.54439 3.75 10 3.75ZM5.082 6.14266L13.8573 14.918C12.795 15.7524 11.4556 16.25 10 16.25C6.54822 16.25 3.75 13.4518 3.75 10C3.75 8.54439 4.24761 7.20499 5.082 6.14266ZM17.75 10C17.75 5.71979 14.2802 2.25 10 2.25C5.71979 2.25 2.25 5.71979 2.25 10C2.25 14.2802 5.71979 17.75 10 17.75C14.2802 17.75 17.75 14.2802 17.75 10Z" fill="currentColor"/>
</svg>
