<svg width="20" height="20" viewBox="0 0 20 20" fill="none" xmlns="http://www.w3.org/2000/svg">
<path d="M9 7H11V9H13V11H11V13H9V11H7V9H9V7Z" fill="currentColor"/>
<path fill-rule="evenodd" clip-rule="evenodd" d="M3.25 4.75C3.25 3.92157 3.92157 3.25 4.75 3.25H11.6893C12.0872 3.25 12.4687 3.40804 12.75 3.68934L16.3107 7.25C16.592 7.5313 16.75 7.91284 16.75 8.31066V15.25C16.75 16.0784 16.0784 16.75 15.25 16.75H4.75C3.92157 16.75 3.25 16.0784 3.25 15.25V4.75ZM11.6893 4.75H4.75V15.25H15.25V8.31066L11.6893 4.75Z" fill="currentColor"/>
</svg>
