<svg width="20" height="20" viewBox="0 0 20 20" fill="none" xmlns="http://www.w3.org/2000/svg">
<path d="M15.25 3.25C16.0784 3.25 16.75 3.92157 16.75 4.75V15.25C16.75 16.0784 16.0784 16.75 15.25 16.75H4.75C3.92157 16.75 3.25 16.0784 3.25 15.25V4.75C3.25 3.92157 3.92157 3.25 4.75 3.25H15.25ZM4.75 15.25H6.75V4.75H4.75V15.25ZM8.25 15.25H15.25V4.75H8.25V15.25ZM10.3965 7.39648C10.3965 6.95103 10.935 6.72799 11.25 7.04297L13.8535 9.64648C14.0488 9.84175 14.0488 10.1583 13.8535 10.3535L11.25 12.957C10.935 13.272 10.3965 13.049 10.3965 12.6035V7.39648Z" fill="#181818"/>
</svg>
