<svg width="20" height="20" viewBox="0 0 20 20" fill="none" xmlns="http://www.w3.org/2000/svg">
<path d="M15.25 3.25C16.0784 3.25 16.75 3.92157 16.75 4.75V15.25C16.75 16.0784 16.0784 16.75 15.25 16.75H4.75C3.92157 16.75 3.25 16.0784 3.25 15.25V4.75C3.25 3.92157 3.92157 3.25 4.75 3.25H15.25ZM4.75 15.25H11.75V4.75H4.75V15.25ZM13.25 15.25H15.25V4.75H13.25V15.25ZM8.75 7.04297C9.06498 6.72799 9.60352 6.95103 9.60352 7.39648V12.6035C9.60352 13.049 9.06498 13.272 8.75 12.957L6.14648 10.3535C5.95122 10.1583 5.95122 9.84175 6.14648 9.64648L8.75 7.04297Z" fill="#181818"/>
</svg>
