<svg width="20" height="20" viewBox="0 0 20 20" fill="none" xmlns="http://www.w3.org/2000/svg">
<path d="M15.25 3.25C16.0784 3.25 16.75 3.92157 16.75 4.75V15.25C16.75 16.0784 16.0784 16.75 15.25 16.75H4.75C3.92157 16.75 3.25 16.0784 3.25 15.25V4.75C3.25 3.92157 3.92157 3.25 4.75 3.25H15.25ZM4.75 15.25H11.75V4.75H4.75V15.25ZM13.25 15.25H15.25V4.75H13.25V15.25ZM7 7.39648C7 6.95103 7.53853 6.72799 7.85352 7.04297L10.457 9.64648C10.6523 9.84175 10.6523 10.1583 10.457 10.3535L7.85352 12.957C7.53853 13.272 7 13.049 7 12.6035V7.39648Z" fill="#181818"/>
</svg>
