<svg width="20" height="20" viewBox="0 0 20 20" fill="none" xmlns="http://www.w3.org/2000/svg">
<path d="M10.9623 4.15901C11.8409 3.28033 13.2656 3.28033 14.1442 4.15901C15.0229 5.03769 15.0229 6.46231 14.1442 7.34099L7.78028 13.705C7.48739 13.9978 7.01258 13.9978 6.7197 13.705C6.42681 13.4121 6.42681 12.9372 6.7197 12.6443L13.0836 6.28036C13.3765 5.98747 13.3765 5.5126 13.0836 5.21971C12.7907 4.92681 12.3158 4.92681 12.0229 5.21971L5.65896 11.5837C5.65678 11.5859 5.6546 11.588 5.65245 11.5903C4.78037 12.4695 4.78256 13.8891 5.65904 14.7656C6.53772 15.6443 7.96234 15.6443 8.84102 14.7656L15.2049 8.40165C16.6694 6.93718 16.6694 4.56282 15.2049 3.09835C13.7404 1.63388 11.3661 1.63388 9.9016 3.09835L3.53764 9.46231C1.48741 11.5126 1.48747 14.8367 3.53772 16.887C5.58797 18.9372 8.91209 18.9372 10.9623 16.887L17.3263 10.523C17.6192 10.2301 17.6192 9.75525 17.3263 9.46236C17.0334 9.16946 16.5585 9.16946 16.2656 9.46236L9.90168 15.8263C8.43722 17.2908 6.06285 17.2908 4.59838 15.8263C3.13391 14.3618 3.13391 11.9875 4.59838 10.523L4.6065 10.5148L10.9623 4.15901Z" fill="currentColor"/>
</svg>
