<svg width="20" height="20" viewBox="0 0 20 20" fill="none" xmlns="http://www.w3.org/2000/svg">
<path fill-rule="evenodd" clip-rule="evenodd" d="M14.7177 3.75C14.5165 3.75 14.3172 3.78963 14.1313 3.86664C13.9454 3.94365 13.7765 4.05652 13.6342 4.19881L13.1539 4.67905L15.321 6.84608L15.8012 6.36584C15.9435 6.22354 16.0564 6.05462 16.1334 5.86871C16.2104 5.68281 16.25 5.48355 16.25 5.28232C16.25 5.08109 16.2104 4.88183 16.1334 4.69593C16.0564 4.51002 15.9435 4.3411 15.8012 4.19881C15.6589 4.05652 15.49 3.94365 15.3041 3.86664C15.1182 3.78963 14.9189 3.75 14.7177 3.75ZM14.2603 7.90674L12.0933 5.73971L5.65394 12.179L7.82097 14.3461L14.2603 7.90674ZM6.59557 15.242L4.75802 13.4044L4.06893 15.9311L6.59557 15.242ZM13.5573 2.48082C13.9252 2.32843 14.3195 2.25 14.7177 2.25C15.1159 2.25 15.5102 2.32843 15.8781 2.48082C16.246 2.63321 16.5803 2.85657 16.8619 3.13815C17.1435 3.41972 17.3668 3.754 17.5192 4.1219C17.6716 4.4898 17.75 4.88411 17.75 5.28232C17.75 5.68053 17.6716 6.07484 17.5192 6.44274C17.3668 6.81064 17.1435 7.14492 16.8619 7.4265L7.96842 16.3199C7.87613 16.4122 7.76135 16.4788 7.63543 16.5132L3.19736 17.7236C2.9377 17.7944 2.66 17.7206 2.46969 17.5303C2.27937 17.34 2.20563 17.0623 2.27644 16.8027L3.48683 12.3646C3.52117 12.2387 3.58778 12.1239 3.68007 12.0316L12.5735 3.13815C12.8551 2.85657 13.1894 2.63321 13.5573 2.48082Z" fill="currentColor"/>
</svg>
