<svg width="20" height="20" viewBox="0 0 20 20" fill="none" xmlns="http://www.w3.org/2000/svg">
<path d="M11.5 4.5C12.3284 4.5 13 3.82843 13 3C13 2.17157 12.3284 1.5 11.5 1.5C10.6716 1.5 10 2.17157 10 3C10 3.82843 10.6716 4.5 11.5 4.5Z" fill="currentColor"/>
<path d="M9.89192 5.25C9.53177 5.25 9.17536 5.32315 8.84433 5.46503L5.70456 6.81064C5.4288 6.92883 5.25 7.19998 5.25 7.5V10C5.25 10.4142 5.58579 10.75 6 10.75C6.41421 10.75 6.75 10.4142 6.75 10V7.99455L8.4056 7.28501L6.02233 16.8181C5.92186 17.2199 6.16619 17.6271 6.56803 17.7276C6.96988 17.8281 7.37708 17.5837 7.47754 17.1819L9.08552 10.75H10C10.3442 10.75 10.6441 10.5158 10.7276 10.1819L11.2749 7.99274L12.3488 9.8721C12.4503 10.0496 12.6198 10.178 12.8181 10.2276L14.8181 10.7276C15.2199 10.8281 15.6271 10.5837 15.7276 10.1819C15.8281 9.78006 15.5837 9.37285 15.1819 9.27239L13.4924 8.85002L12.2009 6.58998C11.7275 5.76137 10.8463 5.25 9.89192 5.25Z" fill="currentColor"/>
<path d="M9.96967 11.9697C10.2626 11.6768 10.7374 11.6768 11.0303 11.9697L13 13.9393L14.9697 11.9697C15.2626 11.6768 15.7374 11.6768 16.0303 11.9697C16.3232 12.2626 16.3232 12.7374 16.0303 13.0303L14.0607 15L16.0303 16.9697C16.3232 17.2626 16.3232 17.7374 16.0303 18.0303C15.7374 18.3232 15.2626 18.3232 14.9697 18.0303L13 16.0607L11.0303 18.0303C10.7374 18.3232 10.2626 18.3232 9.96967 18.0303C9.67678 17.7374 9.67678 17.2626 9.96967 16.9697L11.9393 15L9.96967 13.0303C9.67678 12.7374 9.67678 12.2626 9.96967 11.9697Z" fill="currentColor"/>
</svg>
