<svg width="20" height="20" viewBox="0 0 20 20" fill="none" xmlns="http://www.w3.org/2000/svg">
<path fill-rule="evenodd" clip-rule="evenodd" d="M6.25 4.96729C6.25 2.89622 7.92893 1.21729 10 1.21729C12.0711 1.21729 13.75 2.89622 13.75 4.96729C13.75 7.03835 12.0711 8.71729 10 8.71729C7.92893 8.71729 6.25 7.03835 6.25 4.96729ZM10 2.71729C8.75736 2.71729 7.75 3.72464 7.75 4.96729C7.75 6.20993 8.75736 7.21729 10 7.21729C11.2426 7.21729 12.25 6.20993 12.25 4.96729C12.25 3.72464 11.2426 2.71729 10 2.71729Z" fill="currentColor"/>
<path d="M10 10.7173C7.10051 10.7173 4.75 13.0678 4.75 15.9673C4.75 16.3815 4.41421 16.7173 4 16.7173C3.58579 16.7173 3.25 16.3815 3.25 15.9673C3.25 12.2394 6.27208 9.21729 10 9.21729C10.7876 9.21729 11.5452 9.35249 12.2499 9.60157C12.6405 9.7396 12.8452 10.1681 12.7071 10.5586C12.5691 10.9492 12.1406 11.1539 11.7501 11.0158C11.2037 10.8227 10.615 10.7173 10 10.7173Z" fill="currentColor"/>
<path d="M15.75 12C15.75 11.5858 15.4142 11.25 15 11.25C14.5858 11.25 14.25 11.5858 14.25 12V14.25H12C11.5858 14.25 11.25 14.5858 11.25 15C11.25 15.4142 11.5858 15.75 12 15.75H14.25V18C14.25 18.4142 14.5858 18.75 15 18.75C15.4142 18.75 15.75 18.4142 15.75 18V15.75H18C18.4142 15.75 18.75 15.4142 18.75 15C18.75 14.5858 18.4142 14.25 18 14.25H15.75V12Z" fill="currentColor"/>
</svg>
