<svg width="20" height="20" viewBox="0 0 20 20" fill="none" xmlns="http://www.w3.org/2000/svg">
<path fill-rule="evenodd" clip-rule="evenodd" d="M6.25 4.96729C6.25 2.89622 7.92893 1.21729 10 1.21729C12.0711 1.21729 13.75 2.89622 13.75 4.96729C13.75 7.03835 12.0711 8.71729 10 8.71729C7.92893 8.71729 6.25 7.03835 6.25 4.96729ZM10 2.71729C8.75736 2.71729 7.75 3.72464 7.75 4.96729C7.75 6.20993 8.75736 7.21729 10 7.21729C11.2426 7.21729 12.25 6.20993 12.25 4.96729C12.25 3.72464 11.2426 2.71729 10 2.71729Z" fill="currentColor"/>
<path d="M10 10.7173C7.10051 10.7173 4.75 13.0678 4.75 15.9673C4.75 16.3815 4.41421 16.7173 4 16.7173C3.58579 16.7173 3.25 16.3815 3.25 15.9673C3.25 12.2394 6.27208 9.21729 10 9.21729C11.4027 9.21729 12.7075 9.64596 13.7878 10.3795C14.1305 10.6122 14.2196 11.0787 13.9869 11.4213C13.7543 11.764 13.2878 11.8532 12.9452 11.6205C12.1056 11.0504 11.0928 10.7173 10 10.7173Z" fill="currentColor"/>
<path d="M18.0303 13.5303C18.3232 13.2374 18.3232 12.7626 18.0303 12.4697C17.7374 12.1768 17.2626 12.1768 16.9697 12.4697L13.5 15.9393L12.0303 14.4697C11.7374 14.1768 11.2626 14.1768 10.9697 14.4697C10.6768 14.7626 10.6768 15.2374 10.9697 15.5303L12.9697 17.5303C13.1103 17.671 13.3011 17.75 13.5 17.75C13.6989 17.75 13.8897 17.671 14.0303 17.5303L18.0303 13.5303Z" fill="currentColor"/>
</svg>
