<svg width="20" height="20" viewBox="0 0 20 20" fill="none" xmlns="http://www.w3.org/2000/svg">
<path fill-rule="evenodd" clip-rule="evenodd" d="M10 1.21729C7.92893 1.21729 6.25 2.89622 6.25 4.96729C6.25 7.03835 7.92893 8.71729 10 8.71729C12.0711 8.71729 13.75 7.03835 13.75 4.96729C13.75 2.89622 12.0711 1.21729 10 1.21729ZM7.75 4.96729C7.75 3.72464 8.75736 2.71729 10 2.71729C11.2426 2.71729 12.25 3.72464 12.25 4.96729C12.25 6.20993 11.2426 7.21729 10 7.21729C8.75736 7.21729 7.75 6.20993 7.75 4.96729Z" fill="currentColor"/>
<path d="M4.75 15.9673C4.75 13.0678 7.10051 10.7173 10 10.7173C10.1478 10.7173 10.294 10.7234 10.4383 10.7353C10.8511 10.7693 11.2134 10.4623 11.2475 10.0495C11.2815 9.63667 10.9745 9.27442 10.5617 9.24036C10.3763 9.22507 10.189 9.21729 10 9.21729C6.27208 9.21729 3.25 12.2394 3.25 15.9673C3.25 16.3815 3.58579 16.7173 4 16.7173C4.41421 16.7173 4.75 16.3815 4.75 15.9673Z" fill="currentColor"/>
<path d="M11.9697 11.9697C12.2626 11.6768 12.7374 11.6768 13.0303 11.9697L15 13.9393L16.9697 11.9697C17.2626 11.6768 17.7374 11.6768 18.0303 11.9697C18.3232 12.2626 18.3232 12.7374 18.0303 13.0303L16.0607 15L18.0303 16.9697C18.3232 17.2626 18.3232 17.7374 18.0303 18.0303C17.7374 18.3232 17.2626 18.3232 16.9697 18.0303L15 16.0607L13.0303 18.0303C12.7374 18.3232 12.2626 18.3232 11.9697 18.0303C11.6768 17.7374 11.6768 17.2626 11.9697 16.9697L13.9393 15L11.9697 13.0303C11.6768 12.7374 11.6768 12.2626 11.9697 11.9697Z" fill="currentColor"/>
</svg>
