<svg width="20" height="20" viewBox="0 0 20 20" fill="none" xmlns="http://www.w3.org/2000/svg">
<path d="M15.75 2C15.75 1.58579 15.4142 1.25 15 1.25C14.5858 1.25 14.25 1.58579 14.25 2V4.25H12C11.5858 4.25 11.25 4.58579 11.25 5C11.25 5.41421 11.5858 5.75 12 5.75H14.25V8C14.25 8.41421 14.5858 8.75 15 8.75C15.4142 8.75 15.75 8.41421 15.75 8V5.75H18C18.4142 5.75 18.75 5.41421 18.75 5C18.75 4.58579 18.4142 4.25 18 4.25H15.75V2Z" fill="currentColor"/>
<path fill-rule="evenodd" clip-rule="evenodd" d="M4.5 2.25C3.25736 2.25 2.25 3.25736 2.25 4.5V4.55556C2.25 11.8426 8.15735 17.75 15.4444 17.75H15.5C16.7426 17.75 17.75 16.7426 17.75 15.5V13.0104C17.75 12.2948 17.3143 11.6513 16.6499 11.3855L14.0019 10.3263C13.3519 10.0663 12.6095 10.2187 12.1145 10.7137L11.0729 11.7553C10.985 11.8432 10.8889 11.8319 10.8448 11.8038C9.77964 11.1263 8.87366 10.2204 8.19619 9.1552C8.16813 9.11108 8.15675 9.01502 8.24467 8.9271L9.28629 7.88548C9.7813 7.39047 9.93368 6.64809 9.67369 5.99811L8.61447 3.35007C8.34871 2.68566 7.70522 2.25 6.98963 2.25H4.5ZM3.75 4.5C3.75 4.08579 4.08579 3.75 4.5 3.75H6.98963C7.09186 3.75 7.18379 3.81224 7.22175 3.90715L8.28097 6.5552C8.31811 6.64805 8.29634 6.75411 8.22563 6.82482L7.18401 7.86644C6.65091 8.39955 6.48721 9.26324 6.9305 9.96021C7.72593 11.2108 8.78917 12.2741 10.0398 13.0695C10.7368 13.5128 11.6005 13.3491 12.1336 12.816L13.1752 11.7744C13.2459 11.7037 13.3519 11.6819 13.4448 11.719L16.0928 12.7782C16.1878 12.8162 16.25 12.9081 16.25 13.0104V15.5C16.25 15.9142 15.9142 16.25 15.5 16.25H15.4444C8.98578 16.25 3.75 11.0142 3.75 4.55556V4.5Z" fill="currentColor"/>
</svg>
