<svg width="20" height="20" viewBox="0 0 20 20" fill="none" xmlns="http://www.w3.org/2000/svg">
<path fill-rule="evenodd" clip-rule="evenodd" d="M2.25 4.5C2.25 3.25736 3.25736 2.25 4.5 2.25H6.98963C7.70522 2.25 8.34871 2.68566 8.61447 3.35007L9.67369 5.99811C9.93368 6.64809 9.7813 7.39047 9.28629 7.88548L8.24467 8.9271C8.15675 9.01502 8.16813 9.11108 8.19619 9.1552C8.87366 10.2204 9.77964 11.1263 10.8448 11.8038C10.8889 11.8319 10.985 11.8432 11.0729 11.7553L12.1145 10.7137C12.6095 10.2187 13.3519 10.0663 14.0019 10.3263L16.6499 11.3855C17.3143 11.6513 17.75 12.2948 17.75 13.0104V15.5C17.75 16.7426 16.7426 17.75 15.5 17.75H15.4444C8.15735 17.75 2.25 11.8426 2.25 4.55556V4.5ZM4.5 3.75C4.08579 3.75 3.75 4.08579 3.75 4.5V4.55556C3.75 11.0142 8.98578 16.25 15.4444 16.25H15.5C15.9142 16.25 16.25 15.9142 16.25 15.5V13.0104C16.25 12.9081 16.1878 12.8162 16.0928 12.7782L13.4448 11.719C13.3519 11.6819 13.2459 11.7037 13.1752 11.7744L12.1336 12.816C11.6005 13.3491 10.7368 13.5128 10.0398 13.0695C8.78917 12.2741 7.72593 11.2108 6.9305 9.96021C6.48721 9.26325 6.65091 8.39955 7.18401 7.86644L8.22563 6.82482C8.29634 6.75411 8.31811 6.64805 8.28097 6.5552L7.22175 3.90715C7.18379 3.81224 7.09186 3.75 6.98963 3.75H4.5Z" fill="currentColor"/>
<path d="M17.5303 2.46967C17.8232 2.76256 17.8232 3.23744 17.5303 3.53033L14.3107 6.75L16.5 6.75C16.9142 6.75 17.25 7.08579 17.25 7.5C17.25 7.91421 16.9142 8.25 16.5 8.25L12.5 8.25C12.0858 8.25 11.75 7.91421 11.75 7.5V3.5C11.75 3.08579 12.0858 2.75 12.5 2.75C12.9142 2.75 13.25 3.08579 13.25 3.5V5.68934L16.4697 2.46967C16.7626 2.17678 17.2374 2.17678 17.5303 2.46967Z" fill="currentColor"/>
</svg>
