<svg width="20" height="20" viewBox="0 0 20 20" fill="none" xmlns="http://www.w3.org/2000/svg">
<path d="M7.5 9C8.32843 9 9 8.32843 9 7.5C9 6.67157 8.32843 6 7.5 6C6.67157 6 6 6.67157 6 7.5C6 8.32843 6.67157 9 7.5 9Z" fill="currentColor"/>
<path fill-rule="evenodd" clip-rule="evenodd" d="M3.25 5.5C3.25 4.25736 4.25736 3.25 5.5 3.25H14.5C15.7426 3.25 16.75 4.25736 16.75 5.5V14.5C16.75 15.7426 15.7426 16.75 14.5 16.75H5.5C4.25736 16.75 3.25 15.7426 3.25 14.5V5.5ZM5.5 4.75C5.08579 4.75 4.75 5.08579 4.75 5.5V13.1893L6.93934 11C7.52513 10.4142 8.47487 10.4142 9.06066 11L9.5 11.4393L11.9393 9.00001C12.5251 8.41422 13.4749 8.41422 14.0607 9.00001L15.25 10.1893V5.5C15.25 5.08579 14.9142 4.75 14.5 4.75H5.5ZM15.25 12.3107L13 10.0607L10.0303 13.0303C9.73744 13.3232 9.26256 13.3232 8.96967 13.0303L8 12.0607L5.03033 15.0303C5.02043 15.0402 5.01032 15.0498 5.00001 15.059C5.1327 15.1778 5.30792 15.25 5.5 15.25H14.5C14.9142 15.25 15.25 14.9142 15.25 14.5V12.3107Z" fill="currentColor"/>
</svg>
