<svg width="20" height="20" viewBox="0 0 20 20" fill="none" xmlns="http://www.w3.org/2000/svg">
<path d="M7.75 9C7.75 7.75736 8.75736 6.75 10 6.75C11.2426 6.75 12.25 7.75736 12.25 9C12.25 10.2426 11.2426 11.25 10 11.25C8.75736 11.25 7.75 10.2426 7.75 9Z" fill="currentColor"/>
<path fill-rule="evenodd" clip-rule="evenodd" d="M10.1279 18.8978L10.1291 18.8971L10.1309 18.8961L10.1361 18.893L10.1528 18.883C10.1668 18.8747 10.1863 18.8628 10.211 18.8476C10.2605 18.8171 10.3307 18.773 10.4187 18.7154C10.5946 18.6002 10.8421 18.4309 11.1375 18.2094C11.7271 17.7672 12.5133 17.1122 13.3011 16.2587C14.8693 14.5598 16.5 12.0111 16.5 8.75C16.5 5.02208 13.4779 2 9.75 2C6.02208 2 3 5.02208 3 8.75C3 12.0111 4.63065 14.5598 6.1989 16.2587C6.98674 17.1122 7.77289 17.7672 8.3625 18.2094C8.65787 18.4309 8.90544 18.6002 9.08135 18.7154C9.16934 18.773 9.23953 18.8171 9.28895 18.8476C9.31366 18.8628 9.33319 18.8747 9.34717 18.883L9.36393 18.893L9.36911 18.8961L9.37156 18.8975C9.60508 19.0337 9.89438 19.0341 10.1279 18.8978ZM10 5.25C7.92893 5.25 6.25 6.92893 6.25 9C6.25 11.0711 7.92893 12.75 10 12.75C12.0711 12.75 13.75 11.0711 13.75 9C13.75 6.92893 12.0711 5.25 10 5.25Z" fill="currentColor"/>
</svg>
