<svg width="20" height="20" viewBox="0 0 20 20" fill="none" xmlns="http://www.w3.org/2000/svg">
<path d="M8.93934 9.06066C8.65804 8.77936 8.5 8.39782 8.5 8C8.5 7.60218 8.65804 7.22064 8.93934 6.93934C9.22064 6.65804 9.60218 6.5 10 6.5C10.3978 6.5 10.7794 6.65804 11.0607 6.93934C11.342 7.22064 11.5 7.60218 11.5 8C11.5 8.39782 11.342 8.77936 11.0607 9.06066C10.7794 9.34196 10.3978 9.5 10 9.5C9.60218 9.5 9.22064 9.34196 8.93934 9.06066Z" fill="currentColor"/>
<path fill-rule="evenodd" clip-rule="evenodd" d="M10 17.5C10.4928 17.5 10.9541 17.258 11.2342 16.8525L11.2383 16.8466L11.2481 16.8323L11.2841 16.7796C11.3152 16.7341 11.36 16.6681 11.4166 16.5839C11.5299 16.4155 11.6906 16.1739 11.883 15.8777C12.2669 15.2865 12.7811 14.4712 13.2975 13.5811C13.811 12.6959 14.3416 11.711 14.7483 10.7853C15.1279 9.92122 15.5 8.89297 15.5 8C15.5 4.96243 13.0376 2.5 10 2.5C6.96243 2.5 4.5 4.96243 4.5 8C4.5 8.89297 4.87205 9.92122 5.25169 10.7853C5.65839 11.711 6.189 12.6959 6.70251 13.5811C7.21886 14.4712 7.73306 15.2865 8.11702 15.8777C8.30942 16.1739 8.47013 16.4155 8.58337 16.5839C8.64001 16.6681 8.68483 16.7341 8.71588 16.7796L8.7519 16.8323L8.76171 16.8466L8.76581 16.8525C9.04587 17.258 9.50722 17.5 10 17.5ZM10 16C10 16 10.3745 15.4579 10.8943 14.6421C12.0733 12.7917 14 9.53321 14 8C14 5.79086 12.2091 4 10 4C7.79086 4 6 5.79086 6 8C6 9.53321 7.92672 12.7917 9.10575 14.6421C9.62553 15.4579 10 16 10 16Z" fill="currentColor"/>
</svg>
