<svg width="20" height="20" viewBox="0 0 20 20" fill="none" xmlns="http://www.w3.org/2000/svg">
<path fill-rule="evenodd" clip-rule="evenodd" d="M10.7316 2.32206C10.0042 2.17736 9.25016 2.25162 8.56494 2.53545C7.87971 2.81928 7.29404 3.29993 6.88199 3.91661C6.46993 4.5333 6.25 5.25832 6.25 6C6.25 6.41421 6.58579 6.75 7 6.75C7.41421 6.75 7.75 6.41422 7.75 6C7.75 5.55499 7.88196 5.11998 8.12919 4.74997C8.37643 4.37996 8.72783 4.09157 9.13896 3.92127C9.5501 3.75098 10.0025 3.70642 10.439 3.79323C10.8754 3.88005 11.2763 4.09434 11.591 4.40901C11.9057 4.72368 12.12 5.12459 12.2068 5.56105C12.2936 5.99751 12.249 6.44991 12.0787 6.86104C11.9084 7.27217 11.62 7.62358 11.25 7.87081C11.1943 7.90803 11.1372 7.94263 11.0787 7.97456C10.6636 8.20135 10.2225 8.51336 9.87697 8.91668C9.5282 9.32376 9.25 9.85788 9.25 10.5V11C9.25 11.4142 9.58579 11.75 10 11.75C10.4142 11.75 10.75 11.4142 10.75 11V10.5C10.75 10.3137 10.8274 10.1128 11.0161 9.89263C11.2079 9.66872 11.486 9.46131 11.7979 9.29093C11.8953 9.2377 11.9906 9.18003 12.0834 9.11801C12.7001 8.70596 13.1807 8.12029 13.4645 7.43506C13.7484 6.74984 13.8226 5.99584 13.6779 5.26841C13.5333 4.54098 13.1761 3.8728 12.6517 3.34835C12.1272 2.8239 11.459 2.46675 10.7316 2.32206ZM10 17C10.8284 17 11.5 16.3284 11.5 15.5C11.5 14.6716 10.8284 14 10 14C9.17157 14 8.5 14.6716 8.5 15.5C8.5 16.3284 9.17157 17 10 17Z" fill="currentColor"/>
</svg>
