<svg width="20" height="20" viewBox="0 0 20 20" fill="none" xmlns="http://www.w3.org/2000/svg">
<path d="M7.42285 3.75C7.42285 4.16421 7.08707 4.5 6.67285 4.5C6.25864 4.5 5.92285 4.16421 5.92285 3.75C5.92285 3.33579 6.25864 3 6.67285 3C7.08707 3 7.42285 3.33579 7.42285 3.75Z" fill="currentColor"/>
<path fill-rule="evenodd" clip-rule="evenodd" d="M5.17285 3.75C5.17285 2.92157 5.84443 2.25 6.67285 2.25C7.50129 2.25 8.17285 2.92158 8.17285 3.75C8.17285 4.57842 7.50129 5.25 6.67285 5.25C5.84442 5.25 5.17285 4.57843 5.17285 3.75Z" fill="currentColor"/>
<path d="M7.42285 16.2451C7.42285 16.6593 7.08707 16.9951 6.67285 16.9951C6.25864 16.9951 5.92285 16.6593 5.92285 16.2451C5.92285 15.8309 6.25864 15.4951 6.67285 15.4951C7.08707 15.4951 7.42285 15.8309 7.42285 16.2451Z" fill="currentColor"/>
<path fill-rule="evenodd" clip-rule="evenodd" d="M5.17285 16.2451C5.17285 15.4167 5.84443 14.7451 6.67285 14.7451C7.50129 14.7451 8.17285 15.4167 8.17285 16.2451C8.17285 17.0735 7.50129 17.7451 6.67285 17.7451C5.84442 17.7451 5.17285 17.0735 5.17285 16.2451Z" fill="currentColor"/>
<path d="M7.42285 9.99756C7.42285 10.4118 7.08707 10.7476 6.67285 10.7476C6.25864 10.7476 5.92285 10.4118 5.92285 9.99756C5.92285 9.58335 6.25864 9.24756 6.67285 9.24756C7.08707 9.24756 7.42285 9.58335 7.42285 9.99756Z" fill="currentColor"/>
<path fill-rule="evenodd" clip-rule="evenodd" d="M5.17285 9.99756C5.17285 9.16913 5.84443 8.49756 6.67285 8.49756C7.50129 8.49756 8.17285 9.16914 8.17285 9.99756C8.17285 10.826 7.50129 11.4976 6.67285 11.4976C5.84442 11.4976 5.17285 10.826 5.17285 9.99756Z" fill="currentColor"/>
<path d="M14.077 3.75C14.077 4.16421 13.7412 4.5 13.327 4.5C12.9128 4.5 12.577 4.16421 12.577 3.75C12.577 3.33579 12.9128 3 13.327 3C13.7412 3 14.077 3.33579 14.077 3.75Z" fill="currentColor"/>
<path fill-rule="evenodd" clip-rule="evenodd" d="M11.827 3.75C11.827 2.92157 12.4986 2.25 13.327 2.25C14.1555 2.25 14.827 2.92158 14.827 3.75C14.827 4.57842 14.1555 5.25 13.327 5.25C12.4986 5.25 11.827 4.57843 11.827 3.75Z" fill="currentColor"/>
<path d="M14.077 16.2451C14.077 16.6593 13.7412 16.9951 13.327 16.9951C12.9128 16.9951 12.577 16.6593 12.577 16.2451C12.577 15.8309 12.9128 15.4951 13.327 15.4951C13.7412 15.4951 14.077 15.8309 14.077 16.2451Z" fill="currentColor"/>
<path fill-rule="evenodd" clip-rule="evenodd" d="M11.827 16.2451C11.827 15.4167 12.4986 14.7451 13.327 14.7451C14.1555 14.7451 14.827 15.4167 14.827 16.2451C14.827 17.0735 14.1555 17.7451 13.327 17.7451C12.4986 17.7451 11.827 17.0735 11.827 16.2451Z" fill="currentColor"/>
<path d="M14.077 9.99756C14.077 10.4118 13.7412 10.7476 13.327 10.7476C12.9128 10.7476 12.577 10.4118 12.577 9.99756C12.577 9.58335 12.9128 9.24756 13.327 9.24756C13.7412 9.24756 14.077 9.58335 14.077 9.99756Z" fill="currentColor"/>
<path fill-rule="evenodd" clip-rule="evenodd" d="M11.827 9.99756C11.827 9.16913 12.4986 8.49756 13.327 8.49756C14.1555 8.49756 14.827 9.16914 14.827 9.99756C14.827 10.826 14.1555 11.4976 13.327 11.4976C12.4986 11.4976 11.827 10.826 11.827 9.99756Z" fill="currentColor"/>
</svg>
