<svg width="20" height="20" viewBox="0 0 20 20" fill="none" xmlns="http://www.w3.org/2000/svg">
<path fill-rule="evenodd" clip-rule="evenodd" d="M7.41792 6.15337C8.41475 5.48882 9.74997 6.20341 9.74997 7.40145V12.5987C9.74997 13.7967 8.41475 14.5113 7.41792 13.8467L3.52 11.2481C2.6294 10.6544 2.6294 9.34572 3.52 8.75199L7.41792 6.15337ZM8.24997 7.40145L4.35205 10.0001L8.24997 12.5987V7.40145Z" fill="currentColor"/>
<path fill-rule="evenodd" clip-rule="evenodd" d="M15.4179 6.15337C16.4148 5.48882 17.75 6.20341 17.75 7.40145V12.5987C17.75 13.7967 16.4148 14.5113 15.4179 13.8467L11.52 11.2481C10.6294 10.6544 10.6294 9.34572 11.52 8.75199L15.4179 6.15337ZM16.25 7.40145L12.3521 10.0001L16.25 12.5987V7.40145Z" fill="currentColor"/>
</svg>
