<svg width="20" height="20" viewBox="0 0 20 20" fill="none" xmlns="http://www.w3.org/2000/svg">
<path fill-rule="evenodd" clip-rule="evenodd" d="M17.5304 2.46967C16.6852 1.62449 15.3149 1.62449 14.4697 2.46967L6.46969 10.4697C6.25519 10.6842 6.19103 11.0068 6.30711 11.287C6.33989 11.3661 6.38521 11.4375 6.44021 11.4992L1.46969 16.4697C1.22803 16.7113 1.1803 17.0858 1.35361 17.3803C1.52693 17.6749 1.87745 17.815 2.20606 17.7211L8.24453 15.9959C9.13565 15.7413 9.75002 14.9268 9.75002 14C9.75002 13.5858 9.41423 13.25 9.00002 13.25C8.5858 13.25 8.25002 13.5858 8.25002 14C8.25002 14.2571 8.07961 14.483 7.83245 14.5536L4.57696 15.4837L8.31068 11.75H11C11.1989 11.75 11.3897 11.671 11.5304 11.5303L17.5304 5.53033C18.3755 4.68515 18.3755 3.31485 17.5304 2.46967ZM15.5304 3.53033C15.7897 3.27094 16.2103 3.27094 16.4697 3.53033C16.7291 3.78972 16.7291 4.21028 16.4697 4.46967L10.6894 10.25H8.81068L15.5304 3.53033Z" fill="currentColor"/>
<path d="M10.2502 16.9808C10.2516 16.5666 10.5885 16.2319 11.0027 16.2333L16.0025 16.25C16.4167 16.2514 16.7514 16.5883 16.75 17.0025C16.7486 17.4167 16.4117 17.7514 15.9975 17.75L10.9977 17.7333C10.5835 17.7319 10.2488 17.395 10.2502 16.9808Z" fill="currentColor"/>
<path d="M18.25 17.75C18.6642 17.75 19 17.4142 19 17C19 16.5858 18.6642 16.25 18.25 16.25C17.8358 16.25 17.5 16.5858 17.5 17C17.5 17.4142 17.8358 17.75 18.25 17.75Z" fill="currentColor"/>
</svg>
