<svg width="20" height="20" viewBox="0 0 20 20" fill="none" xmlns="http://www.w3.org/2000/svg">
<path d="M10.5303 2.46967C10.2374 2.17678 9.76256 2.17678 9.46967 2.46967L6.46967 5.46967C6.17678 5.76256 6.17678 6.23744 6.46967 6.53033C6.76256 6.82322 7.23744 6.82322 7.53033 6.53033L9.25 4.81066V12C9.25 12.4142 9.58579 12.75 10 12.75C10.4142 12.75 10.75 12.4142 10.75 12V4.81066L12.4697 6.53033C12.7626 6.82322 13.2374 6.82322 13.5303 6.53033C13.8232 6.23744 13.8232 5.76256 13.5303 5.46967L10.5303 2.46967Z" fill="currentColor"/>
<path d="M5.75 10.5C5.75 10.0858 6.08579 9.75 6.5 9.75H7C7.41421 9.75 7.75 9.41421 7.75 9C7.75 8.58579 7.41421 8.25 7 8.25H6.5C5.25736 8.25 4.25 9.25736 4.25 10.5V15.5C4.25 16.7426 5.25736 17.75 6.5 17.75H13.5C14.7426 17.75 15.75 16.7426 15.75 15.5V10.5C15.75 9.25736 14.7426 8.25 13.5 8.25H13C12.5858 8.25 12.25 8.58579 12.25 9C12.25 9.41421 12.5858 9.75 13 9.75H13.5C13.9142 9.75 14.25 10.0858 14.25 10.5V15.5C14.25 15.9142 13.9142 16.25 13.5 16.25H6.5C6.08579 16.25 5.75 15.9142 5.75 15.5V10.5Z" fill="currentColor"/>
</svg>
