<svg width="20" height="20" viewBox="0 0 20 20" fill="none" xmlns="http://www.w3.org/2000/svg">
<path d="M5.25 13.5C5.25 13.9142 5.58579 14.25 6 14.25C6.41421 14.25 6.75 13.9142 6.75 13.5L6.75 6.5C6.75 6.08579 6.41421 5.75 6 5.75C5.58579 5.75 5.25 6.08579 5.25 6.5V13.5Z" fill="currentColor"/>
<path fill-rule="evenodd" clip-rule="evenodd" d="M12.418 13.8466C13.4148 14.5112 14.75 13.7966 14.75 12.5986L14.75 7.40133C14.75 6.20329 13.4148 5.4887 12.418 6.15325L8.52003 8.75186C7.62943 9.3456 7.62943 10.6543 8.52003 11.248L12.418 13.8466ZM13.25 12.5986L9.35208 9.99994L13.25 7.40133L13.25 12.5986Z" fill="currentColor"/>
</svg>
