<svg width="20" height="20" viewBox="0 0 20 20" fill="none" xmlns="http://www.w3.org/2000/svg">
<path d="M14.75 6.5C14.75 6.08579 14.4142 5.75 14 5.75C13.5858 5.75 13.25 6.08579 13.25 6.5V13.5C13.25 13.9142 13.5858 14.25 14 14.25C14.4142 14.25 14.75 13.9142 14.75 13.5V6.5Z" fill="currentColor"/>
<path fill-rule="evenodd" clip-rule="evenodd" d="M7.58205 6.15337C6.58522 5.48882 5.25 6.20341 5.25 7.40145V12.5987C5.25 13.7967 6.58522 14.5113 7.58205 13.8467L11.48 11.2481C12.3706 10.6544 12.3706 9.34572 11.48 8.75199L7.58205 6.15337ZM6.75 7.40145L10.6479 10.0001L6.75 12.5987V7.40145Z" fill="currentColor"/>
</svg>
