<svg width="20" height="20" viewBox="0 0 20 20" fill="none" xmlns="http://www.w3.org/2000/svg">
<path fill-rule="evenodd" clip-rule="evenodd" d="M6 4.75C4.75736 4.75 3.75 5.75736 3.75 7V11C3.75 12.2426 4.75736 13.25 6 13.25C6.69036 13.25 7.25 13.8096 7.25 14.5V16.1893L9.82322 13.6161C10.0576 13.3817 10.3756 13.25 10.7071 13.25H14C15.2426 13.25 16.25 12.2426 16.25 11V7C16.25 5.75736 15.2426 4.75 14 4.75H6ZM2.25 7C2.25 4.92893 3.92893 3.25 6 3.25H14C16.0711 3.25 17.75 4.92893 17.75 7V11C17.75 13.0711 16.0711 14.75 14 14.75H10.8107L7.88388 17.6768C7.09643 18.4642 5.75 17.9065 5.75 16.7929V14.7418C3.79549 14.6132 2.25 12.9871 2.25 11V7Z" fill="currentColor"/>
</svg>
