<svg width="20" height="20" viewBox="0 0 20 20" fill="none" xmlns="http://www.w3.org/2000/svg">
<path fill-rule="evenodd" clip-rule="evenodd" d="M7.97916 4.1875V4.9C7.97916 5.31421 7.64337 5.65 7.22916 5.65C6.81494 5.65 6.47916 5.31421 6.47916 4.9V4.02083C6.47916 3.28447 7.07609 2.6875 7.81249 2.6875H15.9792C16.7155 2.6875 17.3125 3.28445 17.3125 4.02083V12.1875C17.3125 12.9239 16.7155 13.5208 15.9792 13.5208H15.1C14.6858 13.5208 14.35 13.185 14.35 12.7708C14.35 12.3566 14.6858 12.0208 15.1 12.0208H15.8125V4.1875H7.97916ZM2.6875 7.8125C2.6875 7.07614 3.28444 6.47917 4.02083 6.47917H12.1875C12.9239 6.47917 13.5208 7.07612 13.5208 7.8125V15.9792C13.5208 16.7156 12.9239 17.3125 12.1875 17.3125H4.02083C3.28444 17.3125 2.6875 16.7156 2.6875 15.9792V7.8125ZM4.1875 7.97917V15.8125H12.0208V7.97917H4.1875Z" fill="currentColor"/>
</svg>
