<svg width="20" height="20" viewBox="0 0 20 20" fill="none" xmlns="http://www.w3.org/2000/svg">
<path fill-rule="evenodd" clip-rule="evenodd" d="M13.3074 12.4463L12.5839 12.6271C12.5195 12.6432 12.4642 12.6842 12.4301 12.7411L9.88639 16.9806C9.59999 17.4579 9.08414 17.75 8.52747 17.75C7.26403 17.75 6.31643 16.5941 6.56421 15.3552L7.02545 13.049C7.05639 12.8943 6.93806 12.75 6.7803 12.75H4.56166C2.77259 12.75 1.45985 11.0687 1.89377 9.33303L2.7044 6.09049C3.12174 4.42111 4.62168 3.25 6.34244 3.25L9.27477 3.25C9.84435 3.25 10.4093 3.35244 10.9426 3.55244L13.338 4.4507C13.5683 3.75329 14.2254 3.25 15 3.25L16 3.25C16.9665 3.25 17.75 4.0335 17.75 5L17.75 12C17.75 12.9665 16.9665 13.75 16 13.75H15C14.1877 13.75 13.5047 13.1966 13.3074 12.4463ZM8.60015 16.2088C8.58484 16.2344 8.55724 16.25 8.52747 16.25C8.2106 16.25 7.97294 15.9601 8.03508 15.6494L8.49632 13.3432C8.71289 12.2603 7.88463 11.25 6.7803 11.25H4.56166C3.74844 11.25 3.15175 10.4858 3.34898 9.69683L4.15961 6.45429C4.41002 5.45267 5.30998 4.75 6.34244 4.75L9.27477 4.75C9.66448 4.75 10.051 4.82009 10.4159 4.95693L13.25 6.01972L13.25 10.9144L12.22 11.1719C11.7698 11.2845 11.3827 11.5713 11.1439 11.9693L8.60015 16.2088ZM16.25 12C16.25 12.1381 16.1381 12.25 16 12.25H15C14.8619 12.25 14.75 12.1381 14.75 12L14.75 5C14.75 4.86193 14.8619 4.75 15 4.75L16 4.75C16.1381 4.75 16.25 4.86193 16.25 5L16.25 12Z" fill="currentColor"/>
</svg>
