<svg width="20" height="20" viewBox="0 0 20 20" fill="none" xmlns="http://www.w3.org/2000/svg">
<path fill-rule="evenodd" clip-rule="evenodd" d="M6.69259 7.55375L7.41617 7.37285C7.48049 7.35677 7.53579 7.3158 7.56991 7.25894L10.1136 3.01941C10.4 2.54207 10.9159 2.25 11.4725 2.25C12.736 2.25 13.6836 3.40588 13.4358 4.64479L12.9746 6.95097C12.9436 7.10567 13.062 7.25 13.2197 7.25H15.4384C17.2274 7.25 18.5402 8.93132 18.1063 10.667L17.2956 13.9095C16.8783 15.5789 15.3783 16.75 13.6576 16.75H10.7253C10.1557 16.75 9.59073 16.6476 9.05742 16.4476L6.66206 15.5493C6.43169 16.2467 5.77462 16.75 5 16.75H4C3.0335 16.75 2.25 15.9665 2.25 15V8C2.25 7.0335 3.0335 6.25 4 6.25H5C5.81228 6.25 6.4953 6.80341 6.69259 7.55375ZM11.3999 3.79115C11.4152 3.76562 11.4428 3.75 11.4725 3.75C11.7894 3.75 12.0271 4.0399 11.9649 4.35062L11.5037 6.6568C11.2871 7.73968 12.1154 8.75 13.2197 8.75H15.4384C16.2516 8.75 16.8483 9.51424 16.651 10.3032L15.8404 13.5457C15.59 14.5473 14.69 15.25 13.6576 15.25H10.7253C10.3355 15.25 9.949 15.1799 9.5841 15.0431L6.75 13.9803V9.08556L7.77997 8.82807C8.23024 8.7155 8.61735 8.42867 8.85615 8.03069L11.3999 3.79115ZM3.75 8C3.75 7.86193 3.86193 7.75 4 7.75H5C5.13807 7.75 5.25 7.86193 5.25 8V15C5.25 15.1381 5.13807 15.25 5 15.25H4C3.86193 15.25 3.75 15.1381 3.75 15V8Z" fill="currentColor"/>
</svg>
