<svg width="20" height="20" viewBox="0 0 20 20" fill="none" xmlns="http://www.w3.org/2000/svg">
<path d="M10.75 5C10.75 4.58579 10.4142 4.25 10 4.25C9.58579 4.25 9.25 4.58579 9.25 5V15C9.25 15.4142 9.58579 15.75 10 15.75C10.4142 15.75 10.75 15.4142 10.75 15V5Z" fill="currentColor"/>
<path d="M2.68188 13.1792C2.41835 13.0557 2.25 12.791 2.25 12.5V7.49999C2.25 7.20898 2.41834 6.94423 2.68188 6.8208C2.94542 6.69736 3.25658 6.73752 3.48014 6.92382L6.48014 9.42382C6.65113 9.56632 6.75 9.77741 6.75 9.99999C6.75 10.2226 6.65113 10.4337 6.48014 10.5762L3.48014 13.0762C3.25658 13.2625 2.94542 13.3026 2.68188 13.1792Z" fill="currentColor"/>
<path d="M17.3181 6.82082C17.5817 6.94425 17.75 7.209 17.75 7.50001V12.5C17.75 12.791 17.5817 13.0558 17.3181 13.1792C17.0546 13.3026 16.7434 13.2625 16.5199 13.0762L13.5199 10.5762C13.3489 10.4337 13.25 10.2226 13.25 10C13.25 9.77742 13.3489 9.56634 13.5199 9.42384L16.5199 6.92384C16.7434 6.73754 17.0546 6.69738 17.3181 6.82082Z" fill="currentColor"/>
</svg>
