<svg width="20" height="20" viewBox="0 0 20 20" fill="none" xmlns="http://www.w3.org/2000/svg">
<path d="M3 6C3 5.44772 3.44772 5 4 5H12C12.5523 5 13 5.44772 13 6V14C13 14.5523 12.5523 15 12 15H4C3.44772 15 3 14.5523 3 14V6Z" fill="currentColor"/>
<path fill-rule="evenodd" clip-rule="evenodd" d="M2.25 6C2.25 5.0335 3.0335 4.25 4 4.25H12C12.9665 4.25 13.75 5.0335 13.75 6V14C13.75 14.9665 12.9665 15.75 12 15.75H4C3.0335 15.75 2.25 14.9665 2.25 14V6ZM4 5.75C3.86193 5.75 3.75 5.86193 3.75 6V14C3.75 14.1381 3.86193 14.25 4 14.25H12C12.1381 14.25 12.25 14.1381 12.25 14V6C12.25 5.86193 12.1381 5.75 12 5.75H4Z" fill="currentColor"/>
<path d="M13 11.3333V8.66667L17 6V14L13 11.3333Z" fill="currentColor"/>
<path fill-rule="evenodd" clip-rule="evenodd" d="M17.3539 5.33874C17.5978 5.46926 17.75 5.7234 17.75 6V14C17.75 14.2766 17.5978 14.5307 17.3539 14.6613C17.11 14.7918 16.8141 14.7775 16.584 14.624L12.584 11.9574C12.3753 11.8183 12.25 11.5841 12.25 11.3333V8.66667C12.25 8.4159 12.3753 8.18173 12.584 8.04263L16.584 5.37596C16.8141 5.22253 17.11 5.20823 17.3539 5.33874ZM13.75 9.06806V10.9319L16.25 12.5986V7.40139L13.75 9.06806Z" fill="currentColor"/>
</svg>
