<svg width="20" height="20" viewBox="0 0 20 20" fill="none" xmlns="http://www.w3.org/2000/svg">
<path fill-rule="evenodd" clip-rule="evenodd" d="M4 4.25C3.0335 4.25 2.25 5.0335 2.25 6V14C2.25 14.9665 3.0335 15.75 4 15.75H12C12.9665 15.75 13.75 14.9665 13.75 14V12.7347L16.584 14.624C16.8141 14.7775 17.11 14.7918 17.3539 14.6613C17.5978 14.5307 17.75 14.2766 17.75 14V6C17.75 5.7234 17.5978 5.46926 17.3539 5.33875C17.11 5.20823 16.8141 5.22254 16.584 5.37596L13.75 7.26528V6C13.75 5.0335 12.9665 4.25 12 4.25H4ZM13.75 9.06806V10.9319L16.25 12.5986V7.40139L13.75 9.06806ZM12.25 6C12.25 5.86193 12.1381 5.75 12 5.75H4C3.86193 5.75 3.75 5.86193 3.75 6V14C3.75 14.1381 3.86193 14.25 4 14.25H12C12.1381 14.25 12.25 14.1381 12.25 14V6Z" fill="currentColor"/>
</svg>
