<svg width="20" height="20" viewBox="0 0 20 20" fill="none" xmlns="http://www.w3.org/2000/svg">
<path d="M10 6.5C10.2761 6.5 10.5 6.72386 10.5 7V7.50672C11.1513 7.52441 11.7417 7.57626 12.2035 7.65322C12.4883 7.70067 12.7478 7.76144 12.9476 7.84016C13.045 7.87854 13.1577 7.93244 13.2548 8.01156C13.3458 8.08563 13.5 8.24716 13.5 8.5C13.5 8.77614 13.2761 9 13 9C12.8232 9 12.6678 8.90824 12.5789 8.76974C12.4748 8.729 12.2956 8.68236 12.0391 8.63962C11.6382 8.5728 11.1048 8.52452 10.5 8.50711V9.50672C11.1513 9.52441 11.7417 9.57626 12.2035 9.65322C12.4883 9.70067 12.7478 9.76144 12.9476 9.84016C13.045 9.87854 13.1577 9.93244 13.2548 10.0116C13.3458 10.0856 13.5 10.2472 13.5 10.5C13.5 10.7761 13.2761 11 13 11C12.8232 11 12.6678 10.9082 12.5789 10.7697C12.4748 10.729 12.2956 10.6824 12.0391 10.6396C11.6382 10.5728 11.1048 10.5245 10.5 10.5071V11.5067C11.1513 11.5244 11.7417 11.5763 12.2035 11.6532C12.4883 11.7007 12.7478 11.7614 12.9476 11.8402C13.045 11.8785 13.1577 11.9324 13.2548 12.0116C13.3458 12.0856 13.5 12.2472 13.5 12.5C13.5 12.7761 13.2761 13 13 13C12.8232 13 12.6678 12.9082 12.5789 12.7697C12.4748 12.729 12.2956 12.6824 12.0391 12.6396C11.6382 12.5728 11.1048 12.5245 10.5 12.5071V13C10.5 13.2761 10.2761 13.5 10 13.5C9.72386 13.5 9.5 13.2761 9.5 13V12.5071C8.89519 12.5245 8.36178 12.5728 7.96086 12.6396C7.70437 12.6824 7.52522 12.729 7.42107 12.7697C7.33217 12.9082 7.1768 13 7 13C6.72386 13 6.5 12.7761 6.5 12.5C6.5 12.2472 6.65423 12.0856 6.74515 12.0116C6.84227 11.9324 6.95504 11.8785 7.05243 11.8402C7.2522 11.7614 7.51173 11.7007 7.79648 11.6532C8.25826 11.5763 8.84875 11.5244 9.5 11.5067V10.5071C8.89519 10.5245 8.36178 10.5728 7.96086 10.6396C7.70437 10.6824 7.52522 10.729 7.42107 10.7697C7.33217 10.9082 7.1768 11 7 11C6.72386 11 6.5 10.7761 6.5 10.5C6.5 10.2472 6.65423 10.0856 6.74515 10.0116C6.84227 9.93244 6.95504 9.87854 7.05243 9.84016C7.2522 9.76144 7.51173 9.70067 7.79648 9.65322C8.25826 9.57626 8.84875 9.52441 9.5 9.50672V8.50711C8.89519 8.52452 8.36178 8.5728 7.96086 8.63962C7.70437 8.68236 7.52522 8.729 7.42107 8.76974C7.33217 8.90824 7.1768 9 7 9C6.72386 9 6.5 8.77614 6.5 8.5C6.5 8.24716 6.65423 8.08563 6.74515 8.01156C6.84227 7.93244 6.95504 7.87854 7.05243 7.84016C7.2522 7.76144 7.51173 7.70067 7.79648 7.65322C8.25826 7.57626 8.84875 7.52441 9.5 7.50672V7C9.5 6.72386 9.72386 6.5 10 6.5Z" fill="currentColor"/>
<path fill-rule="evenodd" clip-rule="evenodd" d="M5 3.25C4.0335 3.25 3.25 4.0335 3.25 5V15C3.25 15.9665 4.0335 16.75 5 16.75H15C15.9665 16.75 16.75 15.9665 16.75 15V5C16.75 4.0335 15.9665 3.25 15 3.25H5ZM4.75 5C4.75 4.86193 4.86193 4.75 5 4.75H15C15.1381 4.75 15.25 4.86193 15.25 5V15C15.25 15.1381 15.1381 15.25 15 15.25H5C4.86193 15.25 4.75 15.1381 4.75 15V5Z" fill="currentColor"/>
</svg>
