<svg width="20" height="20" viewBox="0 0 20 20" fill="none" xmlns="http://www.w3.org/2000/svg">
<g clip-path="url(#clip0_4319_109)">
<path d="M10 2.25C5.71979 2.25 2.25 5.71979 2.25 10C2.25 14.2802 5.71979 17.75 10 17.75C14.2802 17.75 17.75 14.2802 17.75 10C17.75 5.71979 14.2802 2.25 10 2.25Z" fill="black" fill-opacity="0.12"/>
<path fill-rule="evenodd" clip-rule="evenodd" d="M10.5303 14.5303C10.2374 14.8232 9.76256 14.8232 9.46967 14.5303L6.46967 11.5303C6.17678 11.2374 6.17678 10.7626 6.46967 10.4697C6.76256 10.1768 7.23744 10.1768 7.53033 10.4697L9.25 12.1893L9.25 6C9.25 5.58579 9.58579 5.25 10 5.25C10.4142 5.25 10.75 5.58579 10.75 6L10.75 12.1893L12.4697 10.4697C12.7626 10.1768 13.2374 10.1768 13.5303 10.4697C13.8232 10.7626 13.8232 11.2374 13.5303 11.5303L10.5303 14.5303Z" fill="#181818"/>
</g>
<defs>
<clipPath id="clip0_4319_109">
<rect width="20" height="20" fill="white"/>
</clipPath>
</defs>
</svg>
