<svg width="20" height="20" viewBox="0 0 20 20" fill="none" xmlns="http://www.w3.org/2000/svg">
<g clip-path="url(#clip0_4319_263)">
<path d="M10 2.25C5.71979 2.25 2.25 5.71979 2.25 10C2.25 14.2802 5.71979 17.75 10 17.75C14.2802 17.75 17.75 14.2802 17.75 10C17.75 5.71979 14.2802 2.25 10 2.25Z" fill="#B33F3B"/>
<path d="M10.75 5C10.75 4.58579 10.4142 4.25 10 4.25C9.58579 4.25 9.25 4.58579 9.25 5V10C9.25 10.4142 9.58579 10.75 10 10.75C10.4142 10.75 10.75 10.4142 10.75 10V5Z" fill="white"/>
<path d="M10 15C10.8284 15 11.5 14.3284 11.5 13.5C11.5 12.6716 10.8284 12 10 12C9.17157 12 8.5 12.6716 8.5 13.5C8.5 14.3284 9.17157 15 10 15Z" fill="white"/>
</g>
<defs>
<clipPath id="clip0_4319_263">
<rect width="20" height="20" fill="white"/>
</clipPath>
</defs>
</svg>
