<svg width="20" height="20" viewBox="0 0 20 20" fill="none" xmlns="http://www.w3.org/2000/svg">
<g clip-path="url(#clip0_4319_112)">
<path d="M10 2.25C5.71979 2.25 2.25 5.71979 2.25 10C2.25 14.2802 5.71979 17.75 10 17.75C14.2802 17.75 17.75 14.2802 17.75 10C17.75 5.71979 14.2802 2.25 10 2.25Z" fill="black" fill-opacity="0.12"/>
<path fill-rule="evenodd" clip-rule="evenodd" d="M13.3588 6.64124C13.6517 6.93413 13.6517 7.40901 13.3588 7.7019L11.0607 10L13.3588 12.2981C13.6516 12.591 13.6517 13.0659 13.3588 13.3588C13.0659 13.6516 12.591 13.6516 12.2981 13.3588L10 11.0607L7.7019 13.3588C7.40901 13.6516 6.93414 13.6516 6.64124 13.3588C6.34835 13.0659 6.34835 12.591 6.64124 12.2981L8.93934 10L6.64124 7.7019C6.34835 7.40901 6.34835 6.93413 6.64124 6.64124C6.93414 6.34835 7.40901 6.34835 7.7019 6.64124L10 8.93934L12.2981 6.64124C12.591 6.34835 13.0659 6.34835 13.3588 6.64124Z" fill="#181818"/>
</g>
<defs>
<clipPath id="clip0_4319_112">
<rect width="20" height="20" fill="white"/>
</clipPath>
</defs>
</svg>
